G04 #@! TF.FileFunction,Legend,Top*
%FSLAX45Y45*%
G04 Gerber Fmt 4.5, Leading zero omitted, Abs format (unit mm)*
G04 Created by KiCad (PCBNEW (2015-11-19 BZR 6326, Git 08d9b36)-product) date Mon 23 Nov 2015 03:22:04 AM EST*
%MOMM*%
G01*
G04 APERTURE LIST*
%ADD10C,0.100000*%
%ADD11C,0.300000*%
%ADD12C,0.250000*%
%ADD13C,0.350000*%
%ADD14C,0.150000*%
%ADD15C,0.200000*%
G04 APERTURE END LIST*
D10*
D11*
X13273333Y-4474048D02*
X13273333Y-4349048D01*
X13320952Y-4349048D01*
X13332857Y-4355000D01*
X13338810Y-4360952D01*
X13344762Y-4372857D01*
X13344762Y-4390714D01*
X13338810Y-4402619D01*
X13332857Y-4408571D01*
X13320952Y-4414524D01*
X13273333Y-4414524D01*
X13386429Y-4349048D02*
X13416190Y-4474048D01*
X13440000Y-4384762D01*
X13463810Y-4474048D01*
X13493571Y-4349048D01*
X13612619Y-4474048D02*
X13570952Y-4414524D01*
X13541190Y-4474048D02*
X13541190Y-4349048D01*
X13588810Y-4349048D01*
X13600714Y-4355000D01*
X13606667Y-4360952D01*
X13612619Y-4372857D01*
X13612619Y-4390714D01*
X13606667Y-4402619D01*
X13600714Y-4408571D01*
X13588810Y-4414524D01*
X13541190Y-4414524D01*
X13362619Y-4554048D02*
X13386429Y-4554048D01*
X13398333Y-4560000D01*
X13410238Y-4571905D01*
X13416190Y-4595714D01*
X13416190Y-4637381D01*
X13410238Y-4661191D01*
X13398333Y-4673095D01*
X13386429Y-4679048D01*
X13362619Y-4679048D01*
X13350714Y-4673095D01*
X13338809Y-4661191D01*
X13332857Y-4637381D01*
X13332857Y-4595714D01*
X13338809Y-4571905D01*
X13350714Y-4560000D01*
X13362619Y-4554048D01*
X13469762Y-4679048D02*
X13469762Y-4554048D01*
X13541190Y-4679048D01*
X13541190Y-4554048D01*
D12*
X9304286Y-6862857D02*
X9299524Y-6858095D01*
X9294762Y-6843810D01*
X9294762Y-6834286D01*
X9299524Y-6820000D01*
X9309048Y-6810476D01*
X9318571Y-6805714D01*
X9337619Y-6800952D01*
X9351905Y-6800952D01*
X9370952Y-6805714D01*
X9380476Y-6810476D01*
X9390000Y-6820000D01*
X9394762Y-6834286D01*
X9394762Y-6843810D01*
X9390000Y-6858095D01*
X9385238Y-6862857D01*
X9394762Y-6891429D02*
X9394762Y-6948571D01*
X9294762Y-6920000D02*
X9394762Y-6920000D01*
X9184762Y-6803333D02*
X9184762Y-6860476D01*
X9084762Y-6831905D02*
X9184762Y-6831905D01*
X9084762Y-6893810D02*
X9184762Y-6893810D01*
X9184762Y-6931905D01*
X9180000Y-6941429D01*
X9175238Y-6946191D01*
X9165714Y-6950952D01*
X9151429Y-6950952D01*
X9141905Y-6946191D01*
X9137143Y-6941429D01*
X9132381Y-6931905D01*
X9132381Y-6893810D01*
X9084762Y-6993810D02*
X9184762Y-6993810D01*
X9084762Y-7041429D02*
X9184762Y-7041429D01*
X9084762Y-7098571D01*
X9184762Y-7098571D01*
X9122857Y-7146190D02*
X9122857Y-7222381D01*
X8994762Y-6803333D02*
X8994762Y-6860476D01*
X8894762Y-6831905D02*
X8994762Y-6831905D01*
X8894762Y-6893810D02*
X8994762Y-6893810D01*
X8994762Y-6931905D01*
X8990000Y-6941429D01*
X8985238Y-6946191D01*
X8975714Y-6950952D01*
X8961429Y-6950952D01*
X8951905Y-6946191D01*
X8947143Y-6941429D01*
X8942381Y-6931905D01*
X8942381Y-6893810D01*
X8894762Y-6993810D02*
X8994762Y-6993810D01*
X8894762Y-7041429D02*
X8994762Y-7041429D01*
X8894762Y-7098571D01*
X8994762Y-7098571D01*
X8932857Y-7146190D02*
X8932857Y-7222381D01*
X8894762Y-7184286D02*
X8970952Y-7184286D01*
X8794762Y-6806667D02*
X8794762Y-6863810D01*
X8694762Y-6835238D02*
X8794762Y-6835238D01*
X8694762Y-6897143D02*
X8794762Y-6897143D01*
X8794762Y-6935238D01*
X8790000Y-6944762D01*
X8785238Y-6949524D01*
X8775714Y-6954286D01*
X8761429Y-6954286D01*
X8751905Y-6949524D01*
X8747143Y-6944762D01*
X8742381Y-6935238D01*
X8742381Y-6897143D01*
X8794762Y-7016190D02*
X8794762Y-7035238D01*
X8790000Y-7044762D01*
X8780476Y-7054286D01*
X8761429Y-7059048D01*
X8728095Y-7059048D01*
X8709048Y-7054286D01*
X8699524Y-7044762D01*
X8694762Y-7035238D01*
X8694762Y-7016190D01*
X8699524Y-7006667D01*
X8709048Y-6997143D01*
X8728095Y-6992381D01*
X8761429Y-6992381D01*
X8780476Y-6997143D01*
X8790000Y-7006667D01*
X8794762Y-7016190D01*
X8794762Y-7101905D02*
X8713810Y-7101905D01*
X8704286Y-7106667D01*
X8699524Y-7111429D01*
X8694762Y-7120952D01*
X8694762Y-7140000D01*
X8699524Y-7149524D01*
X8704286Y-7154286D01*
X8713810Y-7159048D01*
X8794762Y-7159048D01*
X8794762Y-7192381D02*
X8794762Y-7249524D01*
X8694762Y-7220952D02*
X8794762Y-7220952D01*
X8732857Y-7282857D02*
X8732857Y-7359048D01*
X8594762Y-6806667D02*
X8594762Y-6863810D01*
X8494762Y-6835238D02*
X8594762Y-6835238D01*
X8494762Y-6897143D02*
X8594762Y-6897143D01*
X8594762Y-6935238D01*
X8590000Y-6944762D01*
X8585238Y-6949524D01*
X8575714Y-6954286D01*
X8561429Y-6954286D01*
X8551905Y-6949524D01*
X8547143Y-6944762D01*
X8542381Y-6935238D01*
X8542381Y-6897143D01*
X8594762Y-7016190D02*
X8594762Y-7035238D01*
X8590000Y-7044762D01*
X8580476Y-7054286D01*
X8561429Y-7059048D01*
X8528095Y-7059048D01*
X8509048Y-7054286D01*
X8499524Y-7044762D01*
X8494762Y-7035238D01*
X8494762Y-7016190D01*
X8499524Y-7006667D01*
X8509048Y-6997143D01*
X8528095Y-6992381D01*
X8561429Y-6992381D01*
X8580476Y-6997143D01*
X8590000Y-7006667D01*
X8594762Y-7016190D01*
X8594762Y-7101905D02*
X8513810Y-7101905D01*
X8504286Y-7106667D01*
X8499524Y-7111429D01*
X8494762Y-7120952D01*
X8494762Y-7140000D01*
X8499524Y-7149524D01*
X8504286Y-7154286D01*
X8513810Y-7159048D01*
X8594762Y-7159048D01*
X8594762Y-7192381D02*
X8594762Y-7249524D01*
X8494762Y-7220952D02*
X8594762Y-7220952D01*
X8532857Y-7282857D02*
X8532857Y-7359048D01*
X8494762Y-7320952D02*
X8570952Y-7320952D01*
D11*
X12685714Y-5875000D02*
X12671429Y-5867857D01*
X12650000Y-5867857D01*
X12628571Y-5875000D01*
X12614286Y-5889286D01*
X12607143Y-5903571D01*
X12600000Y-5932143D01*
X12600000Y-5953571D01*
X12607143Y-5982143D01*
X12614286Y-5996429D01*
X12628571Y-6010714D01*
X12650000Y-6017857D01*
X12664286Y-6017857D01*
X12685714Y-6010714D01*
X12692857Y-6003571D01*
X12692857Y-5953571D01*
X12664286Y-5953571D01*
X12757143Y-6017857D02*
X12757143Y-5867857D01*
X12842857Y-6017857D01*
X12842857Y-5867857D01*
X12914286Y-6017857D02*
X12914286Y-5867857D01*
X12950000Y-5867857D01*
X12971429Y-5875000D01*
X12985714Y-5889286D01*
X12992857Y-5903571D01*
X13000000Y-5932143D01*
X13000000Y-5953571D01*
X12992857Y-5982143D01*
X12985714Y-5996429D01*
X12971429Y-6010714D01*
X12950000Y-6017857D01*
X12914286Y-6017857D01*
X13796429Y-5342857D02*
X13725000Y-5342857D01*
X13717857Y-5414286D01*
X13725000Y-5407143D01*
X13739286Y-5400000D01*
X13775000Y-5400000D01*
X13789286Y-5407143D01*
X13796429Y-5414286D01*
X13803571Y-5428571D01*
X13803571Y-5464286D01*
X13796429Y-5478571D01*
X13789286Y-5485714D01*
X13775000Y-5492857D01*
X13739286Y-5492857D01*
X13725000Y-5485714D01*
X13717857Y-5478571D01*
X13846429Y-5342857D02*
X13896429Y-5492857D01*
X13946429Y-5342857D01*
D13*
X10774600Y-5729600D02*
X10774600Y-5710400D01*
X10774600Y-5710400D02*
X10774600Y-5729600D01*
X10725400Y-5729600D02*
X10725400Y-5710400D01*
X10725400Y-5710400D02*
X10725400Y-5729600D01*
X9302900Y-3742900D02*
X9302900Y-3757100D01*
X9302900Y-3757100D02*
X9302900Y-3742900D01*
X9397100Y-3742900D02*
X9397100Y-3757100D01*
X9397100Y-3757100D02*
X9397100Y-3742900D01*
X10532900Y-4614600D02*
X10667100Y-4614600D01*
X10667100Y-4614600D02*
X10532900Y-4614600D01*
X10532900Y-4485400D02*
X10667100Y-4485400D01*
X10667100Y-4485400D02*
X10532900Y-4485400D01*
X11037100Y-4785400D02*
X11022900Y-4785400D01*
X11022900Y-4785400D02*
X11037100Y-4785400D01*
X11037100Y-4834600D02*
X11022900Y-4834600D01*
X11022900Y-4834600D02*
X11037100Y-4834600D01*
X10469600Y-5182100D02*
X10469600Y-5157900D01*
X10469600Y-5157900D02*
X10469600Y-5182100D01*
X10380400Y-5182100D02*
X10380400Y-5157900D01*
X10380400Y-5157900D02*
X10380400Y-5182100D01*
D14*
X10325000Y-3600000D02*
X10400000Y-3525000D01*
X10325000Y-4300000D02*
X10400000Y-4375000D01*
X11175000Y-4375000D02*
X11175000Y-4065000D01*
X10325000Y-3840000D02*
X10325000Y-3600000D01*
X10400000Y-3525000D02*
X11175000Y-3525000D01*
X11175000Y-3525000D02*
X11175000Y-3835000D01*
X10325000Y-4300000D02*
X10325000Y-4065000D01*
X10400000Y-4375000D02*
X11175000Y-4375000D01*
D13*
X13537100Y-5425400D02*
X13522900Y-5425400D01*
X13522900Y-5425400D02*
X13537100Y-5425400D01*
X13537100Y-5474600D02*
X13522900Y-5474600D01*
X13522900Y-5474600D02*
X13537100Y-5474600D01*
X12762100Y-6582900D02*
X12747900Y-6582900D01*
X12747900Y-6582900D02*
X12762100Y-6582900D01*
X12762100Y-6677100D02*
X12747900Y-6677100D01*
X12747900Y-6677100D02*
X12762100Y-6677100D01*
D14*
X12600000Y-4600000D02*
X12525000Y-4675000D01*
X12600000Y-4050000D02*
X12525000Y-3975000D01*
X11900000Y-3975000D02*
X11900000Y-4210000D01*
X12600000Y-4435000D02*
X12600000Y-4600000D01*
X12525000Y-4675000D02*
X11900000Y-4675000D01*
X11900000Y-4675000D02*
X11900000Y-4440000D01*
X12600000Y-4050000D02*
X12600000Y-4210000D01*
X12525000Y-3975000D02*
X11900000Y-3975000D01*
D13*
X13537100Y-5675400D02*
X13522900Y-5675400D01*
X13522900Y-5675400D02*
X13537100Y-5675400D01*
X13537100Y-5724600D02*
X13522900Y-5724600D01*
X13522900Y-5724600D02*
X13537100Y-5724600D01*
X13537100Y-5825400D02*
X13522900Y-5825400D01*
X13522900Y-5825400D02*
X13537100Y-5825400D01*
X13537100Y-5874600D02*
X13522900Y-5874600D01*
X13522900Y-5874600D02*
X13537100Y-5874600D01*
X12432100Y-7200400D02*
X12417900Y-7200400D01*
X12417900Y-7200400D02*
X12432100Y-7200400D01*
X12432100Y-7249600D02*
X12417900Y-7249600D01*
X12417900Y-7249600D02*
X12432100Y-7249600D01*
X12432100Y-6889270D02*
X12417900Y-6889270D01*
X12417900Y-6889270D02*
X12432100Y-6889270D01*
X12432100Y-6938470D02*
X12417900Y-6938470D01*
X12417900Y-6938470D02*
X12432100Y-6938470D01*
X12947900Y-4429600D02*
X13082100Y-4429600D01*
X13082100Y-4429600D02*
X12947900Y-4429600D01*
X12947900Y-4300400D02*
X13082100Y-4300400D01*
X13082100Y-4300400D02*
X12947900Y-4300400D01*
X12947900Y-4654600D02*
X13082100Y-4654600D01*
X13082100Y-4654600D02*
X12947900Y-4654600D01*
X12947900Y-4525400D02*
X13082100Y-4525400D01*
X13082100Y-4525400D02*
X12947900Y-4525400D01*
X13537100Y-5975400D02*
X13522900Y-5975400D01*
X13522900Y-5975400D02*
X13537100Y-5975400D01*
X13537100Y-6024600D02*
X13522900Y-6024600D01*
X13522900Y-6024600D02*
X13537100Y-6024600D01*
X13537100Y-6125400D02*
X13522900Y-6125400D01*
X13522900Y-6125400D02*
X13537100Y-6125400D01*
X13537100Y-6174600D02*
X13522900Y-6174600D01*
X13522900Y-6174600D02*
X13537100Y-6174600D01*
D11*
X13365000Y-4990000D02*
X13365000Y-5310000D01*
D14*
X13485000Y-5320000D02*
X13485000Y-5290000D01*
X13065000Y-5320000D02*
X13485000Y-5320000D01*
X13065000Y-5290000D02*
X13065000Y-5320000D01*
X13485000Y-4980000D02*
X13485000Y-5010000D01*
X13065000Y-4980000D02*
X13485000Y-4980000D01*
X13065000Y-5010000D02*
X13065000Y-4980000D01*
D13*
X9940600Y-3617300D02*
X9992700Y-3617300D01*
X9992700Y-3617300D02*
X9992700Y-4182700D01*
X9992700Y-4182700D02*
X9940600Y-4182700D01*
X9659400Y-3617300D02*
X9607300Y-3617300D01*
X9607300Y-3617300D02*
X9607300Y-4182700D01*
X9607300Y-4182700D02*
X9659400Y-4182700D01*
X9957110Y-3541100D02*
X9969810Y-3553800D01*
X9969810Y-3553800D02*
X9957110Y-3566500D01*
X9957110Y-3566500D02*
X9944410Y-3553800D01*
X9944410Y-3553800D02*
X9957110Y-3541100D01*
D15*
X10658366Y-5211995D02*
X10548366Y-5211995D01*
D14*
X10540000Y-5150000D02*
X10540000Y-5305000D01*
X10660000Y-5150000D02*
X10660000Y-5305000D01*
D15*
X10683366Y-6501994D02*
X10573366Y-6501994D01*
D14*
X10565000Y-6440000D02*
X10565000Y-6595000D01*
X10685000Y-6440000D02*
X10685000Y-6595000D01*
D15*
X9925000Y-5385000D02*
X9725000Y-5385000D01*
X9725000Y-5325000D02*
X9755000Y-5325000D01*
X9725000Y-5625000D02*
X9725000Y-5325000D01*
X9755000Y-5625000D02*
X9725000Y-5625000D01*
X9925000Y-5625000D02*
X9895000Y-5625000D01*
X9925000Y-5615000D02*
X9925000Y-5625000D01*
X9925000Y-5325000D02*
X9925000Y-5615000D01*
X9895000Y-5325000D02*
X9925000Y-5325000D01*
X8050000Y-4100000D02*
X8050000Y-3700000D01*
X8550000Y-4100000D02*
X8050000Y-4100000D01*
X8550000Y-3700000D02*
X8550000Y-4100000D01*
X8050000Y-3700000D02*
X8550000Y-3700000D01*
X11083366Y-6776994D02*
X10973366Y-6776994D01*
D14*
X10965000Y-6715000D02*
X10965000Y-6870000D01*
X11085000Y-6715000D02*
X11085000Y-6870000D01*
X12845000Y-6385000D02*
X12845000Y-6475000D01*
X12845000Y-6475000D02*
X12745000Y-6475000D01*
X12745000Y-6175000D02*
X12845000Y-6175000D01*
X12845000Y-6175000D02*
X12845000Y-6265000D01*
D15*
X8650000Y-4100000D02*
X8650000Y-3700000D01*
X9150000Y-4100000D02*
X8650000Y-4100000D01*
X9150000Y-3700000D02*
X9150000Y-4100000D01*
X8650000Y-3700000D02*
X9150000Y-3700000D01*
D14*
X13640000Y-4605000D02*
X13830000Y-4605000D01*
X13640000Y-4495000D02*
X13830000Y-4495000D01*
X13730000Y-4550000D02*
X13775000Y-4550000D01*
X13725000Y-4525000D02*
X13725000Y-4575000D01*
X13725000Y-4550000D02*
X13750000Y-4525000D01*
X13750000Y-4525000D02*
X13750000Y-4575000D01*
X13750000Y-4575000D02*
X13725000Y-4550000D01*
D13*
X8390000Y-6420000D02*
X9490000Y-6420000D01*
X9490000Y-6420000D02*
X9490000Y-6720000D01*
X9490000Y-6720000D02*
X8390000Y-6720000D01*
X8390000Y-6720000D02*
X8390000Y-6420000D01*
X8640000Y-6420000D02*
X8640000Y-6720000D01*
D14*
X8390000Y-6770000D02*
X8640000Y-6770000D01*
X12728600Y-3700000D02*
G75*
G03X12728600Y-3700000I-228600J0D01*
G01*
X12178600Y-3675000D02*
G75*
G03X12178600Y-3675000I-228600J0D01*
G01*
D10*
X11203482Y-5321300D02*
G75*
G03X11203482Y-5321300I-14142J0D01*
G01*
D15*
X10924340Y-5446300D02*
X10924340Y-5286300D01*
X11224340Y-5446300D02*
X10924340Y-5446300D01*
X11224340Y-5286300D02*
X11224340Y-5446300D01*
X10924340Y-5286300D02*
X11224340Y-5286300D01*
D14*
X11085000Y-6370000D02*
X11175000Y-6370000D01*
X11175000Y-6370000D02*
X11175000Y-6470000D01*
X10875000Y-6470000D02*
X10875000Y-6370000D01*
X10875000Y-6370000D02*
X10965000Y-6370000D01*
X10185000Y-5080000D02*
X10275000Y-5080000D01*
X10275000Y-5080000D02*
X10275000Y-5180000D01*
X9975000Y-5180000D02*
X9975000Y-5080000D01*
X9975000Y-5080000D02*
X10065000Y-5080000D01*
D13*
X10315400Y-6574600D02*
X10334600Y-6574600D01*
X10334600Y-6574600D02*
X10315400Y-6574600D01*
X10315400Y-6525400D02*
X10334600Y-6525400D01*
X10334600Y-6525400D02*
X10315400Y-6525400D01*
X9800400Y-5065400D02*
X9800400Y-5084600D01*
X9800400Y-5084600D02*
X9800400Y-5065400D01*
X9849600Y-5065400D02*
X9849600Y-5084600D01*
X9849600Y-5084600D02*
X9849600Y-5065400D01*
X10115400Y-5474600D02*
X10134600Y-5474600D01*
X10134600Y-5474600D02*
X10115400Y-5474600D01*
X10115400Y-5425400D02*
X10134600Y-5425400D01*
X10134600Y-5425400D02*
X10115400Y-5425400D01*
X11102900Y-5715400D02*
X11102900Y-5754600D01*
X11102900Y-5754600D02*
X11102900Y-5715400D01*
X11197100Y-5715400D02*
X11197100Y-5754600D01*
X11197100Y-5754600D02*
X11197100Y-5715400D01*
X10670400Y-5024600D02*
X10689600Y-5024600D01*
X10689600Y-5024600D02*
X10670400Y-5024600D01*
X10670400Y-4975400D02*
X10689600Y-4975400D01*
X10689600Y-4975400D02*
X10670400Y-4975400D01*
X11012900Y-5024600D02*
X11047100Y-5024600D01*
X11047100Y-5024600D02*
X11012900Y-5024600D01*
X11012900Y-4935400D02*
X11047100Y-4935400D01*
X11047100Y-4935400D02*
X11012900Y-4935400D01*
X10315400Y-6849600D02*
X10334600Y-6849600D01*
X10334600Y-6849600D02*
X10315400Y-6849600D01*
X10315400Y-6800400D02*
X10334600Y-6800400D01*
X10334600Y-6800400D02*
X10315400Y-6800400D01*
X10665400Y-6849600D02*
X10684600Y-6849600D01*
X10684600Y-6849600D02*
X10665400Y-6849600D01*
X10665400Y-6800400D02*
X10684600Y-6800400D01*
X10684600Y-6800400D02*
X10665400Y-6800400D01*
X13160400Y-5474600D02*
X13179600Y-5474600D01*
X13179600Y-5474600D02*
X13160400Y-5474600D01*
X13160400Y-5425400D02*
X13179600Y-5425400D01*
X13179600Y-5425400D02*
X13160400Y-5425400D01*
X12434600Y-7050400D02*
X12415400Y-7050400D01*
X12415400Y-7050400D02*
X12434600Y-7050400D01*
X12434600Y-7099600D02*
X12415400Y-7099600D01*
X12415400Y-7099600D02*
X12434600Y-7099600D01*
X13074600Y-6559600D02*
X13074600Y-6540400D01*
X13074600Y-6540400D02*
X13074600Y-6559600D01*
X13025400Y-6559600D02*
X13025400Y-6540400D01*
X13025400Y-6540400D02*
X13025400Y-6559600D01*
X13134600Y-6205400D02*
X13115400Y-6205400D01*
X13115400Y-6205400D02*
X13134600Y-6205400D01*
X13134600Y-6254600D02*
X13115400Y-6254600D01*
X13115400Y-6254600D02*
X13134600Y-6254600D01*
X12419600Y-6205400D02*
X12400400Y-6205400D01*
X12400400Y-6205400D02*
X12419600Y-6205400D01*
X12419600Y-6254600D02*
X12400400Y-6254600D01*
X12400400Y-6254600D02*
X12419600Y-6254600D01*
X12959600Y-7050400D02*
X12940400Y-7050400D01*
X12940400Y-7050400D02*
X12959600Y-7050400D01*
X12959600Y-7099600D02*
X12940400Y-7099600D01*
X12940400Y-7099600D02*
X12959600Y-7099600D01*
X13849600Y-4789600D02*
X13849600Y-4770400D01*
X13849600Y-4770400D02*
X13849600Y-4789600D01*
X13800400Y-4789600D02*
X13800400Y-4770400D01*
X13800400Y-4770400D02*
X13800400Y-4789600D01*
X10902900Y-5715400D02*
X10902900Y-5754600D01*
X10902900Y-5754600D02*
X10902900Y-5715400D01*
X10997100Y-5715400D02*
X10997100Y-5754600D01*
X10997100Y-5754600D02*
X10997100Y-5715400D01*
D14*
X12540000Y-4740000D02*
X11640000Y-4740000D01*
X12540000Y-6050000D02*
X11640000Y-6050000D01*
X11640000Y-4741000D02*
X11640000Y-6049000D01*
X12540000Y-6049000D02*
X12540000Y-4741000D01*
D13*
X10535900Y-5750500D02*
X10535900Y-6149500D01*
X10004100Y-5750500D02*
X10004100Y-6149500D01*
X10561300Y-5687000D02*
X10574000Y-5699700D01*
X10574000Y-5699700D02*
X10561300Y-5712400D01*
X10561300Y-5712400D02*
X10548600Y-5699700D01*
X10548600Y-5699700D02*
X10561300Y-5687000D01*
D15*
X12287500Y-6648500D02*
X12287500Y-6378500D01*
X11877500Y-6378500D02*
X11877500Y-6648500D01*
X12347500Y-6378500D02*
X11877500Y-6378500D01*
X12347500Y-6648500D02*
X12347500Y-6378500D01*
X11877500Y-6648500D02*
X12347500Y-6648500D01*
D14*
X10746667Y-5566191D02*
X10720000Y-5528095D01*
X10700952Y-5566191D02*
X10700952Y-5486191D01*
X10731429Y-5486191D01*
X10739048Y-5490000D01*
X10742857Y-5493810D01*
X10746667Y-5501429D01*
X10746667Y-5512857D01*
X10742857Y-5520476D01*
X10739048Y-5524286D01*
X10731429Y-5528095D01*
X10700952Y-5528095D01*
X10819048Y-5486191D02*
X10780952Y-5486191D01*
X10777143Y-5524286D01*
X10780952Y-5520476D01*
X10788572Y-5516667D01*
X10807619Y-5516667D01*
X10815238Y-5520476D01*
X10819048Y-5524286D01*
X10822857Y-5531905D01*
X10822857Y-5550952D01*
X10819048Y-5558571D01*
X10815238Y-5562381D01*
X10807619Y-5566191D01*
X10788572Y-5566191D01*
X10780952Y-5562381D01*
X10777143Y-5558571D01*
X9336667Y-3563571D02*
X9332857Y-3567381D01*
X9321429Y-3571190D01*
X9313810Y-3571190D01*
X9302381Y-3567381D01*
X9294762Y-3559762D01*
X9290952Y-3552143D01*
X9287143Y-3536905D01*
X9287143Y-3525476D01*
X9290952Y-3510238D01*
X9294762Y-3502619D01*
X9302381Y-3495000D01*
X9313810Y-3491190D01*
X9321429Y-3491190D01*
X9332857Y-3495000D01*
X9336667Y-3498809D01*
X9412857Y-3571190D02*
X9367143Y-3571190D01*
X9390000Y-3571190D02*
X9390000Y-3491190D01*
X9382381Y-3502619D01*
X9374762Y-3510238D01*
X9367143Y-3514048D01*
X10896667Y-4578571D02*
X10892857Y-4582381D01*
X10881429Y-4586191D01*
X10873810Y-4586191D01*
X10862381Y-4582381D01*
X10854762Y-4574762D01*
X10850952Y-4567143D01*
X10847143Y-4551905D01*
X10847143Y-4540476D01*
X10850952Y-4525238D01*
X10854762Y-4517619D01*
X10862381Y-4510000D01*
X10873810Y-4506191D01*
X10881429Y-4506191D01*
X10892857Y-4510000D01*
X10896667Y-4513810D01*
X10927143Y-4513810D02*
X10930952Y-4510000D01*
X10938572Y-4506191D01*
X10957619Y-4506191D01*
X10965238Y-4510000D01*
X10969048Y-4513810D01*
X10972857Y-4521429D01*
X10972857Y-4529048D01*
X10969048Y-4540476D01*
X10923333Y-4586191D01*
X10972857Y-4586191D01*
X11046667Y-4728571D02*
X11042857Y-4732381D01*
X11031429Y-4736191D01*
X11023810Y-4736191D01*
X11012381Y-4732381D01*
X11004762Y-4724762D01*
X11000952Y-4717143D01*
X10997143Y-4701905D01*
X10997143Y-4690476D01*
X11000952Y-4675238D01*
X11004762Y-4667619D01*
X11012381Y-4660000D01*
X11023810Y-4656191D01*
X11031429Y-4656191D01*
X11042857Y-4660000D01*
X11046667Y-4663810D01*
X11073333Y-4656191D02*
X11122857Y-4656191D01*
X11096191Y-4686667D01*
X11107619Y-4686667D01*
X11115238Y-4690476D01*
X11119048Y-4694286D01*
X11122857Y-4701905D01*
X11122857Y-4720952D01*
X11119048Y-4728571D01*
X11115238Y-4732381D01*
X11107619Y-4736191D01*
X11084762Y-4736191D01*
X11077143Y-4732381D01*
X11073333Y-4728571D01*
X10411667Y-4988571D02*
X10407857Y-4992381D01*
X10396429Y-4996191D01*
X10388810Y-4996191D01*
X10377381Y-4992381D01*
X10369762Y-4984762D01*
X10365952Y-4977143D01*
X10362143Y-4961905D01*
X10362143Y-4950476D01*
X10365952Y-4935238D01*
X10369762Y-4927619D01*
X10377381Y-4920000D01*
X10388810Y-4916191D01*
X10396429Y-4916191D01*
X10407857Y-4920000D01*
X10411667Y-4923810D01*
X10480238Y-4942857D02*
X10480238Y-4996191D01*
X10461191Y-4912381D02*
X10442143Y-4969524D01*
X10491667Y-4969524D01*
X10183333Y-3585714D02*
X10178572Y-3590476D01*
X10164286Y-3595238D01*
X10154762Y-3595238D01*
X10140476Y-3590476D01*
X10130952Y-3580952D01*
X10126191Y-3571429D01*
X10121429Y-3552381D01*
X10121429Y-3538095D01*
X10126191Y-3519048D01*
X10130952Y-3509524D01*
X10140476Y-3500000D01*
X10154762Y-3495238D01*
X10164286Y-3495238D01*
X10178572Y-3500000D01*
X10183333Y-3504762D01*
X10273810Y-3495238D02*
X10226191Y-3495238D01*
X10221429Y-3542857D01*
X10226191Y-3538095D01*
X10235714Y-3533333D01*
X10259524Y-3533333D01*
X10269048Y-3538095D01*
X10273810Y-3542857D01*
X10278572Y-3552381D01*
X10278572Y-3576190D01*
X10273810Y-3585714D01*
X10269048Y-3590476D01*
X10259524Y-3595238D01*
X10235714Y-3595238D01*
X10226191Y-3590476D01*
X10221429Y-3585714D01*
X13516667Y-5603571D02*
X13512857Y-5607381D01*
X13501429Y-5611190D01*
X13493810Y-5611190D01*
X13482381Y-5607381D01*
X13474762Y-5599762D01*
X13470952Y-5592143D01*
X13467143Y-5576905D01*
X13467143Y-5565476D01*
X13470952Y-5550238D01*
X13474762Y-5542619D01*
X13482381Y-5535000D01*
X13493810Y-5531191D01*
X13501429Y-5531191D01*
X13512857Y-5535000D01*
X13516667Y-5538810D01*
X13585238Y-5531191D02*
X13570000Y-5531191D01*
X13562381Y-5535000D01*
X13558571Y-5538810D01*
X13550952Y-5550238D01*
X13547143Y-5565476D01*
X13547143Y-5595952D01*
X13550952Y-5603571D01*
X13554762Y-5607381D01*
X13562381Y-5611190D01*
X13577619Y-5611190D01*
X13585238Y-5607381D01*
X13589048Y-5603571D01*
X13592857Y-5595952D01*
X13592857Y-5576905D01*
X13589048Y-5569286D01*
X13585238Y-5565476D01*
X13577619Y-5561667D01*
X13562381Y-5561667D01*
X13554762Y-5565476D01*
X13550952Y-5569286D01*
X13547143Y-5576905D01*
X12866667Y-6808571D02*
X12862857Y-6812381D01*
X12851429Y-6816190D01*
X12843810Y-6816190D01*
X12832381Y-6812381D01*
X12824762Y-6804762D01*
X12820952Y-6797143D01*
X12817143Y-6781905D01*
X12817143Y-6770476D01*
X12820952Y-6755238D01*
X12824762Y-6747619D01*
X12832381Y-6740000D01*
X12843810Y-6736190D01*
X12851429Y-6736190D01*
X12862857Y-6740000D01*
X12866667Y-6743809D01*
X12893333Y-6736190D02*
X12946667Y-6736190D01*
X12912381Y-6816190D01*
X12735714Y-4141667D02*
X12740476Y-4146428D01*
X12745238Y-4160714D01*
X12745238Y-4170238D01*
X12740476Y-4184524D01*
X12730952Y-4194048D01*
X12721429Y-4198810D01*
X12702381Y-4203571D01*
X12688095Y-4203571D01*
X12669048Y-4198810D01*
X12659524Y-4194048D01*
X12650000Y-4184524D01*
X12645238Y-4170238D01*
X12645238Y-4160714D01*
X12650000Y-4146428D01*
X12654762Y-4141667D01*
X12745238Y-4094048D02*
X12745238Y-4075000D01*
X12740476Y-4065476D01*
X12735714Y-4060714D01*
X12721429Y-4051190D01*
X12702381Y-4046428D01*
X12664286Y-4046428D01*
X12654762Y-4051190D01*
X12650000Y-4055952D01*
X12645238Y-4065476D01*
X12645238Y-4084524D01*
X12650000Y-4094048D01*
X12654762Y-4098809D01*
X12664286Y-4103571D01*
X12688095Y-4103571D01*
X12697619Y-4098809D01*
X12702381Y-4094048D01*
X12707143Y-4084524D01*
X12707143Y-4065476D01*
X12702381Y-4055952D01*
X12697619Y-4051190D01*
X12688095Y-4046428D01*
X13748571Y-5728571D02*
X13744762Y-5732381D01*
X13733333Y-5736190D01*
X13725714Y-5736190D01*
X13714286Y-5732381D01*
X13706667Y-5724762D01*
X13702857Y-5717143D01*
X13699048Y-5701905D01*
X13699048Y-5690476D01*
X13702857Y-5675238D01*
X13706667Y-5667619D01*
X13714286Y-5660000D01*
X13725714Y-5656190D01*
X13733333Y-5656190D01*
X13744762Y-5660000D01*
X13748571Y-5663809D01*
X13824762Y-5736190D02*
X13779048Y-5736190D01*
X13801905Y-5736190D02*
X13801905Y-5656190D01*
X13794286Y-5667619D01*
X13786667Y-5675238D01*
X13779048Y-5679048D01*
X13874286Y-5656190D02*
X13881905Y-5656190D01*
X13889524Y-5660000D01*
X13893333Y-5663809D01*
X13897143Y-5671429D01*
X13900952Y-5686667D01*
X13900952Y-5705714D01*
X13897143Y-5720952D01*
X13893333Y-5728571D01*
X13889524Y-5732381D01*
X13881905Y-5736190D01*
X13874286Y-5736190D01*
X13866667Y-5732381D01*
X13862857Y-5728571D01*
X13859048Y-5720952D01*
X13855238Y-5705714D01*
X13855238Y-5686667D01*
X13859048Y-5671429D01*
X13862857Y-5663809D01*
X13866667Y-5660000D01*
X13874286Y-5656190D01*
X13748571Y-5878571D02*
X13744762Y-5882381D01*
X13733333Y-5886190D01*
X13725714Y-5886190D01*
X13714286Y-5882381D01*
X13706667Y-5874762D01*
X13702857Y-5867143D01*
X13699048Y-5851905D01*
X13699048Y-5840476D01*
X13702857Y-5825238D01*
X13706667Y-5817619D01*
X13714286Y-5810000D01*
X13725714Y-5806190D01*
X13733333Y-5806190D01*
X13744762Y-5810000D01*
X13748571Y-5813809D01*
X13824762Y-5886190D02*
X13779048Y-5886190D01*
X13801905Y-5886190D02*
X13801905Y-5806190D01*
X13794286Y-5817619D01*
X13786667Y-5825238D01*
X13779048Y-5829048D01*
X13900952Y-5886190D02*
X13855238Y-5886190D01*
X13878095Y-5886190D02*
X13878095Y-5806190D01*
X13870476Y-5817619D01*
X13862857Y-5825238D01*
X13855238Y-5829048D01*
X12648571Y-7253571D02*
X12644762Y-7257381D01*
X12633333Y-7261190D01*
X12625714Y-7261190D01*
X12614286Y-7257381D01*
X12606667Y-7249762D01*
X12602857Y-7242143D01*
X12599048Y-7226905D01*
X12599048Y-7215476D01*
X12602857Y-7200238D01*
X12606667Y-7192619D01*
X12614286Y-7185000D01*
X12625714Y-7181190D01*
X12633333Y-7181190D01*
X12644762Y-7185000D01*
X12648571Y-7188809D01*
X12724762Y-7261190D02*
X12679048Y-7261190D01*
X12701905Y-7261190D02*
X12701905Y-7181190D01*
X12694286Y-7192619D01*
X12686667Y-7200238D01*
X12679048Y-7204048D01*
X12755238Y-7188809D02*
X12759048Y-7185000D01*
X12766667Y-7181190D01*
X12785714Y-7181190D01*
X12793333Y-7185000D01*
X12797143Y-7188809D01*
X12800952Y-7196429D01*
X12800952Y-7204048D01*
X12797143Y-7215476D01*
X12751429Y-7261190D01*
X12800952Y-7261190D01*
X12648571Y-6942441D02*
X12644762Y-6946251D01*
X12633333Y-6950060D01*
X12625714Y-6950060D01*
X12614286Y-6946251D01*
X12606667Y-6938632D01*
X12602857Y-6931013D01*
X12599048Y-6915775D01*
X12599048Y-6904346D01*
X12602857Y-6889108D01*
X12606667Y-6881489D01*
X12614286Y-6873870D01*
X12625714Y-6870060D01*
X12633333Y-6870060D01*
X12644762Y-6873870D01*
X12648571Y-6877679D01*
X12724762Y-6950060D02*
X12679048Y-6950060D01*
X12701905Y-6950060D02*
X12701905Y-6870060D01*
X12694286Y-6881489D01*
X12686667Y-6889108D01*
X12679048Y-6892917D01*
X12751429Y-6870060D02*
X12800952Y-6870060D01*
X12774286Y-6900537D01*
X12785714Y-6900537D01*
X12793333Y-6904346D01*
X12797143Y-6908156D01*
X12800952Y-6915775D01*
X12800952Y-6934822D01*
X12797143Y-6942441D01*
X12793333Y-6946251D01*
X12785714Y-6950060D01*
X12762857Y-6950060D01*
X12755238Y-6946251D01*
X12751429Y-6942441D01*
X12963571Y-4243571D02*
X12959762Y-4247381D01*
X12948333Y-4251191D01*
X12940714Y-4251191D01*
X12929286Y-4247381D01*
X12921667Y-4239762D01*
X12917857Y-4232143D01*
X12914048Y-4216905D01*
X12914048Y-4205476D01*
X12917857Y-4190238D01*
X12921667Y-4182619D01*
X12929286Y-4175000D01*
X12940714Y-4171190D01*
X12948333Y-4171190D01*
X12959762Y-4175000D01*
X12963571Y-4178809D01*
X13039762Y-4251191D02*
X12994048Y-4251191D01*
X13016905Y-4251191D02*
X13016905Y-4171190D01*
X13009286Y-4182619D01*
X13001667Y-4190238D01*
X12994048Y-4194048D01*
X13108333Y-4197857D02*
X13108333Y-4251191D01*
X13089286Y-4167381D02*
X13070238Y-4224524D01*
X13119762Y-4224524D01*
X12963571Y-4793571D02*
X12959762Y-4797381D01*
X12948333Y-4801191D01*
X12940714Y-4801191D01*
X12929286Y-4797381D01*
X12921667Y-4789762D01*
X12917857Y-4782143D01*
X12914048Y-4766905D01*
X12914048Y-4755476D01*
X12917857Y-4740238D01*
X12921667Y-4732619D01*
X12929286Y-4725000D01*
X12940714Y-4721191D01*
X12948333Y-4721191D01*
X12959762Y-4725000D01*
X12963571Y-4728810D01*
X13039762Y-4801191D02*
X12994048Y-4801191D01*
X13016905Y-4801191D02*
X13016905Y-4721191D01*
X13009286Y-4732619D01*
X13001667Y-4740238D01*
X12994048Y-4744048D01*
X13112143Y-4721191D02*
X13074048Y-4721191D01*
X13070238Y-4759286D01*
X13074048Y-4755476D01*
X13081667Y-4751667D01*
X13100714Y-4751667D01*
X13108333Y-4755476D01*
X13112143Y-4759286D01*
X13115952Y-4766905D01*
X13115952Y-4785952D01*
X13112143Y-4793571D01*
X13108333Y-4797381D01*
X13100714Y-4801191D01*
X13081667Y-4801191D01*
X13074048Y-4797381D01*
X13070238Y-4793571D01*
X13758571Y-6028571D02*
X13754762Y-6032381D01*
X13743333Y-6036190D01*
X13735714Y-6036190D01*
X13724286Y-6032381D01*
X13716667Y-6024762D01*
X13712857Y-6017143D01*
X13709048Y-6001905D01*
X13709048Y-5990476D01*
X13712857Y-5975238D01*
X13716667Y-5967619D01*
X13724286Y-5960000D01*
X13735714Y-5956190D01*
X13743333Y-5956190D01*
X13754762Y-5960000D01*
X13758571Y-5963809D01*
X13834762Y-6036190D02*
X13789048Y-6036190D01*
X13811905Y-6036190D02*
X13811905Y-5956190D01*
X13804286Y-5967619D01*
X13796667Y-5975238D01*
X13789048Y-5979048D01*
X13903333Y-5956190D02*
X13888095Y-5956190D01*
X13880476Y-5960000D01*
X13876667Y-5963809D01*
X13869048Y-5975238D01*
X13865238Y-5990476D01*
X13865238Y-6020952D01*
X13869048Y-6028571D01*
X13872857Y-6032381D01*
X13880476Y-6036190D01*
X13895714Y-6036190D01*
X13903333Y-6032381D01*
X13907143Y-6028571D01*
X13910952Y-6020952D01*
X13910952Y-6001905D01*
X13907143Y-5994286D01*
X13903333Y-5990476D01*
X13895714Y-5986667D01*
X13880476Y-5986667D01*
X13872857Y-5990476D01*
X13869048Y-5994286D01*
X13865238Y-6001905D01*
X13748571Y-6178571D02*
X13744762Y-6182381D01*
X13733333Y-6186190D01*
X13725714Y-6186190D01*
X13714286Y-6182381D01*
X13706667Y-6174762D01*
X13702857Y-6167143D01*
X13699048Y-6151905D01*
X13699048Y-6140476D01*
X13702857Y-6125238D01*
X13706667Y-6117619D01*
X13714286Y-6110000D01*
X13725714Y-6106190D01*
X13733333Y-6106190D01*
X13744762Y-6110000D01*
X13748571Y-6113809D01*
X13824762Y-6186190D02*
X13779048Y-6186190D01*
X13801905Y-6186190D02*
X13801905Y-6106190D01*
X13794286Y-6117619D01*
X13786667Y-6125238D01*
X13779048Y-6129048D01*
X13851429Y-6106190D02*
X13904762Y-6106190D01*
X13870476Y-6186190D01*
X13176190Y-4945238D02*
X13176190Y-4845238D01*
X13200000Y-4845238D01*
X13214286Y-4850000D01*
X13223810Y-4859524D01*
X13228571Y-4869048D01*
X13233333Y-4888095D01*
X13233333Y-4902381D01*
X13228571Y-4921429D01*
X13223810Y-4930952D01*
X13214286Y-4940476D01*
X13200000Y-4945238D01*
X13176190Y-4945238D01*
X13328571Y-4945238D02*
X13271429Y-4945238D01*
X13300000Y-4945238D02*
X13300000Y-4845238D01*
X13290476Y-4859524D01*
X13280952Y-4869048D01*
X13271429Y-4873810D01*
X9540952Y-4336191D02*
X9540952Y-4256191D01*
X9560000Y-4256191D01*
X9571429Y-4260000D01*
X9579048Y-4267619D01*
X9582857Y-4275238D01*
X9586667Y-4290476D01*
X9586667Y-4301905D01*
X9582857Y-4317143D01*
X9579048Y-4324762D01*
X9571429Y-4332381D01*
X9560000Y-4336191D01*
X9540952Y-4336191D01*
X9617143Y-4263810D02*
X9620952Y-4260000D01*
X9628572Y-4256191D01*
X9647619Y-4256191D01*
X9655238Y-4260000D01*
X9659048Y-4263810D01*
X9662857Y-4271429D01*
X9662857Y-4279048D01*
X9659048Y-4290476D01*
X9613333Y-4336191D01*
X9662857Y-4336191D01*
X10526191Y-5435238D02*
X10526191Y-5335238D01*
X10550000Y-5335238D01*
X10564286Y-5340000D01*
X10573810Y-5349524D01*
X10578572Y-5359048D01*
X10583333Y-5378095D01*
X10583333Y-5392381D01*
X10578572Y-5411429D01*
X10573810Y-5420952D01*
X10564286Y-5430476D01*
X10550000Y-5435238D01*
X10526191Y-5435238D01*
X10616667Y-5335238D02*
X10678572Y-5335238D01*
X10645238Y-5373333D01*
X10659524Y-5373333D01*
X10669048Y-5378095D01*
X10673810Y-5382857D01*
X10678572Y-5392381D01*
X10678572Y-5416191D01*
X10673810Y-5425714D01*
X10669048Y-5430476D01*
X10659524Y-5435238D01*
X10630952Y-5435238D01*
X10621429Y-5430476D01*
X10616667Y-5425714D01*
X10565952Y-6711190D02*
X10565952Y-6631190D01*
X10585000Y-6631190D01*
X10596429Y-6635000D01*
X10604048Y-6642619D01*
X10607857Y-6650238D01*
X10611667Y-6665476D01*
X10611667Y-6676905D01*
X10607857Y-6692143D01*
X10604048Y-6699762D01*
X10596429Y-6707381D01*
X10585000Y-6711190D01*
X10565952Y-6711190D01*
X10680238Y-6657857D02*
X10680238Y-6711190D01*
X10661191Y-6627381D02*
X10642143Y-6684524D01*
X10691667Y-6684524D01*
X9746191Y-5815238D02*
X9746191Y-5715238D01*
X9770000Y-5715238D01*
X9784286Y-5720000D01*
X9793810Y-5729524D01*
X9798572Y-5739048D01*
X9803333Y-5758095D01*
X9803333Y-5772381D01*
X9798572Y-5791429D01*
X9793810Y-5800952D01*
X9784286Y-5810476D01*
X9770000Y-5815238D01*
X9746191Y-5815238D01*
X9893810Y-5715238D02*
X9846191Y-5715238D01*
X9841429Y-5762857D01*
X9846191Y-5758095D01*
X9855714Y-5753333D01*
X9879524Y-5753333D01*
X9889048Y-5758095D01*
X9893810Y-5762857D01*
X9898572Y-5772381D01*
X9898572Y-5796190D01*
X9893810Y-5805714D01*
X9889048Y-5810476D01*
X9879524Y-5815238D01*
X9855714Y-5815238D01*
X9846191Y-5810476D01*
X9841429Y-5805714D01*
X8501191Y-4245238D02*
X8501191Y-4145238D01*
X8525000Y-4145238D01*
X8539286Y-4150000D01*
X8548810Y-4159524D01*
X8553572Y-4169048D01*
X8558333Y-4188095D01*
X8558333Y-4202381D01*
X8553572Y-4221429D01*
X8548810Y-4230952D01*
X8539286Y-4240476D01*
X8525000Y-4245238D01*
X8501191Y-4245238D01*
X8644048Y-4145238D02*
X8625000Y-4145238D01*
X8615476Y-4150000D01*
X8610714Y-4154762D01*
X8601191Y-4169048D01*
X8596429Y-4188095D01*
X8596429Y-4226191D01*
X8601191Y-4235714D01*
X8605952Y-4240476D01*
X8615476Y-4245238D01*
X8634524Y-4245238D01*
X8644048Y-4240476D01*
X8648810Y-4235714D01*
X8653572Y-4226191D01*
X8653572Y-4202381D01*
X8648810Y-4192857D01*
X8644048Y-4188095D01*
X8634524Y-4183333D01*
X8615476Y-4183333D01*
X8605952Y-4188095D01*
X8601191Y-4192857D01*
X8596429Y-4202381D01*
X8132108Y-3507143D02*
X8208298Y-3507143D01*
X8391905Y-3507143D02*
X8468095Y-3507143D01*
X8430000Y-3545238D02*
X8430000Y-3469048D01*
X11126191Y-6825238D02*
X11126191Y-6725238D01*
X11150000Y-6725238D01*
X11164286Y-6730000D01*
X11173810Y-6739524D01*
X11178572Y-6749048D01*
X11183333Y-6768095D01*
X11183333Y-6782381D01*
X11178572Y-6801429D01*
X11173810Y-6810952D01*
X11164286Y-6820476D01*
X11150000Y-6825238D01*
X11126191Y-6825238D01*
X11216667Y-6725238D02*
X11283333Y-6725238D01*
X11240476Y-6825238D01*
X12600952Y-6156190D02*
X12600952Y-6076190D01*
X12620000Y-6076190D01*
X12631429Y-6080000D01*
X12639048Y-6087619D01*
X12642857Y-6095238D01*
X12646667Y-6110476D01*
X12646667Y-6121905D01*
X12642857Y-6137143D01*
X12639048Y-6144762D01*
X12631429Y-6152381D01*
X12620000Y-6156190D01*
X12600952Y-6156190D01*
X12692381Y-6110476D02*
X12684762Y-6106667D01*
X12680952Y-6102857D01*
X12677143Y-6095238D01*
X12677143Y-6091429D01*
X12680952Y-6083809D01*
X12684762Y-6080000D01*
X12692381Y-6076190D01*
X12707619Y-6076190D01*
X12715238Y-6080000D01*
X12719048Y-6083809D01*
X12722857Y-6091429D01*
X12722857Y-6095238D01*
X12719048Y-6102857D01*
X12715238Y-6106667D01*
X12707619Y-6110476D01*
X12692381Y-6110476D01*
X12684762Y-6114286D01*
X12680952Y-6118095D01*
X12677143Y-6125714D01*
X12677143Y-6140952D01*
X12680952Y-6148571D01*
X12684762Y-6152381D01*
X12692381Y-6156190D01*
X12707619Y-6156190D01*
X12715238Y-6152381D01*
X12719048Y-6148571D01*
X12722857Y-6140952D01*
X12722857Y-6125714D01*
X12719048Y-6118095D01*
X12715238Y-6114286D01*
X12707619Y-6110476D01*
X9101191Y-4245238D02*
X9101191Y-4145238D01*
X9125000Y-4145238D01*
X9139286Y-4150000D01*
X9148810Y-4159524D01*
X9153572Y-4169048D01*
X9158333Y-4188095D01*
X9158333Y-4202381D01*
X9153572Y-4221429D01*
X9148810Y-4230952D01*
X9139286Y-4240476D01*
X9125000Y-4245238D01*
X9101191Y-4245238D01*
X9205952Y-4245238D02*
X9225000Y-4245238D01*
X9234524Y-4240476D01*
X9239286Y-4235714D01*
X9248810Y-4221429D01*
X9253572Y-4202381D01*
X9253572Y-4164286D01*
X9248810Y-4154762D01*
X9244048Y-4150000D01*
X9234524Y-4145238D01*
X9215476Y-4145238D01*
X9205952Y-4150000D01*
X9201191Y-4154762D01*
X9196429Y-4164286D01*
X9196429Y-4188095D01*
X9201191Y-4197619D01*
X9205952Y-4202381D01*
X9215476Y-4207143D01*
X9234524Y-4207143D01*
X9244048Y-4202381D01*
X9248810Y-4197619D01*
X9253572Y-4188095D01*
X8736905Y-3507143D02*
X8813095Y-3507143D01*
X8991905Y-3507143D02*
X9068095Y-3507143D01*
X9030000Y-3545238D02*
X9030000Y-3469048D01*
X13728571Y-4445238D02*
X13728571Y-4345238D01*
X13752381Y-4345238D01*
X13766667Y-4350000D01*
X13776190Y-4359524D01*
X13780952Y-4369048D01*
X13785714Y-4388095D01*
X13785714Y-4402381D01*
X13780952Y-4421429D01*
X13776190Y-4430952D01*
X13766667Y-4440476D01*
X13752381Y-4445238D01*
X13728571Y-4445238D01*
X13880952Y-4445238D02*
X13823809Y-4445238D01*
X13852381Y-4445238D02*
X13852381Y-4345238D01*
X13842857Y-4359524D01*
X13833333Y-4369048D01*
X13823809Y-4373810D01*
X13919048Y-4354762D02*
X13923809Y-4350000D01*
X13933333Y-4345238D01*
X13957143Y-4345238D01*
X13966667Y-4350000D01*
X13971429Y-4354762D01*
X13976190Y-4364286D01*
X13976190Y-4373810D01*
X13971429Y-4388095D01*
X13914286Y-4445238D01*
X13976190Y-4445238D01*
X7141667Y-6445238D02*
X7141667Y-6516667D01*
X7136905Y-6530952D01*
X7127381Y-6540476D01*
X7113095Y-6545238D01*
X7103571Y-6545238D01*
X7241667Y-6545238D02*
X7184524Y-6545238D01*
X7213095Y-6545238D02*
X7213095Y-6445238D01*
X7203571Y-6459524D01*
X7194048Y-6469048D01*
X7184524Y-6473809D01*
X10026667Y-4431191D02*
X9988571Y-4431191D01*
X9988571Y-4351191D01*
X10095238Y-4431191D02*
X10049524Y-4431191D01*
X10072381Y-4431191D02*
X10072381Y-4351191D01*
X10064762Y-4362619D01*
X10057143Y-4370238D01*
X10049524Y-4374048D01*
X8880952Y-6606190D02*
X8880952Y-6526190D01*
X8911429Y-6526190D01*
X8919048Y-6530000D01*
X8922857Y-6533809D01*
X8926667Y-6541429D01*
X8926667Y-6552857D01*
X8922857Y-6560476D01*
X8919048Y-6564286D01*
X8911429Y-6568095D01*
X8880952Y-6568095D01*
X8999048Y-6526190D02*
X8960952Y-6526190D01*
X8957143Y-6564286D01*
X8960952Y-6560476D01*
X8968572Y-6556667D01*
X8987619Y-6556667D01*
X8995238Y-6560476D01*
X8999048Y-6564286D01*
X9002857Y-6571905D01*
X9002857Y-6590952D01*
X8999048Y-6598571D01*
X8995238Y-6602381D01*
X8987619Y-6606190D01*
X8968572Y-6606190D01*
X8960952Y-6602381D01*
X8957143Y-6598571D01*
X12745952Y-3566190D02*
X12745952Y-3486190D01*
X12776429Y-3486190D01*
X12784048Y-3490000D01*
X12787857Y-3493809D01*
X12791667Y-3501429D01*
X12791667Y-3512857D01*
X12787857Y-3520476D01*
X12784048Y-3524286D01*
X12776429Y-3528095D01*
X12745952Y-3528095D01*
X12860238Y-3486190D02*
X12845000Y-3486190D01*
X12837381Y-3490000D01*
X12833571Y-3493809D01*
X12825952Y-3505238D01*
X12822143Y-3520476D01*
X12822143Y-3550952D01*
X12825952Y-3558571D01*
X12829762Y-3562381D01*
X12837381Y-3566190D01*
X12852619Y-3566190D01*
X12860238Y-3562381D01*
X12864048Y-3558571D01*
X12867857Y-3550952D01*
X12867857Y-3531905D01*
X12864048Y-3524286D01*
X12860238Y-3520476D01*
X12852619Y-3516667D01*
X12837381Y-3516667D01*
X12829762Y-3520476D01*
X12825952Y-3524286D01*
X12822143Y-3531905D01*
X11600952Y-3561190D02*
X11600952Y-3481190D01*
X11631429Y-3481190D01*
X11639048Y-3485000D01*
X11642857Y-3488809D01*
X11646667Y-3496429D01*
X11646667Y-3507857D01*
X11642857Y-3515476D01*
X11639048Y-3519286D01*
X11631429Y-3523095D01*
X11600952Y-3523095D01*
X11673333Y-3481190D02*
X11726667Y-3481190D01*
X11692381Y-3561190D01*
X10810476Y-5344762D02*
X10800952Y-5340000D01*
X10791429Y-5330476D01*
X10777143Y-5316191D01*
X10767619Y-5311429D01*
X10758095Y-5311429D01*
X10762857Y-5335238D02*
X10753333Y-5330476D01*
X10743810Y-5320952D01*
X10739048Y-5301905D01*
X10739048Y-5268571D01*
X10743810Y-5249524D01*
X10753333Y-5240000D01*
X10762857Y-5235238D01*
X10781905Y-5235238D01*
X10791429Y-5240000D01*
X10800952Y-5249524D01*
X10805714Y-5268571D01*
X10805714Y-5301905D01*
X10800952Y-5320952D01*
X10791429Y-5330476D01*
X10781905Y-5335238D01*
X10762857Y-5335238D01*
X10900952Y-5335238D02*
X10843810Y-5335238D01*
X10872381Y-5335238D02*
X10872381Y-5235238D01*
X10862857Y-5249524D01*
X10853333Y-5259048D01*
X10843810Y-5263810D01*
X11167381Y-6318809D02*
X11159762Y-6315000D01*
X11152143Y-6307381D01*
X11140714Y-6295952D01*
X11133095Y-6292143D01*
X11125476Y-6292143D01*
X11129286Y-6311190D02*
X11121667Y-6307381D01*
X11114048Y-6299762D01*
X11110238Y-6284524D01*
X11110238Y-6257857D01*
X11114048Y-6242619D01*
X11121667Y-6235000D01*
X11129286Y-6231190D01*
X11144524Y-6231190D01*
X11152143Y-6235000D01*
X11159762Y-6242619D01*
X11163571Y-6257857D01*
X11163571Y-6284524D01*
X11159762Y-6299762D01*
X11152143Y-6307381D01*
X11144524Y-6311190D01*
X11129286Y-6311190D01*
X11194048Y-6238809D02*
X11197857Y-6235000D01*
X11205476Y-6231190D01*
X11224524Y-6231190D01*
X11232143Y-6235000D01*
X11235952Y-6238809D01*
X11239762Y-6246429D01*
X11239762Y-6254048D01*
X11235952Y-6265476D01*
X11190238Y-6311190D01*
X11239762Y-6311190D01*
X9982381Y-5043810D02*
X9974762Y-5040000D01*
X9967143Y-5032381D01*
X9955714Y-5020952D01*
X9948095Y-5017143D01*
X9940476Y-5017143D01*
X9944286Y-5036191D02*
X9936667Y-5032381D01*
X9929048Y-5024762D01*
X9925238Y-5009524D01*
X9925238Y-4982857D01*
X9929048Y-4967619D01*
X9936667Y-4960000D01*
X9944286Y-4956191D01*
X9959524Y-4956191D01*
X9967143Y-4960000D01*
X9974762Y-4967619D01*
X9978571Y-4982857D01*
X9978571Y-5009524D01*
X9974762Y-5024762D01*
X9967143Y-5032381D01*
X9959524Y-5036191D01*
X9944286Y-5036191D01*
X10005238Y-4956191D02*
X10054762Y-4956191D01*
X10028095Y-4986667D01*
X10039524Y-4986667D01*
X10047143Y-4990476D01*
X10050952Y-4994286D01*
X10054762Y-5001905D01*
X10054762Y-5020952D01*
X10050952Y-5028571D01*
X10047143Y-5032381D01*
X10039524Y-5036191D01*
X10016667Y-5036191D01*
X10009048Y-5032381D01*
X10005238Y-5028571D01*
X10311667Y-6711190D02*
X10285000Y-6673095D01*
X10265952Y-6711190D02*
X10265952Y-6631190D01*
X10296429Y-6631190D01*
X10304048Y-6635000D01*
X10307857Y-6638809D01*
X10311667Y-6646429D01*
X10311667Y-6657857D01*
X10307857Y-6665476D01*
X10304048Y-6669286D01*
X10296429Y-6673095D01*
X10265952Y-6673095D01*
X10387857Y-6711190D02*
X10342143Y-6711190D01*
X10365000Y-6711190D02*
X10365000Y-6631190D01*
X10357381Y-6642619D01*
X10349762Y-6650238D01*
X10342143Y-6654048D01*
X9666667Y-5036191D02*
X9640000Y-4998095D01*
X9620952Y-5036191D02*
X9620952Y-4956191D01*
X9651429Y-4956191D01*
X9659048Y-4960000D01*
X9662857Y-4963810D01*
X9666667Y-4971429D01*
X9666667Y-4982857D01*
X9662857Y-4990476D01*
X9659048Y-4994286D01*
X9651429Y-4998095D01*
X9620952Y-4998095D01*
X9697143Y-4963810D02*
X9700952Y-4960000D01*
X9708572Y-4956191D01*
X9727619Y-4956191D01*
X9735238Y-4960000D01*
X9739048Y-4963810D01*
X9742857Y-4971429D01*
X9742857Y-4979048D01*
X9739048Y-4990476D01*
X9693333Y-5036191D01*
X9742857Y-5036191D01*
X10336667Y-5486191D02*
X10310000Y-5448095D01*
X10290952Y-5486191D02*
X10290952Y-5406191D01*
X10321429Y-5406191D01*
X10329048Y-5410000D01*
X10332857Y-5413810D01*
X10336667Y-5421429D01*
X10336667Y-5432857D01*
X10332857Y-5440476D01*
X10329048Y-5444286D01*
X10321429Y-5448095D01*
X10290952Y-5448095D01*
X10363333Y-5406191D02*
X10412857Y-5406191D01*
X10386191Y-5436667D01*
X10397619Y-5436667D01*
X10405238Y-5440476D01*
X10409048Y-5444286D01*
X10412857Y-5451905D01*
X10412857Y-5470952D01*
X10409048Y-5478571D01*
X10405238Y-5482381D01*
X10397619Y-5486191D01*
X10374762Y-5486191D01*
X10367143Y-5482381D01*
X10363333Y-5478571D01*
X11186667Y-5991190D02*
X11160000Y-5953095D01*
X11140952Y-5991190D02*
X11140952Y-5911190D01*
X11171429Y-5911190D01*
X11179048Y-5915000D01*
X11182857Y-5918809D01*
X11186667Y-5926429D01*
X11186667Y-5937857D01*
X11182857Y-5945476D01*
X11179048Y-5949286D01*
X11171429Y-5953095D01*
X11140952Y-5953095D01*
X11255238Y-5937857D02*
X11255238Y-5991190D01*
X11236190Y-5907381D02*
X11217143Y-5964524D01*
X11266667Y-5964524D01*
X10591667Y-4921191D02*
X10565000Y-4883095D01*
X10545952Y-4921191D02*
X10545952Y-4841191D01*
X10576429Y-4841191D01*
X10584048Y-4845000D01*
X10587857Y-4848810D01*
X10591667Y-4856429D01*
X10591667Y-4867857D01*
X10587857Y-4875476D01*
X10584048Y-4879286D01*
X10576429Y-4883095D01*
X10545952Y-4883095D01*
X10660238Y-4841191D02*
X10645000Y-4841191D01*
X10637381Y-4845000D01*
X10633572Y-4848810D01*
X10625952Y-4860238D01*
X10622143Y-4875476D01*
X10622143Y-4905952D01*
X10625952Y-4913571D01*
X10629762Y-4917381D01*
X10637381Y-4921191D01*
X10652619Y-4921191D01*
X10660238Y-4917381D01*
X10664048Y-4913571D01*
X10667857Y-4905952D01*
X10667857Y-4886905D01*
X10664048Y-4879286D01*
X10660238Y-4875476D01*
X10652619Y-4871667D01*
X10637381Y-4871667D01*
X10629762Y-4875476D01*
X10625952Y-4879286D01*
X10622143Y-4886905D01*
X11016667Y-5156191D02*
X10990000Y-5118095D01*
X10970952Y-5156191D02*
X10970952Y-5076191D01*
X11001429Y-5076191D01*
X11009048Y-5080000D01*
X11012857Y-5083810D01*
X11016667Y-5091429D01*
X11016667Y-5102857D01*
X11012857Y-5110476D01*
X11009048Y-5114286D01*
X11001429Y-5118095D01*
X10970952Y-5118095D01*
X11043333Y-5076191D02*
X11096667Y-5076191D01*
X11062381Y-5156191D01*
X10311667Y-6986190D02*
X10285000Y-6948095D01*
X10265952Y-6986190D02*
X10265952Y-6906190D01*
X10296429Y-6906190D01*
X10304048Y-6910000D01*
X10307857Y-6913809D01*
X10311667Y-6921429D01*
X10311667Y-6932857D01*
X10307857Y-6940476D01*
X10304048Y-6944286D01*
X10296429Y-6948095D01*
X10265952Y-6948095D01*
X10357381Y-6940476D02*
X10349762Y-6936667D01*
X10345952Y-6932857D01*
X10342143Y-6925238D01*
X10342143Y-6921429D01*
X10345952Y-6913809D01*
X10349762Y-6910000D01*
X10357381Y-6906190D01*
X10372619Y-6906190D01*
X10380238Y-6910000D01*
X10384048Y-6913809D01*
X10387857Y-6921429D01*
X10387857Y-6925238D01*
X10384048Y-6932857D01*
X10380238Y-6936667D01*
X10372619Y-6940476D01*
X10357381Y-6940476D01*
X10349762Y-6944286D01*
X10345952Y-6948095D01*
X10342143Y-6955714D01*
X10342143Y-6970952D01*
X10345952Y-6978571D01*
X10349762Y-6982381D01*
X10357381Y-6986190D01*
X10372619Y-6986190D01*
X10380238Y-6982381D01*
X10384048Y-6978571D01*
X10387857Y-6970952D01*
X10387857Y-6955714D01*
X10384048Y-6948095D01*
X10380238Y-6944286D01*
X10372619Y-6940476D01*
X10661667Y-6986190D02*
X10635000Y-6948095D01*
X10615952Y-6986190D02*
X10615952Y-6906190D01*
X10646429Y-6906190D01*
X10654048Y-6910000D01*
X10657857Y-6913809D01*
X10661667Y-6921429D01*
X10661667Y-6932857D01*
X10657857Y-6940476D01*
X10654048Y-6944286D01*
X10646429Y-6948095D01*
X10615952Y-6948095D01*
X10699762Y-6986190D02*
X10715000Y-6986190D01*
X10722619Y-6982381D01*
X10726429Y-6978571D01*
X10734048Y-6967143D01*
X10737857Y-6951905D01*
X10737857Y-6921429D01*
X10734048Y-6913809D01*
X10730238Y-6910000D01*
X10722619Y-6906190D01*
X10707381Y-6906190D01*
X10699762Y-6910000D01*
X10695952Y-6913809D01*
X10692143Y-6921429D01*
X10692143Y-6940476D01*
X10695952Y-6948095D01*
X10699762Y-6951905D01*
X10707381Y-6955714D01*
X10722619Y-6955714D01*
X10730238Y-6951905D01*
X10734048Y-6948095D01*
X10737857Y-6940476D01*
X13123571Y-5611190D02*
X13096905Y-5573095D01*
X13077857Y-5611190D02*
X13077857Y-5531191D01*
X13108333Y-5531191D01*
X13115952Y-5535000D01*
X13119762Y-5538810D01*
X13123571Y-5546429D01*
X13123571Y-5557857D01*
X13119762Y-5565476D01*
X13115952Y-5569286D01*
X13108333Y-5573095D01*
X13077857Y-5573095D01*
X13199762Y-5611190D02*
X13154048Y-5611190D01*
X13176905Y-5611190D02*
X13176905Y-5531191D01*
X13169286Y-5542619D01*
X13161667Y-5550238D01*
X13154048Y-5554048D01*
X13249286Y-5531191D02*
X13256905Y-5531191D01*
X13264524Y-5535000D01*
X13268333Y-5538810D01*
X13272143Y-5546429D01*
X13275952Y-5561667D01*
X13275952Y-5580714D01*
X13272143Y-5595952D01*
X13268333Y-5603571D01*
X13264524Y-5607381D01*
X13256905Y-5611190D01*
X13249286Y-5611190D01*
X13241667Y-5607381D01*
X13237857Y-5603571D01*
X13234048Y-5595952D01*
X13230238Y-5580714D01*
X13230238Y-5561667D01*
X13234048Y-5546429D01*
X13237857Y-5538810D01*
X13241667Y-5535000D01*
X13249286Y-5531191D01*
X12648571Y-7111190D02*
X12621905Y-7073095D01*
X12602857Y-7111190D02*
X12602857Y-7031190D01*
X12633333Y-7031190D01*
X12640952Y-7035000D01*
X12644762Y-7038809D01*
X12648571Y-7046429D01*
X12648571Y-7057857D01*
X12644762Y-7065476D01*
X12640952Y-7069286D01*
X12633333Y-7073095D01*
X12602857Y-7073095D01*
X12724762Y-7111190D02*
X12679048Y-7111190D01*
X12701905Y-7111190D02*
X12701905Y-7031190D01*
X12694286Y-7042619D01*
X12686667Y-7050238D01*
X12679048Y-7054048D01*
X12800952Y-7111190D02*
X12755238Y-7111190D01*
X12778095Y-7111190D02*
X12778095Y-7031190D01*
X12770476Y-7042619D01*
X12762857Y-7050238D01*
X12755238Y-7054048D01*
X13198571Y-6511190D02*
X13171905Y-6473095D01*
X13152857Y-6511190D02*
X13152857Y-6431190D01*
X13183333Y-6431190D01*
X13190952Y-6435000D01*
X13194762Y-6438809D01*
X13198571Y-6446429D01*
X13198571Y-6457857D01*
X13194762Y-6465476D01*
X13190952Y-6469286D01*
X13183333Y-6473095D01*
X13152857Y-6473095D01*
X13274762Y-6511190D02*
X13229048Y-6511190D01*
X13251905Y-6511190D02*
X13251905Y-6431190D01*
X13244286Y-6442619D01*
X13236667Y-6450238D01*
X13229048Y-6454048D01*
X13305238Y-6438809D02*
X13309048Y-6435000D01*
X13316667Y-6431190D01*
X13335714Y-6431190D01*
X13343333Y-6435000D01*
X13347143Y-6438809D01*
X13350952Y-6446429D01*
X13350952Y-6454048D01*
X13347143Y-6465476D01*
X13301429Y-6511190D01*
X13350952Y-6511190D01*
X13068571Y-6391190D02*
X13041905Y-6353095D01*
X13022857Y-6391190D02*
X13022857Y-6311190D01*
X13053333Y-6311190D01*
X13060952Y-6315000D01*
X13064762Y-6318809D01*
X13068571Y-6326429D01*
X13068571Y-6337857D01*
X13064762Y-6345476D01*
X13060952Y-6349286D01*
X13053333Y-6353095D01*
X13022857Y-6353095D01*
X13144762Y-6391190D02*
X13099048Y-6391190D01*
X13121905Y-6391190D02*
X13121905Y-6311190D01*
X13114286Y-6322619D01*
X13106667Y-6330238D01*
X13099048Y-6334048D01*
X13171429Y-6311190D02*
X13220952Y-6311190D01*
X13194286Y-6341667D01*
X13205714Y-6341667D01*
X13213333Y-6345476D01*
X13217143Y-6349286D01*
X13220952Y-6356905D01*
X13220952Y-6375952D01*
X13217143Y-6383571D01*
X13213333Y-6387381D01*
X13205714Y-6391190D01*
X13182857Y-6391190D01*
X13175238Y-6387381D01*
X13171429Y-6383571D01*
X12103571Y-6266190D02*
X12076905Y-6228095D01*
X12057857Y-6266190D02*
X12057857Y-6186190D01*
X12088333Y-6186190D01*
X12095952Y-6190000D01*
X12099762Y-6193809D01*
X12103571Y-6201429D01*
X12103571Y-6212857D01*
X12099762Y-6220476D01*
X12095952Y-6224286D01*
X12088333Y-6228095D01*
X12057857Y-6228095D01*
X12179762Y-6266190D02*
X12134048Y-6266190D01*
X12156905Y-6266190D02*
X12156905Y-6186190D01*
X12149286Y-6197619D01*
X12141667Y-6205238D01*
X12134048Y-6209048D01*
X12248333Y-6212857D02*
X12248333Y-6266190D01*
X12229286Y-6182381D02*
X12210238Y-6239524D01*
X12259762Y-6239524D01*
X12923571Y-7236190D02*
X12896905Y-7198095D01*
X12877857Y-7236190D02*
X12877857Y-7156190D01*
X12908333Y-7156190D01*
X12915952Y-7160000D01*
X12919762Y-7163809D01*
X12923571Y-7171429D01*
X12923571Y-7182857D01*
X12919762Y-7190476D01*
X12915952Y-7194286D01*
X12908333Y-7198095D01*
X12877857Y-7198095D01*
X12954048Y-7163809D02*
X12957857Y-7160000D01*
X12965476Y-7156190D01*
X12984524Y-7156190D01*
X12992143Y-7160000D01*
X12995952Y-7163809D01*
X12999762Y-7171429D01*
X12999762Y-7179048D01*
X12995952Y-7190476D01*
X12950238Y-7236190D01*
X12999762Y-7236190D01*
X13075952Y-7236190D02*
X13030238Y-7236190D01*
X13053095Y-7236190D02*
X13053095Y-7156190D01*
X13045476Y-7167619D01*
X13037857Y-7175238D01*
X13030238Y-7179048D01*
X13588571Y-4816191D02*
X13561905Y-4778095D01*
X13542857Y-4816191D02*
X13542857Y-4736191D01*
X13573333Y-4736191D01*
X13580952Y-4740000D01*
X13584762Y-4743810D01*
X13588571Y-4751429D01*
X13588571Y-4762857D01*
X13584762Y-4770476D01*
X13580952Y-4774286D01*
X13573333Y-4778095D01*
X13542857Y-4778095D01*
X13619048Y-4743810D02*
X13622857Y-4740000D01*
X13630476Y-4736191D01*
X13649524Y-4736191D01*
X13657143Y-4740000D01*
X13660952Y-4743810D01*
X13664762Y-4751429D01*
X13664762Y-4759048D01*
X13660952Y-4770476D01*
X13615238Y-4816191D01*
X13664762Y-4816191D01*
X13695238Y-4743810D02*
X13699048Y-4740000D01*
X13706667Y-4736191D01*
X13725714Y-4736191D01*
X13733333Y-4740000D01*
X13737143Y-4743810D01*
X13740952Y-4751429D01*
X13740952Y-4759048D01*
X13737143Y-4770476D01*
X13691429Y-4816191D01*
X13740952Y-4816191D01*
X10835476Y-5991190D02*
X10808810Y-5953095D01*
X10789762Y-5991190D02*
X10789762Y-5911190D01*
X10820238Y-5911190D01*
X10827857Y-5915000D01*
X10831667Y-5918809D01*
X10835476Y-5926429D01*
X10835476Y-5937857D01*
X10831667Y-5945476D01*
X10827857Y-5949286D01*
X10820238Y-5953095D01*
X10789762Y-5953095D01*
X10904048Y-5937857D02*
X10904048Y-5991190D01*
X10885000Y-5907381D02*
X10865952Y-5964524D01*
X10915476Y-5964524D01*
X10961191Y-5911190D02*
X10968810Y-5911190D01*
X10976429Y-5915000D01*
X10980238Y-5918809D01*
X10984048Y-5926429D01*
X10987857Y-5941667D01*
X10987857Y-5960714D01*
X10984048Y-5975952D01*
X10980238Y-5983571D01*
X10976429Y-5987381D01*
X10968810Y-5991190D01*
X10961191Y-5991190D01*
X10953572Y-5987381D01*
X10949762Y-5983571D01*
X10945952Y-5975952D01*
X10942143Y-5960714D01*
X10942143Y-5941667D01*
X10945952Y-5926429D01*
X10949762Y-5918809D01*
X10953572Y-5915000D01*
X10961191Y-5911190D01*
X11037381Y-5911190D02*
X11045000Y-5911190D01*
X11052619Y-5915000D01*
X11056429Y-5918809D01*
X11060238Y-5926429D01*
X11064048Y-5941667D01*
X11064048Y-5960714D01*
X11060238Y-5975952D01*
X11056429Y-5983571D01*
X11052619Y-5987381D01*
X11045000Y-5991190D01*
X11037381Y-5991190D01*
X11029762Y-5987381D01*
X11025952Y-5983571D01*
X11022143Y-5975952D01*
X11018333Y-5960714D01*
X11018333Y-5941667D01*
X11022143Y-5926429D01*
X11025952Y-5918809D01*
X11029762Y-5915000D01*
X11037381Y-5911190D01*
X11639809Y-4590238D02*
X11696952Y-4590238D01*
X11668381Y-4690238D02*
X11668381Y-4590238D01*
X11782667Y-4690238D02*
X11725524Y-4690238D01*
X11754095Y-4690238D02*
X11754095Y-4590238D01*
X11744571Y-4604524D01*
X11735048Y-4614048D01*
X11725524Y-4618810D01*
X9834048Y-6156190D02*
X9834048Y-6220952D01*
X9837857Y-6228571D01*
X9841667Y-6232381D01*
X9849286Y-6236190D01*
X9864524Y-6236190D01*
X9872143Y-6232381D01*
X9875952Y-6228571D01*
X9879762Y-6220952D01*
X9879762Y-6156190D01*
X9959762Y-6236190D02*
X9914048Y-6236190D01*
X9936905Y-6236190D02*
X9936905Y-6156190D01*
X9929286Y-6167619D01*
X9921667Y-6175238D01*
X9914048Y-6179048D01*
X11723809Y-6695238D02*
X11723809Y-6776190D01*
X11728571Y-6785714D01*
X11733333Y-6790476D01*
X11742857Y-6795238D01*
X11761905Y-6795238D01*
X11771429Y-6790476D01*
X11776190Y-6785714D01*
X11780952Y-6776190D01*
X11780952Y-6695238D01*
X11819048Y-6695238D02*
X11880952Y-6695238D01*
X11847619Y-6733333D01*
X11861905Y-6733333D01*
X11871429Y-6738095D01*
X11876190Y-6742857D01*
X11880952Y-6752381D01*
X11880952Y-6776190D01*
X11876190Y-6785714D01*
X11871429Y-6790476D01*
X11861905Y-6795238D01*
X11833333Y-6795238D01*
X11823809Y-6790476D01*
X11819048Y-6785714D01*
X13200952Y-6051190D02*
X13200952Y-5971190D01*
X13231429Y-5971190D01*
X13239048Y-5975000D01*
X13242857Y-5978809D01*
X13246667Y-5986429D01*
X13246667Y-5997857D01*
X13242857Y-6005476D01*
X13239048Y-6009286D01*
X13231429Y-6013095D01*
X13200952Y-6013095D01*
X13273333Y-5971190D02*
X13322857Y-5971190D01*
X13296190Y-6001667D01*
X13307619Y-6001667D01*
X13315238Y-6005476D01*
X13319048Y-6009286D01*
X13322857Y-6016905D01*
X13322857Y-6035952D01*
X13319048Y-6043571D01*
X13315238Y-6047381D01*
X13307619Y-6051190D01*
X13284762Y-6051190D01*
X13277143Y-6047381D01*
X13273333Y-6043571D01*
X13855952Y-5006191D02*
X13855952Y-4926191D01*
X13886429Y-4926191D01*
X13894048Y-4930000D01*
X13897857Y-4933810D01*
X13901667Y-4941429D01*
X13901667Y-4952857D01*
X13897857Y-4960476D01*
X13894048Y-4964286D01*
X13886429Y-4968095D01*
X13855952Y-4968095D01*
X13970238Y-4952857D02*
X13970238Y-5006191D01*
X13951190Y-4922381D02*
X13932143Y-4979524D01*
X13981667Y-4979524D01*
M02*
