G04 #@! TF.FileFunction,Copper,L2,Bot,Signal*
%FSLAX45Y45*%
G04 Gerber Fmt 4.5, Leading zero omitted, Abs format (unit mm)*
G04 Created by KiCad (PCBNEW (2015-11-19 BZR 6326, Git 08d9b36)-product) date Mon 23 Nov 2015 03:22:04 AM EST*
%MOMM*%
G01*
G04 APERTURE LIST*
%ADD10C,0.100000*%
%ADD11C,0.600000*%
%ADD12R,1.300000X3.600000*%
%ADD13C,1.600000*%
%ADD14C,2.200000*%
%ADD15R,1.524000X2.286000*%
%ADD16O,1.524000X2.286000*%
%ADD17C,4.064000*%
%ADD18C,0.200000*%
%ADD19C,0.250000*%
%ADD20C,0.150000*%
G04 APERTURE END LIST*
D10*
D11*
X9960000Y-5680000D03*
X9960000Y-5760000D03*
X10090000Y-6380000D03*
X10010000Y-6380000D03*
X10800000Y-6270000D03*
X10890000Y-6270000D03*
X10890000Y-6190000D03*
X10800000Y-6190000D03*
X10620000Y-6270000D03*
X10710000Y-6270000D03*
X10710000Y-6190000D03*
X10620000Y-6190000D03*
X10620000Y-6110000D03*
X10710000Y-6110000D03*
X10710000Y-6030000D03*
X10620000Y-6030000D03*
X10550000Y-5510000D03*
X10550000Y-5590000D03*
X10640000Y-5590000D03*
X10640000Y-5510000D03*
X10990000Y-4260000D03*
X11080000Y-4260000D03*
X11080000Y-4180000D03*
X10990000Y-4180000D03*
X10820000Y-4260000D03*
X10910000Y-4260000D03*
X10910000Y-4180000D03*
X10820000Y-4180000D03*
X10640000Y-4260000D03*
X10730000Y-4260000D03*
X10730000Y-4180000D03*
X10640000Y-4180000D03*
X10360000Y-4860000D03*
X10450000Y-4860000D03*
X10450000Y-4780000D03*
X10360000Y-4780000D03*
X11750000Y-4100000D03*
X11830000Y-4100000D03*
X11830000Y-4020000D03*
X11750000Y-4020000D03*
X11910000Y-4100000D03*
X11990000Y-4100000D03*
X11990000Y-4020000D03*
X11910000Y-4020000D03*
X12070000Y-4100000D03*
X12150000Y-4100000D03*
X12150000Y-4020000D03*
X12070000Y-4020000D03*
X13040000Y-6040000D03*
X13120000Y-6040000D03*
X13330000Y-5920000D03*
X13320000Y-5650000D03*
X12960000Y-5660000D03*
X11620000Y-5660000D03*
X11710000Y-5660000D03*
X11620000Y-5580000D03*
X11710000Y-5580000D03*
X11710000Y-5500000D03*
X11620000Y-5500000D03*
X12560000Y-5890000D03*
X12480000Y-5890000D03*
X12560000Y-5810000D03*
X12480000Y-5810000D03*
X12560000Y-5730000D03*
X12480000Y-5730000D03*
X12560000Y-5650000D03*
X12480000Y-5650000D03*
X12560000Y-5570000D03*
X12480000Y-5570000D03*
X12560000Y-5490000D03*
X11710000Y-5890000D03*
X11620000Y-5890000D03*
X11710000Y-5810000D03*
X11620000Y-5810000D03*
X11710000Y-5730000D03*
D12*
X12339340Y-5650000D03*
X11909340Y-5650000D03*
D13*
X9050000Y-5903000D03*
X9050000Y-5700000D03*
X9050000Y-5091000D03*
X9050000Y-4888000D03*
X9304000Y-6005000D03*
X9304000Y-5802000D03*
X9304000Y-5599000D03*
X9304000Y-5193000D03*
X9304000Y-4990000D03*
D14*
X7209000Y-6201000D03*
X7209000Y-4588000D03*
D15*
X8540000Y-6570000D03*
D16*
X8740000Y-6570000D03*
X8940000Y-6570000D03*
X9140000Y-6570000D03*
X9340000Y-6570000D03*
D17*
X12500000Y-3700000D03*
X11950000Y-3675000D03*
D11*
X11620000Y-5730000D03*
X12480000Y-5490000D03*
X10300000Y-6055000D03*
X9945000Y-5425000D03*
X10500000Y-6710000D03*
X10310000Y-5830000D03*
X13350000Y-4480000D03*
X13280000Y-4480000D03*
X12345000Y-7325000D03*
X10760000Y-5120000D03*
X11360000Y-5410000D03*
D18*
X10225000Y-5590000D02*
X10225000Y-5980000D01*
X10225000Y-5980000D02*
X10300000Y-6055000D01*
X10175000Y-5540000D02*
X10225000Y-5590000D01*
X10060000Y-5540000D02*
X10175000Y-5540000D01*
X9945000Y-5425000D02*
X10060000Y-5540000D01*
X10310000Y-5920000D02*
X10355000Y-5965000D01*
X10355000Y-5965000D02*
X10355000Y-6685000D01*
X10355000Y-6685000D02*
X10380000Y-6710000D01*
X10310000Y-5830000D02*
X10310000Y-5920000D01*
D19*
X10380000Y-6710000D02*
X10500000Y-6710000D01*
X9050000Y-5700000D02*
X8940000Y-5810000D01*
X8940000Y-5810000D02*
X8940000Y-6570000D01*
X9160000Y-5743000D02*
X9160000Y-6410700D01*
X9140000Y-6430700D02*
X9140000Y-6570000D01*
X9160000Y-6410700D02*
X9140000Y-6430700D01*
X9304000Y-5599000D02*
X9160000Y-5743000D01*
X11360000Y-5410000D02*
X11070000Y-5120000D01*
X11070000Y-5120000D02*
X10760000Y-5120000D01*
D20*
G36*
X11292500Y-4900000D02*
X11293091Y-4902918D01*
X11294770Y-4905376D01*
X11297274Y-4906987D01*
X11300000Y-4907500D01*
X11992500Y-4907500D01*
X11992500Y-5992500D01*
X11900000Y-5992500D01*
X11897082Y-5993091D01*
X11894624Y-5994770D01*
X11893013Y-5997274D01*
X11892500Y-6000000D01*
X11892500Y-7362500D01*
X7037500Y-7362500D01*
X7037500Y-6939113D01*
X7302466Y-6939113D01*
X7332470Y-7011729D01*
X7387979Y-7067335D01*
X7460542Y-7097466D01*
X7539113Y-7097534D01*
X7611729Y-7067530D01*
X7667335Y-7012021D01*
X7697466Y-6939457D01*
X7697534Y-6860887D01*
X7667530Y-6788271D01*
X7612021Y-6732665D01*
X7539457Y-6702534D01*
X7460887Y-6702466D01*
X7388271Y-6732470D01*
X7332665Y-6787979D01*
X7302534Y-6860542D01*
X7302466Y-6939113D01*
X7037500Y-6939113D01*
X7037500Y-6455700D01*
X8440859Y-6455700D01*
X8440859Y-6684300D01*
X8442428Y-6692638D01*
X8447356Y-6700296D01*
X8454875Y-6705433D01*
X8463800Y-6707241D01*
X8616200Y-6707241D01*
X8624538Y-6705672D01*
X8632196Y-6700744D01*
X8637333Y-6693225D01*
X8639141Y-6684300D01*
X8639141Y-6529220D01*
X8641300Y-6529220D01*
X8641300Y-6610780D01*
X8648813Y-6648551D01*
X8670209Y-6680571D01*
X8702229Y-6701967D01*
X8740000Y-6709480D01*
X8777771Y-6701967D01*
X8809791Y-6680571D01*
X8831187Y-6648551D01*
X8838700Y-6610780D01*
X8838700Y-6529220D01*
X8841300Y-6529220D01*
X8841300Y-6610780D01*
X8848813Y-6648551D01*
X8870209Y-6680571D01*
X8902229Y-6701967D01*
X8940000Y-6709480D01*
X8977771Y-6701967D01*
X9009791Y-6680571D01*
X9031187Y-6648551D01*
X9038700Y-6610780D01*
X9038700Y-6529220D01*
X9031187Y-6491449D01*
X9009791Y-6459428D01*
X8977771Y-6438033D01*
X8975000Y-6437482D01*
X8975000Y-5972952D01*
X8991863Y-5989845D01*
X9029522Y-6005482D01*
X9070299Y-6005518D01*
X9107986Y-5989946D01*
X9125000Y-5972961D01*
X9125000Y-6396203D01*
X9115251Y-6405951D01*
X9107664Y-6417306D01*
X9105000Y-6430700D01*
X9105000Y-6437482D01*
X9102229Y-6438033D01*
X9070209Y-6459428D01*
X9048813Y-6491449D01*
X9041300Y-6529220D01*
X9041300Y-6610780D01*
X9048813Y-6648551D01*
X9070209Y-6680571D01*
X9102229Y-6701967D01*
X9140000Y-6709480D01*
X9177771Y-6701967D01*
X9209791Y-6680571D01*
X9231187Y-6648551D01*
X9238700Y-6610780D01*
X9238700Y-6529220D01*
X9241300Y-6529220D01*
X9241300Y-6610780D01*
X9248813Y-6648551D01*
X9270209Y-6680571D01*
X9302229Y-6701967D01*
X9340000Y-6709480D01*
X9377771Y-6701967D01*
X9409791Y-6680571D01*
X9431187Y-6648551D01*
X9438700Y-6610780D01*
X9438700Y-6529220D01*
X9431187Y-6491449D01*
X9409791Y-6459428D01*
X9377771Y-6438033D01*
X9340000Y-6430520D01*
X9302229Y-6438033D01*
X9270209Y-6459428D01*
X9248813Y-6491449D01*
X9241300Y-6529220D01*
X9238700Y-6529220D01*
X9231187Y-6491449D01*
X9209791Y-6459428D01*
X9180405Y-6439793D01*
X9184749Y-6435449D01*
X9192336Y-6424094D01*
X9195000Y-6410700D01*
X9195000Y-5757497D01*
X9260553Y-5691945D01*
X9281197Y-5700517D01*
X9246014Y-5715054D01*
X9217155Y-5743863D01*
X9201518Y-5781522D01*
X9201482Y-5822299D01*
X9217054Y-5859986D01*
X9245863Y-5888845D01*
X9281197Y-5903517D01*
X9246014Y-5918054D01*
X9217155Y-5946863D01*
X9201518Y-5984522D01*
X9201482Y-6025299D01*
X9217054Y-6062986D01*
X9245863Y-6091845D01*
X9283522Y-6107482D01*
X9324299Y-6107518D01*
X9361986Y-6091946D01*
X9390845Y-6063137D01*
X9406482Y-6025478D01*
X9406518Y-5984701D01*
X9390946Y-5947014D01*
X9362137Y-5918155D01*
X9326803Y-5903483D01*
X9361986Y-5888946D01*
X9390845Y-5860137D01*
X9406482Y-5822478D01*
X9406518Y-5781701D01*
X9390946Y-5744014D01*
X9362137Y-5715155D01*
X9326803Y-5700483D01*
X9361986Y-5685946D01*
X9390845Y-5657137D01*
X9406482Y-5619478D01*
X9406518Y-5578701D01*
X9390946Y-5541014D01*
X9362137Y-5512155D01*
X9324478Y-5496518D01*
X9283701Y-5496482D01*
X9246014Y-5512054D01*
X9217155Y-5540863D01*
X9201518Y-5578522D01*
X9201482Y-5619299D01*
X9211049Y-5642453D01*
X9152499Y-5701003D01*
X9152518Y-5679701D01*
X9136946Y-5642014D01*
X9108137Y-5613155D01*
X9070478Y-5597518D01*
X9029701Y-5597482D01*
X8992014Y-5613054D01*
X8963155Y-5641863D01*
X8947518Y-5679522D01*
X8947482Y-5720299D01*
X8957049Y-5743453D01*
X8915251Y-5785251D01*
X8907664Y-5796606D01*
X8905000Y-5810000D01*
X8905000Y-6437482D01*
X8902229Y-6438033D01*
X8870209Y-6459428D01*
X8848813Y-6491449D01*
X8841300Y-6529220D01*
X8838700Y-6529220D01*
X8831187Y-6491449D01*
X8809791Y-6459428D01*
X8777771Y-6438033D01*
X8740000Y-6430520D01*
X8702229Y-6438033D01*
X8670209Y-6459428D01*
X8648813Y-6491449D01*
X8641300Y-6529220D01*
X8639141Y-6529220D01*
X8639141Y-6455700D01*
X8637572Y-6447362D01*
X8632644Y-6439704D01*
X8625125Y-6434567D01*
X8616200Y-6432759D01*
X8463800Y-6432759D01*
X8455462Y-6434328D01*
X8447804Y-6439256D01*
X8442667Y-6446775D01*
X8440859Y-6455700D01*
X7037500Y-6455700D01*
X7037500Y-6066637D01*
X7340968Y-6066637D01*
X7369073Y-6134657D01*
X7421069Y-6186744D01*
X7489040Y-6214968D01*
X7562637Y-6215032D01*
X7630657Y-6186927D01*
X7682744Y-6134931D01*
X7710968Y-6066960D01*
X7711032Y-5993363D01*
X7682927Y-5925343D01*
X7630931Y-5873256D01*
X7562960Y-5845032D01*
X7489363Y-5844968D01*
X7421343Y-5873073D01*
X7369256Y-5925069D01*
X7341032Y-5993040D01*
X7340968Y-6066637D01*
X7037500Y-6066637D01*
X7037500Y-5435397D01*
X9892491Y-5435397D01*
X9900467Y-5454700D01*
X9915222Y-5469481D01*
X9934511Y-5477491D01*
X9951544Y-5477506D01*
X10037019Y-5562981D01*
X10037019Y-5562981D01*
X10047563Y-5570026D01*
X10060000Y-5572500D01*
X10060001Y-5572500D01*
X10161538Y-5572500D01*
X10192500Y-5603462D01*
X10192500Y-5980000D01*
X10194974Y-5992437D01*
X10202019Y-6002981D01*
X10247506Y-6048468D01*
X10247491Y-6065397D01*
X10255467Y-6084700D01*
X10270222Y-6099481D01*
X10289511Y-6107491D01*
X10310397Y-6107509D01*
X10322500Y-6102508D01*
X10322500Y-6685000D01*
X10324974Y-6697437D01*
X10332019Y-6707981D01*
X10348132Y-6724094D01*
X10355251Y-6734749D01*
X10366606Y-6742336D01*
X10380000Y-6745000D01*
X10460757Y-6745000D01*
X10470222Y-6754481D01*
X10489511Y-6762491D01*
X10510397Y-6762509D01*
X10529700Y-6754533D01*
X10544481Y-6739778D01*
X10552491Y-6720489D01*
X10552509Y-6699603D01*
X10544533Y-6680300D01*
X10529778Y-6665519D01*
X10510489Y-6657509D01*
X10489603Y-6657491D01*
X10470300Y-6665467D01*
X10460750Y-6675000D01*
X10390962Y-6675000D01*
X10387500Y-6671538D01*
X10387500Y-5965001D01*
X10387500Y-5965000D01*
X10385026Y-5952563D01*
X10381643Y-5947500D01*
X10377981Y-5942019D01*
X10377981Y-5942019D01*
X10342500Y-5906538D01*
X10342500Y-5871738D01*
X10354481Y-5859778D01*
X10362491Y-5840489D01*
X10362509Y-5819603D01*
X10354533Y-5800300D01*
X10339778Y-5785519D01*
X10320489Y-5777509D01*
X10299603Y-5777491D01*
X10280300Y-5785467D01*
X10265519Y-5800222D01*
X10257509Y-5819511D01*
X10257500Y-5830000D01*
X10257500Y-5590001D01*
X10257500Y-5590000D01*
X10255026Y-5577563D01*
X10247981Y-5567019D01*
X10197981Y-5517019D01*
X10187437Y-5509974D01*
X10175000Y-5507500D01*
X10073462Y-5507500D01*
X9997494Y-5431532D01*
X9997509Y-5414603D01*
X9989533Y-5395300D01*
X9974778Y-5380519D01*
X9955489Y-5372509D01*
X9934603Y-5372491D01*
X9915300Y-5380467D01*
X9900519Y-5395222D01*
X9892509Y-5414511D01*
X9892491Y-5435397D01*
X7037500Y-5435397D01*
X7037500Y-4796637D01*
X7340968Y-4796637D01*
X7369073Y-4864657D01*
X7421069Y-4916744D01*
X7489040Y-4944968D01*
X7562637Y-4945032D01*
X7630657Y-4916927D01*
X7639300Y-4908299D01*
X8947482Y-4908299D01*
X8963054Y-4945986D01*
X8991863Y-4974845D01*
X9027197Y-4989517D01*
X8992014Y-5004054D01*
X8963155Y-5032863D01*
X8947518Y-5070522D01*
X8947482Y-5111299D01*
X8963054Y-5148986D01*
X8991863Y-5177845D01*
X9029522Y-5193482D01*
X9070299Y-5193518D01*
X9107986Y-5177946D01*
X9136845Y-5149137D01*
X9152482Y-5111478D01*
X9152518Y-5070701D01*
X9136946Y-5033014D01*
X9114270Y-5010299D01*
X9201482Y-5010299D01*
X9217054Y-5047986D01*
X9245863Y-5076845D01*
X9281197Y-5091517D01*
X9246014Y-5106054D01*
X9217155Y-5134863D01*
X9201518Y-5172522D01*
X9201482Y-5213299D01*
X9217054Y-5250986D01*
X9245863Y-5279845D01*
X9283522Y-5295482D01*
X9324299Y-5295518D01*
X9361986Y-5279946D01*
X9390845Y-5251137D01*
X9406482Y-5213478D01*
X9406518Y-5172701D01*
X9390946Y-5135014D01*
X9386337Y-5130397D01*
X10707491Y-5130397D01*
X10715467Y-5149700D01*
X10730222Y-5164481D01*
X10749511Y-5172491D01*
X10770397Y-5172509D01*
X10789700Y-5164533D01*
X10799250Y-5155000D01*
X11055503Y-5155000D01*
X11307503Y-5407000D01*
X11307491Y-5420397D01*
X11315467Y-5439700D01*
X11330222Y-5454481D01*
X11349511Y-5462491D01*
X11370397Y-5462509D01*
X11389700Y-5454533D01*
X11404481Y-5439778D01*
X11412491Y-5420489D01*
X11412509Y-5399603D01*
X11404533Y-5380300D01*
X11389778Y-5365519D01*
X11370489Y-5357509D01*
X11356995Y-5357497D01*
X11094749Y-5095251D01*
X11083394Y-5087664D01*
X11070000Y-5085000D01*
X10799243Y-5085000D01*
X10789778Y-5075519D01*
X10770489Y-5067509D01*
X10749603Y-5067491D01*
X10730300Y-5075467D01*
X10715519Y-5090222D01*
X10707509Y-5109511D01*
X10707491Y-5130397D01*
X9386337Y-5130397D01*
X9362137Y-5106155D01*
X9326803Y-5091483D01*
X9361986Y-5076946D01*
X9390845Y-5048137D01*
X9406482Y-5010478D01*
X9406518Y-4969701D01*
X9390946Y-4932014D01*
X9362137Y-4903155D01*
X9324478Y-4887518D01*
X9283701Y-4887482D01*
X9246014Y-4903054D01*
X9217155Y-4931863D01*
X9201518Y-4969522D01*
X9201482Y-5010299D01*
X9114270Y-5010299D01*
X9108137Y-5004155D01*
X9072803Y-4989483D01*
X9107986Y-4974946D01*
X9136845Y-4946137D01*
X9152482Y-4908478D01*
X9152518Y-4867701D01*
X9136946Y-4830014D01*
X9108137Y-4801155D01*
X9070478Y-4785518D01*
X9029701Y-4785482D01*
X8992014Y-4801054D01*
X8963155Y-4829863D01*
X8947518Y-4867522D01*
X8947482Y-4908299D01*
X7639300Y-4908299D01*
X7682744Y-4864931D01*
X7710968Y-4796960D01*
X7711032Y-4723363D01*
X7682927Y-4655343D01*
X7630931Y-4603256D01*
X7562960Y-4575032D01*
X7489363Y-4574968D01*
X7421343Y-4603073D01*
X7369256Y-4655069D01*
X7341032Y-4723040D01*
X7340968Y-4796637D01*
X7037500Y-4796637D01*
X7037500Y-3939113D01*
X7302466Y-3939113D01*
X7332470Y-4011729D01*
X7387979Y-4067335D01*
X7460542Y-4097466D01*
X7539113Y-4097534D01*
X7611729Y-4067530D01*
X7667335Y-4012021D01*
X7697466Y-3939457D01*
X7697534Y-3860887D01*
X7667530Y-3788271D01*
X7612021Y-3732665D01*
X7539457Y-3702534D01*
X7460887Y-3702466D01*
X7388271Y-3732470D01*
X7332665Y-3787979D01*
X7302534Y-3860542D01*
X7302466Y-3939113D01*
X7037500Y-3939113D01*
X7037500Y-3437500D01*
X11292500Y-3437500D01*
X11292500Y-4900000D01*
X11292500Y-4900000D01*
G37*
X11292500Y-4900000D02*
X11293091Y-4902918D01*
X11294770Y-4905376D01*
X11297274Y-4906987D01*
X11300000Y-4907500D01*
X11992500Y-4907500D01*
X11992500Y-5992500D01*
X11900000Y-5992500D01*
X11897082Y-5993091D01*
X11894624Y-5994770D01*
X11893013Y-5997274D01*
X11892500Y-6000000D01*
X11892500Y-7362500D01*
X7037500Y-7362500D01*
X7037500Y-6939113D01*
X7302466Y-6939113D01*
X7332470Y-7011729D01*
X7387979Y-7067335D01*
X7460542Y-7097466D01*
X7539113Y-7097534D01*
X7611729Y-7067530D01*
X7667335Y-7012021D01*
X7697466Y-6939457D01*
X7697534Y-6860887D01*
X7667530Y-6788271D01*
X7612021Y-6732665D01*
X7539457Y-6702534D01*
X7460887Y-6702466D01*
X7388271Y-6732470D01*
X7332665Y-6787979D01*
X7302534Y-6860542D01*
X7302466Y-6939113D01*
X7037500Y-6939113D01*
X7037500Y-6455700D01*
X8440859Y-6455700D01*
X8440859Y-6684300D01*
X8442428Y-6692638D01*
X8447356Y-6700296D01*
X8454875Y-6705433D01*
X8463800Y-6707241D01*
X8616200Y-6707241D01*
X8624538Y-6705672D01*
X8632196Y-6700744D01*
X8637333Y-6693225D01*
X8639141Y-6684300D01*
X8639141Y-6529220D01*
X8641300Y-6529220D01*
X8641300Y-6610780D01*
X8648813Y-6648551D01*
X8670209Y-6680571D01*
X8702229Y-6701967D01*
X8740000Y-6709480D01*
X8777771Y-6701967D01*
X8809791Y-6680571D01*
X8831187Y-6648551D01*
X8838700Y-6610780D01*
X8838700Y-6529220D01*
X8841300Y-6529220D01*
X8841300Y-6610780D01*
X8848813Y-6648551D01*
X8870209Y-6680571D01*
X8902229Y-6701967D01*
X8940000Y-6709480D01*
X8977771Y-6701967D01*
X9009791Y-6680571D01*
X9031187Y-6648551D01*
X9038700Y-6610780D01*
X9038700Y-6529220D01*
X9031187Y-6491449D01*
X9009791Y-6459428D01*
X8977771Y-6438033D01*
X8975000Y-6437482D01*
X8975000Y-5972952D01*
X8991863Y-5989845D01*
X9029522Y-6005482D01*
X9070299Y-6005518D01*
X9107986Y-5989946D01*
X9125000Y-5972961D01*
X9125000Y-6396203D01*
X9115251Y-6405951D01*
X9107664Y-6417306D01*
X9105000Y-6430700D01*
X9105000Y-6437482D01*
X9102229Y-6438033D01*
X9070209Y-6459428D01*
X9048813Y-6491449D01*
X9041300Y-6529220D01*
X9041300Y-6610780D01*
X9048813Y-6648551D01*
X9070209Y-6680571D01*
X9102229Y-6701967D01*
X9140000Y-6709480D01*
X9177771Y-6701967D01*
X9209791Y-6680571D01*
X9231187Y-6648551D01*
X9238700Y-6610780D01*
X9238700Y-6529220D01*
X9241300Y-6529220D01*
X9241300Y-6610780D01*
X9248813Y-6648551D01*
X9270209Y-6680571D01*
X9302229Y-6701967D01*
X9340000Y-6709480D01*
X9377771Y-6701967D01*
X9409791Y-6680571D01*
X9431187Y-6648551D01*
X9438700Y-6610780D01*
X9438700Y-6529220D01*
X9431187Y-6491449D01*
X9409791Y-6459428D01*
X9377771Y-6438033D01*
X9340000Y-6430520D01*
X9302229Y-6438033D01*
X9270209Y-6459428D01*
X9248813Y-6491449D01*
X9241300Y-6529220D01*
X9238700Y-6529220D01*
X9231187Y-6491449D01*
X9209791Y-6459428D01*
X9180405Y-6439793D01*
X9184749Y-6435449D01*
X9192336Y-6424094D01*
X9195000Y-6410700D01*
X9195000Y-5757497D01*
X9260553Y-5691945D01*
X9281197Y-5700517D01*
X9246014Y-5715054D01*
X9217155Y-5743863D01*
X9201518Y-5781522D01*
X9201482Y-5822299D01*
X9217054Y-5859986D01*
X9245863Y-5888845D01*
X9281197Y-5903517D01*
X9246014Y-5918054D01*
X9217155Y-5946863D01*
X9201518Y-5984522D01*
X9201482Y-6025299D01*
X9217054Y-6062986D01*
X9245863Y-6091845D01*
X9283522Y-6107482D01*
X9324299Y-6107518D01*
X9361986Y-6091946D01*
X9390845Y-6063137D01*
X9406482Y-6025478D01*
X9406518Y-5984701D01*
X9390946Y-5947014D01*
X9362137Y-5918155D01*
X9326803Y-5903483D01*
X9361986Y-5888946D01*
X9390845Y-5860137D01*
X9406482Y-5822478D01*
X9406518Y-5781701D01*
X9390946Y-5744014D01*
X9362137Y-5715155D01*
X9326803Y-5700483D01*
X9361986Y-5685946D01*
X9390845Y-5657137D01*
X9406482Y-5619478D01*
X9406518Y-5578701D01*
X9390946Y-5541014D01*
X9362137Y-5512155D01*
X9324478Y-5496518D01*
X9283701Y-5496482D01*
X9246014Y-5512054D01*
X9217155Y-5540863D01*
X9201518Y-5578522D01*
X9201482Y-5619299D01*
X9211049Y-5642453D01*
X9152499Y-5701003D01*
X9152518Y-5679701D01*
X9136946Y-5642014D01*
X9108137Y-5613155D01*
X9070478Y-5597518D01*
X9029701Y-5597482D01*
X8992014Y-5613054D01*
X8963155Y-5641863D01*
X8947518Y-5679522D01*
X8947482Y-5720299D01*
X8957049Y-5743453D01*
X8915251Y-5785251D01*
X8907664Y-5796606D01*
X8905000Y-5810000D01*
X8905000Y-6437482D01*
X8902229Y-6438033D01*
X8870209Y-6459428D01*
X8848813Y-6491449D01*
X8841300Y-6529220D01*
X8838700Y-6529220D01*
X8831187Y-6491449D01*
X8809791Y-6459428D01*
X8777771Y-6438033D01*
X8740000Y-6430520D01*
X8702229Y-6438033D01*
X8670209Y-6459428D01*
X8648813Y-6491449D01*
X8641300Y-6529220D01*
X8639141Y-6529220D01*
X8639141Y-6455700D01*
X8637572Y-6447362D01*
X8632644Y-6439704D01*
X8625125Y-6434567D01*
X8616200Y-6432759D01*
X8463800Y-6432759D01*
X8455462Y-6434328D01*
X8447804Y-6439256D01*
X8442667Y-6446775D01*
X8440859Y-6455700D01*
X7037500Y-6455700D01*
X7037500Y-6066637D01*
X7340968Y-6066637D01*
X7369073Y-6134657D01*
X7421069Y-6186744D01*
X7489040Y-6214968D01*
X7562637Y-6215032D01*
X7630657Y-6186927D01*
X7682744Y-6134931D01*
X7710968Y-6066960D01*
X7711032Y-5993363D01*
X7682927Y-5925343D01*
X7630931Y-5873256D01*
X7562960Y-5845032D01*
X7489363Y-5844968D01*
X7421343Y-5873073D01*
X7369256Y-5925069D01*
X7341032Y-5993040D01*
X7340968Y-6066637D01*
X7037500Y-6066637D01*
X7037500Y-5435397D01*
X9892491Y-5435397D01*
X9900467Y-5454700D01*
X9915222Y-5469481D01*
X9934511Y-5477491D01*
X9951544Y-5477506D01*
X10037019Y-5562981D01*
X10037019Y-5562981D01*
X10047563Y-5570026D01*
X10060000Y-5572500D01*
X10060001Y-5572500D01*
X10161538Y-5572500D01*
X10192500Y-5603462D01*
X10192500Y-5980000D01*
X10194974Y-5992437D01*
X10202019Y-6002981D01*
X10247506Y-6048468D01*
X10247491Y-6065397D01*
X10255467Y-6084700D01*
X10270222Y-6099481D01*
X10289511Y-6107491D01*
X10310397Y-6107509D01*
X10322500Y-6102508D01*
X10322500Y-6685000D01*
X10324974Y-6697437D01*
X10332019Y-6707981D01*
X10348132Y-6724094D01*
X10355251Y-6734749D01*
X10366606Y-6742336D01*
X10380000Y-6745000D01*
X10460757Y-6745000D01*
X10470222Y-6754481D01*
X10489511Y-6762491D01*
X10510397Y-6762509D01*
X10529700Y-6754533D01*
X10544481Y-6739778D01*
X10552491Y-6720489D01*
X10552509Y-6699603D01*
X10544533Y-6680300D01*
X10529778Y-6665519D01*
X10510489Y-6657509D01*
X10489603Y-6657491D01*
X10470300Y-6665467D01*
X10460750Y-6675000D01*
X10390962Y-6675000D01*
X10387500Y-6671538D01*
X10387500Y-5965001D01*
X10387500Y-5965000D01*
X10385026Y-5952563D01*
X10381643Y-5947500D01*
X10377981Y-5942019D01*
X10377981Y-5942019D01*
X10342500Y-5906538D01*
X10342500Y-5871738D01*
X10354481Y-5859778D01*
X10362491Y-5840489D01*
X10362509Y-5819603D01*
X10354533Y-5800300D01*
X10339778Y-5785519D01*
X10320489Y-5777509D01*
X10299603Y-5777491D01*
X10280300Y-5785467D01*
X10265519Y-5800222D01*
X10257509Y-5819511D01*
X10257500Y-5830000D01*
X10257500Y-5590001D01*
X10257500Y-5590000D01*
X10255026Y-5577563D01*
X10247981Y-5567019D01*
X10197981Y-5517019D01*
X10187437Y-5509974D01*
X10175000Y-5507500D01*
X10073462Y-5507500D01*
X9997494Y-5431532D01*
X9997509Y-5414603D01*
X9989533Y-5395300D01*
X9974778Y-5380519D01*
X9955489Y-5372509D01*
X9934603Y-5372491D01*
X9915300Y-5380467D01*
X9900519Y-5395222D01*
X9892509Y-5414511D01*
X9892491Y-5435397D01*
X7037500Y-5435397D01*
X7037500Y-4796637D01*
X7340968Y-4796637D01*
X7369073Y-4864657D01*
X7421069Y-4916744D01*
X7489040Y-4944968D01*
X7562637Y-4945032D01*
X7630657Y-4916927D01*
X7639300Y-4908299D01*
X8947482Y-4908299D01*
X8963054Y-4945986D01*
X8991863Y-4974845D01*
X9027197Y-4989517D01*
X8992014Y-5004054D01*
X8963155Y-5032863D01*
X8947518Y-5070522D01*
X8947482Y-5111299D01*
X8963054Y-5148986D01*
X8991863Y-5177845D01*
X9029522Y-5193482D01*
X9070299Y-5193518D01*
X9107986Y-5177946D01*
X9136845Y-5149137D01*
X9152482Y-5111478D01*
X9152518Y-5070701D01*
X9136946Y-5033014D01*
X9114270Y-5010299D01*
X9201482Y-5010299D01*
X9217054Y-5047986D01*
X9245863Y-5076845D01*
X9281197Y-5091517D01*
X9246014Y-5106054D01*
X9217155Y-5134863D01*
X9201518Y-5172522D01*
X9201482Y-5213299D01*
X9217054Y-5250986D01*
X9245863Y-5279845D01*
X9283522Y-5295482D01*
X9324299Y-5295518D01*
X9361986Y-5279946D01*
X9390845Y-5251137D01*
X9406482Y-5213478D01*
X9406518Y-5172701D01*
X9390946Y-5135014D01*
X9386337Y-5130397D01*
X10707491Y-5130397D01*
X10715467Y-5149700D01*
X10730222Y-5164481D01*
X10749511Y-5172491D01*
X10770397Y-5172509D01*
X10789700Y-5164533D01*
X10799250Y-5155000D01*
X11055503Y-5155000D01*
X11307503Y-5407000D01*
X11307491Y-5420397D01*
X11315467Y-5439700D01*
X11330222Y-5454481D01*
X11349511Y-5462491D01*
X11370397Y-5462509D01*
X11389700Y-5454533D01*
X11404481Y-5439778D01*
X11412491Y-5420489D01*
X11412509Y-5399603D01*
X11404533Y-5380300D01*
X11389778Y-5365519D01*
X11370489Y-5357509D01*
X11356995Y-5357497D01*
X11094749Y-5095251D01*
X11083394Y-5087664D01*
X11070000Y-5085000D01*
X10799243Y-5085000D01*
X10789778Y-5075519D01*
X10770489Y-5067509D01*
X10749603Y-5067491D01*
X10730300Y-5075467D01*
X10715519Y-5090222D01*
X10707509Y-5109511D01*
X10707491Y-5130397D01*
X9386337Y-5130397D01*
X9362137Y-5106155D01*
X9326803Y-5091483D01*
X9361986Y-5076946D01*
X9390845Y-5048137D01*
X9406482Y-5010478D01*
X9406518Y-4969701D01*
X9390946Y-4932014D01*
X9362137Y-4903155D01*
X9324478Y-4887518D01*
X9283701Y-4887482D01*
X9246014Y-4903054D01*
X9217155Y-4931863D01*
X9201518Y-4969522D01*
X9201482Y-5010299D01*
X9114270Y-5010299D01*
X9108137Y-5004155D01*
X9072803Y-4989483D01*
X9107986Y-4974946D01*
X9136845Y-4946137D01*
X9152482Y-4908478D01*
X9152518Y-4867701D01*
X9136946Y-4830014D01*
X9108137Y-4801155D01*
X9070478Y-4785518D01*
X9029701Y-4785482D01*
X8992014Y-4801054D01*
X8963155Y-4829863D01*
X8947518Y-4867522D01*
X8947482Y-4908299D01*
X7639300Y-4908299D01*
X7682744Y-4864931D01*
X7710968Y-4796960D01*
X7711032Y-4723363D01*
X7682927Y-4655343D01*
X7630931Y-4603256D01*
X7562960Y-4575032D01*
X7489363Y-4574968D01*
X7421343Y-4603073D01*
X7369256Y-4655069D01*
X7341032Y-4723040D01*
X7340968Y-4796637D01*
X7037500Y-4796637D01*
X7037500Y-3939113D01*
X7302466Y-3939113D01*
X7332470Y-4011729D01*
X7387979Y-4067335D01*
X7460542Y-4097466D01*
X7539113Y-4097534D01*
X7611729Y-4067530D01*
X7667335Y-4012021D01*
X7697466Y-3939457D01*
X7697534Y-3860887D01*
X7667530Y-3788271D01*
X7612021Y-3732665D01*
X7539457Y-3702534D01*
X7460887Y-3702466D01*
X7388271Y-3732470D01*
X7332665Y-3787979D01*
X7302534Y-3860542D01*
X7302466Y-3939113D01*
X7037500Y-3939113D01*
X7037500Y-3437500D01*
X11292500Y-3437500D01*
X11292500Y-4900000D01*
X13962500Y-3437500D02*
X11647500Y-3437500D01*
X13962500Y-3447420D02*
X11647500Y-3447420D01*
X13962500Y-3457340D02*
X11647500Y-3457340D01*
X13962500Y-3467260D02*
X11647500Y-3467260D01*
X12448238Y-3477180D02*
X11647500Y-3477180D01*
X13962500Y-3477180D02*
X12551933Y-3477180D01*
X12424230Y-3487100D02*
X11647500Y-3487100D01*
X13962500Y-3487100D02*
X12575823Y-3487100D01*
X12400221Y-3497020D02*
X11647500Y-3497020D01*
X13962500Y-3497020D02*
X12599713Y-3497020D01*
X12376213Y-3506940D02*
X11647500Y-3506940D01*
X13962500Y-3506940D02*
X12623603Y-3506940D01*
X12363993Y-3516860D02*
X11647500Y-3516860D01*
X13962500Y-3516860D02*
X12636089Y-3516860D01*
X12354056Y-3526780D02*
X11647500Y-3526780D01*
X13962500Y-3526780D02*
X12645992Y-3526780D01*
X12344118Y-3536700D02*
X11647500Y-3536700D01*
X13962500Y-3536700D02*
X12655895Y-3536700D01*
X12334181Y-3546620D02*
X11647500Y-3546620D01*
X13962500Y-3546620D02*
X12665797Y-3546620D01*
X12324244Y-3556540D02*
X11647500Y-3556540D01*
X13962500Y-3556540D02*
X12675700Y-3556540D01*
X12314306Y-3566460D02*
X11647500Y-3566460D01*
X13962500Y-3566460D02*
X12685603Y-3566460D01*
X12306947Y-3576380D02*
X11647500Y-3576380D01*
X13962500Y-3576380D02*
X12693129Y-3576380D01*
X12302828Y-3586300D02*
X11647500Y-3586300D01*
X13962500Y-3586300D02*
X12697228Y-3586300D01*
X12298709Y-3596220D02*
X11647500Y-3596220D01*
X13962500Y-3596220D02*
X12701327Y-3596220D01*
X12294590Y-3606140D02*
X11647500Y-3606140D01*
X13962500Y-3606140D02*
X12705426Y-3606140D01*
X12290471Y-3616060D02*
X11647500Y-3616060D01*
X13962500Y-3616060D02*
X12709524Y-3616060D01*
X12286351Y-3625980D02*
X11647500Y-3625980D01*
X13962500Y-3625980D02*
X12713623Y-3625980D01*
X12282232Y-3635900D02*
X11647500Y-3635900D01*
X13962500Y-3635900D02*
X12717722Y-3635900D01*
X12278113Y-3645820D02*
X11647500Y-3645820D01*
X13962500Y-3645820D02*
X12721821Y-3645820D01*
X12274339Y-3655740D02*
X11647500Y-3655740D01*
X13962500Y-3655740D02*
X12725739Y-3655740D01*
X12274330Y-3665660D02*
X11647500Y-3665660D01*
X13962500Y-3665660D02*
X12725730Y-3665660D01*
X12274321Y-3675580D02*
X11647500Y-3675580D01*
X13962500Y-3675580D02*
X12725721Y-3675580D01*
X12274313Y-3685500D02*
X11647500Y-3685500D01*
X13962500Y-3685500D02*
X12725713Y-3685500D01*
X12274304Y-3695420D02*
X11647500Y-3695420D01*
X13962500Y-3695420D02*
X12725704Y-3695420D01*
X12274295Y-3705340D02*
X11647500Y-3705340D01*
X13453931Y-3705340D02*
X12725695Y-3705340D01*
X13962500Y-3705340D02*
X13546214Y-3705340D01*
X12274287Y-3715260D02*
X11647500Y-3715260D01*
X13429923Y-3715260D02*
X12725687Y-3715260D01*
X13962500Y-3715260D02*
X13570104Y-3715260D01*
X12274278Y-3725180D02*
X11647500Y-3725180D01*
X13405915Y-3725180D02*
X12725678Y-3725180D01*
X13962500Y-3725180D02*
X13593995Y-3725180D01*
X12274269Y-3735100D02*
X11647500Y-3735100D01*
X13385637Y-3735100D02*
X12725669Y-3735100D01*
X13962500Y-3735100D02*
X13614451Y-3735100D01*
X12274394Y-3745020D02*
X11647500Y-3745020D01*
X13375699Y-3745020D02*
X12725661Y-3745020D01*
X13962500Y-3745020D02*
X13624354Y-3745020D01*
X12278493Y-3754940D02*
X11647500Y-3754940D01*
X13365762Y-3754940D02*
X12721571Y-3754940D01*
X13962500Y-3754940D02*
X13634257Y-3754940D01*
X12282592Y-3764860D02*
X11647500Y-3764860D01*
X13355825Y-3764860D02*
X12717452Y-3764860D01*
X13962500Y-3764860D02*
X13644159Y-3764860D01*
X12286691Y-3774780D02*
X11647500Y-3774780D01*
X13345887Y-3774780D02*
X12713333Y-3774780D01*
X13962500Y-3774780D02*
X13654062Y-3774780D01*
X12290790Y-3784700D02*
X11647500Y-3784700D01*
X13335950Y-3784700D02*
X12709214Y-3784700D01*
X13962500Y-3784700D02*
X13663965Y-3784700D01*
X12294888Y-3794620D02*
X11647500Y-3794620D01*
X13329908Y-3794620D02*
X12705095Y-3794620D01*
X13962500Y-3794620D02*
X13670153Y-3794620D01*
X12298987Y-3804540D02*
X11647500Y-3804540D01*
X13325789Y-3804540D02*
X12700975Y-3804540D01*
X13962500Y-3804540D02*
X13674252Y-3804540D01*
X12303086Y-3814460D02*
X11647500Y-3814460D01*
X13321669Y-3814460D02*
X12696856Y-3814460D01*
X13962500Y-3814460D02*
X13678351Y-3814460D01*
X12307185Y-3824380D02*
X11647500Y-3824380D01*
X13317550Y-3824380D02*
X12692737Y-3824380D01*
X13962500Y-3824380D02*
X13682450Y-3824380D01*
X12315156Y-3834300D02*
X11647500Y-3834300D01*
X13313431Y-3834300D02*
X12684932Y-3834300D01*
X13962500Y-3834300D02*
X13686549Y-3834300D01*
X12325059Y-3844220D02*
X11647500Y-3844220D01*
X13309312Y-3844220D02*
X12674995Y-3844220D01*
X13962500Y-3844220D02*
X13690648Y-3844220D01*
X12334961Y-3854140D02*
X11647500Y-3854140D01*
X13305193Y-3854140D02*
X12665058Y-3854140D01*
X13962500Y-3854140D02*
X13694746Y-3854140D01*
X12344864Y-3864060D02*
X11647500Y-3864060D01*
X13302531Y-3864060D02*
X12655120Y-3864060D01*
X13962500Y-3864060D02*
X13697531Y-3864060D01*
X12354767Y-3873980D02*
X11647500Y-3873980D01*
X13302523Y-3873980D02*
X12645183Y-3873980D01*
X13962500Y-3873980D02*
X13697523Y-3873980D01*
X12364669Y-3883900D02*
X11647500Y-3883900D01*
X13302514Y-3883900D02*
X12635246Y-3883900D01*
X13962500Y-3883900D02*
X13697514Y-3883900D01*
X12378227Y-3893820D02*
X11647500Y-3893820D01*
X13302505Y-3893820D02*
X12621947Y-3893820D01*
X13962500Y-3893820D02*
X13697505Y-3893820D01*
X12402117Y-3903740D02*
X11647500Y-3903740D01*
X13302497Y-3903740D02*
X12597939Y-3903740D01*
X13962500Y-3903740D02*
X13697497Y-3903740D01*
X12426007Y-3913660D02*
X11647500Y-3913660D01*
X13302488Y-3913660D02*
X12573931Y-3913660D01*
X13962500Y-3913660D02*
X13697488Y-3913660D01*
X12449898Y-3923580D02*
X11647500Y-3923580D01*
X13302479Y-3923580D02*
X12549923Y-3923580D01*
X13962500Y-3923580D02*
X13697479Y-3923580D01*
X13302471Y-3933500D02*
X11647500Y-3933500D01*
X13962500Y-3933500D02*
X13697471Y-3933500D01*
X13304245Y-3943420D02*
X11647500Y-3943420D01*
X13962500Y-3943420D02*
X13695820Y-3943420D01*
X13308344Y-3953340D02*
X11647500Y-3953340D01*
X13962500Y-3953340D02*
X13691701Y-3953340D01*
X13312443Y-3963260D02*
X11647500Y-3963260D01*
X13962500Y-3963260D02*
X13687582Y-3963260D01*
X13316542Y-3973180D02*
X11647500Y-3973180D01*
X13962500Y-3973180D02*
X13683463Y-3973180D01*
X13320641Y-3983100D02*
X11647500Y-3983100D01*
X13962500Y-3983100D02*
X13679344Y-3983100D01*
X13324740Y-3993020D02*
X11647500Y-3993020D01*
X13962500Y-3993020D02*
X13675225Y-3993020D01*
X13328839Y-4002940D02*
X11647500Y-4002940D01*
X13962500Y-4002940D02*
X13671105Y-4002940D01*
X13333599Y-4012860D02*
X11647500Y-4012860D01*
X13962500Y-4012860D02*
X13666494Y-4012860D01*
X13343502Y-4022780D02*
X11647500Y-4022780D01*
X13962500Y-4022780D02*
X13656557Y-4022780D01*
X13353405Y-4032700D02*
X11647500Y-4032700D01*
X13962500Y-4032700D02*
X13646619Y-4032700D01*
X13363307Y-4042620D02*
X11647500Y-4042620D01*
X13962500Y-4042620D02*
X13636682Y-4042620D01*
X13373210Y-4052540D02*
X11647500Y-4052540D01*
X13962500Y-4052540D02*
X13626745Y-4052540D01*
X13383113Y-4062460D02*
X11647500Y-4062460D01*
X13962500Y-4062460D02*
X13616807Y-4062460D01*
X13400129Y-4072380D02*
X11647500Y-4072380D01*
X13962500Y-4072380D02*
X13599991Y-4072380D01*
X13424019Y-4082300D02*
X11647500Y-4082300D01*
X13962500Y-4082300D02*
X13575982Y-4082300D01*
X13447909Y-4092220D02*
X11647500Y-4092220D01*
X13962500Y-4092220D02*
X13551974Y-4092220D01*
X13962500Y-4102140D02*
X11647500Y-4102140D01*
X13962500Y-4112060D02*
X11647500Y-4112060D01*
X13962500Y-4121980D02*
X11647500Y-4121980D01*
X13962500Y-4131900D02*
X11647500Y-4131900D01*
X13962500Y-4141820D02*
X11647500Y-4141820D01*
X13962500Y-4151740D02*
X11647500Y-4151740D01*
X13962500Y-4161660D02*
X11647500Y-4161660D01*
X13962500Y-4171580D02*
X11647500Y-4171580D01*
X13962500Y-4181500D02*
X11647500Y-4181500D01*
X13962500Y-4191420D02*
X11647500Y-4191420D01*
X13962500Y-4201340D02*
X11647500Y-4201340D01*
X13962500Y-4211260D02*
X11647500Y-4211260D01*
X13962500Y-4221180D02*
X11647500Y-4221180D01*
X13962500Y-4231100D02*
X11647500Y-4231100D01*
X13962500Y-4241020D02*
X11647500Y-4241020D01*
X13962500Y-4250940D02*
X11647500Y-4250940D01*
X13962500Y-4260860D02*
X11647500Y-4260860D01*
X13962500Y-4270780D02*
X11647500Y-4270780D01*
X13962500Y-4280700D02*
X11647500Y-4280700D01*
X13962500Y-4290620D02*
X11647500Y-4290620D01*
X13962500Y-4300540D02*
X11647500Y-4300540D01*
X13962500Y-4310460D02*
X11647500Y-4310460D01*
X13962500Y-4320380D02*
X11647500Y-4320380D01*
X13962500Y-4330300D02*
X11647500Y-4330300D01*
X13962500Y-4340220D02*
X11647500Y-4340220D01*
X13962500Y-4350140D02*
X11647500Y-4350140D01*
X13962500Y-4360060D02*
X11647500Y-4360060D01*
X13962500Y-4369980D02*
X11647500Y-4369980D01*
X13962500Y-4379900D02*
X11647500Y-4379900D01*
X13962500Y-4389820D02*
X11647500Y-4389820D01*
X13962500Y-4399740D02*
X11647500Y-4399740D01*
X13962500Y-4409660D02*
X11647500Y-4409660D01*
X13962500Y-4419580D02*
X11647500Y-4419580D01*
X13962500Y-4429500D02*
X11647500Y-4429500D01*
X13962500Y-4439420D02*
X11647500Y-4439420D01*
X13962500Y-4449340D02*
X11647500Y-4449340D01*
X13962500Y-4459260D02*
X11647500Y-4459260D01*
X13962500Y-4469180D02*
X11647500Y-4469180D01*
X13962500Y-4479100D02*
X11647500Y-4479100D01*
X13962500Y-4489020D02*
X11647500Y-4489020D01*
X13962500Y-4498940D02*
X12277285Y-4498940D01*
X13962500Y-4508860D02*
X12277500Y-4508860D01*
X13962500Y-4518780D02*
X12277500Y-4518780D01*
X13962500Y-4528700D02*
X12277500Y-4528700D01*
X13962500Y-4538620D02*
X12277500Y-4538620D01*
X13962500Y-4548540D02*
X12277500Y-4548540D01*
X13962500Y-4558460D02*
X12277500Y-4558460D01*
X13962500Y-4568380D02*
X12277500Y-4568380D01*
X13962500Y-4578300D02*
X12277500Y-4578300D01*
X13962500Y-4588220D02*
X12277500Y-4588220D01*
X13962500Y-4598140D02*
X12277500Y-4598140D01*
X13962500Y-4608060D02*
X12277500Y-4608060D01*
X13962500Y-4617980D02*
X12277500Y-4617980D01*
X13962500Y-4627900D02*
X12277500Y-4627900D01*
X13962500Y-4637820D02*
X12277500Y-4637820D01*
X13962500Y-4647740D02*
X12277500Y-4647740D01*
X13962500Y-4657660D02*
X12277500Y-4657660D01*
X13962500Y-4667580D02*
X12277500Y-4667580D01*
X13962500Y-4677500D02*
X12277500Y-4677500D01*
X13962500Y-4687420D02*
X12277500Y-4687420D01*
X13962500Y-4697340D02*
X12277500Y-4697340D01*
X13962500Y-4707260D02*
X12277500Y-4707260D01*
X13962500Y-4717180D02*
X12277500Y-4717180D01*
X13962500Y-4727100D02*
X12277500Y-4727100D01*
X13962500Y-4737020D02*
X12277500Y-4737020D01*
X13962500Y-4746940D02*
X12277500Y-4746940D01*
X13962500Y-4756860D02*
X12277500Y-4756860D01*
X13962500Y-4766780D02*
X12277500Y-4766780D01*
X13962500Y-4776700D02*
X12277500Y-4776700D01*
X13962500Y-4786620D02*
X12277500Y-4786620D01*
X13962500Y-4796540D02*
X12277500Y-4796540D01*
X13962500Y-4806460D02*
X12277500Y-4806460D01*
X13962500Y-4816380D02*
X12277500Y-4816380D01*
X13962500Y-4826300D02*
X12277500Y-4826300D01*
X13962500Y-4836220D02*
X12277500Y-4836220D01*
X13962500Y-4846140D02*
X12277500Y-4846140D01*
X13962500Y-4856060D02*
X12277500Y-4856060D01*
X13962500Y-4865980D02*
X12277500Y-4865980D01*
X13962500Y-4875900D02*
X12277500Y-4875900D01*
X13962500Y-4885820D02*
X12277500Y-4885820D01*
X13962500Y-4895740D02*
X12277500Y-4895740D01*
X13962500Y-4905660D02*
X12277500Y-4905660D01*
X13962500Y-4915580D02*
X12277500Y-4915580D01*
X13962500Y-4925500D02*
X12277500Y-4925500D01*
X13962500Y-4935420D02*
X12277500Y-4935420D01*
X13962500Y-4945340D02*
X12277500Y-4945340D01*
X13962500Y-4955260D02*
X12277500Y-4955260D01*
X13962500Y-4965180D02*
X12277500Y-4965180D01*
X13962500Y-4975100D02*
X12277500Y-4975100D01*
X13962500Y-4985020D02*
X12277500Y-4985020D01*
X13962500Y-4994940D02*
X12277500Y-4994940D01*
X13962500Y-5004860D02*
X12277500Y-5004860D01*
X13962500Y-5014780D02*
X12277500Y-5014780D01*
X13962500Y-5024700D02*
X12277500Y-5024700D01*
X13962500Y-5034620D02*
X12277500Y-5034620D01*
X13962500Y-5044540D02*
X12277500Y-5044540D01*
X13962500Y-5054460D02*
X12277500Y-5054460D01*
X13962500Y-5064380D02*
X12277500Y-5064380D01*
X13962500Y-5074300D02*
X12277500Y-5074300D01*
X13962500Y-5084220D02*
X12277500Y-5084220D01*
X13962500Y-5094140D02*
X12277500Y-5094140D01*
X13962500Y-5104060D02*
X12277500Y-5104060D01*
X13962500Y-5113980D02*
X12277500Y-5113980D01*
X13962500Y-5123900D02*
X12277500Y-5123900D01*
X13962500Y-5133820D02*
X12277500Y-5133820D01*
X13962500Y-5143740D02*
X12277500Y-5143740D01*
X13962500Y-5153660D02*
X12277500Y-5153660D01*
X13962500Y-5163580D02*
X12277500Y-5163580D01*
X13962500Y-5173500D02*
X12277500Y-5173500D01*
X13962500Y-5183420D02*
X12277500Y-5183420D01*
X13962500Y-5193340D02*
X12277500Y-5193340D01*
X13962500Y-5203260D02*
X12277500Y-5203260D01*
X13962500Y-5213180D02*
X12277500Y-5213180D01*
X13962500Y-5223100D02*
X12277500Y-5223100D01*
X13962500Y-5233020D02*
X12277500Y-5233020D01*
X13962500Y-5242940D02*
X12277500Y-5242940D01*
X13962500Y-5252860D02*
X12277500Y-5252860D01*
X13962500Y-5262780D02*
X12277500Y-5262780D01*
X13962500Y-5272700D02*
X12277500Y-5272700D01*
X13962500Y-5282620D02*
X12277500Y-5282620D01*
X13962500Y-5292540D02*
X12277500Y-5292540D01*
X13962500Y-5302460D02*
X12277500Y-5302460D01*
X13962500Y-5312380D02*
X12277500Y-5312380D01*
X13962500Y-5322300D02*
X12277500Y-5322300D01*
X13962500Y-5332220D02*
X12277500Y-5332220D01*
X13962500Y-5342140D02*
X12277500Y-5342140D01*
X13962500Y-5352060D02*
X12277500Y-5352060D01*
X13962500Y-5361980D02*
X12277500Y-5361980D01*
X13962500Y-5371900D02*
X12277500Y-5371900D01*
X13962500Y-5381820D02*
X12277500Y-5381820D01*
X13962500Y-5391740D02*
X12277500Y-5391740D01*
X13962500Y-5401660D02*
X12277500Y-5401660D01*
X13962500Y-5411580D02*
X12277500Y-5411580D01*
X13962500Y-5421500D02*
X12277500Y-5421500D01*
X13962500Y-5431420D02*
X12277500Y-5431420D01*
X13962500Y-5441340D02*
X12277500Y-5441340D01*
X13962500Y-5451260D02*
X12277500Y-5451260D01*
X13962500Y-5461180D02*
X12277500Y-5461180D01*
X13962500Y-5471100D02*
X12277500Y-5471100D01*
X13962500Y-5481020D02*
X12277500Y-5481020D01*
X13962500Y-5490940D02*
X12277500Y-5490940D01*
X13962500Y-5500860D02*
X12277500Y-5500860D01*
X13962500Y-5510780D02*
X12277500Y-5510780D01*
X13962500Y-5520700D02*
X12277500Y-5520700D01*
X13962500Y-5530620D02*
X12277500Y-5530620D01*
X13962500Y-5540540D02*
X12277500Y-5540540D01*
X13962500Y-5550460D02*
X12277500Y-5550460D01*
X13962500Y-5560380D02*
X12277500Y-5560380D01*
X13962500Y-5570300D02*
X12277500Y-5570300D01*
X13962500Y-5580220D02*
X12277500Y-5580220D01*
X13962500Y-5590140D02*
X12277500Y-5590140D01*
X13962500Y-5600060D02*
X12277500Y-5600060D01*
X13962500Y-5609980D02*
X12277500Y-5609980D01*
X13962500Y-5619900D02*
X12277500Y-5619900D01*
X13962500Y-5629820D02*
X12277500Y-5629820D01*
X13962500Y-5639740D02*
X12277500Y-5639740D01*
X13962500Y-5649660D02*
X12277500Y-5649660D01*
X13962500Y-5659580D02*
X12277500Y-5659580D01*
X13962500Y-5669500D02*
X12277500Y-5669500D01*
X13962500Y-5679420D02*
X12277500Y-5679420D01*
X13962500Y-5689340D02*
X12277500Y-5689340D01*
X13962500Y-5699260D02*
X12277500Y-5699260D01*
X13962500Y-5709180D02*
X12277500Y-5709180D01*
X13962500Y-5719100D02*
X12277500Y-5719100D01*
X13962500Y-5729020D02*
X12277500Y-5729020D01*
X13962500Y-5738940D02*
X12277500Y-5738940D01*
X13962500Y-5748860D02*
X12277500Y-5748860D01*
X13962500Y-5758780D02*
X12277500Y-5758780D01*
X13962500Y-5768700D02*
X12277500Y-5768700D01*
X13962500Y-5778620D02*
X12277500Y-5778620D01*
X13962500Y-5788540D02*
X12277500Y-5788540D01*
X13962500Y-5798460D02*
X12277500Y-5798460D01*
X13962500Y-5808380D02*
X12277500Y-5808380D01*
X13962500Y-5818300D02*
X12277500Y-5818300D01*
X13962500Y-5828220D02*
X12277500Y-5828220D01*
X13962500Y-5838140D02*
X12277500Y-5838140D01*
X13962500Y-5848060D02*
X12277500Y-5848060D01*
X13962500Y-5857980D02*
X12277500Y-5857980D01*
X13962500Y-5867900D02*
X12277500Y-5867900D01*
X13962500Y-5877820D02*
X12277500Y-5877820D01*
X13962500Y-5887740D02*
X12277500Y-5887740D01*
X13962500Y-5897660D02*
X12277500Y-5897660D01*
X13962500Y-5907580D02*
X12277500Y-5907580D01*
X13962500Y-5917500D02*
X12277500Y-5917500D01*
X13962500Y-5927420D02*
X12277500Y-5927420D01*
X13962500Y-5937340D02*
X12277500Y-5937340D01*
X13962500Y-5947260D02*
X12277500Y-5947260D01*
X13962500Y-5957180D02*
X12277500Y-5957180D01*
X13962500Y-5967100D02*
X12277500Y-5967100D01*
X13962500Y-5977020D02*
X12277500Y-5977020D01*
X13962500Y-5986940D02*
X12277500Y-5986940D01*
X13962500Y-5996860D02*
X12277500Y-5996860D01*
X13962500Y-6006780D02*
X12277500Y-6006780D01*
X13962500Y-6016700D02*
X12277500Y-6016700D01*
X13962500Y-6026620D02*
X12277500Y-6026620D01*
X13962500Y-6036540D02*
X12277500Y-6036540D01*
X13962500Y-6046460D02*
X12277500Y-6046460D01*
X13962500Y-6056380D02*
X12277500Y-6056380D01*
X13962500Y-6066300D02*
X12277500Y-6066300D01*
X13962500Y-6076220D02*
X12277500Y-6076220D01*
X13962500Y-6086140D02*
X12277500Y-6086140D01*
X13962500Y-6096060D02*
X12277500Y-6096060D01*
X13962500Y-6105980D02*
X12277500Y-6105980D01*
X13962500Y-6115900D02*
X12277500Y-6115900D01*
X13962500Y-6125820D02*
X12277500Y-6125820D01*
X13962500Y-6135740D02*
X12277500Y-6135740D01*
X13962500Y-6145660D02*
X12277500Y-6145660D01*
X13962500Y-6155580D02*
X12277500Y-6155580D01*
X13962500Y-6165500D02*
X12277500Y-6165500D01*
X13962500Y-6175420D02*
X12277500Y-6175420D01*
X13962500Y-6185340D02*
X12277500Y-6185340D01*
X13962500Y-6195260D02*
X12277500Y-6195260D01*
X13962500Y-6205180D02*
X12277500Y-6205180D01*
X13962500Y-6215100D02*
X12277500Y-6215100D01*
X13962500Y-6225020D02*
X12277500Y-6225020D01*
X13962500Y-6234940D02*
X12277500Y-6234940D01*
X13962500Y-6244860D02*
X12277500Y-6244860D01*
X13962500Y-6254780D02*
X12277500Y-6254780D01*
X13962500Y-6264700D02*
X12277500Y-6264700D01*
X13962500Y-6274620D02*
X12277500Y-6274620D01*
X13962500Y-6284540D02*
X12277500Y-6284540D01*
X13962500Y-6294460D02*
X12277500Y-6294460D01*
X13962500Y-6304380D02*
X12277500Y-6304380D01*
X13962500Y-6314300D02*
X12277500Y-6314300D01*
X13962500Y-6324220D02*
X12277500Y-6324220D01*
X13962500Y-6334140D02*
X12277500Y-6334140D01*
X13962500Y-6344060D02*
X12277500Y-6344060D01*
X13962500Y-6353980D02*
X12277500Y-6353980D01*
X13962500Y-6363900D02*
X12277500Y-6363900D01*
X13962500Y-6373820D02*
X12277500Y-6373820D01*
X13962500Y-6383740D02*
X12277500Y-6383740D01*
X13962500Y-6393660D02*
X12277500Y-6393660D01*
X13962500Y-6403580D02*
X12277500Y-6403580D01*
X13962500Y-6413500D02*
X12277500Y-6413500D01*
X13962500Y-6423420D02*
X12277500Y-6423420D01*
X13962500Y-6433340D02*
X12277500Y-6433340D01*
X13962500Y-6443260D02*
X12277500Y-6443260D01*
X13962500Y-6453180D02*
X12277500Y-6453180D01*
X13962500Y-6463100D02*
X12277500Y-6463100D01*
X13962500Y-6473020D02*
X12277500Y-6473020D01*
X13962500Y-6482940D02*
X12277500Y-6482940D01*
X13962500Y-6492860D02*
X12277500Y-6492860D01*
X13962500Y-6502780D02*
X12277500Y-6502780D01*
X13962500Y-6512700D02*
X12277500Y-6512700D01*
X13962500Y-6522620D02*
X12277500Y-6522620D01*
X13962500Y-6532540D02*
X12277500Y-6532540D01*
X13962500Y-6542460D02*
X12277500Y-6542460D01*
X13962500Y-6552380D02*
X12277500Y-6552380D01*
X13962500Y-6562300D02*
X12277500Y-6562300D01*
X13962500Y-6572220D02*
X12277500Y-6572220D01*
X13962500Y-6582140D02*
X12277500Y-6582140D01*
X13962500Y-6592060D02*
X12277500Y-6592060D01*
X13962500Y-6601980D02*
X12277500Y-6601980D01*
X13962500Y-6611900D02*
X12277500Y-6611900D01*
X13962500Y-6621820D02*
X12277500Y-6621820D01*
X13962500Y-6631740D02*
X12277500Y-6631740D01*
X13962500Y-6641660D02*
X12277500Y-6641660D01*
X13962500Y-6651580D02*
X12277500Y-6651580D01*
X13962500Y-6661500D02*
X12277500Y-6661500D01*
X13962500Y-6671420D02*
X12277500Y-6671420D01*
X13962500Y-6681340D02*
X12277500Y-6681340D01*
X13962500Y-6691260D02*
X12277500Y-6691260D01*
X13962500Y-6701180D02*
X12277500Y-6701180D01*
X13439991Y-6711100D02*
X12277500Y-6711100D01*
X13962500Y-6711100D02*
X13560086Y-6711100D01*
X13415982Y-6721020D02*
X12277500Y-6721020D01*
X13962500Y-6721020D02*
X13583976Y-6721020D01*
X13391974Y-6730940D02*
X12277500Y-6730940D01*
X13962500Y-6730940D02*
X13607866Y-6730940D01*
X13379867Y-6740860D02*
X12277500Y-6740860D01*
X13962500Y-6740860D02*
X13620201Y-6740860D01*
X13369929Y-6750780D02*
X12277500Y-6750780D01*
X13962500Y-6750780D02*
X13630104Y-6750780D01*
X13359992Y-6760700D02*
X12277500Y-6760700D01*
X13962500Y-6760700D02*
X13640007Y-6760700D01*
X13350055Y-6770620D02*
X12277500Y-6770620D01*
X13962500Y-6770620D02*
X13649909Y-6770620D01*
X13340117Y-6780540D02*
X12277500Y-6780540D01*
X13962500Y-6780540D02*
X13659812Y-6780540D01*
X13331635Y-6790460D02*
X12277500Y-6790460D01*
X13962500Y-6790460D02*
X13668434Y-6790460D01*
X13327516Y-6800380D02*
X12277500Y-6800380D01*
X13962500Y-6800380D02*
X13672533Y-6800380D01*
X13323397Y-6810300D02*
X12277500Y-6810300D01*
X13962500Y-6810300D02*
X13676632Y-6810300D01*
X13319278Y-6820220D02*
X12277500Y-6820220D01*
X13962500Y-6820220D02*
X13680731Y-6820220D01*
X13315158Y-6830140D02*
X12277500Y-6830140D01*
X13962500Y-6830140D02*
X13684830Y-6830140D01*
X13311039Y-6840060D02*
X12277500Y-6840060D01*
X13962500Y-6840060D02*
X13688929Y-6840060D01*
X13306920Y-6849980D02*
X12277500Y-6849980D01*
X13962500Y-6849980D02*
X13693028Y-6849980D01*
X13302801Y-6859900D02*
X12277500Y-6859900D01*
X13962500Y-6859900D02*
X13697126Y-6859900D01*
X13302526Y-6869820D02*
X12277500Y-6869820D01*
X13962500Y-6869820D02*
X13697526Y-6869820D01*
X13302518Y-6879740D02*
X12277500Y-6879740D01*
X13962500Y-6879740D02*
X13697518Y-6879740D01*
X13302509Y-6889660D02*
X12277500Y-6889660D01*
X13962500Y-6889660D02*
X13697509Y-6889660D01*
X13302500Y-6899580D02*
X12277500Y-6899580D01*
X13962500Y-6899580D02*
X13697500Y-6899580D01*
X13302492Y-6909500D02*
X12277500Y-6909500D01*
X13962500Y-6909500D02*
X13697492Y-6909500D01*
X13302483Y-6919420D02*
X12277500Y-6919420D01*
X13962500Y-6919420D02*
X13697483Y-6919420D01*
X13302474Y-6929340D02*
X12277500Y-6929340D01*
X13962500Y-6929340D02*
X13697474Y-6929340D01*
X13302526Y-6939260D02*
X12277500Y-6939260D01*
X13962500Y-6939260D02*
X13697466Y-6939260D01*
X13306625Y-6949180D02*
X12277500Y-6949180D01*
X13962500Y-6949180D02*
X13693428Y-6949180D01*
X13310724Y-6959100D02*
X12277500Y-6959100D01*
X13962500Y-6959100D02*
X13689309Y-6959100D01*
X13314823Y-6969020D02*
X12277500Y-6969020D01*
X13962500Y-6969020D02*
X13685190Y-6969020D01*
X13318922Y-6978940D02*
X12277500Y-6978940D01*
X13962500Y-6978940D02*
X13681071Y-6978940D01*
X13323021Y-6988860D02*
X12277500Y-6988860D01*
X13962500Y-6988860D02*
X13676952Y-6988860D01*
X13327120Y-6998780D02*
X12277500Y-6998780D01*
X13962500Y-6998780D02*
X13672833Y-6998780D01*
X13331219Y-7008700D02*
X12277500Y-7008700D01*
X13962500Y-7008700D02*
X13668714Y-7008700D01*
X13339349Y-7018620D02*
X12277500Y-7018620D01*
X13962500Y-7018620D02*
X13660724Y-7018620D01*
X13349252Y-7028540D02*
X12277500Y-7028540D01*
X13962500Y-7028540D02*
X13650787Y-7028540D01*
X13359155Y-7038460D02*
X12277500Y-7038460D01*
X13962500Y-7038460D02*
X13640849Y-7038460D01*
X13369057Y-7048380D02*
X12277500Y-7048380D01*
X13962500Y-7048380D02*
X13630912Y-7048380D01*
X13378960Y-7058300D02*
X12277500Y-7058300D01*
X13962500Y-7058300D02*
X13620975Y-7058300D01*
X13390111Y-7068220D02*
X12277500Y-7068220D01*
X13962500Y-7068220D02*
X13610059Y-7068220D01*
X13414001Y-7078140D02*
X12277500Y-7078140D01*
X13962500Y-7078140D02*
X13586050Y-7078140D01*
X13437891Y-7088060D02*
X12277500Y-7088060D01*
X13962500Y-7088060D02*
X13562042Y-7088060D01*
X13962500Y-7097980D02*
X12277500Y-7097980D01*
X13962500Y-7107900D02*
X12277500Y-7107900D01*
X13962500Y-7117820D02*
X12277500Y-7117820D01*
X13962500Y-7127740D02*
X12277500Y-7127740D01*
X13962500Y-7137660D02*
X12277500Y-7137660D01*
X13962500Y-7147580D02*
X12277500Y-7147580D01*
X13962500Y-7157500D02*
X12277500Y-7157500D01*
X13962500Y-7167420D02*
X12277500Y-7167420D01*
X13962500Y-7177340D02*
X12277500Y-7177340D01*
X13962500Y-7187260D02*
X12277500Y-7187260D01*
X13962500Y-7197180D02*
X12277500Y-7197180D01*
X13962500Y-7207100D02*
X12277500Y-7207100D01*
X13962500Y-7217020D02*
X12277500Y-7217020D01*
X13962500Y-7226940D02*
X12277500Y-7226940D01*
X13962500Y-7236860D02*
X12277500Y-7236860D01*
X13962500Y-7246780D02*
X12277500Y-7246780D01*
X13962500Y-7256700D02*
X12277500Y-7256700D01*
X13962500Y-7266620D02*
X12277500Y-7266620D01*
X13962500Y-7276540D02*
X12277500Y-7276540D01*
X13962500Y-7286460D02*
X12277500Y-7286460D01*
X13962500Y-7296380D02*
X12277500Y-7296380D01*
X13962500Y-7306300D02*
X12277500Y-7306300D01*
X13962500Y-7316220D02*
X12277500Y-7316220D01*
X13962500Y-7326140D02*
X12277500Y-7326140D01*
X13962500Y-7336060D02*
X12277500Y-7336060D01*
X13962500Y-7345980D02*
X12277500Y-7345980D01*
X13962500Y-7355900D02*
X12277500Y-7355900D01*
X13962500Y-7362500D02*
X12277500Y-7362500D01*
X12277500Y-6939113D01*
X13302466Y-6939113D01*
X13332470Y-7011729D01*
X13387979Y-7067335D01*
X13460542Y-7097466D01*
X13539113Y-7097534D01*
X13611729Y-7067530D01*
X13667335Y-7012021D01*
X13697466Y-6939457D01*
X13697534Y-6860887D01*
X13667530Y-6788271D01*
X13612021Y-6732665D01*
X13539457Y-6702534D01*
X13460887Y-6702466D01*
X13388271Y-6732470D01*
X13332665Y-6787979D01*
X13302534Y-6860542D01*
X13302466Y-6939113D01*
X12277500Y-6939113D01*
X12277500Y-4500000D01*
X12276909Y-4497082D01*
X12275229Y-4494624D01*
X12272726Y-4493013D01*
X12270000Y-4492500D01*
X11647500Y-4492500D01*
X11647500Y-3939113D01*
X13302466Y-3939113D01*
X13332470Y-4011729D01*
X13387979Y-4067335D01*
X13460542Y-4097466D01*
X13539113Y-4097534D01*
X13611729Y-4067530D01*
X13667335Y-4012021D01*
X13697466Y-3939457D01*
X13697534Y-3860887D01*
X13667530Y-3788271D01*
X13612021Y-3732665D01*
X13539457Y-3702534D01*
X13460887Y-3702466D01*
X13388271Y-3732470D01*
X13332665Y-3787979D01*
X13302534Y-3860542D01*
X13302466Y-3939113D01*
X11647500Y-3939113D01*
X11647500Y-3744697D01*
X12274261Y-3744697D01*
X12308549Y-3827682D01*
X12371984Y-3891228D01*
X12454908Y-3925661D01*
X12544697Y-3925739D01*
X12627682Y-3891451D01*
X12691228Y-3828016D01*
X12725661Y-3745091D01*
X12725739Y-3655302D01*
X12691451Y-3572318D01*
X12628016Y-3508772D01*
X12545091Y-3474339D01*
X12455302Y-3474261D01*
X12372318Y-3508549D01*
X12308772Y-3571984D01*
X12274339Y-3654908D01*
X12274261Y-3744697D01*
X11647500Y-3744697D01*
X11647500Y-3437500D01*
X13962500Y-3437500D01*
X13962500Y-7362500D01*
M02*
