G04 #@! TF.FileFunction,Soldermask,Top*
%FSLAX45Y45*%
G04 Gerber Fmt 4.5, Leading zero omitted, Abs format (unit mm)*
G04 Created by KiCad (PCBNEW (2015-11-19 BZR 6326, Git 08d9b36)-product) date Mon 23 Nov 2015 03:22:04 AM EST*
%MOMM*%
G01*
G04 APERTURE LIST*
%ADD10C,0.100000*%
G04 APERTURE END LIST*
D10*
G36*
X12557500Y-7280000D02*
X12452500Y-7280000D01*
X12452500Y-7170000D01*
X12557500Y-7170000D01*
X12557500Y-7280000D01*
X12557500Y-7280000D01*
G37*
G36*
X12397500Y-7280000D02*
X12292500Y-7280000D01*
X12292500Y-7170000D01*
X12397500Y-7170000D01*
X12397500Y-7280000D01*
X12397500Y-7280000D01*
G37*
G36*
X12555000Y-7130000D02*
X12455000Y-7130000D01*
X12455000Y-7020000D01*
X12555000Y-7020000D01*
X12555000Y-7130000D01*
X12555000Y-7130000D01*
G37*
G36*
X12395000Y-7130000D02*
X12295000Y-7130000D01*
X12295000Y-7020000D01*
X12395000Y-7020000D01*
X12395000Y-7130000D01*
X12395000Y-7130000D01*
G37*
G36*
X13080000Y-7130000D02*
X12980000Y-7130000D01*
X12980000Y-7020000D01*
X13080000Y-7020000D01*
X13080000Y-7130000D01*
X13080000Y-7130000D01*
G37*
G36*
X12920000Y-7130000D02*
X12820000Y-7130000D01*
X12820000Y-7020000D01*
X12920000Y-7020000D01*
X12920000Y-7130000D01*
X12920000Y-7130000D01*
G37*
G36*
X12557500Y-6968870D02*
X12452500Y-6968870D01*
X12452500Y-6858870D01*
X12557500Y-6858870D01*
X12557500Y-6968870D01*
X12557500Y-6968870D01*
G37*
G36*
X12397500Y-6968870D02*
X12292500Y-6968870D01*
X12292500Y-6858870D01*
X12397500Y-6858870D01*
X12397500Y-6968870D01*
X12397500Y-6968870D01*
G37*
G36*
X10805000Y-6880000D02*
X10705000Y-6880000D01*
X10705000Y-6770000D01*
X10805000Y-6770000D01*
X10805000Y-6880000D01*
X10805000Y-6880000D01*
G37*
G36*
X10645000Y-6880000D02*
X10545000Y-6880000D01*
X10545000Y-6770000D01*
X10645000Y-6770000D01*
X10645000Y-6880000D01*
X10645000Y-6880000D01*
G37*
G36*
X10455000Y-6880000D02*
X10355000Y-6880000D01*
X10355000Y-6770000D01*
X10455000Y-6770000D01*
X10455000Y-6880000D01*
X10455000Y-6880000D01*
G37*
G36*
X10295000Y-6880000D02*
X10195000Y-6880000D01*
X10195000Y-6770000D01*
X10295000Y-6770000D01*
X10295000Y-6880000D01*
X10295000Y-6880000D01*
G37*
G36*
X11065000Y-6860000D02*
X10985000Y-6860000D01*
X10985000Y-6790000D01*
X11065000Y-6790000D01*
X11065000Y-6860000D01*
X11065000Y-6860000D01*
G37*
G36*
X11065000Y-6720000D02*
X10985000Y-6720000D01*
X10985000Y-6650000D01*
X11065000Y-6650000D01*
X11065000Y-6720000D01*
X11065000Y-6720000D01*
G37*
G36*
X12907500Y-6707500D02*
X12782500Y-6707500D01*
X12782500Y-6552500D01*
X12907500Y-6552500D01*
X12907500Y-6707500D01*
X12907500Y-6707500D01*
G37*
G36*
X12727500Y-6707500D02*
X12602500Y-6707500D01*
X12602500Y-6552500D01*
X12727500Y-6552500D01*
X12727500Y-6707500D01*
X12727500Y-6707500D01*
G37*
G36*
X8756325Y-6451781D02*
X8756325Y-6451781D01*
X8756328Y-6451781D01*
X8771466Y-6456467D01*
X8785407Y-6464005D01*
X8797617Y-6474106D01*
X8807633Y-6486387D01*
X8815073Y-6500380D01*
X8819654Y-6515551D01*
X8821200Y-6531323D01*
X8821200Y-6608689D01*
X8821194Y-6609614D01*
X8821192Y-6609811D01*
X8819426Y-6625560D01*
X8814634Y-6640665D01*
X8806999Y-6654552D01*
X8796813Y-6666692D01*
X8784462Y-6676622D01*
X8770418Y-6683964D01*
X8755215Y-6688439D01*
X8755214Y-6688439D01*
X8755213Y-6688439D01*
X8739433Y-6689875D01*
X8723675Y-6688219D01*
X8723675Y-6688219D01*
X8723673Y-6688219D01*
X8708534Y-6683532D01*
X8694594Y-6675995D01*
X8682383Y-6665893D01*
X8672367Y-6653613D01*
X8664927Y-6639620D01*
X8660346Y-6624449D01*
X8658800Y-6608677D01*
X8658800Y-6531311D01*
X8658807Y-6530291D01*
X8658808Y-6530189D01*
X8660574Y-6514440D01*
X8665366Y-6499335D01*
X8673001Y-6485447D01*
X8683187Y-6473308D01*
X8695538Y-6463377D01*
X8709582Y-6456035D01*
X8724785Y-6451561D01*
X8724787Y-6451561D01*
X8724787Y-6451561D01*
X8740567Y-6450125D01*
X8756325Y-6451781D01*
X8756325Y-6451781D01*
G37*
G36*
X8956325Y-6451781D02*
X8956325Y-6451781D01*
X8956328Y-6451781D01*
X8971466Y-6456467D01*
X8985407Y-6464005D01*
X8997617Y-6474106D01*
X9007633Y-6486387D01*
X9015073Y-6500380D01*
X9019654Y-6515551D01*
X9021200Y-6531323D01*
X9021200Y-6608689D01*
X9021194Y-6609614D01*
X9021192Y-6609811D01*
X9019426Y-6625560D01*
X9014634Y-6640665D01*
X9006999Y-6654552D01*
X8996813Y-6666692D01*
X8984462Y-6676622D01*
X8970418Y-6683964D01*
X8955215Y-6688439D01*
X8955214Y-6688439D01*
X8955213Y-6688439D01*
X8939433Y-6689875D01*
X8923675Y-6688219D01*
X8923675Y-6688219D01*
X8923673Y-6688219D01*
X8908534Y-6683532D01*
X8894594Y-6675995D01*
X8882383Y-6665893D01*
X8872367Y-6653613D01*
X8864927Y-6639620D01*
X8860346Y-6624449D01*
X8858800Y-6608677D01*
X8858800Y-6531311D01*
X8858807Y-6530291D01*
X8858808Y-6530189D01*
X8860574Y-6514440D01*
X8865366Y-6499335D01*
X8873001Y-6485447D01*
X8883187Y-6473308D01*
X8895538Y-6463377D01*
X8909582Y-6456035D01*
X8924785Y-6451561D01*
X8924787Y-6451561D01*
X8924787Y-6451561D01*
X8940567Y-6450125D01*
X8956325Y-6451781D01*
X8956325Y-6451781D01*
G37*
G36*
X9156325Y-6451781D02*
X9156325Y-6451781D01*
X9156328Y-6451781D01*
X9171466Y-6456467D01*
X9185407Y-6464005D01*
X9197617Y-6474106D01*
X9207633Y-6486387D01*
X9215073Y-6500380D01*
X9219654Y-6515551D01*
X9221200Y-6531323D01*
X9221200Y-6608689D01*
X9221194Y-6609614D01*
X9221192Y-6609811D01*
X9219426Y-6625560D01*
X9214634Y-6640665D01*
X9206999Y-6654552D01*
X9196813Y-6666692D01*
X9184462Y-6676622D01*
X9170418Y-6683964D01*
X9155215Y-6688439D01*
X9155214Y-6688439D01*
X9155213Y-6688439D01*
X9139433Y-6689875D01*
X9123675Y-6688219D01*
X9123675Y-6688219D01*
X9123673Y-6688219D01*
X9108534Y-6683532D01*
X9094594Y-6675995D01*
X9082383Y-6665893D01*
X9072367Y-6653613D01*
X9064927Y-6639620D01*
X9060346Y-6624449D01*
X9058800Y-6608677D01*
X9058800Y-6531311D01*
X9058807Y-6530291D01*
X9058808Y-6530189D01*
X9060574Y-6514440D01*
X9065366Y-6499335D01*
X9073001Y-6485447D01*
X9083187Y-6473308D01*
X9095538Y-6463377D01*
X9109582Y-6456035D01*
X9124785Y-6451561D01*
X9124787Y-6451561D01*
X9124787Y-6451561D01*
X9140567Y-6450125D01*
X9156325Y-6451781D01*
X9156325Y-6451781D01*
G37*
G36*
X9356325Y-6451781D02*
X9356325Y-6451781D01*
X9356328Y-6451781D01*
X9371466Y-6456467D01*
X9385407Y-6464005D01*
X9397617Y-6474106D01*
X9407633Y-6486387D01*
X9415073Y-6500380D01*
X9419654Y-6515551D01*
X9421200Y-6531323D01*
X9421200Y-6608689D01*
X9421194Y-6609614D01*
X9421192Y-6609811D01*
X9419426Y-6625560D01*
X9414634Y-6640665D01*
X9406999Y-6654552D01*
X9396813Y-6666692D01*
X9384462Y-6676622D01*
X9370418Y-6683964D01*
X9355215Y-6688439D01*
X9355214Y-6688439D01*
X9355213Y-6688439D01*
X9339433Y-6689875D01*
X9323675Y-6688219D01*
X9323675Y-6688219D01*
X9323673Y-6688219D01*
X9308534Y-6683532D01*
X9294594Y-6675995D01*
X9282383Y-6665893D01*
X9272367Y-6653613D01*
X9264927Y-6639620D01*
X9260346Y-6624449D01*
X9258800Y-6608677D01*
X9258800Y-6531311D01*
X9258807Y-6530291D01*
X9258808Y-6530189D01*
X9260574Y-6514440D01*
X9265366Y-6499335D01*
X9273001Y-6485447D01*
X9283187Y-6473308D01*
X9295538Y-6463377D01*
X9309582Y-6456035D01*
X9324785Y-6451561D01*
X9324787Y-6451561D01*
X9324787Y-6451561D01*
X9340567Y-6450125D01*
X9356325Y-6451781D01*
X9356325Y-6451781D01*
G37*
G36*
X8621200Y-6689300D02*
X8458800Y-6689300D01*
X8458800Y-6450700D01*
X8621200Y-6450700D01*
X8621200Y-6689300D01*
X8621200Y-6689300D01*
G37*
G36*
X13105000Y-6680000D02*
X12995000Y-6680000D01*
X12995000Y-6580000D01*
X13105000Y-6580000D01*
X13105000Y-6680000D01*
X13105000Y-6680000D01*
G37*
G36*
X11877500Y-6622000D02*
X11722500Y-6622000D01*
X11722500Y-6532000D01*
X11877500Y-6532000D01*
X11877500Y-6622000D01*
X11877500Y-6622000D01*
G37*
G36*
X12502500Y-6622000D02*
X12347500Y-6622000D01*
X12347500Y-6532000D01*
X12502500Y-6532000D01*
X12502500Y-6622000D01*
X12502500Y-6622000D01*
G37*
G36*
X11170000Y-6620000D02*
X11070000Y-6620000D01*
X11070000Y-6480000D01*
X11170000Y-6480000D01*
X11170000Y-6620000D01*
X11170000Y-6620000D01*
G37*
G36*
X10980000Y-6620000D02*
X10880000Y-6620000D01*
X10880000Y-6480000D01*
X10980000Y-6480000D01*
X10980000Y-6620000D01*
X10980000Y-6620000D01*
G37*
G36*
X10455000Y-6605000D02*
X10355000Y-6605000D01*
X10355000Y-6495000D01*
X10455000Y-6495000D01*
X10455000Y-6605000D01*
X10455000Y-6605000D01*
G37*
G36*
X10295000Y-6605000D02*
X10195000Y-6605000D01*
X10195000Y-6495000D01*
X10295000Y-6495000D01*
X10295000Y-6605000D01*
X10295000Y-6605000D01*
G37*
G36*
X10665000Y-6585000D02*
X10585000Y-6585000D01*
X10585000Y-6515000D01*
X10665000Y-6515000D01*
X10665000Y-6585000D01*
X10665000Y-6585000D01*
G37*
G36*
X13105000Y-6520000D02*
X12995000Y-6520000D01*
X12995000Y-6420000D01*
X13105000Y-6420000D01*
X13105000Y-6520000D01*
X13105000Y-6520000D01*
G37*
G36*
X12502500Y-6495000D02*
X12347500Y-6495000D01*
X12347500Y-6405000D01*
X12502500Y-6405000D01*
X12502500Y-6495000D01*
X12502500Y-6495000D01*
G37*
G36*
X11877500Y-6495000D02*
X11722500Y-6495000D01*
X11722500Y-6405000D01*
X11877500Y-6405000D01*
X11877500Y-6495000D01*
X11877500Y-6495000D01*
G37*
G36*
X12735000Y-6470000D02*
X12595000Y-6470000D01*
X12595000Y-6370000D01*
X12735000Y-6370000D01*
X12735000Y-6470000D01*
X12735000Y-6470000D01*
G37*
G36*
X10665000Y-6445000D02*
X10585000Y-6445000D01*
X10585000Y-6375000D01*
X10665000Y-6375000D01*
X10665000Y-6445000D01*
X10665000Y-6445000D01*
G37*
G36*
X11070000Y-6400000D02*
X10980000Y-6400000D01*
X10980000Y-6260000D01*
X11070000Y-6260000D01*
X11070000Y-6400000D01*
X11070000Y-6400000D01*
G37*
G36*
X12955000Y-6370000D02*
X12815000Y-6370000D01*
X12815000Y-6280000D01*
X12955000Y-6280000D01*
X12955000Y-6370000D01*
X12955000Y-6370000D01*
G37*
G36*
X7221079Y-6086076D02*
X7243171Y-6090611D01*
X7263961Y-6099351D01*
X7282659Y-6111962D01*
X7298550Y-6127965D01*
X7311030Y-6146749D01*
X7319624Y-6167601D01*
X7324001Y-6189706D01*
X7324001Y-6189706D01*
X7324005Y-6189724D01*
X7323645Y-6215483D01*
X7323641Y-6215500D01*
X7323641Y-6215500D01*
X7318649Y-6237475D01*
X7309476Y-6258078D01*
X7296475Y-6276507D01*
X7280144Y-6292060D01*
X7261102Y-6304144D01*
X7240075Y-6312300D01*
X7217866Y-6316216D01*
X7195317Y-6315743D01*
X7173291Y-6310901D01*
X7152625Y-6301872D01*
X7134105Y-6289000D01*
X7118439Y-6272778D01*
X7106222Y-6253820D01*
X7097920Y-6232852D01*
X7093849Y-6210670D01*
X7094164Y-6188119D01*
X7098853Y-6166059D01*
X7107737Y-6145330D01*
X7120478Y-6126722D01*
X7136592Y-6110942D01*
X7155463Y-6098593D01*
X7176374Y-6090145D01*
X7198527Y-6085919D01*
X7221079Y-6086076D01*
X7221079Y-6086076D01*
G37*
G36*
X10369524Y-6137611D02*
X10369525Y-6137611D01*
X10369527Y-6137611D01*
X10374188Y-6139054D01*
X10378480Y-6141375D01*
X10382239Y-6144485D01*
X10385323Y-6148266D01*
X10387614Y-6152574D01*
X10389024Y-6157245D01*
X10389500Y-6162101D01*
X10389500Y-6277911D01*
X10389498Y-6278147D01*
X10389498Y-6278248D01*
X10388954Y-6283097D01*
X10387478Y-6287748D01*
X10385128Y-6292023D01*
X10381992Y-6295761D01*
X10378189Y-6298818D01*
X10373865Y-6301079D01*
X10369185Y-6302456D01*
X10369183Y-6302457D01*
X10369182Y-6302457D01*
X10364326Y-6302899D01*
X10359476Y-6302389D01*
X10359475Y-6302389D01*
X10359473Y-6302389D01*
X10354812Y-6300946D01*
X10350520Y-6298625D01*
X10346761Y-6295515D01*
X10343677Y-6291734D01*
X10341386Y-6287426D01*
X10339976Y-6282755D01*
X10339500Y-6277899D01*
X10339500Y-6162089D01*
X10339502Y-6161853D01*
X10339502Y-6161752D01*
X10340046Y-6156903D01*
X10341522Y-6152252D01*
X10343872Y-6147977D01*
X10347008Y-6144239D01*
X10350811Y-6141182D01*
X10355135Y-6138921D01*
X10359816Y-6137544D01*
X10359817Y-6137543D01*
X10359818Y-6137543D01*
X10364674Y-6137101D01*
X10369524Y-6137611D01*
X10369524Y-6137611D01*
G37*
G36*
X10432524Y-6137611D02*
X10432525Y-6137611D01*
X10432527Y-6137611D01*
X10437188Y-6139054D01*
X10441480Y-6141375D01*
X10445239Y-6144485D01*
X10448323Y-6148266D01*
X10450614Y-6152574D01*
X10452024Y-6157245D01*
X10452500Y-6162101D01*
X10452500Y-6277911D01*
X10452498Y-6278147D01*
X10452498Y-6278248D01*
X10451954Y-6283097D01*
X10450478Y-6287748D01*
X10448128Y-6292023D01*
X10444992Y-6295761D01*
X10441189Y-6298818D01*
X10436865Y-6301079D01*
X10432185Y-6302456D01*
X10432183Y-6302457D01*
X10432182Y-6302457D01*
X10427326Y-6302899D01*
X10422476Y-6302389D01*
X10422475Y-6302389D01*
X10422473Y-6302389D01*
X10417812Y-6300946D01*
X10413520Y-6298625D01*
X10409761Y-6295515D01*
X10406677Y-6291734D01*
X10404386Y-6287426D01*
X10402976Y-6282755D01*
X10402500Y-6277899D01*
X10402500Y-6162089D01*
X10402502Y-6161853D01*
X10402502Y-6161752D01*
X10403046Y-6156903D01*
X10404522Y-6152252D01*
X10406872Y-6147977D01*
X10410008Y-6144239D01*
X10413811Y-6141182D01*
X10418135Y-6138921D01*
X10422816Y-6137544D01*
X10422817Y-6137543D01*
X10422818Y-6137543D01*
X10427674Y-6137101D01*
X10432524Y-6137611D01*
X10432524Y-6137611D01*
G37*
G36*
X10495524Y-6137611D02*
X10495525Y-6137611D01*
X10495527Y-6137611D01*
X10500188Y-6139054D01*
X10504480Y-6141375D01*
X10508239Y-6144485D01*
X10511323Y-6148266D01*
X10513614Y-6152574D01*
X10515024Y-6157245D01*
X10515500Y-6162101D01*
X10515500Y-6277911D01*
X10515498Y-6278147D01*
X10515498Y-6278248D01*
X10514954Y-6283097D01*
X10513478Y-6287748D01*
X10511128Y-6292023D01*
X10507992Y-6295761D01*
X10504189Y-6298818D01*
X10499865Y-6301079D01*
X10495185Y-6302456D01*
X10495183Y-6302457D01*
X10495182Y-6302457D01*
X10490326Y-6302899D01*
X10485476Y-6302389D01*
X10485475Y-6302389D01*
X10485473Y-6302389D01*
X10480812Y-6300946D01*
X10476520Y-6298625D01*
X10472761Y-6295515D01*
X10469677Y-6291734D01*
X10467386Y-6287426D01*
X10465976Y-6282755D01*
X10465500Y-6277899D01*
X10465500Y-6162089D01*
X10465502Y-6161853D01*
X10465502Y-6161752D01*
X10466046Y-6156903D01*
X10467522Y-6152252D01*
X10469872Y-6147977D01*
X10473008Y-6144239D01*
X10476811Y-6141182D01*
X10481135Y-6138921D01*
X10485816Y-6137544D01*
X10485817Y-6137543D01*
X10485818Y-6137543D01*
X10490674Y-6137101D01*
X10495524Y-6137611D01*
X10495524Y-6137611D01*
G37*
G36*
X10180524Y-6137611D02*
X10180525Y-6137611D01*
X10180527Y-6137611D01*
X10185188Y-6139054D01*
X10189480Y-6141375D01*
X10193239Y-6144485D01*
X10196323Y-6148266D01*
X10198614Y-6152574D01*
X10200024Y-6157245D01*
X10200500Y-6162101D01*
X10200500Y-6277911D01*
X10200498Y-6278147D01*
X10200498Y-6278248D01*
X10199954Y-6283097D01*
X10198478Y-6287748D01*
X10196128Y-6292023D01*
X10192992Y-6295761D01*
X10189189Y-6298818D01*
X10184865Y-6301079D01*
X10180185Y-6302456D01*
X10180183Y-6302457D01*
X10180182Y-6302457D01*
X10175326Y-6302899D01*
X10170476Y-6302389D01*
X10170475Y-6302389D01*
X10170473Y-6302389D01*
X10165812Y-6300946D01*
X10161520Y-6298625D01*
X10157761Y-6295515D01*
X10154677Y-6291734D01*
X10152386Y-6287426D01*
X10150976Y-6282755D01*
X10150500Y-6277899D01*
X10150500Y-6162089D01*
X10150502Y-6161853D01*
X10150502Y-6161752D01*
X10151046Y-6156903D01*
X10152522Y-6152252D01*
X10154872Y-6147977D01*
X10158008Y-6144239D01*
X10161811Y-6141182D01*
X10166135Y-6138921D01*
X10170816Y-6137544D01*
X10170817Y-6137543D01*
X10170818Y-6137543D01*
X10175674Y-6137101D01*
X10180524Y-6137611D01*
X10180524Y-6137611D01*
G37*
G36*
X10117524Y-6137611D02*
X10117525Y-6137611D01*
X10117527Y-6137611D01*
X10122188Y-6139054D01*
X10126480Y-6141375D01*
X10130239Y-6144485D01*
X10133323Y-6148266D01*
X10135614Y-6152574D01*
X10137024Y-6157245D01*
X10137500Y-6162101D01*
X10137500Y-6277911D01*
X10137498Y-6278147D01*
X10137498Y-6278248D01*
X10136954Y-6283097D01*
X10135478Y-6287748D01*
X10133128Y-6292023D01*
X10129992Y-6295761D01*
X10126189Y-6298818D01*
X10121865Y-6301079D01*
X10117185Y-6302456D01*
X10117183Y-6302457D01*
X10117182Y-6302457D01*
X10112326Y-6302899D01*
X10107476Y-6302389D01*
X10107475Y-6302389D01*
X10107473Y-6302389D01*
X10102812Y-6300946D01*
X10098520Y-6298625D01*
X10094761Y-6295515D01*
X10091677Y-6291734D01*
X10089386Y-6287426D01*
X10087976Y-6282755D01*
X10087500Y-6277899D01*
X10087500Y-6162089D01*
X10087502Y-6161853D01*
X10087502Y-6161752D01*
X10088046Y-6156903D01*
X10089522Y-6152252D01*
X10091872Y-6147977D01*
X10095008Y-6144239D01*
X10098811Y-6141182D01*
X10103135Y-6138921D01*
X10107816Y-6137544D01*
X10107817Y-6137543D01*
X10107818Y-6137543D01*
X10112674Y-6137101D01*
X10117524Y-6137611D01*
X10117524Y-6137611D01*
G37*
G36*
X10243524Y-6137611D02*
X10243525Y-6137611D01*
X10243527Y-6137611D01*
X10248188Y-6139054D01*
X10252480Y-6141375D01*
X10256239Y-6144485D01*
X10259323Y-6148266D01*
X10261614Y-6152574D01*
X10263024Y-6157245D01*
X10263500Y-6162101D01*
X10263500Y-6277911D01*
X10263498Y-6278147D01*
X10263498Y-6278248D01*
X10262954Y-6283097D01*
X10261478Y-6287748D01*
X10259128Y-6292023D01*
X10255992Y-6295761D01*
X10252189Y-6298818D01*
X10247865Y-6301079D01*
X10243185Y-6302456D01*
X10243183Y-6302457D01*
X10243182Y-6302457D01*
X10238326Y-6302899D01*
X10233476Y-6302389D01*
X10233475Y-6302389D01*
X10233473Y-6302389D01*
X10228812Y-6300946D01*
X10224520Y-6298625D01*
X10220761Y-6295515D01*
X10217677Y-6291734D01*
X10215386Y-6287426D01*
X10213976Y-6282755D01*
X10213500Y-6277899D01*
X10213500Y-6162089D01*
X10213502Y-6161853D01*
X10213502Y-6161752D01*
X10214046Y-6156903D01*
X10215522Y-6152252D01*
X10217872Y-6147977D01*
X10221008Y-6144239D01*
X10224811Y-6141182D01*
X10229135Y-6138921D01*
X10233816Y-6137544D01*
X10233817Y-6137543D01*
X10233818Y-6137543D01*
X10238674Y-6137101D01*
X10243524Y-6137611D01*
X10243524Y-6137611D01*
G37*
G36*
X10054524Y-6137611D02*
X10054525Y-6137611D01*
X10054527Y-6137611D01*
X10059188Y-6139054D01*
X10063480Y-6141375D01*
X10067239Y-6144485D01*
X10070323Y-6148266D01*
X10072614Y-6152574D01*
X10074024Y-6157245D01*
X10074500Y-6162101D01*
X10074500Y-6277911D01*
X10074498Y-6278147D01*
X10074498Y-6278248D01*
X10073954Y-6283097D01*
X10072478Y-6287748D01*
X10070128Y-6292023D01*
X10066992Y-6295761D01*
X10063189Y-6298818D01*
X10058865Y-6301079D01*
X10054185Y-6302456D01*
X10054183Y-6302457D01*
X10054182Y-6302457D01*
X10049326Y-6302899D01*
X10044476Y-6302389D01*
X10044475Y-6302389D01*
X10044473Y-6302389D01*
X10039812Y-6300946D01*
X10035520Y-6298625D01*
X10031761Y-6295515D01*
X10028677Y-6291734D01*
X10026386Y-6287426D01*
X10024976Y-6282755D01*
X10024500Y-6277899D01*
X10024500Y-6162089D01*
X10024502Y-6161853D01*
X10024502Y-6161752D01*
X10025046Y-6156903D01*
X10026522Y-6152252D01*
X10028872Y-6147977D01*
X10032008Y-6144239D01*
X10035811Y-6141182D01*
X10040135Y-6138921D01*
X10044816Y-6137544D01*
X10044817Y-6137543D01*
X10044818Y-6137543D01*
X10049674Y-6137101D01*
X10054524Y-6137611D01*
X10054524Y-6137611D01*
G37*
G36*
X10306524Y-6137611D02*
X10306525Y-6137611D01*
X10306527Y-6137611D01*
X10311188Y-6139054D01*
X10315480Y-6141375D01*
X10319239Y-6144485D01*
X10322323Y-6148266D01*
X10324614Y-6152574D01*
X10326024Y-6157245D01*
X10326500Y-6162101D01*
X10326500Y-6277911D01*
X10326498Y-6278147D01*
X10326498Y-6278248D01*
X10325954Y-6283097D01*
X10324478Y-6287748D01*
X10322128Y-6292023D01*
X10318992Y-6295761D01*
X10315189Y-6298818D01*
X10310865Y-6301079D01*
X10306185Y-6302456D01*
X10306183Y-6302457D01*
X10306182Y-6302457D01*
X10301326Y-6302899D01*
X10296476Y-6302389D01*
X10296475Y-6302389D01*
X10296473Y-6302389D01*
X10291812Y-6300946D01*
X10287520Y-6298625D01*
X10283761Y-6295515D01*
X10280677Y-6291734D01*
X10278386Y-6287426D01*
X10276976Y-6282755D01*
X10276500Y-6277899D01*
X10276500Y-6162089D01*
X10276502Y-6161853D01*
X10276502Y-6161752D01*
X10277046Y-6156903D01*
X10278522Y-6152252D01*
X10280872Y-6147977D01*
X10284008Y-6144239D01*
X10287811Y-6141182D01*
X10292135Y-6138921D01*
X10296816Y-6137544D01*
X10296817Y-6137543D01*
X10296818Y-6137543D01*
X10301674Y-6137101D01*
X10306524Y-6137611D01*
X10306524Y-6137611D01*
G37*
G36*
X13095000Y-6285000D02*
X12995000Y-6285000D01*
X12995000Y-6175000D01*
X13095000Y-6175000D01*
X13095000Y-6285000D01*
X13095000Y-6285000D01*
G37*
G36*
X13255000Y-6285000D02*
X13155000Y-6285000D01*
X13155000Y-6175000D01*
X13255000Y-6175000D01*
X13255000Y-6285000D01*
X13255000Y-6285000D01*
G37*
G36*
X12540000Y-6285000D02*
X12440000Y-6285000D01*
X12440000Y-6175000D01*
X12540000Y-6175000D01*
X12540000Y-6285000D01*
X12540000Y-6285000D01*
G37*
G36*
X12380000Y-6285000D02*
X12280000Y-6285000D01*
X12280000Y-6175000D01*
X12380000Y-6175000D01*
X12380000Y-6285000D01*
X12380000Y-6285000D01*
G37*
G36*
X12735000Y-6280000D02*
X12595000Y-6280000D01*
X12595000Y-6180000D01*
X12735000Y-6180000D01*
X12735000Y-6280000D01*
X12735000Y-6280000D01*
G37*
G36*
X13662500Y-6205000D02*
X13557500Y-6205000D01*
X13557500Y-6095000D01*
X13662500Y-6095000D01*
X13662500Y-6205000D01*
X13662500Y-6205000D01*
G37*
G36*
X13502500Y-6205000D02*
X13397500Y-6205000D01*
X13397500Y-6095000D01*
X13502500Y-6095000D01*
X13502500Y-6205000D01*
X13502500Y-6205000D01*
G37*
G36*
X7543593Y-5862611D02*
X7575770Y-5869216D01*
X7606053Y-5881946D01*
X7633285Y-5900314D01*
X7656431Y-5923623D01*
X7673236Y-5948916D01*
X7674609Y-5950983D01*
X7676117Y-5954641D01*
X7687127Y-5981353D01*
X7693504Y-6013558D01*
X7693504Y-6013559D01*
X7693507Y-6013576D01*
X7692983Y-6051095D01*
X7692979Y-6051112D01*
X7692979Y-6051112D01*
X7685706Y-6083127D01*
X7672345Y-6113135D01*
X7653410Y-6139978D01*
X7629623Y-6162630D01*
X7601887Y-6180232D01*
X7571262Y-6192110D01*
X7538913Y-6197814D01*
X7506071Y-6197126D01*
X7473989Y-6190073D01*
X7443888Y-6176922D01*
X7416914Y-6158175D01*
X7394096Y-6134546D01*
X7376302Y-6106934D01*
X7364209Y-6076393D01*
X7358280Y-6044084D01*
X7358738Y-6011239D01*
X7365568Y-5979108D01*
X7378508Y-5948916D01*
X7397066Y-5921812D01*
X7420536Y-5898829D01*
X7448022Y-5880843D01*
X7478479Y-5868537D01*
X7510746Y-5862382D01*
X7543593Y-5862611D01*
X7543593Y-5862611D01*
G37*
G36*
X9312928Y-5920056D02*
X9329257Y-5923408D01*
X9344624Y-5929868D01*
X9358443Y-5939189D01*
X9370189Y-5951017D01*
X9379414Y-5964902D01*
X9385766Y-5980313D01*
X9388769Y-5995479D01*
X9389004Y-5996665D01*
X9388738Y-6015705D01*
X9388734Y-6015722D01*
X9388734Y-6015722D01*
X9385045Y-6031960D01*
X9378265Y-6047188D01*
X9368656Y-6060810D01*
X9356585Y-6072305D01*
X9342510Y-6081237D01*
X9326969Y-6087265D01*
X9310553Y-6090160D01*
X9293887Y-6089810D01*
X9277606Y-6086231D01*
X9262331Y-6079558D01*
X9248643Y-6070044D01*
X9237064Y-6058053D01*
X9228034Y-6044041D01*
X9221897Y-6028543D01*
X9218888Y-6012147D01*
X9219121Y-5995479D01*
X9222587Y-5979174D01*
X9229153Y-5963853D01*
X9238571Y-5950099D01*
X9250481Y-5938435D01*
X9264429Y-5929308D01*
X9279885Y-5923064D01*
X9296259Y-5919940D01*
X9312928Y-5920056D01*
X9312928Y-5920056D01*
G37*
G36*
X13662500Y-6055000D02*
X13557500Y-6055000D01*
X13557500Y-5945000D01*
X13662500Y-5945000D01*
X13662500Y-6055000D01*
X13662500Y-6055000D01*
G37*
G36*
X13502500Y-6055000D02*
X13397500Y-6055000D01*
X13397500Y-5945000D01*
X13502500Y-5945000D01*
X13502500Y-6055000D01*
X13502500Y-6055000D01*
G37*
G36*
X9058928Y-5818056D02*
X9075257Y-5821408D01*
X9090624Y-5827868D01*
X9104443Y-5837189D01*
X9116189Y-5849017D01*
X9125414Y-5862902D01*
X9131766Y-5878313D01*
X9134769Y-5893479D01*
X9135004Y-5894665D01*
X9134738Y-5913705D01*
X9134734Y-5913722D01*
X9134734Y-5913722D01*
X9131045Y-5929960D01*
X9124265Y-5945188D01*
X9114656Y-5958810D01*
X9102585Y-5970305D01*
X9088510Y-5979237D01*
X9072969Y-5985265D01*
X9056553Y-5988160D01*
X9039887Y-5987810D01*
X9023606Y-5984231D01*
X9008331Y-5977558D01*
X8994643Y-5968044D01*
X8983064Y-5956053D01*
X8974034Y-5942041D01*
X8967897Y-5926543D01*
X8964888Y-5910147D01*
X8965121Y-5893479D01*
X8968587Y-5877174D01*
X8975153Y-5861853D01*
X8984571Y-5848099D01*
X8996481Y-5836435D01*
X9010429Y-5827308D01*
X9025885Y-5821064D01*
X9042259Y-5817940D01*
X9058928Y-5818056D01*
X9058928Y-5818056D01*
G37*
G36*
X13166279Y-5645116D02*
X13196052Y-5651228D01*
X13224072Y-5663006D01*
X13249271Y-5680003D01*
X13270687Y-5701570D01*
X13287507Y-5726886D01*
X13299090Y-5754987D01*
X13304990Y-5784785D01*
X13304994Y-5784803D01*
X13304509Y-5819519D01*
X13304505Y-5819536D01*
X13304505Y-5819536D01*
X13297775Y-5849158D01*
X13285413Y-5876925D01*
X13267892Y-5901762D01*
X13245881Y-5922722D01*
X13220218Y-5939009D01*
X13191881Y-5950000D01*
X13161948Y-5955278D01*
X13131560Y-5954641D01*
X13101875Y-5948115D01*
X13074022Y-5935946D01*
X13049064Y-5918600D01*
X13027950Y-5896736D01*
X13011485Y-5871187D01*
X13000296Y-5842927D01*
X12994809Y-5813032D01*
X12995234Y-5782640D01*
X13001553Y-5752910D01*
X13013526Y-5724973D01*
X13030698Y-5699894D01*
X13052415Y-5678628D01*
X13077847Y-5661985D01*
X13106029Y-5650599D01*
X13135885Y-5644904D01*
X13166279Y-5645116D01*
X13166279Y-5645116D01*
G37*
G36*
X13502500Y-5905000D02*
X13397500Y-5905000D01*
X13397500Y-5795000D01*
X13502500Y-5795000D01*
X13502500Y-5905000D01*
X13502500Y-5905000D01*
G37*
G36*
X13662500Y-5905000D02*
X13557500Y-5905000D01*
X13557500Y-5795000D01*
X13662500Y-5795000D01*
X13662500Y-5905000D01*
X13662500Y-5905000D01*
G37*
G36*
X9312928Y-5717056D02*
X9329257Y-5720408D01*
X9344624Y-5726868D01*
X9358443Y-5736189D01*
X9370189Y-5748017D01*
X9379414Y-5761902D01*
X9385766Y-5777313D01*
X9388769Y-5792479D01*
X9389004Y-5793665D01*
X9388738Y-5812705D01*
X9388734Y-5812722D01*
X9388734Y-5812722D01*
X9385045Y-5828960D01*
X9378265Y-5844188D01*
X9368656Y-5857810D01*
X9356585Y-5869305D01*
X9342510Y-5878237D01*
X9326969Y-5884265D01*
X9310553Y-5887160D01*
X9293887Y-5886810D01*
X9277606Y-5883231D01*
X9262331Y-5876558D01*
X9248643Y-5867044D01*
X9237064Y-5855053D01*
X9228034Y-5841041D01*
X9221897Y-5825543D01*
X9218888Y-5809147D01*
X9219121Y-5792479D01*
X9222587Y-5776174D01*
X9229153Y-5760853D01*
X9238571Y-5747099D01*
X9250481Y-5735435D01*
X9264429Y-5726308D01*
X9279885Y-5720064D01*
X9296259Y-5716940D01*
X9312928Y-5717056D01*
X9312928Y-5717056D01*
G37*
G36*
X11227500Y-5885000D02*
X11072500Y-5885000D01*
X11072500Y-5775000D01*
X11227500Y-5775000D01*
X11227500Y-5885000D01*
X11227500Y-5885000D01*
G37*
G36*
X11027500Y-5885000D02*
X10872500Y-5885000D01*
X10872500Y-5775000D01*
X11027500Y-5775000D01*
X11027500Y-5885000D01*
X11027500Y-5885000D01*
G37*
G36*
X10805000Y-5850000D02*
X10695000Y-5850000D01*
X10695000Y-5750000D01*
X10805000Y-5750000D01*
X10805000Y-5850000D01*
X10805000Y-5850000D01*
G37*
G36*
X12873000Y-5838500D02*
X12609000Y-5838500D01*
X12609000Y-5701500D01*
X12873000Y-5701500D01*
X12873000Y-5838500D01*
X12873000Y-5838500D01*
G37*
G36*
X11552000Y-5838500D02*
X11288000Y-5838500D01*
X11288000Y-5701500D01*
X11552000Y-5701500D01*
X11552000Y-5838500D01*
X11552000Y-5838500D01*
G37*
G36*
X9058928Y-5615056D02*
X9075257Y-5618408D01*
X9090624Y-5624868D01*
X9104443Y-5634189D01*
X9116189Y-5646017D01*
X9125414Y-5659902D01*
X9131766Y-5675313D01*
X9134674Y-5690000D01*
X9135004Y-5691665D01*
X9134738Y-5710705D01*
X9134734Y-5710722D01*
X9134734Y-5710722D01*
X9131045Y-5726960D01*
X9124265Y-5742188D01*
X9114656Y-5755810D01*
X9102585Y-5767305D01*
X9088510Y-5776237D01*
X9072969Y-5782265D01*
X9056553Y-5785160D01*
X9039887Y-5784810D01*
X9023606Y-5781231D01*
X9008331Y-5774558D01*
X8994643Y-5765044D01*
X8983064Y-5753053D01*
X8974034Y-5739041D01*
X8967897Y-5723543D01*
X8964888Y-5707147D01*
X8965121Y-5690479D01*
X8968587Y-5674174D01*
X8975153Y-5658853D01*
X8984571Y-5645099D01*
X8996481Y-5633435D01*
X9010429Y-5624308D01*
X9025885Y-5618064D01*
X9042259Y-5614940D01*
X9058928Y-5615056D01*
X9058928Y-5615056D01*
G37*
G36*
X10495524Y-5597611D02*
X10495525Y-5597611D01*
X10495527Y-5597611D01*
X10500188Y-5599054D01*
X10504480Y-5601375D01*
X10508239Y-5604485D01*
X10511323Y-5608266D01*
X10513614Y-5612574D01*
X10515024Y-5617245D01*
X10515500Y-5622101D01*
X10515500Y-5737911D01*
X10515498Y-5738147D01*
X10515498Y-5738248D01*
X10514954Y-5743097D01*
X10513478Y-5747748D01*
X10511128Y-5752023D01*
X10507992Y-5755761D01*
X10504189Y-5758818D01*
X10499865Y-5761079D01*
X10495185Y-5762456D01*
X10495183Y-5762457D01*
X10495182Y-5762457D01*
X10490326Y-5762899D01*
X10485476Y-5762389D01*
X10485475Y-5762389D01*
X10485473Y-5762389D01*
X10480812Y-5760946D01*
X10476520Y-5758625D01*
X10472761Y-5755515D01*
X10469677Y-5751734D01*
X10467386Y-5747426D01*
X10465976Y-5742755D01*
X10465500Y-5737899D01*
X10465500Y-5622089D01*
X10465502Y-5621853D01*
X10465502Y-5621752D01*
X10466046Y-5616903D01*
X10467522Y-5612252D01*
X10469872Y-5607977D01*
X10473008Y-5604239D01*
X10476811Y-5601182D01*
X10481135Y-5598921D01*
X10485816Y-5597544D01*
X10485817Y-5597543D01*
X10485818Y-5597543D01*
X10490674Y-5597101D01*
X10495524Y-5597611D01*
X10495524Y-5597611D01*
G37*
G36*
X10054524Y-5597611D02*
X10054525Y-5597611D01*
X10054527Y-5597611D01*
X10059188Y-5599054D01*
X10063480Y-5601375D01*
X10067239Y-5604485D01*
X10070323Y-5608266D01*
X10072614Y-5612574D01*
X10074024Y-5617245D01*
X10074500Y-5622101D01*
X10074500Y-5737911D01*
X10074498Y-5738147D01*
X10074498Y-5738248D01*
X10073954Y-5743097D01*
X10072478Y-5747748D01*
X10070128Y-5752023D01*
X10066992Y-5755761D01*
X10063189Y-5758818D01*
X10058865Y-5761079D01*
X10054185Y-5762456D01*
X10054183Y-5762457D01*
X10054182Y-5762457D01*
X10049326Y-5762899D01*
X10044476Y-5762389D01*
X10044475Y-5762389D01*
X10044473Y-5762389D01*
X10039812Y-5760946D01*
X10035520Y-5758625D01*
X10031761Y-5755515D01*
X10028677Y-5751734D01*
X10026386Y-5747426D01*
X10024976Y-5742755D01*
X10024500Y-5737899D01*
X10024500Y-5622089D01*
X10024502Y-5621853D01*
X10024502Y-5621752D01*
X10025046Y-5616903D01*
X10026522Y-5612252D01*
X10028872Y-5607977D01*
X10032008Y-5604239D01*
X10035811Y-5601182D01*
X10040135Y-5598921D01*
X10044816Y-5597544D01*
X10044817Y-5597543D01*
X10044818Y-5597543D01*
X10049674Y-5597101D01*
X10054524Y-5597611D01*
X10054524Y-5597611D01*
G37*
G36*
X10117524Y-5597611D02*
X10117525Y-5597611D01*
X10117527Y-5597611D01*
X10122188Y-5599054D01*
X10126480Y-5601375D01*
X10130239Y-5604485D01*
X10133323Y-5608266D01*
X10135614Y-5612574D01*
X10137024Y-5617245D01*
X10137500Y-5622101D01*
X10137500Y-5737911D01*
X10137498Y-5738147D01*
X10137498Y-5738248D01*
X10136954Y-5743097D01*
X10135478Y-5747748D01*
X10133128Y-5752023D01*
X10129992Y-5755761D01*
X10126189Y-5758818D01*
X10121865Y-5761079D01*
X10117185Y-5762456D01*
X10117183Y-5762457D01*
X10117182Y-5762457D01*
X10112326Y-5762899D01*
X10107476Y-5762389D01*
X10107475Y-5762389D01*
X10107473Y-5762389D01*
X10102812Y-5760946D01*
X10098520Y-5758625D01*
X10094761Y-5755515D01*
X10091677Y-5751734D01*
X10089386Y-5747426D01*
X10087976Y-5742755D01*
X10087500Y-5737899D01*
X10087500Y-5622089D01*
X10087502Y-5621853D01*
X10087502Y-5621752D01*
X10088046Y-5616903D01*
X10089522Y-5612252D01*
X10091872Y-5607977D01*
X10095008Y-5604239D01*
X10098811Y-5601182D01*
X10103135Y-5598921D01*
X10107816Y-5597544D01*
X10107817Y-5597543D01*
X10107818Y-5597543D01*
X10112674Y-5597101D01*
X10117524Y-5597611D01*
X10117524Y-5597611D01*
G37*
G36*
X10180524Y-5597611D02*
X10180525Y-5597611D01*
X10180527Y-5597611D01*
X10185188Y-5599054D01*
X10189480Y-5601375D01*
X10193239Y-5604485D01*
X10196323Y-5608266D01*
X10198614Y-5612574D01*
X10200024Y-5617245D01*
X10200500Y-5622101D01*
X10200500Y-5737911D01*
X10200498Y-5738147D01*
X10200498Y-5738248D01*
X10199954Y-5743097D01*
X10198478Y-5747748D01*
X10196128Y-5752023D01*
X10192992Y-5755761D01*
X10189189Y-5758818D01*
X10184865Y-5761079D01*
X10180185Y-5762456D01*
X10180183Y-5762457D01*
X10180182Y-5762457D01*
X10175326Y-5762899D01*
X10170476Y-5762389D01*
X10170475Y-5762389D01*
X10170473Y-5762389D01*
X10165812Y-5760946D01*
X10161520Y-5758625D01*
X10157761Y-5755515D01*
X10154677Y-5751734D01*
X10152386Y-5747426D01*
X10150976Y-5742755D01*
X10150500Y-5737899D01*
X10150500Y-5622089D01*
X10150502Y-5621853D01*
X10150502Y-5621752D01*
X10151046Y-5616903D01*
X10152522Y-5612252D01*
X10154872Y-5607977D01*
X10158008Y-5604239D01*
X10161811Y-5601182D01*
X10166135Y-5598921D01*
X10170816Y-5597544D01*
X10170817Y-5597543D01*
X10170818Y-5597543D01*
X10175674Y-5597101D01*
X10180524Y-5597611D01*
X10180524Y-5597611D01*
G37*
G36*
X10306524Y-5597611D02*
X10306525Y-5597611D01*
X10306527Y-5597611D01*
X10311188Y-5599054D01*
X10315480Y-5601375D01*
X10319239Y-5604485D01*
X10322323Y-5608266D01*
X10324614Y-5612574D01*
X10326024Y-5617245D01*
X10326500Y-5622101D01*
X10326500Y-5737911D01*
X10326498Y-5738147D01*
X10326498Y-5738248D01*
X10325954Y-5743097D01*
X10324478Y-5747748D01*
X10322128Y-5752023D01*
X10318992Y-5755761D01*
X10315189Y-5758818D01*
X10310865Y-5761079D01*
X10306185Y-5762456D01*
X10306183Y-5762457D01*
X10306182Y-5762457D01*
X10301326Y-5762899D01*
X10296476Y-5762389D01*
X10296475Y-5762389D01*
X10296473Y-5762389D01*
X10291812Y-5760946D01*
X10287520Y-5758625D01*
X10283761Y-5755515D01*
X10280677Y-5751734D01*
X10278386Y-5747426D01*
X10276976Y-5742755D01*
X10276500Y-5737899D01*
X10276500Y-5622089D01*
X10276502Y-5621853D01*
X10276502Y-5621752D01*
X10277046Y-5616903D01*
X10278522Y-5612252D01*
X10280872Y-5607977D01*
X10284008Y-5604239D01*
X10287811Y-5601182D01*
X10292135Y-5598921D01*
X10296816Y-5597544D01*
X10296817Y-5597543D01*
X10296818Y-5597543D01*
X10301674Y-5597101D01*
X10306524Y-5597611D01*
X10306524Y-5597611D01*
G37*
G36*
X10369524Y-5597611D02*
X10369525Y-5597611D01*
X10369527Y-5597611D01*
X10374188Y-5599054D01*
X10378480Y-5601375D01*
X10382239Y-5604485D01*
X10385323Y-5608266D01*
X10387614Y-5612574D01*
X10389024Y-5617245D01*
X10389500Y-5622101D01*
X10389500Y-5737911D01*
X10389498Y-5738147D01*
X10389498Y-5738248D01*
X10388954Y-5743097D01*
X10387478Y-5747748D01*
X10385128Y-5752023D01*
X10381992Y-5755761D01*
X10378189Y-5758818D01*
X10373865Y-5761079D01*
X10369185Y-5762456D01*
X10369183Y-5762457D01*
X10369182Y-5762457D01*
X10364326Y-5762899D01*
X10359476Y-5762389D01*
X10359475Y-5762389D01*
X10359473Y-5762389D01*
X10354812Y-5760946D01*
X10350520Y-5758625D01*
X10346761Y-5755515D01*
X10343677Y-5751734D01*
X10341386Y-5747426D01*
X10339976Y-5742755D01*
X10339500Y-5737899D01*
X10339500Y-5622089D01*
X10339502Y-5621853D01*
X10339502Y-5621752D01*
X10340046Y-5616903D01*
X10341522Y-5612252D01*
X10343872Y-5607977D01*
X10347008Y-5604239D01*
X10350811Y-5601182D01*
X10355135Y-5598921D01*
X10359816Y-5597544D01*
X10359817Y-5597543D01*
X10359818Y-5597543D01*
X10364674Y-5597101D01*
X10369524Y-5597611D01*
X10369524Y-5597611D01*
G37*
G36*
X10432524Y-5597611D02*
X10432525Y-5597611D01*
X10432527Y-5597611D01*
X10437188Y-5599054D01*
X10441480Y-5601375D01*
X10445239Y-5604485D01*
X10448323Y-5608266D01*
X10450614Y-5612574D01*
X10452024Y-5617245D01*
X10452500Y-5622101D01*
X10452500Y-5737911D01*
X10452498Y-5738147D01*
X10452498Y-5738248D01*
X10451954Y-5743097D01*
X10450478Y-5747748D01*
X10448128Y-5752023D01*
X10444992Y-5755761D01*
X10441189Y-5758818D01*
X10436865Y-5761079D01*
X10432185Y-5762456D01*
X10432183Y-5762457D01*
X10432182Y-5762457D01*
X10427326Y-5762899D01*
X10422476Y-5762389D01*
X10422475Y-5762389D01*
X10422473Y-5762389D01*
X10417812Y-5760946D01*
X10413520Y-5758625D01*
X10409761Y-5755515D01*
X10406677Y-5751734D01*
X10404386Y-5747426D01*
X10402976Y-5742755D01*
X10402500Y-5737899D01*
X10402500Y-5622089D01*
X10402502Y-5621853D01*
X10402502Y-5621752D01*
X10403046Y-5616903D01*
X10404522Y-5612252D01*
X10406872Y-5607977D01*
X10410008Y-5604239D01*
X10413811Y-5601182D01*
X10418135Y-5598921D01*
X10422816Y-5597544D01*
X10422817Y-5597543D01*
X10422818Y-5597543D01*
X10427674Y-5597101D01*
X10432524Y-5597611D01*
X10432524Y-5597611D01*
G37*
G36*
X10243524Y-5597611D02*
X10243525Y-5597611D01*
X10243527Y-5597611D01*
X10248188Y-5599054D01*
X10252480Y-5601375D01*
X10256239Y-5604485D01*
X10259323Y-5608266D01*
X10261614Y-5612574D01*
X10263024Y-5617245D01*
X10263500Y-5622101D01*
X10263500Y-5737911D01*
X10263498Y-5738147D01*
X10263498Y-5738248D01*
X10262954Y-5743097D01*
X10261478Y-5747748D01*
X10259128Y-5752023D01*
X10255992Y-5755761D01*
X10252189Y-5758818D01*
X10247865Y-5761079D01*
X10243185Y-5762456D01*
X10243183Y-5762457D01*
X10243182Y-5762457D01*
X10238326Y-5762899D01*
X10233476Y-5762389D01*
X10233475Y-5762389D01*
X10233473Y-5762389D01*
X10228812Y-5760946D01*
X10224520Y-5758625D01*
X10220761Y-5755515D01*
X10217677Y-5751734D01*
X10215386Y-5747426D01*
X10213976Y-5742755D01*
X10213500Y-5737899D01*
X10213500Y-5622089D01*
X10213502Y-5621853D01*
X10213502Y-5621752D01*
X10214046Y-5616903D01*
X10215522Y-5612252D01*
X10217872Y-5607977D01*
X10221008Y-5604239D01*
X10224811Y-5601182D01*
X10229135Y-5598921D01*
X10233816Y-5597544D01*
X10233817Y-5597543D01*
X10233818Y-5597543D01*
X10238674Y-5597101D01*
X10243524Y-5597611D01*
X10243524Y-5597611D01*
G37*
G36*
X13502500Y-5755000D02*
X13397500Y-5755000D01*
X13397500Y-5645000D01*
X13502500Y-5645000D01*
X13502500Y-5755000D01*
X13502500Y-5755000D01*
G37*
G36*
X13662500Y-5755000D02*
X13557500Y-5755000D01*
X13557500Y-5645000D01*
X13662500Y-5645000D01*
X13662500Y-5755000D01*
X13662500Y-5755000D01*
G37*
G36*
X11027500Y-5695000D02*
X10872500Y-5695000D01*
X10872500Y-5585000D01*
X11027500Y-5585000D01*
X11027500Y-5695000D01*
X11027500Y-5695000D01*
G37*
G36*
X11227500Y-5695000D02*
X11072500Y-5695000D01*
X11072500Y-5585000D01*
X11227500Y-5585000D01*
X11227500Y-5695000D01*
X11227500Y-5695000D01*
G37*
G36*
X10805000Y-5690000D02*
X10695000Y-5690000D01*
X10695000Y-5590000D01*
X10805000Y-5590000D01*
X10805000Y-5690000D01*
X10805000Y-5690000D01*
G37*
G36*
X9872500Y-5690000D02*
X9777500Y-5690000D01*
X9777500Y-5595000D01*
X9872500Y-5595000D01*
X9872500Y-5690000D01*
X9872500Y-5690000D01*
G37*
G36*
X9312928Y-5514057D02*
X9329257Y-5517408D01*
X9344624Y-5523868D01*
X9358443Y-5533190D01*
X9370189Y-5545017D01*
X9379414Y-5558902D01*
X9385766Y-5574314D01*
X9388575Y-5588500D01*
X9389004Y-5590665D01*
X9388738Y-5609705D01*
X9388734Y-5609722D01*
X9388734Y-5609722D01*
X9385045Y-5625960D01*
X9378265Y-5641188D01*
X9368656Y-5654810D01*
X9356585Y-5666305D01*
X9342510Y-5675237D01*
X9326969Y-5681265D01*
X9310553Y-5684160D01*
X9293887Y-5683810D01*
X9277606Y-5680231D01*
X9262331Y-5673558D01*
X9248643Y-5664044D01*
X9237064Y-5652053D01*
X9228034Y-5638041D01*
X9221897Y-5622543D01*
X9218888Y-5606147D01*
X9219121Y-5589479D01*
X9222587Y-5573174D01*
X9229153Y-5557853D01*
X9238571Y-5544099D01*
X9250481Y-5532436D01*
X9264429Y-5523308D01*
X9279885Y-5517064D01*
X9296259Y-5513940D01*
X9312928Y-5514057D01*
X9312928Y-5514057D01*
G37*
G36*
X12873000Y-5588500D02*
X12609000Y-5588500D01*
X12609000Y-5451500D01*
X12873000Y-5451500D01*
X12873000Y-5588500D01*
X12873000Y-5588500D01*
G37*
G36*
X11552000Y-5588500D02*
X11288000Y-5588500D01*
X11288000Y-5451500D01*
X11552000Y-5451500D01*
X11552000Y-5588500D01*
X11552000Y-5588500D01*
G37*
G36*
X11204340Y-5522600D02*
X11144340Y-5522600D01*
X11144340Y-5442600D01*
X11204340Y-5442600D01*
X11204340Y-5522600D01*
X11204340Y-5522600D01*
G37*
G36*
X11104340Y-5522600D02*
X11044340Y-5522600D01*
X11044340Y-5442600D01*
X11104340Y-5442600D01*
X11104340Y-5522600D01*
X11104340Y-5522600D01*
G37*
G36*
X11004340Y-5522600D02*
X10944340Y-5522600D01*
X10944340Y-5442600D01*
X11004340Y-5442600D01*
X11004340Y-5522600D01*
X11004340Y-5522600D01*
G37*
G36*
X10095000Y-5505000D02*
X9995000Y-5505000D01*
X9995000Y-5395000D01*
X10095000Y-5395000D01*
X10095000Y-5505000D01*
X10095000Y-5505000D01*
G37*
G36*
X13140000Y-5505000D02*
X13040000Y-5505000D01*
X13040000Y-5395000D01*
X13140000Y-5395000D01*
X13140000Y-5505000D01*
X13140000Y-5505000D01*
G37*
G36*
X10255000Y-5505000D02*
X10155000Y-5505000D01*
X10155000Y-5395000D01*
X10255000Y-5395000D01*
X10255000Y-5505000D01*
X10255000Y-5505000D01*
G37*
G36*
X13502500Y-5505000D02*
X13397500Y-5505000D01*
X13397500Y-5395000D01*
X13502500Y-5395000D01*
X13502500Y-5505000D01*
X13502500Y-5505000D01*
G37*
G36*
X13662500Y-5505000D02*
X13557500Y-5505000D01*
X13557500Y-5395000D01*
X13662500Y-5395000D01*
X13662500Y-5505000D01*
X13662500Y-5505000D01*
G37*
G36*
X13300000Y-5505000D02*
X13200000Y-5505000D01*
X13200000Y-5395000D01*
X13300000Y-5395000D01*
X13300000Y-5505000D01*
X13300000Y-5505000D01*
G37*
G36*
X9872500Y-5355000D02*
X9777500Y-5355000D01*
X9777500Y-5260000D01*
X9872500Y-5260000D01*
X9872500Y-5355000D01*
X9872500Y-5355000D01*
G37*
G36*
X12873000Y-5338500D02*
X12609000Y-5338500D01*
X12609000Y-5201500D01*
X12873000Y-5201500D01*
X12873000Y-5338500D01*
X12873000Y-5338500D01*
G37*
G36*
X11552000Y-5338500D02*
X11288000Y-5338500D01*
X11288000Y-5201500D01*
X11552000Y-5201500D01*
X11552000Y-5338500D01*
X11552000Y-5338500D01*
G37*
G36*
X10080000Y-5330000D02*
X9980000Y-5330000D01*
X9980000Y-5190000D01*
X10080000Y-5190000D01*
X10080000Y-5330000D01*
X10080000Y-5330000D01*
G37*
G36*
X10270000Y-5330000D02*
X10170000Y-5330000D01*
X10170000Y-5190000D01*
X10270000Y-5190000D01*
X10270000Y-5330000D01*
X10270000Y-5330000D01*
G37*
G36*
X10500000Y-5317500D02*
X10350000Y-5317500D01*
X10350000Y-5202500D01*
X10500000Y-5202500D01*
X10500000Y-5317500D01*
X10500000Y-5317500D01*
G37*
G36*
X13791279Y-4995116D02*
X13821052Y-5001228D01*
X13849072Y-5013006D01*
X13874271Y-5030003D01*
X13895687Y-5051570D01*
X13912507Y-5076886D01*
X13924090Y-5104987D01*
X13929990Y-5134785D01*
X13929994Y-5134803D01*
X13929509Y-5169519D01*
X13929505Y-5169536D01*
X13929505Y-5169536D01*
X13922775Y-5199158D01*
X13910413Y-5226925D01*
X13892892Y-5251762D01*
X13870881Y-5272722D01*
X13845218Y-5289009D01*
X13816881Y-5300000D01*
X13786948Y-5305278D01*
X13756560Y-5304641D01*
X13726875Y-5298115D01*
X13699022Y-5285946D01*
X13674064Y-5268600D01*
X13652950Y-5246736D01*
X13636485Y-5221187D01*
X13625296Y-5192927D01*
X13619809Y-5163032D01*
X13620234Y-5132640D01*
X13626553Y-5102910D01*
X13638526Y-5074973D01*
X13655698Y-5049894D01*
X13677415Y-5028628D01*
X13702847Y-5011985D01*
X13731029Y-5000599D01*
X13760885Y-4994904D01*
X13791279Y-4995116D01*
X13791279Y-4995116D01*
G37*
G36*
X10640000Y-5295000D02*
X10560000Y-5295000D01*
X10560000Y-5225000D01*
X10640000Y-5225000D01*
X10640000Y-5295000D01*
X10640000Y-5295000D01*
G37*
G36*
X11104340Y-5290000D02*
X11044340Y-5290000D01*
X11044340Y-5210000D01*
X11104340Y-5210000D01*
X11104340Y-5290000D01*
X11104340Y-5290000D01*
G37*
G36*
X11004340Y-5290000D02*
X10944340Y-5290000D01*
X10944340Y-5210000D01*
X11004340Y-5210000D01*
X11004340Y-5290000D01*
X11004340Y-5290000D01*
G37*
G36*
X11204340Y-5290000D02*
X11144340Y-5290000D01*
X11144340Y-5210000D01*
X11204340Y-5210000D01*
X11204340Y-5290000D01*
X11204340Y-5290000D01*
G37*
G36*
X9312928Y-5108057D02*
X9329257Y-5111408D01*
X9344624Y-5117868D01*
X9358443Y-5127190D01*
X9370189Y-5139017D01*
X9379414Y-5152902D01*
X9385766Y-5168314D01*
X9388769Y-5183479D01*
X9389004Y-5184665D01*
X9388738Y-5203705D01*
X9388734Y-5203722D01*
X9388734Y-5203722D01*
X9385045Y-5219960D01*
X9378265Y-5235188D01*
X9368656Y-5248810D01*
X9356585Y-5260305D01*
X9342510Y-5269237D01*
X9326969Y-5275265D01*
X9310553Y-5278160D01*
X9293887Y-5277811D01*
X9277606Y-5274231D01*
X9262331Y-5267558D01*
X9248643Y-5258044D01*
X9237064Y-5246053D01*
X9228034Y-5232041D01*
X9221897Y-5216543D01*
X9218888Y-5200147D01*
X9219121Y-5183479D01*
X9222587Y-5167174D01*
X9229153Y-5151853D01*
X9238571Y-5138099D01*
X9250481Y-5126436D01*
X9264429Y-5117308D01*
X9279885Y-5111064D01*
X9296259Y-5107940D01*
X9312928Y-5108057D01*
X9312928Y-5108057D01*
G37*
G36*
X13570000Y-5260000D02*
X13420000Y-5260000D01*
X13420000Y-5040000D01*
X13570000Y-5040000D01*
X13570000Y-5260000D01*
X13570000Y-5260000D01*
G37*
G36*
X13130000Y-5260000D02*
X12980000Y-5260000D01*
X12980000Y-5040000D01*
X13130000Y-5040000D01*
X13130000Y-5260000D01*
X13130000Y-5260000D01*
G37*
G36*
X9880000Y-5205000D02*
X9770000Y-5205000D01*
X9770000Y-5105000D01*
X9880000Y-5105000D01*
X9880000Y-5205000D01*
X9880000Y-5205000D01*
G37*
G36*
X9058928Y-5006057D02*
X9075257Y-5009408D01*
X9090624Y-5015868D01*
X9104443Y-5025190D01*
X9116189Y-5037017D01*
X9125414Y-5050902D01*
X9131766Y-5066314D01*
X9133859Y-5076886D01*
X9135004Y-5082665D01*
X9134738Y-5101705D01*
X9134734Y-5101722D01*
X9134734Y-5101722D01*
X9131045Y-5117960D01*
X9124265Y-5133188D01*
X9114656Y-5146810D01*
X9102585Y-5158305D01*
X9088510Y-5167237D01*
X9072969Y-5173265D01*
X9056553Y-5176160D01*
X9039887Y-5175811D01*
X9023606Y-5172231D01*
X9008331Y-5165558D01*
X8994643Y-5156044D01*
X8983064Y-5144053D01*
X8974034Y-5130041D01*
X8967897Y-5114543D01*
X8964888Y-5098147D01*
X8965121Y-5081479D01*
X8968587Y-5065174D01*
X8975153Y-5049853D01*
X8984571Y-5036099D01*
X8996481Y-5024436D01*
X9010429Y-5015308D01*
X9025885Y-5009064D01*
X9042259Y-5005940D01*
X9058928Y-5006057D01*
X9058928Y-5006057D01*
G37*
G36*
X10640000Y-5155000D02*
X10560000Y-5155000D01*
X10560000Y-5085000D01*
X10640000Y-5085000D01*
X10640000Y-5155000D01*
X10640000Y-5155000D01*
G37*
G36*
X10500000Y-5137500D02*
X10350000Y-5137500D01*
X10350000Y-5022500D01*
X10500000Y-5022500D01*
X10500000Y-5137500D01*
X10500000Y-5137500D01*
G37*
G36*
X10170000Y-5110000D02*
X10080000Y-5110000D01*
X10080000Y-4970000D01*
X10170000Y-4970000D01*
X10170000Y-5110000D01*
X10170000Y-5110000D01*
G37*
G36*
X12873000Y-5088500D02*
X12609000Y-5088500D01*
X12609000Y-4951500D01*
X12873000Y-4951500D01*
X12873000Y-5088500D01*
X12873000Y-5088500D01*
G37*
G36*
X11552000Y-5088500D02*
X11288000Y-5088500D01*
X11288000Y-4951500D01*
X11552000Y-4951500D01*
X11552000Y-5088500D01*
X11552000Y-5088500D01*
G37*
G36*
X9312928Y-4905057D02*
X9329257Y-4908408D01*
X9344624Y-4914868D01*
X9358443Y-4924190D01*
X9370189Y-4936017D01*
X9379414Y-4949902D01*
X9385766Y-4965314D01*
X9388769Y-4980479D01*
X9389004Y-4981665D01*
X9388738Y-5000705D01*
X9388734Y-5000722D01*
X9388734Y-5000722D01*
X9385045Y-5016960D01*
X9378265Y-5032188D01*
X9368656Y-5045810D01*
X9356585Y-5057305D01*
X9342510Y-5066237D01*
X9326969Y-5072265D01*
X9310553Y-5075160D01*
X9293887Y-5074811D01*
X9277606Y-5071231D01*
X9262331Y-5064558D01*
X9248643Y-5055044D01*
X9237064Y-5043053D01*
X9228034Y-5029041D01*
X9221897Y-5013543D01*
X9218888Y-4997147D01*
X9219121Y-4980479D01*
X9222587Y-4964174D01*
X9229153Y-4948853D01*
X9238571Y-4935099D01*
X9250481Y-4923436D01*
X9264429Y-4914308D01*
X9279885Y-4908064D01*
X9296259Y-4904940D01*
X9312928Y-4905057D01*
X9312928Y-4905057D01*
G37*
G36*
X10650000Y-5055000D02*
X10550000Y-5055000D01*
X10550000Y-4945000D01*
X10650000Y-4945000D01*
X10650000Y-5055000D01*
X10650000Y-5055000D01*
G37*
G36*
X11182500Y-5055000D02*
X11067500Y-5055000D01*
X11067500Y-4905000D01*
X11182500Y-4905000D01*
X11182500Y-5055000D01*
X11182500Y-5055000D01*
G37*
G36*
X10992500Y-5055000D02*
X10877500Y-5055000D01*
X10877500Y-4905000D01*
X10992500Y-4905000D01*
X10992500Y-5055000D01*
X10992500Y-5055000D01*
G37*
G36*
X10810000Y-5055000D02*
X10710000Y-5055000D01*
X10710000Y-4945000D01*
X10810000Y-4945000D01*
X10810000Y-5055000D01*
X10810000Y-5055000D01*
G37*
G36*
X9880000Y-5045000D02*
X9770000Y-5045000D01*
X9770000Y-4945000D01*
X9880000Y-4945000D01*
X9880000Y-5045000D01*
X9880000Y-5045000D01*
G37*
G36*
X9058928Y-4803057D02*
X9075257Y-4806408D01*
X9090624Y-4812868D01*
X9104443Y-4822190D01*
X9116189Y-4834017D01*
X9125414Y-4847902D01*
X9131766Y-4863314D01*
X9134769Y-4878479D01*
X9135004Y-4879665D01*
X9134738Y-4898705D01*
X9134734Y-4898722D01*
X9134734Y-4898722D01*
X9131045Y-4914960D01*
X9124265Y-4930188D01*
X9114656Y-4943810D01*
X9102585Y-4955305D01*
X9088510Y-4964237D01*
X9072969Y-4970265D01*
X9056553Y-4973160D01*
X9039887Y-4972811D01*
X9023606Y-4969231D01*
X9008331Y-4962558D01*
X8994643Y-4953044D01*
X8983064Y-4941053D01*
X8974034Y-4927041D01*
X8967897Y-4911543D01*
X8964888Y-4895147D01*
X8965121Y-4878479D01*
X8968587Y-4862174D01*
X8975153Y-4846853D01*
X8984571Y-4833099D01*
X8996481Y-4821436D01*
X9010429Y-4812308D01*
X9025885Y-4806064D01*
X9042259Y-4802940D01*
X9058928Y-4803057D01*
X9058928Y-4803057D01*
G37*
G36*
X7543593Y-4592611D02*
X7575770Y-4599216D01*
X7606053Y-4611946D01*
X7633285Y-4630315D01*
X7656431Y-4653623D01*
X7674609Y-4680983D01*
X7687127Y-4711353D01*
X7693504Y-4743558D01*
X7693504Y-4743559D01*
X7693507Y-4743576D01*
X7692983Y-4781095D01*
X7692979Y-4781112D01*
X7692979Y-4781112D01*
X7685706Y-4813127D01*
X7672345Y-4843136D01*
X7653410Y-4869978D01*
X7629623Y-4892630D01*
X7601887Y-4910232D01*
X7571262Y-4922111D01*
X7538913Y-4927815D01*
X7506071Y-4927127D01*
X7473989Y-4920073D01*
X7443888Y-4906922D01*
X7416914Y-4888175D01*
X7394096Y-4864546D01*
X7376302Y-4836934D01*
X7364209Y-4806393D01*
X7358280Y-4774084D01*
X7358738Y-4741239D01*
X7365568Y-4709108D01*
X7378508Y-4678916D01*
X7397066Y-4651812D01*
X7420536Y-4628829D01*
X7448022Y-4610843D01*
X7478479Y-4598537D01*
X7510746Y-4592382D01*
X7543593Y-4592611D01*
X7543593Y-4592611D01*
G37*
G36*
X13880000Y-4910000D02*
X13770000Y-4910000D01*
X13770000Y-4810000D01*
X13880000Y-4810000D01*
X13880000Y-4910000D01*
X13880000Y-4910000D01*
G37*
G36*
X11162500Y-4865000D02*
X11057500Y-4865000D01*
X11057500Y-4755000D01*
X11162500Y-4755000D01*
X11162500Y-4865000D01*
X11162500Y-4865000D01*
G37*
G36*
X11002500Y-4865000D02*
X10897500Y-4865000D01*
X10897500Y-4755000D01*
X11002500Y-4755000D01*
X11002500Y-4865000D01*
X11002500Y-4865000D01*
G37*
G36*
X13880000Y-4750000D02*
X13770000Y-4750000D01*
X13770000Y-4650000D01*
X13880000Y-4650000D01*
X13880000Y-4750000D01*
X13880000Y-4750000D01*
G37*
G36*
X7221079Y-4473077D02*
X7243171Y-4477611D01*
X7263961Y-4486351D01*
X7282659Y-4498962D01*
X7298550Y-4514965D01*
X7311030Y-4533749D01*
X7319624Y-4554601D01*
X7324001Y-4576706D01*
X7324001Y-4576707D01*
X7324005Y-4576724D01*
X7323645Y-4602483D01*
X7323641Y-4602500D01*
X7323641Y-4602500D01*
X7318649Y-4624475D01*
X7309476Y-4645078D01*
X7296475Y-4663507D01*
X7280144Y-4679060D01*
X7261102Y-4691144D01*
X7240075Y-4699300D01*
X7217866Y-4703216D01*
X7195317Y-4702744D01*
X7173291Y-4697901D01*
X7152625Y-4688872D01*
X7134105Y-4676000D01*
X7118439Y-4659778D01*
X7106222Y-4640821D01*
X7097920Y-4619852D01*
X7093849Y-4597670D01*
X7094164Y-4575119D01*
X7098853Y-4553059D01*
X7107737Y-4532330D01*
X7120478Y-4513722D01*
X7136592Y-4497942D01*
X7155463Y-4485594D01*
X7176374Y-4477145D01*
X7198527Y-4472919D01*
X7221079Y-4473077D01*
X7221079Y-4473077D01*
G37*
G36*
X13227500Y-4685000D02*
X13102500Y-4685000D01*
X13102500Y-4495000D01*
X13227500Y-4495000D01*
X13227500Y-4685000D01*
X13227500Y-4685000D01*
G37*
G36*
X12927500Y-4685000D02*
X12802500Y-4685000D01*
X12802500Y-4495000D01*
X12927500Y-4495000D01*
X12927500Y-4685000D01*
X12927500Y-4685000D01*
G37*
G36*
X10812500Y-4645000D02*
X10687500Y-4645000D01*
X10687500Y-4455000D01*
X10812500Y-4455000D01*
X10812500Y-4645000D01*
X10812500Y-4645000D01*
G37*
G36*
X10512500Y-4645000D02*
X10387500Y-4645000D01*
X10387500Y-4455000D01*
X10512500Y-4455000D01*
X10512500Y-4645000D01*
X10512500Y-4645000D01*
G37*
G36*
X10277500Y-4610000D02*
X10122500Y-4610000D01*
X10122500Y-4480000D01*
X10277500Y-4480000D01*
X10277500Y-4610000D01*
X10277500Y-4610000D01*
G37*
G36*
X13869808Y-4594878D02*
X13780052Y-4594878D01*
X13780052Y-4505122D01*
X13869808Y-4505122D01*
X13869808Y-4594878D01*
X13869808Y-4594878D01*
G37*
G36*
X13719948Y-4594878D02*
X13630192Y-4594878D01*
X13630192Y-4505122D01*
X13719948Y-4505122D01*
X13719948Y-4594878D01*
X13719948Y-4594878D01*
G37*
G36*
X13227500Y-4460000D02*
X13102500Y-4460000D01*
X13102500Y-4270000D01*
X13227500Y-4270000D01*
X13227500Y-4460000D01*
X13227500Y-4460000D01*
G37*
G36*
X12927500Y-4460000D02*
X12802500Y-4460000D01*
X12802500Y-4270000D01*
X12927500Y-4270000D01*
X12927500Y-4460000D01*
X12927500Y-4460000D01*
G37*
G36*
X10277500Y-4440000D02*
X10122500Y-4440000D01*
X10122500Y-4310000D01*
X10277500Y-4310000D01*
X10277500Y-4440000D01*
X10277500Y-4440000D01*
G37*
G36*
X12665000Y-4410000D02*
X12335000Y-4410000D01*
X12335000Y-4240000D01*
X12665000Y-4240000D01*
X12665000Y-4410000D01*
X12665000Y-4410000D01*
G37*
G36*
X12165000Y-4410000D02*
X11835000Y-4410000D01*
X11835000Y-4240000D01*
X12165000Y-4240000D01*
X12165000Y-4410000D01*
X12165000Y-4410000D01*
G37*
G36*
X9070000Y-4240000D02*
X8980000Y-4240000D01*
X8980000Y-4060000D01*
X9070000Y-4060000D01*
X9070000Y-4240000D01*
X9070000Y-4240000D01*
G37*
G36*
X8220000Y-4240000D02*
X8130000Y-4240000D01*
X8130000Y-4060000D01*
X8220000Y-4060000D01*
X8220000Y-4240000D01*
X8220000Y-4240000D01*
G37*
G36*
X8470000Y-4240000D02*
X8380000Y-4240000D01*
X8380000Y-4060000D01*
X8470000Y-4060000D01*
X8470000Y-4240000D01*
X8470000Y-4240000D01*
G37*
G36*
X8820000Y-4240000D02*
X8730000Y-4240000D01*
X8730000Y-4060000D01*
X8820000Y-4060000D01*
X8820000Y-4240000D01*
X8820000Y-4240000D01*
G37*
G36*
X9907500Y-4235000D02*
X9692500Y-4235000D01*
X9692500Y-4005000D01*
X9907500Y-4005000D01*
X9907500Y-4235000D01*
X9907500Y-4235000D01*
G37*
G36*
X11265000Y-4035000D02*
X10855000Y-4035000D01*
X10855000Y-3865000D01*
X11265000Y-3865000D01*
X11265000Y-4035000D01*
X11265000Y-4035000D01*
G37*
G36*
X10645000Y-4035000D02*
X10235000Y-4035000D01*
X10235000Y-3865000D01*
X10645000Y-3865000D01*
X10645000Y-4035000D01*
X10645000Y-4035000D01*
G37*
G36*
X12521868Y-3491938D02*
X12561864Y-3500148D01*
X12599504Y-3515971D01*
X12633354Y-3538803D01*
X12662124Y-3567775D01*
X12684719Y-3601783D01*
X12700278Y-3639532D01*
X12703259Y-3654585D01*
X12708209Y-3679585D01*
X12707558Y-3726221D01*
X12707554Y-3726237D01*
X12707554Y-3726238D01*
X12698512Y-3766036D01*
X12681905Y-3803336D01*
X12658369Y-3836701D01*
X12628801Y-3864858D01*
X12594327Y-3886736D01*
X12556260Y-3901501D01*
X12516050Y-3908591D01*
X12475229Y-3907736D01*
X12435351Y-3898968D01*
X12397936Y-3882622D01*
X12364408Y-3859319D01*
X12336046Y-3829949D01*
X12313927Y-3795628D01*
X12298897Y-3757665D01*
X12291526Y-3717506D01*
X12292096Y-3676680D01*
X12300585Y-3636742D01*
X12316670Y-3599214D01*
X12339738Y-3565524D01*
X12362969Y-3542775D01*
X12368910Y-3536957D01*
X12368910Y-3536956D01*
X12403075Y-3514600D01*
X12440932Y-3499304D01*
X12481039Y-3491653D01*
X12521868Y-3491938D01*
X12521868Y-3491938D01*
G37*
G36*
X9427500Y-3902500D02*
X9272500Y-3902500D01*
X9272500Y-3777500D01*
X9427500Y-3777500D01*
X9427500Y-3902500D01*
X9427500Y-3902500D01*
G37*
G36*
X11971868Y-3466938D02*
X12011864Y-3475148D01*
X12049504Y-3490971D01*
X12083354Y-3513803D01*
X12112124Y-3542775D01*
X12134719Y-3576783D01*
X12150278Y-3614532D01*
X12157634Y-3651680D01*
X12158209Y-3654585D01*
X12157558Y-3701221D01*
X12157554Y-3701237D01*
X12157554Y-3701238D01*
X12148512Y-3741036D01*
X12131905Y-3778336D01*
X12108369Y-3811701D01*
X12078801Y-3839858D01*
X12044327Y-3861736D01*
X12006260Y-3876501D01*
X11966050Y-3883591D01*
X11925229Y-3882736D01*
X11885351Y-3873968D01*
X11847936Y-3857622D01*
X11814408Y-3834319D01*
X11786046Y-3804949D01*
X11763927Y-3770628D01*
X11748897Y-3732665D01*
X11741526Y-3692506D01*
X11742096Y-3651680D01*
X11750585Y-3611742D01*
X11766670Y-3574214D01*
X11789738Y-3540524D01*
X11804639Y-3525931D01*
X11818910Y-3511957D01*
X11818910Y-3511956D01*
X11853075Y-3489600D01*
X11890932Y-3474304D01*
X11931039Y-3466653D01*
X11971868Y-3466938D01*
X11971868Y-3466938D01*
G37*
G36*
X9907500Y-3795000D02*
X9692500Y-3795000D01*
X9692500Y-3565000D01*
X9907500Y-3565000D01*
X9907500Y-3795000D01*
X9907500Y-3795000D01*
G37*
G36*
X8220000Y-3740000D02*
X8130000Y-3740000D01*
X8130000Y-3560000D01*
X8220000Y-3560000D01*
X8220000Y-3740000D01*
X8220000Y-3740000D01*
G37*
G36*
X8470000Y-3740000D02*
X8380000Y-3740000D01*
X8380000Y-3560000D01*
X8470000Y-3560000D01*
X8470000Y-3740000D01*
X8470000Y-3740000D01*
G37*
G36*
X9070000Y-3740000D02*
X8980000Y-3740000D01*
X8980000Y-3560000D01*
X9070000Y-3560000D01*
X9070000Y-3740000D01*
X9070000Y-3740000D01*
G37*
G36*
X8820000Y-3740000D02*
X8730000Y-3740000D01*
X8730000Y-3560000D01*
X8820000Y-3560000D01*
X8820000Y-3740000D01*
X8820000Y-3740000D01*
G37*
G36*
X9427500Y-3722500D02*
X9272500Y-3722500D01*
X9272500Y-3597500D01*
X9427500Y-3597500D01*
X9427500Y-3722500D01*
X9427500Y-3722500D01*
G37*
M02*
