M48
METRIC,TZ
T1C0.300
T2C0.900
T3C1.000
T4C1.570
T5C3.048
T6C3.500
T7C3.250
%
G90
G05
T1
X99.45Y-54.25
X99.6Y-56.8
X99.6Y-57.6
X100.1Y-63.8
X100.9Y-63.8
X103.Y-60.55
X103.1Y-58.3
X103.6Y-47.8
X103.6Y-48.6
X104.5Y-47.8
X104.5Y-48.6
X105.Y-67.1
X105.5Y-55.1
X105.5Y-55.9
X106.2Y-60.3
X106.2Y-61.1
X106.2Y-61.9
X106.2Y-62.7
X106.4Y-41.8
X106.4Y-42.6
X106.4Y-55.1
X106.4Y-55.9
X107.1Y-60.3
X107.1Y-61.1
X107.1Y-61.9
X107.1Y-62.7
X107.3Y-41.8
X107.3Y-42.6
X107.6Y-51.2
X108.Y-61.9
X108.Y-62.7
X108.2Y-41.8
X108.2Y-42.6
X108.9Y-61.9
X108.9Y-62.7
X109.1Y-41.8
X109.1Y-42.6
X109.9Y-41.8
X109.9Y-42.6
X110.8Y-41.8
X110.8Y-42.6
X113.6Y-54.1
X116.2Y-55.
X116.2Y-55.8
X116.2Y-56.6
X116.2Y-57.3
X116.2Y-58.1
X116.2Y-58.9
X117.1Y-55.
X117.1Y-55.8
X117.1Y-56.6
X117.1Y-57.3
X117.1Y-58.1
X117.1Y-58.9
X117.5Y-40.2
X117.5Y-41.
X118.3Y-40.2
X118.3Y-41.
X119.1Y-40.2
X119.1Y-41.
X119.9Y-40.2
X119.9Y-41.
X120.7Y-40.2
X120.7Y-41.
X121.5Y-40.2
X121.5Y-41.
X123.45Y-73.25
X124.8Y-54.9
X124.8Y-55.7
X124.8Y-56.5
X124.8Y-57.3
X124.8Y-58.1
X124.8Y-58.9
X125.6Y-54.9
X125.6Y-55.7
X125.6Y-56.5
X125.6Y-57.3
X125.6Y-58.1
X125.6Y-58.9
X129.6Y-56.6
X130.4Y-60.4
X131.2Y-60.4
X132.8Y-44.8
X133.2Y-56.5
X133.3Y-59.2
X133.5Y-44.8
T2
X85.4Y-65.7
X87.4Y-65.7
X89.4Y-65.7
X91.4Y-65.7
X93.4Y-65.7
T3
X90.5Y-48.88
X90.5Y-50.91
X90.5Y-57.
X90.5Y-59.03
X93.04Y-49.9
X93.04Y-51.93
X93.04Y-55.99
X93.04Y-58.02
X93.04Y-60.05
T4
X72.09Y-45.88
X72.09Y-62.01
T5
X119.5Y-36.75
X125.Y-37.
T6
X75.Y-39.
X75.Y-69.
X135.Y-39.
X135.Y-69.
T7
X75.26Y-47.6
X75.26Y-60.3
T0
M30
