%FSLAX46Y46*%
G04 Gerber Fmt 4.6, Leading zero omitted, Abs format (unit mm)*
G04 Created by KiCad (PCBNEW (2014-08-12 BZR 5067)-product) date Tue 26 Aug 2014 12:58:06 PM EDT*
%MOMM*%
G01*
G04 APERTURE LIST*
%ADD10C,0.100000*%
%ADD11C,0.187500*%
%ADD12C,1.150000*%
%ADD13C,1.600000*%
%ADD14C,2.200000*%
%ADD15C,1.300000*%
%ADD16C,0.900000*%
%ADD17C,1.143000*%
%ADD18C,1.998980*%
%ADD19C,6.000000*%
%ADD20C,0.889000*%
%ADD21C,0.550000*%
%ADD22C,0.450000*%
%ADD23C,0.150000*%
%ADD24C,0.200000*%
G04 APERTURE END LIST*
D10*
D11*
X122640000Y-78619286D02*
X123104286Y-78619286D01*
X122854286Y-78905000D01*
X122961428Y-78905000D01*
X123032857Y-78940714D01*
X123068571Y-78976429D01*
X123104286Y-79047857D01*
X123104286Y-79226429D01*
X123068571Y-79297857D01*
X123032857Y-79333571D01*
X122961428Y-79369286D01*
X122747143Y-79369286D01*
X122675714Y-79333571D01*
X122640000Y-79297857D01*
D12*
X130750000Y-51150000D03*
X138250000Y-51150000D03*
D13*
X99340000Y-54630000D03*
X99340000Y-52600000D03*
X99340000Y-46510000D03*
X99340000Y-44480000D03*
X101880000Y-55650000D03*
X101880000Y-53620000D03*
X101880000Y-51590000D03*
X101880000Y-47530000D03*
X101880000Y-45500000D03*
D14*
X80930000Y-57610000D03*
X80930000Y-41480000D03*
D15*
X160500000Y-55250000D03*
X162500000Y-55250000D03*
X164500000Y-55250000D03*
X158500000Y-55250000D03*
X156500000Y-55250000D03*
D16*
X157100000Y-77750000D03*
X158100000Y-76750000D03*
X159100000Y-77750000D03*
X160100000Y-76750000D03*
X161100000Y-77750000D03*
X162100000Y-76750000D03*
X163100000Y-77750000D03*
X164100000Y-76750000D03*
X157100000Y-75750000D03*
X160100000Y-74750000D03*
X159100000Y-75750000D03*
X158100000Y-74750000D03*
X162100000Y-74750000D03*
X161100000Y-75750000D03*
X163100000Y-75750000D03*
X164100000Y-74750000D03*
X175200000Y-68000000D03*
X174200000Y-67000000D03*
X175200000Y-66000000D03*
X174200000Y-65000000D03*
X175200000Y-64000000D03*
X174200000Y-63000000D03*
X175200000Y-62000000D03*
X174200000Y-61000000D03*
X173200000Y-68000000D03*
X172200000Y-65000000D03*
X173200000Y-66000000D03*
X172200000Y-67000000D03*
X172200000Y-63000000D03*
X173200000Y-64000000D03*
X173200000Y-62000000D03*
X172200000Y-61000000D03*
D17*
X99050000Y-31800000D03*
X99000000Y-38150000D03*
X145900000Y-40250000D03*
X155050000Y-33400000D03*
X147500000Y-57700000D03*
X110550000Y-68180000D03*
D18*
X172350000Y-49050060D03*
X172350000Y-45549940D03*
D19*
X173750000Y-34750000D03*
X81850000Y-76650000D03*
X173700000Y-76600000D03*
X81900000Y-34750000D03*
D20*
X106697158Y-32900080D03*
D21*
X112058437Y-35440104D03*
X114700000Y-36800000D03*
X130000000Y-45300000D03*
X130000000Y-44650000D03*
X130700000Y-44650000D03*
X130700000Y-45300000D03*
X127400000Y-46150000D03*
X128800000Y-42050000D03*
X129650000Y-42050000D03*
X130400000Y-42050000D03*
X130400000Y-41350000D03*
X129650000Y-41350000D03*
X128800000Y-41350000D03*
X110550000Y-35150000D03*
X110550000Y-35850000D03*
X110000000Y-35150000D03*
X110000000Y-35850000D03*
X111100000Y-35150000D03*
X111100000Y-35850000D03*
X107950000Y-38650000D03*
X114400000Y-33750000D03*
X122400000Y-37850000D03*
X115500000Y-36900000D03*
X106750000Y-35300000D03*
X150810000Y-44200000D03*
X133700000Y-57490000D03*
X133697387Y-56650000D03*
X133700000Y-55680000D03*
X134680000Y-55690000D03*
X134680304Y-56650000D03*
X134680000Y-57470000D03*
X135580000Y-57470000D03*
X135590244Y-56650000D03*
X135590000Y-55690000D03*
X158200000Y-33670000D03*
X158190000Y-34480000D03*
X157290000Y-34470000D03*
X157290000Y-33680000D03*
X157290000Y-32930000D03*
X158170000Y-32920000D03*
D22*
X163460000Y-56070000D03*
X176960000Y-56340000D03*
X176110000Y-56340000D03*
X176110000Y-55530000D03*
X176930000Y-55530000D03*
X176930000Y-54710000D03*
X176080000Y-54710000D03*
X153480000Y-66250000D03*
D21*
X159060000Y-60680000D03*
X165240000Y-62060000D03*
X156500000Y-67180000D03*
X160390000Y-68520000D03*
X167630000Y-67760000D03*
X123840000Y-61930000D03*
X153520000Y-78600000D03*
X112120000Y-61800000D03*
X111100000Y-61800000D03*
X109910000Y-61790000D03*
X108700000Y-61790000D03*
X149070000Y-31950000D03*
X143750000Y-62850000D03*
X143750000Y-63620000D03*
X143800000Y-67160000D03*
X144590000Y-67150000D03*
X144590000Y-67930000D03*
X143800000Y-67930000D03*
X143010000Y-67940000D03*
X143020000Y-67160000D03*
X144520000Y-63640000D03*
X144520000Y-62840000D03*
X142950000Y-62890000D03*
X142950000Y-63630000D03*
X148320000Y-63390000D03*
X148320000Y-64140000D03*
X149220000Y-64130000D03*
X149220000Y-63370000D03*
X141670000Y-54830000D03*
X141670000Y-55790000D03*
X142790000Y-54800000D03*
X142770000Y-55800000D03*
X142780000Y-56640000D03*
X141670000Y-56650000D03*
X142790000Y-53940000D03*
X141670000Y-53950000D03*
X139900000Y-51140000D03*
X139900000Y-52250000D03*
X143100000Y-47220000D03*
X153000000Y-41000000D03*
X152050000Y-41000000D03*
X151150000Y-41000000D03*
X150300000Y-41000000D03*
X151150000Y-40100000D03*
X152050000Y-40100000D03*
X153000000Y-40100000D03*
X150300000Y-40100000D03*
X112750000Y-55800000D03*
X105950000Y-46900000D03*
X93300000Y-54850000D03*
X92600000Y-54850000D03*
X91900000Y-54850000D03*
X91250000Y-54850000D03*
X89150000Y-47150000D03*
X151810000Y-68390000D03*
X146060000Y-71710000D03*
X166280000Y-60080000D03*
X156290000Y-59070000D03*
X156430000Y-68690000D03*
X163930000Y-68900000D03*
X165270000Y-68900000D03*
X96930000Y-58280000D03*
X96930000Y-56350000D03*
X92597845Y-64962000D03*
X88200000Y-63050000D03*
D22*
X146640000Y-60380000D03*
X147250000Y-60370000D03*
X147250000Y-59740000D03*
X146660000Y-59750000D03*
X146660000Y-58680000D03*
X146660000Y-59160000D03*
X147250000Y-59160000D03*
X147860000Y-59160000D03*
X148540000Y-58680500D03*
X148540000Y-59156108D03*
D21*
X106700000Y-38450000D03*
X122450000Y-44850000D03*
X122450000Y-41950000D03*
X88000000Y-55000000D03*
X88750003Y-55000000D03*
D20*
X104750000Y-50900000D03*
D21*
X94500000Y-48050000D03*
D22*
X167700000Y-63770000D03*
X168035161Y-63272337D03*
X156489364Y-64267811D03*
X156090000Y-64750000D03*
X159170000Y-66140000D03*
X160200000Y-66480000D03*
X171020000Y-66900000D03*
X165050000Y-59200010D03*
X168263392Y-62717438D03*
X157748205Y-65771795D03*
X156059567Y-65355976D03*
X156110000Y-63740000D03*
X170474980Y-63340000D03*
X162400000Y-64210010D03*
X163450000Y-59980000D03*
X163160000Y-60690000D03*
X170474971Y-66324999D03*
X170474971Y-64670011D03*
X161718201Y-62041790D03*
X157370000Y-71470000D03*
X160423205Y-61986795D03*
X158490000Y-61690000D03*
X158040000Y-71500000D03*
X158610000Y-72050000D03*
D21*
X124250000Y-33500000D03*
X124250000Y-34100000D03*
X124250000Y-34700000D03*
X120200000Y-36750000D03*
X105850000Y-37800000D03*
X114400000Y-35150000D03*
X120450000Y-45450000D03*
X147573719Y-66562000D03*
D22*
X167550000Y-68580000D03*
X89320000Y-50880000D03*
X161400000Y-65730000D03*
X90590000Y-50429990D03*
X161920000Y-65279990D03*
X91270000Y-47130000D03*
X158946795Y-64703205D03*
X91890000Y-51330010D03*
X159490000Y-65380000D03*
X92570000Y-51820000D03*
X168110000Y-72510000D03*
X165770000Y-69930000D03*
D23*
X171020000Y-66900000D02*
X171020000Y-73560000D01*
X171020000Y-73560000D02*
X166830000Y-77750000D01*
X166830000Y-77750000D02*
X163100000Y-77750000D01*
X166649940Y-76810000D02*
X166589940Y-76750000D01*
X166589940Y-76750000D02*
X164100000Y-76750000D01*
X170024970Y-73434970D02*
X166649940Y-76810000D01*
X165050000Y-59200010D02*
X165274999Y-58975011D01*
X165274999Y-58975011D02*
X165915013Y-58975011D01*
X165915013Y-58975011D02*
X170024970Y-63084968D01*
X170024970Y-63084968D02*
X170024970Y-73434970D01*
X163450000Y-59980000D02*
X164050001Y-60580001D01*
X164050001Y-60580001D02*
X166980001Y-60580001D01*
X169724960Y-63324960D02*
X169724960Y-73310702D01*
X166980001Y-60580001D02*
X169724960Y-63324960D01*
X169724960Y-73310702D02*
X167285662Y-75750000D01*
X167285662Y-75750000D02*
X163100000Y-75750000D01*
X175200000Y-66000000D02*
X174200998Y-66000000D01*
X174200998Y-66000000D02*
X173524999Y-66675999D01*
X173524999Y-66675999D02*
X172876997Y-66675999D01*
X172876997Y-66675999D02*
X172525997Y-66324999D01*
X172525997Y-66324999D02*
X171165001Y-66324999D01*
X171165001Y-66324999D02*
X170474971Y-66324999D01*
X170474971Y-64670011D02*
X170897346Y-64247636D01*
X170897346Y-64247636D02*
X172448634Y-64247636D01*
X172448634Y-64247636D02*
X173200998Y-65000000D01*
X173200998Y-65000000D02*
X173563604Y-65000000D01*
X173563604Y-65000000D02*
X174200000Y-65000000D01*
D24*
G36*
X132350000Y-46700000D02*
X125900000Y-46700000D01*
X125900000Y-43650000D01*
X124825100Y-43650000D01*
X124825100Y-34586127D01*
X124748112Y-34399802D01*
X124824900Y-34214876D01*
X124825100Y-33986127D01*
X124748112Y-33799802D01*
X124824900Y-33614876D01*
X124825100Y-33386127D01*
X124737746Y-33174714D01*
X124576137Y-33012823D01*
X124364876Y-32925100D01*
X124136127Y-32924900D01*
X123924714Y-33012254D01*
X123762823Y-33173863D01*
X123675100Y-33385124D01*
X123674900Y-33613873D01*
X123751887Y-33800197D01*
X123675100Y-33985124D01*
X123674900Y-34213873D01*
X123751887Y-34400197D01*
X123675100Y-34585124D01*
X123674900Y-34813873D01*
X123762254Y-35025286D01*
X123923863Y-35187177D01*
X124135124Y-35274900D01*
X124363873Y-35275100D01*
X124575286Y-35187746D01*
X124737177Y-35026137D01*
X124824900Y-34814876D01*
X124825100Y-34586127D01*
X124825100Y-43650000D01*
X123025100Y-43650000D01*
X123025100Y-41836127D01*
X122975100Y-41715117D01*
X122975100Y-37736127D01*
X122887746Y-37524714D01*
X122726137Y-37362823D01*
X122514876Y-37275100D01*
X122286127Y-37274900D01*
X122074714Y-37362254D01*
X121912823Y-37523863D01*
X121825100Y-37735124D01*
X121824900Y-37963873D01*
X121912254Y-38175286D01*
X122073863Y-38337177D01*
X122285124Y-38424900D01*
X122513873Y-38425100D01*
X122725286Y-38337746D01*
X122887177Y-38176137D01*
X122974900Y-37964876D01*
X122975100Y-37736127D01*
X122975100Y-41715117D01*
X122937746Y-41624714D01*
X122776137Y-41462823D01*
X122564876Y-41375100D01*
X122336127Y-41374900D01*
X122124714Y-41462254D01*
X121962823Y-41623863D01*
X121875100Y-41835124D01*
X121874900Y-42063873D01*
X121962254Y-42275286D01*
X122123863Y-42437177D01*
X122335124Y-42524900D01*
X122563873Y-42525100D01*
X122775286Y-42437746D01*
X122937177Y-42276137D01*
X123024900Y-42064876D01*
X123025100Y-41836127D01*
X123025100Y-43650000D01*
X120775100Y-43650000D01*
X120775100Y-36636127D01*
X120687746Y-36424714D01*
X120526137Y-36262823D01*
X120314876Y-36175100D01*
X120086127Y-36174900D01*
X119874714Y-36262254D01*
X119712823Y-36423863D01*
X119625100Y-36635124D01*
X119624900Y-36863873D01*
X119712254Y-37075286D01*
X119873863Y-37237177D01*
X120085124Y-37324900D01*
X120313873Y-37325100D01*
X120525286Y-37237746D01*
X120687177Y-37076137D01*
X120774900Y-36864876D01*
X120775100Y-36636127D01*
X120775100Y-43650000D01*
X116075100Y-43650000D01*
X116075100Y-36786127D01*
X115987746Y-36574714D01*
X115826137Y-36412823D01*
X115614876Y-36325100D01*
X115386127Y-36324900D01*
X115174714Y-36412254D01*
X115150011Y-36436913D01*
X115026137Y-36312823D01*
X114975100Y-36291630D01*
X114975100Y-35036127D01*
X114887746Y-34824714D01*
X114726137Y-34662823D01*
X114514876Y-34575100D01*
X114286127Y-34574900D01*
X114074714Y-34662254D01*
X113912823Y-34823863D01*
X113825100Y-35035124D01*
X113824900Y-35263873D01*
X113912254Y-35475286D01*
X114073863Y-35637177D01*
X114285124Y-35724900D01*
X114513873Y-35725100D01*
X114725286Y-35637746D01*
X114887177Y-35476137D01*
X114974900Y-35264876D01*
X114975100Y-35036127D01*
X114975100Y-36291630D01*
X114814876Y-36225100D01*
X114586127Y-36224900D01*
X114374714Y-36312254D01*
X114212823Y-36473863D01*
X114125100Y-36685124D01*
X114124900Y-36913873D01*
X114212254Y-37125286D01*
X114373863Y-37287177D01*
X114585124Y-37374900D01*
X114813873Y-37375100D01*
X115025286Y-37287746D01*
X115049988Y-37263086D01*
X115173863Y-37387177D01*
X115385124Y-37474900D01*
X115613873Y-37475100D01*
X115825286Y-37387746D01*
X115987177Y-37226137D01*
X116074900Y-37014876D01*
X116075100Y-36786127D01*
X116075100Y-43650000D01*
X114800000Y-43650000D01*
X114800000Y-39450000D01*
X112633537Y-39450000D01*
X112633537Y-35326231D01*
X112546183Y-35114818D01*
X112384574Y-34952927D01*
X112173313Y-34865204D01*
X111944564Y-34865004D01*
X111733151Y-34952358D01*
X111571260Y-35113967D01*
X111483537Y-35325228D01*
X111483337Y-35553977D01*
X111570691Y-35765390D01*
X111732300Y-35927281D01*
X111943561Y-36015004D01*
X112172310Y-36015204D01*
X112383723Y-35927850D01*
X112545614Y-35766241D01*
X112633337Y-35554980D01*
X112633537Y-35326231D01*
X112633537Y-39450000D01*
X107441787Y-39450000D01*
X107441787Y-32752639D01*
X107328683Y-32478905D01*
X107119434Y-32269291D01*
X106845898Y-32155709D01*
X106549717Y-32155451D01*
X106275983Y-32268555D01*
X106066369Y-32477804D01*
X105952787Y-32751340D01*
X105952529Y-33047521D01*
X106065633Y-33321255D01*
X106274882Y-33530869D01*
X106548418Y-33644451D01*
X106844599Y-33644709D01*
X107118333Y-33531605D01*
X107327947Y-33322356D01*
X107441529Y-33048820D01*
X107441787Y-32752639D01*
X107441787Y-39450000D01*
X107325100Y-39450000D01*
X107325100Y-35186127D01*
X107237746Y-34974714D01*
X107076137Y-34812823D01*
X106864876Y-34725100D01*
X106636127Y-34724900D01*
X106424714Y-34812254D01*
X106262823Y-34973863D01*
X106175100Y-35185124D01*
X106174900Y-35413873D01*
X106262254Y-35625286D01*
X106423863Y-35787177D01*
X106635124Y-35874900D01*
X106863873Y-35875100D01*
X107075286Y-35787746D01*
X107237177Y-35626137D01*
X107324900Y-35414876D01*
X107325100Y-35186127D01*
X107325100Y-39450000D01*
X107275100Y-39450000D01*
X107275100Y-38336127D01*
X107187746Y-38124714D01*
X107026137Y-37962823D01*
X106814876Y-37875100D01*
X106586127Y-37874900D01*
X106411546Y-37947035D01*
X106424900Y-37914876D01*
X106425100Y-37686127D01*
X106337746Y-37474714D01*
X106176137Y-37312823D01*
X105964876Y-37225100D01*
X105736127Y-37224900D01*
X105524714Y-37312254D01*
X105362823Y-37473863D01*
X105275100Y-37685124D01*
X105274900Y-37913873D01*
X105362254Y-38125286D01*
X105523863Y-38287177D01*
X105735124Y-38374900D01*
X105963873Y-38375100D01*
X106138453Y-38302964D01*
X106125100Y-38335124D01*
X106124900Y-38563873D01*
X106212254Y-38775286D01*
X106373863Y-38937177D01*
X106585124Y-39024900D01*
X106813873Y-39025100D01*
X107025286Y-38937746D01*
X107187177Y-38776137D01*
X107274900Y-38564876D01*
X107275100Y-38336127D01*
X107275100Y-39450000D01*
X99871651Y-39450000D01*
X99871651Y-37977408D01*
X99739253Y-37656980D01*
X99494310Y-37411609D01*
X99174113Y-37278651D01*
X98827408Y-37278349D01*
X98506980Y-37410747D01*
X98261609Y-37655690D01*
X98128651Y-37975887D01*
X98128349Y-38322592D01*
X98260747Y-38643020D01*
X98505690Y-38888391D01*
X98825887Y-39021349D01*
X99172592Y-39021651D01*
X99493020Y-38889253D01*
X99738391Y-38644310D01*
X99871349Y-38324113D01*
X99871651Y-37977408D01*
X99871651Y-39450000D01*
X94998974Y-39450000D01*
X95048974Y-44350000D01*
X88574725Y-44350000D01*
X86050492Y-45713086D01*
X86025333Y-45728181D01*
X86025333Y-42818774D01*
X85732887Y-42111000D01*
X85191849Y-41569016D01*
X84484586Y-41275335D01*
X83718774Y-41274667D01*
X83011000Y-41567113D01*
X82469016Y-42108151D01*
X82345838Y-42404796D01*
X82345838Y-41661536D01*
X82307535Y-41105900D01*
X82168592Y-40770465D01*
X81988985Y-40638804D01*
X81771196Y-40856593D01*
X81771196Y-40421015D01*
X81639535Y-40241408D01*
X81111536Y-40064162D01*
X80555900Y-40102465D01*
X80220465Y-40241408D01*
X80088804Y-40421015D01*
X80930000Y-41262211D01*
X81771196Y-40421015D01*
X81771196Y-40856593D01*
X81147789Y-41480000D01*
X81988985Y-42321196D01*
X82168592Y-42189535D01*
X82345838Y-41661536D01*
X82345838Y-42404796D01*
X82175335Y-42815414D01*
X82174667Y-43581226D01*
X82467113Y-44289000D01*
X83008151Y-44830984D01*
X83715414Y-45124665D01*
X84481226Y-45125333D01*
X85189000Y-44832887D01*
X85730984Y-44291849D01*
X86024665Y-43584586D01*
X86025333Y-42818774D01*
X86025333Y-45728181D01*
X85050075Y-46313336D01*
X83100000Y-47391009D01*
X83100000Y-54230338D01*
X83011000Y-54267113D01*
X82469016Y-54808151D01*
X82175335Y-55515414D01*
X82174667Y-56281226D01*
X82467113Y-56989000D01*
X83008151Y-57530984D01*
X83100000Y-57569123D01*
X83100000Y-62350000D01*
X82345838Y-62350000D01*
X82345838Y-57791536D01*
X82307535Y-57235900D01*
X82168592Y-56900465D01*
X81988985Y-56768804D01*
X81771196Y-56986593D01*
X81771196Y-56551015D01*
X81771196Y-42538985D01*
X80930000Y-41697789D01*
X80712211Y-41915578D01*
X80712211Y-41480000D01*
X79871015Y-40638804D01*
X79691408Y-40770465D01*
X79514162Y-41298464D01*
X79552465Y-41854100D01*
X79691408Y-42189535D01*
X79871015Y-42321196D01*
X80712211Y-41480000D01*
X80712211Y-41915578D01*
X80088804Y-42538985D01*
X80220465Y-42718592D01*
X80748464Y-42895838D01*
X81304100Y-42857535D01*
X81639535Y-42718592D01*
X81771196Y-42538985D01*
X81771196Y-56551015D01*
X81639535Y-56371408D01*
X81111536Y-56194162D01*
X80555900Y-56232465D01*
X80220465Y-56371408D01*
X80088804Y-56551015D01*
X80930000Y-57392211D01*
X81771196Y-56551015D01*
X81771196Y-56986593D01*
X81147789Y-57610000D01*
X81988985Y-58451196D01*
X82168592Y-58319535D01*
X82345838Y-57791536D01*
X82345838Y-62350000D01*
X81771196Y-62350000D01*
X81771196Y-58668985D01*
X80930000Y-57827789D01*
X80712211Y-58045578D01*
X80712211Y-57610000D01*
X79871015Y-56768804D01*
X79691408Y-56900465D01*
X79514162Y-57428464D01*
X79552465Y-57984100D01*
X79691408Y-58319535D01*
X79871015Y-58451196D01*
X80712211Y-57610000D01*
X80712211Y-58045578D01*
X80088804Y-58668985D01*
X80220465Y-58848592D01*
X80748464Y-59025838D01*
X81304100Y-58987535D01*
X81639535Y-58848592D01*
X81771196Y-58668985D01*
X81771196Y-62350000D01*
X78600000Y-62350000D01*
X78600000Y-39749546D01*
X89600000Y-39699546D01*
X89600000Y-32100000D01*
X98230992Y-32100000D01*
X98310747Y-32293020D01*
X98555690Y-32538391D01*
X98875887Y-32671349D01*
X99222592Y-32671651D01*
X99543020Y-32539253D01*
X99788391Y-32294310D01*
X99869075Y-32100000D01*
X132350000Y-32100000D01*
X132350000Y-46700000D01*
X132350000Y-46700000D01*
G37*
X132350000Y-46700000D02*
X125900000Y-46700000D01*
X125900000Y-43650000D01*
X124825100Y-43650000D01*
X124825100Y-34586127D01*
X124748112Y-34399802D01*
X124824900Y-34214876D01*
X124825100Y-33986127D01*
X124748112Y-33799802D01*
X124824900Y-33614876D01*
X124825100Y-33386127D01*
X124737746Y-33174714D01*
X124576137Y-33012823D01*
X124364876Y-32925100D01*
X124136127Y-32924900D01*
X123924714Y-33012254D01*
X123762823Y-33173863D01*
X123675100Y-33385124D01*
X123674900Y-33613873D01*
X123751887Y-33800197D01*
X123675100Y-33985124D01*
X123674900Y-34213873D01*
X123751887Y-34400197D01*
X123675100Y-34585124D01*
X123674900Y-34813873D01*
X123762254Y-35025286D01*
X123923863Y-35187177D01*
X124135124Y-35274900D01*
X124363873Y-35275100D01*
X124575286Y-35187746D01*
X124737177Y-35026137D01*
X124824900Y-34814876D01*
X124825100Y-34586127D01*
X124825100Y-43650000D01*
X123025100Y-43650000D01*
X123025100Y-41836127D01*
X122975100Y-41715117D01*
X122975100Y-37736127D01*
X122887746Y-37524714D01*
X122726137Y-37362823D01*
X122514876Y-37275100D01*
X122286127Y-37274900D01*
X122074714Y-37362254D01*
X121912823Y-37523863D01*
X121825100Y-37735124D01*
X121824900Y-37963873D01*
X121912254Y-38175286D01*
X122073863Y-38337177D01*
X122285124Y-38424900D01*
X122513873Y-38425100D01*
X122725286Y-38337746D01*
X122887177Y-38176137D01*
X122974900Y-37964876D01*
X122975100Y-37736127D01*
X122975100Y-41715117D01*
X122937746Y-41624714D01*
X122776137Y-41462823D01*
X122564876Y-41375100D01*
X122336127Y-41374900D01*
X122124714Y-41462254D01*
X121962823Y-41623863D01*
X121875100Y-41835124D01*
X121874900Y-42063873D01*
X121962254Y-42275286D01*
X122123863Y-42437177D01*
X122335124Y-42524900D01*
X122563873Y-42525100D01*
X122775286Y-42437746D01*
X122937177Y-42276137D01*
X123024900Y-42064876D01*
X123025100Y-41836127D01*
X123025100Y-43650000D01*
X120775100Y-43650000D01*
X120775100Y-36636127D01*
X120687746Y-36424714D01*
X120526137Y-36262823D01*
X120314876Y-36175100D01*
X120086127Y-36174900D01*
X119874714Y-36262254D01*
X119712823Y-36423863D01*
X119625100Y-36635124D01*
X119624900Y-36863873D01*
X119712254Y-37075286D01*
X119873863Y-37237177D01*
X120085124Y-37324900D01*
X120313873Y-37325100D01*
X120525286Y-37237746D01*
X120687177Y-37076137D01*
X120774900Y-36864876D01*
X120775100Y-36636127D01*
X120775100Y-43650000D01*
X116075100Y-43650000D01*
X116075100Y-36786127D01*
X115987746Y-36574714D01*
X115826137Y-36412823D01*
X115614876Y-36325100D01*
X115386127Y-36324900D01*
X115174714Y-36412254D01*
X115150011Y-36436913D01*
X115026137Y-36312823D01*
X114975100Y-36291630D01*
X114975100Y-35036127D01*
X114887746Y-34824714D01*
X114726137Y-34662823D01*
X114514876Y-34575100D01*
X114286127Y-34574900D01*
X114074714Y-34662254D01*
X113912823Y-34823863D01*
X113825100Y-35035124D01*
X113824900Y-35263873D01*
X113912254Y-35475286D01*
X114073863Y-35637177D01*
X114285124Y-35724900D01*
X114513873Y-35725100D01*
X114725286Y-35637746D01*
X114887177Y-35476137D01*
X114974900Y-35264876D01*
X114975100Y-35036127D01*
X114975100Y-36291630D01*
X114814876Y-36225100D01*
X114586127Y-36224900D01*
X114374714Y-36312254D01*
X114212823Y-36473863D01*
X114125100Y-36685124D01*
X114124900Y-36913873D01*
X114212254Y-37125286D01*
X114373863Y-37287177D01*
X114585124Y-37374900D01*
X114813873Y-37375100D01*
X115025286Y-37287746D01*
X115049988Y-37263086D01*
X115173863Y-37387177D01*
X115385124Y-37474900D01*
X115613873Y-37475100D01*
X115825286Y-37387746D01*
X115987177Y-37226137D01*
X116074900Y-37014876D01*
X116075100Y-36786127D01*
X116075100Y-43650000D01*
X114800000Y-43650000D01*
X114800000Y-39450000D01*
X112633537Y-39450000D01*
X112633537Y-35326231D01*
X112546183Y-35114818D01*
X112384574Y-34952927D01*
X112173313Y-34865204D01*
X111944564Y-34865004D01*
X111733151Y-34952358D01*
X111571260Y-35113967D01*
X111483537Y-35325228D01*
X111483337Y-35553977D01*
X111570691Y-35765390D01*
X111732300Y-35927281D01*
X111943561Y-36015004D01*
X112172310Y-36015204D01*
X112383723Y-35927850D01*
X112545614Y-35766241D01*
X112633337Y-35554980D01*
X112633537Y-35326231D01*
X112633537Y-39450000D01*
X107441787Y-39450000D01*
X107441787Y-32752639D01*
X107328683Y-32478905D01*
X107119434Y-32269291D01*
X106845898Y-32155709D01*
X106549717Y-32155451D01*
X106275983Y-32268555D01*
X106066369Y-32477804D01*
X105952787Y-32751340D01*
X105952529Y-33047521D01*
X106065633Y-33321255D01*
X106274882Y-33530869D01*
X106548418Y-33644451D01*
X106844599Y-33644709D01*
X107118333Y-33531605D01*
X107327947Y-33322356D01*
X107441529Y-33048820D01*
X107441787Y-32752639D01*
X107441787Y-39450000D01*
X107325100Y-39450000D01*
X107325100Y-35186127D01*
X107237746Y-34974714D01*
X107076137Y-34812823D01*
X106864876Y-34725100D01*
X106636127Y-34724900D01*
X106424714Y-34812254D01*
X106262823Y-34973863D01*
X106175100Y-35185124D01*
X106174900Y-35413873D01*
X106262254Y-35625286D01*
X106423863Y-35787177D01*
X106635124Y-35874900D01*
X106863873Y-35875100D01*
X107075286Y-35787746D01*
X107237177Y-35626137D01*
X107324900Y-35414876D01*
X107325100Y-35186127D01*
X107325100Y-39450000D01*
X107275100Y-39450000D01*
X107275100Y-38336127D01*
X107187746Y-38124714D01*
X107026137Y-37962823D01*
X106814876Y-37875100D01*
X106586127Y-37874900D01*
X106411546Y-37947035D01*
X106424900Y-37914876D01*
X106425100Y-37686127D01*
X106337746Y-37474714D01*
X106176137Y-37312823D01*
X105964876Y-37225100D01*
X105736127Y-37224900D01*
X105524714Y-37312254D01*
X105362823Y-37473863D01*
X105275100Y-37685124D01*
X105274900Y-37913873D01*
X105362254Y-38125286D01*
X105523863Y-38287177D01*
X105735124Y-38374900D01*
X105963873Y-38375100D01*
X106138453Y-38302964D01*
X106125100Y-38335124D01*
X106124900Y-38563873D01*
X106212254Y-38775286D01*
X106373863Y-38937177D01*
X106585124Y-39024900D01*
X106813873Y-39025100D01*
X107025286Y-38937746D01*
X107187177Y-38776137D01*
X107274900Y-38564876D01*
X107275100Y-38336127D01*
X107275100Y-39450000D01*
X99871651Y-39450000D01*
X99871651Y-37977408D01*
X99739253Y-37656980D01*
X99494310Y-37411609D01*
X99174113Y-37278651D01*
X98827408Y-37278349D01*
X98506980Y-37410747D01*
X98261609Y-37655690D01*
X98128651Y-37975887D01*
X98128349Y-38322592D01*
X98260747Y-38643020D01*
X98505690Y-38888391D01*
X98825887Y-39021349D01*
X99172592Y-39021651D01*
X99493020Y-38889253D01*
X99738391Y-38644310D01*
X99871349Y-38324113D01*
X99871651Y-37977408D01*
X99871651Y-39450000D01*
X94998974Y-39450000D01*
X95048974Y-44350000D01*
X88574725Y-44350000D01*
X86050492Y-45713086D01*
X86025333Y-45728181D01*
X86025333Y-42818774D01*
X85732887Y-42111000D01*
X85191849Y-41569016D01*
X84484586Y-41275335D01*
X83718774Y-41274667D01*
X83011000Y-41567113D01*
X82469016Y-42108151D01*
X82345838Y-42404796D01*
X82345838Y-41661536D01*
X82307535Y-41105900D01*
X82168592Y-40770465D01*
X81988985Y-40638804D01*
X81771196Y-40856593D01*
X81771196Y-40421015D01*
X81639535Y-40241408D01*
X81111536Y-40064162D01*
X80555900Y-40102465D01*
X80220465Y-40241408D01*
X80088804Y-40421015D01*
X80930000Y-41262211D01*
X81771196Y-40421015D01*
X81771196Y-40856593D01*
X81147789Y-41480000D01*
X81988985Y-42321196D01*
X82168592Y-42189535D01*
X82345838Y-41661536D01*
X82345838Y-42404796D01*
X82175335Y-42815414D01*
X82174667Y-43581226D01*
X82467113Y-44289000D01*
X83008151Y-44830984D01*
X83715414Y-45124665D01*
X84481226Y-45125333D01*
X85189000Y-44832887D01*
X85730984Y-44291849D01*
X86024665Y-43584586D01*
X86025333Y-42818774D01*
X86025333Y-45728181D01*
X85050075Y-46313336D01*
X83100000Y-47391009D01*
X83100000Y-54230338D01*
X83011000Y-54267113D01*
X82469016Y-54808151D01*
X82175335Y-55515414D01*
X82174667Y-56281226D01*
X82467113Y-56989000D01*
X83008151Y-57530984D01*
X83100000Y-57569123D01*
X83100000Y-62350000D01*
X82345838Y-62350000D01*
X82345838Y-57791536D01*
X82307535Y-57235900D01*
X82168592Y-56900465D01*
X81988985Y-56768804D01*
X81771196Y-56986593D01*
X81771196Y-56551015D01*
X81771196Y-42538985D01*
X80930000Y-41697789D01*
X80712211Y-41915578D01*
X80712211Y-41480000D01*
X79871015Y-40638804D01*
X79691408Y-40770465D01*
X79514162Y-41298464D01*
X79552465Y-41854100D01*
X79691408Y-42189535D01*
X79871015Y-42321196D01*
X80712211Y-41480000D01*
X80712211Y-41915578D01*
X80088804Y-42538985D01*
X80220465Y-42718592D01*
X80748464Y-42895838D01*
X81304100Y-42857535D01*
X81639535Y-42718592D01*
X81771196Y-42538985D01*
X81771196Y-56551015D01*
X81639535Y-56371408D01*
X81111536Y-56194162D01*
X80555900Y-56232465D01*
X80220465Y-56371408D01*
X80088804Y-56551015D01*
X80930000Y-57392211D01*
X81771196Y-56551015D01*
X81771196Y-56986593D01*
X81147789Y-57610000D01*
X81988985Y-58451196D01*
X82168592Y-58319535D01*
X82345838Y-57791536D01*
X82345838Y-62350000D01*
X81771196Y-62350000D01*
X81771196Y-58668985D01*
X80930000Y-57827789D01*
X80712211Y-58045578D01*
X80712211Y-57610000D01*
X79871015Y-56768804D01*
X79691408Y-56900465D01*
X79514162Y-57428464D01*
X79552465Y-57984100D01*
X79691408Y-58319535D01*
X79871015Y-58451196D01*
X80712211Y-57610000D01*
X80712211Y-58045578D01*
X80088804Y-58668985D01*
X80220465Y-58848592D01*
X80748464Y-59025838D01*
X81304100Y-58987535D01*
X81639535Y-58848592D01*
X81771196Y-58668985D01*
X81771196Y-62350000D01*
X78600000Y-62350000D01*
X78600000Y-39749546D01*
X89600000Y-39699546D01*
X89600000Y-32100000D01*
X98230992Y-32100000D01*
X98310747Y-32293020D01*
X98555690Y-32538391D01*
X98875887Y-32671349D01*
X99222592Y-32671651D01*
X99543020Y-32539253D01*
X99788391Y-32294310D01*
X99869075Y-32100000D01*
X132350000Y-32100000D01*
X132350000Y-46700000D01*
G36*
X177149897Y-79900000D02*
X174354915Y-79900000D01*
X175566858Y-79399235D01*
X176495973Y-78471741D01*
X176999426Y-77259290D01*
X177000572Y-75946469D01*
X176499235Y-74733142D01*
X175950130Y-74183077D01*
X175950130Y-67851470D01*
X175836189Y-67575714D01*
X175625395Y-67364552D01*
X175349839Y-67250131D01*
X175051470Y-67249870D01*
X174878687Y-67321262D01*
X174949869Y-67149839D01*
X174950130Y-66851470D01*
X174878737Y-66678687D01*
X175050161Y-66749869D01*
X175348530Y-66750130D01*
X175624286Y-66636189D01*
X175835448Y-66425395D01*
X175949869Y-66149839D01*
X175950130Y-65851470D01*
X175836189Y-65575714D01*
X175625395Y-65364552D01*
X175349839Y-65250131D01*
X175051470Y-65249870D01*
X174878687Y-65321262D01*
X174949869Y-65149839D01*
X174950130Y-64851470D01*
X174878737Y-64678687D01*
X175050161Y-64749869D01*
X175348530Y-64750130D01*
X175624286Y-64636189D01*
X175835448Y-64425395D01*
X175949869Y-64149839D01*
X175950130Y-63851470D01*
X175836189Y-63575714D01*
X175625395Y-63364552D01*
X175349839Y-63250131D01*
X175051470Y-63249870D01*
X174878687Y-63321262D01*
X174949869Y-63149839D01*
X174950130Y-62851470D01*
X174878737Y-62678687D01*
X175050161Y-62749869D01*
X175348530Y-62750130D01*
X175624286Y-62636189D01*
X175835448Y-62425395D01*
X175949869Y-62149839D01*
X175950130Y-61851470D01*
X175836189Y-61575714D01*
X175625395Y-61364552D01*
X175349839Y-61250131D01*
X175051470Y-61249870D01*
X174878687Y-61321262D01*
X174949869Y-61149839D01*
X174950130Y-60851470D01*
X174836189Y-60575714D01*
X174625395Y-60364552D01*
X174349839Y-60250131D01*
X174051470Y-60249870D01*
X173775714Y-60363811D01*
X173649716Y-60489589D01*
X173649716Y-48792709D01*
X173649716Y-45292589D01*
X173452297Y-44814799D01*
X173087063Y-44448928D01*
X172609619Y-44250676D01*
X172092649Y-44250224D01*
X171614859Y-44447643D01*
X171248988Y-44812877D01*
X171050736Y-45290321D01*
X171050284Y-45807291D01*
X171247703Y-46285081D01*
X171612937Y-46650952D01*
X172090381Y-46849204D01*
X172607351Y-46849656D01*
X173085141Y-46652237D01*
X173451012Y-46287003D01*
X173649264Y-45809559D01*
X173649716Y-45292589D01*
X173649716Y-48792709D01*
X173452297Y-48314919D01*
X173087063Y-47949048D01*
X172609619Y-47750796D01*
X172092649Y-47750344D01*
X171614859Y-47947763D01*
X171248988Y-48312997D01*
X171050736Y-48790441D01*
X171050284Y-49307411D01*
X171247703Y-49785201D01*
X171612937Y-50151072D01*
X172090381Y-50349324D01*
X172607351Y-50349776D01*
X173085141Y-50152357D01*
X173451012Y-49787123D01*
X173649264Y-49309679D01*
X173649716Y-48792709D01*
X173649716Y-60489589D01*
X173564552Y-60574605D01*
X173450131Y-60850161D01*
X173449870Y-61148530D01*
X173521262Y-61321312D01*
X173349839Y-61250131D01*
X173051470Y-61249870D01*
X172878687Y-61321262D01*
X172949869Y-61149839D01*
X172950130Y-60851470D01*
X172836189Y-60575714D01*
X172625395Y-60364552D01*
X172349839Y-60250131D01*
X172051470Y-60249870D01*
X171775714Y-60363811D01*
X171564552Y-60574605D01*
X171450131Y-60850161D01*
X171449870Y-61148530D01*
X171563811Y-61424286D01*
X171774605Y-61635448D01*
X172050161Y-61749869D01*
X172348530Y-61750130D01*
X172521312Y-61678737D01*
X172450131Y-61850161D01*
X172449870Y-62148530D01*
X172521262Y-62321312D01*
X172349839Y-62250131D01*
X172051470Y-62249870D01*
X171775714Y-62363811D01*
X171564552Y-62574605D01*
X171450131Y-62850161D01*
X171449870Y-63148530D01*
X171563811Y-63424286D01*
X171774605Y-63635448D01*
X172050161Y-63749869D01*
X172348530Y-63750130D01*
X172521312Y-63678737D01*
X172450131Y-63850161D01*
X172450111Y-63872929D01*
X172448634Y-63872636D01*
X170897346Y-63872636D01*
X170753840Y-63901181D01*
X170632181Y-63982471D01*
X170469645Y-64145006D01*
X170399970Y-64144945D01*
X170399970Y-63864934D01*
X170578951Y-63865091D01*
X170771980Y-63785333D01*
X170919794Y-63637777D01*
X170999888Y-63444887D01*
X171000071Y-63236029D01*
X170920313Y-63043000D01*
X170772757Y-62895186D01*
X170579867Y-62815092D01*
X170371009Y-62814909D01*
X170305069Y-62842154D01*
X170290135Y-62819803D01*
X166180178Y-58709846D01*
X166058520Y-58628556D01*
X165915013Y-58600011D01*
X165450165Y-58600011D01*
X165450165Y-55061862D01*
X165305841Y-54712571D01*
X165038835Y-54445098D01*
X164689796Y-54300165D01*
X164311862Y-54299835D01*
X163962571Y-54444159D01*
X163695098Y-54711165D01*
X163550165Y-55060204D01*
X163549835Y-55438138D01*
X163694159Y-55787429D01*
X163961165Y-56054902D01*
X164310204Y-56199835D01*
X164688138Y-56200165D01*
X165037429Y-56055841D01*
X165304902Y-55788835D01*
X165449835Y-55439796D01*
X165450165Y-55061862D01*
X165450165Y-58600011D01*
X165274999Y-58600011D01*
X165131493Y-58628556D01*
X165061953Y-58675020D01*
X164946029Y-58674919D01*
X164753000Y-58754677D01*
X164605186Y-58902233D01*
X164525092Y-59095123D01*
X164524909Y-59303981D01*
X164604667Y-59497010D01*
X164752223Y-59644824D01*
X164945113Y-59724918D01*
X165153971Y-59725101D01*
X165347000Y-59645343D01*
X165494814Y-59497787D01*
X165556175Y-59350011D01*
X165759683Y-59350011D01*
X165988122Y-59578450D01*
X165954714Y-59592254D01*
X165792823Y-59753863D01*
X165705100Y-59965124D01*
X165704900Y-60193873D01*
X165709497Y-60205001D01*
X164205331Y-60205001D01*
X163975004Y-59974674D01*
X163975091Y-59876029D01*
X163895333Y-59683000D01*
X163747777Y-59535186D01*
X163554887Y-59455092D01*
X163346029Y-59454909D01*
X163153000Y-59534667D01*
X163005186Y-59682223D01*
X162925092Y-59875113D01*
X162924909Y-60083971D01*
X162972596Y-60199382D01*
X162863000Y-60244667D01*
X162715186Y-60392223D01*
X162635092Y-60585113D01*
X162634909Y-60793971D01*
X162714667Y-60987000D01*
X162862223Y-61134814D01*
X163055113Y-61214908D01*
X163263971Y-61215091D01*
X163457000Y-61135333D01*
X163604814Y-60987777D01*
X163684908Y-60794887D01*
X163684951Y-60745281D01*
X163784836Y-60845166D01*
X163906495Y-60926456D01*
X164050001Y-60955001D01*
X166824671Y-60955001D01*
X168090496Y-62220826D01*
X167966392Y-62272105D01*
X167818578Y-62419661D01*
X167738484Y-62612551D01*
X167738301Y-62821409D01*
X167740255Y-62826138D01*
X167738161Y-62827004D01*
X167590347Y-62974560D01*
X167510253Y-63167450D01*
X167510154Y-63280391D01*
X167403000Y-63324667D01*
X167255186Y-63472223D01*
X167175092Y-63665113D01*
X167174909Y-63873971D01*
X167254667Y-64067000D01*
X167402223Y-64214814D01*
X167595113Y-64294908D01*
X167803971Y-64295091D01*
X167997000Y-64215333D01*
X168144814Y-64067777D01*
X168224908Y-63874887D01*
X168225006Y-63761945D01*
X168332161Y-63717670D01*
X168479975Y-63570114D01*
X168560069Y-63377224D01*
X168560252Y-63168366D01*
X168558297Y-63163636D01*
X168560392Y-63162771D01*
X168708206Y-63015215D01*
X168760043Y-62890373D01*
X169349960Y-63480290D01*
X169349960Y-73155372D01*
X168635091Y-73870241D01*
X168635091Y-72406029D01*
X168555333Y-72213000D01*
X168407777Y-72065186D01*
X168214887Y-71985092D01*
X168075091Y-71984969D01*
X168075091Y-68476029D01*
X167995333Y-68283000D01*
X167847777Y-68135186D01*
X167654887Y-68055092D01*
X167446029Y-68054909D01*
X167253000Y-68134667D01*
X167105186Y-68282223D01*
X167025092Y-68475113D01*
X167024909Y-68683971D01*
X167104667Y-68877000D01*
X167252223Y-69024814D01*
X167445113Y-69104908D01*
X167653971Y-69105091D01*
X167847000Y-69025333D01*
X167994814Y-68877777D01*
X168074908Y-68684887D01*
X168075091Y-68476029D01*
X168075091Y-71984969D01*
X168006029Y-71984909D01*
X167813000Y-72064667D01*
X167665186Y-72212223D01*
X167585092Y-72405113D01*
X167584909Y-72613971D01*
X167664667Y-72807000D01*
X167812223Y-72954814D01*
X168005113Y-73034908D01*
X168213971Y-73035091D01*
X168407000Y-72955333D01*
X168554814Y-72807777D01*
X168634908Y-72614887D01*
X168635091Y-72406029D01*
X168635091Y-73870241D01*
X167130332Y-75375000D01*
X166295091Y-75375000D01*
X166295091Y-69826029D01*
X166215333Y-69633000D01*
X166067777Y-69485186D01*
X165874887Y-69405092D01*
X165845100Y-69405065D01*
X165845100Y-68786127D01*
X165757746Y-68574714D01*
X165596137Y-68412823D01*
X165384876Y-68325100D01*
X165156127Y-68324900D01*
X164944714Y-68412254D01*
X164782823Y-68573863D01*
X164695100Y-68785124D01*
X164694900Y-69013873D01*
X164782254Y-69225286D01*
X164943863Y-69387177D01*
X165155124Y-69474900D01*
X165383873Y-69475100D01*
X165595286Y-69387746D01*
X165757177Y-69226137D01*
X165844900Y-69014876D01*
X165845100Y-68786127D01*
X165845100Y-69405065D01*
X165666029Y-69404909D01*
X165473000Y-69484667D01*
X165325186Y-69632223D01*
X165245092Y-69825113D01*
X165244909Y-70033971D01*
X165324667Y-70227000D01*
X165472223Y-70374814D01*
X165665113Y-70454908D01*
X165873971Y-70455091D01*
X166067000Y-70375333D01*
X166214814Y-70227777D01*
X166294908Y-70034887D01*
X166295091Y-69826029D01*
X166295091Y-75375000D01*
X164535494Y-75375000D01*
X164735448Y-75175395D01*
X164849869Y-74899839D01*
X164850130Y-74601470D01*
X164736189Y-74325714D01*
X164525395Y-74114552D01*
X164505100Y-74106124D01*
X164505100Y-68786127D01*
X164417746Y-68574714D01*
X164256137Y-68412823D01*
X164044876Y-68325100D01*
X163816127Y-68324900D01*
X163604714Y-68412254D01*
X163442823Y-68573863D01*
X163355100Y-68785124D01*
X163354900Y-69013873D01*
X163442254Y-69225286D01*
X163603863Y-69387177D01*
X163815124Y-69474900D01*
X164043873Y-69475100D01*
X164255286Y-69387746D01*
X164417177Y-69226137D01*
X164504900Y-69014876D01*
X164505100Y-68786127D01*
X164505100Y-74106124D01*
X164249839Y-74000131D01*
X163951470Y-73999870D01*
X163675714Y-74113811D01*
X163464552Y-74324605D01*
X163350131Y-74600161D01*
X163349870Y-74898530D01*
X163421262Y-75071312D01*
X163249839Y-75000131D01*
X162951470Y-74999870D01*
X162925091Y-75010769D01*
X162925091Y-64106039D01*
X162845333Y-63913010D01*
X162697777Y-63765196D01*
X162504887Y-63685102D01*
X162296029Y-63684919D01*
X162243292Y-63706709D01*
X162243292Y-61937819D01*
X162163534Y-61744790D01*
X162015978Y-61596976D01*
X161823088Y-61516882D01*
X161614230Y-61516699D01*
X161450165Y-61584489D01*
X161450165Y-55061862D01*
X161305841Y-54712571D01*
X161038835Y-54445098D01*
X160689796Y-54300165D01*
X160311862Y-54299835D01*
X159962571Y-54444159D01*
X159695098Y-54711165D01*
X159550165Y-55060204D01*
X159549835Y-55438138D01*
X159694159Y-55787429D01*
X159961165Y-56054902D01*
X160310204Y-56199835D01*
X160688138Y-56200165D01*
X161037429Y-56055841D01*
X161304902Y-55788835D01*
X161449835Y-55439796D01*
X161450165Y-55061862D01*
X161450165Y-61584489D01*
X161421201Y-61596457D01*
X161273387Y-61744013D01*
X161193293Y-61936903D01*
X161193110Y-62145761D01*
X161272868Y-62338790D01*
X161420424Y-62486604D01*
X161613314Y-62566698D01*
X161822172Y-62566881D01*
X162015201Y-62487123D01*
X162163015Y-62339567D01*
X162243109Y-62146677D01*
X162243292Y-61937819D01*
X162243292Y-63706709D01*
X162103000Y-63764677D01*
X161955186Y-63912233D01*
X161875092Y-64105123D01*
X161874909Y-64313981D01*
X161954667Y-64507010D01*
X162102223Y-64654824D01*
X162295113Y-64734918D01*
X162503971Y-64735101D01*
X162697000Y-64655343D01*
X162844814Y-64507787D01*
X162924908Y-64314897D01*
X162925091Y-64106039D01*
X162925091Y-75010769D01*
X162778687Y-75071262D01*
X162849869Y-74899839D01*
X162850130Y-74601470D01*
X162736189Y-74325714D01*
X162525395Y-74114552D01*
X162445091Y-74081206D01*
X162445091Y-65176019D01*
X162365333Y-64982990D01*
X162217777Y-64835176D01*
X162024887Y-64755082D01*
X161816029Y-64754899D01*
X161623000Y-64834657D01*
X161475186Y-64982213D01*
X161395092Y-65175103D01*
X161395065Y-65204995D01*
X161296029Y-65204909D01*
X161103000Y-65284667D01*
X160955186Y-65432223D01*
X160948296Y-65448816D01*
X160948296Y-61882824D01*
X160868538Y-61689795D01*
X160720982Y-61541981D01*
X160528092Y-61461887D01*
X160319234Y-61461704D01*
X160126205Y-61541462D01*
X159978391Y-61689018D01*
X159898297Y-61881908D01*
X159898114Y-62090766D01*
X159977872Y-62283795D01*
X160125428Y-62431609D01*
X160318318Y-62511703D01*
X160527176Y-62511886D01*
X160720205Y-62432128D01*
X160868019Y-62284572D01*
X160948113Y-62091682D01*
X160948296Y-61882824D01*
X160948296Y-65448816D01*
X160875092Y-65625113D01*
X160874909Y-65833971D01*
X160954667Y-66027000D01*
X161102223Y-66174814D01*
X161295113Y-66254908D01*
X161503971Y-66255091D01*
X161697000Y-66175333D01*
X161844814Y-66027777D01*
X161924908Y-65834887D01*
X161924934Y-65804994D01*
X162023971Y-65805081D01*
X162217000Y-65725323D01*
X162364814Y-65577767D01*
X162444908Y-65384877D01*
X162445091Y-65176019D01*
X162445091Y-74081206D01*
X162249839Y-74000131D01*
X161951470Y-73999870D01*
X161675714Y-74113811D01*
X161464552Y-74324605D01*
X161350131Y-74600161D01*
X161349870Y-74898530D01*
X161421262Y-75071312D01*
X161249839Y-75000131D01*
X160951470Y-74999870D01*
X160778687Y-75071262D01*
X160849869Y-74899839D01*
X160850130Y-74601470D01*
X160736189Y-74325714D01*
X160725091Y-74314596D01*
X160725091Y-66376029D01*
X160645333Y-66183000D01*
X160497777Y-66035186D01*
X160304887Y-65955092D01*
X160096029Y-65954909D01*
X160015091Y-65988351D01*
X160015091Y-65276029D01*
X159935333Y-65083000D01*
X159787777Y-64935186D01*
X159594887Y-64855092D01*
X159452239Y-64854967D01*
X159471703Y-64808092D01*
X159471886Y-64599234D01*
X159450165Y-64546665D01*
X159450165Y-55061862D01*
X159305841Y-54712571D01*
X159038835Y-54445098D01*
X158775100Y-54335586D01*
X158775100Y-33556127D01*
X158687746Y-33344714D01*
X158623199Y-33280055D01*
X158657177Y-33246137D01*
X158744900Y-33034876D01*
X158745100Y-32806127D01*
X158657746Y-32594714D01*
X158496137Y-32432823D01*
X158284876Y-32345100D01*
X158056127Y-32344900D01*
X157844714Y-32432254D01*
X157724941Y-32551817D01*
X157616137Y-32442823D01*
X157404876Y-32355100D01*
X157176127Y-32354900D01*
X156964714Y-32442254D01*
X156802823Y-32603863D01*
X156715100Y-32815124D01*
X156714900Y-33043873D01*
X156802254Y-33255286D01*
X156851826Y-33304944D01*
X156802823Y-33353863D01*
X156715100Y-33565124D01*
X156714900Y-33793873D01*
X156802254Y-34005286D01*
X156871826Y-34074979D01*
X156802823Y-34143863D01*
X156715100Y-34355124D01*
X156714900Y-34583873D01*
X156802254Y-34795286D01*
X156963863Y-34957177D01*
X157175124Y-35044900D01*
X157403873Y-35045100D01*
X157615286Y-34957746D01*
X157735075Y-34838164D01*
X157863863Y-34967177D01*
X158075124Y-35054900D01*
X158303873Y-35055100D01*
X158515286Y-34967746D01*
X158677177Y-34806137D01*
X158764900Y-34594876D01*
X158765100Y-34366127D01*
X158677746Y-34154714D01*
X158603164Y-34080002D01*
X158687177Y-33996137D01*
X158774900Y-33784876D01*
X158775100Y-33556127D01*
X158775100Y-54335586D01*
X158689796Y-54300165D01*
X158311862Y-54299835D01*
X157962571Y-54444159D01*
X157695098Y-54711165D01*
X157550165Y-55060204D01*
X157549835Y-55438138D01*
X157694159Y-55787429D01*
X157961165Y-56054902D01*
X158310204Y-56199835D01*
X158688138Y-56200165D01*
X159037429Y-56055841D01*
X159304902Y-55788835D01*
X159449835Y-55439796D01*
X159450165Y-55061862D01*
X159450165Y-64546665D01*
X159392128Y-64406205D01*
X159244572Y-64258391D01*
X159051682Y-64178297D01*
X159015091Y-64178264D01*
X159015091Y-61586029D01*
X158935333Y-61393000D01*
X158787777Y-61245186D01*
X158594887Y-61165092D01*
X158386029Y-61164909D01*
X158193000Y-61244667D01*
X158045186Y-61392223D01*
X157965092Y-61585113D01*
X157964909Y-61793971D01*
X158044667Y-61987000D01*
X158192223Y-62134814D01*
X158385113Y-62214908D01*
X158593971Y-62215091D01*
X158787000Y-62135333D01*
X158934814Y-61987777D01*
X159014908Y-61794887D01*
X159015091Y-61586029D01*
X159015091Y-64178264D01*
X158842824Y-64178114D01*
X158649795Y-64257872D01*
X158501981Y-64405428D01*
X158421887Y-64598318D01*
X158421704Y-64807176D01*
X158501462Y-65000205D01*
X158649018Y-65148019D01*
X158841908Y-65228113D01*
X158984555Y-65228237D01*
X158965092Y-65275113D01*
X158964909Y-65483971D01*
X159025868Y-65631503D01*
X158873000Y-65694667D01*
X158725186Y-65842223D01*
X158645092Y-66035113D01*
X158644909Y-66243971D01*
X158724667Y-66437000D01*
X158872223Y-66584814D01*
X159065113Y-66664908D01*
X159273971Y-66665091D01*
X159467000Y-66585333D01*
X159614814Y-66437777D01*
X159694908Y-66244887D01*
X159695091Y-66036029D01*
X159634131Y-65888496D01*
X159787000Y-65825333D01*
X159934814Y-65677777D01*
X160014908Y-65484887D01*
X160015091Y-65276029D01*
X160015091Y-65988351D01*
X159903000Y-66034667D01*
X159755186Y-66182223D01*
X159675092Y-66375113D01*
X159674909Y-66583971D01*
X159754667Y-66777000D01*
X159902223Y-66924814D01*
X160095113Y-67004908D01*
X160303971Y-67005091D01*
X160497000Y-66925333D01*
X160644814Y-66777777D01*
X160724908Y-66584887D01*
X160725091Y-66376029D01*
X160725091Y-74314596D01*
X160525395Y-74114552D01*
X160249839Y-74000131D01*
X159951470Y-73999870D01*
X159675714Y-74113811D01*
X159464552Y-74324605D01*
X159350131Y-74600161D01*
X159349870Y-74898530D01*
X159421262Y-75071312D01*
X159249839Y-75000131D01*
X159135091Y-75000030D01*
X159135091Y-71946029D01*
X159055333Y-71753000D01*
X158907777Y-71605186D01*
X158714887Y-71525092D01*
X158564978Y-71524960D01*
X158565091Y-71396029D01*
X158485333Y-71203000D01*
X158337777Y-71055186D01*
X158273296Y-71028411D01*
X158273296Y-65667824D01*
X158193538Y-65474795D01*
X158045982Y-65326981D01*
X157853092Y-65246887D01*
X157644234Y-65246704D01*
X157451205Y-65326462D01*
X157450165Y-65327500D01*
X157450165Y-55061862D01*
X157305841Y-54712571D01*
X157038835Y-54445098D01*
X156689796Y-54300165D01*
X156311862Y-54299835D01*
X155962571Y-54444159D01*
X155921651Y-54485007D01*
X155921651Y-33227408D01*
X155789253Y-32906980D01*
X155544310Y-32661609D01*
X155224113Y-32528651D01*
X154877408Y-32528349D01*
X154556980Y-32660747D01*
X154311609Y-32905690D01*
X154178651Y-33225887D01*
X154178349Y-33572592D01*
X154310747Y-33893020D01*
X154555690Y-34138391D01*
X154875887Y-34271349D01*
X155222592Y-34271651D01*
X155543020Y-34139253D01*
X155788391Y-33894310D01*
X155921349Y-33574113D01*
X155921651Y-33227408D01*
X155921651Y-54485007D01*
X155695098Y-54711165D01*
X155550165Y-55060204D01*
X155549835Y-55438138D01*
X155694159Y-55787429D01*
X155961165Y-56054902D01*
X156310204Y-56199835D01*
X156688138Y-56200165D01*
X157037429Y-56055841D01*
X157304902Y-55788835D01*
X157449835Y-55439796D01*
X157450165Y-55061862D01*
X157450165Y-65327500D01*
X157303391Y-65474018D01*
X157223297Y-65666908D01*
X157223114Y-65875766D01*
X157302872Y-66068795D01*
X157450428Y-66216609D01*
X157643318Y-66296703D01*
X157852176Y-66296886D01*
X158045205Y-66217128D01*
X158193019Y-66069572D01*
X158273113Y-65876682D01*
X158273296Y-65667824D01*
X158273296Y-71028411D01*
X158144887Y-70975092D01*
X157936029Y-70974909D01*
X157743000Y-71054667D01*
X157720063Y-71077563D01*
X157667777Y-71025186D01*
X157474887Y-70945092D01*
X157266029Y-70944909D01*
X157073000Y-71024667D01*
X157014455Y-71083109D01*
X157014455Y-64163840D01*
X156934697Y-63970811D01*
X156865100Y-63901092D01*
X156865100Y-58956127D01*
X156777746Y-58744714D01*
X156616137Y-58582823D01*
X156404876Y-58495100D01*
X156176127Y-58494900D01*
X155964714Y-58582254D01*
X155802823Y-58743863D01*
X155715100Y-58955124D01*
X155714900Y-59183873D01*
X155802254Y-59395286D01*
X155963863Y-59557177D01*
X156175124Y-59644900D01*
X156403873Y-59645100D01*
X156615286Y-59557746D01*
X156777177Y-59396137D01*
X156864900Y-59184876D01*
X156865100Y-58956127D01*
X156865100Y-63901092D01*
X156787141Y-63822997D01*
X156634982Y-63759816D01*
X156635091Y-63636029D01*
X156555333Y-63443000D01*
X156407777Y-63295186D01*
X156214887Y-63215092D01*
X156006029Y-63214909D01*
X155813000Y-63294667D01*
X155665186Y-63442223D01*
X155585092Y-63635113D01*
X155584909Y-63843971D01*
X155664667Y-64037000D01*
X155812223Y-64184814D01*
X155947311Y-64240906D01*
X155793000Y-64304667D01*
X155645186Y-64452223D01*
X155565092Y-64645113D01*
X155564909Y-64853971D01*
X155639207Y-65033787D01*
X155614753Y-65058199D01*
X155534659Y-65251089D01*
X155534476Y-65459947D01*
X155614234Y-65652976D01*
X155761790Y-65800790D01*
X155954680Y-65880884D01*
X156163538Y-65881067D01*
X156356567Y-65801309D01*
X156504381Y-65653753D01*
X156584475Y-65460863D01*
X156584658Y-65252005D01*
X156510359Y-65072188D01*
X156534814Y-65047777D01*
X156614908Y-64854887D01*
X156614970Y-64783962D01*
X156786364Y-64713144D01*
X156934178Y-64565588D01*
X157014272Y-64372698D01*
X157014455Y-64163840D01*
X157014455Y-71083109D01*
X157005100Y-71092448D01*
X157005100Y-68576127D01*
X156917746Y-68364714D01*
X156756137Y-68202823D01*
X156544876Y-68115100D01*
X156316127Y-68114900D01*
X156104714Y-68202254D01*
X155942823Y-68363863D01*
X155855100Y-68575124D01*
X155854900Y-68803873D01*
X155942254Y-69015286D01*
X156103863Y-69177177D01*
X156315124Y-69264900D01*
X156543873Y-69265100D01*
X156755286Y-69177746D01*
X156917177Y-69016137D01*
X157004900Y-68804876D01*
X157005100Y-68576127D01*
X157005100Y-71092448D01*
X156925186Y-71172223D01*
X156845092Y-71365113D01*
X156844909Y-71573971D01*
X156924667Y-71767000D01*
X157072223Y-71914814D01*
X157265113Y-71994908D01*
X157473971Y-71995091D01*
X157667000Y-71915333D01*
X157689936Y-71892436D01*
X157742223Y-71944814D01*
X157935113Y-72024908D01*
X158085021Y-72025039D01*
X158084909Y-72153971D01*
X158164667Y-72347000D01*
X158312223Y-72494814D01*
X158505113Y-72574908D01*
X158713971Y-72575091D01*
X158907000Y-72495333D01*
X159054814Y-72347777D01*
X159134908Y-72154887D01*
X159135091Y-71946029D01*
X159135091Y-75000030D01*
X158951470Y-74999870D01*
X158778687Y-75071262D01*
X158849869Y-74899839D01*
X158850130Y-74601470D01*
X158736189Y-74325714D01*
X158525395Y-74114552D01*
X158249839Y-74000131D01*
X157951470Y-73999870D01*
X157675714Y-74113811D01*
X157464552Y-74324605D01*
X157350131Y-74600161D01*
X157349870Y-74898530D01*
X157421262Y-75071312D01*
X157249839Y-75000131D01*
X156951470Y-74999870D01*
X156675714Y-75113811D01*
X156464552Y-75324605D01*
X156350131Y-75600161D01*
X156349870Y-75898530D01*
X156463811Y-76174286D01*
X156674605Y-76385448D01*
X156950161Y-76499869D01*
X157248530Y-76500130D01*
X157421312Y-76428737D01*
X157350131Y-76600161D01*
X157349870Y-76898530D01*
X157421262Y-77071312D01*
X157249839Y-77000131D01*
X156951470Y-76999870D01*
X156675714Y-77113811D01*
X156464552Y-77324605D01*
X156350131Y-77600161D01*
X156349870Y-77898530D01*
X156463811Y-78174286D01*
X156674605Y-78385448D01*
X156950161Y-78499869D01*
X157248530Y-78500130D01*
X157524286Y-78386189D01*
X157735448Y-78175395D01*
X157849869Y-77899839D01*
X157850130Y-77601470D01*
X157778737Y-77428687D01*
X157950161Y-77499869D01*
X158248530Y-77500130D01*
X158421312Y-77428737D01*
X158350131Y-77600161D01*
X158349870Y-77898530D01*
X158463811Y-78174286D01*
X158674605Y-78385448D01*
X158950161Y-78499869D01*
X159248530Y-78500130D01*
X159524286Y-78386189D01*
X159735448Y-78175395D01*
X159849869Y-77899839D01*
X159850130Y-77601470D01*
X159778737Y-77428687D01*
X159950161Y-77499869D01*
X160248530Y-77500130D01*
X160421312Y-77428737D01*
X160350131Y-77600161D01*
X160349870Y-77898530D01*
X160463811Y-78174286D01*
X160674605Y-78385448D01*
X160950161Y-78499869D01*
X161248530Y-78500130D01*
X161524286Y-78386189D01*
X161735448Y-78175395D01*
X161849869Y-77899839D01*
X161850130Y-77601470D01*
X161778737Y-77428687D01*
X161950161Y-77499869D01*
X162248530Y-77500130D01*
X162421312Y-77428737D01*
X162350131Y-77600161D01*
X162349870Y-77898530D01*
X162463811Y-78174286D01*
X162674605Y-78385448D01*
X162950161Y-78499869D01*
X163248530Y-78500130D01*
X163524286Y-78386189D01*
X163735448Y-78175395D01*
X163756373Y-78125000D01*
X166830000Y-78125000D01*
X166973506Y-78096455D01*
X166973507Y-78096455D01*
X167095165Y-78015165D01*
X171285165Y-73825165D01*
X171366455Y-73703506D01*
X171395000Y-73560000D01*
X171395000Y-67267469D01*
X171464814Y-67197777D01*
X171467522Y-67191253D01*
X171563811Y-67424286D01*
X171774605Y-67635448D01*
X172050161Y-67749869D01*
X172348530Y-67750130D01*
X172521312Y-67678737D01*
X172450131Y-67850161D01*
X172449870Y-68148530D01*
X172563811Y-68424286D01*
X172774605Y-68635448D01*
X173050161Y-68749869D01*
X173348530Y-68750130D01*
X173624286Y-68636189D01*
X173835448Y-68425395D01*
X173949869Y-68149839D01*
X173950130Y-67851470D01*
X173878737Y-67678687D01*
X174050161Y-67749869D01*
X174348530Y-67750130D01*
X174521312Y-67678737D01*
X174450131Y-67850161D01*
X174449870Y-68148530D01*
X174563811Y-68424286D01*
X174774605Y-68635448D01*
X175050161Y-68749869D01*
X175348530Y-68750130D01*
X175624286Y-68636189D01*
X175835448Y-68425395D01*
X175949869Y-68149839D01*
X175950130Y-67851470D01*
X175950130Y-74183077D01*
X175571741Y-73804027D01*
X174359290Y-73300574D01*
X173046469Y-73299428D01*
X171833142Y-73800765D01*
X170904027Y-74728259D01*
X170400574Y-75940710D01*
X170399428Y-77253531D01*
X170900765Y-78466858D01*
X171828259Y-79395973D01*
X173040710Y-79899426D01*
X173698266Y-79900000D01*
X152385100Y-79900000D01*
X152385100Y-68276127D01*
X152297746Y-68064714D01*
X152136137Y-67902823D01*
X151924876Y-67815100D01*
X151696127Y-67814900D01*
X151484714Y-67902254D01*
X151385100Y-68001694D01*
X151385100Y-44086127D01*
X151297746Y-43874714D01*
X151136137Y-43712823D01*
X150924876Y-43625100D01*
X150696127Y-43624900D01*
X150484714Y-43712254D01*
X150322823Y-43873863D01*
X150235100Y-44085124D01*
X150234900Y-44313873D01*
X150322254Y-44525286D01*
X150483863Y-44687177D01*
X150695124Y-44774900D01*
X150923873Y-44775100D01*
X151135286Y-44687746D01*
X151297177Y-44526137D01*
X151384900Y-44314876D01*
X151385100Y-44086127D01*
X151385100Y-68001694D01*
X151322823Y-68063863D01*
X151235100Y-68275124D01*
X151234900Y-68503873D01*
X151322254Y-68715286D01*
X151483863Y-68877177D01*
X151695124Y-68964900D01*
X151923873Y-68965100D01*
X152135286Y-68877746D01*
X152297177Y-68716137D01*
X152384900Y-68504876D01*
X152385100Y-68276127D01*
X152385100Y-79900000D01*
X149065091Y-79900000D01*
X149065091Y-59052137D01*
X149009754Y-58918212D01*
X149064908Y-58785387D01*
X149065091Y-58576529D01*
X148985333Y-58383500D01*
X148837777Y-58235686D01*
X148644887Y-58155592D01*
X148436029Y-58155409D01*
X148243000Y-58235167D01*
X148095186Y-58382723D01*
X148015092Y-58575613D01*
X148015021Y-58655909D01*
X147964887Y-58635092D01*
X147756029Y-58634909D01*
X147563000Y-58714667D01*
X147555115Y-58722537D01*
X147547777Y-58715186D01*
X147354887Y-58635092D01*
X147185039Y-58634943D01*
X147185091Y-58576029D01*
X147153596Y-58499807D01*
X147325887Y-58571349D01*
X147672592Y-58571651D01*
X147993020Y-58439253D01*
X148238391Y-58194310D01*
X148371349Y-57874113D01*
X148371651Y-57527408D01*
X148239253Y-57206980D01*
X147994310Y-56961609D01*
X147674113Y-56828651D01*
X147327408Y-56828349D01*
X147006980Y-56960747D01*
X146761609Y-57205690D01*
X146628651Y-57525887D01*
X146628349Y-57872592D01*
X146745068Y-58155074D01*
X146556029Y-58154909D01*
X146363000Y-58234667D01*
X146215186Y-58382223D01*
X146135092Y-58575113D01*
X146134909Y-58783971D01*
X146191155Y-58920096D01*
X146135092Y-59055113D01*
X146134909Y-59263971D01*
X146213936Y-59455232D01*
X146135092Y-59645113D01*
X146134909Y-59853971D01*
X146214667Y-60047000D01*
X146222554Y-60054901D01*
X146195186Y-60082223D01*
X146115092Y-60275113D01*
X146114909Y-60483971D01*
X146194667Y-60677000D01*
X146342223Y-60824814D01*
X146535113Y-60904908D01*
X146743971Y-60905091D01*
X146937000Y-60825333D01*
X146949884Y-60812471D01*
X146952223Y-60814814D01*
X147145113Y-60894908D01*
X147353971Y-60895091D01*
X147547000Y-60815333D01*
X147694814Y-60667777D01*
X147774908Y-60474887D01*
X147775091Y-60266029D01*
X147695333Y-60073000D01*
X147677462Y-60055098D01*
X147694814Y-60037777D01*
X147774908Y-59844887D01*
X147775048Y-59684925D01*
X147963971Y-59685091D01*
X148157000Y-59605333D01*
X148201891Y-59560519D01*
X148242223Y-59600922D01*
X148435113Y-59681016D01*
X148643971Y-59681199D01*
X148837000Y-59601441D01*
X148984814Y-59453885D01*
X149064908Y-59260995D01*
X149065091Y-59052137D01*
X149065091Y-79900000D01*
X148148819Y-79900000D01*
X148148819Y-66448127D01*
X148061465Y-66236714D01*
X147899856Y-66074823D01*
X147688595Y-65987100D01*
X147459846Y-65986900D01*
X147248433Y-66074254D01*
X147086542Y-66235863D01*
X146998819Y-66447124D01*
X146998619Y-66675873D01*
X147085973Y-66887286D01*
X147247582Y-67049177D01*
X147458843Y-67136900D01*
X147687592Y-67137100D01*
X147899005Y-67049746D01*
X148060896Y-66888137D01*
X148148619Y-66676876D01*
X148148819Y-66448127D01*
X148148819Y-79900000D01*
X146635100Y-79900000D01*
X146635100Y-71596127D01*
X146547746Y-71384714D01*
X146386137Y-71222823D01*
X146174876Y-71135100D01*
X145946127Y-71134900D01*
X145734714Y-71222254D01*
X145572823Y-71383863D01*
X145485100Y-71595124D01*
X145484900Y-71823873D01*
X145572254Y-72035286D01*
X145733863Y-72197177D01*
X145945124Y-72284900D01*
X146173873Y-72285100D01*
X146385286Y-72197746D01*
X146547177Y-72036137D01*
X146634900Y-71824876D01*
X146635100Y-71596127D01*
X146635100Y-79900000D01*
X136165344Y-79900000D01*
X136165344Y-56536127D01*
X136077990Y-56324714D01*
X135923295Y-56169750D01*
X136077177Y-56016137D01*
X136164900Y-55804876D01*
X136165100Y-55576127D01*
X136077746Y-55364714D01*
X135916137Y-55202823D01*
X135704876Y-55115100D01*
X135476127Y-55114900D01*
X135264714Y-55202254D01*
X135134915Y-55331826D01*
X135006137Y-55202823D01*
X134794876Y-55115100D01*
X134566127Y-55114900D01*
X134354714Y-55202254D01*
X134192823Y-55363863D01*
X134192173Y-55365428D01*
X134187746Y-55354714D01*
X134026137Y-55192823D01*
X133814876Y-55105100D01*
X133586127Y-55104900D01*
X133374714Y-55192254D01*
X133212823Y-55353863D01*
X133125100Y-55565124D01*
X133124900Y-55793873D01*
X133212254Y-56005286D01*
X133370522Y-56163830D01*
X133210210Y-56323863D01*
X133122487Y-56535124D01*
X133122287Y-56763873D01*
X133209641Y-56975286D01*
X133305517Y-57071329D01*
X133212823Y-57163863D01*
X133125100Y-57375124D01*
X133124900Y-57603873D01*
X133212254Y-57815286D01*
X133373863Y-57977177D01*
X133585124Y-58064900D01*
X133813873Y-58065100D01*
X134025286Y-57977746D01*
X134187177Y-57816137D01*
X134194783Y-57797819D01*
X134353863Y-57957177D01*
X134565124Y-58044900D01*
X134793873Y-58045100D01*
X135005286Y-57957746D01*
X135130075Y-57833173D01*
X135253863Y-57957177D01*
X135465124Y-58044900D01*
X135693873Y-58045100D01*
X135905286Y-57957746D01*
X136067177Y-57796137D01*
X136154900Y-57584876D01*
X136155100Y-57356127D01*
X136067746Y-57144714D01*
X135988286Y-57065116D01*
X136077421Y-56976137D01*
X136165144Y-56764876D01*
X136165344Y-56536127D01*
X136165344Y-79900000D01*
X125700000Y-79900000D01*
X125700000Y-77900000D01*
X111421651Y-77900000D01*
X111421651Y-68007408D01*
X111289253Y-67686980D01*
X111044310Y-67441609D01*
X110724113Y-67308651D01*
X110377408Y-67308349D01*
X110056980Y-67440747D01*
X109811609Y-67685690D01*
X109678651Y-68005887D01*
X109678349Y-68352592D01*
X109810747Y-68673020D01*
X110055690Y-68918391D01*
X110375887Y-69051349D01*
X110722592Y-69051651D01*
X111043020Y-68919253D01*
X111288391Y-68674310D01*
X111421349Y-68354113D01*
X111421651Y-68007408D01*
X111421651Y-77900000D01*
X109099782Y-77900000D01*
X109104147Y-79900000D01*
X105494629Y-79900000D01*
X105494629Y-50752559D01*
X105381525Y-50478825D01*
X105172276Y-50269211D01*
X104898740Y-50155629D01*
X104602559Y-50155371D01*
X104328825Y-50268475D01*
X104119211Y-50477724D01*
X104005629Y-50751260D01*
X104005371Y-51047441D01*
X104118475Y-51321175D01*
X104327724Y-51530789D01*
X104601260Y-51644371D01*
X104897441Y-51644629D01*
X105171175Y-51531525D01*
X105380789Y-51322276D01*
X105494371Y-51048740D01*
X105494629Y-50752559D01*
X105494629Y-79900000D01*
X102980190Y-79900000D01*
X102980190Y-55432156D01*
X102813078Y-55027714D01*
X102503913Y-54718009D01*
X102304011Y-54635003D01*
X102502286Y-54553078D01*
X102811991Y-54243913D01*
X102979808Y-53839763D01*
X102980190Y-53402156D01*
X102813078Y-52997714D01*
X102503913Y-52688009D01*
X102304011Y-52605003D01*
X102502286Y-52523078D01*
X102811991Y-52213913D01*
X102979808Y-51809763D01*
X102980190Y-51372156D01*
X102813078Y-50967714D01*
X102503913Y-50658009D01*
X102099763Y-50490192D01*
X101662156Y-50489810D01*
X101257714Y-50656922D01*
X100948009Y-50966087D01*
X100780192Y-51370237D01*
X100779810Y-51807844D01*
X100946922Y-52212286D01*
X101256087Y-52521991D01*
X101455988Y-52604996D01*
X101257714Y-52686922D01*
X100948009Y-52996087D01*
X100780192Y-53400237D01*
X100779810Y-53837844D01*
X100946922Y-54242286D01*
X101256087Y-54551991D01*
X101455988Y-54634996D01*
X101257714Y-54716922D01*
X100948009Y-55026087D01*
X100780192Y-55430237D01*
X100779810Y-55867844D01*
X100946922Y-56272286D01*
X101256087Y-56581991D01*
X101660237Y-56749808D01*
X102097844Y-56750190D01*
X102502286Y-56583078D01*
X102811991Y-56273913D01*
X102979808Y-55869763D01*
X102980190Y-55432156D01*
X102980190Y-79900000D01*
X100440190Y-79900000D01*
X100440190Y-54412156D01*
X100273078Y-54007714D01*
X99963913Y-53698009D01*
X99764011Y-53615003D01*
X99962286Y-53533078D01*
X100271991Y-53223913D01*
X100439808Y-52819763D01*
X100440190Y-52382156D01*
X100273078Y-51977714D01*
X99963913Y-51668009D01*
X99559763Y-51500192D01*
X99122156Y-51499810D01*
X98717714Y-51666922D01*
X98408009Y-51976087D01*
X98240192Y-52380237D01*
X98239810Y-52817844D01*
X98406922Y-53222286D01*
X98716087Y-53531991D01*
X98915988Y-53614996D01*
X98717714Y-53696922D01*
X98408009Y-54006087D01*
X98240192Y-54410237D01*
X98239810Y-54847844D01*
X98406922Y-55252286D01*
X98716087Y-55561991D01*
X99120237Y-55729808D01*
X99557844Y-55730190D01*
X99962286Y-55563078D01*
X100271991Y-55253913D01*
X100439808Y-54849763D01*
X100440190Y-54412156D01*
X100440190Y-79900000D01*
X97505100Y-79900000D01*
X97505100Y-58166127D01*
X97505100Y-56236127D01*
X97417746Y-56024714D01*
X97256137Y-55862823D01*
X97044876Y-55775100D01*
X96816127Y-55774900D01*
X96604714Y-55862254D01*
X96442823Y-56023863D01*
X96355100Y-56235124D01*
X96354900Y-56463873D01*
X96442254Y-56675286D01*
X96603863Y-56837177D01*
X96815124Y-56924900D01*
X97043873Y-56925100D01*
X97255286Y-56837746D01*
X97417177Y-56676137D01*
X97504900Y-56464876D01*
X97505100Y-56236127D01*
X97505100Y-58166127D01*
X97417746Y-57954714D01*
X97256137Y-57792823D01*
X97044876Y-57705100D01*
X96816127Y-57704900D01*
X96604714Y-57792254D01*
X96442823Y-57953863D01*
X96355100Y-58165124D01*
X96354900Y-58393873D01*
X96442254Y-58605286D01*
X96603863Y-58767177D01*
X96815124Y-58854900D01*
X97043873Y-58855100D01*
X97255286Y-58767746D01*
X97417177Y-58606137D01*
X97504900Y-58394876D01*
X97505100Y-58166127D01*
X97505100Y-79900000D01*
X95075100Y-79900000D01*
X95075100Y-47936127D01*
X94987746Y-47724714D01*
X94826137Y-47562823D01*
X94614876Y-47475100D01*
X94386127Y-47474900D01*
X94174714Y-47562254D01*
X94012823Y-47723863D01*
X93925100Y-47935124D01*
X93924900Y-48163873D01*
X94012254Y-48375286D01*
X94173863Y-48537177D01*
X94385124Y-48624900D01*
X94613873Y-48625100D01*
X94825286Y-48537746D01*
X94987177Y-48376137D01*
X95074900Y-48164876D01*
X95075100Y-47936127D01*
X95075100Y-79900000D01*
X93172945Y-79900000D01*
X93172945Y-64848127D01*
X93095091Y-64659705D01*
X93095091Y-51716029D01*
X93015333Y-51523000D01*
X92867777Y-51375186D01*
X92674887Y-51295092D01*
X92466029Y-51294909D01*
X92415012Y-51315988D01*
X92415091Y-51226039D01*
X92335333Y-51033010D01*
X92187777Y-50885196D01*
X91994887Y-50805102D01*
X91795091Y-50804926D01*
X91795091Y-47026029D01*
X91715333Y-46833000D01*
X91567777Y-46685186D01*
X91374887Y-46605092D01*
X91166029Y-46604909D01*
X90973000Y-46684667D01*
X90825186Y-46832223D01*
X90745092Y-47025113D01*
X90744909Y-47233971D01*
X90824667Y-47427000D01*
X90972223Y-47574814D01*
X91165113Y-47654908D01*
X91373971Y-47655091D01*
X91567000Y-47575333D01*
X91714814Y-47427777D01*
X91794908Y-47234887D01*
X91795091Y-47026029D01*
X91795091Y-50804926D01*
X91786029Y-50804919D01*
X91593000Y-50884677D01*
X91445186Y-51032233D01*
X91365092Y-51225123D01*
X91364909Y-51433981D01*
X91444667Y-51627010D01*
X91592223Y-51774824D01*
X91785113Y-51854918D01*
X91993971Y-51855101D01*
X92044987Y-51834021D01*
X92044909Y-51923971D01*
X92124667Y-52117000D01*
X92272223Y-52264814D01*
X92465113Y-52344908D01*
X92673971Y-52345091D01*
X92867000Y-52265333D01*
X93014814Y-52117777D01*
X93094908Y-51924887D01*
X93095091Y-51716029D01*
X93095091Y-64659705D01*
X93085591Y-64636714D01*
X92923982Y-64474823D01*
X92712721Y-64387100D01*
X92483972Y-64386900D01*
X92272559Y-64474254D01*
X92110668Y-64635863D01*
X92022945Y-64847124D01*
X92022745Y-65075873D01*
X92110099Y-65287286D01*
X92271708Y-65449177D01*
X92482969Y-65536900D01*
X92711718Y-65537100D01*
X92923131Y-65449746D01*
X93085022Y-65288137D01*
X93172745Y-65076876D01*
X93172945Y-64848127D01*
X93172945Y-79900000D01*
X91115091Y-79900000D01*
X91115091Y-50326019D01*
X91035333Y-50132990D01*
X90887777Y-49985176D01*
X90694887Y-49905082D01*
X90486029Y-49904899D01*
X90293000Y-49984657D01*
X90145186Y-50132213D01*
X90065092Y-50325103D01*
X90064909Y-50533961D01*
X90144667Y-50726990D01*
X90292223Y-50874804D01*
X90485113Y-50954898D01*
X90693971Y-50955081D01*
X90887000Y-50875323D01*
X91034814Y-50727767D01*
X91114908Y-50534877D01*
X91115091Y-50326019D01*
X91115091Y-79900000D01*
X89845091Y-79900000D01*
X89845091Y-50776029D01*
X89765333Y-50583000D01*
X89617777Y-50435186D01*
X89424887Y-50355092D01*
X89216029Y-50354909D01*
X89023000Y-50434667D01*
X88875186Y-50582223D01*
X88795092Y-50775113D01*
X88794909Y-50983971D01*
X88874667Y-51177000D01*
X89022223Y-51324814D01*
X89215113Y-51404908D01*
X89423971Y-51405091D01*
X89617000Y-51325333D01*
X89764814Y-51177777D01*
X89844908Y-50984887D01*
X89845091Y-50776029D01*
X89845091Y-79900000D01*
X89325103Y-79900000D01*
X89325103Y-54886127D01*
X89237749Y-54674714D01*
X89076140Y-54512823D01*
X88864879Y-54425100D01*
X88636130Y-54424900D01*
X88424717Y-54512254D01*
X88375056Y-54561827D01*
X88326137Y-54512823D01*
X88114876Y-54425100D01*
X87886127Y-54424900D01*
X87674714Y-54512254D01*
X87512823Y-54673863D01*
X87425100Y-54885124D01*
X87424900Y-55113873D01*
X87512254Y-55325286D01*
X87673863Y-55487177D01*
X87885124Y-55574900D01*
X88113873Y-55575100D01*
X88325286Y-55487746D01*
X88374946Y-55438172D01*
X88423866Y-55487177D01*
X88635127Y-55574900D01*
X88863876Y-55575100D01*
X89075289Y-55487746D01*
X89237180Y-55326137D01*
X89324903Y-55114876D01*
X89325103Y-54886127D01*
X89325103Y-79900000D01*
X88775100Y-79900000D01*
X88775100Y-62936127D01*
X88687746Y-62724714D01*
X88526137Y-62562823D01*
X88314876Y-62475100D01*
X88086127Y-62474900D01*
X87874714Y-62562254D01*
X87712823Y-62723863D01*
X87625100Y-62935124D01*
X87624900Y-63163873D01*
X87712254Y-63375286D01*
X87873863Y-63537177D01*
X88085124Y-63624900D01*
X88313873Y-63625100D01*
X88525286Y-63537746D01*
X88687177Y-63376137D01*
X88774900Y-63164876D01*
X88775100Y-62936127D01*
X88775100Y-79900000D01*
X82625924Y-79900000D01*
X83716858Y-79449235D01*
X84645973Y-78521741D01*
X85149426Y-77309290D01*
X85150572Y-75996469D01*
X84649235Y-74783142D01*
X83721741Y-73854027D01*
X82509290Y-73350574D01*
X81196469Y-73349428D01*
X79983142Y-73850765D01*
X79054027Y-74778259D01*
X78600000Y-75871678D01*
X78600000Y-63850000D01*
X84450000Y-63850000D01*
X84450000Y-57825305D01*
X84481226Y-57825333D01*
X85189000Y-57532887D01*
X85730984Y-56991849D01*
X86024665Y-56284586D01*
X86025333Y-55518774D01*
X85732887Y-54811000D01*
X85191849Y-54269016D01*
X84484586Y-53975335D01*
X84450000Y-53975304D01*
X84450000Y-47860861D01*
X85847639Y-47137944D01*
X87326364Y-46300000D01*
X98240183Y-46300000D01*
X98239810Y-46727844D01*
X98406922Y-47132286D01*
X98716087Y-47441991D01*
X99120237Y-47609808D01*
X99557844Y-47610190D01*
X99962286Y-47443078D01*
X100271991Y-47133913D01*
X100439808Y-46729763D01*
X100440183Y-46300000D01*
X101124326Y-46300000D01*
X101256087Y-46431991D01*
X101455988Y-46514996D01*
X101257714Y-46596922D01*
X100948009Y-46906087D01*
X100780192Y-47310237D01*
X100779810Y-47747844D01*
X100946922Y-48152286D01*
X101256087Y-48461991D01*
X101660237Y-48629808D01*
X102097844Y-48630190D01*
X102502286Y-48463078D01*
X102811991Y-48153913D01*
X102979808Y-47749763D01*
X102980190Y-47312156D01*
X102813078Y-46907714D01*
X102503913Y-46598009D01*
X102304011Y-46515003D01*
X102502286Y-46433078D01*
X102635596Y-46300000D01*
X109750000Y-46300000D01*
X109750000Y-46350000D01*
X109750000Y-52900000D01*
X111350000Y-52900000D01*
X135050000Y-52900000D01*
X135050000Y-32050000D01*
X135050000Y-31600000D01*
X172732057Y-31600000D01*
X171883142Y-31950765D01*
X170954027Y-32878259D01*
X170450574Y-34090710D01*
X170449428Y-35403531D01*
X170950765Y-36616858D01*
X171878259Y-37545973D01*
X173090710Y-38049426D01*
X174403531Y-38050572D01*
X175616858Y-37549235D01*
X176545973Y-36621741D01*
X177049426Y-35409290D01*
X177050572Y-34096469D01*
X176549235Y-32883142D01*
X175621741Y-31954027D01*
X174769148Y-31600000D01*
X177100103Y-31600000D01*
X177149897Y-79900000D01*
X177149897Y-79900000D01*
G37*
X177149897Y-79900000D02*
X174354915Y-79900000D01*
X175566858Y-79399235D01*
X176495973Y-78471741D01*
X176999426Y-77259290D01*
X177000572Y-75946469D01*
X176499235Y-74733142D01*
X175950130Y-74183077D01*
X175950130Y-67851470D01*
X175836189Y-67575714D01*
X175625395Y-67364552D01*
X175349839Y-67250131D01*
X175051470Y-67249870D01*
X174878687Y-67321262D01*
X174949869Y-67149839D01*
X174950130Y-66851470D01*
X174878737Y-66678687D01*
X175050161Y-66749869D01*
X175348530Y-66750130D01*
X175624286Y-66636189D01*
X175835448Y-66425395D01*
X175949869Y-66149839D01*
X175950130Y-65851470D01*
X175836189Y-65575714D01*
X175625395Y-65364552D01*
X175349839Y-65250131D01*
X175051470Y-65249870D01*
X174878687Y-65321262D01*
X174949869Y-65149839D01*
X174950130Y-64851470D01*
X174878737Y-64678687D01*
X175050161Y-64749869D01*
X175348530Y-64750130D01*
X175624286Y-64636189D01*
X175835448Y-64425395D01*
X175949869Y-64149839D01*
X175950130Y-63851470D01*
X175836189Y-63575714D01*
X175625395Y-63364552D01*
X175349839Y-63250131D01*
X175051470Y-63249870D01*
X174878687Y-63321262D01*
X174949869Y-63149839D01*
X174950130Y-62851470D01*
X174878737Y-62678687D01*
X175050161Y-62749869D01*
X175348530Y-62750130D01*
X175624286Y-62636189D01*
X175835448Y-62425395D01*
X175949869Y-62149839D01*
X175950130Y-61851470D01*
X175836189Y-61575714D01*
X175625395Y-61364552D01*
X175349839Y-61250131D01*
X175051470Y-61249870D01*
X174878687Y-61321262D01*
X174949869Y-61149839D01*
X174950130Y-60851470D01*
X174836189Y-60575714D01*
X174625395Y-60364552D01*
X174349839Y-60250131D01*
X174051470Y-60249870D01*
X173775714Y-60363811D01*
X173649716Y-60489589D01*
X173649716Y-48792709D01*
X173649716Y-45292589D01*
X173452297Y-44814799D01*
X173087063Y-44448928D01*
X172609619Y-44250676D01*
X172092649Y-44250224D01*
X171614859Y-44447643D01*
X171248988Y-44812877D01*
X171050736Y-45290321D01*
X171050284Y-45807291D01*
X171247703Y-46285081D01*
X171612937Y-46650952D01*
X172090381Y-46849204D01*
X172607351Y-46849656D01*
X173085141Y-46652237D01*
X173451012Y-46287003D01*
X173649264Y-45809559D01*
X173649716Y-45292589D01*
X173649716Y-48792709D01*
X173452297Y-48314919D01*
X173087063Y-47949048D01*
X172609619Y-47750796D01*
X172092649Y-47750344D01*
X171614859Y-47947763D01*
X171248988Y-48312997D01*
X171050736Y-48790441D01*
X171050284Y-49307411D01*
X171247703Y-49785201D01*
X171612937Y-50151072D01*
X172090381Y-50349324D01*
X172607351Y-50349776D01*
X173085141Y-50152357D01*
X173451012Y-49787123D01*
X173649264Y-49309679D01*
X173649716Y-48792709D01*
X173649716Y-60489589D01*
X173564552Y-60574605D01*
X173450131Y-60850161D01*
X173449870Y-61148530D01*
X173521262Y-61321312D01*
X173349839Y-61250131D01*
X173051470Y-61249870D01*
X172878687Y-61321262D01*
X172949869Y-61149839D01*
X172950130Y-60851470D01*
X172836189Y-60575714D01*
X172625395Y-60364552D01*
X172349839Y-60250131D01*
X172051470Y-60249870D01*
X171775714Y-60363811D01*
X171564552Y-60574605D01*
X171450131Y-60850161D01*
X171449870Y-61148530D01*
X171563811Y-61424286D01*
X171774605Y-61635448D01*
X172050161Y-61749869D01*
X172348530Y-61750130D01*
X172521312Y-61678737D01*
X172450131Y-61850161D01*
X172449870Y-62148530D01*
X172521262Y-62321312D01*
X172349839Y-62250131D01*
X172051470Y-62249870D01*
X171775714Y-62363811D01*
X171564552Y-62574605D01*
X171450131Y-62850161D01*
X171449870Y-63148530D01*
X171563811Y-63424286D01*
X171774605Y-63635448D01*
X172050161Y-63749869D01*
X172348530Y-63750130D01*
X172521312Y-63678737D01*
X172450131Y-63850161D01*
X172450111Y-63872929D01*
X172448634Y-63872636D01*
X170897346Y-63872636D01*
X170753840Y-63901181D01*
X170632181Y-63982471D01*
X170469645Y-64145006D01*
X170399970Y-64144945D01*
X170399970Y-63864934D01*
X170578951Y-63865091D01*
X170771980Y-63785333D01*
X170919794Y-63637777D01*
X170999888Y-63444887D01*
X171000071Y-63236029D01*
X170920313Y-63043000D01*
X170772757Y-62895186D01*
X170579867Y-62815092D01*
X170371009Y-62814909D01*
X170305069Y-62842154D01*
X170290135Y-62819803D01*
X166180178Y-58709846D01*
X166058520Y-58628556D01*
X165915013Y-58600011D01*
X165450165Y-58600011D01*
X165450165Y-55061862D01*
X165305841Y-54712571D01*
X165038835Y-54445098D01*
X164689796Y-54300165D01*
X164311862Y-54299835D01*
X163962571Y-54444159D01*
X163695098Y-54711165D01*
X163550165Y-55060204D01*
X163549835Y-55438138D01*
X163694159Y-55787429D01*
X163961165Y-56054902D01*
X164310204Y-56199835D01*
X164688138Y-56200165D01*
X165037429Y-56055841D01*
X165304902Y-55788835D01*
X165449835Y-55439796D01*
X165450165Y-55061862D01*
X165450165Y-58600011D01*
X165274999Y-58600011D01*
X165131493Y-58628556D01*
X165061953Y-58675020D01*
X164946029Y-58674919D01*
X164753000Y-58754677D01*
X164605186Y-58902233D01*
X164525092Y-59095123D01*
X164524909Y-59303981D01*
X164604667Y-59497010D01*
X164752223Y-59644824D01*
X164945113Y-59724918D01*
X165153971Y-59725101D01*
X165347000Y-59645343D01*
X165494814Y-59497787D01*
X165556175Y-59350011D01*
X165759683Y-59350011D01*
X165988122Y-59578450D01*
X165954714Y-59592254D01*
X165792823Y-59753863D01*
X165705100Y-59965124D01*
X165704900Y-60193873D01*
X165709497Y-60205001D01*
X164205331Y-60205001D01*
X163975004Y-59974674D01*
X163975091Y-59876029D01*
X163895333Y-59683000D01*
X163747777Y-59535186D01*
X163554887Y-59455092D01*
X163346029Y-59454909D01*
X163153000Y-59534667D01*
X163005186Y-59682223D01*
X162925092Y-59875113D01*
X162924909Y-60083971D01*
X162972596Y-60199382D01*
X162863000Y-60244667D01*
X162715186Y-60392223D01*
X162635092Y-60585113D01*
X162634909Y-60793971D01*
X162714667Y-60987000D01*
X162862223Y-61134814D01*
X163055113Y-61214908D01*
X163263971Y-61215091D01*
X163457000Y-61135333D01*
X163604814Y-60987777D01*
X163684908Y-60794887D01*
X163684951Y-60745281D01*
X163784836Y-60845166D01*
X163906495Y-60926456D01*
X164050001Y-60955001D01*
X166824671Y-60955001D01*
X168090496Y-62220826D01*
X167966392Y-62272105D01*
X167818578Y-62419661D01*
X167738484Y-62612551D01*
X167738301Y-62821409D01*
X167740255Y-62826138D01*
X167738161Y-62827004D01*
X167590347Y-62974560D01*
X167510253Y-63167450D01*
X167510154Y-63280391D01*
X167403000Y-63324667D01*
X167255186Y-63472223D01*
X167175092Y-63665113D01*
X167174909Y-63873971D01*
X167254667Y-64067000D01*
X167402223Y-64214814D01*
X167595113Y-64294908D01*
X167803971Y-64295091D01*
X167997000Y-64215333D01*
X168144814Y-64067777D01*
X168224908Y-63874887D01*
X168225006Y-63761945D01*
X168332161Y-63717670D01*
X168479975Y-63570114D01*
X168560069Y-63377224D01*
X168560252Y-63168366D01*
X168558297Y-63163636D01*
X168560392Y-63162771D01*
X168708206Y-63015215D01*
X168760043Y-62890373D01*
X169349960Y-63480290D01*
X169349960Y-73155372D01*
X168635091Y-73870241D01*
X168635091Y-72406029D01*
X168555333Y-72213000D01*
X168407777Y-72065186D01*
X168214887Y-71985092D01*
X168075091Y-71984969D01*
X168075091Y-68476029D01*
X167995333Y-68283000D01*
X167847777Y-68135186D01*
X167654887Y-68055092D01*
X167446029Y-68054909D01*
X167253000Y-68134667D01*
X167105186Y-68282223D01*
X167025092Y-68475113D01*
X167024909Y-68683971D01*
X167104667Y-68877000D01*
X167252223Y-69024814D01*
X167445113Y-69104908D01*
X167653971Y-69105091D01*
X167847000Y-69025333D01*
X167994814Y-68877777D01*
X168074908Y-68684887D01*
X168075091Y-68476029D01*
X168075091Y-71984969D01*
X168006029Y-71984909D01*
X167813000Y-72064667D01*
X167665186Y-72212223D01*
X167585092Y-72405113D01*
X167584909Y-72613971D01*
X167664667Y-72807000D01*
X167812223Y-72954814D01*
X168005113Y-73034908D01*
X168213971Y-73035091D01*
X168407000Y-72955333D01*
X168554814Y-72807777D01*
X168634908Y-72614887D01*
X168635091Y-72406029D01*
X168635091Y-73870241D01*
X167130332Y-75375000D01*
X166295091Y-75375000D01*
X166295091Y-69826029D01*
X166215333Y-69633000D01*
X166067777Y-69485186D01*
X165874887Y-69405092D01*
X165845100Y-69405065D01*
X165845100Y-68786127D01*
X165757746Y-68574714D01*
X165596137Y-68412823D01*
X165384876Y-68325100D01*
X165156127Y-68324900D01*
X164944714Y-68412254D01*
X164782823Y-68573863D01*
X164695100Y-68785124D01*
X164694900Y-69013873D01*
X164782254Y-69225286D01*
X164943863Y-69387177D01*
X165155124Y-69474900D01*
X165383873Y-69475100D01*
X165595286Y-69387746D01*
X165757177Y-69226137D01*
X165844900Y-69014876D01*
X165845100Y-68786127D01*
X165845100Y-69405065D01*
X165666029Y-69404909D01*
X165473000Y-69484667D01*
X165325186Y-69632223D01*
X165245092Y-69825113D01*
X165244909Y-70033971D01*
X165324667Y-70227000D01*
X165472223Y-70374814D01*
X165665113Y-70454908D01*
X165873971Y-70455091D01*
X166067000Y-70375333D01*
X166214814Y-70227777D01*
X166294908Y-70034887D01*
X166295091Y-69826029D01*
X166295091Y-75375000D01*
X164535494Y-75375000D01*
X164735448Y-75175395D01*
X164849869Y-74899839D01*
X164850130Y-74601470D01*
X164736189Y-74325714D01*
X164525395Y-74114552D01*
X164505100Y-74106124D01*
X164505100Y-68786127D01*
X164417746Y-68574714D01*
X164256137Y-68412823D01*
X164044876Y-68325100D01*
X163816127Y-68324900D01*
X163604714Y-68412254D01*
X163442823Y-68573863D01*
X163355100Y-68785124D01*
X163354900Y-69013873D01*
X163442254Y-69225286D01*
X163603863Y-69387177D01*
X163815124Y-69474900D01*
X164043873Y-69475100D01*
X164255286Y-69387746D01*
X164417177Y-69226137D01*
X164504900Y-69014876D01*
X164505100Y-68786127D01*
X164505100Y-74106124D01*
X164249839Y-74000131D01*
X163951470Y-73999870D01*
X163675714Y-74113811D01*
X163464552Y-74324605D01*
X163350131Y-74600161D01*
X163349870Y-74898530D01*
X163421262Y-75071312D01*
X163249839Y-75000131D01*
X162951470Y-74999870D01*
X162925091Y-75010769D01*
X162925091Y-64106039D01*
X162845333Y-63913010D01*
X162697777Y-63765196D01*
X162504887Y-63685102D01*
X162296029Y-63684919D01*
X162243292Y-63706709D01*
X162243292Y-61937819D01*
X162163534Y-61744790D01*
X162015978Y-61596976D01*
X161823088Y-61516882D01*
X161614230Y-61516699D01*
X161450165Y-61584489D01*
X161450165Y-55061862D01*
X161305841Y-54712571D01*
X161038835Y-54445098D01*
X160689796Y-54300165D01*
X160311862Y-54299835D01*
X159962571Y-54444159D01*
X159695098Y-54711165D01*
X159550165Y-55060204D01*
X159549835Y-55438138D01*
X159694159Y-55787429D01*
X159961165Y-56054902D01*
X160310204Y-56199835D01*
X160688138Y-56200165D01*
X161037429Y-56055841D01*
X161304902Y-55788835D01*
X161449835Y-55439796D01*
X161450165Y-55061862D01*
X161450165Y-61584489D01*
X161421201Y-61596457D01*
X161273387Y-61744013D01*
X161193293Y-61936903D01*
X161193110Y-62145761D01*
X161272868Y-62338790D01*
X161420424Y-62486604D01*
X161613314Y-62566698D01*
X161822172Y-62566881D01*
X162015201Y-62487123D01*
X162163015Y-62339567D01*
X162243109Y-62146677D01*
X162243292Y-61937819D01*
X162243292Y-63706709D01*
X162103000Y-63764677D01*
X161955186Y-63912233D01*
X161875092Y-64105123D01*
X161874909Y-64313981D01*
X161954667Y-64507010D01*
X162102223Y-64654824D01*
X162295113Y-64734918D01*
X162503971Y-64735101D01*
X162697000Y-64655343D01*
X162844814Y-64507787D01*
X162924908Y-64314897D01*
X162925091Y-64106039D01*
X162925091Y-75010769D01*
X162778687Y-75071262D01*
X162849869Y-74899839D01*
X162850130Y-74601470D01*
X162736189Y-74325714D01*
X162525395Y-74114552D01*
X162445091Y-74081206D01*
X162445091Y-65176019D01*
X162365333Y-64982990D01*
X162217777Y-64835176D01*
X162024887Y-64755082D01*
X161816029Y-64754899D01*
X161623000Y-64834657D01*
X161475186Y-64982213D01*
X161395092Y-65175103D01*
X161395065Y-65204995D01*
X161296029Y-65204909D01*
X161103000Y-65284667D01*
X160955186Y-65432223D01*
X160948296Y-65448816D01*
X160948296Y-61882824D01*
X160868538Y-61689795D01*
X160720982Y-61541981D01*
X160528092Y-61461887D01*
X160319234Y-61461704D01*
X160126205Y-61541462D01*
X159978391Y-61689018D01*
X159898297Y-61881908D01*
X159898114Y-62090766D01*
X159977872Y-62283795D01*
X160125428Y-62431609D01*
X160318318Y-62511703D01*
X160527176Y-62511886D01*
X160720205Y-62432128D01*
X160868019Y-62284572D01*
X160948113Y-62091682D01*
X160948296Y-61882824D01*
X160948296Y-65448816D01*
X160875092Y-65625113D01*
X160874909Y-65833971D01*
X160954667Y-66027000D01*
X161102223Y-66174814D01*
X161295113Y-66254908D01*
X161503971Y-66255091D01*
X161697000Y-66175333D01*
X161844814Y-66027777D01*
X161924908Y-65834887D01*
X161924934Y-65804994D01*
X162023971Y-65805081D01*
X162217000Y-65725323D01*
X162364814Y-65577767D01*
X162444908Y-65384877D01*
X162445091Y-65176019D01*
X162445091Y-74081206D01*
X162249839Y-74000131D01*
X161951470Y-73999870D01*
X161675714Y-74113811D01*
X161464552Y-74324605D01*
X161350131Y-74600161D01*
X161349870Y-74898530D01*
X161421262Y-75071312D01*
X161249839Y-75000131D01*
X160951470Y-74999870D01*
X160778687Y-75071262D01*
X160849869Y-74899839D01*
X160850130Y-74601470D01*
X160736189Y-74325714D01*
X160725091Y-74314596D01*
X160725091Y-66376029D01*
X160645333Y-66183000D01*
X160497777Y-66035186D01*
X160304887Y-65955092D01*
X160096029Y-65954909D01*
X160015091Y-65988351D01*
X160015091Y-65276029D01*
X159935333Y-65083000D01*
X159787777Y-64935186D01*
X159594887Y-64855092D01*
X159452239Y-64854967D01*
X159471703Y-64808092D01*
X159471886Y-64599234D01*
X159450165Y-64546665D01*
X159450165Y-55061862D01*
X159305841Y-54712571D01*
X159038835Y-54445098D01*
X158775100Y-54335586D01*
X158775100Y-33556127D01*
X158687746Y-33344714D01*
X158623199Y-33280055D01*
X158657177Y-33246137D01*
X158744900Y-33034876D01*
X158745100Y-32806127D01*
X158657746Y-32594714D01*
X158496137Y-32432823D01*
X158284876Y-32345100D01*
X158056127Y-32344900D01*
X157844714Y-32432254D01*
X157724941Y-32551817D01*
X157616137Y-32442823D01*
X157404876Y-32355100D01*
X157176127Y-32354900D01*
X156964714Y-32442254D01*
X156802823Y-32603863D01*
X156715100Y-32815124D01*
X156714900Y-33043873D01*
X156802254Y-33255286D01*
X156851826Y-33304944D01*
X156802823Y-33353863D01*
X156715100Y-33565124D01*
X156714900Y-33793873D01*
X156802254Y-34005286D01*
X156871826Y-34074979D01*
X156802823Y-34143863D01*
X156715100Y-34355124D01*
X156714900Y-34583873D01*
X156802254Y-34795286D01*
X156963863Y-34957177D01*
X157175124Y-35044900D01*
X157403873Y-35045100D01*
X157615286Y-34957746D01*
X157735075Y-34838164D01*
X157863863Y-34967177D01*
X158075124Y-35054900D01*
X158303873Y-35055100D01*
X158515286Y-34967746D01*
X158677177Y-34806137D01*
X158764900Y-34594876D01*
X158765100Y-34366127D01*
X158677746Y-34154714D01*
X158603164Y-34080002D01*
X158687177Y-33996137D01*
X158774900Y-33784876D01*
X158775100Y-33556127D01*
X158775100Y-54335586D01*
X158689796Y-54300165D01*
X158311862Y-54299835D01*
X157962571Y-54444159D01*
X157695098Y-54711165D01*
X157550165Y-55060204D01*
X157549835Y-55438138D01*
X157694159Y-55787429D01*
X157961165Y-56054902D01*
X158310204Y-56199835D01*
X158688138Y-56200165D01*
X159037429Y-56055841D01*
X159304902Y-55788835D01*
X159449835Y-55439796D01*
X159450165Y-55061862D01*
X159450165Y-64546665D01*
X159392128Y-64406205D01*
X159244572Y-64258391D01*
X159051682Y-64178297D01*
X159015091Y-64178264D01*
X159015091Y-61586029D01*
X158935333Y-61393000D01*
X158787777Y-61245186D01*
X158594887Y-61165092D01*
X158386029Y-61164909D01*
X158193000Y-61244667D01*
X158045186Y-61392223D01*
X157965092Y-61585113D01*
X157964909Y-61793971D01*
X158044667Y-61987000D01*
X158192223Y-62134814D01*
X158385113Y-62214908D01*
X158593971Y-62215091D01*
X158787000Y-62135333D01*
X158934814Y-61987777D01*
X159014908Y-61794887D01*
X159015091Y-61586029D01*
X159015091Y-64178264D01*
X158842824Y-64178114D01*
X158649795Y-64257872D01*
X158501981Y-64405428D01*
X158421887Y-64598318D01*
X158421704Y-64807176D01*
X158501462Y-65000205D01*
X158649018Y-65148019D01*
X158841908Y-65228113D01*
X158984555Y-65228237D01*
X158965092Y-65275113D01*
X158964909Y-65483971D01*
X159025868Y-65631503D01*
X158873000Y-65694667D01*
X158725186Y-65842223D01*
X158645092Y-66035113D01*
X158644909Y-66243971D01*
X158724667Y-66437000D01*
X158872223Y-66584814D01*
X159065113Y-66664908D01*
X159273971Y-66665091D01*
X159467000Y-66585333D01*
X159614814Y-66437777D01*
X159694908Y-66244887D01*
X159695091Y-66036029D01*
X159634131Y-65888496D01*
X159787000Y-65825333D01*
X159934814Y-65677777D01*
X160014908Y-65484887D01*
X160015091Y-65276029D01*
X160015091Y-65988351D01*
X159903000Y-66034667D01*
X159755186Y-66182223D01*
X159675092Y-66375113D01*
X159674909Y-66583971D01*
X159754667Y-66777000D01*
X159902223Y-66924814D01*
X160095113Y-67004908D01*
X160303971Y-67005091D01*
X160497000Y-66925333D01*
X160644814Y-66777777D01*
X160724908Y-66584887D01*
X160725091Y-66376029D01*
X160725091Y-74314596D01*
X160525395Y-74114552D01*
X160249839Y-74000131D01*
X159951470Y-73999870D01*
X159675714Y-74113811D01*
X159464552Y-74324605D01*
X159350131Y-74600161D01*
X159349870Y-74898530D01*
X159421262Y-75071312D01*
X159249839Y-75000131D01*
X159135091Y-75000030D01*
X159135091Y-71946029D01*
X159055333Y-71753000D01*
X158907777Y-71605186D01*
X158714887Y-71525092D01*
X158564978Y-71524960D01*
X158565091Y-71396029D01*
X158485333Y-71203000D01*
X158337777Y-71055186D01*
X158273296Y-71028411D01*
X158273296Y-65667824D01*
X158193538Y-65474795D01*
X158045982Y-65326981D01*
X157853092Y-65246887D01*
X157644234Y-65246704D01*
X157451205Y-65326462D01*
X157450165Y-65327500D01*
X157450165Y-55061862D01*
X157305841Y-54712571D01*
X157038835Y-54445098D01*
X156689796Y-54300165D01*
X156311862Y-54299835D01*
X155962571Y-54444159D01*
X155921651Y-54485007D01*
X155921651Y-33227408D01*
X155789253Y-32906980D01*
X155544310Y-32661609D01*
X155224113Y-32528651D01*
X154877408Y-32528349D01*
X154556980Y-32660747D01*
X154311609Y-32905690D01*
X154178651Y-33225887D01*
X154178349Y-33572592D01*
X154310747Y-33893020D01*
X154555690Y-34138391D01*
X154875887Y-34271349D01*
X155222592Y-34271651D01*
X155543020Y-34139253D01*
X155788391Y-33894310D01*
X155921349Y-33574113D01*
X155921651Y-33227408D01*
X155921651Y-54485007D01*
X155695098Y-54711165D01*
X155550165Y-55060204D01*
X155549835Y-55438138D01*
X155694159Y-55787429D01*
X155961165Y-56054902D01*
X156310204Y-56199835D01*
X156688138Y-56200165D01*
X157037429Y-56055841D01*
X157304902Y-55788835D01*
X157449835Y-55439796D01*
X157450165Y-55061862D01*
X157450165Y-65327500D01*
X157303391Y-65474018D01*
X157223297Y-65666908D01*
X157223114Y-65875766D01*
X157302872Y-66068795D01*
X157450428Y-66216609D01*
X157643318Y-66296703D01*
X157852176Y-66296886D01*
X158045205Y-66217128D01*
X158193019Y-66069572D01*
X158273113Y-65876682D01*
X158273296Y-65667824D01*
X158273296Y-71028411D01*
X158144887Y-70975092D01*
X157936029Y-70974909D01*
X157743000Y-71054667D01*
X157720063Y-71077563D01*
X157667777Y-71025186D01*
X157474887Y-70945092D01*
X157266029Y-70944909D01*
X157073000Y-71024667D01*
X157014455Y-71083109D01*
X157014455Y-64163840D01*
X156934697Y-63970811D01*
X156865100Y-63901092D01*
X156865100Y-58956127D01*
X156777746Y-58744714D01*
X156616137Y-58582823D01*
X156404876Y-58495100D01*
X156176127Y-58494900D01*
X155964714Y-58582254D01*
X155802823Y-58743863D01*
X155715100Y-58955124D01*
X155714900Y-59183873D01*
X155802254Y-59395286D01*
X155963863Y-59557177D01*
X156175124Y-59644900D01*
X156403873Y-59645100D01*
X156615286Y-59557746D01*
X156777177Y-59396137D01*
X156864900Y-59184876D01*
X156865100Y-58956127D01*
X156865100Y-63901092D01*
X156787141Y-63822997D01*
X156634982Y-63759816D01*
X156635091Y-63636029D01*
X156555333Y-63443000D01*
X156407777Y-63295186D01*
X156214887Y-63215092D01*
X156006029Y-63214909D01*
X155813000Y-63294667D01*
X155665186Y-63442223D01*
X155585092Y-63635113D01*
X155584909Y-63843971D01*
X155664667Y-64037000D01*
X155812223Y-64184814D01*
X155947311Y-64240906D01*
X155793000Y-64304667D01*
X155645186Y-64452223D01*
X155565092Y-64645113D01*
X155564909Y-64853971D01*
X155639207Y-65033787D01*
X155614753Y-65058199D01*
X155534659Y-65251089D01*
X155534476Y-65459947D01*
X155614234Y-65652976D01*
X155761790Y-65800790D01*
X155954680Y-65880884D01*
X156163538Y-65881067D01*
X156356567Y-65801309D01*
X156504381Y-65653753D01*
X156584475Y-65460863D01*
X156584658Y-65252005D01*
X156510359Y-65072188D01*
X156534814Y-65047777D01*
X156614908Y-64854887D01*
X156614970Y-64783962D01*
X156786364Y-64713144D01*
X156934178Y-64565588D01*
X157014272Y-64372698D01*
X157014455Y-64163840D01*
X157014455Y-71083109D01*
X157005100Y-71092448D01*
X157005100Y-68576127D01*
X156917746Y-68364714D01*
X156756137Y-68202823D01*
X156544876Y-68115100D01*
X156316127Y-68114900D01*
X156104714Y-68202254D01*
X155942823Y-68363863D01*
X155855100Y-68575124D01*
X155854900Y-68803873D01*
X155942254Y-69015286D01*
X156103863Y-69177177D01*
X156315124Y-69264900D01*
X156543873Y-69265100D01*
X156755286Y-69177746D01*
X156917177Y-69016137D01*
X157004900Y-68804876D01*
X157005100Y-68576127D01*
X157005100Y-71092448D01*
X156925186Y-71172223D01*
X156845092Y-71365113D01*
X156844909Y-71573971D01*
X156924667Y-71767000D01*
X157072223Y-71914814D01*
X157265113Y-71994908D01*
X157473971Y-71995091D01*
X157667000Y-71915333D01*
X157689936Y-71892436D01*
X157742223Y-71944814D01*
X157935113Y-72024908D01*
X158085021Y-72025039D01*
X158084909Y-72153971D01*
X158164667Y-72347000D01*
X158312223Y-72494814D01*
X158505113Y-72574908D01*
X158713971Y-72575091D01*
X158907000Y-72495333D01*
X159054814Y-72347777D01*
X159134908Y-72154887D01*
X159135091Y-71946029D01*
X159135091Y-75000030D01*
X158951470Y-74999870D01*
X158778687Y-75071262D01*
X158849869Y-74899839D01*
X158850130Y-74601470D01*
X158736189Y-74325714D01*
X158525395Y-74114552D01*
X158249839Y-74000131D01*
X157951470Y-73999870D01*
X157675714Y-74113811D01*
X157464552Y-74324605D01*
X157350131Y-74600161D01*
X157349870Y-74898530D01*
X157421262Y-75071312D01*
X157249839Y-75000131D01*
X156951470Y-74999870D01*
X156675714Y-75113811D01*
X156464552Y-75324605D01*
X156350131Y-75600161D01*
X156349870Y-75898530D01*
X156463811Y-76174286D01*
X156674605Y-76385448D01*
X156950161Y-76499869D01*
X157248530Y-76500130D01*
X157421312Y-76428737D01*
X157350131Y-76600161D01*
X157349870Y-76898530D01*
X157421262Y-77071312D01*
X157249839Y-77000131D01*
X156951470Y-76999870D01*
X156675714Y-77113811D01*
X156464552Y-77324605D01*
X156350131Y-77600161D01*
X156349870Y-77898530D01*
X156463811Y-78174286D01*
X156674605Y-78385448D01*
X156950161Y-78499869D01*
X157248530Y-78500130D01*
X157524286Y-78386189D01*
X157735448Y-78175395D01*
X157849869Y-77899839D01*
X157850130Y-77601470D01*
X157778737Y-77428687D01*
X157950161Y-77499869D01*
X158248530Y-77500130D01*
X158421312Y-77428737D01*
X158350131Y-77600161D01*
X158349870Y-77898530D01*
X158463811Y-78174286D01*
X158674605Y-78385448D01*
X158950161Y-78499869D01*
X159248530Y-78500130D01*
X159524286Y-78386189D01*
X159735448Y-78175395D01*
X159849869Y-77899839D01*
X159850130Y-77601470D01*
X159778737Y-77428687D01*
X159950161Y-77499869D01*
X160248530Y-77500130D01*
X160421312Y-77428737D01*
X160350131Y-77600161D01*
X160349870Y-77898530D01*
X160463811Y-78174286D01*
X160674605Y-78385448D01*
X160950161Y-78499869D01*
X161248530Y-78500130D01*
X161524286Y-78386189D01*
X161735448Y-78175395D01*
X161849869Y-77899839D01*
X161850130Y-77601470D01*
X161778737Y-77428687D01*
X161950161Y-77499869D01*
X162248530Y-77500130D01*
X162421312Y-77428737D01*
X162350131Y-77600161D01*
X162349870Y-77898530D01*
X162463811Y-78174286D01*
X162674605Y-78385448D01*
X162950161Y-78499869D01*
X163248530Y-78500130D01*
X163524286Y-78386189D01*
X163735448Y-78175395D01*
X163756373Y-78125000D01*
X166830000Y-78125000D01*
X166973506Y-78096455D01*
X166973507Y-78096455D01*
X167095165Y-78015165D01*
X171285165Y-73825165D01*
X171366455Y-73703506D01*
X171395000Y-73560000D01*
X171395000Y-67267469D01*
X171464814Y-67197777D01*
X171467522Y-67191253D01*
X171563811Y-67424286D01*
X171774605Y-67635448D01*
X172050161Y-67749869D01*
X172348530Y-67750130D01*
X172521312Y-67678737D01*
X172450131Y-67850161D01*
X172449870Y-68148530D01*
X172563811Y-68424286D01*
X172774605Y-68635448D01*
X173050161Y-68749869D01*
X173348530Y-68750130D01*
X173624286Y-68636189D01*
X173835448Y-68425395D01*
X173949869Y-68149839D01*
X173950130Y-67851470D01*
X173878737Y-67678687D01*
X174050161Y-67749869D01*
X174348530Y-67750130D01*
X174521312Y-67678737D01*
X174450131Y-67850161D01*
X174449870Y-68148530D01*
X174563811Y-68424286D01*
X174774605Y-68635448D01*
X175050161Y-68749869D01*
X175348530Y-68750130D01*
X175624286Y-68636189D01*
X175835448Y-68425395D01*
X175949869Y-68149839D01*
X175950130Y-67851470D01*
X175950130Y-74183077D01*
X175571741Y-73804027D01*
X174359290Y-73300574D01*
X173046469Y-73299428D01*
X171833142Y-73800765D01*
X170904027Y-74728259D01*
X170400574Y-75940710D01*
X170399428Y-77253531D01*
X170900765Y-78466858D01*
X171828259Y-79395973D01*
X173040710Y-79899426D01*
X173698266Y-79900000D01*
X152385100Y-79900000D01*
X152385100Y-68276127D01*
X152297746Y-68064714D01*
X152136137Y-67902823D01*
X151924876Y-67815100D01*
X151696127Y-67814900D01*
X151484714Y-67902254D01*
X151385100Y-68001694D01*
X151385100Y-44086127D01*
X151297746Y-43874714D01*
X151136137Y-43712823D01*
X150924876Y-43625100D01*
X150696127Y-43624900D01*
X150484714Y-43712254D01*
X150322823Y-43873863D01*
X150235100Y-44085124D01*
X150234900Y-44313873D01*
X150322254Y-44525286D01*
X150483863Y-44687177D01*
X150695124Y-44774900D01*
X150923873Y-44775100D01*
X151135286Y-44687746D01*
X151297177Y-44526137D01*
X151384900Y-44314876D01*
X151385100Y-44086127D01*
X151385100Y-68001694D01*
X151322823Y-68063863D01*
X151235100Y-68275124D01*
X151234900Y-68503873D01*
X151322254Y-68715286D01*
X151483863Y-68877177D01*
X151695124Y-68964900D01*
X151923873Y-68965100D01*
X152135286Y-68877746D01*
X152297177Y-68716137D01*
X152384900Y-68504876D01*
X152385100Y-68276127D01*
X152385100Y-79900000D01*
X149065091Y-79900000D01*
X149065091Y-59052137D01*
X149009754Y-58918212D01*
X149064908Y-58785387D01*
X149065091Y-58576529D01*
X148985333Y-58383500D01*
X148837777Y-58235686D01*
X148644887Y-58155592D01*
X148436029Y-58155409D01*
X148243000Y-58235167D01*
X148095186Y-58382723D01*
X148015092Y-58575613D01*
X148015021Y-58655909D01*
X147964887Y-58635092D01*
X147756029Y-58634909D01*
X147563000Y-58714667D01*
X147555115Y-58722537D01*
X147547777Y-58715186D01*
X147354887Y-58635092D01*
X147185039Y-58634943D01*
X147185091Y-58576029D01*
X147153596Y-58499807D01*
X147325887Y-58571349D01*
X147672592Y-58571651D01*
X147993020Y-58439253D01*
X148238391Y-58194310D01*
X148371349Y-57874113D01*
X148371651Y-57527408D01*
X148239253Y-57206980D01*
X147994310Y-56961609D01*
X147674113Y-56828651D01*
X147327408Y-56828349D01*
X147006980Y-56960747D01*
X146761609Y-57205690D01*
X146628651Y-57525887D01*
X146628349Y-57872592D01*
X146745068Y-58155074D01*
X146556029Y-58154909D01*
X146363000Y-58234667D01*
X146215186Y-58382223D01*
X146135092Y-58575113D01*
X146134909Y-58783971D01*
X146191155Y-58920096D01*
X146135092Y-59055113D01*
X146134909Y-59263971D01*
X146213936Y-59455232D01*
X146135092Y-59645113D01*
X146134909Y-59853971D01*
X146214667Y-60047000D01*
X146222554Y-60054901D01*
X146195186Y-60082223D01*
X146115092Y-60275113D01*
X146114909Y-60483971D01*
X146194667Y-60677000D01*
X146342223Y-60824814D01*
X146535113Y-60904908D01*
X146743971Y-60905091D01*
X146937000Y-60825333D01*
X146949884Y-60812471D01*
X146952223Y-60814814D01*
X147145113Y-60894908D01*
X147353971Y-60895091D01*
X147547000Y-60815333D01*
X147694814Y-60667777D01*
X147774908Y-60474887D01*
X147775091Y-60266029D01*
X147695333Y-60073000D01*
X147677462Y-60055098D01*
X147694814Y-60037777D01*
X147774908Y-59844887D01*
X147775048Y-59684925D01*
X147963971Y-59685091D01*
X148157000Y-59605333D01*
X148201891Y-59560519D01*
X148242223Y-59600922D01*
X148435113Y-59681016D01*
X148643971Y-59681199D01*
X148837000Y-59601441D01*
X148984814Y-59453885D01*
X149064908Y-59260995D01*
X149065091Y-59052137D01*
X149065091Y-79900000D01*
X148148819Y-79900000D01*
X148148819Y-66448127D01*
X148061465Y-66236714D01*
X147899856Y-66074823D01*
X147688595Y-65987100D01*
X147459846Y-65986900D01*
X147248433Y-66074254D01*
X147086542Y-66235863D01*
X146998819Y-66447124D01*
X146998619Y-66675873D01*
X147085973Y-66887286D01*
X147247582Y-67049177D01*
X147458843Y-67136900D01*
X147687592Y-67137100D01*
X147899005Y-67049746D01*
X148060896Y-66888137D01*
X148148619Y-66676876D01*
X148148819Y-66448127D01*
X148148819Y-79900000D01*
X146635100Y-79900000D01*
X146635100Y-71596127D01*
X146547746Y-71384714D01*
X146386137Y-71222823D01*
X146174876Y-71135100D01*
X145946127Y-71134900D01*
X145734714Y-71222254D01*
X145572823Y-71383863D01*
X145485100Y-71595124D01*
X145484900Y-71823873D01*
X145572254Y-72035286D01*
X145733863Y-72197177D01*
X145945124Y-72284900D01*
X146173873Y-72285100D01*
X146385286Y-72197746D01*
X146547177Y-72036137D01*
X146634900Y-71824876D01*
X146635100Y-71596127D01*
X146635100Y-79900000D01*
X136165344Y-79900000D01*
X136165344Y-56536127D01*
X136077990Y-56324714D01*
X135923295Y-56169750D01*
X136077177Y-56016137D01*
X136164900Y-55804876D01*
X136165100Y-55576127D01*
X136077746Y-55364714D01*
X135916137Y-55202823D01*
X135704876Y-55115100D01*
X135476127Y-55114900D01*
X135264714Y-55202254D01*
X135134915Y-55331826D01*
X135006137Y-55202823D01*
X134794876Y-55115100D01*
X134566127Y-55114900D01*
X134354714Y-55202254D01*
X134192823Y-55363863D01*
X134192173Y-55365428D01*
X134187746Y-55354714D01*
X134026137Y-55192823D01*
X133814876Y-55105100D01*
X133586127Y-55104900D01*
X133374714Y-55192254D01*
X133212823Y-55353863D01*
X133125100Y-55565124D01*
X133124900Y-55793873D01*
X133212254Y-56005286D01*
X133370522Y-56163830D01*
X133210210Y-56323863D01*
X133122487Y-56535124D01*
X133122287Y-56763873D01*
X133209641Y-56975286D01*
X133305517Y-57071329D01*
X133212823Y-57163863D01*
X133125100Y-57375124D01*
X133124900Y-57603873D01*
X133212254Y-57815286D01*
X133373863Y-57977177D01*
X133585124Y-58064900D01*
X133813873Y-58065100D01*
X134025286Y-57977746D01*
X134187177Y-57816137D01*
X134194783Y-57797819D01*
X134353863Y-57957177D01*
X134565124Y-58044900D01*
X134793873Y-58045100D01*
X135005286Y-57957746D01*
X135130075Y-57833173D01*
X135253863Y-57957177D01*
X135465124Y-58044900D01*
X135693873Y-58045100D01*
X135905286Y-57957746D01*
X136067177Y-57796137D01*
X136154900Y-57584876D01*
X136155100Y-57356127D01*
X136067746Y-57144714D01*
X135988286Y-57065116D01*
X136077421Y-56976137D01*
X136165144Y-56764876D01*
X136165344Y-56536127D01*
X136165344Y-79900000D01*
X125700000Y-79900000D01*
X125700000Y-77900000D01*
X111421651Y-77900000D01*
X111421651Y-68007408D01*
X111289253Y-67686980D01*
X111044310Y-67441609D01*
X110724113Y-67308651D01*
X110377408Y-67308349D01*
X110056980Y-67440747D01*
X109811609Y-67685690D01*
X109678651Y-68005887D01*
X109678349Y-68352592D01*
X109810747Y-68673020D01*
X110055690Y-68918391D01*
X110375887Y-69051349D01*
X110722592Y-69051651D01*
X111043020Y-68919253D01*
X111288391Y-68674310D01*
X111421349Y-68354113D01*
X111421651Y-68007408D01*
X111421651Y-77900000D01*
X109099782Y-77900000D01*
X109104147Y-79900000D01*
X105494629Y-79900000D01*
X105494629Y-50752559D01*
X105381525Y-50478825D01*
X105172276Y-50269211D01*
X104898740Y-50155629D01*
X104602559Y-50155371D01*
X104328825Y-50268475D01*
X104119211Y-50477724D01*
X104005629Y-50751260D01*
X104005371Y-51047441D01*
X104118475Y-51321175D01*
X104327724Y-51530789D01*
X104601260Y-51644371D01*
X104897441Y-51644629D01*
X105171175Y-51531525D01*
X105380789Y-51322276D01*
X105494371Y-51048740D01*
X105494629Y-50752559D01*
X105494629Y-79900000D01*
X102980190Y-79900000D01*
X102980190Y-55432156D01*
X102813078Y-55027714D01*
X102503913Y-54718009D01*
X102304011Y-54635003D01*
X102502286Y-54553078D01*
X102811991Y-54243913D01*
X102979808Y-53839763D01*
X102980190Y-53402156D01*
X102813078Y-52997714D01*
X102503913Y-52688009D01*
X102304011Y-52605003D01*
X102502286Y-52523078D01*
X102811991Y-52213913D01*
X102979808Y-51809763D01*
X102980190Y-51372156D01*
X102813078Y-50967714D01*
X102503913Y-50658009D01*
X102099763Y-50490192D01*
X101662156Y-50489810D01*
X101257714Y-50656922D01*
X100948009Y-50966087D01*
X100780192Y-51370237D01*
X100779810Y-51807844D01*
X100946922Y-52212286D01*
X101256087Y-52521991D01*
X101455988Y-52604996D01*
X101257714Y-52686922D01*
X100948009Y-52996087D01*
X100780192Y-53400237D01*
X100779810Y-53837844D01*
X100946922Y-54242286D01*
X101256087Y-54551991D01*
X101455988Y-54634996D01*
X101257714Y-54716922D01*
X100948009Y-55026087D01*
X100780192Y-55430237D01*
X100779810Y-55867844D01*
X100946922Y-56272286D01*
X101256087Y-56581991D01*
X101660237Y-56749808D01*
X102097844Y-56750190D01*
X102502286Y-56583078D01*
X102811991Y-56273913D01*
X102979808Y-55869763D01*
X102980190Y-55432156D01*
X102980190Y-79900000D01*
X100440190Y-79900000D01*
X100440190Y-54412156D01*
X100273078Y-54007714D01*
X99963913Y-53698009D01*
X99764011Y-53615003D01*
X99962286Y-53533078D01*
X100271991Y-53223913D01*
X100439808Y-52819763D01*
X100440190Y-52382156D01*
X100273078Y-51977714D01*
X99963913Y-51668009D01*
X99559763Y-51500192D01*
X99122156Y-51499810D01*
X98717714Y-51666922D01*
X98408009Y-51976087D01*
X98240192Y-52380237D01*
X98239810Y-52817844D01*
X98406922Y-53222286D01*
X98716087Y-53531991D01*
X98915988Y-53614996D01*
X98717714Y-53696922D01*
X98408009Y-54006087D01*
X98240192Y-54410237D01*
X98239810Y-54847844D01*
X98406922Y-55252286D01*
X98716087Y-55561991D01*
X99120237Y-55729808D01*
X99557844Y-55730190D01*
X99962286Y-55563078D01*
X100271991Y-55253913D01*
X100439808Y-54849763D01*
X100440190Y-54412156D01*
X100440190Y-79900000D01*
X97505100Y-79900000D01*
X97505100Y-58166127D01*
X97505100Y-56236127D01*
X97417746Y-56024714D01*
X97256137Y-55862823D01*
X97044876Y-55775100D01*
X96816127Y-55774900D01*
X96604714Y-55862254D01*
X96442823Y-56023863D01*
X96355100Y-56235124D01*
X96354900Y-56463873D01*
X96442254Y-56675286D01*
X96603863Y-56837177D01*
X96815124Y-56924900D01*
X97043873Y-56925100D01*
X97255286Y-56837746D01*
X97417177Y-56676137D01*
X97504900Y-56464876D01*
X97505100Y-56236127D01*
X97505100Y-58166127D01*
X97417746Y-57954714D01*
X97256137Y-57792823D01*
X97044876Y-57705100D01*
X96816127Y-57704900D01*
X96604714Y-57792254D01*
X96442823Y-57953863D01*
X96355100Y-58165124D01*
X96354900Y-58393873D01*
X96442254Y-58605286D01*
X96603863Y-58767177D01*
X96815124Y-58854900D01*
X97043873Y-58855100D01*
X97255286Y-58767746D01*
X97417177Y-58606137D01*
X97504900Y-58394876D01*
X97505100Y-58166127D01*
X97505100Y-79900000D01*
X95075100Y-79900000D01*
X95075100Y-47936127D01*
X94987746Y-47724714D01*
X94826137Y-47562823D01*
X94614876Y-47475100D01*
X94386127Y-47474900D01*
X94174714Y-47562254D01*
X94012823Y-47723863D01*
X93925100Y-47935124D01*
X93924900Y-48163873D01*
X94012254Y-48375286D01*
X94173863Y-48537177D01*
X94385124Y-48624900D01*
X94613873Y-48625100D01*
X94825286Y-48537746D01*
X94987177Y-48376137D01*
X95074900Y-48164876D01*
X95075100Y-47936127D01*
X95075100Y-79900000D01*
X93172945Y-79900000D01*
X93172945Y-64848127D01*
X93095091Y-64659705D01*
X93095091Y-51716029D01*
X93015333Y-51523000D01*
X92867777Y-51375186D01*
X92674887Y-51295092D01*
X92466029Y-51294909D01*
X92415012Y-51315988D01*
X92415091Y-51226039D01*
X92335333Y-51033010D01*
X92187777Y-50885196D01*
X91994887Y-50805102D01*
X91795091Y-50804926D01*
X91795091Y-47026029D01*
X91715333Y-46833000D01*
X91567777Y-46685186D01*
X91374887Y-46605092D01*
X91166029Y-46604909D01*
X90973000Y-46684667D01*
X90825186Y-46832223D01*
X90745092Y-47025113D01*
X90744909Y-47233971D01*
X90824667Y-47427000D01*
X90972223Y-47574814D01*
X91165113Y-47654908D01*
X91373971Y-47655091D01*
X91567000Y-47575333D01*
X91714814Y-47427777D01*
X91794908Y-47234887D01*
X91795091Y-47026029D01*
X91795091Y-50804926D01*
X91786029Y-50804919D01*
X91593000Y-50884677D01*
X91445186Y-51032233D01*
X91365092Y-51225123D01*
X91364909Y-51433981D01*
X91444667Y-51627010D01*
X91592223Y-51774824D01*
X91785113Y-51854918D01*
X91993971Y-51855101D01*
X92044987Y-51834021D01*
X92044909Y-51923971D01*
X92124667Y-52117000D01*
X92272223Y-52264814D01*
X92465113Y-52344908D01*
X92673971Y-52345091D01*
X92867000Y-52265333D01*
X93014814Y-52117777D01*
X93094908Y-51924887D01*
X93095091Y-51716029D01*
X93095091Y-64659705D01*
X93085591Y-64636714D01*
X92923982Y-64474823D01*
X92712721Y-64387100D01*
X92483972Y-64386900D01*
X92272559Y-64474254D01*
X92110668Y-64635863D01*
X92022945Y-64847124D01*
X92022745Y-65075873D01*
X92110099Y-65287286D01*
X92271708Y-65449177D01*
X92482969Y-65536900D01*
X92711718Y-65537100D01*
X92923131Y-65449746D01*
X93085022Y-65288137D01*
X93172745Y-65076876D01*
X93172945Y-64848127D01*
X93172945Y-79900000D01*
X91115091Y-79900000D01*
X91115091Y-50326019D01*
X91035333Y-50132990D01*
X90887777Y-49985176D01*
X90694887Y-49905082D01*
X90486029Y-49904899D01*
X90293000Y-49984657D01*
X90145186Y-50132213D01*
X90065092Y-50325103D01*
X90064909Y-50533961D01*
X90144667Y-50726990D01*
X90292223Y-50874804D01*
X90485113Y-50954898D01*
X90693971Y-50955081D01*
X90887000Y-50875323D01*
X91034814Y-50727767D01*
X91114908Y-50534877D01*
X91115091Y-50326019D01*
X91115091Y-79900000D01*
X89845091Y-79900000D01*
X89845091Y-50776029D01*
X89765333Y-50583000D01*
X89617777Y-50435186D01*
X89424887Y-50355092D01*
X89216029Y-50354909D01*
X89023000Y-50434667D01*
X88875186Y-50582223D01*
X88795092Y-50775113D01*
X88794909Y-50983971D01*
X88874667Y-51177000D01*
X89022223Y-51324814D01*
X89215113Y-51404908D01*
X89423971Y-51405091D01*
X89617000Y-51325333D01*
X89764814Y-51177777D01*
X89844908Y-50984887D01*
X89845091Y-50776029D01*
X89845091Y-79900000D01*
X89325103Y-79900000D01*
X89325103Y-54886127D01*
X89237749Y-54674714D01*
X89076140Y-54512823D01*
X88864879Y-54425100D01*
X88636130Y-54424900D01*
X88424717Y-54512254D01*
X88375056Y-54561827D01*
X88326137Y-54512823D01*
X88114876Y-54425100D01*
X87886127Y-54424900D01*
X87674714Y-54512254D01*
X87512823Y-54673863D01*
X87425100Y-54885124D01*
X87424900Y-55113873D01*
X87512254Y-55325286D01*
X87673863Y-55487177D01*
X87885124Y-55574900D01*
X88113873Y-55575100D01*
X88325286Y-55487746D01*
X88374946Y-55438172D01*
X88423866Y-55487177D01*
X88635127Y-55574900D01*
X88863876Y-55575100D01*
X89075289Y-55487746D01*
X89237180Y-55326137D01*
X89324903Y-55114876D01*
X89325103Y-54886127D01*
X89325103Y-79900000D01*
X88775100Y-79900000D01*
X88775100Y-62936127D01*
X88687746Y-62724714D01*
X88526137Y-62562823D01*
X88314876Y-62475100D01*
X88086127Y-62474900D01*
X87874714Y-62562254D01*
X87712823Y-62723863D01*
X87625100Y-62935124D01*
X87624900Y-63163873D01*
X87712254Y-63375286D01*
X87873863Y-63537177D01*
X88085124Y-63624900D01*
X88313873Y-63625100D01*
X88525286Y-63537746D01*
X88687177Y-63376137D01*
X88774900Y-63164876D01*
X88775100Y-62936127D01*
X88775100Y-79900000D01*
X82625924Y-79900000D01*
X83716858Y-79449235D01*
X84645973Y-78521741D01*
X85149426Y-77309290D01*
X85150572Y-75996469D01*
X84649235Y-74783142D01*
X83721741Y-73854027D01*
X82509290Y-73350574D01*
X81196469Y-73349428D01*
X79983142Y-73850765D01*
X79054027Y-74778259D01*
X78600000Y-75871678D01*
X78600000Y-63850000D01*
X84450000Y-63850000D01*
X84450000Y-57825305D01*
X84481226Y-57825333D01*
X85189000Y-57532887D01*
X85730984Y-56991849D01*
X86024665Y-56284586D01*
X86025333Y-55518774D01*
X85732887Y-54811000D01*
X85191849Y-54269016D01*
X84484586Y-53975335D01*
X84450000Y-53975304D01*
X84450000Y-47860861D01*
X85847639Y-47137944D01*
X87326364Y-46300000D01*
X98240183Y-46300000D01*
X98239810Y-46727844D01*
X98406922Y-47132286D01*
X98716087Y-47441991D01*
X99120237Y-47609808D01*
X99557844Y-47610190D01*
X99962286Y-47443078D01*
X100271991Y-47133913D01*
X100439808Y-46729763D01*
X100440183Y-46300000D01*
X101124326Y-46300000D01*
X101256087Y-46431991D01*
X101455988Y-46514996D01*
X101257714Y-46596922D01*
X100948009Y-46906087D01*
X100780192Y-47310237D01*
X100779810Y-47747844D01*
X100946922Y-48152286D01*
X101256087Y-48461991D01*
X101660237Y-48629808D01*
X102097844Y-48630190D01*
X102502286Y-48463078D01*
X102811991Y-48153913D01*
X102979808Y-47749763D01*
X102980190Y-47312156D01*
X102813078Y-46907714D01*
X102503913Y-46598009D01*
X102304011Y-46515003D01*
X102502286Y-46433078D01*
X102635596Y-46300000D01*
X109750000Y-46300000D01*
X109750000Y-46350000D01*
X109750000Y-52900000D01*
X111350000Y-52900000D01*
X135050000Y-52900000D01*
X135050000Y-32050000D01*
X135050000Y-31600000D01*
X172732057Y-31600000D01*
X171883142Y-31950765D01*
X170954027Y-32878259D01*
X170450574Y-34090710D01*
X170449428Y-35403531D01*
X170950765Y-36616858D01*
X171878259Y-37545973D01*
X173090710Y-38049426D01*
X174403531Y-38050572D01*
X175616858Y-37549235D01*
X176545973Y-36621741D01*
X177049426Y-35409290D01*
X177050572Y-34096469D01*
X176549235Y-32883142D01*
X175621741Y-31954027D01*
X174769148Y-31600000D01*
X177100103Y-31600000D01*
X177149897Y-79900000D01*
M02*
