%FSLAX46Y46*%
G04 Gerber Fmt 4.6, Leading zero omitted, Abs format (unit mm)*
G04 Created by KiCad (PCBNEW (2014-08-12 BZR 5067)-product) date Tue 26 Aug 2014 12:58:06 PM EDT*
%MOMM*%
G01*
G04 APERTURE LIST*
%ADD10C,0.100000*%
%ADD11C,0.187500*%
%ADD12C,1.150000*%
%ADD13C,1.600000*%
%ADD14C,2.200000*%
%ADD15C,1.300000*%
%ADD16C,0.900000*%
%ADD17C,1.143000*%
%ADD18C,1.998980*%
%ADD19C,6.000000*%
%ADD20C,0.889000*%
%ADD21C,0.550000*%
%ADD22C,0.450000*%
%ADD23C,0.250000*%
%ADD24C,0.150000*%
%ADD25C,0.200000*%
G04 APERTURE END LIST*
D10*
D11*
X120855714Y-78670714D02*
X120891428Y-78635000D01*
X120962857Y-78599286D01*
X121141428Y-78599286D01*
X121212857Y-78635000D01*
X121248571Y-78670714D01*
X121284286Y-78742143D01*
X121284286Y-78813571D01*
X121248571Y-78920714D01*
X120820000Y-79349286D01*
X121284286Y-79349286D01*
D12*
X130750000Y-51150000D03*
X138250000Y-51150000D03*
D13*
X99340000Y-54630000D03*
X99340000Y-52600000D03*
X99340000Y-46510000D03*
X99340000Y-44480000D03*
X101880000Y-55650000D03*
X101880000Y-53620000D03*
X101880000Y-51590000D03*
X101880000Y-47530000D03*
X101880000Y-45500000D03*
D14*
X80930000Y-57610000D03*
X80930000Y-41480000D03*
D15*
X160500000Y-55250000D03*
X162500000Y-55250000D03*
X164500000Y-55250000D03*
X158500000Y-55250000D03*
X156500000Y-55250000D03*
D16*
X157100000Y-77750000D03*
X158100000Y-76750000D03*
X159100000Y-77750000D03*
X160100000Y-76750000D03*
X161100000Y-77750000D03*
X162100000Y-76750000D03*
X163100000Y-77750000D03*
X164100000Y-76750000D03*
X157100000Y-75750000D03*
X160100000Y-74750000D03*
X159100000Y-75750000D03*
X158100000Y-74750000D03*
X162100000Y-74750000D03*
X161100000Y-75750000D03*
X163100000Y-75750000D03*
X164100000Y-74750000D03*
X175200000Y-68000000D03*
X174200000Y-67000000D03*
X175200000Y-66000000D03*
X174200000Y-65000000D03*
X175200000Y-64000000D03*
X174200000Y-63000000D03*
X175200000Y-62000000D03*
X174200000Y-61000000D03*
X173200000Y-68000000D03*
X172200000Y-65000000D03*
X173200000Y-66000000D03*
X172200000Y-67000000D03*
X172200000Y-63000000D03*
X173200000Y-64000000D03*
X173200000Y-62000000D03*
X172200000Y-61000000D03*
D17*
X99050000Y-31800000D03*
X99000000Y-38150000D03*
X145900000Y-40250000D03*
X155050000Y-33400000D03*
X147500000Y-57700000D03*
X110550000Y-68180000D03*
D18*
X172350000Y-49050060D03*
X172350000Y-45549940D03*
D19*
X173750000Y-34750000D03*
X81850000Y-76650000D03*
X173700000Y-76600000D03*
X81900000Y-34750000D03*
D20*
X106697158Y-32900080D03*
D21*
X112058437Y-35440104D03*
X114700000Y-36800000D03*
X130000000Y-45300000D03*
X130000000Y-44650000D03*
X130700000Y-44650000D03*
X130700000Y-45300000D03*
X127400000Y-46150000D03*
X128800000Y-42050000D03*
X129650000Y-42050000D03*
X130400000Y-42050000D03*
X130400000Y-41350000D03*
X129650000Y-41350000D03*
X128800000Y-41350000D03*
X110550000Y-35150000D03*
X110550000Y-35850000D03*
X110000000Y-35150000D03*
X110000000Y-35850000D03*
X111100000Y-35150000D03*
X111100000Y-35850000D03*
X107950000Y-38650000D03*
X114400000Y-33750000D03*
X122400000Y-37850000D03*
X115500000Y-36900000D03*
X106750000Y-35300000D03*
X150810000Y-44200000D03*
X133700000Y-57490000D03*
X133697387Y-56650000D03*
X133700000Y-55680000D03*
X134680000Y-55690000D03*
X134680304Y-56650000D03*
X134680000Y-57470000D03*
X135580000Y-57470000D03*
X135590244Y-56650000D03*
X135590000Y-55690000D03*
X158200000Y-33670000D03*
X158190000Y-34480000D03*
X157290000Y-34470000D03*
X157290000Y-33680000D03*
X157290000Y-32930000D03*
X158170000Y-32920000D03*
D22*
X163460000Y-56070000D03*
X176960000Y-56340000D03*
X176110000Y-56340000D03*
X176110000Y-55530000D03*
X176930000Y-55530000D03*
X176930000Y-54710000D03*
X176080000Y-54710000D03*
X153480000Y-66250000D03*
D21*
X159060000Y-60680000D03*
X165240000Y-62060000D03*
X156500000Y-67180000D03*
X160390000Y-68520000D03*
X167630000Y-67760000D03*
X123840000Y-61930000D03*
X153520000Y-78600000D03*
X112120000Y-61800000D03*
X111100000Y-61800000D03*
X109910000Y-61790000D03*
X108700000Y-61790000D03*
X149070000Y-31950000D03*
X143750000Y-62850000D03*
X143750000Y-63620000D03*
X143800000Y-67160000D03*
X144590000Y-67150000D03*
X144590000Y-67930000D03*
X143800000Y-67930000D03*
X143010000Y-67940000D03*
X143020000Y-67160000D03*
X144520000Y-63640000D03*
X144520000Y-62840000D03*
X142950000Y-62890000D03*
X142950000Y-63630000D03*
X148320000Y-63390000D03*
X148320000Y-64140000D03*
X149220000Y-64130000D03*
X149220000Y-63370000D03*
X141670000Y-54830000D03*
X141670000Y-55790000D03*
X142790000Y-54800000D03*
X142770000Y-55800000D03*
X142780000Y-56640000D03*
X141670000Y-56650000D03*
X142790000Y-53940000D03*
X141670000Y-53950000D03*
X139900000Y-51140000D03*
X139900000Y-52250000D03*
X143100000Y-47220000D03*
X153000000Y-41000000D03*
X152050000Y-41000000D03*
X151150000Y-41000000D03*
X150300000Y-41000000D03*
X151150000Y-40100000D03*
X152050000Y-40100000D03*
X153000000Y-40100000D03*
X150300000Y-40100000D03*
X112750000Y-55800000D03*
X105950000Y-46900000D03*
X93300000Y-54850000D03*
X92600000Y-54850000D03*
X91900000Y-54850000D03*
X91250000Y-54850000D03*
X89150000Y-47150000D03*
X151810000Y-68390000D03*
X146060000Y-71710000D03*
X166280000Y-60080000D03*
X156290000Y-59070000D03*
X156430000Y-68690000D03*
X163930000Y-68900000D03*
X165270000Y-68900000D03*
X96930000Y-58280000D03*
X96930000Y-56350000D03*
X92597845Y-64962000D03*
X88200000Y-63050000D03*
D22*
X146640000Y-60380000D03*
X147250000Y-60370000D03*
X147250000Y-59740000D03*
X146660000Y-59750000D03*
X146660000Y-58680000D03*
X146660000Y-59160000D03*
X147250000Y-59160000D03*
X147860000Y-59160000D03*
X148540000Y-58680500D03*
X148540000Y-59156108D03*
D21*
X106700000Y-38450000D03*
X122450000Y-44850000D03*
X122450000Y-41950000D03*
X88000000Y-55000000D03*
X88750003Y-55000000D03*
D20*
X104750000Y-50900000D03*
D21*
X94500000Y-48050000D03*
D22*
X167700000Y-63770000D03*
X168035161Y-63272337D03*
X156489364Y-64267811D03*
X156090000Y-64750000D03*
X159170000Y-66140000D03*
X160200000Y-66480000D03*
X171020000Y-66900000D03*
X165050000Y-59200010D03*
X168263392Y-62717438D03*
X157748205Y-65771795D03*
X156059567Y-65355976D03*
X156110000Y-63740000D03*
X170474980Y-63340000D03*
X162400000Y-64210010D03*
X163450000Y-59980000D03*
X163160000Y-60690000D03*
X170474971Y-66324999D03*
X170474971Y-64670011D03*
X161718201Y-62041790D03*
X157370000Y-71470000D03*
X160423205Y-61986795D03*
X158490000Y-61690000D03*
X158040000Y-71500000D03*
X158610000Y-72050000D03*
D21*
X124250000Y-33500000D03*
X124250000Y-34100000D03*
X124250000Y-34700000D03*
X120200000Y-36750000D03*
X105850000Y-37800000D03*
X114400000Y-35150000D03*
X120450000Y-45450000D03*
X147573719Y-66562000D03*
D22*
X167550000Y-68580000D03*
X89320000Y-50880000D03*
X161400000Y-65730000D03*
X90590000Y-50429990D03*
X161920000Y-65279990D03*
X91270000Y-47130000D03*
X158946795Y-64703205D03*
X91890000Y-51330010D03*
X159490000Y-65380000D03*
X92570000Y-51820000D03*
X168110000Y-72510000D03*
X165770000Y-69930000D03*
D23*
X110182581Y-33344579D02*
X112100000Y-35261998D01*
X107141657Y-33344579D02*
X110182581Y-33344579D01*
X106697158Y-32900080D02*
X107141657Y-33344579D01*
X112100000Y-35398541D02*
X112058437Y-35440104D01*
X112100000Y-35261998D02*
X112100000Y-35398541D01*
X122400000Y-37850000D02*
X120700000Y-36150000D01*
X120700000Y-36150000D02*
X116250000Y-36150000D01*
X116250000Y-36150000D02*
X115500000Y-36900000D01*
X110661998Y-37400000D02*
X108561998Y-35300000D01*
X115388908Y-37400000D02*
X110661998Y-37400000D01*
X115500000Y-37288908D02*
X115388908Y-37400000D01*
X115500000Y-36900000D02*
X115500000Y-37288908D01*
X108561998Y-35300000D02*
X106750000Y-35300000D01*
D24*
X122450000Y-41950000D02*
X119700001Y-39200001D01*
X119700001Y-39200001D02*
X107450001Y-39200001D01*
X107450001Y-39200001D02*
X106700000Y-38450000D01*
D25*
X122450000Y-44850000D02*
X122450000Y-41950000D01*
D24*
X99340000Y-52600000D02*
X99340000Y-50760000D01*
X99340000Y-50760000D02*
X100250000Y-49850000D01*
X100250000Y-49850000D02*
X100300000Y-49800000D01*
X100300000Y-49800000D02*
X104150000Y-49800000D01*
X104150000Y-49800000D02*
X104550000Y-50200000D01*
X104750000Y-50400000D02*
X104750000Y-50900000D01*
X104550000Y-50200000D02*
X104750000Y-50400000D01*
X156489364Y-64267811D02*
X156489364Y-64026638D01*
X156489364Y-64026638D02*
X156560001Y-63956001D01*
X156560001Y-63956001D02*
X156560001Y-63523999D01*
X158463604Y-77750000D02*
X159100000Y-77750000D01*
X156560001Y-63523999D02*
X156326001Y-63289999D01*
X156326001Y-63289999D02*
X154865723Y-63289999D01*
X153979990Y-73628992D02*
X158100998Y-77750000D01*
X154865723Y-63289999D02*
X153979990Y-64175732D01*
X153979990Y-64175732D02*
X153979990Y-73628992D01*
X158100998Y-77750000D02*
X158463604Y-77750000D01*
X156090000Y-64750000D02*
X159424999Y-68084999D01*
X159424999Y-68084999D02*
X159424999Y-75075997D01*
X159424999Y-75075997D02*
X160100000Y-75750998D01*
X160100000Y-75750998D02*
X160100000Y-76113604D01*
X160100000Y-76113604D02*
X160100000Y-76750000D01*
X159170000Y-66140000D02*
X160890001Y-67860001D01*
X160890001Y-67860001D02*
X160890001Y-74540999D01*
X160890001Y-74540999D02*
X161775001Y-75425999D01*
X161775001Y-75425999D02*
X161775001Y-76074999D01*
X161775001Y-76074999D02*
X161100000Y-76750000D01*
X161100000Y-76750000D02*
X161100000Y-77113604D01*
X161100000Y-77113604D02*
X161100000Y-77750000D01*
X160200000Y-66480000D02*
X162775001Y-69055001D01*
X162775001Y-69055001D02*
X162775001Y-75074001D01*
X162775001Y-75074001D02*
X162100000Y-75749002D01*
X162100000Y-75749002D02*
X162100000Y-76113604D01*
X162100000Y-76113604D02*
X162100000Y-76750000D01*
X157748205Y-65771795D02*
X159889999Y-67913589D01*
X159889999Y-73903603D02*
X160100000Y-74113604D01*
X160100000Y-74113604D02*
X160100000Y-74750000D01*
X159889999Y-67913589D02*
X159889999Y-73903603D01*
X156059567Y-65355976D02*
X159100000Y-68396409D01*
X159100000Y-68396409D02*
X159100000Y-75750000D01*
X154280000Y-64300000D02*
X154280000Y-70930000D01*
X154280000Y-70930000D02*
X158100000Y-74750000D01*
X154840000Y-63740000D02*
X154280000Y-64300000D01*
X156110000Y-63740000D02*
X154840000Y-63740000D01*
X169770000Y-65000000D02*
X169770000Y-72079002D01*
X169770000Y-72079002D02*
X163424001Y-78425001D01*
X163424001Y-78425001D02*
X160775999Y-78425001D01*
X160775999Y-78425001D02*
X160424999Y-78074001D01*
X160424999Y-78074001D02*
X160424999Y-77424003D01*
X160799990Y-77049012D02*
X160799990Y-76050010D01*
X160424999Y-77424003D02*
X160799990Y-77049012D01*
X160799990Y-76050010D02*
X161100000Y-75750000D01*
X169290011Y-64520011D02*
X169770000Y-65000000D01*
X162400000Y-64210010D02*
X162710001Y-64520011D01*
X162710001Y-64520011D02*
X169290011Y-64520011D01*
X161718201Y-62041790D02*
X162036399Y-62041790D01*
X172875999Y-62675001D02*
X173525997Y-62675001D01*
X162036399Y-62041790D02*
X162518190Y-61559999D01*
X162518190Y-61559999D02*
X171760997Y-61559999D01*
X171760997Y-61559999D02*
X172875999Y-62675001D01*
X173525997Y-62675001D02*
X174200998Y-62000000D01*
X174200998Y-62000000D02*
X174563604Y-62000000D01*
X174563604Y-62000000D02*
X175200000Y-62000000D01*
X161026795Y-61986795D02*
X161600001Y-62560001D01*
X161600001Y-62560001D02*
X167754827Y-62560001D01*
X167754827Y-62560001D02*
X168047391Y-62267437D01*
X168047391Y-62267437D02*
X171467437Y-62267437D01*
X171467437Y-62267437D02*
X171750001Y-62550001D01*
X171750001Y-62550001D02*
X172200000Y-63000000D01*
X160423205Y-61986795D02*
X161026795Y-61986795D01*
X158490000Y-61690000D02*
X159490000Y-61690000D01*
X161560000Y-63760000D02*
X167023998Y-63760000D01*
X167483999Y-64220001D02*
X172343603Y-64220001D01*
X159490000Y-61690000D02*
X161560000Y-63760000D01*
X167023998Y-63760000D02*
X167483999Y-64220001D01*
X172343603Y-64220001D02*
X172563604Y-64000000D01*
X172563604Y-64000000D02*
X173200000Y-64000000D01*
X105850000Y-37800000D02*
X107600000Y-37800000D01*
X107600000Y-37800000D02*
X107600008Y-37800008D01*
X107600008Y-37800008D02*
X119149992Y-37800008D01*
X119149992Y-37800008D02*
X120200000Y-36750000D01*
D25*
X120450000Y-45450000D02*
X122701002Y-45450000D01*
X123025001Y-37623999D02*
X120551002Y-35150000D01*
X122701002Y-45450000D02*
X123025001Y-45126001D01*
X123025001Y-45126001D02*
X123025001Y-37623999D01*
X120551002Y-35150000D02*
X114400000Y-35150000D01*
D24*
X157219999Y-62339999D02*
X163279999Y-68399999D01*
X163279999Y-68399999D02*
X167369999Y-68399999D01*
X167369999Y-68399999D02*
X167550000Y-68580000D01*
X89320000Y-50880000D02*
X94072998Y-50880000D01*
X94072998Y-50880000D02*
X105622999Y-62430001D01*
X105622999Y-62430001D02*
X142669997Y-62430001D01*
X142669997Y-62430001D02*
X142759999Y-62339999D01*
X142759999Y-62339999D02*
X157219999Y-62339999D01*
X124669991Y-62129991D02*
X124759993Y-62039989D01*
X124759993Y-62039989D02*
X157709989Y-62039989D01*
X157709989Y-62039989D02*
X161400000Y-65730000D01*
X124500000Y-61849998D02*
X124500000Y-61960000D01*
X124500000Y-61960000D02*
X124669991Y-62129991D01*
X123250000Y-62120000D02*
X123339999Y-62030001D01*
X123339999Y-62030001D02*
X123339999Y-61689999D01*
X123339999Y-61689999D02*
X123599999Y-61429999D01*
X123599999Y-61429999D02*
X124080001Y-61429999D01*
X124080001Y-61429999D02*
X124500000Y-61849998D01*
X117630000Y-62120000D02*
X123250000Y-62120000D01*
X105009991Y-49499991D02*
X117630000Y-62120000D01*
X90590000Y-50429990D02*
X97869980Y-50429990D01*
X97869980Y-50429990D02*
X98799979Y-49499991D01*
X98799979Y-49499991D02*
X105009991Y-49499991D01*
X124800009Y-61725729D02*
X157820007Y-61725729D01*
X161374268Y-65279990D02*
X161920000Y-65279990D01*
X157820007Y-61725729D02*
X161374268Y-65279990D01*
X122989990Y-61819990D02*
X122990010Y-61819990D01*
X122990010Y-61819990D02*
X123039989Y-61770011D01*
X123039989Y-61770011D02*
X123039990Y-61565730D01*
X123039990Y-61565730D02*
X123475731Y-61129989D01*
X123475731Y-61129989D02*
X124204270Y-61129990D01*
X124204270Y-61129990D02*
X124800009Y-61725729D01*
X117754268Y-61819990D02*
X122989990Y-61819990D01*
X105134260Y-49199982D02*
X117754268Y-61819990D01*
X98830000Y-49140000D02*
X105074278Y-49140000D01*
X105074278Y-49140000D02*
X105134260Y-49199982D01*
X96820000Y-47130000D02*
X98830000Y-49140000D01*
X91270000Y-47130000D02*
X96820000Y-47130000D01*
X157095731Y-62640009D02*
X158946795Y-64491073D01*
X158946795Y-64491073D02*
X158946795Y-64703205D01*
X153199991Y-62640009D02*
X157095731Y-62640009D01*
X105588720Y-62820000D02*
X107408721Y-64640001D01*
X107408721Y-64640001D02*
X151199999Y-64640001D01*
X151199999Y-64640001D02*
X153199991Y-62640009D01*
X91890000Y-51330010D02*
X94098730Y-51330010D01*
X94098730Y-51330010D02*
X105588720Y-62820000D01*
X151324268Y-64940010D02*
X153274289Y-62989989D01*
X153274289Y-62989989D02*
X156567577Y-62989989D01*
X156567577Y-62989989D02*
X158957588Y-65380000D01*
X158957588Y-65380000D02*
X159490000Y-65380000D01*
X94164442Y-51820000D02*
X107284453Y-64940011D01*
X107284453Y-64940011D02*
X151324268Y-64940010D01*
X92570000Y-51820000D02*
X94164442Y-51820000D01*
X165770000Y-70660000D02*
X167620000Y-72510000D01*
X167620000Y-72510000D02*
X168110000Y-72510000D01*
X165770000Y-69930000D02*
X165770000Y-70660000D01*
D25*
G36*
X173800000Y-50300000D02*
X149900000Y-50300000D01*
X149900000Y-61100000D01*
X146200000Y-61100000D01*
X146200000Y-48600000D01*
X146200000Y-47800000D01*
X173800000Y-47800000D01*
X173800000Y-50300000D01*
X173800000Y-50300000D01*
G37*
X173800000Y-50300000D02*
X149900000Y-50300000D01*
X149900000Y-61100000D01*
X146200000Y-61100000D01*
X146200000Y-48600000D01*
X146200000Y-47800000D01*
X173800000Y-47800000D01*
X173800000Y-50300000D01*
M02*
