%FSLAX46Y46*%
G04 Gerber Fmt 4.6, Leading zero omitted, Abs format (unit mm)*
G04 Created by KiCad (PCBNEW (2014-08-12 BZR 5067)-product) date Tue 26 Aug 2014 12:58:25 PM EDT*
%MOMM*%
G01*
G04 APERTURE LIST*
%ADD10C,0.100000*%
G04 APERTURE END LIST*
D10*
G36*
X82100584Y-41367911D02*
X82096995Y-41624963D01*
X82045370Y-41852189D01*
X81952614Y-42060524D01*
X81820444Y-42247886D01*
X81652601Y-42407722D01*
X81462138Y-42528593D01*
X81242568Y-42613759D01*
X81242567Y-42613759D01*
X81024047Y-42652289D01*
X80788592Y-42647357D01*
X80568276Y-42598918D01*
X80355887Y-42506128D01*
X80167607Y-42375269D01*
X80009191Y-42211224D01*
X79882963Y-42015357D01*
X79800375Y-41806765D01*
X79757861Y-41575125D01*
X79760977Y-41352032D01*
X79809683Y-41122886D01*
X79899034Y-40914416D01*
X80029274Y-40724204D01*
X80193984Y-40562909D01*
X80383772Y-40438714D01*
X80600978Y-40350958D01*
X80820138Y-40309150D01*
X81055648Y-40310795D01*
X81275407Y-40355905D01*
X81490217Y-40446203D01*
X81679280Y-40573728D01*
X81840846Y-40736425D01*
X81969106Y-40929472D01*
X82055067Y-41138028D01*
X82100584Y-41367911D01*
X82100584Y-41367911D01*
G37*
G36*
X82100584Y-57497911D02*
X82096995Y-57754963D01*
X82045370Y-57982189D01*
X81952614Y-58190524D01*
X81820444Y-58377886D01*
X81652601Y-58537722D01*
X81462138Y-58658593D01*
X81242568Y-58743759D01*
X81242567Y-58743759D01*
X81024047Y-58782289D01*
X80788592Y-58777357D01*
X80568276Y-58728918D01*
X80355887Y-58636128D01*
X80167607Y-58505269D01*
X80009191Y-58341224D01*
X79882963Y-58145357D01*
X79800375Y-57936765D01*
X79757861Y-57705125D01*
X79760977Y-57482032D01*
X79809683Y-57252886D01*
X79899034Y-57044416D01*
X80029274Y-56854204D01*
X80193984Y-56692909D01*
X80383772Y-56568714D01*
X80600978Y-56480958D01*
X80820138Y-56439150D01*
X81055648Y-56440795D01*
X81275407Y-56485905D01*
X81490217Y-56576203D01*
X81679280Y-56703728D01*
X81840846Y-56866425D01*
X81969106Y-57059472D01*
X82055067Y-57268028D01*
X82100584Y-57497911D01*
X82100584Y-57497911D01*
G37*
G36*
X84920665Y-76351606D02*
X84911134Y-77034249D01*
X84776957Y-77624824D01*
X84532648Y-78173554D01*
X84185693Y-78665392D01*
X83748018Y-79082186D01*
X83242950Y-79402711D01*
X82675987Y-79622622D01*
X82675986Y-79622622D01*
X82090519Y-79725855D01*
X81482536Y-79713120D01*
X80898303Y-79584668D01*
X80344469Y-79342705D01*
X79850221Y-78999193D01*
X79432969Y-78567115D01*
X79104895Y-78058045D01*
X78885141Y-77503010D01*
X78775364Y-76904882D01*
X78783682Y-76309216D01*
X78909858Y-75715603D01*
X79145995Y-75164655D01*
X79486747Y-74666998D01*
X79917676Y-74245003D01*
X80419250Y-73916781D01*
X80981933Y-73689443D01*
X81567103Y-73577815D01*
X82175212Y-73582060D01*
X82759971Y-73702095D01*
X83318276Y-73936784D01*
X83816245Y-74272669D01*
X84240364Y-74699759D01*
X84574823Y-75203161D01*
X84802775Y-75756211D01*
X84920665Y-76351606D01*
X84920665Y-76351606D01*
G37*
G36*
X84970665Y-34451606D02*
X84961134Y-35134249D01*
X84826957Y-35724824D01*
X84582648Y-36273554D01*
X84235693Y-36765392D01*
X83798018Y-37182186D01*
X83292950Y-37502711D01*
X82725987Y-37722622D01*
X82725986Y-37722622D01*
X82140519Y-37825855D01*
X81532536Y-37813120D01*
X80948303Y-37684668D01*
X80394469Y-37442705D01*
X79900221Y-37099193D01*
X79482969Y-36667115D01*
X79154895Y-36158045D01*
X78935141Y-35603010D01*
X78825364Y-35004882D01*
X78833682Y-34409216D01*
X78959858Y-33815603D01*
X79195995Y-33264655D01*
X79536747Y-32766998D01*
X79967676Y-32345003D01*
X80469250Y-32016781D01*
X81031933Y-31789443D01*
X81617103Y-31677815D01*
X82225212Y-31682060D01*
X82809971Y-31802095D01*
X83368276Y-32036784D01*
X83866245Y-32372669D01*
X84290364Y-32799759D01*
X84624823Y-33303161D01*
X84852775Y-33856211D01*
X84970665Y-34451606D01*
X84970665Y-34451606D01*
G37*
G36*
X85795607Y-43036432D02*
X85790376Y-43411082D01*
X85715940Y-43738707D01*
X85581308Y-44041098D01*
X85389789Y-44312592D01*
X85147387Y-44543429D01*
X84869994Y-44719467D01*
X84554434Y-44841866D01*
X84554433Y-44841866D01*
X84234519Y-44898274D01*
X83896129Y-44891186D01*
X83575257Y-44820638D01*
X83268522Y-44686629D01*
X82995698Y-44497011D01*
X82765761Y-44258904D01*
X82583760Y-43976494D01*
X82463271Y-43672174D01*
X82402172Y-43339268D01*
X82406725Y-43013228D01*
X82476836Y-42683374D01*
X82606747Y-42380271D01*
X82795155Y-42105108D01*
X83033425Y-41871777D01*
X83309365Y-41691207D01*
X83622031Y-41564882D01*
X83942326Y-41503781D01*
X84280790Y-41506145D01*
X84601405Y-41571958D01*
X84911128Y-41702153D01*
X85185547Y-41887251D01*
X85419660Y-42123004D01*
X85604896Y-42401807D01*
X85730091Y-42705552D01*
X85795607Y-43036432D01*
X85795607Y-43036432D01*
G37*
G36*
X85795607Y-55736432D02*
X85790376Y-56111082D01*
X85715940Y-56438707D01*
X85581308Y-56741098D01*
X85389789Y-57012592D01*
X85147387Y-57243429D01*
X84869994Y-57419467D01*
X84554434Y-57541866D01*
X84554433Y-57541866D01*
X84234519Y-57598274D01*
X83896129Y-57591186D01*
X83575257Y-57520638D01*
X83268522Y-57386629D01*
X82995698Y-57197011D01*
X82765761Y-56958904D01*
X82583760Y-56676494D01*
X82463271Y-56372174D01*
X82402172Y-56039268D01*
X82406725Y-55713228D01*
X82476836Y-55383374D01*
X82606747Y-55080271D01*
X82795155Y-54805108D01*
X83033425Y-54571777D01*
X83309365Y-54391207D01*
X83622031Y-54264882D01*
X83942326Y-54203781D01*
X84280790Y-54206145D01*
X84601405Y-54271958D01*
X84911128Y-54402153D01*
X85185547Y-54587251D01*
X85419660Y-54823004D01*
X85604896Y-55101807D01*
X85730091Y-55405552D01*
X85795607Y-55736432D01*
X85795607Y-55736432D01*
G37*
G36*
X87569539Y-60869480D02*
X87568780Y-60869480D01*
X86631220Y-60869480D01*
X86630460Y-60869480D01*
X86630460Y-59931920D01*
X86631220Y-59931920D01*
X87568780Y-59931920D01*
X87569539Y-59931920D01*
X87569539Y-60869480D01*
X87569539Y-60869480D01*
G37*
G36*
X87569539Y-62368080D02*
X87568780Y-62368080D01*
X86631220Y-62368080D01*
X86630460Y-62368080D01*
X86630460Y-61430520D01*
X86631220Y-61430520D01*
X87568780Y-61430520D01*
X87569539Y-61430520D01*
X87569539Y-62368080D01*
X87569539Y-62368080D01*
G37*
G36*
X87742259Y-63825500D02*
X87741500Y-63825500D01*
X86458500Y-63825500D01*
X86457740Y-63825500D01*
X86457740Y-63050500D01*
X86458500Y-63050500D01*
X87741500Y-63050500D01*
X87742259Y-63050500D01*
X87742259Y-63825500D01*
X87742259Y-63825500D01*
G37*
G36*
X87742259Y-65349500D02*
X87741500Y-65349500D01*
X86458500Y-65349500D01*
X86457740Y-65349500D01*
X86457740Y-64574500D01*
X86458500Y-64574500D01*
X87741500Y-64574500D01*
X87742259Y-64574500D01*
X87742259Y-65349500D01*
X87742259Y-65349500D01*
G37*
G36*
X89819539Y-60869480D02*
X89818780Y-60869480D01*
X88881220Y-60869480D01*
X88880460Y-60869480D01*
X88880460Y-59931920D01*
X88881220Y-59931920D01*
X89818780Y-59931920D01*
X89819539Y-59931920D01*
X89819539Y-60869480D01*
X89819539Y-60869480D01*
G37*
G36*
X89819539Y-62368080D02*
X89818780Y-62368080D01*
X88881220Y-62368080D01*
X88880460Y-62368080D01*
X88880460Y-61430520D01*
X88881220Y-61430520D01*
X89818780Y-61430520D01*
X89819539Y-61430520D01*
X89819539Y-62368080D01*
X89819539Y-62368080D01*
G37*
G36*
X89992259Y-63825500D02*
X89991500Y-63825500D01*
X88708500Y-63825500D01*
X88707740Y-63825500D01*
X88707740Y-63050500D01*
X88708500Y-63050500D01*
X89991500Y-63050500D01*
X89992259Y-63050500D01*
X89992259Y-63825500D01*
X89992259Y-63825500D01*
G37*
G36*
X89992259Y-65349500D02*
X89991500Y-65349500D01*
X88708500Y-65349500D01*
X88707740Y-65349500D01*
X88707740Y-64574500D01*
X88708500Y-64574500D01*
X89991500Y-64574500D01*
X89992259Y-64574500D01*
X89992259Y-65349500D01*
X89992259Y-65349500D01*
G37*
G36*
X93170759Y-33920000D02*
X93170000Y-33920000D01*
X91330000Y-33920000D01*
X91329240Y-33920000D01*
X91329240Y-32980000D01*
X91330000Y-32980000D01*
X93170000Y-32980000D01*
X93170759Y-32980000D01*
X93170759Y-33920000D01*
X93170759Y-33920000D01*
G37*
G36*
X93170759Y-36420000D02*
X93170000Y-36420000D01*
X91330000Y-36420000D01*
X91329240Y-36420000D01*
X91329240Y-35480000D01*
X91330000Y-35480000D01*
X93170000Y-35480000D01*
X93170759Y-35480000D01*
X93170759Y-36420000D01*
X93170759Y-36420000D01*
G37*
G36*
X98170759Y-33920000D02*
X98170000Y-33920000D01*
X96330000Y-33920000D01*
X96329240Y-33920000D01*
X96329240Y-32980000D01*
X96330000Y-32980000D01*
X98170000Y-32980000D01*
X98170759Y-32980000D01*
X98170759Y-33920000D01*
X98170759Y-33920000D01*
G37*
G36*
X98170759Y-36420000D02*
X98170000Y-36420000D01*
X96330000Y-36420000D01*
X96329240Y-36420000D01*
X96329240Y-35480000D01*
X96330000Y-35480000D01*
X98170000Y-35480000D01*
X98170759Y-35480000D01*
X98170759Y-36420000D01*
X98170759Y-36420000D01*
G37*
G36*
X99642062Y-38089732D02*
X99640126Y-38228404D01*
X99611463Y-38354561D01*
X99560863Y-38468213D01*
X99488436Y-38570883D01*
X99395650Y-38659243D01*
X99292696Y-38724579D01*
X99169756Y-38772265D01*
X99169755Y-38772265D01*
X99053305Y-38792797D01*
X98921471Y-38790036D01*
X98802382Y-38763853D01*
X98684969Y-38712556D01*
X98581795Y-38640849D01*
X98495377Y-38551360D01*
X98425294Y-38442612D01*
X98380860Y-38330386D01*
X98357056Y-38200687D01*
X98358724Y-38081228D01*
X98385881Y-37953462D01*
X98434403Y-37840254D01*
X98506087Y-37735561D01*
X98596746Y-37646782D01*
X98699809Y-37579339D01*
X98820917Y-37530409D01*
X98938269Y-37508022D01*
X99070136Y-37508942D01*
X99188370Y-37533213D01*
X99307634Y-37583347D01*
X99410772Y-37652914D01*
X99499306Y-37742068D01*
X99570211Y-37848789D01*
X99616676Y-37961520D01*
X99642062Y-38089732D01*
X99642062Y-38089732D01*
G37*
G36*
X99692062Y-31739732D02*
X99690126Y-31878404D01*
X99661463Y-32004561D01*
X99610863Y-32118213D01*
X99538436Y-32220883D01*
X99445650Y-32309243D01*
X99342696Y-32374579D01*
X99219756Y-32422265D01*
X99219755Y-32422265D01*
X99103305Y-32442797D01*
X98971471Y-32440036D01*
X98852382Y-32413853D01*
X98734969Y-32362556D01*
X98631795Y-32290849D01*
X98545377Y-32201360D01*
X98475294Y-32092612D01*
X98430860Y-31980386D01*
X98407056Y-31850687D01*
X98408724Y-31731228D01*
X98435881Y-31603462D01*
X98484403Y-31490254D01*
X98556087Y-31385561D01*
X98646746Y-31296782D01*
X98749809Y-31229339D01*
X98870917Y-31180409D01*
X98988269Y-31158022D01*
X99120136Y-31158942D01*
X99238370Y-31183213D01*
X99357634Y-31233347D01*
X99460772Y-31302914D01*
X99549306Y-31392068D01*
X99620211Y-31498789D01*
X99666676Y-31611520D01*
X99692062Y-31739732D01*
X99692062Y-31739732D01*
G37*
G36*
X100210571Y-44397326D02*
X100207920Y-44587181D01*
X100169329Y-44757036D01*
X100100503Y-44911624D01*
X100002246Y-45050911D01*
X99877009Y-45170174D01*
X99736220Y-45259521D01*
X99571501Y-45323412D01*
X99571500Y-45323412D01*
X99410920Y-45351725D01*
X99234285Y-45348026D01*
X99071430Y-45312220D01*
X98912954Y-45242984D01*
X98772984Y-45145702D01*
X98655437Y-45023978D01*
X98561079Y-44877564D01*
X98500150Y-44723673D01*
X98468256Y-44549900D01*
X98470550Y-44385634D01*
X98507024Y-44214036D01*
X98573198Y-44059641D01*
X98670199Y-43917973D01*
X98792874Y-43797842D01*
X98933434Y-43705862D01*
X99096090Y-43640145D01*
X99257459Y-43609362D01*
X99434136Y-43610595D01*
X99596266Y-43643876D01*
X99756839Y-43711375D01*
X99897127Y-43806000D01*
X100017237Y-43926951D01*
X100112940Y-44070996D01*
X100176481Y-44225157D01*
X100210571Y-44397326D01*
X100210571Y-44397326D01*
G37*
G36*
X100210571Y-46427326D02*
X100207920Y-46617181D01*
X100169329Y-46787036D01*
X100100503Y-46941624D01*
X100002246Y-47080911D01*
X99877009Y-47200174D01*
X99736220Y-47289521D01*
X99571501Y-47353412D01*
X99571500Y-47353412D01*
X99410920Y-47381725D01*
X99234285Y-47378026D01*
X99071430Y-47342220D01*
X98912954Y-47272984D01*
X98772984Y-47175702D01*
X98655437Y-47053978D01*
X98561079Y-46907564D01*
X98500150Y-46753673D01*
X98468256Y-46579900D01*
X98470550Y-46415634D01*
X98507024Y-46244036D01*
X98573198Y-46089641D01*
X98670199Y-45947973D01*
X98792874Y-45827842D01*
X98933434Y-45735862D01*
X99096090Y-45670145D01*
X99257459Y-45639362D01*
X99434136Y-45640595D01*
X99596266Y-45673876D01*
X99756839Y-45741375D01*
X99897127Y-45836000D01*
X100017237Y-45956951D01*
X100112940Y-46100996D01*
X100176481Y-46255157D01*
X100210571Y-46427326D01*
X100210571Y-46427326D01*
G37*
G36*
X100210571Y-52517326D02*
X100207920Y-52707181D01*
X100169329Y-52877036D01*
X100100503Y-53031624D01*
X100002246Y-53170911D01*
X99877009Y-53290174D01*
X99736220Y-53379521D01*
X99571501Y-53443412D01*
X99571500Y-53443412D01*
X99410920Y-53471725D01*
X99234285Y-53468026D01*
X99071430Y-53432220D01*
X98912954Y-53362984D01*
X98772984Y-53265702D01*
X98655437Y-53143978D01*
X98561079Y-52997564D01*
X98500150Y-52843673D01*
X98468256Y-52669900D01*
X98470550Y-52505634D01*
X98507024Y-52334036D01*
X98573198Y-52179641D01*
X98670199Y-52037973D01*
X98792874Y-51917842D01*
X98933434Y-51825862D01*
X99096090Y-51760145D01*
X99257459Y-51729362D01*
X99434136Y-51730595D01*
X99596266Y-51763876D01*
X99756839Y-51831375D01*
X99897127Y-51926000D01*
X100017237Y-52046951D01*
X100112940Y-52190996D01*
X100176481Y-52345157D01*
X100210571Y-52517326D01*
X100210571Y-52517326D01*
G37*
G36*
X100210571Y-54547326D02*
X100207920Y-54737181D01*
X100169329Y-54907036D01*
X100100503Y-55061624D01*
X100002246Y-55200911D01*
X99877009Y-55320174D01*
X99736220Y-55409521D01*
X99571501Y-55473412D01*
X99571500Y-55473412D01*
X99410920Y-55501725D01*
X99234285Y-55498026D01*
X99071430Y-55462220D01*
X98912954Y-55392984D01*
X98772984Y-55295702D01*
X98655437Y-55173978D01*
X98561079Y-55027564D01*
X98500150Y-54873673D01*
X98468256Y-54699900D01*
X98470550Y-54535634D01*
X98507024Y-54364036D01*
X98573198Y-54209641D01*
X98670199Y-54067973D01*
X98792874Y-53947842D01*
X98933434Y-53855862D01*
X99096090Y-53790145D01*
X99257459Y-53759362D01*
X99434136Y-53760595D01*
X99596266Y-53793876D01*
X99756839Y-53861375D01*
X99897127Y-53956000D01*
X100017237Y-54076951D01*
X100112940Y-54220996D01*
X100176481Y-54375157D01*
X100210571Y-54547326D01*
X100210571Y-54547326D01*
G37*
G36*
X102750571Y-45417326D02*
X102747920Y-45607181D01*
X102709329Y-45777036D01*
X102640503Y-45931624D01*
X102542246Y-46070911D01*
X102417009Y-46190174D01*
X102276220Y-46279521D01*
X102111501Y-46343412D01*
X102111500Y-46343412D01*
X101950920Y-46371725D01*
X101774285Y-46368026D01*
X101611430Y-46332220D01*
X101452954Y-46262984D01*
X101312984Y-46165702D01*
X101195437Y-46043978D01*
X101101079Y-45897564D01*
X101040150Y-45743673D01*
X101008256Y-45569900D01*
X101010550Y-45405634D01*
X101047024Y-45234036D01*
X101113198Y-45079641D01*
X101210199Y-44937973D01*
X101332874Y-44817842D01*
X101473434Y-44725862D01*
X101636090Y-44660145D01*
X101797459Y-44629362D01*
X101974136Y-44630595D01*
X102136266Y-44663876D01*
X102296839Y-44731375D01*
X102437127Y-44826000D01*
X102557237Y-44946951D01*
X102652940Y-45090996D01*
X102716481Y-45245157D01*
X102750571Y-45417326D01*
X102750571Y-45417326D01*
G37*
G36*
X102750571Y-47447326D02*
X102747920Y-47637181D01*
X102709329Y-47807036D01*
X102640503Y-47961624D01*
X102542246Y-48100911D01*
X102417009Y-48220174D01*
X102276220Y-48309521D01*
X102111501Y-48373412D01*
X102111500Y-48373412D01*
X101950920Y-48401725D01*
X101774285Y-48398026D01*
X101611430Y-48362220D01*
X101452954Y-48292984D01*
X101312984Y-48195702D01*
X101195437Y-48073978D01*
X101101079Y-47927564D01*
X101040150Y-47773673D01*
X101008256Y-47599900D01*
X101010550Y-47435634D01*
X101047024Y-47264036D01*
X101113198Y-47109641D01*
X101210199Y-46967973D01*
X101332874Y-46847842D01*
X101473434Y-46755862D01*
X101636090Y-46690145D01*
X101797459Y-46659362D01*
X101974136Y-46660595D01*
X102136266Y-46693876D01*
X102296839Y-46761375D01*
X102437127Y-46856000D01*
X102557237Y-46976951D01*
X102652940Y-47120996D01*
X102716481Y-47275157D01*
X102750571Y-47447326D01*
X102750571Y-47447326D01*
G37*
G36*
X102750571Y-51507326D02*
X102747920Y-51697181D01*
X102709329Y-51867036D01*
X102640503Y-52021624D01*
X102542246Y-52160911D01*
X102417009Y-52280174D01*
X102276220Y-52369521D01*
X102111501Y-52433412D01*
X102111500Y-52433412D01*
X101950920Y-52461725D01*
X101774285Y-52458026D01*
X101611430Y-52422220D01*
X101452954Y-52352984D01*
X101312984Y-52255702D01*
X101195437Y-52133978D01*
X101101079Y-51987564D01*
X101040150Y-51833673D01*
X101008256Y-51659900D01*
X101010550Y-51495634D01*
X101047024Y-51324036D01*
X101113198Y-51169641D01*
X101210199Y-51027973D01*
X101332874Y-50907842D01*
X101473434Y-50815862D01*
X101636090Y-50750145D01*
X101797459Y-50719362D01*
X101974136Y-50720595D01*
X102136266Y-50753876D01*
X102296839Y-50821375D01*
X102437127Y-50916000D01*
X102557237Y-51036951D01*
X102652940Y-51180996D01*
X102716481Y-51335157D01*
X102750571Y-51507326D01*
X102750571Y-51507326D01*
G37*
G36*
X102750571Y-53537326D02*
X102747920Y-53727181D01*
X102709329Y-53897036D01*
X102640503Y-54051624D01*
X102542246Y-54190911D01*
X102417009Y-54310174D01*
X102276220Y-54399521D01*
X102111501Y-54463412D01*
X102111500Y-54463412D01*
X101950920Y-54491725D01*
X101774285Y-54488026D01*
X101611430Y-54452220D01*
X101452954Y-54382984D01*
X101312984Y-54285702D01*
X101195437Y-54163978D01*
X101101079Y-54017564D01*
X101040150Y-53863673D01*
X101008256Y-53689900D01*
X101010550Y-53525634D01*
X101047024Y-53354036D01*
X101113198Y-53199641D01*
X101210199Y-53057973D01*
X101332874Y-52937842D01*
X101473434Y-52845862D01*
X101636090Y-52780145D01*
X101797459Y-52749362D01*
X101974136Y-52750595D01*
X102136266Y-52783876D01*
X102296839Y-52851375D01*
X102437127Y-52946000D01*
X102557237Y-53066951D01*
X102652940Y-53210996D01*
X102716481Y-53365157D01*
X102750571Y-53537326D01*
X102750571Y-53537326D01*
G37*
G36*
X102750571Y-55567326D02*
X102747920Y-55757181D01*
X102709329Y-55927036D01*
X102640503Y-56081624D01*
X102542246Y-56220911D01*
X102417009Y-56340174D01*
X102276220Y-56429521D01*
X102111501Y-56493412D01*
X102111500Y-56493412D01*
X101950920Y-56521725D01*
X101774285Y-56518026D01*
X101611430Y-56482220D01*
X101452954Y-56412984D01*
X101312984Y-56315702D01*
X101195437Y-56193978D01*
X101101079Y-56047564D01*
X101040150Y-55893673D01*
X101008256Y-55719900D01*
X101010550Y-55555634D01*
X101047024Y-55384036D01*
X101113198Y-55229641D01*
X101210199Y-55087973D01*
X101332874Y-54967842D01*
X101473434Y-54875862D01*
X101636090Y-54810145D01*
X101797459Y-54779362D01*
X101974136Y-54780595D01*
X102136266Y-54813876D01*
X102296839Y-54881375D01*
X102437127Y-54976000D01*
X102557237Y-55096951D01*
X102652940Y-55240996D01*
X102716481Y-55395157D01*
X102750571Y-55567326D01*
X102750571Y-55567326D01*
G37*
G36*
X104370579Y-33770180D02*
X104369820Y-33770180D01*
X102030180Y-33770180D01*
X102029420Y-33770180D01*
X102029420Y-32029980D01*
X102030180Y-32029980D01*
X104369820Y-32029980D01*
X104370579Y-32029980D01*
X104370579Y-33770180D01*
X104370579Y-33770180D01*
G37*
G36*
X104370579Y-37570020D02*
X104369820Y-37570020D01*
X102030180Y-37570020D01*
X102029420Y-37570020D01*
X102029420Y-35829820D01*
X102030180Y-35829820D01*
X104369820Y-35829820D01*
X104370579Y-35829820D01*
X104370579Y-37570020D01*
X104370579Y-37570020D01*
G37*
G36*
X107176259Y-68161500D02*
X107175500Y-68161500D01*
X106400500Y-68161500D01*
X106399740Y-68161500D01*
X106399740Y-66878500D01*
X106400500Y-66878500D01*
X107175500Y-66878500D01*
X107176259Y-66878500D01*
X107176259Y-68161500D01*
X107176259Y-68161500D01*
G37*
G36*
X107259539Y-63379480D02*
X107258780Y-63379480D01*
X106321220Y-63379480D01*
X106320460Y-63379480D01*
X106320460Y-62441920D01*
X106321220Y-62441920D01*
X107258780Y-62441920D01*
X107259539Y-62441920D01*
X107259539Y-63379480D01*
X107259539Y-63379480D01*
G37*
G36*
X107259539Y-64878080D02*
X107258780Y-64878080D01*
X106321220Y-64878080D01*
X106320460Y-64878080D01*
X106320460Y-63940520D01*
X106321220Y-63940520D01*
X107258780Y-63940520D01*
X107259539Y-63940520D01*
X107259539Y-64878080D01*
X107259539Y-64878080D01*
G37*
G36*
X107262759Y-58868500D02*
X107262000Y-58868500D01*
X106233000Y-58868500D01*
X106232240Y-58868500D01*
X106232240Y-57331500D01*
X106233000Y-57331500D01*
X107262000Y-57331500D01*
X107262759Y-57331500D01*
X107262759Y-58868500D01*
X107262759Y-58868500D01*
G37*
G36*
X107276259Y-49341500D02*
X107275500Y-49341500D01*
X106500500Y-49341500D01*
X106499740Y-49341500D01*
X106499740Y-48058500D01*
X106500500Y-48058500D01*
X107275500Y-48058500D01*
X107276259Y-48058500D01*
X107276259Y-49341500D01*
X107276259Y-49341500D01*
G37*
G36*
X107276259Y-51541500D02*
X107275500Y-51541500D01*
X106500500Y-51541500D01*
X106499740Y-51541500D01*
X106499740Y-50258500D01*
X106500500Y-50258500D01*
X107275500Y-50258500D01*
X107276259Y-50258500D01*
X107276259Y-51541500D01*
X107276259Y-51541500D01*
G37*
G36*
X107326259Y-54291500D02*
X107325500Y-54291500D01*
X106550500Y-54291500D01*
X106549740Y-54291500D01*
X106549740Y-53008500D01*
X106550500Y-53008500D01*
X107325500Y-53008500D01*
X107326259Y-53008500D01*
X107326259Y-54291500D01*
X107326259Y-54291500D01*
G37*
G36*
X107326259Y-56441500D02*
X107325500Y-56441500D01*
X106550500Y-56441500D01*
X106549740Y-56441500D01*
X106549740Y-55158500D01*
X106550500Y-55158500D01*
X107325500Y-55158500D01*
X107326259Y-55158500D01*
X107326259Y-56441500D01*
X107326259Y-56441500D01*
G37*
G36*
X107468499Y-47470380D02*
X107467740Y-47470380D01*
X106428580Y-47470380D01*
X106427820Y-47470380D01*
X106427820Y-46329620D01*
X106428580Y-46329620D01*
X107467740Y-46329620D01*
X107468499Y-46329620D01*
X107468499Y-47470380D01*
X107468499Y-47470380D01*
G37*
G36*
X108700259Y-68161500D02*
X108699500Y-68161500D01*
X107924500Y-68161500D01*
X107923740Y-68161500D01*
X107923740Y-66878500D01*
X107924500Y-66878500D01*
X108699500Y-66878500D01*
X108700259Y-66878500D01*
X108700259Y-68161500D01*
X108700259Y-68161500D01*
G37*
G36*
X108800259Y-49341500D02*
X108799500Y-49341500D01*
X108024500Y-49341500D01*
X108023740Y-49341500D01*
X108023740Y-48058500D01*
X108024500Y-48058500D01*
X108799500Y-48058500D01*
X108800259Y-48058500D01*
X108800259Y-49341500D01*
X108800259Y-49341500D01*
G37*
G36*
X108800259Y-51541500D02*
X108799500Y-51541500D01*
X108024500Y-51541500D01*
X108023740Y-51541500D01*
X108023740Y-50258500D01*
X108024500Y-50258500D01*
X108799500Y-50258500D01*
X108800259Y-50258500D01*
X108800259Y-51541500D01*
X108800259Y-51541500D01*
G37*
G36*
X108850259Y-54291500D02*
X108849500Y-54291500D01*
X108074500Y-54291500D01*
X108073740Y-54291500D01*
X108073740Y-53008500D01*
X108074500Y-53008500D01*
X108849500Y-53008500D01*
X108850259Y-53008500D01*
X108850259Y-54291500D01*
X108850259Y-54291500D01*
G37*
G36*
X108850259Y-56441500D02*
X108849500Y-56441500D01*
X108074500Y-56441500D01*
X108073740Y-56441500D01*
X108073740Y-55158500D01*
X108074500Y-55158500D01*
X108849500Y-55158500D01*
X108850259Y-55158500D01*
X108850259Y-56441500D01*
X108850259Y-56441500D01*
G37*
G36*
X108972179Y-47470380D02*
X108971420Y-47470380D01*
X107932260Y-47470380D01*
X107931500Y-47470380D01*
X107931500Y-46329620D01*
X107932260Y-46329620D01*
X108971420Y-46329620D01*
X108972179Y-46329620D01*
X108972179Y-47470380D01*
X108972179Y-47470380D01*
G37*
G36*
X109167759Y-58868500D02*
X109167000Y-58868500D01*
X108138000Y-58868500D01*
X108137240Y-58868500D01*
X108137240Y-57331500D01*
X108138000Y-57331500D01*
X109167000Y-57331500D01*
X109167759Y-57331500D01*
X109167759Y-58868500D01*
X109167759Y-58868500D01*
G37*
G36*
X109934857Y-63632380D02*
X109934098Y-63632380D01*
X108295498Y-63632380D01*
X108294738Y-63632380D01*
X108294738Y-62191900D01*
X108295498Y-62191900D01*
X109934098Y-62191900D01*
X109934857Y-62191900D01*
X109934857Y-63632380D01*
X109934857Y-63632380D01*
G37*
G36*
X109934857Y-65537380D02*
X109934098Y-65537380D01*
X108295498Y-65537380D01*
X108294738Y-65537380D01*
X108294738Y-64096900D01*
X108295498Y-64096900D01*
X109934098Y-64096900D01*
X109934857Y-64096900D01*
X109934857Y-65537380D01*
X109934857Y-65537380D01*
G37*
G36*
X110473859Y-45371700D02*
X110473100Y-45371700D01*
X108732900Y-45371700D01*
X108732140Y-45371700D01*
X108732140Y-43428300D01*
X108732900Y-43428300D01*
X110473100Y-43428300D01*
X110473859Y-43428300D01*
X110473859Y-45371700D01*
X110473859Y-45371700D01*
G37*
G36*
X110718499Y-56370380D02*
X110717740Y-56370380D01*
X109678580Y-56370380D01*
X109677820Y-56370380D01*
X109677820Y-55229620D01*
X109678580Y-55229620D01*
X110717740Y-55229620D01*
X110718499Y-55229620D01*
X110718499Y-56370380D01*
X110718499Y-56370380D01*
G37*
G36*
X110972759Y-43198500D02*
X110972000Y-43198500D01*
X109943000Y-43198500D01*
X109942240Y-43198500D01*
X109942240Y-41661500D01*
X109943000Y-41661500D01*
X110972000Y-41661500D01*
X110972759Y-41661500D01*
X110972759Y-43198500D01*
X110972759Y-43198500D01*
G37*
G36*
X111192062Y-68119732D02*
X111190126Y-68258404D01*
X111161463Y-68384561D01*
X111110863Y-68498213D01*
X111038436Y-68600883D01*
X110945650Y-68689243D01*
X110842696Y-68754579D01*
X110719756Y-68802265D01*
X110719755Y-68802265D01*
X110603305Y-68822797D01*
X110471471Y-68820036D01*
X110352382Y-68793853D01*
X110234969Y-68742556D01*
X110131795Y-68670849D01*
X110045377Y-68581360D01*
X109975294Y-68472612D01*
X109930860Y-68360386D01*
X109907056Y-68230687D01*
X109908724Y-68111228D01*
X109935881Y-67983462D01*
X109984403Y-67870254D01*
X110056087Y-67765561D01*
X110146746Y-67676782D01*
X110249809Y-67609339D01*
X110370917Y-67560409D01*
X110488269Y-67538022D01*
X110620136Y-67538942D01*
X110738370Y-67563213D01*
X110857634Y-67613347D01*
X110960772Y-67682914D01*
X111049306Y-67772068D01*
X111120211Y-67878789D01*
X111166676Y-67991520D01*
X111192062Y-68119732D01*
X111192062Y-68119732D01*
G37*
G36*
X111350759Y-35070000D02*
X111350000Y-35070000D01*
X109610000Y-35070000D01*
X109609240Y-35070000D01*
X109609240Y-30930000D01*
X109610000Y-30930000D01*
X111350000Y-30930000D01*
X111350759Y-30930000D01*
X111350759Y-35070000D01*
X111350759Y-35070000D01*
G37*
G36*
X111350759Y-41270000D02*
X111350000Y-41270000D01*
X109610000Y-41270000D01*
X109609240Y-41270000D01*
X109609240Y-37130000D01*
X109610000Y-37130000D01*
X111350000Y-37130000D01*
X111350759Y-37130000D01*
X111350759Y-41270000D01*
X111350759Y-41270000D01*
G37*
G36*
X112222179Y-56370380D02*
X112221420Y-56370380D01*
X111182260Y-56370380D01*
X111181500Y-56370380D01*
X111181500Y-55229620D01*
X111182260Y-55229620D01*
X112221420Y-55229620D01*
X112222179Y-55229620D01*
X112222179Y-56370380D01*
X112222179Y-56370380D01*
G37*
G36*
X112314857Y-63612380D02*
X112314098Y-63612380D01*
X110675498Y-63612380D01*
X110674738Y-63612380D01*
X110674738Y-62171900D01*
X110675498Y-62171900D01*
X112314098Y-62171900D01*
X112314857Y-62171900D01*
X112314857Y-63612380D01*
X112314857Y-63612380D01*
G37*
G36*
X112314857Y-65517380D02*
X112314098Y-65517380D01*
X110675498Y-65517380D01*
X110674738Y-65517380D01*
X110674738Y-64076900D01*
X110675498Y-64076900D01*
X112314098Y-64076900D01*
X112314857Y-64076900D01*
X112314857Y-65517380D01*
X112314857Y-65517380D01*
G37*
G36*
X112877759Y-43198500D02*
X112877000Y-43198500D01*
X111848000Y-43198500D01*
X111847240Y-43198500D01*
X111847240Y-41661500D01*
X111848000Y-41661500D01*
X112877000Y-41661500D01*
X112877759Y-41661500D01*
X112877759Y-43198500D01*
X112877759Y-43198500D01*
G37*
G36*
X113267859Y-45371700D02*
X113267100Y-45371700D01*
X111526900Y-45371700D01*
X111526140Y-45371700D01*
X111526140Y-43428300D01*
X111526900Y-43428300D01*
X113267100Y-43428300D01*
X113267859Y-43428300D01*
X113267859Y-45371700D01*
X113267859Y-45371700D01*
G37*
G36*
X114786814Y-70722289D02*
X114786055Y-70722289D01*
X113046055Y-70722289D01*
X113045295Y-70722289D01*
X113045295Y-64882289D01*
X113046055Y-64882289D01*
X114786055Y-64882289D01*
X114786814Y-64882289D01*
X114786814Y-70722289D01*
X114786814Y-70722289D01*
G37*
G36*
X115526814Y-63337289D02*
X115526055Y-63337289D01*
X114536055Y-63337289D01*
X114535295Y-63337289D01*
X114535295Y-62347289D01*
X114536055Y-62347289D01*
X115526055Y-62347289D01*
X115526814Y-62347289D01*
X115526814Y-63337289D01*
X115526814Y-63337289D01*
G37*
G36*
X115562259Y-41325500D02*
X115561500Y-41325500D01*
X114278500Y-41325500D01*
X114277740Y-41325500D01*
X114277740Y-40550500D01*
X114278500Y-40550500D01*
X115561500Y-40550500D01*
X115562259Y-40550500D01*
X115562259Y-41325500D01*
X115562259Y-41325500D01*
G37*
G36*
X115562259Y-42849500D02*
X115561500Y-42849500D01*
X114278500Y-42849500D01*
X114277740Y-42849500D01*
X114277740Y-42074500D01*
X114278500Y-42074500D01*
X115561500Y-42074500D01*
X115562259Y-42074500D01*
X115562259Y-42849500D01*
X115562259Y-42849500D01*
G37*
G36*
X116518779Y-38550380D02*
X116518020Y-38550380D01*
X115676980Y-38550380D01*
X115676220Y-38550380D01*
X115676220Y-37409620D01*
X115676980Y-37409620D01*
X116518020Y-37409620D01*
X116518779Y-37409620D01*
X116518779Y-38550380D01*
X116518779Y-38550380D01*
G37*
G36*
X116920059Y-34467740D02*
X116919300Y-34467740D01*
X115280700Y-34467740D01*
X115279940Y-34467740D01*
X115279940Y-33027260D01*
X115280700Y-33027260D01*
X116919300Y-33027260D01*
X116920059Y-33027260D01*
X116920059Y-34467740D01*
X116920059Y-34467740D01*
G37*
G36*
X116920059Y-36372740D02*
X116919300Y-36372740D01*
X115280700Y-36372740D01*
X115279940Y-36372740D01*
X115279940Y-34932260D01*
X115280700Y-34932260D01*
X116919300Y-34932260D01*
X116920059Y-34932260D01*
X116920059Y-36372740D01*
X116920059Y-36372740D01*
G37*
G36*
X117471279Y-41090380D02*
X117470520Y-41090380D01*
X116629480Y-41090380D01*
X116628720Y-41090380D01*
X116628720Y-39949620D01*
X116629480Y-39949620D01*
X117470520Y-39949620D01*
X117471279Y-39949620D01*
X117471279Y-41090380D01*
X117471279Y-41090380D01*
G37*
G36*
X118423779Y-38550380D02*
X118423020Y-38550380D01*
X117581980Y-38550380D01*
X117581220Y-38550380D01*
X117581220Y-37409620D01*
X117581980Y-37409620D01*
X118423020Y-37409620D01*
X118423779Y-37409620D01*
X118423779Y-38550380D01*
X118423779Y-38550380D01*
G37*
G36*
X118876814Y-63337289D02*
X118876055Y-63337289D01*
X117886055Y-63337289D01*
X117885295Y-63337289D01*
X117885295Y-62347289D01*
X117886055Y-62347289D01*
X118876055Y-62347289D01*
X118876814Y-62347289D01*
X118876814Y-63337289D01*
X118876814Y-63337289D01*
G37*
G36*
X119108499Y-59959300D02*
X119107740Y-59959300D01*
X117667260Y-59959300D01*
X117666500Y-59959300D01*
X117666500Y-58320700D01*
X117667260Y-58320700D01*
X119107740Y-58320700D01*
X119108499Y-58320700D01*
X119108499Y-59959300D01*
X119108499Y-59959300D01*
G37*
G36*
X119395759Y-33470000D02*
X119395000Y-33470000D01*
X118405000Y-33470000D01*
X118404240Y-33470000D01*
X118404240Y-32480000D01*
X118405000Y-32480000D01*
X119395000Y-32480000D01*
X119395759Y-32480000D01*
X119395759Y-33470000D01*
X119395759Y-33470000D01*
G37*
G36*
X119395759Y-36820000D02*
X119395000Y-36820000D01*
X118405000Y-36820000D01*
X118404240Y-36820000D01*
X118404240Y-35830000D01*
X118405000Y-35830000D01*
X119395000Y-35830000D01*
X119395759Y-35830000D01*
X119395759Y-36820000D01*
X119395759Y-36820000D01*
G37*
G36*
X119486814Y-70722289D02*
X119486055Y-70722289D01*
X117746055Y-70722289D01*
X117745295Y-70722289D01*
X117745295Y-64882289D01*
X117746055Y-64882289D01*
X119486055Y-64882289D01*
X119486814Y-64882289D01*
X119486814Y-70722289D01*
X119486814Y-70722289D01*
G37*
G36*
X119726259Y-42791500D02*
X119725500Y-42791500D01*
X118950500Y-42791500D01*
X118949740Y-42791500D01*
X118949740Y-41508500D01*
X118950500Y-41508500D01*
X119725500Y-41508500D01*
X119726259Y-41508500D01*
X119726259Y-42791500D01*
X119726259Y-42791500D01*
G37*
G36*
X119726259Y-44541500D02*
X119725500Y-44541500D01*
X118950500Y-44541500D01*
X118949740Y-44541500D01*
X118949740Y-43258500D01*
X118950500Y-43258500D01*
X119725500Y-43258500D01*
X119726259Y-43258500D01*
X119726259Y-44541500D01*
X119726259Y-44541500D01*
G37*
G36*
X120642259Y-38375500D02*
X120641500Y-38375500D01*
X119358500Y-38375500D01*
X119357740Y-38375500D01*
X119357740Y-37600500D01*
X119358500Y-37600500D01*
X120641500Y-37600500D01*
X120642259Y-37600500D01*
X120642259Y-38375500D01*
X120642259Y-38375500D01*
G37*
G36*
X120642259Y-39899500D02*
X120641500Y-39899500D01*
X119358500Y-39899500D01*
X119357740Y-39899500D01*
X119357740Y-39124500D01*
X119358500Y-39124500D01*
X120641500Y-39124500D01*
X120642259Y-39124500D01*
X120642259Y-39899500D01*
X120642259Y-39899500D01*
G37*
G36*
X120857194Y-61400309D02*
X120856435Y-61400309D01*
X119715675Y-61400309D01*
X119714915Y-61400309D01*
X119714915Y-60559269D01*
X119715675Y-60559269D01*
X120856435Y-60559269D01*
X120857194Y-60559269D01*
X120857194Y-61400309D01*
X120857194Y-61400309D01*
G37*
G36*
X120857194Y-62352809D02*
X120856435Y-62352809D01*
X119715675Y-62352809D01*
X119714915Y-62352809D01*
X119714915Y-61511769D01*
X119715675Y-61511769D01*
X120856435Y-61511769D01*
X120857194Y-61511769D01*
X120857194Y-62352809D01*
X120857194Y-62352809D01*
G37*
G36*
X120857194Y-63305309D02*
X120856435Y-63305309D01*
X119715675Y-63305309D01*
X119714915Y-63305309D01*
X119714915Y-62464269D01*
X119715675Y-62464269D01*
X120856435Y-62464269D01*
X120857194Y-62464269D01*
X120857194Y-63305309D01*
X120857194Y-63305309D01*
G37*
G36*
X121013499Y-59959300D02*
X121012740Y-59959300D01*
X119572260Y-59959300D01*
X119571500Y-59959300D01*
X119571500Y-58320700D01*
X119572260Y-58320700D01*
X121012740Y-58320700D01*
X121013499Y-58320700D01*
X121013499Y-59959300D01*
X121013499Y-59959300D01*
G37*
G36*
X121068499Y-65220380D02*
X121067740Y-65220380D01*
X120028580Y-65220380D01*
X120027820Y-65220380D01*
X120027820Y-64079620D01*
X120028580Y-64079620D01*
X121067740Y-64079620D01*
X121068499Y-64079620D01*
X121068499Y-65220380D01*
X121068499Y-65220380D01*
G37*
G36*
X121250259Y-42791500D02*
X121249500Y-42791500D01*
X120474500Y-42791500D01*
X120473740Y-42791500D01*
X120473740Y-41508500D01*
X120474500Y-41508500D01*
X121249500Y-41508500D01*
X121250259Y-41508500D01*
X121250259Y-42791500D01*
X121250259Y-42791500D01*
G37*
G36*
X121250259Y-44541500D02*
X121249500Y-44541500D01*
X120474500Y-44541500D01*
X120473740Y-44541500D01*
X120473740Y-43258500D01*
X120474500Y-43258500D01*
X121249500Y-43258500D01*
X121250259Y-43258500D01*
X121250259Y-44541500D01*
X121250259Y-44541500D01*
G37*
G36*
X121368499Y-35170380D02*
X121367740Y-35170380D01*
X120328580Y-35170380D01*
X120327820Y-35170380D01*
X120327820Y-34029620D01*
X120328580Y-34029620D01*
X121367740Y-34029620D01*
X121368499Y-34029620D01*
X121368499Y-35170380D01*
X121368499Y-35170380D01*
G37*
G36*
X121590759Y-67945000D02*
X121590000Y-67945000D01*
X120600000Y-67945000D01*
X120599240Y-67945000D01*
X120599240Y-66955000D01*
X120600000Y-66955000D01*
X121590000Y-66955000D01*
X121590759Y-66955000D01*
X121590759Y-67945000D01*
X121590759Y-67945000D01*
G37*
G36*
X122572179Y-65220380D02*
X122571420Y-65220380D01*
X121532260Y-65220380D01*
X121531500Y-65220380D01*
X121531500Y-64079620D01*
X121532260Y-64079620D01*
X122571420Y-64079620D01*
X122572179Y-64079620D01*
X122572179Y-65220380D01*
X122572179Y-65220380D01*
G37*
G36*
X122726259Y-48141500D02*
X122725500Y-48141500D01*
X121950500Y-48141500D01*
X121949740Y-48141500D01*
X121949740Y-46858500D01*
X121950500Y-46858500D01*
X122725500Y-46858500D01*
X122726259Y-46858500D01*
X122726259Y-48141500D01*
X122726259Y-48141500D01*
G37*
G36*
X122820759Y-39120000D02*
X122820000Y-39120000D01*
X121980000Y-39120000D01*
X121979240Y-39120000D01*
X121979240Y-38380000D01*
X121980000Y-38380000D01*
X122820000Y-38380000D01*
X122820759Y-38380000D01*
X122820759Y-39120000D01*
X122820759Y-39120000D01*
G37*
G36*
X122820759Y-40520000D02*
X122820000Y-40520000D01*
X121980000Y-40520000D01*
X121979240Y-40520000D01*
X121979240Y-39780000D01*
X121980000Y-39780000D01*
X122820000Y-39780000D01*
X122820759Y-39780000D01*
X122820759Y-40520000D01*
X122820759Y-40520000D01*
G37*
G36*
X122820759Y-46120000D02*
X122820000Y-46120000D01*
X122080000Y-46120000D01*
X122079240Y-46120000D01*
X122079240Y-45280000D01*
X122080000Y-45280000D01*
X122820000Y-45280000D01*
X122820759Y-45280000D01*
X122820759Y-46120000D01*
X122820759Y-46120000D01*
G37*
G36*
X122862759Y-37118500D02*
X122862000Y-37118500D01*
X121833000Y-37118500D01*
X121832240Y-37118500D01*
X121832240Y-35581500D01*
X121833000Y-35581500D01*
X122862000Y-35581500D01*
X122862759Y-35581500D01*
X122862759Y-37118500D01*
X122862759Y-37118500D01*
G37*
G36*
X122872179Y-35170380D02*
X122871420Y-35170380D01*
X121832260Y-35170380D01*
X121831500Y-35170380D01*
X121831500Y-34029620D01*
X121832260Y-34029620D01*
X122871420Y-34029620D01*
X122872179Y-34029620D01*
X122872179Y-35170380D01*
X122872179Y-35170380D01*
G37*
G36*
X122961959Y-43527200D02*
X122961200Y-43527200D01*
X121906800Y-43527200D01*
X121906040Y-43527200D01*
X121906040Y-42472800D01*
X121906800Y-42472800D01*
X122961200Y-42472800D01*
X122961959Y-42472800D01*
X122961959Y-43527200D01*
X122961959Y-43527200D01*
G37*
G36*
X123397194Y-61400309D02*
X123396435Y-61400309D01*
X122255675Y-61400309D01*
X122254915Y-61400309D01*
X122254915Y-60559269D01*
X122255675Y-60559269D01*
X123396435Y-60559269D01*
X123397194Y-60559269D01*
X123397194Y-61400309D01*
X123397194Y-61400309D01*
G37*
G36*
X123397194Y-62352809D02*
X123396435Y-62352809D01*
X122255675Y-62352809D01*
X122254915Y-62352809D01*
X122254915Y-61511769D01*
X122255675Y-61511769D01*
X123396435Y-61511769D01*
X123397194Y-61511769D01*
X123397194Y-62352809D01*
X123397194Y-62352809D01*
G37*
G36*
X123397194Y-63305309D02*
X123396435Y-63305309D01*
X122255675Y-63305309D01*
X122254915Y-63305309D01*
X122254915Y-62464269D01*
X122255675Y-62464269D01*
X123396435Y-62464269D01*
X123397194Y-62464269D01*
X123397194Y-63305309D01*
X123397194Y-63305309D01*
G37*
G36*
X124220759Y-46120000D02*
X124220000Y-46120000D01*
X123480000Y-46120000D01*
X123479240Y-46120000D01*
X123479240Y-45280000D01*
X123480000Y-45280000D01*
X124220000Y-45280000D01*
X124220759Y-45280000D01*
X124220759Y-46120000D01*
X124220759Y-46120000D01*
G37*
G36*
X124250259Y-48141500D02*
X124249500Y-48141500D01*
X123474500Y-48141500D01*
X123473740Y-48141500D01*
X123473740Y-46858500D01*
X123474500Y-46858500D01*
X124249500Y-46858500D01*
X124250259Y-46858500D01*
X124250259Y-48141500D01*
X124250259Y-48141500D01*
G37*
G36*
X124767759Y-37118500D02*
X124767000Y-37118500D01*
X123738000Y-37118500D01*
X123737240Y-37118500D01*
X123737240Y-35581500D01*
X123738000Y-35581500D01*
X124767000Y-35581500D01*
X124767759Y-35581500D01*
X124767759Y-37118500D01*
X124767759Y-37118500D01*
G37*
G36*
X124940759Y-67945000D02*
X124940000Y-67945000D01*
X123950000Y-67945000D01*
X123949240Y-67945000D01*
X123949240Y-66955000D01*
X123950000Y-66955000D01*
X124940000Y-66955000D01*
X124940759Y-66955000D01*
X124940759Y-67945000D01*
X124940759Y-67945000D01*
G37*
G36*
X124992259Y-39225500D02*
X124991500Y-39225500D01*
X123708500Y-39225500D01*
X123707740Y-39225500D01*
X123707740Y-38450500D01*
X123708500Y-38450500D01*
X124991500Y-38450500D01*
X124992259Y-38450500D01*
X124992259Y-39225500D01*
X124992259Y-39225500D01*
G37*
G36*
X124992259Y-40749500D02*
X124991500Y-40749500D01*
X123708500Y-40749500D01*
X123707740Y-40749500D01*
X123707740Y-39974500D01*
X123708500Y-39974500D01*
X124991500Y-39974500D01*
X124992259Y-39974500D01*
X124992259Y-40749500D01*
X124992259Y-40749500D01*
G37*
G36*
X124993959Y-42638200D02*
X124993200Y-42638200D01*
X123938800Y-42638200D01*
X123938040Y-42638200D01*
X123938040Y-41583800D01*
X123938800Y-41583800D01*
X124993200Y-41583800D01*
X124993959Y-41583800D01*
X124993959Y-42638200D01*
X124993959Y-42638200D01*
G37*
G36*
X124993959Y-44416200D02*
X124993200Y-44416200D01*
X123938800Y-44416200D01*
X123938040Y-44416200D01*
X123938040Y-43361800D01*
X123938800Y-43361800D01*
X124993200Y-43361800D01*
X124993959Y-43361800D01*
X124993959Y-44416200D01*
X124993959Y-44416200D01*
G37*
G36*
X125022314Y-62553789D02*
X125021555Y-62553789D01*
X124246555Y-62553789D01*
X124245795Y-62553789D01*
X124245795Y-61270789D01*
X124246555Y-61270789D01*
X125021555Y-61270789D01*
X125022314Y-61270789D01*
X125022314Y-62553789D01*
X125022314Y-62553789D01*
G37*
G36*
X125026259Y-64801500D02*
X125025500Y-64801500D01*
X124250500Y-64801500D01*
X124249740Y-64801500D01*
X124249740Y-63518500D01*
X124250500Y-63518500D01*
X125025500Y-63518500D01*
X125026259Y-63518500D01*
X125026259Y-64801500D01*
X125026259Y-64801500D01*
G37*
G36*
X126546314Y-62553789D02*
X126545555Y-62553789D01*
X125770555Y-62553789D01*
X125769795Y-62553789D01*
X125769795Y-61270789D01*
X125770555Y-61270789D01*
X126545555Y-61270789D01*
X126546314Y-61270789D01*
X126546314Y-62553789D01*
X126546314Y-62553789D01*
G37*
G36*
X126550259Y-64801500D02*
X126549500Y-64801500D01*
X125774500Y-64801500D01*
X125773740Y-64801500D01*
X125773740Y-63518500D01*
X125774500Y-63518500D01*
X126549500Y-63518500D01*
X126550259Y-63518500D01*
X126550259Y-64801500D01*
X126550259Y-64801500D01*
G37*
G36*
X127820759Y-44270000D02*
X127820000Y-44270000D01*
X126980000Y-44270000D01*
X126979240Y-44270000D01*
X126979240Y-43530000D01*
X126980000Y-43530000D01*
X127820000Y-43530000D01*
X127820759Y-43530000D01*
X127820759Y-44270000D01*
X127820759Y-44270000D01*
G37*
G36*
X127820759Y-45670000D02*
X127820000Y-45670000D01*
X126980000Y-45670000D01*
X126979240Y-45670000D01*
X126979240Y-44930000D01*
X126980000Y-44930000D01*
X127820000Y-44930000D01*
X127820759Y-44930000D01*
X127820759Y-45670000D01*
X127820759Y-45670000D01*
G37*
G36*
X128390759Y-34555000D02*
X128390000Y-34555000D01*
X125710000Y-34555000D01*
X125709240Y-34555000D01*
X125709240Y-33145000D01*
X125710000Y-33145000D01*
X128390000Y-33145000D01*
X128390759Y-33145000D01*
X128390759Y-34555000D01*
X128390759Y-34555000D01*
G37*
G36*
X128390759Y-37055000D02*
X128390000Y-37055000D01*
X125710000Y-37055000D01*
X125709240Y-37055000D01*
X125709240Y-35645000D01*
X125710000Y-35645000D01*
X128390000Y-35645000D01*
X128390759Y-35645000D01*
X128390759Y-37055000D01*
X128390759Y-37055000D01*
G37*
G36*
X128390759Y-39555000D02*
X128390000Y-39555000D01*
X125710000Y-39555000D01*
X125709240Y-39555000D01*
X125709240Y-38145000D01*
X125710000Y-38145000D01*
X128390000Y-38145000D01*
X128390759Y-38145000D01*
X128390759Y-39555000D01*
X128390759Y-39555000D01*
G37*
G36*
X128390759Y-42055000D02*
X128390000Y-42055000D01*
X125710000Y-42055000D01*
X125709240Y-42055000D01*
X125709240Y-40645000D01*
X125710000Y-40645000D01*
X128390000Y-40645000D01*
X128390759Y-40645000D01*
X128390759Y-42055000D01*
X128390759Y-42055000D01*
G37*
G36*
X130570759Y-65050000D02*
X130570000Y-65050000D01*
X128630000Y-65050000D01*
X128629240Y-65050000D01*
X128629240Y-61310000D01*
X128630000Y-61310000D01*
X130570000Y-61310000D01*
X130570759Y-61310000D01*
X130570759Y-65050000D01*
X130570759Y-65050000D01*
G37*
G36*
X131395562Y-51089389D02*
X131393615Y-51228845D01*
X131364800Y-51355672D01*
X131313921Y-51469950D01*
X131241098Y-51573181D01*
X131147815Y-51662015D01*
X131044283Y-51727718D01*
X130920702Y-51775652D01*
X130920700Y-51775652D01*
X130803574Y-51796304D01*
X130671055Y-51793528D01*
X130551295Y-51767198D01*
X130433253Y-51715626D01*
X130329516Y-51643527D01*
X130242620Y-51553544D01*
X130172166Y-51444219D01*
X130127479Y-51331354D01*
X130103551Y-51200982D01*
X130105229Y-51080836D01*
X130132529Y-50952398D01*
X130181321Y-50838560D01*
X130253393Y-50733300D01*
X130344542Y-50644041D01*
X130448179Y-50576222D01*
X130569924Y-50527035D01*
X130687951Y-50504519D01*
X130820505Y-50505445D01*
X130939410Y-50529853D01*
X131059306Y-50580253D01*
X131163013Y-50650204D01*
X131252032Y-50739846D01*
X131323316Y-50847137D01*
X131370043Y-50960504D01*
X131395562Y-51089389D01*
X131395562Y-51089389D01*
G37*
G36*
X131470759Y-46685000D02*
X131470000Y-46685000D01*
X129880000Y-46685000D01*
X129879240Y-46685000D01*
X129879240Y-45745000D01*
X129880000Y-45745000D01*
X131470000Y-45745000D01*
X131470759Y-45745000D01*
X131470759Y-46685000D01*
X131470759Y-46685000D01*
G37*
G36*
X131470759Y-47955000D02*
X131470000Y-47955000D01*
X129880000Y-47955000D01*
X129879240Y-47955000D01*
X129879240Y-47015000D01*
X129880000Y-47015000D01*
X131470000Y-47015000D01*
X131470759Y-47015000D01*
X131470759Y-47955000D01*
X131470759Y-47955000D01*
G37*
G36*
X137720759Y-46685000D02*
X137720000Y-46685000D01*
X136130000Y-46685000D01*
X136129240Y-46685000D01*
X136129240Y-45745000D01*
X136130000Y-45745000D01*
X137720000Y-45745000D01*
X137720759Y-45745000D01*
X137720759Y-46685000D01*
X137720759Y-46685000D01*
G37*
G36*
X137720759Y-47955000D02*
X137720000Y-47955000D01*
X136130000Y-47955000D01*
X136129240Y-47955000D01*
X136129240Y-47015000D01*
X136130000Y-47015000D01*
X137720000Y-47015000D01*
X137720759Y-47015000D01*
X137720759Y-47955000D01*
X137720759Y-47955000D01*
G37*
G36*
X137923859Y-57621700D02*
X137923100Y-57621700D01*
X136182900Y-57621700D01*
X136182140Y-57621700D01*
X136182140Y-55678300D01*
X136182900Y-55678300D01*
X137923100Y-55678300D01*
X137923859Y-55678300D01*
X137923859Y-57621700D01*
X137923859Y-57621700D01*
G37*
G36*
X137973859Y-54921700D02*
X137973100Y-54921700D01*
X136232900Y-54921700D01*
X136232140Y-54921700D01*
X136232140Y-52978300D01*
X136232900Y-52978300D01*
X137973100Y-52978300D01*
X137973859Y-52978300D01*
X137973859Y-54921700D01*
X137973859Y-54921700D01*
G37*
G36*
X138668499Y-70869300D02*
X138667740Y-70869300D01*
X137227260Y-70869300D01*
X137226500Y-70869300D01*
X137226500Y-69230700D01*
X137227260Y-69230700D01*
X138667740Y-69230700D01*
X138668499Y-69230700D01*
X138668499Y-70869300D01*
X138668499Y-70869300D01*
G37*
G36*
X138895562Y-51089389D02*
X138893615Y-51228845D01*
X138864800Y-51355672D01*
X138813921Y-51469950D01*
X138741098Y-51573181D01*
X138647815Y-51662015D01*
X138544283Y-51727718D01*
X138420702Y-51775652D01*
X138420700Y-51775652D01*
X138303574Y-51796304D01*
X138171055Y-51793528D01*
X138051295Y-51767198D01*
X137933253Y-51715626D01*
X137829516Y-51643527D01*
X137742620Y-51553544D01*
X137672166Y-51444219D01*
X137627479Y-51331354D01*
X137603551Y-51200982D01*
X137605229Y-51080836D01*
X137632529Y-50952398D01*
X137681321Y-50838560D01*
X137753393Y-50733300D01*
X137844542Y-50644041D01*
X137948179Y-50576222D01*
X138069924Y-50527035D01*
X138187951Y-50504519D01*
X138320505Y-50505445D01*
X138439410Y-50529853D01*
X138559306Y-50580253D01*
X138663013Y-50650204D01*
X138752032Y-50739846D01*
X138823316Y-50847137D01*
X138870043Y-50960504D01*
X138895562Y-51089389D01*
X138895562Y-51089389D01*
G37*
G36*
X139570759Y-65050000D02*
X139570000Y-65050000D01*
X137630000Y-65050000D01*
X137629240Y-65050000D01*
X137629240Y-61310000D01*
X137630000Y-61310000D01*
X139570000Y-61310000D01*
X139570759Y-61310000D01*
X139570759Y-65050000D01*
X139570759Y-65050000D01*
G37*
G36*
X140126259Y-48541500D02*
X140125500Y-48541500D01*
X139350500Y-48541500D01*
X139349740Y-48541500D01*
X139349740Y-47258500D01*
X139350500Y-47258500D01*
X140125500Y-47258500D01*
X140126259Y-47258500D01*
X140126259Y-48541500D01*
X140126259Y-48541500D01*
G37*
G36*
X140268499Y-50270380D02*
X140267740Y-50270380D01*
X139228580Y-50270380D01*
X139227820Y-50270380D01*
X139227820Y-49129620D01*
X139228580Y-49129620D01*
X140267740Y-49129620D01*
X140268499Y-49129620D01*
X140268499Y-50270380D01*
X140268499Y-50270380D01*
G37*
G36*
X140573499Y-70869300D02*
X140572740Y-70869300D01*
X139132260Y-70869300D01*
X139131500Y-70869300D01*
X139131500Y-69230700D01*
X139132260Y-69230700D01*
X140572740Y-69230700D01*
X140573499Y-69230700D01*
X140573499Y-70869300D01*
X140573499Y-70869300D01*
G37*
G36*
X140621319Y-44767550D02*
X140620560Y-44767550D01*
X139479800Y-44767550D01*
X139479040Y-44767550D01*
X139479040Y-43827450D01*
X139479800Y-43827450D01*
X140620560Y-43827450D01*
X140621319Y-43827450D01*
X140621319Y-44767550D01*
X140621319Y-44767550D01*
G37*
G36*
X140621319Y-46672550D02*
X140620560Y-46672550D01*
X139479800Y-46672550D01*
X139479040Y-46672550D01*
X139479040Y-45732450D01*
X139479800Y-45732450D01*
X140620560Y-45732450D01*
X140621319Y-45732450D01*
X140621319Y-46672550D01*
X140621319Y-46672550D01*
G37*
G36*
X140717859Y-57621700D02*
X140717100Y-57621700D01*
X138976900Y-57621700D01*
X138976140Y-57621700D01*
X138976140Y-55678300D01*
X138976900Y-55678300D01*
X140717100Y-55678300D01*
X140717859Y-55678300D01*
X140717859Y-57621700D01*
X140717859Y-57621700D01*
G37*
G36*
X140767859Y-54921700D02*
X140767100Y-54921700D01*
X139026900Y-54921700D01*
X139026140Y-54921700D01*
X139026140Y-52978300D01*
X139026900Y-52978300D01*
X140767100Y-52978300D01*
X140767859Y-52978300D01*
X140767859Y-54921700D01*
X140767859Y-54921700D01*
G37*
G36*
X141600759Y-34555000D02*
X141600000Y-34555000D01*
X138920000Y-34555000D01*
X138919240Y-34555000D01*
X138919240Y-33145000D01*
X138920000Y-33145000D01*
X141600000Y-33145000D01*
X141600759Y-33145000D01*
X141600759Y-34555000D01*
X141600759Y-34555000D01*
G37*
G36*
X141600759Y-37055000D02*
X141600000Y-37055000D01*
X138920000Y-37055000D01*
X138919240Y-37055000D01*
X138919240Y-35645000D01*
X138920000Y-35645000D01*
X141600000Y-35645000D01*
X141600759Y-35645000D01*
X141600759Y-37055000D01*
X141600759Y-37055000D01*
G37*
G36*
X141600759Y-39555000D02*
X141600000Y-39555000D01*
X138920000Y-39555000D01*
X138919240Y-39555000D01*
X138919240Y-38145000D01*
X138920000Y-38145000D01*
X141600000Y-38145000D01*
X141600759Y-38145000D01*
X141600759Y-39555000D01*
X141600759Y-39555000D01*
G37*
G36*
X141600759Y-42055000D02*
X141600000Y-42055000D01*
X138920000Y-42055000D01*
X138919240Y-42055000D01*
X138919240Y-40645000D01*
X138920000Y-40645000D01*
X141600000Y-40645000D01*
X141600759Y-40645000D01*
X141600759Y-42055000D01*
X141600759Y-42055000D01*
G37*
G36*
X141644186Y-63640421D02*
X141643427Y-63640421D01*
X139903427Y-63640421D01*
X139902667Y-63640421D01*
X139902667Y-63200421D01*
X139903427Y-63200421D01*
X141643427Y-63200421D01*
X141644186Y-63200421D01*
X141644186Y-63640421D01*
X141644186Y-63640421D01*
G37*
G36*
X141644186Y-64240421D02*
X141643427Y-64240421D01*
X139903427Y-64240421D01*
X139902667Y-64240421D01*
X139902667Y-63800421D01*
X139903427Y-63800421D01*
X141643427Y-63800421D01*
X141644186Y-63800421D01*
X141644186Y-64240421D01*
X141644186Y-64240421D01*
G37*
G36*
X141644186Y-64890421D02*
X141643427Y-64890421D01*
X139903427Y-64890421D01*
X139902667Y-64890421D01*
X139902667Y-64450421D01*
X139903427Y-64450421D01*
X141643427Y-64450421D01*
X141644186Y-64450421D01*
X141644186Y-64890421D01*
X141644186Y-64890421D01*
G37*
G36*
X141644186Y-65540421D02*
X141643427Y-65540421D01*
X139903427Y-65540421D01*
X139902667Y-65540421D01*
X139902667Y-65100421D01*
X139903427Y-65100421D01*
X141643427Y-65100421D01*
X141644186Y-65100421D01*
X141644186Y-65540421D01*
X141644186Y-65540421D01*
G37*
G36*
X141644186Y-66190421D02*
X141643427Y-66190421D01*
X139903427Y-66190421D01*
X139902667Y-66190421D01*
X139902667Y-65750421D01*
X139903427Y-65750421D01*
X141643427Y-65750421D01*
X141644186Y-65750421D01*
X141644186Y-66190421D01*
X141644186Y-66190421D01*
G37*
G36*
X141644186Y-66840421D02*
X141643427Y-66840421D01*
X139903427Y-66840421D01*
X139902667Y-66840421D01*
X139902667Y-66400421D01*
X139903427Y-66400421D01*
X141643427Y-66400421D01*
X141644186Y-66400421D01*
X141644186Y-66840421D01*
X141644186Y-66840421D01*
G37*
G36*
X141644186Y-67540421D02*
X141643427Y-67540421D01*
X139903427Y-67540421D01*
X139902667Y-67540421D01*
X139902667Y-67100421D01*
X139903427Y-67100421D01*
X141643427Y-67100421D01*
X141644186Y-67100421D01*
X141644186Y-67540421D01*
X141644186Y-67540421D01*
G37*
G36*
X141650259Y-48541500D02*
X141649500Y-48541500D01*
X140874500Y-48541500D01*
X140873740Y-48541500D01*
X140873740Y-47258500D01*
X140874500Y-47258500D01*
X141649500Y-47258500D01*
X141650259Y-47258500D01*
X141650259Y-48541500D01*
X141650259Y-48541500D01*
G37*
G36*
X141772179Y-50270380D02*
X141771420Y-50270380D01*
X140732260Y-50270380D01*
X140731500Y-50270380D01*
X140731500Y-49129620D01*
X140732260Y-49129620D01*
X141771420Y-49129620D01*
X141772179Y-49129620D01*
X141772179Y-50270380D01*
X141772179Y-50270380D01*
G37*
G36*
X142244366Y-61240241D02*
X142243607Y-61240241D01*
X140503407Y-61240241D01*
X140502647Y-61240241D01*
X140502647Y-58900601D01*
X140503407Y-58900601D01*
X142243607Y-58900601D01*
X142244366Y-58900601D01*
X142244366Y-61240241D01*
X142244366Y-61240241D01*
G37*
G36*
X142641926Y-70239721D02*
X142641167Y-70239721D01*
X141200687Y-70239721D01*
X141199927Y-70239721D01*
X141199927Y-68601121D01*
X141200687Y-68601121D01*
X142641167Y-68601121D01*
X142641926Y-68601121D01*
X142641926Y-70239721D01*
X142641926Y-70239721D01*
G37*
G36*
X142820959Y-45720050D02*
X142820200Y-45720050D01*
X141679440Y-45720050D01*
X141678680Y-45720050D01*
X141678680Y-44779950D01*
X141679440Y-44779950D01*
X142820200Y-44779950D01*
X142820959Y-44779950D01*
X142820959Y-45720050D01*
X142820959Y-45720050D01*
G37*
G36*
X143370759Y-74870000D02*
X143370000Y-74870000D01*
X141130000Y-74870000D01*
X141129240Y-74870000D01*
X141129240Y-73330000D01*
X141130000Y-73330000D01*
X143370000Y-73330000D01*
X143370759Y-73330000D01*
X143370759Y-74870000D01*
X143370759Y-74870000D01*
G37*
G36*
X143370759Y-79370000D02*
X143370000Y-79370000D01*
X141130000Y-79370000D01*
X141129240Y-79370000D01*
X141129240Y-77830000D01*
X141130000Y-77830000D01*
X143370000Y-77830000D01*
X143370759Y-77830000D01*
X143370759Y-79370000D01*
X143370759Y-79370000D01*
G37*
G36*
X143871139Y-48717740D02*
X143870380Y-48717740D01*
X142729620Y-48717740D01*
X142728860Y-48717740D01*
X142728860Y-47678580D01*
X142729620Y-47678580D01*
X143870380Y-47678580D01*
X143871139Y-47678580D01*
X143871139Y-48717740D01*
X143871139Y-48717740D01*
G37*
G36*
X143871139Y-50221420D02*
X143870380Y-50221420D01*
X142729620Y-50221420D01*
X142728860Y-50221420D01*
X142728860Y-49182260D01*
X142729620Y-49182260D01*
X143870380Y-49182260D01*
X143871139Y-49182260D01*
X143871139Y-50221420D01*
X143871139Y-50221420D01*
G37*
G36*
X143876259Y-37691500D02*
X143875500Y-37691500D01*
X143100500Y-37691500D01*
X143099740Y-37691500D01*
X143099740Y-36408500D01*
X143100500Y-36408500D01*
X143875500Y-36408500D01*
X143876259Y-36408500D01*
X143876259Y-37691500D01*
X143876259Y-37691500D01*
G37*
G36*
X143942259Y-42425500D02*
X143941500Y-42425500D01*
X142658500Y-42425500D01*
X142657740Y-42425500D01*
X142657740Y-41650500D01*
X142658500Y-41650500D01*
X143941500Y-41650500D01*
X143942259Y-41650500D01*
X143942259Y-42425500D01*
X143942259Y-42425500D01*
G37*
G36*
X143942259Y-43949500D02*
X143941500Y-43949500D01*
X142658500Y-43949500D01*
X142657740Y-43949500D01*
X142657740Y-43174500D01*
X142658500Y-43174500D01*
X143941500Y-43174500D01*
X143942259Y-43174500D01*
X143942259Y-43949500D01*
X143942259Y-43949500D01*
G37*
G36*
X144546926Y-70239721D02*
X144546167Y-70239721D01*
X143105687Y-70239721D01*
X143104927Y-70239721D01*
X143104927Y-68601121D01*
X143105687Y-68601121D01*
X144546167Y-68601121D01*
X144546926Y-68601121D01*
X144546926Y-70239721D01*
X144546926Y-70239721D01*
G37*
G36*
X144564589Y-35019820D02*
X144563830Y-35019820D01*
X142622970Y-35019820D01*
X142622210Y-35019820D01*
X142622210Y-32680180D01*
X142622970Y-32680180D01*
X144563830Y-32680180D01*
X144564589Y-32680180D01*
X144564589Y-35019820D01*
X144564589Y-35019820D01*
G37*
G36*
X144874186Y-66595421D02*
X144873427Y-66595421D01*
X142273427Y-66595421D01*
X142272667Y-66595421D01*
X142272667Y-64145421D01*
X142273427Y-64145421D01*
X144873427Y-64145421D01*
X144874186Y-64145421D01*
X144874186Y-66595421D01*
X144874186Y-66595421D01*
G37*
G36*
X145218499Y-47019300D02*
X145217740Y-47019300D01*
X143777260Y-47019300D01*
X143776500Y-47019300D01*
X143776500Y-45380700D01*
X143777260Y-45380700D01*
X145217740Y-45380700D01*
X145218499Y-45380700D01*
X145218499Y-47019300D01*
X145218499Y-47019300D01*
G37*
G36*
X145276259Y-44941500D02*
X145275500Y-44941500D01*
X144500500Y-44941500D01*
X144499740Y-44941500D01*
X144499740Y-43658500D01*
X144500500Y-43658500D01*
X145275500Y-43658500D01*
X145276259Y-43658500D01*
X145276259Y-44941500D01*
X145276259Y-44941500D01*
G37*
G36*
X145400259Y-37691500D02*
X145399500Y-37691500D01*
X144624500Y-37691500D01*
X144623740Y-37691500D01*
X144623740Y-36408500D01*
X144624500Y-36408500D01*
X145399500Y-36408500D01*
X145400259Y-36408500D01*
X145400259Y-37691500D01*
X145400259Y-37691500D01*
G37*
G36*
X146044206Y-61240241D02*
X146043447Y-61240241D01*
X144303247Y-61240241D01*
X144302487Y-61240241D01*
X144302487Y-58900601D01*
X144303247Y-58900601D01*
X146043447Y-58900601D01*
X146044206Y-58900601D01*
X146044206Y-61240241D01*
X146044206Y-61240241D01*
G37*
G36*
X146186186Y-70188921D02*
X146185427Y-70188921D01*
X145156427Y-70188921D01*
X145155667Y-70188921D01*
X145155667Y-68651921D01*
X145156427Y-68651921D01*
X146185427Y-68651921D01*
X146186186Y-68651921D01*
X146186186Y-70188921D01*
X146186186Y-70188921D01*
G37*
G36*
X146542062Y-40189732D02*
X146540126Y-40328404D01*
X146511463Y-40454561D01*
X146460863Y-40568213D01*
X146388436Y-40670883D01*
X146295650Y-40759243D01*
X146192696Y-40824579D01*
X146069756Y-40872265D01*
X146069755Y-40872265D01*
X145953305Y-40892797D01*
X145821471Y-40890036D01*
X145702382Y-40863853D01*
X145584969Y-40812556D01*
X145481795Y-40740849D01*
X145395377Y-40651360D01*
X145325294Y-40542612D01*
X145280860Y-40430386D01*
X145257056Y-40300687D01*
X145258724Y-40181228D01*
X145285881Y-40053462D01*
X145334403Y-39940254D01*
X145406087Y-39835561D01*
X145496746Y-39746782D01*
X145599809Y-39679339D01*
X145720917Y-39630409D01*
X145838269Y-39608022D01*
X145970136Y-39608942D01*
X146088370Y-39633213D01*
X146207634Y-39683347D01*
X146310772Y-39752914D01*
X146399306Y-39842068D01*
X146470211Y-39948789D01*
X146516676Y-40061520D01*
X146542062Y-40189732D01*
X146542062Y-40189732D01*
G37*
G36*
X146800259Y-44941500D02*
X146799500Y-44941500D01*
X146024500Y-44941500D01*
X146023740Y-44941500D01*
X146023740Y-43658500D01*
X146024500Y-43658500D01*
X146799500Y-43658500D01*
X146800259Y-43658500D01*
X146800259Y-44941500D01*
X146800259Y-44941500D01*
G37*
G36*
X146818499Y-37620380D02*
X146817740Y-37620380D01*
X145778580Y-37620380D01*
X145777820Y-37620380D01*
X145777820Y-36479620D01*
X145778580Y-36479620D01*
X146817740Y-36479620D01*
X146818499Y-36479620D01*
X146818499Y-37620380D01*
X146818499Y-37620380D01*
G37*
G36*
X147123499Y-47019300D02*
X147122740Y-47019300D01*
X145682260Y-47019300D01*
X145681500Y-47019300D01*
X145681500Y-45380700D01*
X145682260Y-45380700D01*
X147122740Y-45380700D01*
X147123499Y-45380700D01*
X147123499Y-47019300D01*
X147123499Y-47019300D01*
G37*
G36*
X147244186Y-63690421D02*
X147243427Y-63690421D01*
X145503427Y-63690421D01*
X145502667Y-63690421D01*
X145502667Y-63250421D01*
X145503427Y-63250421D01*
X147243427Y-63250421D01*
X147244186Y-63250421D01*
X147244186Y-63690421D01*
X147244186Y-63690421D01*
G37*
G36*
X147244186Y-64290421D02*
X147243427Y-64290421D01*
X145503427Y-64290421D01*
X145502667Y-64290421D01*
X145502667Y-63850421D01*
X145503427Y-63850421D01*
X147243427Y-63850421D01*
X147244186Y-63850421D01*
X147244186Y-64290421D01*
X147244186Y-64290421D01*
G37*
G36*
X147244186Y-64940421D02*
X147243427Y-64940421D01*
X145503427Y-64940421D01*
X145502667Y-64940421D01*
X145502667Y-64500421D01*
X145503427Y-64500421D01*
X147243427Y-64500421D01*
X147244186Y-64500421D01*
X147244186Y-64940421D01*
X147244186Y-64940421D01*
G37*
G36*
X147244186Y-65590421D02*
X147243427Y-65590421D01*
X145503427Y-65590421D01*
X145502667Y-65590421D01*
X145502667Y-65150421D01*
X145503427Y-65150421D01*
X147243427Y-65150421D01*
X147244186Y-65150421D01*
X147244186Y-65590421D01*
X147244186Y-65590421D01*
G37*
G36*
X147244186Y-66240421D02*
X147243427Y-66240421D01*
X145503427Y-66240421D01*
X145502667Y-66240421D01*
X145502667Y-65800421D01*
X145503427Y-65800421D01*
X147243427Y-65800421D01*
X147244186Y-65800421D01*
X147244186Y-66240421D01*
X147244186Y-66240421D01*
G37*
G36*
X147244186Y-66890421D02*
X147243427Y-66890421D01*
X145503427Y-66890421D01*
X145502667Y-66890421D01*
X145502667Y-66450421D01*
X145503427Y-66450421D01*
X147243427Y-66450421D01*
X147244186Y-66450421D01*
X147244186Y-66890421D01*
X147244186Y-66890421D01*
G37*
G36*
X147244186Y-67590421D02*
X147243427Y-67590421D01*
X145503427Y-67590421D01*
X145502667Y-67590421D01*
X145502667Y-67150421D01*
X145503427Y-67150421D01*
X147243427Y-67150421D01*
X147244186Y-67150421D01*
X147244186Y-67590421D01*
X147244186Y-67590421D01*
G37*
G36*
X148091186Y-70188921D02*
X148090427Y-70188921D01*
X147061427Y-70188921D01*
X147060667Y-70188921D01*
X147060667Y-68651921D01*
X147061427Y-68651921D01*
X148090427Y-68651921D01*
X148091186Y-68651921D01*
X148091186Y-70188921D01*
X148091186Y-70188921D01*
G37*
G36*
X148142062Y-57639732D02*
X148140126Y-57778404D01*
X148111463Y-57904561D01*
X148060863Y-58018213D01*
X147988436Y-58120883D01*
X147895650Y-58209243D01*
X147792696Y-58274579D01*
X147669756Y-58322265D01*
X147669755Y-58322265D01*
X147553305Y-58342797D01*
X147421471Y-58340036D01*
X147302382Y-58313853D01*
X147184969Y-58262556D01*
X147081795Y-58190849D01*
X146995377Y-58101360D01*
X146925294Y-57992612D01*
X146880860Y-57880386D01*
X146857056Y-57750687D01*
X146858724Y-57631228D01*
X146885881Y-57503462D01*
X146934403Y-57390254D01*
X147006087Y-57285561D01*
X147096746Y-57196782D01*
X147199809Y-57129339D01*
X147320917Y-57080409D01*
X147438269Y-57058022D01*
X147570136Y-57058942D01*
X147688370Y-57083213D01*
X147807634Y-57133347D01*
X147910772Y-57202914D01*
X147999306Y-57292068D01*
X148070211Y-57398789D01*
X148116676Y-57511520D01*
X148142062Y-57639732D01*
X148142062Y-57639732D01*
G37*
G36*
X148322179Y-37620380D02*
X148321420Y-37620380D01*
X147282260Y-37620380D01*
X147281500Y-37620380D01*
X147281500Y-36479620D01*
X147282260Y-36479620D01*
X148321420Y-36479620D01*
X148322179Y-36479620D01*
X148322179Y-37620380D01*
X148322179Y-37620380D01*
G37*
G36*
X148577789Y-35019820D02*
X148577030Y-35019820D01*
X146636170Y-35019820D01*
X146635410Y-35019820D01*
X146635410Y-32680180D01*
X146636170Y-32680180D01*
X148577030Y-32680180D01*
X148577789Y-32680180D01*
X148577789Y-35019820D01*
X148577789Y-35019820D01*
G37*
G36*
X148626259Y-44941500D02*
X148625500Y-44941500D01*
X147850500Y-44941500D01*
X147849740Y-44941500D01*
X147849740Y-43658500D01*
X147850500Y-43658500D01*
X148625500Y-43658500D01*
X148626259Y-43658500D01*
X148626259Y-44941500D01*
X148626259Y-44941500D01*
G37*
G36*
X149292259Y-71395500D02*
X149291500Y-71395500D01*
X148008500Y-71395500D01*
X148007740Y-71395500D01*
X148007740Y-70620500D01*
X148008500Y-70620500D01*
X149291500Y-70620500D01*
X149292259Y-70620500D01*
X149292259Y-71395500D01*
X149292259Y-71395500D01*
G37*
G36*
X149292259Y-72919500D02*
X149291500Y-72919500D01*
X148008500Y-72919500D01*
X148007740Y-72919500D01*
X148007740Y-72144500D01*
X148008500Y-72144500D01*
X149291500Y-72144500D01*
X149292259Y-72144500D01*
X149292259Y-72919500D01*
X149292259Y-72919500D01*
G37*
G36*
X149360059Y-60937740D02*
X149359300Y-60937740D01*
X147720700Y-60937740D01*
X147719940Y-60937740D01*
X147719940Y-59497260D01*
X147720700Y-59497260D01*
X149359300Y-59497260D01*
X149360059Y-59497260D01*
X149360059Y-60937740D01*
X149360059Y-60937740D01*
G37*
G36*
X149360059Y-62842740D02*
X149359300Y-62842740D01*
X147720700Y-62842740D01*
X147719940Y-62842740D01*
X147719940Y-61402260D01*
X147720700Y-61402260D01*
X149359300Y-61402260D01*
X149360059Y-61402260D01*
X149360059Y-62842740D01*
X149360059Y-62842740D01*
G37*
G36*
X149492259Y-65425500D02*
X149491500Y-65425500D01*
X148208500Y-65425500D01*
X148207740Y-65425500D01*
X148207740Y-64650500D01*
X148208500Y-64650500D01*
X149491500Y-64650500D01*
X149492259Y-64650500D01*
X149492259Y-65425500D01*
X149492259Y-65425500D01*
G37*
G36*
X149492259Y-66949500D02*
X149491500Y-66949500D01*
X148208500Y-66949500D01*
X148207740Y-66949500D01*
X148207740Y-66174500D01*
X148208500Y-66174500D01*
X149491500Y-66174500D01*
X149492259Y-66174500D01*
X149492259Y-66949500D01*
X149492259Y-66949500D01*
G37*
G36*
X149966259Y-58801500D02*
X149965500Y-58801500D01*
X149190500Y-58801500D01*
X149189740Y-58801500D01*
X149189740Y-57518500D01*
X149190500Y-57518500D01*
X149965500Y-57518500D01*
X149966259Y-57518500D01*
X149966259Y-58801500D01*
X149966259Y-58801500D01*
G37*
G36*
X150150259Y-44941500D02*
X150149500Y-44941500D01*
X149374500Y-44941500D01*
X149373740Y-44941500D01*
X149373740Y-43658500D01*
X149374500Y-43658500D01*
X150149500Y-43658500D01*
X150150259Y-43658500D01*
X150150259Y-44941500D01*
X150150259Y-44941500D01*
G37*
G36*
X150392259Y-46725500D02*
X150391500Y-46725500D01*
X149108500Y-46725500D01*
X149107740Y-46725500D01*
X149107740Y-45950500D01*
X149108500Y-45950500D01*
X150391500Y-45950500D01*
X150392259Y-45950500D01*
X150392259Y-46725500D01*
X150392259Y-46725500D01*
G37*
G36*
X150392259Y-48249500D02*
X150391500Y-48249500D01*
X149108500Y-48249500D01*
X149107740Y-48249500D01*
X149107740Y-47474500D01*
X149108500Y-47474500D01*
X150391500Y-47474500D01*
X150392259Y-47474500D01*
X150392259Y-48249500D01*
X150392259Y-48249500D01*
G37*
G36*
X150570239Y-32418780D02*
X150569480Y-32418780D01*
X149631920Y-32418780D01*
X149631160Y-32418780D01*
X149631160Y-31481220D01*
X149631920Y-31481220D01*
X150569480Y-31481220D01*
X150570239Y-31481220D01*
X150570239Y-32418780D01*
X150570239Y-32418780D01*
G37*
G36*
X150871139Y-70737740D02*
X150870380Y-70737740D01*
X149729620Y-70737740D01*
X149728860Y-70737740D01*
X149728860Y-69698580D01*
X149729620Y-69698580D01*
X150870380Y-69698580D01*
X150871139Y-69698580D01*
X150871139Y-70737740D01*
X150871139Y-70737740D01*
G37*
G36*
X150871139Y-72241420D02*
X150870380Y-72241420D01*
X149729620Y-72241420D01*
X149728860Y-72241420D01*
X149728860Y-71202260D01*
X149729620Y-71202260D01*
X150870380Y-71202260D01*
X150871139Y-71202260D01*
X150871139Y-72241420D01*
X150871139Y-72241420D01*
G37*
G36*
X151272459Y-36673100D02*
X151271700Y-36673100D01*
X149328300Y-36673100D01*
X149327540Y-36673100D01*
X149327540Y-34932900D01*
X149328300Y-34932900D01*
X151271700Y-34932900D01*
X151272459Y-34932900D01*
X151272459Y-36673100D01*
X151272459Y-36673100D01*
G37*
G36*
X151272459Y-39467100D02*
X151271700Y-39467100D01*
X149328300Y-39467100D01*
X149327540Y-39467100D01*
X149327540Y-37726900D01*
X149328300Y-37726900D01*
X151271700Y-37726900D01*
X151272459Y-37726900D01*
X151272459Y-39467100D01*
X151272459Y-39467100D01*
G37*
G36*
X151490259Y-58801500D02*
X151489500Y-58801500D01*
X150714500Y-58801500D01*
X150713740Y-58801500D01*
X150713740Y-57518500D01*
X150714500Y-57518500D01*
X151489500Y-57518500D01*
X151490259Y-57518500D01*
X151490259Y-58801500D01*
X151490259Y-58801500D01*
G37*
G36*
X151569539Y-60769480D02*
X151568780Y-60769480D01*
X150631220Y-60769480D01*
X150630460Y-60769480D01*
X150630460Y-59831920D01*
X150631220Y-59831920D01*
X151568780Y-59831920D01*
X151569539Y-59831920D01*
X151569539Y-60769480D01*
X151569539Y-60769480D01*
G37*
G36*
X151569539Y-62268080D02*
X151568780Y-62268080D01*
X150631220Y-62268080D01*
X150630460Y-62268080D01*
X150630460Y-61330520D01*
X150631220Y-61330520D01*
X151568780Y-61330520D01*
X151569539Y-61330520D01*
X151569539Y-62268080D01*
X151569539Y-62268080D01*
G37*
G36*
X152068839Y-32418780D02*
X152068080Y-32418780D01*
X151130520Y-32418780D01*
X151129760Y-32418780D01*
X151129760Y-31481220D01*
X151130520Y-31481220D01*
X152068080Y-31481220D01*
X152068839Y-31481220D01*
X152068839Y-32418780D01*
X152068839Y-32418780D01*
G37*
G36*
X152420759Y-70770000D02*
X152420000Y-70770000D01*
X151280000Y-70770000D01*
X151279240Y-70770000D01*
X151279240Y-69530000D01*
X151280000Y-69530000D01*
X152420000Y-69530000D01*
X152420759Y-69530000D01*
X152420759Y-70770000D01*
X152420759Y-70770000D01*
G37*
G36*
X152420759Y-72370000D02*
X152420000Y-72370000D01*
X151280000Y-72370000D01*
X151279240Y-72370000D01*
X151279240Y-71130000D01*
X151280000Y-71130000D01*
X152420000Y-71130000D01*
X152420759Y-71130000D01*
X152420759Y-72370000D01*
X152420759Y-72370000D01*
G37*
G36*
X152470759Y-74870000D02*
X152470000Y-74870000D01*
X150230000Y-74870000D01*
X150229240Y-74870000D01*
X150229240Y-73330000D01*
X150230000Y-73330000D01*
X152470000Y-73330000D01*
X152470759Y-73330000D01*
X152470759Y-74870000D01*
X152470759Y-74870000D01*
G37*
G36*
X152470759Y-79370000D02*
X152470000Y-79370000D01*
X150230000Y-79370000D01*
X150229240Y-79370000D01*
X150229240Y-77830000D01*
X150230000Y-77830000D01*
X152470000Y-77830000D01*
X152470759Y-77830000D01*
X152470759Y-79370000D01*
X152470759Y-79370000D01*
G37*
G36*
X153642259Y-32325500D02*
X153641500Y-32325500D01*
X152358500Y-32325500D01*
X152357740Y-32325500D01*
X152357740Y-31550500D01*
X152358500Y-31550500D01*
X153641500Y-31550500D01*
X153642259Y-31550500D01*
X153642259Y-32325500D01*
X153642259Y-32325500D01*
G37*
G36*
X153642259Y-33849500D02*
X153641500Y-33849500D01*
X152358500Y-33849500D01*
X152357740Y-33849500D01*
X152357740Y-33074500D01*
X152358500Y-33074500D01*
X153641500Y-33074500D01*
X153642259Y-33074500D01*
X153642259Y-33849500D01*
X153642259Y-33849500D01*
G37*
G36*
X153920759Y-70770000D02*
X153920000Y-70770000D01*
X152780000Y-70770000D01*
X152779240Y-70770000D01*
X152779240Y-69530000D01*
X152780000Y-69530000D01*
X153920000Y-69530000D01*
X153920759Y-69530000D01*
X153920759Y-70770000D01*
X153920759Y-70770000D01*
G37*
G36*
X153920759Y-72370000D02*
X153920000Y-72370000D01*
X152780000Y-72370000D01*
X152779240Y-72370000D01*
X152779240Y-71130000D01*
X152780000Y-71130000D01*
X153920000Y-71130000D01*
X153920759Y-71130000D01*
X153920759Y-72370000D01*
X153920759Y-72370000D01*
G37*
G36*
X153972459Y-36673100D02*
X153971700Y-36673100D01*
X152028300Y-36673100D01*
X152027540Y-36673100D01*
X152027540Y-34932900D01*
X152028300Y-34932900D01*
X153971700Y-34932900D01*
X153972459Y-34932900D01*
X153972459Y-36673100D01*
X153972459Y-36673100D01*
G37*
G36*
X153972459Y-39467100D02*
X153971700Y-39467100D01*
X152028300Y-39467100D01*
X152027540Y-39467100D01*
X152027540Y-37726900D01*
X152028300Y-37726900D01*
X153971700Y-37726900D01*
X153972459Y-37726900D01*
X153972459Y-39467100D01*
X153972459Y-39467100D01*
G37*
G36*
X154321139Y-76167740D02*
X154320380Y-76167740D01*
X153179620Y-76167740D01*
X153178860Y-76167740D01*
X153178860Y-75128580D01*
X153179620Y-75128580D01*
X154320380Y-75128580D01*
X154321139Y-75128580D01*
X154321139Y-76167740D01*
X154321139Y-76167740D01*
G37*
G36*
X154321139Y-77671420D02*
X154320380Y-77671420D01*
X153179620Y-77671420D01*
X153178860Y-77671420D01*
X153178860Y-76632260D01*
X153179620Y-76632260D01*
X154320380Y-76632260D01*
X154321139Y-76632260D01*
X154321139Y-77671420D01*
X154321139Y-77671420D01*
G37*
G36*
X155076259Y-72691500D02*
X155075500Y-72691500D01*
X154300500Y-72691500D01*
X154299740Y-72691500D01*
X154299740Y-71408500D01*
X154300500Y-71408500D01*
X155075500Y-71408500D01*
X155076259Y-71408500D01*
X155076259Y-72691500D01*
X155076259Y-72691500D01*
G37*
G36*
X155620759Y-68470000D02*
X155620000Y-68470000D01*
X154280000Y-68470000D01*
X154279240Y-68470000D01*
X154279240Y-68028682D01*
X154279240Y-68011317D01*
X154279240Y-67988682D01*
X154279240Y-67971317D01*
X154279240Y-67528682D01*
X154279240Y-67511317D01*
X154279240Y-67488682D01*
X154279240Y-67471317D01*
X154279240Y-67028682D01*
X154279240Y-67011317D01*
X154279240Y-66988682D01*
X154279240Y-66971317D01*
X154279240Y-66528682D01*
X154279240Y-66511317D01*
X154279240Y-66488682D01*
X154279240Y-66471317D01*
X154279240Y-66028682D01*
X154279240Y-66011317D01*
X154279240Y-65988682D01*
X154279240Y-65971317D01*
X154279240Y-65528682D01*
X154279240Y-65511317D01*
X154279240Y-65488682D01*
X154279240Y-65471317D01*
X154279240Y-65028682D01*
X154279240Y-65011317D01*
X154279240Y-64988682D01*
X154279240Y-64971317D01*
X154279240Y-64528682D01*
X154279240Y-64511317D01*
X154279240Y-64488682D01*
X154279240Y-64471317D01*
X154279240Y-64028682D01*
X154279240Y-64011317D01*
X154279240Y-63988682D01*
X154279240Y-63971317D01*
X154279240Y-63528682D01*
X154279240Y-63511317D01*
X154279240Y-63488682D01*
X154279240Y-63471317D01*
X154279240Y-63028682D01*
X154279240Y-63011317D01*
X154279240Y-62988682D01*
X154279240Y-62971317D01*
X154279240Y-62528682D01*
X154279240Y-62511317D01*
X154279240Y-62488682D01*
X154279240Y-62471317D01*
X154279240Y-62028682D01*
X154279240Y-62011317D01*
X154279240Y-61988682D01*
X154279240Y-61971317D01*
X154279240Y-61528682D01*
X154279240Y-61511317D01*
X154279240Y-61488682D01*
X154279240Y-61471317D01*
X154279240Y-61028682D01*
X154279240Y-61011317D01*
X154279240Y-60988682D01*
X154279240Y-60971317D01*
X154279240Y-60530000D01*
X154280000Y-60530000D01*
X155620000Y-60530000D01*
X155620759Y-60530000D01*
X155620759Y-60971317D01*
X155620759Y-60988682D01*
X155620759Y-61011317D01*
X155620759Y-61028682D01*
X155620759Y-61471317D01*
X155620759Y-61488682D01*
X155620759Y-61511317D01*
X155620759Y-61528682D01*
X155620759Y-61971317D01*
X155620759Y-61988682D01*
X155620759Y-62011317D01*
X155620759Y-62028682D01*
X155620759Y-62471317D01*
X155620759Y-62488682D01*
X155620759Y-62511317D01*
X155620759Y-62528682D01*
X155620759Y-62971317D01*
X155620759Y-62988682D01*
X155620759Y-63011317D01*
X155620759Y-63028682D01*
X155620759Y-63471317D01*
X155620759Y-63488682D01*
X155620759Y-63511317D01*
X155620759Y-63528682D01*
X155620759Y-63971317D01*
X155620759Y-63988682D01*
X155620759Y-64011317D01*
X155620759Y-64028682D01*
X155620759Y-64471317D01*
X155620759Y-64488682D01*
X155620759Y-64511317D01*
X155620759Y-64528682D01*
X155620759Y-64971317D01*
X155620759Y-64988682D01*
X155620759Y-65011317D01*
X155620759Y-65028682D01*
X155620759Y-65471317D01*
X155620759Y-65488682D01*
X155620759Y-65511317D01*
X155620759Y-65528682D01*
X155620759Y-65971317D01*
X155620759Y-65988682D01*
X155620759Y-66011317D01*
X155620759Y-66028682D01*
X155620759Y-66471317D01*
X155620759Y-66488682D01*
X155620759Y-66511317D01*
X155620759Y-66528682D01*
X155620759Y-66971317D01*
X155620759Y-66988682D01*
X155620759Y-67011317D01*
X155620759Y-67028682D01*
X155620759Y-67471317D01*
X155620759Y-67488682D01*
X155620759Y-67511317D01*
X155620759Y-67528682D01*
X155620759Y-67971317D01*
X155620759Y-67988682D01*
X155620759Y-68011317D01*
X155620759Y-68028682D01*
X155620759Y-68470000D01*
X155620759Y-68470000D01*
G37*
G36*
X155692062Y-33339732D02*
X155690126Y-33478404D01*
X155661463Y-33604561D01*
X155610863Y-33718213D01*
X155538436Y-33820883D01*
X155445650Y-33909243D01*
X155342696Y-33974579D01*
X155219756Y-34022265D01*
X155219755Y-34022265D01*
X155103305Y-34042797D01*
X154971471Y-34040036D01*
X154852382Y-34013853D01*
X154734969Y-33962556D01*
X154631795Y-33890849D01*
X154545377Y-33801360D01*
X154475294Y-33692612D01*
X154430860Y-33580386D01*
X154407056Y-33450687D01*
X154408724Y-33331228D01*
X154435881Y-33203462D01*
X154484403Y-33090254D01*
X154556087Y-32985561D01*
X154646746Y-32896782D01*
X154749809Y-32829339D01*
X154870917Y-32780409D01*
X154988269Y-32758022D01*
X155120136Y-32758942D01*
X155238370Y-32783213D01*
X155357634Y-32833347D01*
X155460772Y-32902914D01*
X155549306Y-32992068D01*
X155620211Y-33098789D01*
X155666676Y-33211520D01*
X155692062Y-33339732D01*
X155692062Y-33339732D01*
G37*
G36*
X156600259Y-72691500D02*
X156599500Y-72691500D01*
X155824500Y-72691500D01*
X155823740Y-72691500D01*
X155823740Y-71408500D01*
X155824500Y-71408500D01*
X156599500Y-71408500D01*
X156600259Y-71408500D01*
X156600259Y-72691500D01*
X156600259Y-72691500D01*
G37*
G36*
X157220565Y-55182036D02*
X157218384Y-55338291D01*
X157186310Y-55479460D01*
X157129449Y-55607175D01*
X157048148Y-55722425D01*
X156944213Y-55821401D01*
X156828262Y-55894986D01*
X156690968Y-55948239D01*
X156690966Y-55948239D01*
X156559356Y-55971445D01*
X156412132Y-55968361D01*
X156278007Y-55938872D01*
X156146486Y-55881413D01*
X156030672Y-55800919D01*
X155933559Y-55700355D01*
X155855136Y-55578668D01*
X155805036Y-55452128D01*
X155778453Y-55307288D01*
X155780336Y-55172436D01*
X155810694Y-55029611D01*
X155865280Y-54902254D01*
X155945661Y-54784858D01*
X156047319Y-54685308D01*
X156163264Y-54609435D01*
X156298646Y-54554738D01*
X156431120Y-54529466D01*
X156578382Y-54530495D01*
X156711695Y-54557860D01*
X156845151Y-54613960D01*
X156961052Y-54692136D01*
X157060434Y-54792214D01*
X157139858Y-54911757D01*
X157192188Y-55038722D01*
X157220565Y-55182036D01*
X157220565Y-55182036D01*
G37*
G36*
X157620556Y-75701647D02*
X157619001Y-75813103D01*
X157595617Y-75916025D01*
X157554708Y-76007908D01*
X157496016Y-76091108D01*
X157420485Y-76163036D01*
X157337650Y-76215605D01*
X157236924Y-76254674D01*
X157236923Y-76254674D01*
X157143938Y-76271069D01*
X157035928Y-76268807D01*
X156940109Y-76247740D01*
X156844530Y-76205983D01*
X156760923Y-76147874D01*
X156691056Y-76075525D01*
X156633881Y-75986805D01*
X156598219Y-75896734D01*
X156578716Y-75790471D01*
X156580051Y-75694837D01*
X156602254Y-75590378D01*
X156641389Y-75499071D01*
X156699612Y-75414037D01*
X156773247Y-75341930D01*
X156856371Y-75287534D01*
X156955388Y-75247529D01*
X157049334Y-75229607D01*
X157157375Y-75230362D01*
X157252267Y-75249841D01*
X157349566Y-75290741D01*
X157432950Y-75346984D01*
X157504695Y-75419231D01*
X157562413Y-75506105D01*
X157599797Y-75596808D01*
X157620556Y-75701647D01*
X157620556Y-75701647D01*
G37*
G36*
X157620556Y-77701647D02*
X157619001Y-77813103D01*
X157595617Y-77916025D01*
X157554708Y-78007908D01*
X157496016Y-78091108D01*
X157420485Y-78163036D01*
X157337650Y-78215605D01*
X157236924Y-78254674D01*
X157236923Y-78254674D01*
X157143938Y-78271069D01*
X157035928Y-78268807D01*
X156940109Y-78247740D01*
X156844530Y-78205983D01*
X156760923Y-78147874D01*
X156691056Y-78075525D01*
X156633881Y-77986805D01*
X156598219Y-77896734D01*
X156578716Y-77790471D01*
X156580051Y-77694837D01*
X156602254Y-77590378D01*
X156641389Y-77499071D01*
X156699612Y-77414037D01*
X156773247Y-77341930D01*
X156856371Y-77287534D01*
X156955388Y-77247529D01*
X157049334Y-77229607D01*
X157157375Y-77230362D01*
X157252267Y-77249841D01*
X157349566Y-77290741D01*
X157432950Y-77346984D01*
X157504695Y-77419231D01*
X157562413Y-77506105D01*
X157599797Y-77596808D01*
X157620556Y-77701647D01*
X157620556Y-77701647D01*
G37*
G36*
X158620556Y-74701647D02*
X158619001Y-74813103D01*
X158595617Y-74916025D01*
X158554708Y-75007908D01*
X158496016Y-75091108D01*
X158420485Y-75163036D01*
X158337650Y-75215605D01*
X158236924Y-75254674D01*
X158236923Y-75254674D01*
X158143938Y-75271069D01*
X158035928Y-75268807D01*
X157940109Y-75247740D01*
X157844530Y-75205983D01*
X157760923Y-75147874D01*
X157691056Y-75075525D01*
X157633881Y-74986805D01*
X157598219Y-74896734D01*
X157578716Y-74790471D01*
X157580051Y-74694837D01*
X157602254Y-74590378D01*
X157641389Y-74499071D01*
X157699612Y-74414037D01*
X157773247Y-74341930D01*
X157856371Y-74287534D01*
X157955388Y-74247529D01*
X158049334Y-74229607D01*
X158157375Y-74230362D01*
X158252267Y-74249841D01*
X158349566Y-74290741D01*
X158432950Y-74346984D01*
X158504695Y-74419231D01*
X158562413Y-74506105D01*
X158599797Y-74596808D01*
X158620556Y-74701647D01*
X158620556Y-74701647D01*
G37*
G36*
X158620556Y-76701647D02*
X158619001Y-76813103D01*
X158595617Y-76916025D01*
X158554708Y-77007908D01*
X158496016Y-77091108D01*
X158420485Y-77163036D01*
X158337650Y-77215605D01*
X158236924Y-77254674D01*
X158236923Y-77254674D01*
X158143938Y-77271069D01*
X158035928Y-77268807D01*
X157940109Y-77247740D01*
X157844530Y-77205983D01*
X157760923Y-77147874D01*
X157691056Y-77075525D01*
X157633881Y-76986805D01*
X157598219Y-76896734D01*
X157578716Y-76790471D01*
X157580051Y-76694837D01*
X157602254Y-76590378D01*
X157641389Y-76499071D01*
X157699612Y-76414037D01*
X157773247Y-76341930D01*
X157856371Y-76287534D01*
X157955388Y-76247529D01*
X158049334Y-76229607D01*
X158157375Y-76230362D01*
X158252267Y-76249841D01*
X158349566Y-76290741D01*
X158432950Y-76346984D01*
X158504695Y-76419231D01*
X158562413Y-76506105D01*
X158599797Y-76596808D01*
X158620556Y-76701647D01*
X158620556Y-76701647D01*
G37*
G36*
X159220565Y-55182036D02*
X159218384Y-55338291D01*
X159186310Y-55479460D01*
X159129449Y-55607175D01*
X159048148Y-55722425D01*
X158944213Y-55821401D01*
X158828262Y-55894986D01*
X158690968Y-55948239D01*
X158690966Y-55948239D01*
X158559356Y-55971445D01*
X158412132Y-55968361D01*
X158278007Y-55938872D01*
X158146486Y-55881413D01*
X158030672Y-55800919D01*
X157933559Y-55700355D01*
X157855136Y-55578668D01*
X157805036Y-55452128D01*
X157778453Y-55307288D01*
X157780336Y-55172436D01*
X157810694Y-55029611D01*
X157865280Y-54902254D01*
X157945661Y-54784858D01*
X158047319Y-54685308D01*
X158163264Y-54609435D01*
X158298646Y-54554738D01*
X158431120Y-54529466D01*
X158578382Y-54530495D01*
X158711695Y-54557860D01*
X158845151Y-54613960D01*
X158961052Y-54692136D01*
X159060434Y-54792214D01*
X159139858Y-54911757D01*
X159192188Y-55038722D01*
X159220565Y-55182036D01*
X159220565Y-55182036D01*
G37*
G36*
X159620556Y-75701647D02*
X159619001Y-75813103D01*
X159595617Y-75916025D01*
X159554708Y-76007908D01*
X159496016Y-76091108D01*
X159420485Y-76163036D01*
X159337650Y-76215605D01*
X159236924Y-76254674D01*
X159236923Y-76254674D01*
X159143938Y-76271069D01*
X159035928Y-76268807D01*
X158940109Y-76247740D01*
X158844530Y-76205983D01*
X158760923Y-76147874D01*
X158691056Y-76075525D01*
X158633881Y-75986805D01*
X158598219Y-75896734D01*
X158578716Y-75790471D01*
X158580051Y-75694837D01*
X158602254Y-75590378D01*
X158641389Y-75499071D01*
X158699612Y-75414037D01*
X158773247Y-75341930D01*
X158856371Y-75287534D01*
X158955388Y-75247529D01*
X159049334Y-75229607D01*
X159157375Y-75230362D01*
X159252267Y-75249841D01*
X159349566Y-75290741D01*
X159432950Y-75346984D01*
X159504695Y-75419231D01*
X159562413Y-75506105D01*
X159599797Y-75596808D01*
X159620556Y-75701647D01*
X159620556Y-75701647D01*
G37*
G36*
X159620556Y-77701647D02*
X159619001Y-77813103D01*
X159595617Y-77916025D01*
X159554708Y-78007908D01*
X159496016Y-78091108D01*
X159420485Y-78163036D01*
X159337650Y-78215605D01*
X159236924Y-78254674D01*
X159236923Y-78254674D01*
X159143938Y-78271069D01*
X159035928Y-78268807D01*
X158940109Y-78247740D01*
X158844530Y-78205983D01*
X158760923Y-78147874D01*
X158691056Y-78075525D01*
X158633881Y-77986805D01*
X158598219Y-77896734D01*
X158578716Y-77790471D01*
X158580051Y-77694837D01*
X158602254Y-77590378D01*
X158641389Y-77499071D01*
X158699612Y-77414037D01*
X158773247Y-77341930D01*
X158856371Y-77287534D01*
X158955388Y-77247529D01*
X159049334Y-77229607D01*
X159157375Y-77230362D01*
X159252267Y-77249841D01*
X159349566Y-77290741D01*
X159432950Y-77346984D01*
X159504695Y-77419231D01*
X159562413Y-77506105D01*
X159599797Y-77596808D01*
X159620556Y-77701647D01*
X159620556Y-77701647D01*
G37*
G36*
X160620556Y-74701647D02*
X160619001Y-74813103D01*
X160595617Y-74916025D01*
X160554708Y-75007908D01*
X160496016Y-75091108D01*
X160420485Y-75163036D01*
X160337650Y-75215605D01*
X160236924Y-75254674D01*
X160236923Y-75254674D01*
X160143938Y-75271069D01*
X160035928Y-75268807D01*
X159940109Y-75247740D01*
X159844530Y-75205983D01*
X159760923Y-75147874D01*
X159691056Y-75075525D01*
X159633881Y-74986805D01*
X159598219Y-74896734D01*
X159578716Y-74790471D01*
X159580051Y-74694837D01*
X159602254Y-74590378D01*
X159641389Y-74499071D01*
X159699612Y-74414037D01*
X159773247Y-74341930D01*
X159856371Y-74287534D01*
X159955388Y-74247529D01*
X160049334Y-74229607D01*
X160157375Y-74230362D01*
X160252267Y-74249841D01*
X160349566Y-74290741D01*
X160432950Y-74346984D01*
X160504695Y-74419231D01*
X160562413Y-74506105D01*
X160599797Y-74596808D01*
X160620556Y-74701647D01*
X160620556Y-74701647D01*
G37*
G36*
X160620556Y-76701647D02*
X160619001Y-76813103D01*
X160595617Y-76916025D01*
X160554708Y-77007908D01*
X160496016Y-77091108D01*
X160420485Y-77163036D01*
X160337650Y-77215605D01*
X160236924Y-77254674D01*
X160236923Y-77254674D01*
X160143938Y-77271069D01*
X160035928Y-77268807D01*
X159940109Y-77247740D01*
X159844530Y-77205983D01*
X159760923Y-77147874D01*
X159691056Y-77075525D01*
X159633881Y-76986805D01*
X159598219Y-76896734D01*
X159578716Y-76790471D01*
X159580051Y-76694837D01*
X159602254Y-76590378D01*
X159641389Y-76499071D01*
X159699612Y-76414037D01*
X159773247Y-76341930D01*
X159856371Y-76287534D01*
X159955388Y-76247529D01*
X160049334Y-76229607D01*
X160157375Y-76230362D01*
X160252267Y-76249841D01*
X160349566Y-76290741D01*
X160432950Y-76346984D01*
X160504695Y-76419231D01*
X160562413Y-76506105D01*
X160599797Y-76596808D01*
X160620556Y-76701647D01*
X160620556Y-76701647D01*
G37*
G36*
X160670759Y-35070000D02*
X160670000Y-35070000D01*
X158930000Y-35070000D01*
X158929240Y-35070000D01*
X158929240Y-31730000D01*
X158930000Y-31730000D01*
X160670000Y-31730000D01*
X160670759Y-31730000D01*
X160670759Y-35070000D01*
X160670759Y-35070000D01*
G37*
G36*
X160670759Y-40070000D02*
X160670000Y-40070000D01*
X158930000Y-40070000D01*
X158929240Y-40070000D01*
X158929240Y-36730000D01*
X158930000Y-36730000D01*
X160670000Y-36730000D01*
X160670759Y-36730000D01*
X160670759Y-40070000D01*
X160670759Y-40070000D01*
G37*
G36*
X161220565Y-55182036D02*
X161218384Y-55338291D01*
X161186310Y-55479460D01*
X161129449Y-55607175D01*
X161048148Y-55722425D01*
X160944213Y-55821401D01*
X160828262Y-55894986D01*
X160690968Y-55948239D01*
X160690966Y-55948239D01*
X160559356Y-55971445D01*
X160412132Y-55968361D01*
X160278007Y-55938872D01*
X160146486Y-55881413D01*
X160030672Y-55800919D01*
X159933559Y-55700355D01*
X159855136Y-55578668D01*
X159805036Y-55452128D01*
X159778453Y-55307288D01*
X159780336Y-55172436D01*
X159810694Y-55029611D01*
X159865280Y-54902254D01*
X159945661Y-54784858D01*
X160047319Y-54685308D01*
X160163264Y-54609435D01*
X160298646Y-54554738D01*
X160431120Y-54529466D01*
X160578382Y-54530495D01*
X160711695Y-54557860D01*
X160845151Y-54613960D01*
X160961052Y-54692136D01*
X161060434Y-54792214D01*
X161139858Y-54911757D01*
X161192188Y-55038722D01*
X161220565Y-55182036D01*
X161220565Y-55182036D01*
G37*
G36*
X161620556Y-75701647D02*
X161619001Y-75813103D01*
X161595617Y-75916025D01*
X161554708Y-76007908D01*
X161496016Y-76091108D01*
X161420485Y-76163036D01*
X161337650Y-76215605D01*
X161236924Y-76254674D01*
X161236923Y-76254674D01*
X161143938Y-76271069D01*
X161035928Y-76268807D01*
X160940109Y-76247740D01*
X160844530Y-76205983D01*
X160760923Y-76147874D01*
X160691056Y-76075525D01*
X160633881Y-75986805D01*
X160598219Y-75896734D01*
X160578716Y-75790471D01*
X160580051Y-75694837D01*
X160602254Y-75590378D01*
X160641389Y-75499071D01*
X160699612Y-75414037D01*
X160773247Y-75341930D01*
X160856371Y-75287534D01*
X160955388Y-75247529D01*
X161049334Y-75229607D01*
X161157375Y-75230362D01*
X161252267Y-75249841D01*
X161349566Y-75290741D01*
X161432950Y-75346984D01*
X161504695Y-75419231D01*
X161562413Y-75506105D01*
X161599797Y-75596808D01*
X161620556Y-75701647D01*
X161620556Y-75701647D01*
G37*
G36*
X161620556Y-77701647D02*
X161619001Y-77813103D01*
X161595617Y-77916025D01*
X161554708Y-78007908D01*
X161496016Y-78091108D01*
X161420485Y-78163036D01*
X161337650Y-78215605D01*
X161236924Y-78254674D01*
X161236923Y-78254674D01*
X161143938Y-78271069D01*
X161035928Y-78268807D01*
X160940109Y-78247740D01*
X160844530Y-78205983D01*
X160760923Y-78147874D01*
X160691056Y-78075525D01*
X160633881Y-77986805D01*
X160598219Y-77896734D01*
X160578716Y-77790471D01*
X160580051Y-77694837D01*
X160602254Y-77590378D01*
X160641389Y-77499071D01*
X160699612Y-77414037D01*
X160773247Y-77341930D01*
X160856371Y-77287534D01*
X160955388Y-77247529D01*
X161049334Y-77229607D01*
X161157375Y-77230362D01*
X161252267Y-77249841D01*
X161349566Y-77290741D01*
X161432950Y-77346984D01*
X161504695Y-77419231D01*
X161562413Y-77506105D01*
X161599797Y-77596808D01*
X161620556Y-77701647D01*
X161620556Y-77701647D01*
G37*
G36*
X162620556Y-74701647D02*
X162619001Y-74813103D01*
X162595617Y-74916025D01*
X162554708Y-75007908D01*
X162496016Y-75091108D01*
X162420485Y-75163036D01*
X162337650Y-75215605D01*
X162236924Y-75254674D01*
X162236923Y-75254674D01*
X162143938Y-75271069D01*
X162035928Y-75268807D01*
X161940109Y-75247740D01*
X161844530Y-75205983D01*
X161760923Y-75147874D01*
X161691056Y-75075525D01*
X161633881Y-74986805D01*
X161598219Y-74896734D01*
X161578716Y-74790471D01*
X161580051Y-74694837D01*
X161602254Y-74590378D01*
X161641389Y-74499071D01*
X161699612Y-74414037D01*
X161773247Y-74341930D01*
X161856371Y-74287534D01*
X161955388Y-74247529D01*
X162049334Y-74229607D01*
X162157375Y-74230362D01*
X162252267Y-74249841D01*
X162349566Y-74290741D01*
X162432950Y-74346984D01*
X162504695Y-74419231D01*
X162562413Y-74506105D01*
X162599797Y-74596808D01*
X162620556Y-74701647D01*
X162620556Y-74701647D01*
G37*
G36*
X162620556Y-76701647D02*
X162619001Y-76813103D01*
X162595617Y-76916025D01*
X162554708Y-77007908D01*
X162496016Y-77091108D01*
X162420485Y-77163036D01*
X162337650Y-77215605D01*
X162236924Y-77254674D01*
X162236923Y-77254674D01*
X162143938Y-77271069D01*
X162035928Y-77268807D01*
X161940109Y-77247740D01*
X161844530Y-77205983D01*
X161760923Y-77147874D01*
X161691056Y-77075525D01*
X161633881Y-76986805D01*
X161598219Y-76896734D01*
X161578716Y-76790471D01*
X161580051Y-76694837D01*
X161602254Y-76590378D01*
X161641389Y-76499071D01*
X161699612Y-76414037D01*
X161773247Y-76341930D01*
X161856371Y-76287534D01*
X161955388Y-76247529D01*
X162049334Y-76229607D01*
X162157375Y-76230362D01*
X162252267Y-76249841D01*
X162349566Y-76290741D01*
X162432950Y-76346984D01*
X162504695Y-76419231D01*
X162562413Y-76506105D01*
X162599797Y-76596808D01*
X162620556Y-76701647D01*
X162620556Y-76701647D01*
G37*
G36*
X163220565Y-55182036D02*
X163218384Y-55338291D01*
X163186310Y-55479460D01*
X163129449Y-55607175D01*
X163048148Y-55722425D01*
X162944213Y-55821401D01*
X162828262Y-55894986D01*
X162690968Y-55948239D01*
X162690966Y-55948239D01*
X162559356Y-55971445D01*
X162412132Y-55968361D01*
X162278007Y-55938872D01*
X162146486Y-55881413D01*
X162030672Y-55800919D01*
X161933559Y-55700355D01*
X161855136Y-55578668D01*
X161805036Y-55452128D01*
X161778453Y-55307288D01*
X161780336Y-55172436D01*
X161810694Y-55029611D01*
X161865280Y-54902254D01*
X161945661Y-54784858D01*
X162047319Y-54685308D01*
X162163264Y-54609435D01*
X162298646Y-54554738D01*
X162431120Y-54529466D01*
X162578382Y-54530495D01*
X162711695Y-54557860D01*
X162845151Y-54613960D01*
X162961052Y-54692136D01*
X163060434Y-54792214D01*
X163139858Y-54911757D01*
X163192188Y-55038722D01*
X163220565Y-55182036D01*
X163220565Y-55182036D01*
G37*
G36*
X163620556Y-75701647D02*
X163619001Y-75813103D01*
X163595617Y-75916025D01*
X163554708Y-76007908D01*
X163496016Y-76091108D01*
X163420485Y-76163036D01*
X163337650Y-76215605D01*
X163236924Y-76254674D01*
X163236923Y-76254674D01*
X163143938Y-76271069D01*
X163035928Y-76268807D01*
X162940109Y-76247740D01*
X162844530Y-76205983D01*
X162760923Y-76147874D01*
X162691056Y-76075525D01*
X162633881Y-75986805D01*
X162598219Y-75896734D01*
X162578716Y-75790471D01*
X162580051Y-75694837D01*
X162602254Y-75590378D01*
X162641389Y-75499071D01*
X162699612Y-75414037D01*
X162773247Y-75341930D01*
X162856371Y-75287534D01*
X162955388Y-75247529D01*
X163049334Y-75229607D01*
X163157375Y-75230362D01*
X163252267Y-75249841D01*
X163349566Y-75290741D01*
X163432950Y-75346984D01*
X163504695Y-75419231D01*
X163562413Y-75506105D01*
X163599797Y-75596808D01*
X163620556Y-75701647D01*
X163620556Y-75701647D01*
G37*
G36*
X163620556Y-77701647D02*
X163619001Y-77813103D01*
X163595617Y-77916025D01*
X163554708Y-78007908D01*
X163496016Y-78091108D01*
X163420485Y-78163036D01*
X163337650Y-78215605D01*
X163236924Y-78254674D01*
X163236923Y-78254674D01*
X163143938Y-78271069D01*
X163035928Y-78268807D01*
X162940109Y-78247740D01*
X162844530Y-78205983D01*
X162760923Y-78147874D01*
X162691056Y-78075525D01*
X162633881Y-77986805D01*
X162598219Y-77896734D01*
X162578716Y-77790471D01*
X162580051Y-77694837D01*
X162602254Y-77590378D01*
X162641389Y-77499071D01*
X162699612Y-77414037D01*
X162773247Y-77341930D01*
X162856371Y-77287534D01*
X162955388Y-77247529D01*
X163049334Y-77229607D01*
X163157375Y-77230362D01*
X163252267Y-77249841D01*
X163349566Y-77290741D01*
X163432950Y-77346984D01*
X163504695Y-77419231D01*
X163562413Y-77506105D01*
X163599797Y-77596808D01*
X163620556Y-77701647D01*
X163620556Y-77701647D01*
G37*
G36*
X164620556Y-74701647D02*
X164619001Y-74813103D01*
X164595617Y-74916025D01*
X164554708Y-75007908D01*
X164496016Y-75091108D01*
X164420485Y-75163036D01*
X164337650Y-75215605D01*
X164236924Y-75254674D01*
X164236923Y-75254674D01*
X164143938Y-75271069D01*
X164035928Y-75268807D01*
X163940109Y-75247740D01*
X163844530Y-75205983D01*
X163760923Y-75147874D01*
X163691056Y-75075525D01*
X163633881Y-74986805D01*
X163598219Y-74896734D01*
X163578716Y-74790471D01*
X163580051Y-74694837D01*
X163602254Y-74590378D01*
X163641389Y-74499071D01*
X163699612Y-74414037D01*
X163773247Y-74341930D01*
X163856371Y-74287534D01*
X163955388Y-74247529D01*
X164049334Y-74229607D01*
X164157375Y-74230362D01*
X164252267Y-74249841D01*
X164349566Y-74290741D01*
X164432950Y-74346984D01*
X164504695Y-74419231D01*
X164562413Y-74506105D01*
X164599797Y-74596808D01*
X164620556Y-74701647D01*
X164620556Y-74701647D01*
G37*
G36*
X164620556Y-76701647D02*
X164619001Y-76813103D01*
X164595617Y-76916025D01*
X164554708Y-77007908D01*
X164496016Y-77091108D01*
X164420485Y-77163036D01*
X164337650Y-77215605D01*
X164236924Y-77254674D01*
X164236923Y-77254674D01*
X164143938Y-77271069D01*
X164035928Y-77268807D01*
X163940109Y-77247740D01*
X163844530Y-77205983D01*
X163760923Y-77147874D01*
X163691056Y-77075525D01*
X163633881Y-76986805D01*
X163598219Y-76896734D01*
X163578716Y-76790471D01*
X163580051Y-76694837D01*
X163602254Y-76590378D01*
X163641389Y-76499071D01*
X163699612Y-76414037D01*
X163773247Y-76341930D01*
X163856371Y-76287534D01*
X163955388Y-76247529D01*
X164049334Y-76229607D01*
X164157375Y-76230362D01*
X164252267Y-76249841D01*
X164349566Y-76290741D01*
X164432950Y-76346984D01*
X164504695Y-76419231D01*
X164562413Y-76506105D01*
X164599797Y-76596808D01*
X164620556Y-76701647D01*
X164620556Y-76701647D01*
G37*
G36*
X164670759Y-59420000D02*
X164670000Y-59420000D01*
X164230000Y-59420000D01*
X164219999Y-59420000D01*
X164179999Y-59420000D01*
X164170000Y-59420000D01*
X163730000Y-59420000D01*
X163719999Y-59420000D01*
X163679999Y-59420000D01*
X163670000Y-59420000D01*
X163230000Y-59420000D01*
X163219999Y-59420000D01*
X163179999Y-59420000D01*
X163170000Y-59420000D01*
X162730000Y-59420000D01*
X162719999Y-59420000D01*
X162679999Y-59420000D01*
X162670000Y-59420000D01*
X162230000Y-59420000D01*
X162219999Y-59420000D01*
X162179999Y-59420000D01*
X162170000Y-59420000D01*
X161730000Y-59420000D01*
X161719999Y-59420000D01*
X161679999Y-59420000D01*
X161670000Y-59420000D01*
X161230000Y-59420000D01*
X161219999Y-59420000D01*
X161179999Y-59420000D01*
X161170000Y-59420000D01*
X160730000Y-59420000D01*
X160719999Y-59420000D01*
X160679999Y-59420000D01*
X160670000Y-59420000D01*
X160230000Y-59420000D01*
X160219999Y-59420000D01*
X160179999Y-59420000D01*
X160170000Y-59420000D01*
X159730000Y-59420000D01*
X159719999Y-59420000D01*
X159679999Y-59420000D01*
X159670000Y-59420000D01*
X159230000Y-59420000D01*
X159219999Y-59420000D01*
X159179999Y-59420000D01*
X159170000Y-59420000D01*
X158730000Y-59420000D01*
X158719999Y-59420000D01*
X158679999Y-59420000D01*
X158670000Y-59420000D01*
X158230000Y-59420000D01*
X158219999Y-59420000D01*
X158179999Y-59420000D01*
X158170000Y-59420000D01*
X157730000Y-59420000D01*
X157719999Y-59420000D01*
X157679999Y-59420000D01*
X157670000Y-59420000D01*
X157230000Y-59420000D01*
X157219999Y-59420000D01*
X157179999Y-59420000D01*
X157170000Y-59420000D01*
X156730000Y-59420000D01*
X156729240Y-59420000D01*
X156729240Y-58080000D01*
X156730000Y-58080000D01*
X157170000Y-58080000D01*
X157180000Y-58080000D01*
X157220000Y-58080000D01*
X157230000Y-58080000D01*
X157670000Y-58080000D01*
X157680000Y-58080000D01*
X157720000Y-58080000D01*
X157730000Y-58080000D01*
X158170000Y-58080000D01*
X158180000Y-58080000D01*
X158220000Y-58080000D01*
X158230000Y-58080000D01*
X158670000Y-58080000D01*
X158680000Y-58080000D01*
X158720000Y-58080000D01*
X158730000Y-58080000D01*
X159170000Y-58080000D01*
X159180000Y-58080000D01*
X159220000Y-58080000D01*
X159230000Y-58080000D01*
X159670000Y-58080000D01*
X159680000Y-58080000D01*
X159720000Y-58080000D01*
X159730000Y-58080000D01*
X160170000Y-58080000D01*
X160180000Y-58080000D01*
X160220000Y-58080000D01*
X160230000Y-58080000D01*
X160670000Y-58080000D01*
X160680000Y-58080000D01*
X160720000Y-58080000D01*
X160730000Y-58080000D01*
X161170000Y-58080000D01*
X161180000Y-58080000D01*
X161220000Y-58080000D01*
X161230000Y-58080000D01*
X161670000Y-58080000D01*
X161680000Y-58080000D01*
X161720000Y-58080000D01*
X161730000Y-58080000D01*
X162170000Y-58080000D01*
X162180000Y-58080000D01*
X162220000Y-58080000D01*
X162230000Y-58080000D01*
X162670000Y-58080000D01*
X162680000Y-58080000D01*
X162720000Y-58080000D01*
X162730000Y-58080000D01*
X163170000Y-58080000D01*
X163180000Y-58080000D01*
X163220000Y-58080000D01*
X163230000Y-58080000D01*
X163670000Y-58080000D01*
X163680000Y-58080000D01*
X163720000Y-58080000D01*
X163730000Y-58080000D01*
X164170000Y-58080000D01*
X164180000Y-58080000D01*
X164220000Y-58080000D01*
X164230000Y-58080000D01*
X164670000Y-58080000D01*
X164670759Y-58080000D01*
X164670759Y-59420000D01*
X164670759Y-59420000D01*
G37*
G36*
X164670759Y-70920000D02*
X164670000Y-70920000D01*
X164230000Y-70920000D01*
X164219999Y-70920000D01*
X164179999Y-70920000D01*
X164170000Y-70920000D01*
X163730000Y-70920000D01*
X163719999Y-70920000D01*
X163679999Y-70920000D01*
X163670000Y-70920000D01*
X163230000Y-70920000D01*
X163219999Y-70920000D01*
X163179999Y-70920000D01*
X163170000Y-70920000D01*
X162730000Y-70920000D01*
X162719999Y-70920000D01*
X162679999Y-70920000D01*
X162670000Y-70920000D01*
X162230000Y-70920000D01*
X162219999Y-70920000D01*
X162179999Y-70920000D01*
X162170000Y-70920000D01*
X161730000Y-70920000D01*
X161719999Y-70920000D01*
X161679999Y-70920000D01*
X161670000Y-70920000D01*
X161230000Y-70920000D01*
X161219999Y-70920000D01*
X161179999Y-70920000D01*
X161170000Y-70920000D01*
X160730000Y-70920000D01*
X160719999Y-70920000D01*
X160679999Y-70920000D01*
X160670000Y-70920000D01*
X160230000Y-70920000D01*
X160219999Y-70920000D01*
X160179999Y-70920000D01*
X160170000Y-70920000D01*
X159730000Y-70920000D01*
X159719999Y-70920000D01*
X159679999Y-70920000D01*
X159670000Y-70920000D01*
X159230000Y-70920000D01*
X159219999Y-70920000D01*
X159179999Y-70920000D01*
X159170000Y-70920000D01*
X158730000Y-70920000D01*
X158719999Y-70920000D01*
X158679999Y-70920000D01*
X158670000Y-70920000D01*
X158230000Y-70920000D01*
X158219999Y-70920000D01*
X158179999Y-70920000D01*
X158170000Y-70920000D01*
X157730000Y-70920000D01*
X157719999Y-70920000D01*
X157679999Y-70920000D01*
X157670000Y-70920000D01*
X157230000Y-70920000D01*
X157219999Y-70920000D01*
X157179999Y-70920000D01*
X157170000Y-70920000D01*
X156730000Y-70920000D01*
X156729240Y-70920000D01*
X156729240Y-69580000D01*
X156730000Y-69580000D01*
X157170000Y-69580000D01*
X157180000Y-69580000D01*
X157220000Y-69580000D01*
X157230000Y-69580000D01*
X157670000Y-69580000D01*
X157680000Y-69580000D01*
X157720000Y-69580000D01*
X157730000Y-69580000D01*
X158170000Y-69580000D01*
X158180000Y-69580000D01*
X158220000Y-69580000D01*
X158230000Y-69580000D01*
X158670000Y-69580000D01*
X158680000Y-69580000D01*
X158720000Y-69580000D01*
X158730000Y-69580000D01*
X159170000Y-69580000D01*
X159180000Y-69580000D01*
X159220000Y-69580000D01*
X159230000Y-69580000D01*
X159670000Y-69580000D01*
X159680000Y-69580000D01*
X159720000Y-69580000D01*
X159730000Y-69580000D01*
X160170000Y-69580000D01*
X160180000Y-69580000D01*
X160220000Y-69580000D01*
X160230000Y-69580000D01*
X160670000Y-69580000D01*
X160680000Y-69580000D01*
X160720000Y-69580000D01*
X160730000Y-69580000D01*
X161170000Y-69580000D01*
X161180000Y-69580000D01*
X161220000Y-69580000D01*
X161230000Y-69580000D01*
X161670000Y-69580000D01*
X161680000Y-69580000D01*
X161720000Y-69580000D01*
X161730000Y-69580000D01*
X162170000Y-69580000D01*
X162180000Y-69580000D01*
X162220000Y-69580000D01*
X162230000Y-69580000D01*
X162670000Y-69580000D01*
X162680000Y-69580000D01*
X162720000Y-69580000D01*
X162730000Y-69580000D01*
X163170000Y-69580000D01*
X163180000Y-69580000D01*
X163220000Y-69580000D01*
X163230000Y-69580000D01*
X163670000Y-69580000D01*
X163680000Y-69580000D01*
X163720000Y-69580000D01*
X163730000Y-69580000D01*
X164170000Y-69580000D01*
X164180000Y-69580000D01*
X164220000Y-69580000D01*
X164230000Y-69580000D01*
X164670000Y-69580000D01*
X164670759Y-69580000D01*
X164670759Y-70920000D01*
X164670759Y-70920000D01*
G37*
G36*
X165220565Y-55182036D02*
X165218384Y-55338291D01*
X165186310Y-55479460D01*
X165129449Y-55607175D01*
X165048148Y-55722425D01*
X164944213Y-55821401D01*
X164828262Y-55894986D01*
X164690968Y-55948239D01*
X164690966Y-55948239D01*
X164559356Y-55971445D01*
X164412132Y-55968361D01*
X164278007Y-55938872D01*
X164146486Y-55881413D01*
X164030672Y-55800919D01*
X163933559Y-55700355D01*
X163855136Y-55578668D01*
X163805036Y-55452128D01*
X163778453Y-55307288D01*
X163780336Y-55172436D01*
X163810694Y-55029611D01*
X163865280Y-54902254D01*
X163945661Y-54784858D01*
X164047319Y-54685308D01*
X164163264Y-54609435D01*
X164298646Y-54554738D01*
X164431120Y-54529466D01*
X164578382Y-54530495D01*
X164711695Y-54557860D01*
X164845151Y-54613960D01*
X164961052Y-54692136D01*
X165060434Y-54792214D01*
X165139858Y-54911757D01*
X165192188Y-55038722D01*
X165220565Y-55182036D01*
X165220565Y-55182036D01*
G37*
G36*
X167120759Y-68470000D02*
X167120000Y-68470000D01*
X165780000Y-68470000D01*
X165779240Y-68470000D01*
X165779240Y-68028682D01*
X165779240Y-68011317D01*
X165779240Y-67988682D01*
X165779240Y-67971317D01*
X165779240Y-67528682D01*
X165779240Y-67511317D01*
X165779240Y-67488682D01*
X165779240Y-67471317D01*
X165779240Y-67028682D01*
X165779240Y-67011317D01*
X165779240Y-66988682D01*
X165779240Y-66971317D01*
X165779240Y-66528682D01*
X165779240Y-66511317D01*
X165779240Y-66488682D01*
X165779240Y-66471317D01*
X165779240Y-66028682D01*
X165779240Y-66011317D01*
X165779240Y-65988682D01*
X165779240Y-65971317D01*
X165779240Y-65528682D01*
X165779240Y-65511317D01*
X165779240Y-65488682D01*
X165779240Y-65471317D01*
X165779240Y-65028682D01*
X165779240Y-65011317D01*
X165779240Y-64988682D01*
X165779240Y-64971317D01*
X165779240Y-64528682D01*
X165779240Y-64511317D01*
X165779240Y-64488682D01*
X165779240Y-64471317D01*
X165779240Y-64028682D01*
X165779240Y-64011317D01*
X165779240Y-63988682D01*
X165779240Y-63971317D01*
X165779240Y-63528682D01*
X165779240Y-63511317D01*
X165779240Y-63488682D01*
X165779240Y-63471317D01*
X165779240Y-63028682D01*
X165779240Y-63011317D01*
X165779240Y-62988682D01*
X165779240Y-62971317D01*
X165779240Y-62528682D01*
X165779240Y-62511317D01*
X165779240Y-62488682D01*
X165779240Y-62471317D01*
X165779240Y-62028682D01*
X165779240Y-62011317D01*
X165779240Y-61988682D01*
X165779240Y-61971317D01*
X165779240Y-61528682D01*
X165779240Y-61511317D01*
X165779240Y-61488682D01*
X165779240Y-61471317D01*
X165779240Y-61028682D01*
X165779240Y-61011317D01*
X165779240Y-60988682D01*
X165779240Y-60971317D01*
X165779240Y-60530000D01*
X165780000Y-60530000D01*
X167120000Y-60530000D01*
X167120759Y-60530000D01*
X167120759Y-60971317D01*
X167120759Y-60988682D01*
X167120759Y-61011317D01*
X167120759Y-61028682D01*
X167120759Y-61471317D01*
X167120759Y-61488682D01*
X167120759Y-61511317D01*
X167120759Y-61528682D01*
X167120759Y-61971317D01*
X167120759Y-61988682D01*
X167120759Y-62011317D01*
X167120759Y-62028682D01*
X167120759Y-62471317D01*
X167120759Y-62488682D01*
X167120759Y-62511317D01*
X167120759Y-62528682D01*
X167120759Y-62971317D01*
X167120759Y-62988682D01*
X167120759Y-63011317D01*
X167120759Y-63028682D01*
X167120759Y-63471317D01*
X167120759Y-63488682D01*
X167120759Y-63511317D01*
X167120759Y-63528682D01*
X167120759Y-63971317D01*
X167120759Y-63988682D01*
X167120759Y-64011317D01*
X167120759Y-64028682D01*
X167120759Y-64471317D01*
X167120759Y-64488682D01*
X167120759Y-64511317D01*
X167120759Y-64528682D01*
X167120759Y-64971317D01*
X167120759Y-64988682D01*
X167120759Y-65011317D01*
X167120759Y-65028682D01*
X167120759Y-65471317D01*
X167120759Y-65488682D01*
X167120759Y-65511317D01*
X167120759Y-65528682D01*
X167120759Y-65971317D01*
X167120759Y-65988682D01*
X167120759Y-66011317D01*
X167120759Y-66028682D01*
X167120759Y-66471317D01*
X167120759Y-66488682D01*
X167120759Y-66511317D01*
X167120759Y-66528682D01*
X167120759Y-66971317D01*
X167120759Y-66988682D01*
X167120759Y-67011317D01*
X167120759Y-67028682D01*
X167120759Y-67471317D01*
X167120759Y-67488682D01*
X167120759Y-67511317D01*
X167120759Y-67528682D01*
X167120759Y-67971317D01*
X167120759Y-67988682D01*
X167120759Y-68011317D01*
X167120759Y-68028682D01*
X167120759Y-68470000D01*
X167120759Y-68470000D01*
G37*
G36*
X170376259Y-57691500D02*
X170375500Y-57691500D01*
X169600500Y-57691500D01*
X169599740Y-57691500D01*
X169599740Y-56408500D01*
X169600500Y-56408500D01*
X170375500Y-56408500D01*
X170376259Y-56408500D01*
X170376259Y-57691500D01*
X170376259Y-57691500D01*
G37*
G36*
X171900259Y-57691500D02*
X171899500Y-57691500D01*
X171124500Y-57691500D01*
X171123740Y-57691500D01*
X171123740Y-56408500D01*
X171124500Y-56408500D01*
X171899500Y-56408500D01*
X171900259Y-56408500D01*
X171900259Y-57691500D01*
X171900259Y-57691500D01*
G37*
G36*
X172720556Y-60951647D02*
X172719001Y-61063103D01*
X172695617Y-61166025D01*
X172654708Y-61257908D01*
X172596016Y-61341108D01*
X172520485Y-61413036D01*
X172437650Y-61465605D01*
X172336924Y-61504674D01*
X172336923Y-61504674D01*
X172243938Y-61521069D01*
X172135928Y-61518807D01*
X172040109Y-61497740D01*
X171944530Y-61455983D01*
X171860923Y-61397874D01*
X171791056Y-61325525D01*
X171733881Y-61236805D01*
X171698219Y-61146734D01*
X171678716Y-61040471D01*
X171680051Y-60944837D01*
X171702254Y-60840378D01*
X171741389Y-60749071D01*
X171799612Y-60664037D01*
X171873247Y-60591930D01*
X171956371Y-60537534D01*
X172055388Y-60497529D01*
X172149334Y-60479607D01*
X172257375Y-60480362D01*
X172352267Y-60499841D01*
X172449566Y-60540741D01*
X172532950Y-60596984D01*
X172604695Y-60669231D01*
X172662413Y-60756105D01*
X172699797Y-60846808D01*
X172720556Y-60951647D01*
X172720556Y-60951647D01*
G37*
G36*
X172720556Y-62951647D02*
X172719001Y-63063103D01*
X172695617Y-63166025D01*
X172654708Y-63257908D01*
X172596016Y-63341108D01*
X172520485Y-63413036D01*
X172437650Y-63465605D01*
X172336924Y-63504674D01*
X172336923Y-63504674D01*
X172243938Y-63521069D01*
X172135928Y-63518807D01*
X172040109Y-63497740D01*
X171944530Y-63455983D01*
X171860923Y-63397874D01*
X171791056Y-63325525D01*
X171733881Y-63236805D01*
X171698219Y-63146734D01*
X171678716Y-63040471D01*
X171680051Y-62944837D01*
X171702254Y-62840378D01*
X171741389Y-62749071D01*
X171799612Y-62664037D01*
X171873247Y-62591930D01*
X171956371Y-62537534D01*
X172055388Y-62497529D01*
X172149334Y-62479607D01*
X172257375Y-62480362D01*
X172352267Y-62499841D01*
X172449566Y-62540741D01*
X172532950Y-62596984D01*
X172604695Y-62669231D01*
X172662413Y-62756105D01*
X172699797Y-62846808D01*
X172720556Y-62951647D01*
X172720556Y-62951647D01*
G37*
G36*
X172720556Y-64951647D02*
X172719001Y-65063103D01*
X172695617Y-65166025D01*
X172654708Y-65257908D01*
X172596016Y-65341108D01*
X172520485Y-65413036D01*
X172437650Y-65465605D01*
X172336924Y-65504674D01*
X172336923Y-65504674D01*
X172243938Y-65521069D01*
X172135928Y-65518807D01*
X172040109Y-65497740D01*
X171944530Y-65455983D01*
X171860923Y-65397874D01*
X171791056Y-65325525D01*
X171733881Y-65236805D01*
X171698219Y-65146734D01*
X171678716Y-65040471D01*
X171680051Y-64944837D01*
X171702254Y-64840378D01*
X171741389Y-64749071D01*
X171799612Y-64664037D01*
X171873247Y-64591930D01*
X171956371Y-64537534D01*
X172055388Y-64497529D01*
X172149334Y-64479607D01*
X172257375Y-64480362D01*
X172352267Y-64499841D01*
X172449566Y-64540741D01*
X172532950Y-64596984D01*
X172604695Y-64669231D01*
X172662413Y-64756105D01*
X172699797Y-64846808D01*
X172720556Y-64951647D01*
X172720556Y-64951647D01*
G37*
G36*
X172720556Y-66951647D02*
X172719001Y-67063103D01*
X172695617Y-67166025D01*
X172654708Y-67257908D01*
X172596016Y-67341108D01*
X172520485Y-67413036D01*
X172437650Y-67465605D01*
X172336924Y-67504674D01*
X172336923Y-67504674D01*
X172243938Y-67521069D01*
X172135928Y-67518807D01*
X172040109Y-67497740D01*
X171944530Y-67455983D01*
X171860923Y-67397874D01*
X171791056Y-67325525D01*
X171733881Y-67236805D01*
X171698219Y-67146734D01*
X171678716Y-67040471D01*
X171680051Y-66944837D01*
X171702254Y-66840378D01*
X171741389Y-66749071D01*
X171799612Y-66664037D01*
X171873247Y-66591930D01*
X171956371Y-66537534D01*
X172055388Y-66497529D01*
X172149334Y-66479607D01*
X172257375Y-66480362D01*
X172352267Y-66499841D01*
X172449566Y-66540741D01*
X172532950Y-66596984D01*
X172604695Y-66669231D01*
X172662413Y-66756105D01*
X172699797Y-66846808D01*
X172720556Y-66951647D01*
X172720556Y-66951647D01*
G37*
G36*
X173420070Y-45447706D02*
X173416796Y-45682245D01*
X173369537Y-45890250D01*
X173284799Y-46080578D01*
X173163990Y-46251833D01*
X173010422Y-46398076D01*
X172836602Y-46508385D01*
X172635408Y-46586423D01*
X172635406Y-46586423D01*
X172436298Y-46621531D01*
X172220551Y-46617012D01*
X172019486Y-46572805D01*
X171825159Y-46487906D01*
X171653064Y-46368297D01*
X171508341Y-46218431D01*
X171392790Y-46039132D01*
X171317459Y-45848866D01*
X171278503Y-45636614D01*
X171281344Y-45433230D01*
X171325951Y-45223364D01*
X171407537Y-45033011D01*
X171526641Y-44859063D01*
X171677268Y-44711559D01*
X171850563Y-44598157D01*
X172049493Y-44517785D01*
X172249291Y-44479671D01*
X172465090Y-44481177D01*
X172665542Y-44522325D01*
X172862181Y-44604984D01*
X173034903Y-44721486D01*
X173182579Y-44870197D01*
X173299932Y-45046827D01*
X173378381Y-45237159D01*
X173420070Y-45447706D01*
X173420070Y-45447706D01*
G37*
G36*
X173420070Y-48947826D02*
X173416796Y-49182365D01*
X173369537Y-49390370D01*
X173284799Y-49580698D01*
X173163990Y-49751953D01*
X173010422Y-49898196D01*
X172836602Y-50008505D01*
X172635408Y-50086543D01*
X172635406Y-50086543D01*
X172436298Y-50121651D01*
X172220551Y-50117132D01*
X172019486Y-50072925D01*
X171825159Y-49988026D01*
X171653064Y-49868417D01*
X171508341Y-49718551D01*
X171392790Y-49539252D01*
X171317459Y-49348986D01*
X171278503Y-49136734D01*
X171281344Y-48933350D01*
X171325951Y-48723484D01*
X171407537Y-48533131D01*
X171526641Y-48359183D01*
X171677268Y-48211679D01*
X171850563Y-48098277D01*
X172049493Y-48017905D01*
X172249291Y-47979791D01*
X172465090Y-47981297D01*
X172665542Y-48022445D01*
X172862181Y-48105104D01*
X173034903Y-48221606D01*
X173182579Y-48370317D01*
X173299932Y-48546947D01*
X173378381Y-48737279D01*
X173420070Y-48947826D01*
X173420070Y-48947826D01*
G37*
G36*
X173720556Y-61951647D02*
X173719001Y-62063103D01*
X173695617Y-62166025D01*
X173654708Y-62257908D01*
X173596016Y-62341108D01*
X173520485Y-62413036D01*
X173437650Y-62465605D01*
X173336924Y-62504674D01*
X173336923Y-62504674D01*
X173243938Y-62521069D01*
X173135928Y-62518807D01*
X173040109Y-62497740D01*
X172944530Y-62455983D01*
X172860923Y-62397874D01*
X172791056Y-62325525D01*
X172733881Y-62236805D01*
X172698219Y-62146734D01*
X172678716Y-62040471D01*
X172680051Y-61944837D01*
X172702254Y-61840378D01*
X172741389Y-61749071D01*
X172799612Y-61664037D01*
X172873247Y-61591930D01*
X172956371Y-61537534D01*
X173055388Y-61497529D01*
X173149334Y-61479607D01*
X173257375Y-61480362D01*
X173352267Y-61499841D01*
X173449566Y-61540741D01*
X173532950Y-61596984D01*
X173604695Y-61669231D01*
X173662413Y-61756105D01*
X173699797Y-61846808D01*
X173720556Y-61951647D01*
X173720556Y-61951647D01*
G37*
G36*
X173720556Y-63951647D02*
X173719001Y-64063103D01*
X173695617Y-64166025D01*
X173654708Y-64257908D01*
X173596016Y-64341108D01*
X173520485Y-64413036D01*
X173437650Y-64465605D01*
X173336924Y-64504674D01*
X173336923Y-64504674D01*
X173243938Y-64521069D01*
X173135928Y-64518807D01*
X173040109Y-64497740D01*
X172944530Y-64455983D01*
X172860923Y-64397874D01*
X172791056Y-64325525D01*
X172733881Y-64236805D01*
X172698219Y-64146734D01*
X172678716Y-64040471D01*
X172680051Y-63944837D01*
X172702254Y-63840378D01*
X172741389Y-63749071D01*
X172799612Y-63664037D01*
X172873247Y-63591930D01*
X172956371Y-63537534D01*
X173055388Y-63497529D01*
X173149334Y-63479607D01*
X173257375Y-63480362D01*
X173352267Y-63499841D01*
X173449566Y-63540741D01*
X173532950Y-63596984D01*
X173604695Y-63669231D01*
X173662413Y-63756105D01*
X173699797Y-63846808D01*
X173720556Y-63951647D01*
X173720556Y-63951647D01*
G37*
G36*
X173720556Y-65951647D02*
X173719001Y-66063103D01*
X173695617Y-66166025D01*
X173654708Y-66257908D01*
X173596016Y-66341108D01*
X173520485Y-66413036D01*
X173437650Y-66465605D01*
X173336924Y-66504674D01*
X173336923Y-66504674D01*
X173243938Y-66521069D01*
X173135928Y-66518807D01*
X173040109Y-66497740D01*
X172944530Y-66455983D01*
X172860923Y-66397874D01*
X172791056Y-66325525D01*
X172733881Y-66236805D01*
X172698219Y-66146734D01*
X172678716Y-66040471D01*
X172680051Y-65944837D01*
X172702254Y-65840378D01*
X172741389Y-65749071D01*
X172799612Y-65664037D01*
X172873247Y-65591930D01*
X172956371Y-65537534D01*
X173055388Y-65497529D01*
X173149334Y-65479607D01*
X173257375Y-65480362D01*
X173352267Y-65499841D01*
X173449566Y-65540741D01*
X173532950Y-65596984D01*
X173604695Y-65669231D01*
X173662413Y-65756105D01*
X173699797Y-65846808D01*
X173720556Y-65951647D01*
X173720556Y-65951647D01*
G37*
G36*
X173720556Y-67951647D02*
X173719001Y-68063103D01*
X173695617Y-68166025D01*
X173654708Y-68257908D01*
X173596016Y-68341108D01*
X173520485Y-68413036D01*
X173437650Y-68465605D01*
X173336924Y-68504674D01*
X173336923Y-68504674D01*
X173243938Y-68521069D01*
X173135928Y-68518807D01*
X173040109Y-68497740D01*
X172944530Y-68455983D01*
X172860923Y-68397874D01*
X172791056Y-68325525D01*
X172733881Y-68236805D01*
X172698219Y-68146734D01*
X172678716Y-68040471D01*
X172680051Y-67944837D01*
X172702254Y-67840378D01*
X172741389Y-67749071D01*
X172799612Y-67664037D01*
X172873247Y-67591930D01*
X172956371Y-67537534D01*
X173055388Y-67497529D01*
X173149334Y-67479607D01*
X173257375Y-67480362D01*
X173352267Y-67499841D01*
X173449566Y-67540741D01*
X173532950Y-67596984D01*
X173604695Y-67669231D01*
X173662413Y-67756105D01*
X173699797Y-67846808D01*
X173720556Y-67951647D01*
X173720556Y-67951647D01*
G37*
G36*
X173726259Y-57691500D02*
X173725500Y-57691500D01*
X172950500Y-57691500D01*
X172949740Y-57691500D01*
X172949740Y-56408500D01*
X172950500Y-56408500D01*
X173725500Y-56408500D01*
X173726259Y-56408500D01*
X173726259Y-57691500D01*
X173726259Y-57691500D01*
G37*
G36*
X173788959Y-55243200D02*
X173788200Y-55243200D01*
X172733800Y-55243200D01*
X172733040Y-55243200D01*
X172733040Y-54188800D01*
X172733800Y-54188800D01*
X173788200Y-54188800D01*
X173788959Y-54188800D01*
X173788959Y-55243200D01*
X173788959Y-55243200D01*
G37*
G36*
X174677959Y-53211200D02*
X174677200Y-53211200D01*
X173622800Y-53211200D01*
X173622040Y-53211200D01*
X173622040Y-52156800D01*
X173622800Y-52156800D01*
X174677200Y-52156800D01*
X174677959Y-52156800D01*
X174677959Y-53211200D01*
X174677959Y-53211200D01*
G37*
G36*
X174720556Y-60951647D02*
X174719001Y-61063103D01*
X174695617Y-61166025D01*
X174654708Y-61257908D01*
X174596016Y-61341108D01*
X174520485Y-61413036D01*
X174437650Y-61465605D01*
X174336924Y-61504674D01*
X174336923Y-61504674D01*
X174243938Y-61521069D01*
X174135928Y-61518807D01*
X174040109Y-61497740D01*
X173944530Y-61455983D01*
X173860923Y-61397874D01*
X173791056Y-61325525D01*
X173733881Y-61236805D01*
X173698219Y-61146734D01*
X173678716Y-61040471D01*
X173680051Y-60944837D01*
X173702254Y-60840378D01*
X173741389Y-60749071D01*
X173799612Y-60664037D01*
X173873247Y-60591930D01*
X173956371Y-60537534D01*
X174055388Y-60497529D01*
X174149334Y-60479607D01*
X174257375Y-60480362D01*
X174352267Y-60499841D01*
X174449566Y-60540741D01*
X174532950Y-60596984D01*
X174604695Y-60669231D01*
X174662413Y-60756105D01*
X174699797Y-60846808D01*
X174720556Y-60951647D01*
X174720556Y-60951647D01*
G37*
G36*
X174720556Y-62951647D02*
X174719001Y-63063103D01*
X174695617Y-63166025D01*
X174654708Y-63257908D01*
X174596016Y-63341108D01*
X174520485Y-63413036D01*
X174437650Y-63465605D01*
X174336924Y-63504674D01*
X174336923Y-63504674D01*
X174243938Y-63521069D01*
X174135928Y-63518807D01*
X174040109Y-63497740D01*
X173944530Y-63455983D01*
X173860923Y-63397874D01*
X173791056Y-63325525D01*
X173733881Y-63236805D01*
X173698219Y-63146734D01*
X173678716Y-63040471D01*
X173680051Y-62944837D01*
X173702254Y-62840378D01*
X173741389Y-62749071D01*
X173799612Y-62664037D01*
X173873247Y-62591930D01*
X173956371Y-62537534D01*
X174055388Y-62497529D01*
X174149334Y-62479607D01*
X174257375Y-62480362D01*
X174352267Y-62499841D01*
X174449566Y-62540741D01*
X174532950Y-62596984D01*
X174604695Y-62669231D01*
X174662413Y-62756105D01*
X174699797Y-62846808D01*
X174720556Y-62951647D01*
X174720556Y-62951647D01*
G37*
G36*
X174720556Y-64951647D02*
X174719001Y-65063103D01*
X174695617Y-65166025D01*
X174654708Y-65257908D01*
X174596016Y-65341108D01*
X174520485Y-65413036D01*
X174437650Y-65465605D01*
X174336924Y-65504674D01*
X174336923Y-65504674D01*
X174243938Y-65521069D01*
X174135928Y-65518807D01*
X174040109Y-65497740D01*
X173944530Y-65455983D01*
X173860923Y-65397874D01*
X173791056Y-65325525D01*
X173733881Y-65236805D01*
X173698219Y-65146734D01*
X173678716Y-65040471D01*
X173680051Y-64944837D01*
X173702254Y-64840378D01*
X173741389Y-64749071D01*
X173799612Y-64664037D01*
X173873247Y-64591930D01*
X173956371Y-64537534D01*
X174055388Y-64497529D01*
X174149334Y-64479607D01*
X174257375Y-64480362D01*
X174352267Y-64499841D01*
X174449566Y-64540741D01*
X174532950Y-64596984D01*
X174604695Y-64669231D01*
X174662413Y-64756105D01*
X174699797Y-64846808D01*
X174720556Y-64951647D01*
X174720556Y-64951647D01*
G37*
G36*
X174720556Y-66951647D02*
X174719001Y-67063103D01*
X174695617Y-67166025D01*
X174654708Y-67257908D01*
X174596016Y-67341108D01*
X174520485Y-67413036D01*
X174437650Y-67465605D01*
X174336924Y-67504674D01*
X174336923Y-67504674D01*
X174243938Y-67521069D01*
X174135928Y-67518807D01*
X174040109Y-67497740D01*
X173944530Y-67455983D01*
X173860923Y-67397874D01*
X173791056Y-67325525D01*
X173733881Y-67236805D01*
X173698219Y-67146734D01*
X173678716Y-67040471D01*
X173680051Y-66944837D01*
X173702254Y-66840378D01*
X173741389Y-66749071D01*
X173799612Y-66664037D01*
X173873247Y-66591930D01*
X173956371Y-66537534D01*
X174055388Y-66497529D01*
X174149334Y-66479607D01*
X174257375Y-66480362D01*
X174352267Y-66499841D01*
X174449566Y-66540741D01*
X174532950Y-66596984D01*
X174604695Y-66669231D01*
X174662413Y-66756105D01*
X174699797Y-66846808D01*
X174720556Y-66951647D01*
X174720556Y-66951647D01*
G37*
G36*
X175250259Y-57691500D02*
X175249500Y-57691500D01*
X174474500Y-57691500D01*
X174473740Y-57691500D01*
X174473740Y-56408500D01*
X174474500Y-56408500D01*
X175249500Y-56408500D01*
X175250259Y-56408500D01*
X175250259Y-57691500D01*
X175250259Y-57691500D01*
G37*
G36*
X175566959Y-55243200D02*
X175566200Y-55243200D01*
X174511800Y-55243200D01*
X174511040Y-55243200D01*
X174511040Y-54188800D01*
X174511800Y-54188800D01*
X175566200Y-54188800D01*
X175566959Y-54188800D01*
X175566959Y-55243200D01*
X175566959Y-55243200D01*
G37*
G36*
X175720556Y-61951647D02*
X175719001Y-62063103D01*
X175695617Y-62166025D01*
X175654708Y-62257908D01*
X175596016Y-62341108D01*
X175520485Y-62413036D01*
X175437650Y-62465605D01*
X175336924Y-62504674D01*
X175336923Y-62504674D01*
X175243938Y-62521069D01*
X175135928Y-62518807D01*
X175040109Y-62497740D01*
X174944530Y-62455983D01*
X174860923Y-62397874D01*
X174791056Y-62325525D01*
X174733881Y-62236805D01*
X174698219Y-62146734D01*
X174678716Y-62040471D01*
X174680051Y-61944837D01*
X174702254Y-61840378D01*
X174741389Y-61749071D01*
X174799612Y-61664037D01*
X174873247Y-61591930D01*
X174956371Y-61537534D01*
X175055388Y-61497529D01*
X175149334Y-61479607D01*
X175257375Y-61480362D01*
X175352267Y-61499841D01*
X175449566Y-61540741D01*
X175532950Y-61596984D01*
X175604695Y-61669231D01*
X175662413Y-61756105D01*
X175699797Y-61846808D01*
X175720556Y-61951647D01*
X175720556Y-61951647D01*
G37*
G36*
X175720556Y-63951647D02*
X175719001Y-64063103D01*
X175695617Y-64166025D01*
X175654708Y-64257908D01*
X175596016Y-64341108D01*
X175520485Y-64413036D01*
X175437650Y-64465605D01*
X175336924Y-64504674D01*
X175336923Y-64504674D01*
X175243938Y-64521069D01*
X175135928Y-64518807D01*
X175040109Y-64497740D01*
X174944530Y-64455983D01*
X174860923Y-64397874D01*
X174791056Y-64325525D01*
X174733881Y-64236805D01*
X174698219Y-64146734D01*
X174678716Y-64040471D01*
X174680051Y-63944837D01*
X174702254Y-63840378D01*
X174741389Y-63749071D01*
X174799612Y-63664037D01*
X174873247Y-63591930D01*
X174956371Y-63537534D01*
X175055388Y-63497529D01*
X175149334Y-63479607D01*
X175257375Y-63480362D01*
X175352267Y-63499841D01*
X175449566Y-63540741D01*
X175532950Y-63596984D01*
X175604695Y-63669231D01*
X175662413Y-63756105D01*
X175699797Y-63846808D01*
X175720556Y-63951647D01*
X175720556Y-63951647D01*
G37*
G36*
X175720556Y-65951647D02*
X175719001Y-66063103D01*
X175695617Y-66166025D01*
X175654708Y-66257908D01*
X175596016Y-66341108D01*
X175520485Y-66413036D01*
X175437650Y-66465605D01*
X175336924Y-66504674D01*
X175336923Y-66504674D01*
X175243938Y-66521069D01*
X175135928Y-66518807D01*
X175040109Y-66497740D01*
X174944530Y-66455983D01*
X174860923Y-66397874D01*
X174791056Y-66325525D01*
X174733881Y-66236805D01*
X174698219Y-66146734D01*
X174678716Y-66040471D01*
X174680051Y-65944837D01*
X174702254Y-65840378D01*
X174741389Y-65749071D01*
X174799612Y-65664037D01*
X174873247Y-65591930D01*
X174956371Y-65537534D01*
X175055388Y-65497529D01*
X175149334Y-65479607D01*
X175257375Y-65480362D01*
X175352267Y-65499841D01*
X175449566Y-65540741D01*
X175532950Y-65596984D01*
X175604695Y-65669231D01*
X175662413Y-65756105D01*
X175699797Y-65846808D01*
X175720556Y-65951647D01*
X175720556Y-65951647D01*
G37*
G36*
X175720556Y-67951647D02*
X175719001Y-68063103D01*
X175695617Y-68166025D01*
X175654708Y-68257908D01*
X175596016Y-68341108D01*
X175520485Y-68413036D01*
X175437650Y-68465605D01*
X175336924Y-68504674D01*
X175336923Y-68504674D01*
X175243938Y-68521069D01*
X175135928Y-68518807D01*
X175040109Y-68497740D01*
X174944530Y-68455983D01*
X174860923Y-68397874D01*
X174791056Y-68325525D01*
X174733881Y-68236805D01*
X174698219Y-68146734D01*
X174678716Y-68040471D01*
X174680051Y-67944837D01*
X174702254Y-67840378D01*
X174741389Y-67749071D01*
X174799612Y-67664037D01*
X174873247Y-67591930D01*
X174956371Y-67537534D01*
X175055388Y-67497529D01*
X175149334Y-67479607D01*
X175257375Y-67480362D01*
X175352267Y-67499841D01*
X175449566Y-67540741D01*
X175532950Y-67596984D01*
X175604695Y-67669231D01*
X175662413Y-67756105D01*
X175699797Y-67846808D01*
X175720556Y-67951647D01*
X175720556Y-67951647D01*
G37*
G36*
X176770665Y-76301606D02*
X176761134Y-76984249D01*
X176626957Y-77574824D01*
X176382648Y-78123554D01*
X176035693Y-78615392D01*
X175598018Y-79032186D01*
X175092950Y-79352711D01*
X174525987Y-79572622D01*
X174525986Y-79572622D01*
X173940519Y-79675855D01*
X173332536Y-79663120D01*
X172748303Y-79534668D01*
X172194469Y-79292705D01*
X171700221Y-78949193D01*
X171282969Y-78517115D01*
X170954895Y-78008045D01*
X170735141Y-77453010D01*
X170625364Y-76854882D01*
X170633682Y-76259216D01*
X170759858Y-75665603D01*
X170995995Y-75114655D01*
X171336747Y-74616998D01*
X171767676Y-74195003D01*
X172269250Y-73866781D01*
X172831933Y-73639443D01*
X173417103Y-73527815D01*
X174025212Y-73532060D01*
X174609971Y-73652095D01*
X175168276Y-73886784D01*
X175666245Y-74222669D01*
X176090364Y-74649759D01*
X176424823Y-75153161D01*
X176652775Y-75706211D01*
X176770665Y-76301606D01*
X176770665Y-76301606D01*
G37*
G36*
X176820665Y-34451606D02*
X176811134Y-35134249D01*
X176676957Y-35724824D01*
X176432648Y-36273554D01*
X176085693Y-36765392D01*
X175648018Y-37182186D01*
X175142950Y-37502711D01*
X174575987Y-37722622D01*
X174575986Y-37722622D01*
X173990519Y-37825855D01*
X173382536Y-37813120D01*
X172798303Y-37684668D01*
X172244469Y-37442705D01*
X171750221Y-37099193D01*
X171332969Y-36667115D01*
X171004895Y-36158045D01*
X170785141Y-35603010D01*
X170675364Y-35004882D01*
X170683682Y-34409216D01*
X170809858Y-33815603D01*
X171045995Y-33264655D01*
X171386747Y-32766998D01*
X171817676Y-32345003D01*
X172319250Y-32016781D01*
X172881933Y-31789443D01*
X173467103Y-31677815D01*
X174075212Y-31682060D01*
X174659971Y-31802095D01*
X175218276Y-32036784D01*
X175716245Y-32372669D01*
X176140364Y-32799759D01*
X176474823Y-33303161D01*
X176702775Y-33856211D01*
X176820665Y-34451606D01*
X176820665Y-34451606D01*
G37*
M02*
