%FSLAX46Y46*%
G04 Gerber Fmt 4.6, Leading zero omitted, Abs format (unit mm)*
G04 Created by KiCad (PCBNEW (2014-08-12 BZR 5067)-product) date Tue 26 Aug 2014 12:58:06 PM EDT*
%MOMM*%
G01*
G04 APERTURE LIST*
%ADD10C,0.100000*%
%ADD11C,0.187500*%
%ADD12R,0.300000X1.200000*%
%ADD13R,1.200000X0.300000*%
%ADD14R,1.600200X1.803400*%
%ADD15R,0.899160X1.000760*%
%ADD16R,1.498600X1.300480*%
%ADD17R,1.600000X4.000000*%
%ADD18R,1.300480X1.498600*%
%ADD19C,1.150000*%
%ADD20R,1.600000X3.200000*%
%ADD21R,1.000760X0.899160*%
%ADD22R,1.803400X1.600200*%
%ADD23R,1.800860X2.199640*%
%ADD24R,2.199640X1.600200*%
%ADD25R,0.700000X0.600000*%
%ADD26R,0.850000X0.850000*%
%ADD27R,0.600000X0.700000*%
%ADD28R,1.000760X0.800100*%
%ADD29R,1.700000X0.800000*%
%ADD30R,0.797560X0.797560*%
%ADD31R,1.600200X2.199640*%
%ADD32R,1.000000X1.100000*%
%ADD33C,1.600000*%
%ADD34C,2.200000*%
%ADD35C,1.300000*%
%ADD36C,0.900000*%
%ADD37R,0.889000X1.397000*%
%ADD38R,1.800000X3.600000*%
%ADD39R,1.600000X5.700000*%
%ADD40C,1.143000*%
%ADD41C,1.998980*%
%ADD42R,0.701040X1.000760*%
%ADD43R,0.914400X0.914400*%
%ADD44R,0.635000X1.143000*%
%ADD45R,1.143000X0.635000*%
%ADD46R,2.100000X1.400000*%
%ADD47R,2.540000X1.270000*%
%ADD48R,1.450000X0.800000*%
%ADD49R,1.000760X0.701040*%
%ADD50R,1.600000X0.300000*%
%ADD51R,2.460000X2.310000*%
%ADD52C,6.000000*%
%ADD53C,0.889000*%
%ADD54C,0.550000*%
%ADD55C,0.450000*%
%ADD56C,0.254000*%
%ADD57C,0.381000*%
%ADD58C,0.350000*%
%ADD59C,0.250000*%
%ADD60C,0.400000*%
%ADD61C,0.200000*%
%ADD62C,0.300000*%
%ADD63C,0.500000*%
%ADD64C,0.150000*%
%ADD65C,0.050000*%
G04 APERTURE END LIST*
D10*
D11*
X119614286Y-79359286D02*
X119185714Y-79359286D01*
X119400000Y-79359286D02*
X119400000Y-78609286D01*
X119328571Y-78716429D01*
X119257143Y-78787857D01*
X119185714Y-78823571D01*
D12*
X156950000Y-70250000D03*
X157450000Y-70250000D03*
X157950000Y-70250000D03*
X158450000Y-70250000D03*
X158950000Y-70250000D03*
X159450000Y-70250000D03*
X159950000Y-70250000D03*
X160450000Y-70250000D03*
X160950000Y-70250000D03*
X161450000Y-70250000D03*
X161950000Y-70250000D03*
X162450000Y-70250000D03*
X162950000Y-70250000D03*
X163450000Y-70250000D03*
X163950000Y-70250000D03*
X164450000Y-70250000D03*
D13*
X166450000Y-64750000D03*
X166450000Y-65250000D03*
X166450000Y-63750000D03*
X166450000Y-64250000D03*
X166450000Y-65750000D03*
X166450000Y-62250000D03*
X166450000Y-60750000D03*
X166450000Y-63250000D03*
X166450000Y-61250000D03*
X166450000Y-61750000D03*
X166450000Y-62750000D03*
X166450000Y-66750000D03*
X166450000Y-67750000D03*
X166450000Y-67250000D03*
X166450000Y-66250000D03*
X166450000Y-68250000D03*
D12*
X160950000Y-58750000D03*
X161450000Y-58750000D03*
X159950000Y-58750000D03*
X160450000Y-58750000D03*
X161950000Y-58750000D03*
X158450000Y-58750000D03*
X156950000Y-58750000D03*
X159450000Y-58750000D03*
X157450000Y-58750000D03*
X157950000Y-58750000D03*
X158950000Y-58750000D03*
X162950000Y-58750000D03*
X163950000Y-58750000D03*
X163450000Y-58750000D03*
X162450000Y-58750000D03*
X164450000Y-58750000D03*
D13*
X154950000Y-64250000D03*
X154950000Y-63750000D03*
X154950000Y-65250000D03*
X154950000Y-64750000D03*
X154950000Y-63250000D03*
X154950000Y-66750000D03*
X154950000Y-68250000D03*
X154950000Y-65750000D03*
X154950000Y-67750000D03*
X154950000Y-67250000D03*
X154950000Y-66250000D03*
X154950000Y-62250000D03*
X154950000Y-61250000D03*
X154950000Y-61750000D03*
X154950000Y-62750000D03*
X154950000Y-60750000D03*
D14*
X112397000Y-44400000D03*
X109603000Y-44400000D03*
D15*
X120848160Y-34600000D03*
X122351840Y-34600000D03*
D16*
X116100000Y-33747500D03*
X116100000Y-35652500D03*
D17*
X110480000Y-39200000D03*
X110480000Y-33000000D03*
D15*
X147801840Y-37050000D03*
X146298160Y-37050000D03*
D18*
X146402500Y-46200000D03*
X144497500Y-46200000D03*
D19*
X130750000Y-51150000D03*
X138250000Y-51150000D03*
D20*
X159800000Y-33400000D03*
X159800000Y-38400000D03*
D15*
X108451840Y-46900000D03*
X106948160Y-46900000D03*
X110198160Y-55800000D03*
X111701840Y-55800000D03*
D21*
X143300000Y-49701840D03*
X143300000Y-48198160D03*
D15*
X141251840Y-49700000D03*
X139748160Y-49700000D03*
D22*
X153000000Y-35803000D03*
X153000000Y-38597000D03*
X150300000Y-35803000D03*
X150300000Y-38597000D03*
D14*
X137103000Y-53950000D03*
X139897000Y-53950000D03*
D18*
X120292500Y-59140000D03*
X118387500Y-59140000D03*
D14*
X137053000Y-56650000D03*
X139847000Y-56650000D03*
D15*
X122051840Y-64650000D03*
X120548160Y-64650000D03*
D18*
X137947500Y-70050000D03*
X139852500Y-70050000D03*
X143825927Y-69420421D03*
X141920927Y-69420421D03*
D16*
X111494798Y-64797140D03*
X111494798Y-62892140D03*
X148540000Y-60217500D03*
X148540000Y-62122500D03*
X109114798Y-64817140D03*
X109114798Y-62912140D03*
D21*
X153750000Y-77151840D03*
X153750000Y-75648160D03*
X150300000Y-71721840D03*
X150300000Y-70218160D03*
D23*
X143593400Y-33850000D03*
X147606600Y-33850000D03*
D24*
X103200000Y-32900080D03*
X103200000Y-36699920D03*
D25*
X122400000Y-40150000D03*
X122400000Y-38750000D03*
X127400000Y-45300000D03*
X127400000Y-43900000D03*
D26*
X118900000Y-32975000D03*
X118900000Y-36325000D03*
D27*
X122450000Y-45700000D03*
X123850000Y-45700000D03*
D28*
X142249820Y-45250000D03*
X140050180Y-46202500D03*
X140050180Y-44297500D03*
D29*
X97250000Y-35950000D03*
X92250000Y-35950000D03*
X92250000Y-33450000D03*
X97250000Y-33450000D03*
D30*
X87100000Y-61899300D03*
X87100000Y-60400700D03*
X89350000Y-61899300D03*
X89350000Y-60400700D03*
X151599300Y-31950000D03*
X150100700Y-31950000D03*
D26*
X115031055Y-62842289D03*
X118381055Y-62842289D03*
X124445000Y-67450000D03*
X121095000Y-67450000D03*
D31*
X141373507Y-60070421D03*
X145173347Y-60070421D03*
D30*
X151100000Y-60300700D03*
X151100000Y-61799300D03*
X106790000Y-64409300D03*
X106790000Y-62910700D03*
D32*
X151850000Y-70150000D03*
X151850000Y-71750000D03*
X153350000Y-71750000D03*
X153350000Y-70150000D03*
D33*
X99340000Y-54630000D03*
X99340000Y-52600000D03*
X99340000Y-46510000D03*
X99340000Y-44480000D03*
X101880000Y-55650000D03*
X101880000Y-53620000D03*
X101880000Y-51590000D03*
X101880000Y-47530000D03*
X101880000Y-45500000D03*
D34*
X80930000Y-57610000D03*
X80930000Y-41480000D03*
D35*
X160500000Y-55250000D03*
X162500000Y-55250000D03*
X164500000Y-55250000D03*
X158500000Y-55250000D03*
X156500000Y-55250000D03*
D36*
X157100000Y-77750000D03*
X158100000Y-76750000D03*
X159100000Y-77750000D03*
X160100000Y-76750000D03*
X161100000Y-77750000D03*
X162100000Y-76750000D03*
X163100000Y-77750000D03*
X164100000Y-76750000D03*
X157100000Y-75750000D03*
X160100000Y-74750000D03*
X159100000Y-75750000D03*
X158100000Y-74750000D03*
X162100000Y-74750000D03*
X161100000Y-75750000D03*
X163100000Y-75750000D03*
X164100000Y-74750000D03*
X175200000Y-68000000D03*
X174200000Y-67000000D03*
X175200000Y-66000000D03*
X174200000Y-65000000D03*
X175200000Y-64000000D03*
X174200000Y-63000000D03*
X175200000Y-62000000D03*
X174200000Y-61000000D03*
X173200000Y-68000000D03*
X172200000Y-65000000D03*
X173200000Y-66000000D03*
X172200000Y-67000000D03*
X172200000Y-63000000D03*
X173200000Y-64000000D03*
X173200000Y-62000000D03*
X172200000Y-61000000D03*
D37*
X110457500Y-42430000D03*
X112362500Y-42430000D03*
X108652500Y-58100000D03*
X106747500Y-58100000D03*
D38*
X129600000Y-63180000D03*
X138600000Y-63180000D03*
D39*
X118616055Y-67802289D03*
X113916055Y-67802289D03*
D40*
X99050000Y-31800000D03*
X99000000Y-38150000D03*
X145900000Y-40250000D03*
X155050000Y-33400000D03*
X147500000Y-57700000D03*
X110550000Y-68180000D03*
D41*
X172350000Y-49050060D03*
X172350000Y-45549940D03*
D42*
X117050000Y-40520000D03*
X116097500Y-37980000D03*
X118002500Y-37980000D03*
D43*
X124466000Y-42111000D03*
X124466000Y-43889000D03*
X122434000Y-43000000D03*
X175039000Y-54716000D03*
X173261000Y-54716000D03*
X174150000Y-52684000D03*
D44*
X119338000Y-43900000D03*
X120862000Y-43900000D03*
D45*
X120000000Y-39512000D03*
X120000000Y-37988000D03*
X114920000Y-42462000D03*
X114920000Y-40938000D03*
X124350000Y-40362000D03*
X124350000Y-38838000D03*
D37*
X122347500Y-36350000D03*
X124252500Y-36350000D03*
D44*
X119338000Y-42150000D03*
X120862000Y-42150000D03*
X122338000Y-47500000D03*
X123862000Y-47500000D03*
X143488000Y-37050000D03*
X145012000Y-37050000D03*
X141262000Y-47900000D03*
X139738000Y-47900000D03*
X146412000Y-44300000D03*
X144888000Y-44300000D03*
X149762000Y-44300000D03*
X148238000Y-44300000D03*
D45*
X143300000Y-43562000D03*
X143300000Y-42038000D03*
D44*
X108462000Y-55800000D03*
X106938000Y-55800000D03*
X108462000Y-53650000D03*
X106938000Y-53650000D03*
D45*
X89350000Y-63438000D03*
X89350000Y-64962000D03*
D44*
X108412000Y-50900000D03*
X106888000Y-50900000D03*
X108412000Y-48700000D03*
X106888000Y-48700000D03*
D45*
X87100000Y-63438000D03*
X87100000Y-64962000D03*
X149750000Y-47862000D03*
X149750000Y-46338000D03*
X153000000Y-33462000D03*
X153000000Y-31938000D03*
X148850000Y-66562000D03*
X148850000Y-65038000D03*
D37*
X145670927Y-69420421D03*
X147575927Y-69420421D03*
D44*
X124638000Y-64160000D03*
X126162000Y-64160000D03*
X126158055Y-61912289D03*
X124634055Y-61912289D03*
X149578000Y-58160000D03*
X151102000Y-58160000D03*
X108312000Y-67520000D03*
X106788000Y-67520000D03*
X154688000Y-72050000D03*
X156212000Y-72050000D03*
D45*
X148650000Y-72532000D03*
X148650000Y-71008000D03*
D44*
X171512000Y-57050000D03*
X169988000Y-57050000D03*
X173338000Y-57050000D03*
X174862000Y-57050000D03*
D46*
X151350000Y-78600000D03*
X151350000Y-74100000D03*
X142250000Y-74100000D03*
X142250000Y-78600000D03*
D47*
X127050000Y-41350000D03*
X127050000Y-38850000D03*
X127050000Y-36350000D03*
X127050000Y-33850000D03*
X140260000Y-33850000D03*
X140260000Y-36350000D03*
X140260000Y-38850000D03*
X140260000Y-41350000D03*
D48*
X136925000Y-46215000D03*
X130675000Y-47485000D03*
X130675000Y-46215000D03*
X136925000Y-47485000D03*
D49*
X120286055Y-62884789D03*
X120286055Y-61932289D03*
X120286055Y-60979789D03*
X122826055Y-60979789D03*
X122826055Y-61932289D03*
X122826055Y-62884789D03*
D50*
X140773427Y-65320421D03*
X140773427Y-65970421D03*
X140773427Y-66620421D03*
X140773427Y-67320421D03*
X140773427Y-63420421D03*
X140773427Y-64020421D03*
X140773427Y-64670421D03*
X146373427Y-64720421D03*
X146373427Y-67370421D03*
X146373427Y-66020421D03*
X146373427Y-65370421D03*
X146373427Y-64070421D03*
X146373427Y-63470421D03*
X146373427Y-66670421D03*
D51*
X143573427Y-65370421D03*
D52*
X173750000Y-34750000D03*
X81850000Y-76650000D03*
X173700000Y-76600000D03*
X81900000Y-34750000D03*
D53*
X106697158Y-32900080D03*
D54*
X112058437Y-35440104D03*
X114700000Y-36800000D03*
X130000000Y-45300000D03*
X130000000Y-44650000D03*
X130700000Y-44650000D03*
X130700000Y-45300000D03*
X127400000Y-46150000D03*
X128800000Y-42050000D03*
X129650000Y-42050000D03*
X130400000Y-42050000D03*
X130400000Y-41350000D03*
X129650000Y-41350000D03*
X128800000Y-41350000D03*
X110550000Y-35150000D03*
X110550000Y-35850000D03*
X110000000Y-35150000D03*
X110000000Y-35850000D03*
X111100000Y-35150000D03*
X111100000Y-35850000D03*
X107950000Y-38650000D03*
X114400000Y-33750000D03*
X122400000Y-37850000D03*
X115500000Y-36900000D03*
X106750000Y-35300000D03*
X150810000Y-44200000D03*
X133700000Y-57490000D03*
X133697387Y-56650000D03*
X133700000Y-55680000D03*
X134680000Y-55690000D03*
X134680304Y-56650000D03*
X134680000Y-57470000D03*
X135580000Y-57470000D03*
X135590244Y-56650000D03*
X135590000Y-55690000D03*
X158200000Y-33670000D03*
X158190000Y-34480000D03*
X157290000Y-34470000D03*
X157290000Y-33680000D03*
X157290000Y-32930000D03*
X158170000Y-32920000D03*
D55*
X163460000Y-56070000D03*
X176960000Y-56340000D03*
X176110000Y-56340000D03*
X176110000Y-55530000D03*
X176930000Y-55530000D03*
X176930000Y-54710000D03*
X176080000Y-54710000D03*
X153480000Y-66250000D03*
D54*
X159060000Y-60680000D03*
X165240000Y-62060000D03*
X156500000Y-67180000D03*
X160390000Y-68520000D03*
X167630000Y-67760000D03*
X123840000Y-61930000D03*
X153520000Y-78600000D03*
X112120000Y-61800000D03*
X111100000Y-61800000D03*
X109910000Y-61790000D03*
X108700000Y-61790000D03*
X149070000Y-31950000D03*
X143750000Y-62850000D03*
X143750000Y-63620000D03*
X143800000Y-67160000D03*
X144590000Y-67150000D03*
X144590000Y-67930000D03*
X143800000Y-67930000D03*
X143010000Y-67940000D03*
X143020000Y-67160000D03*
X144520000Y-63640000D03*
X144520000Y-62840000D03*
X142950000Y-62890000D03*
X142950000Y-63630000D03*
X148320000Y-63390000D03*
X148320000Y-64140000D03*
X149220000Y-64130000D03*
X149220000Y-63370000D03*
X141670000Y-54830000D03*
X141670000Y-55790000D03*
X142790000Y-54800000D03*
X142770000Y-55800000D03*
X142780000Y-56640000D03*
X141670000Y-56650000D03*
X142790000Y-53940000D03*
X141670000Y-53950000D03*
X139900000Y-51140000D03*
X139900000Y-52250000D03*
X143100000Y-47220000D03*
X153000000Y-41000000D03*
X152050000Y-41000000D03*
X151150000Y-41000000D03*
X150300000Y-41000000D03*
X151150000Y-40100000D03*
X152050000Y-40100000D03*
X153000000Y-40100000D03*
X150300000Y-40100000D03*
X112750000Y-55800000D03*
X105950000Y-46900000D03*
X93300000Y-54850000D03*
X92600000Y-54850000D03*
X91900000Y-54850000D03*
X91250000Y-54850000D03*
X89150000Y-47150000D03*
X151810000Y-68390000D03*
X146060000Y-71710000D03*
X166280000Y-60080000D03*
X156290000Y-59070000D03*
X156430000Y-68690000D03*
X163930000Y-68900000D03*
X165270000Y-68900000D03*
X96930000Y-58280000D03*
X96930000Y-56350000D03*
X92597845Y-64962000D03*
X88200000Y-63050000D03*
D55*
X146640000Y-60380000D03*
X147250000Y-60370000D03*
X147250000Y-59740000D03*
X146660000Y-59750000D03*
X146660000Y-58680000D03*
X146660000Y-59160000D03*
X147250000Y-59160000D03*
X147860000Y-59160000D03*
X148540000Y-58680500D03*
X148540000Y-59156108D03*
D54*
X106700000Y-38450000D03*
X122450000Y-44850000D03*
X122450000Y-41950000D03*
X88000000Y-55000000D03*
X88750003Y-55000000D03*
D53*
X104750000Y-50900000D03*
D54*
X94500000Y-48050000D03*
D55*
X167700000Y-63770000D03*
X168035161Y-63272337D03*
X156489364Y-64267811D03*
X156090000Y-64750000D03*
X159170000Y-66140000D03*
X160200000Y-66480000D03*
X171020000Y-66900000D03*
X165050000Y-59200010D03*
X168263392Y-62717438D03*
X157748205Y-65771795D03*
X156059567Y-65355976D03*
X156110000Y-63740000D03*
X170474980Y-63340000D03*
X162400000Y-64210010D03*
X163450000Y-59980000D03*
X163160000Y-60690000D03*
X170474971Y-66324999D03*
X170474971Y-64670011D03*
X161718201Y-62041790D03*
X157370000Y-71470000D03*
X160423205Y-61986795D03*
X158490000Y-61690000D03*
X158040000Y-71500000D03*
X158610000Y-72050000D03*
D54*
X124250000Y-33500000D03*
X124250000Y-34100000D03*
X124250000Y-34700000D03*
X120200000Y-36750000D03*
X105850000Y-37800000D03*
X114400000Y-35150000D03*
X120450000Y-45450000D03*
X147573719Y-66562000D03*
D55*
X167550000Y-68580000D03*
X89320000Y-50880000D03*
X161400000Y-65730000D03*
X90590000Y-50429990D03*
X161920000Y-65279990D03*
X91270000Y-47130000D03*
X158946795Y-64703205D03*
X91890000Y-51330010D03*
X159490000Y-65380000D03*
X92570000Y-51820000D03*
X168110000Y-72510000D03*
X165770000Y-69930000D03*
D56*
X99000000Y-37341777D02*
X99000000Y-38150000D01*
X98354000Y-35950000D02*
X99000000Y-36596000D01*
X99000000Y-36596000D02*
X99000000Y-37341777D01*
X97250000Y-35950000D02*
X98354000Y-35950000D01*
X99103920Y-36699920D02*
X103200000Y-36699920D01*
X99000000Y-36596000D02*
X99103920Y-36699920D01*
D57*
X103200000Y-36699920D02*
X107249920Y-36699920D01*
X109100000Y-38550000D02*
X110500000Y-38550000D01*
X107249920Y-36699920D02*
X109100000Y-38550000D01*
D58*
X110500000Y-41997500D02*
X110497500Y-42000000D01*
X110500000Y-38550000D02*
X110500000Y-41997500D01*
D56*
X99050000Y-33100000D02*
X99050000Y-31800000D01*
X98700000Y-33450000D02*
X99050000Y-33100000D01*
X97250000Y-33450000D02*
X98700000Y-33450000D01*
X99249920Y-32900080D02*
X103200000Y-32900080D01*
X99050000Y-33100000D02*
X99249920Y-32900080D01*
D57*
X109949920Y-32900080D02*
X110500000Y-32350000D01*
X106697158Y-32900080D02*
X109949920Y-32900080D01*
X103200000Y-32900080D02*
X106697158Y-32900080D01*
D58*
X120848160Y-34600000D02*
X120848160Y-33749620D01*
X120848160Y-33749620D02*
X121732780Y-32865000D01*
X121732780Y-32865000D02*
X125430000Y-32865000D01*
X125430000Y-32865000D02*
X126415000Y-33850000D01*
X126415000Y-33850000D02*
X127050000Y-33850000D01*
X120000000Y-39512000D02*
X120921500Y-39512000D01*
X120921500Y-39512000D02*
X120946501Y-39486999D01*
X120946501Y-39486999D02*
X120946501Y-35548721D01*
X120848160Y-35450380D02*
X120848160Y-34600000D01*
X120946501Y-35548721D02*
X120848160Y-35450380D01*
D59*
X114900000Y-42362000D02*
X115154000Y-42362000D01*
X115154000Y-42362000D02*
X115166000Y-42350000D01*
X115166000Y-42350000D02*
X116050000Y-42350000D01*
X116050000Y-42350000D02*
X117050000Y-41350000D01*
X117050000Y-41350000D02*
X117050000Y-40520000D01*
X112402500Y-42000000D02*
X113350000Y-42000000D01*
X113350000Y-42000000D02*
X113712000Y-42362000D01*
X113712000Y-42362000D02*
X114900000Y-42362000D01*
D58*
X117050000Y-40669860D02*
X117050000Y-40520000D01*
X112402500Y-44394500D02*
X112397000Y-44400000D01*
X112402500Y-42000000D02*
X112402500Y-44394500D01*
X117750520Y-40520000D02*
X117050000Y-40520000D01*
X119659500Y-40520000D02*
X117750520Y-40520000D01*
X120000000Y-40179500D02*
X119659500Y-40520000D01*
X120000000Y-39512000D02*
X120000000Y-40179500D01*
X112402500Y-41746000D02*
X114700000Y-39448500D01*
X112402500Y-42000000D02*
X112402500Y-41746000D01*
X114700000Y-39448500D02*
X114700000Y-36800000D01*
D60*
X130750000Y-51150000D02*
X132000000Y-49900000D01*
X132000000Y-49900000D02*
X132000000Y-46415000D01*
X132000000Y-46415000D02*
X131800000Y-46215000D01*
X131800000Y-46215000D02*
X130675000Y-46215000D01*
D61*
X130400000Y-42050000D02*
X130400000Y-44350000D01*
X130400000Y-44350000D02*
X130700000Y-44650000D01*
X130000000Y-44650000D02*
X130000000Y-45300000D01*
X130700000Y-44650000D02*
X130000000Y-44650000D01*
X130700000Y-45300000D02*
X130700000Y-44650000D01*
X130675000Y-46215000D02*
X130675000Y-45325000D01*
X130675000Y-45325000D02*
X130700000Y-45300000D01*
X127400000Y-45300000D02*
X127400000Y-46150000D01*
X129650000Y-42050000D02*
X128800000Y-42050000D01*
X130400000Y-42050000D02*
X129650000Y-42050000D01*
X130400000Y-41350000D02*
X130400000Y-42050000D01*
X129650000Y-41350000D02*
X130400000Y-41350000D01*
X128800000Y-41350000D02*
X129650000Y-41350000D01*
X127050000Y-41350000D02*
X128800000Y-41350000D01*
X127400000Y-45300000D02*
X127400000Y-45800000D01*
X127400000Y-45800000D02*
X127815000Y-46215000D01*
X127815000Y-46215000D02*
X129750000Y-46215000D01*
X129750000Y-46215000D02*
X130675000Y-46215000D01*
D59*
X124519800Y-41350000D02*
X127050000Y-41350000D01*
X124466000Y-42111000D02*
X124466000Y-41403800D01*
X124466000Y-41403800D02*
X124519800Y-41350000D01*
D58*
X109603000Y-43148300D02*
X107950000Y-41495300D01*
X109603000Y-44400000D02*
X109603000Y-43148300D01*
X107950000Y-41495300D02*
X107950000Y-38650000D01*
D59*
X116872500Y-32975000D02*
X116100000Y-33747500D01*
X118900000Y-32975000D02*
X116872500Y-32975000D01*
D62*
X114402500Y-33747500D02*
X114400000Y-33750000D01*
X116100000Y-33747500D02*
X114402500Y-33747500D01*
D58*
X122351840Y-34600000D02*
X122351840Y-36345660D01*
X122351840Y-36345660D02*
X122347500Y-36350000D01*
D61*
X120862000Y-42150000D02*
X120862000Y-41896000D01*
X121820500Y-47500000D02*
X122338000Y-47500000D01*
X120862000Y-41896000D02*
X120244499Y-41278499D01*
X120244499Y-41278499D02*
X118780499Y-41278499D01*
X118780499Y-41278499D02*
X118720499Y-41338499D01*
X118720499Y-41338499D02*
X118720499Y-44711501D01*
X118720499Y-44711501D02*
X121508998Y-47500000D01*
X121508998Y-47500000D02*
X121820500Y-47500000D01*
X120862000Y-42150000D02*
X120862000Y-40488000D01*
X121550000Y-39800000D02*
X121550000Y-39000000D01*
X120862000Y-40488000D02*
X121550000Y-39800000D01*
X121550000Y-39000000D02*
X121800000Y-38750000D01*
X121850000Y-38750000D02*
X122400000Y-38750000D01*
X121800000Y-38750000D02*
X121850000Y-38750000D01*
D59*
X122400000Y-38750000D02*
X122400000Y-37850000D01*
X114900000Y-40838000D02*
X114900000Y-40270500D01*
X114900000Y-40270500D02*
X116097500Y-39073000D01*
X116097500Y-39073000D02*
X116097500Y-38730380D01*
X116097500Y-38730380D02*
X116097500Y-37980000D01*
X116097500Y-35655000D02*
X116100000Y-35652500D01*
X115506301Y-36893699D02*
X115500000Y-36900000D01*
X116097500Y-36893699D02*
X115506301Y-36893699D01*
X116097500Y-37980000D02*
X116097500Y-36893699D01*
X116097500Y-36893699D02*
X116097500Y-35655000D01*
D63*
X150810000Y-44200000D02*
X149862000Y-44200000D01*
X149862000Y-44200000D02*
X149762000Y-44300000D01*
X133697387Y-56650000D02*
X133697387Y-57487387D01*
X133697387Y-57487387D02*
X133700000Y-57490000D01*
D61*
X129660000Y-56650000D02*
X133697387Y-56650000D01*
D63*
X133700000Y-55680000D02*
X133700000Y-56647387D01*
D61*
X133697387Y-56650000D02*
X134680304Y-56650000D01*
D63*
X133700000Y-56647387D02*
X133697387Y-56650000D01*
X134680000Y-55690000D02*
X133710000Y-55690000D01*
X133710000Y-55690000D02*
X133700000Y-55680000D01*
X134680304Y-56650000D02*
X134680304Y-55690304D01*
X134680304Y-55690304D02*
X134680000Y-55690000D01*
D61*
X134680304Y-56650000D02*
X135590244Y-56650000D01*
D63*
X134680000Y-57470000D02*
X134680000Y-56650304D01*
X134680000Y-56650304D02*
X134680304Y-56650000D01*
X135580000Y-57470000D02*
X134680000Y-57470000D01*
X135590244Y-56650000D02*
X135590244Y-57459756D01*
X135590244Y-57459756D02*
X135580000Y-57470000D01*
D61*
X135590244Y-56650000D02*
X137053000Y-56650000D01*
D63*
X135590000Y-55690000D02*
X135590000Y-56649756D01*
X135590000Y-56649756D02*
X135590244Y-56650000D01*
X137053000Y-56650000D02*
X136550000Y-56650000D01*
X136550000Y-56650000D02*
X135590000Y-55690000D01*
X158190000Y-34480000D02*
X158190000Y-33680000D01*
X158190000Y-33680000D02*
X158200000Y-33670000D01*
X157290000Y-34470000D02*
X158180000Y-34470000D01*
X158180000Y-34470000D02*
X158190000Y-34480000D01*
X157290000Y-33680000D02*
X157290000Y-34470000D01*
X157290000Y-32930000D02*
X157290000Y-33680000D01*
X158170000Y-32920000D02*
X157300000Y-32920000D01*
X157300000Y-32920000D02*
X157290000Y-32930000D01*
X159800000Y-33400000D02*
X158650000Y-33400000D01*
X158650000Y-33400000D02*
X158170000Y-32920000D01*
X149750000Y-46338000D02*
X149750000Y-44312000D01*
X149750000Y-44312000D02*
X149762000Y-44300000D01*
D61*
X129620000Y-62260000D02*
X129620000Y-59144358D01*
X129620000Y-59144358D02*
X129620000Y-56610000D01*
X120292500Y-59140000D02*
X126460000Y-59140000D01*
X126460000Y-59140000D02*
X126464358Y-59144358D01*
X126464358Y-59144358D02*
X129620000Y-59144358D01*
X120286055Y-60979789D02*
X120286055Y-59146445D01*
X120286055Y-59146445D02*
X120292500Y-59140000D01*
X120286055Y-61932289D02*
X120286055Y-60979789D01*
X140773427Y-64670421D02*
X140773427Y-65320421D01*
X137053000Y-54000000D02*
X137053000Y-56650000D01*
X129620000Y-56610000D02*
X129660000Y-56650000D01*
X129600000Y-63180000D02*
X129600000Y-62280000D01*
X129600000Y-62280000D02*
X129620000Y-62260000D01*
X129600000Y-63180000D02*
X129600000Y-65180000D01*
X129600000Y-65180000D02*
X129940420Y-65520420D01*
X129940420Y-65520420D02*
X140729580Y-65520420D01*
X140729580Y-65520420D02*
X140773427Y-65476573D01*
X140773427Y-65476573D02*
X140773427Y-65320421D01*
X153000000Y-33462000D02*
X159738000Y-33462000D01*
X159738000Y-33462000D02*
X159800000Y-33400000D01*
X153000000Y-33462000D02*
X154988000Y-33462000D01*
X154988000Y-33462000D02*
X155050000Y-33400000D01*
X153000000Y-35803000D02*
X153000000Y-34802900D01*
X153000000Y-34802900D02*
X153000000Y-33462000D01*
X150300000Y-35803000D02*
X151401700Y-35803000D01*
X151401700Y-35803000D02*
X153000000Y-35803000D01*
X147606600Y-33850000D02*
X147606600Y-34049390D01*
X147606600Y-34049390D02*
X149360210Y-35803000D01*
X149360210Y-35803000D02*
X150300000Y-35803000D01*
X147606600Y-33850000D02*
X147606600Y-36854760D01*
X147606600Y-36854760D02*
X147801840Y-37050000D01*
X145012000Y-37050000D02*
X146298160Y-37050000D01*
X146412000Y-44300000D02*
X146412000Y-46190500D01*
X146412000Y-46190500D02*
X146402500Y-46200000D01*
X140050180Y-46202500D02*
X144495000Y-46202500D01*
X144495000Y-46202500D02*
X144497500Y-46200000D01*
X136925000Y-46215000D02*
X140037680Y-46215000D01*
X140037680Y-46215000D02*
X140050180Y-46202500D01*
X162500000Y-55250000D02*
X162640000Y-55250000D01*
X162640000Y-55250000D02*
X163460000Y-56070000D01*
D63*
X176110000Y-56340000D02*
X176960000Y-56340000D01*
X176110000Y-55530000D02*
X176110000Y-56340000D01*
X176930000Y-55530000D02*
X176110000Y-55530000D01*
X176930000Y-54710000D02*
X176930000Y-55530000D01*
X176080000Y-54710000D02*
X176930000Y-54710000D01*
X175039000Y-54716000D02*
X176074000Y-54716000D01*
X176074000Y-54716000D02*
X176080000Y-54710000D01*
X175039000Y-54716000D02*
X175039000Y-56873000D01*
X175039000Y-56873000D02*
X174862000Y-57050000D01*
D64*
X142250000Y-78600000D02*
X151350000Y-78600000D01*
X154950000Y-66250000D02*
X153480000Y-66250000D01*
D59*
X157450000Y-58750000D02*
X157450000Y-59600000D01*
X157450000Y-59600000D02*
X158530000Y-60680000D01*
X158530000Y-60680000D02*
X159060000Y-60680000D01*
X166450000Y-61250000D02*
X165614998Y-61250000D01*
X165614998Y-61250000D02*
X165240000Y-61624998D01*
X165240000Y-61624998D02*
X165240000Y-62060000D01*
X154950000Y-67750000D02*
X155930000Y-67750000D01*
X155930000Y-67750000D02*
X156500000Y-67180000D01*
X162450000Y-70250000D02*
X162450000Y-69400000D01*
X162450000Y-69400000D02*
X161570000Y-68520000D01*
X161570000Y-68520000D02*
X160390000Y-68520000D01*
X166450000Y-67750000D02*
X167620000Y-67750000D01*
X167620000Y-67750000D02*
X167630000Y-67760000D01*
D61*
X123840000Y-61930000D02*
X122828344Y-61930000D01*
X122828344Y-61930000D02*
X122826055Y-61932289D01*
X124634055Y-61912289D02*
X123857711Y-61912289D01*
X123857711Y-61912289D02*
X123840000Y-61930000D01*
D62*
X153750000Y-77151840D02*
X153750000Y-78370000D01*
X153750000Y-78370000D02*
X153520000Y-78600000D01*
X151350000Y-78600000D02*
X153520000Y-78600000D01*
D61*
X106790000Y-62910700D02*
X109113358Y-62910700D01*
X109113358Y-62910700D02*
X109114798Y-62912140D01*
X115031055Y-62842289D02*
X111544649Y-62842289D01*
X111544649Y-62842289D02*
X111494798Y-62892140D01*
X112120000Y-61800000D02*
X112120000Y-62266938D01*
X112120000Y-62266938D02*
X111494798Y-62892140D01*
X111100000Y-61800000D02*
X112120000Y-61800000D01*
X109910000Y-61790000D02*
X111090000Y-61790000D01*
X111090000Y-61790000D02*
X111100000Y-61800000D01*
X108700000Y-61790000D02*
X109910000Y-61790000D01*
X109114798Y-62912140D02*
X109114798Y-62204798D01*
X109114798Y-62204798D02*
X108700000Y-61790000D01*
X150100700Y-31950000D02*
X149070000Y-31950000D01*
X140773427Y-67320421D02*
X140773427Y-69444721D01*
X140773427Y-69444721D02*
X140773427Y-69979313D01*
X141920927Y-69420421D02*
X140797727Y-69420421D01*
X140797727Y-69420421D02*
X140773427Y-69444721D01*
X140773427Y-69979313D02*
X140702740Y-70050000D01*
X140702740Y-70050000D02*
X139852500Y-70050000D01*
X142950000Y-62890000D02*
X143657036Y-62890000D01*
X143657036Y-62890000D02*
X144290000Y-62890000D01*
X143660000Y-63650000D02*
X143660000Y-62892964D01*
X143660000Y-62892964D02*
X143657036Y-62890000D01*
X144300000Y-63650000D02*
X143660000Y-63650000D01*
X144590000Y-67150000D02*
X143880000Y-67150000D01*
X143880000Y-67150000D02*
X143870000Y-67160000D01*
X144590000Y-67930000D02*
X144590000Y-67150000D01*
X143860000Y-67940000D02*
X144580000Y-67940000D01*
X144580000Y-67940000D02*
X144590000Y-67930000D01*
X143010000Y-67940000D02*
X143860000Y-67940000D01*
X142580000Y-67050000D02*
X142580000Y-67510000D01*
X142580000Y-67510000D02*
X143010000Y-67940000D01*
X143573427Y-65370421D02*
X143573427Y-66725421D01*
X143573427Y-66725421D02*
X143248848Y-67050000D01*
X143248848Y-67050000D02*
X142580000Y-67050000D01*
X144290000Y-62890000D02*
X144290000Y-63640000D01*
X144290000Y-63640000D02*
X144300000Y-63650000D01*
X142950000Y-63630000D02*
X142950000Y-62890000D01*
X143573427Y-65370421D02*
X143573427Y-64015421D01*
X143573427Y-64015421D02*
X143188006Y-63630000D01*
X143188006Y-63630000D02*
X142950000Y-63630000D01*
X148320000Y-64140000D02*
X148320000Y-63390000D01*
X149220000Y-64130000D02*
X148330000Y-64130000D01*
X148330000Y-64130000D02*
X148320000Y-64140000D01*
X149220000Y-63370000D02*
X149220000Y-64130000D01*
X148540000Y-62122500D02*
X148540000Y-62690000D01*
X148540000Y-62690000D02*
X149220000Y-63370000D01*
D62*
X141670000Y-55790000D02*
X141670000Y-54830000D01*
X142770000Y-55800000D02*
X141680000Y-55800000D01*
X141680000Y-55800000D02*
X141670000Y-55790000D01*
X142780000Y-55650000D02*
X142780000Y-54870000D01*
X142780000Y-56640000D02*
X142780000Y-55650000D01*
X141670000Y-56650000D02*
X142770000Y-56650000D01*
X142770000Y-56650000D02*
X142780000Y-56640000D01*
X139847000Y-56650000D02*
X141670000Y-56650000D01*
X141670000Y-53950000D02*
X142780000Y-53950000D01*
X142780000Y-53950000D02*
X142790000Y-53940000D01*
X139897000Y-53950000D02*
X141670000Y-53950000D01*
X139900000Y-52250000D02*
X139900000Y-51140000D01*
X139897000Y-53950000D02*
X139897000Y-52253000D01*
X139897000Y-52253000D02*
X139900000Y-52250000D01*
X143300000Y-48198160D02*
X143300000Y-47420000D01*
X143300000Y-47420000D02*
X143100000Y-47220000D01*
X152050000Y-41000000D02*
X153000000Y-41000000D01*
X151150000Y-41000000D02*
X152050000Y-41000000D01*
X150300000Y-41000000D02*
X151150000Y-41000000D01*
X150300000Y-40100000D02*
X150300000Y-41000000D01*
X150300000Y-40100000D02*
X151150000Y-40100000D01*
X153000000Y-40100000D02*
X152050000Y-40100000D01*
X153000000Y-38597000D02*
X153000000Y-40100000D01*
X150300000Y-38597000D02*
X150300000Y-40100000D01*
X111701840Y-55800000D02*
X112750000Y-55800000D01*
X106948160Y-46900000D02*
X105950000Y-46900000D01*
D61*
X153000000Y-38597000D02*
X159603000Y-38597000D01*
X159603000Y-38597000D02*
X159800000Y-38400000D01*
X150300000Y-38597000D02*
X151401700Y-38597000D01*
X151401700Y-38597000D02*
X153000000Y-38597000D01*
X145900000Y-40250000D02*
X147553000Y-38597000D01*
X147553000Y-38597000D02*
X150300000Y-38597000D01*
X143300000Y-42038000D02*
X144112000Y-42038000D01*
X144112000Y-42038000D02*
X145900000Y-40250000D01*
X140260000Y-41350000D02*
X143129500Y-41350000D01*
X143129500Y-41350000D02*
X143300000Y-41520500D01*
X143300000Y-41520500D02*
X143300000Y-42038000D01*
X140260000Y-38850000D02*
X140260000Y-39685000D01*
X140260000Y-39685000D02*
X140260000Y-41350000D01*
X142249820Y-45250000D02*
X139562248Y-45250000D01*
X139562248Y-45250000D02*
X138790000Y-44477752D01*
X138790000Y-44477752D02*
X138790000Y-43655000D01*
X138790000Y-43655000D02*
X140260000Y-42185000D01*
X140260000Y-42185000D02*
X140260000Y-41350000D01*
X108412000Y-50128500D02*
X108412000Y-48700000D01*
X108412000Y-50900000D02*
X108412000Y-50128500D01*
X108412000Y-46939840D02*
X108451840Y-46900000D01*
X108412000Y-48700000D02*
X108412000Y-46939840D01*
X108462000Y-55546000D02*
X108462000Y-55800000D01*
X107766001Y-54850001D02*
X108462000Y-55546000D01*
X102679999Y-54850001D02*
X107766001Y-54850001D01*
X101880000Y-55650000D02*
X102679999Y-54850001D01*
X107766001Y-54599999D02*
X108462000Y-53904000D01*
X108462000Y-53904000D02*
X108462000Y-53650000D01*
X107766001Y-54850001D02*
X107766001Y-54599999D01*
D64*
X108462000Y-55800000D02*
X110198160Y-55800000D01*
X108462000Y-57909500D02*
X108652500Y-58100000D01*
X108462000Y-55800000D02*
X108462000Y-57909500D01*
D61*
X149750000Y-47862000D02*
X146838000Y-47862000D01*
X146838000Y-47862000D02*
X144998160Y-49701840D01*
X144998160Y-49701840D02*
X143300000Y-49701840D01*
X141251840Y-49700000D02*
X143298160Y-49700000D01*
X143298160Y-49700000D02*
X143300000Y-49701840D01*
X141262000Y-47900000D02*
X141262000Y-49689840D01*
X141262000Y-49689840D02*
X141251840Y-49700000D01*
X138235000Y-47485000D02*
X138650000Y-47900000D01*
X138650000Y-47900000D02*
X139738000Y-47900000D01*
X136925000Y-47485000D02*
X138235000Y-47485000D01*
X139738000Y-47900000D02*
X139738000Y-49689840D01*
X139738000Y-49689840D02*
X139748160Y-49700000D01*
X122051840Y-64650000D02*
X122051840Y-67118160D01*
X122051840Y-67118160D02*
X121720000Y-67450000D01*
X121720000Y-67450000D02*
X121095000Y-67450000D01*
X122826055Y-62884789D02*
X122826055Y-64525365D01*
X122826055Y-64525365D02*
X122701420Y-64650000D01*
X122701420Y-64650000D02*
X122051840Y-64650000D01*
X137947500Y-70050000D02*
X137947500Y-67436350D01*
X137947500Y-67436350D02*
X139413429Y-65970421D01*
X139413429Y-65970421D02*
X139773427Y-65970421D01*
X139773427Y-65970421D02*
X140773427Y-65970421D01*
X143825927Y-69420421D02*
X145670927Y-69420421D01*
D63*
X114493766Y-71730000D02*
X124446375Y-71730000D01*
X124446375Y-71730000D02*
X146040000Y-71730000D01*
D59*
X124445000Y-68125000D02*
X124446375Y-68126375D01*
X124445000Y-67450000D02*
X124445000Y-68125000D01*
X124446375Y-68126375D02*
X124446375Y-71730000D01*
X165270000Y-67630000D02*
X157490000Y-67630000D01*
X157490000Y-67630000D02*
X156430000Y-68690000D01*
D63*
X151810000Y-68390000D02*
X151810000Y-69070000D01*
X146040000Y-71730000D02*
X146060000Y-71710000D01*
X113916055Y-67802289D02*
X113916055Y-71152289D01*
X113916055Y-71152289D02*
X114493766Y-71730000D01*
D59*
X166450000Y-60750000D02*
X166450000Y-60250000D01*
X166450000Y-60250000D02*
X166280000Y-60080000D01*
X156950000Y-58750000D02*
X156610000Y-58750000D01*
X156610000Y-58750000D02*
X156290000Y-59070000D01*
D61*
X154950000Y-68250000D02*
X154150000Y-68250000D01*
X154150000Y-68250000D02*
X153150001Y-69249999D01*
X153150001Y-69249999D02*
X153109999Y-69249999D01*
X154950000Y-68250000D02*
X155990000Y-68250000D01*
X155990000Y-68250000D02*
X156430000Y-68690000D01*
X162950000Y-70250000D02*
X162950000Y-69450000D01*
X163500000Y-68900000D02*
X163930000Y-68900000D01*
X162950000Y-69450000D02*
X163500000Y-68900000D01*
X166450000Y-67250000D02*
X165650000Y-67250000D01*
X165650000Y-67250000D02*
X165270000Y-67630000D01*
X165270000Y-67630000D02*
X165270000Y-68900000D01*
D62*
X150300000Y-70218160D02*
X149439840Y-70218160D01*
X149439840Y-70218160D02*
X148650000Y-71008000D01*
X153310000Y-69450000D02*
X153310000Y-70110000D01*
X153310000Y-70110000D02*
X153350000Y-70150000D01*
X153109999Y-69249999D02*
X153310000Y-69450000D01*
X150300000Y-70218160D02*
X150300000Y-69468580D01*
X150300000Y-69468580D02*
X150518581Y-69249999D01*
X150518581Y-69249999D02*
X153109999Y-69249999D01*
X92597845Y-64962000D02*
X96862018Y-64962000D01*
X96862018Y-64962000D02*
X105036913Y-64962000D01*
X96930000Y-58280000D02*
X96930000Y-64894018D01*
X96930000Y-64894018D02*
X96862018Y-64962000D01*
X96930000Y-56350000D02*
X96930000Y-58280000D01*
X89350000Y-64962000D02*
X92597845Y-64962000D01*
X105060000Y-67311002D02*
X105060000Y-64985087D01*
X105060000Y-64985087D02*
X105060000Y-60786000D01*
X105036913Y-64962000D02*
X105060000Y-64985087D01*
X105060000Y-60786000D02*
X106747500Y-59098500D01*
X106747500Y-59098500D02*
X106747500Y-58100000D01*
X110550000Y-68180000D02*
X109978501Y-68751499D01*
X109978501Y-68751499D02*
X106500497Y-68751499D01*
X106500497Y-68751499D02*
X105060000Y-67311002D01*
D61*
X110550000Y-68180000D02*
X113538344Y-68180000D01*
X113538344Y-68180000D02*
X113916055Y-67802289D01*
X109114798Y-64817140D02*
X109114798Y-66721369D01*
X109114798Y-66721369D02*
X109114798Y-67234702D01*
X110550000Y-68180000D02*
X109114798Y-66744798D01*
X109114798Y-66744798D02*
X109114798Y-66721369D01*
X109114798Y-67234702D02*
X108829500Y-67520000D01*
X108829500Y-67520000D02*
X108312000Y-67520000D01*
X109114798Y-64817140D02*
X111474798Y-64817140D01*
X111474798Y-64817140D02*
X111494798Y-64797140D01*
X124638000Y-64160000D02*
X124638000Y-66232000D01*
X124638000Y-66232000D02*
X124445000Y-66425000D01*
X124445000Y-66425000D02*
X124445000Y-67450000D01*
D59*
X88200000Y-64116000D02*
X88250000Y-64116000D01*
X88250000Y-64116000D02*
X89096000Y-64962000D01*
X89096000Y-64962000D02*
X89350000Y-64962000D01*
X88200000Y-63050000D02*
X88200000Y-64116000D01*
X88200000Y-64116000D02*
X87354000Y-64962000D01*
X87354000Y-64962000D02*
X87100000Y-64962000D01*
D64*
X147250000Y-60370000D02*
X146650000Y-60370000D01*
X146650000Y-60370000D02*
X146640000Y-60380000D01*
X147250000Y-59740000D02*
X147250000Y-60370000D01*
X146660000Y-59750000D02*
X147240000Y-59750000D01*
X147240000Y-59750000D02*
X147250000Y-59740000D01*
X146660000Y-59160000D02*
X146660000Y-59750000D01*
X146660000Y-59160000D02*
X146660000Y-58680000D01*
X147250000Y-59160000D02*
X146660000Y-59160000D01*
X147860000Y-59160000D02*
X147250000Y-59160000D01*
X148540000Y-59156108D02*
X147863892Y-59156108D01*
X147863892Y-59156108D02*
X147860000Y-59160000D01*
X148540000Y-59156108D02*
X148540000Y-58680500D01*
X148540000Y-60217500D02*
X148540000Y-59156108D01*
D61*
X147500000Y-57700000D02*
X148071499Y-58271499D01*
X148071499Y-58271499D02*
X148130999Y-58271499D01*
X148130999Y-58271499D02*
X148540000Y-58680500D01*
X148540000Y-58680500D02*
X149060500Y-58160000D01*
X149060500Y-58160000D02*
X149578000Y-58160000D01*
X146850000Y-60070000D02*
X148392500Y-60070000D01*
X148392500Y-60070000D02*
X148540000Y-60217500D01*
X146850000Y-60070000D02*
X145173768Y-60070000D01*
X145173768Y-60070000D02*
X145173347Y-60070421D01*
D64*
X149600500Y-74100000D02*
X142250000Y-74100000D01*
X160500000Y-55250000D02*
X159624999Y-54374999D01*
X159624999Y-54374999D02*
X156079999Y-54374999D01*
X156079999Y-54374999D02*
X152040000Y-58414998D01*
X152040000Y-58414998D02*
X152040000Y-66550000D01*
X148200000Y-70390000D02*
X147973998Y-70390000D01*
X147740000Y-71876000D02*
X148396000Y-72532000D01*
X152040000Y-66550000D02*
X148200000Y-70390000D01*
X147973998Y-70390000D02*
X147740000Y-70623998D01*
X147740000Y-70623998D02*
X147740000Y-71876000D01*
X148396000Y-72532000D02*
X148650000Y-72532000D01*
D59*
X151350000Y-74100000D02*
X154112002Y-74100000D01*
X154112002Y-74100000D02*
X155569499Y-72642503D01*
X155569499Y-70410501D02*
X156655001Y-69324999D01*
X159950000Y-69400000D02*
X159950000Y-70250000D01*
X155569499Y-72642503D02*
X155569499Y-70410501D01*
X156655001Y-69324999D02*
X159904999Y-69324999D01*
X159904999Y-69324999D02*
X159950000Y-69370000D01*
X159950000Y-69370000D02*
X159950000Y-69400000D01*
D62*
X148650000Y-72532000D02*
X148650000Y-73149500D01*
X148650000Y-73149500D02*
X149600500Y-74100000D01*
X149600500Y-74100000D02*
X150000000Y-74100000D01*
X150000000Y-74100000D02*
X151350000Y-74100000D01*
X151350000Y-74100000D02*
X151350000Y-75100000D01*
X151350000Y-75100000D02*
X151898160Y-75648160D01*
X151898160Y-75648160D02*
X152949620Y-75648160D01*
X152949620Y-75648160D02*
X153750000Y-75648160D01*
X151850000Y-71750000D02*
X150328160Y-71750000D01*
X150328160Y-71750000D02*
X150300000Y-71721840D01*
D61*
X143488000Y-37050000D02*
X143488000Y-33955400D01*
X143488000Y-33955400D02*
X143593400Y-33850000D01*
X143488000Y-37050000D02*
X140960000Y-37050000D01*
X140960000Y-37050000D02*
X140260000Y-36350000D01*
X140260000Y-33850000D02*
X140260000Y-34685000D01*
X140260000Y-34685000D02*
X140260000Y-36350000D01*
D59*
X123000000Y-40150000D02*
X123212000Y-40362000D01*
X123212000Y-40362000D02*
X124350000Y-40362000D01*
X122400000Y-40150000D02*
X123000000Y-40150000D01*
D61*
X127400000Y-43900000D02*
X124477000Y-43900000D01*
X124477000Y-43900000D02*
X124466000Y-43889000D01*
X120862000Y-43900000D02*
X124455000Y-43900000D01*
X124455000Y-43900000D02*
X124466000Y-43889000D01*
D58*
X119992000Y-37980000D02*
X120000000Y-37988000D01*
X118002500Y-37980000D02*
X119992000Y-37980000D01*
X118125000Y-36325000D02*
X118000000Y-36450000D01*
X118900000Y-36325000D02*
X118125000Y-36325000D01*
X118002500Y-36452500D02*
X118002500Y-37980000D01*
X118000000Y-36450000D02*
X118002500Y-36452500D01*
D61*
X122450000Y-45700000D02*
X122450000Y-44850000D01*
X122434000Y-43000000D02*
X122434000Y-41966000D01*
X122434000Y-41966000D02*
X122450000Y-41950000D01*
X123850000Y-45700000D02*
X123850000Y-47488000D01*
X123850000Y-47488000D02*
X123862000Y-47500000D01*
X130675000Y-47485000D02*
X123877000Y-47485000D01*
X123877000Y-47485000D02*
X123862000Y-47500000D01*
X144888000Y-44300000D02*
X144888000Y-44046000D01*
X144888000Y-44046000D02*
X145505501Y-43428499D01*
X145505501Y-43428499D02*
X147620499Y-43428499D01*
X147620499Y-43428499D02*
X148238000Y-44046000D01*
X148238000Y-44046000D02*
X148238000Y-44300000D01*
X143082000Y-44297500D02*
X143084500Y-44300000D01*
X143084500Y-44300000D02*
X144888000Y-44300000D01*
X140050180Y-44297500D02*
X143082000Y-44297500D01*
X143082000Y-44297500D02*
X143300000Y-44079500D01*
X143300000Y-44079500D02*
X143300000Y-43562000D01*
D56*
X101880000Y-44368630D02*
X99711370Y-42200000D01*
X101880000Y-45500000D02*
X101880000Y-44368630D01*
X99711370Y-42200000D02*
X95800000Y-42200000D01*
X95800000Y-42200000D02*
X94800000Y-41200000D01*
X94800000Y-41200000D02*
X94800000Y-36150000D01*
X94600000Y-35950000D02*
X92250000Y-35950000D01*
X94800000Y-36150000D02*
X94600000Y-35950000D01*
X90850000Y-33450000D02*
X92250000Y-33450000D01*
X90500000Y-42400000D02*
X90500000Y-33800000D01*
X90500000Y-33800000D02*
X90850000Y-33450000D01*
X91780001Y-43680001D02*
X90500000Y-42400000D01*
X98540001Y-43680001D02*
X91780001Y-43680001D01*
X99340000Y-44480000D02*
X98540001Y-43680001D01*
D59*
X87100000Y-61899300D02*
X87100000Y-63438000D01*
X88000000Y-55000000D02*
X88000000Y-60149480D01*
X88000000Y-60149480D02*
X87748780Y-60400700D01*
X87748780Y-60400700D02*
X87100000Y-60400700D01*
X89350000Y-61899300D02*
X89350000Y-63438000D01*
X88750003Y-55000000D02*
X88750003Y-55388908D01*
X88750003Y-55388908D02*
X88550000Y-55588911D01*
X88550000Y-55588911D02*
X88550000Y-60249480D01*
X88550000Y-60249480D02*
X88701220Y-60400700D01*
X88701220Y-60400700D02*
X89350000Y-60400700D01*
D61*
X153000000Y-31938000D02*
X151611300Y-31938000D01*
X151611300Y-31938000D02*
X151599300Y-31950000D01*
X140773427Y-63420421D02*
X140773427Y-60670501D01*
X140773427Y-60670501D02*
X141373507Y-60070421D01*
X140773427Y-63420421D02*
X140773427Y-64020421D01*
X138600000Y-63180000D02*
X140533006Y-63180000D01*
X140533006Y-63180000D02*
X140773427Y-63420421D01*
X151102000Y-58160000D02*
X151102000Y-60298700D01*
X151102000Y-60298700D02*
X151100000Y-60300700D01*
X106790000Y-64409300D02*
X106790000Y-67518000D01*
X106790000Y-67518000D02*
X106788000Y-67520000D01*
D62*
X153760000Y-71750000D02*
X154060000Y-72050000D01*
X154060000Y-72050000D02*
X154688000Y-72050000D01*
X153350000Y-71750000D02*
X153760000Y-71750000D01*
D61*
X105988000Y-56750000D02*
X106938000Y-55800000D01*
X100328630Y-56750000D02*
X105988000Y-56750000D01*
X99340000Y-55761370D02*
X100328630Y-56750000D01*
X99340000Y-54630000D02*
X99340000Y-55761370D01*
D64*
X104750000Y-50900000D02*
X106888000Y-50900000D01*
D61*
X106908000Y-53620000D02*
X106938000Y-53650000D01*
X101880000Y-53620000D02*
X106908000Y-53620000D01*
X94500000Y-48050000D02*
X94774999Y-47775001D01*
X94774999Y-47775001D02*
X98065001Y-47775001D01*
X98065001Y-47775001D02*
X101080001Y-50790001D01*
X101080001Y-50790001D02*
X101880000Y-51590000D01*
X104770000Y-48700000D02*
X106888000Y-48700000D01*
X101880000Y-51590000D02*
X104770000Y-48700000D01*
D64*
X158500000Y-55250000D02*
X157850001Y-55899999D01*
X157850001Y-55899999D02*
X157850001Y-58650001D01*
X157850001Y-58650001D02*
X157950000Y-58750000D01*
X156500000Y-55250000D02*
X154950000Y-56800000D01*
X154950000Y-56800000D02*
X154950000Y-60750000D01*
D59*
X166450000Y-63750000D02*
X167680000Y-63750000D01*
X167680000Y-63750000D02*
X167700000Y-63770000D01*
D64*
X166450000Y-63250000D02*
X168012824Y-63250000D01*
X168012824Y-63250000D02*
X168035161Y-63272337D01*
X154950000Y-64250000D02*
X156471553Y-64250000D01*
X156471553Y-64250000D02*
X156489364Y-64267811D01*
X154950000Y-64750000D02*
X156090000Y-64750000D01*
X154950000Y-66750000D02*
X155765720Y-66750000D01*
X155765720Y-66750000D02*
X156293924Y-66221796D01*
X156293924Y-66221796D02*
X159088204Y-66221796D01*
X159088204Y-66221796D02*
X159170000Y-66140000D01*
X154950000Y-67250000D02*
X155870000Y-67250000D01*
X155870000Y-67250000D02*
X155999999Y-67120001D01*
X156259999Y-66679999D02*
X159329999Y-66679999D01*
X155999999Y-67120001D02*
X155999999Y-66939999D01*
X155999999Y-66939999D02*
X156259999Y-66679999D01*
X159329999Y-66679999D02*
X159529998Y-66480000D01*
X159529998Y-66480000D02*
X160200000Y-66480000D01*
X167015722Y-58750000D02*
X170924981Y-62659259D01*
X170924981Y-62659259D02*
X170924981Y-66804981D01*
X170924981Y-66804981D02*
X171020000Y-66900000D01*
X164450000Y-58750000D02*
X167015722Y-58750000D01*
X163950000Y-58750000D02*
X163950000Y-59500000D01*
X163950000Y-59500000D02*
X164025001Y-59575001D01*
X164025001Y-59575001D02*
X164780001Y-59575001D01*
X164780001Y-59575001D02*
X165050000Y-59305002D01*
X165050000Y-59305002D02*
X165050000Y-59200010D01*
X166450000Y-62750000D02*
X168230830Y-62750000D01*
X168230830Y-62750000D02*
X168263392Y-62717438D01*
X154950000Y-65750000D02*
X155700000Y-65750000D01*
X155700000Y-65750000D02*
X155755977Y-65805977D01*
X157395825Y-65805977D02*
X157430007Y-65771795D01*
X155755977Y-65805977D02*
X157395825Y-65805977D01*
X157430007Y-65771795D02*
X157748205Y-65771795D01*
X154950000Y-65250000D02*
X155953591Y-65250000D01*
X155953591Y-65250000D02*
X156059567Y-65355976D01*
D59*
X154950000Y-63750000D02*
X156100000Y-63750000D01*
X156100000Y-63750000D02*
X156110000Y-63740000D01*
D64*
X166450000Y-61750000D02*
X167961956Y-61750000D01*
X167961956Y-61750000D02*
X169551956Y-63340000D01*
X169551956Y-63340000D02*
X170474980Y-63340000D01*
X166450000Y-62250000D02*
X165790002Y-62250000D01*
X163829992Y-64210010D02*
X162400000Y-64210010D01*
X165790002Y-62250000D02*
X163829992Y-64210010D01*
X163450000Y-58750000D02*
X163450000Y-59980000D01*
X162950000Y-58750000D02*
X162950000Y-60480000D01*
X162950000Y-60480000D02*
X163160000Y-60690000D01*
X160450000Y-70250000D02*
X160450000Y-71000000D01*
X174750001Y-68449999D02*
X175200000Y-68000000D01*
X160450000Y-71000000D02*
X161425031Y-71975031D01*
X161425031Y-71975031D02*
X171224969Y-71975031D01*
X171224969Y-71975031D02*
X174750001Y-68449999D01*
X160950000Y-70250000D02*
X160950000Y-71000000D01*
X174200000Y-67636396D02*
X174200000Y-67000000D01*
X160950000Y-71000000D02*
X161625021Y-71675021D01*
X161625021Y-71675021D02*
X170523981Y-71675021D01*
X170523981Y-71675021D02*
X174200000Y-67999002D01*
X174200000Y-67999002D02*
X174200000Y-67636396D01*
X166450000Y-64750000D02*
X168899972Y-64750000D01*
X168899972Y-64750000D02*
X170474971Y-66324999D01*
X166450000Y-64250000D02*
X170054960Y-64250000D01*
X170054960Y-64250000D02*
X170474971Y-64670011D01*
X161630000Y-57290010D02*
X167445732Y-57290010D01*
X167445732Y-57290010D02*
X172865722Y-62710000D01*
X172865722Y-62710000D02*
X173170000Y-62710000D01*
X173320000Y-62860000D02*
X173400000Y-62860000D01*
X173170000Y-62710000D02*
X173320000Y-62860000D01*
X173524999Y-63324001D02*
X174200998Y-64000000D01*
X173400000Y-62860000D02*
X173524999Y-62984999D01*
X173524999Y-62984999D02*
X173524999Y-63324001D01*
X174200998Y-64000000D02*
X174563604Y-64000000D01*
X174563604Y-64000000D02*
X175200000Y-64000000D01*
X161450000Y-57470010D02*
X161630000Y-57290010D01*
X161450000Y-58750000D02*
X161450000Y-57470010D01*
X160950000Y-58750000D02*
X160950000Y-57210000D01*
X160950000Y-57210000D02*
X161170000Y-56990000D01*
X161170000Y-56990000D02*
X167570000Y-56990000D01*
X167570000Y-56990000D02*
X170270000Y-59690000D01*
X170270000Y-59690000D02*
X171889002Y-59690000D01*
X171889002Y-59690000D02*
X174200000Y-62000998D01*
X174200000Y-62000998D02*
X174200000Y-62363604D01*
X174200000Y-62363604D02*
X174200000Y-63000000D01*
X154950000Y-62750000D02*
X158520280Y-62750000D01*
X158520280Y-62750000D02*
X158833484Y-62436796D01*
X158833484Y-62436796D02*
X161323195Y-62436796D01*
X161323195Y-62436796D02*
X161718201Y-62041790D01*
X157450000Y-70250000D02*
X157450000Y-71390000D01*
X157450000Y-71390000D02*
X157370000Y-71470000D01*
X161450000Y-70250000D02*
X161450000Y-71000000D01*
X161450000Y-71000000D02*
X161825011Y-71375011D01*
X172750001Y-68449999D02*
X173200000Y-68000000D01*
X161825011Y-71375011D02*
X169824989Y-71375011D01*
X169824989Y-71375011D02*
X172750001Y-68449999D01*
X167321464Y-57590020D02*
X171524999Y-61793555D01*
X171524999Y-61793555D02*
X171524999Y-64324999D01*
X171524999Y-64324999D02*
X171750001Y-64550001D01*
X171750001Y-64550001D02*
X172200000Y-65000000D01*
X162359980Y-57590020D02*
X167321464Y-57590020D01*
X161950000Y-58750000D02*
X161950000Y-58000000D01*
X161950000Y-58000000D02*
X162359980Y-57590020D01*
X162450000Y-58750000D02*
X162450000Y-58000000D01*
X162450000Y-58000000D02*
X162525001Y-57924999D01*
X171224989Y-62534989D02*
X171224991Y-65023993D01*
X171224991Y-65023993D02*
X172200998Y-66000000D01*
X162525001Y-57924999D02*
X166614999Y-57924999D01*
X166614999Y-57924999D02*
X171224989Y-62534989D01*
X172200998Y-66000000D02*
X172563604Y-66000000D01*
X172563604Y-66000000D02*
X173200000Y-66000000D01*
X161950000Y-70250000D02*
X161950000Y-71000000D01*
X161950000Y-71000000D02*
X162025001Y-71075001D01*
X162025001Y-71075001D02*
X168124999Y-71075001D01*
X168124999Y-71075001D02*
X171750001Y-67449999D01*
X171750001Y-67449999D02*
X172200000Y-67000000D01*
X154950000Y-62250000D02*
X158596002Y-62250000D01*
X158859207Y-61986795D02*
X160423205Y-61986795D01*
X158596002Y-62250000D02*
X158859207Y-61986795D01*
X154950000Y-61750000D02*
X158430000Y-61750000D01*
X158430000Y-61750000D02*
X158490000Y-61690000D01*
X157950000Y-70250000D02*
X157950000Y-71410000D01*
X157950000Y-71410000D02*
X158040000Y-71500000D01*
X158450000Y-70250000D02*
X158450000Y-71000000D01*
X158450000Y-71000000D02*
X158610000Y-71160000D01*
X158610000Y-71160000D02*
X158610000Y-72050000D01*
D63*
X172350000Y-45549940D02*
X174150000Y-47349940D01*
X174150000Y-47349940D02*
X174150000Y-52684000D01*
X124250000Y-34000000D02*
X124250000Y-33611092D01*
X124250000Y-34600000D02*
X124250000Y-34000000D01*
X124252500Y-34902500D02*
X124252500Y-34602500D01*
X124252500Y-34602500D02*
X124250000Y-34600000D01*
X124252500Y-36350000D02*
X124252500Y-34902500D01*
X124252500Y-34902500D02*
X124250000Y-34900000D01*
D58*
X124252500Y-36350000D02*
X127050000Y-36350000D01*
D59*
X173261000Y-54716000D02*
X173261000Y-56973000D01*
X173261000Y-56973000D02*
X173338000Y-57050000D01*
X171512000Y-57050000D02*
X173338000Y-57050000D01*
D61*
X119338000Y-43900000D02*
X119338000Y-44671500D01*
X119338000Y-44671500D02*
X120116500Y-45450000D01*
X120116500Y-45450000D02*
X120450000Y-45450000D01*
X119338000Y-43900000D02*
X119338000Y-42150000D01*
D59*
X124350000Y-38838000D02*
X127038000Y-38838000D01*
X127038000Y-38838000D02*
X127050000Y-38850000D01*
D61*
X148850000Y-66562000D02*
X148424721Y-66562000D01*
X148424721Y-66562000D02*
X147849720Y-65986999D01*
X147373427Y-66020421D02*
X146373427Y-66020421D01*
X147849720Y-65986999D02*
X147406849Y-65986999D01*
X147406849Y-65986999D02*
X147373427Y-66020421D01*
X147575927Y-69420421D02*
X147575927Y-69166421D01*
X147575927Y-69166421D02*
X146373427Y-67963921D01*
X146373427Y-67963921D02*
X146373427Y-67720421D01*
X146373427Y-67720421D02*
X146373427Y-67370421D01*
X126158055Y-61912289D02*
X126158055Y-64156055D01*
X126158055Y-64156055D02*
X126162000Y-64160000D01*
X122826055Y-60979789D02*
X125997055Y-60979789D01*
X125997055Y-60979789D02*
X126158055Y-61140789D01*
X126158055Y-61140789D02*
X126158055Y-61912289D01*
X147465298Y-66670421D02*
X147573719Y-66562000D01*
X146373427Y-66670421D02*
X147465298Y-66670421D01*
D64*
X159060001Y-71320001D02*
X158950000Y-71210000D01*
X158950000Y-71210000D02*
X158950000Y-70250000D01*
X156212000Y-72050000D02*
X156679500Y-72050000D01*
X156679500Y-72050000D02*
X157129501Y-72500001D01*
X157129501Y-72500001D02*
X158826001Y-72500001D01*
X158826001Y-72500001D02*
X159060001Y-72266001D01*
X159060001Y-72266001D02*
X159060001Y-71320001D01*
X167550000Y-68580000D02*
X166780000Y-68580000D01*
X166780000Y-68580000D02*
X166450000Y-68250000D01*
X161400000Y-65730000D02*
X166430000Y-65730000D01*
X166430000Y-65730000D02*
X166450000Y-65750000D01*
X161920000Y-65279990D02*
X166420010Y-65279990D01*
X166420010Y-65279990D02*
X166450000Y-65250000D01*
X158946795Y-64703205D02*
X159707203Y-64703205D01*
X159707203Y-64703205D02*
X161253998Y-66250000D01*
X161253998Y-66250000D02*
X165700000Y-66250000D01*
X165700000Y-66250000D02*
X166450000Y-66250000D01*
X159490000Y-65380000D02*
X159714999Y-65604999D01*
X159714999Y-65604999D02*
X160184719Y-65604999D01*
X160184719Y-65604999D02*
X161329720Y-66750000D01*
X161329720Y-66750000D02*
X165700000Y-66750000D01*
X165700000Y-66750000D02*
X166450000Y-66750000D01*
X170620000Y-58650000D02*
X169988000Y-58018000D01*
X169988000Y-58018000D02*
X169988000Y-57050000D01*
X174090000Y-58650000D02*
X170620000Y-58650000D01*
X176550000Y-61110000D02*
X174090000Y-58650000D01*
X176550000Y-68800000D02*
X176550000Y-61110000D01*
X172840000Y-72510000D02*
X176550000Y-68800000D01*
X168110000Y-72510000D02*
X172840000Y-72510000D01*
X163950000Y-70250000D02*
X163950000Y-69500000D01*
X165264999Y-69424999D02*
X165770000Y-69930000D01*
X163950000Y-69500000D02*
X164025001Y-69424999D01*
X164025001Y-69424999D02*
X165264999Y-69424999D01*
D56*
G36*
X131723000Y-45740299D02*
X131677217Y-45629770D01*
X131585231Y-45537783D01*
X131465045Y-45488000D01*
X131334956Y-45488000D01*
X130883750Y-45488000D01*
X130802000Y-45569750D01*
X130802000Y-46088000D01*
X130822000Y-46088000D01*
X130822000Y-46342000D01*
X130802000Y-46342000D01*
X130802000Y-46362000D01*
X130548000Y-46362000D01*
X130548000Y-46342000D01*
X130548000Y-46088000D01*
X130548000Y-45569750D01*
X130466250Y-45488000D01*
X130015044Y-45488000D01*
X129884955Y-45488000D01*
X129764769Y-45537783D01*
X129672783Y-45629770D01*
X129623000Y-45749956D01*
X129623000Y-46006250D01*
X129704750Y-46088000D01*
X130548000Y-46088000D01*
X130548000Y-46342000D01*
X129704750Y-46342000D01*
X129623000Y-46423750D01*
X129623000Y-46533129D01*
X129590302Y-46546673D01*
X129463974Y-46673000D01*
X128647000Y-46673000D01*
X128647000Y-42050044D01*
X128647000Y-41558750D01*
X128647000Y-41141250D01*
X128647000Y-40649956D01*
X128597217Y-40529770D01*
X128505231Y-40437783D01*
X128385045Y-40388000D01*
X128254956Y-40388000D01*
X127258750Y-40388000D01*
X127177000Y-40469750D01*
X127177000Y-41223000D01*
X128565250Y-41223000D01*
X128647000Y-41141250D01*
X128647000Y-41558750D01*
X128565250Y-41477000D01*
X127177000Y-41477000D01*
X127177000Y-42230250D01*
X127258750Y-42312000D01*
X128254956Y-42312000D01*
X128385045Y-42312000D01*
X128505231Y-42262217D01*
X128597217Y-42170230D01*
X128647000Y-42050044D01*
X128647000Y-46673000D01*
X128077000Y-46673000D01*
X128077000Y-45665044D01*
X128077000Y-45508750D01*
X127995250Y-45427000D01*
X127527000Y-45427000D01*
X127527000Y-45845250D01*
X127608750Y-45927000D01*
X127684956Y-45927000D01*
X127815045Y-45927000D01*
X127935231Y-45877217D01*
X128027217Y-45785230D01*
X128077000Y-45665044D01*
X128077000Y-46673000D01*
X126777000Y-46673000D01*
X126777000Y-45789447D01*
X126864769Y-45877217D01*
X126984955Y-45927000D01*
X127115044Y-45927000D01*
X127191250Y-45927000D01*
X127273000Y-45845250D01*
X127273000Y-45427000D01*
X127253000Y-45427000D01*
X127253000Y-45173000D01*
X127273000Y-45173000D01*
X127273000Y-45153000D01*
X127527000Y-45153000D01*
X127527000Y-45173000D01*
X127995250Y-45173000D01*
X128077000Y-45091250D01*
X128077000Y-44934956D01*
X128032282Y-44827000D01*
X128527000Y-44827000D01*
X128527000Y-42473000D01*
X126327000Y-42473000D01*
X126327000Y-42312000D01*
X126841250Y-42312000D01*
X126923000Y-42230250D01*
X126923000Y-41477000D01*
X126903000Y-41477000D01*
X126903000Y-41223000D01*
X126923000Y-41223000D01*
X126923000Y-40469750D01*
X126841250Y-40388000D01*
X126327000Y-40388000D01*
X126327000Y-40227000D01*
X131723000Y-40227000D01*
X131723000Y-45740299D01*
X131723000Y-45740299D01*
G37*
X131723000Y-45740299D02*
X131677217Y-45629770D01*
X131585231Y-45537783D01*
X131465045Y-45488000D01*
X131334956Y-45488000D01*
X130883750Y-45488000D01*
X130802000Y-45569750D01*
X130802000Y-46088000D01*
X130822000Y-46088000D01*
X130822000Y-46342000D01*
X130802000Y-46342000D01*
X130802000Y-46362000D01*
X130548000Y-46362000D01*
X130548000Y-46342000D01*
X130548000Y-46088000D01*
X130548000Y-45569750D01*
X130466250Y-45488000D01*
X130015044Y-45488000D01*
X129884955Y-45488000D01*
X129764769Y-45537783D01*
X129672783Y-45629770D01*
X129623000Y-45749956D01*
X129623000Y-46006250D01*
X129704750Y-46088000D01*
X130548000Y-46088000D01*
X130548000Y-46342000D01*
X129704750Y-46342000D01*
X129623000Y-46423750D01*
X129623000Y-46533129D01*
X129590302Y-46546673D01*
X129463974Y-46673000D01*
X128647000Y-46673000D01*
X128647000Y-42050044D01*
X128647000Y-41558750D01*
X128647000Y-41141250D01*
X128647000Y-40649956D01*
X128597217Y-40529770D01*
X128505231Y-40437783D01*
X128385045Y-40388000D01*
X128254956Y-40388000D01*
X127258750Y-40388000D01*
X127177000Y-40469750D01*
X127177000Y-41223000D01*
X128565250Y-41223000D01*
X128647000Y-41141250D01*
X128647000Y-41558750D01*
X128565250Y-41477000D01*
X127177000Y-41477000D01*
X127177000Y-42230250D01*
X127258750Y-42312000D01*
X128254956Y-42312000D01*
X128385045Y-42312000D01*
X128505231Y-42262217D01*
X128597217Y-42170230D01*
X128647000Y-42050044D01*
X128647000Y-46673000D01*
X128077000Y-46673000D01*
X128077000Y-45665044D01*
X128077000Y-45508750D01*
X127995250Y-45427000D01*
X127527000Y-45427000D01*
X127527000Y-45845250D01*
X127608750Y-45927000D01*
X127684956Y-45927000D01*
X127815045Y-45927000D01*
X127935231Y-45877217D01*
X128027217Y-45785230D01*
X128077000Y-45665044D01*
X128077000Y-46673000D01*
X126777000Y-46673000D01*
X126777000Y-45789447D01*
X126864769Y-45877217D01*
X126984955Y-45927000D01*
X127115044Y-45927000D01*
X127191250Y-45927000D01*
X127273000Y-45845250D01*
X127273000Y-45427000D01*
X127253000Y-45427000D01*
X127253000Y-45173000D01*
X127273000Y-45173000D01*
X127273000Y-45153000D01*
X127527000Y-45153000D01*
X127527000Y-45173000D01*
X127995250Y-45173000D01*
X128077000Y-45091250D01*
X128077000Y-44934956D01*
X128032282Y-44827000D01*
X128527000Y-44827000D01*
X128527000Y-42473000D01*
X126327000Y-42473000D01*
X126327000Y-42312000D01*
X126841250Y-42312000D01*
X126923000Y-42230250D01*
X126923000Y-41477000D01*
X126903000Y-41477000D01*
X126903000Y-41223000D01*
X126923000Y-41223000D01*
X126923000Y-40469750D01*
X126841250Y-40388000D01*
X126327000Y-40388000D01*
X126327000Y-40227000D01*
X131723000Y-40227000D01*
X131723000Y-45740299D01*
G36*
X144773000Y-35623000D02*
X143923000Y-35623000D01*
X143923000Y-37673000D01*
X142177000Y-37673000D01*
X142177000Y-37373000D01*
X138377000Y-37373000D01*
X138377000Y-32500000D01*
X138377000Y-32477000D01*
X144773000Y-32477000D01*
X144773000Y-35623000D01*
X144773000Y-35623000D01*
G37*
X144773000Y-35623000D02*
X143923000Y-35623000D01*
X143923000Y-37673000D01*
X142177000Y-37673000D01*
X142177000Y-37373000D01*
X138377000Y-37373000D01*
X138377000Y-32500000D01*
X138377000Y-32477000D01*
X144773000Y-32477000D01*
X144773000Y-35623000D01*
G36*
X161373000Y-35373000D02*
X154223000Y-35373000D01*
X154223000Y-37023000D01*
X148723000Y-37023000D01*
X148723000Y-37623000D01*
X147382740Y-37623000D01*
X147382740Y-37424071D01*
X147382740Y-36423311D01*
X147286067Y-36189922D01*
X147277000Y-36180854D01*
X147277000Y-35323000D01*
X146527000Y-35323000D01*
X146527000Y-32577000D01*
X148410093Y-32577000D01*
X148553853Y-32721011D01*
X148888196Y-32859842D01*
X149250216Y-32860158D01*
X149296250Y-32841136D01*
X149342221Y-32887107D01*
X149575610Y-32983780D01*
X149828229Y-32983780D01*
X150625789Y-32983780D01*
X150849999Y-32890908D01*
X151074210Y-32983780D01*
X151326829Y-32983780D01*
X152124389Y-32983780D01*
X152349586Y-32890500D01*
X152554809Y-32890500D01*
X153697809Y-32890500D01*
X153931198Y-32793827D01*
X153948025Y-32777000D01*
X154177000Y-32777000D01*
X154177000Y-32453029D01*
X154206500Y-32381810D01*
X154206500Y-32129191D01*
X154206500Y-31494191D01*
X154199379Y-31477000D01*
X161373000Y-31477000D01*
X161373000Y-35373000D01*
X161373000Y-35373000D01*
G37*
X161373000Y-35373000D02*
X154223000Y-35373000D01*
X154223000Y-37023000D01*
X148723000Y-37023000D01*
X148723000Y-37623000D01*
X147382740Y-37623000D01*
X147382740Y-37424071D01*
X147382740Y-36423311D01*
X147286067Y-36189922D01*
X147277000Y-36180854D01*
X147277000Y-35323000D01*
X146527000Y-35323000D01*
X146527000Y-32577000D01*
X148410093Y-32577000D01*
X148553853Y-32721011D01*
X148888196Y-32859842D01*
X149250216Y-32860158D01*
X149296250Y-32841136D01*
X149342221Y-32887107D01*
X149575610Y-32983780D01*
X149828229Y-32983780D01*
X150625789Y-32983780D01*
X150849999Y-32890908D01*
X151074210Y-32983780D01*
X151326829Y-32983780D01*
X152124389Y-32983780D01*
X152349586Y-32890500D01*
X152554809Y-32890500D01*
X153697809Y-32890500D01*
X153931198Y-32793827D01*
X153948025Y-32777000D01*
X154177000Y-32777000D01*
X154177000Y-32453029D01*
X154206500Y-32381810D01*
X154206500Y-32129191D01*
X154206500Y-31494191D01*
X154199379Y-31477000D01*
X161373000Y-31477000D01*
X161373000Y-35373000D01*
G36*
X161373000Y-40273000D02*
X154173000Y-40273000D01*
X154173000Y-41423000D01*
X147723000Y-41423000D01*
X147723000Y-42623000D01*
X144030401Y-42623000D01*
X143997810Y-42609500D01*
X143745191Y-42609500D01*
X142602191Y-42609500D01*
X142569599Y-42623000D01*
X138377000Y-42623000D01*
X138377000Y-38127357D01*
X142798802Y-38147828D01*
X142810801Y-38159827D01*
X143044190Y-38256500D01*
X143296809Y-38256500D01*
X143931809Y-38256500D01*
X144165198Y-38159827D01*
X144170844Y-38154180D01*
X144329890Y-38154916D01*
X144334801Y-38159827D01*
X144568190Y-38256500D01*
X144820809Y-38256500D01*
X145455809Y-38256500D01*
X145674888Y-38165754D01*
X145722270Y-38185380D01*
X145974889Y-38185380D01*
X146874049Y-38185380D01*
X146918658Y-38166902D01*
X147184309Y-38168132D01*
X147225950Y-38185380D01*
X147478569Y-38185380D01*
X148377729Y-38185380D01*
X148405717Y-38173786D01*
X149227000Y-38177589D01*
X149227000Y-37727000D01*
X155827000Y-37727000D01*
X155827000Y-36627000D01*
X161373000Y-36627000D01*
X161373000Y-40273000D01*
X161373000Y-40273000D01*
G37*
X161373000Y-40273000D02*
X154173000Y-40273000D01*
X154173000Y-41423000D01*
X147723000Y-41423000D01*
X147723000Y-42623000D01*
X144030401Y-42623000D01*
X143997810Y-42609500D01*
X143745191Y-42609500D01*
X142602191Y-42609500D01*
X142569599Y-42623000D01*
X138377000Y-42623000D01*
X138377000Y-38127357D01*
X142798802Y-38147828D01*
X142810801Y-38159827D01*
X143044190Y-38256500D01*
X143296809Y-38256500D01*
X143931809Y-38256500D01*
X144165198Y-38159827D01*
X144170844Y-38154180D01*
X144329890Y-38154916D01*
X144334801Y-38159827D01*
X144568190Y-38256500D01*
X144820809Y-38256500D01*
X145455809Y-38256500D01*
X145674888Y-38165754D01*
X145722270Y-38185380D01*
X145974889Y-38185380D01*
X146874049Y-38185380D01*
X146918658Y-38166902D01*
X147184309Y-38168132D01*
X147225950Y-38185380D01*
X147478569Y-38185380D01*
X148377729Y-38185380D01*
X148405717Y-38173786D01*
X149227000Y-38177589D01*
X149227000Y-37727000D01*
X155827000Y-37727000D01*
X155827000Y-36627000D01*
X161373000Y-36627000D01*
X161373000Y-40273000D01*
D65*
G36*
X151615000Y-62375000D02*
X149875000Y-62375000D01*
X149875000Y-65675000D01*
X145275000Y-65675000D01*
X145275000Y-68275000D01*
X142125000Y-68275000D01*
X142125000Y-67575000D01*
X139825000Y-67575000D01*
X139825000Y-66384992D01*
X142125000Y-66384281D01*
X142125000Y-63525000D01*
X142525000Y-63525000D01*
X142525000Y-57675000D01*
X138725000Y-57675000D01*
X138725000Y-52205000D01*
X138450000Y-52205000D01*
X137525000Y-52205000D01*
X137525000Y-50525000D01*
X143775000Y-50525000D01*
X143775000Y-57700000D01*
X143775000Y-61425000D01*
X149900000Y-61425000D01*
X151615000Y-61425000D01*
X151615000Y-62375000D01*
X151615000Y-62375000D01*
G37*
X151615000Y-62375000D02*
X149875000Y-62375000D01*
X149875000Y-65675000D01*
X145275000Y-65675000D01*
X145275000Y-68275000D01*
X142125000Y-68275000D01*
X142125000Y-67575000D01*
X139825000Y-67575000D01*
X139825000Y-66384992D01*
X142125000Y-66384281D01*
X142125000Y-63525000D01*
X142525000Y-63525000D01*
X142525000Y-57675000D01*
X138725000Y-57675000D01*
X138725000Y-52205000D01*
X138450000Y-52205000D01*
X137525000Y-52205000D01*
X137525000Y-50525000D01*
X143775000Y-50525000D01*
X143775000Y-57700000D01*
X143775000Y-61425000D01*
X149900000Y-61425000D01*
X151615000Y-61425000D01*
X151615000Y-62375000D01*
G36*
X141615000Y-65575000D02*
X128625000Y-65575000D01*
X128625000Y-60075978D01*
X120974886Y-60074997D01*
X120984886Y-62275000D01*
X119425000Y-62275000D01*
X119425000Y-58225000D01*
X128625000Y-58225000D01*
X128625000Y-55325000D01*
X136125000Y-55325000D01*
X136125000Y-52825000D01*
X138075000Y-52825000D01*
X138075000Y-57675000D01*
X130775000Y-57675000D01*
X130775000Y-65325000D01*
X139925000Y-65325000D01*
X139925000Y-64525000D01*
X141615000Y-64525000D01*
X141615000Y-65575000D01*
X141615000Y-65575000D01*
G37*
X141615000Y-65575000D02*
X128625000Y-65575000D01*
X128625000Y-60075978D01*
X120974886Y-60074997D01*
X120984886Y-62275000D01*
X119425000Y-62275000D01*
X119425000Y-58225000D01*
X128625000Y-58225000D01*
X128625000Y-55325000D01*
X136125000Y-55325000D01*
X136125000Y-52825000D01*
X138075000Y-52825000D01*
X138075000Y-57675000D01*
X130775000Y-57675000D01*
X130775000Y-65325000D01*
X139925000Y-65325000D01*
X139925000Y-64525000D01*
X141615000Y-64525000D01*
X141615000Y-65575000D01*
G36*
X142175000Y-61475000D02*
X141775000Y-61475000D01*
X141775000Y-64275000D01*
X139675000Y-64275000D01*
X139675000Y-64340000D01*
X139675000Y-65075000D01*
X137625000Y-65075000D01*
X137625000Y-60525000D01*
X139925000Y-60525000D01*
X139925000Y-58925000D01*
X142175000Y-58925000D01*
X142175000Y-61475000D01*
X142175000Y-61475000D01*
G37*
X142175000Y-61475000D02*
X141775000Y-61475000D01*
X141775000Y-64275000D01*
X139675000Y-64275000D01*
X139675000Y-64340000D01*
X139675000Y-65075000D01*
X137625000Y-65075000D01*
X137625000Y-60525000D01*
X139925000Y-60525000D01*
X139925000Y-58925000D01*
X142175000Y-58925000D01*
X142175000Y-61475000D01*
G36*
X149975000Y-61175000D02*
X144225000Y-61175000D01*
X144225000Y-56825000D01*
X149975000Y-56825000D01*
X149975000Y-61175000D01*
X149975000Y-61175000D01*
G37*
X149975000Y-61175000D02*
X144225000Y-61175000D01*
X144225000Y-56825000D01*
X149975000Y-56825000D01*
X149975000Y-61175000D01*
G36*
X121175000Y-65375000D02*
X119875000Y-65375000D01*
X119875000Y-70875000D01*
X117625000Y-70875000D01*
X117625000Y-62425000D01*
X119275000Y-62425000D01*
X119275000Y-62485000D01*
X121000000Y-62485000D01*
X121175000Y-62485000D01*
X121175000Y-65375000D01*
X121175000Y-65375000D01*
G37*
X121175000Y-65375000D02*
X119875000Y-65375000D01*
X119875000Y-70875000D01*
X117625000Y-70875000D01*
X117625000Y-62425000D01*
X119275000Y-62425000D01*
X119275000Y-62485000D01*
X121000000Y-62485000D01*
X121175000Y-62485000D01*
X121175000Y-65375000D01*
G36*
X115175000Y-70875000D02*
X107725000Y-70875000D01*
X107725000Y-63825000D01*
X115175000Y-63825000D01*
X115175000Y-70875000D01*
X115175000Y-70875000D01*
G37*
X115175000Y-70875000D02*
X107725000Y-70875000D01*
X107725000Y-63825000D01*
X115175000Y-63825000D01*
X115175000Y-70875000D01*
G36*
X119075000Y-59975000D02*
X115575000Y-59975000D01*
X115575000Y-63575000D01*
X106225000Y-63575000D01*
X106225000Y-61225000D01*
X113925000Y-61225000D01*
X113925000Y-58325000D01*
X119075000Y-58325000D01*
X119075000Y-59975000D01*
X119075000Y-59975000D01*
G37*
X119075000Y-59975000D02*
X115575000Y-59975000D01*
X115575000Y-63575000D01*
X106225000Y-63575000D01*
X106225000Y-61225000D01*
X113925000Y-61225000D01*
X113925000Y-58325000D01*
X119075000Y-58325000D01*
X119075000Y-59975000D01*
D61*
G36*
X177100000Y-57600000D02*
X174600000Y-57600000D01*
X174600000Y-54200000D01*
X177100000Y-54200000D01*
X177100000Y-57600000D01*
X177100000Y-57600000D01*
G37*
X177100000Y-57600000D02*
X174600000Y-57600000D01*
X174600000Y-54200000D01*
X177100000Y-54200000D01*
X177100000Y-57600000D01*
M02*
