%FSLAX46Y46*%
G04 Gerber Fmt 4.6, Leading zero omitted, Abs format (unit mm)*
G04 Created by KiCad (PCBNEW (2014-08-12 BZR 5067)-product) date Tue 26 Aug 2014 12:58:06 PM EDT*
%MOMM*%
G01*
G04 APERTURE LIST*
%ADD10C,0.100000*%
%ADD11C,0.050000*%
%ADD12C,0.127000*%
%ADD13C,0.200000*%
%ADD14C,0.099060*%
%ADD15C,0.150000*%
%ADD16C,0.080000*%
G04 APERTURE END LIST*
D10*
D11*
X87861904Y-58040476D02*
X87861904Y-57840476D01*
X87785713Y-57840476D01*
X87766666Y-57850000D01*
X87757142Y-57859524D01*
X87747618Y-57878571D01*
X87747618Y-57907143D01*
X87757142Y-57926190D01*
X87766666Y-57935714D01*
X87785713Y-57945238D01*
X87861904Y-57945238D01*
X87661904Y-58040476D02*
X87661904Y-57907143D01*
X87661904Y-57840476D02*
X87671428Y-57850000D01*
X87661904Y-57859524D01*
X87652380Y-57850000D01*
X87661904Y-57840476D01*
X87661904Y-57859524D01*
X87566666Y-57907143D02*
X87566666Y-58040476D01*
X87566666Y-57926190D02*
X87557142Y-57916667D01*
X87538095Y-57907143D01*
X87509523Y-57907143D01*
X87490475Y-57916667D01*
X87480952Y-57935714D01*
X87480952Y-58040476D01*
X87128571Y-58040476D02*
X87242857Y-58040476D01*
X87185714Y-58040476D02*
X87185714Y-57840476D01*
X87204762Y-57869048D01*
X87223809Y-57888095D01*
X87242857Y-57897619D01*
D12*
X100615000Y-35435000D02*
X101885000Y-35435000D01*
X100615000Y-34165000D02*
X101859600Y-34165000D01*
X100615000Y-33784000D02*
X100615000Y-35816000D01*
X100615000Y-35816000D02*
X101885000Y-35816000D01*
X101885000Y-35816000D02*
X101885000Y-33784000D01*
X101885000Y-33784000D02*
X100615000Y-33784000D01*
X87685000Y-47785000D02*
X87685000Y-46515000D01*
X86415000Y-47785000D02*
X86415000Y-46540400D01*
X86034000Y-47785000D02*
X88066000Y-47785000D01*
X88066000Y-47785000D02*
X88066000Y-46515000D01*
X88066000Y-46515000D02*
X86034000Y-46515000D01*
X86034000Y-46515000D02*
X86034000Y-47785000D01*
X92791200Y-60206400D02*
X92791200Y-59393600D01*
X93908800Y-59419000D02*
X93908800Y-60206400D01*
X94162800Y-59393600D02*
X92537200Y-59393600D01*
X92537200Y-59393600D02*
X92537200Y-60206400D01*
X92537200Y-60206400D02*
X94162800Y-60206400D01*
X94162800Y-60206400D02*
X94162800Y-59393600D01*
X92791200Y-58506400D02*
X92791200Y-57693600D01*
X93908800Y-57719000D02*
X93908800Y-58506400D01*
X94162800Y-57693600D02*
X92537200Y-57693600D01*
X92537200Y-57693600D02*
X92537200Y-58506400D01*
X92537200Y-58506400D02*
X94162800Y-58506400D01*
X94162800Y-58506400D02*
X94162800Y-57693600D01*
X95583600Y-58481200D02*
X96396400Y-58481200D01*
X96371000Y-59598800D02*
X95583600Y-59598800D01*
X96396400Y-59852800D02*
X96396400Y-58227200D01*
X96396400Y-58227200D02*
X95583600Y-58227200D01*
X95583600Y-58227200D02*
X95583600Y-59852800D01*
X95583600Y-59852800D02*
X96396400Y-59852800D01*
X85443600Y-58141200D02*
X86256400Y-58141200D01*
X86231000Y-59258800D02*
X85443600Y-59258800D01*
X86256400Y-59512800D02*
X86256400Y-57887200D01*
X86256400Y-57887200D02*
X85443600Y-57887200D01*
X85443600Y-57887200D02*
X85443600Y-59512800D01*
X85443600Y-59512800D02*
X86256400Y-59512800D01*
X88908800Y-61493600D02*
X88908800Y-62306400D01*
X87791200Y-62281000D02*
X87791200Y-61493600D01*
X87537200Y-62306400D02*
X89162800Y-62306400D01*
X89162800Y-62306400D02*
X89162800Y-61493600D01*
X89162800Y-61493600D02*
X87537200Y-61493600D01*
X87537200Y-61493600D02*
X87537200Y-62306400D01*
X92791200Y-61806400D02*
X92791200Y-60993600D01*
X93908800Y-61019000D02*
X93908800Y-61806400D01*
X94162800Y-60993600D02*
X92537200Y-60993600D01*
X92537200Y-60993600D02*
X92537200Y-61806400D01*
X92537200Y-61806400D02*
X94162800Y-61806400D01*
X94162800Y-61806400D02*
X94162800Y-60993600D01*
X158206400Y-68508800D02*
X157393600Y-68508800D01*
X157419000Y-67391200D02*
X158206400Y-67391200D01*
X157393600Y-67137200D02*
X157393600Y-68762800D01*
X157393600Y-68762800D02*
X158206400Y-68762800D01*
X158206400Y-68762800D02*
X158206400Y-67137200D01*
X158206400Y-67137200D02*
X157393600Y-67137200D01*
X156691200Y-61106400D02*
X156691200Y-60293600D01*
X157808800Y-60319000D02*
X157808800Y-61106400D01*
X158062800Y-60293600D02*
X156437200Y-60293600D01*
X156437200Y-60293600D02*
X156437200Y-61106400D01*
X156437200Y-61106400D02*
X158062800Y-61106400D01*
X158062800Y-61106400D02*
X158062800Y-60293600D01*
X163943600Y-60641200D02*
X164756400Y-60641200D01*
X164731000Y-61758800D02*
X163943600Y-61758800D01*
X164756400Y-62012800D02*
X164756400Y-60387200D01*
X164756400Y-60387200D02*
X163943600Y-60387200D01*
X163943600Y-60387200D02*
X163943600Y-62012800D01*
X163943600Y-62012800D02*
X164756400Y-62012800D01*
X164926400Y-67748800D02*
X164113600Y-67748800D01*
X164139000Y-66631200D02*
X164926400Y-66631200D01*
X164113600Y-66377200D02*
X164113600Y-68002800D01*
X164113600Y-68002800D02*
X164926400Y-68002800D01*
X164926400Y-68002800D02*
X164926400Y-66377200D01*
X164926400Y-66377200D02*
X164113600Y-66377200D01*
X162608800Y-68093600D02*
X162608800Y-68906400D01*
X161491200Y-68881000D02*
X161491200Y-68093600D01*
X161237200Y-68906400D02*
X162862800Y-68906400D01*
X162862800Y-68906400D02*
X162862800Y-68093600D01*
X162862800Y-68093600D02*
X161237200Y-68093600D01*
X161237200Y-68093600D02*
X161237200Y-68906400D01*
X162608800Y-66593600D02*
X162608800Y-67406400D01*
X161491200Y-67381000D02*
X161491200Y-66593600D01*
X161237200Y-67406400D02*
X162862800Y-67406400D01*
X162862800Y-67406400D02*
X162862800Y-66593600D01*
X162862800Y-66593600D02*
X161237200Y-66593600D01*
X161237200Y-66593600D02*
X161237200Y-67406400D01*
D13*
X92750000Y-37200000D02*
X96750000Y-37200000D01*
X92750000Y-32200000D02*
X92750000Y-37200000D01*
X96750000Y-32200000D02*
X92750000Y-32200000D01*
X96750000Y-37200000D02*
X96750000Y-32200000D01*
D10*
X122591421Y-33350000D02*
G75*
G03X122591421Y-33350000I-141421J0D01*
G74*
G01*
D13*
X121200000Y-36000000D02*
X122800000Y-36000000D01*
X121200000Y-33000000D02*
X121200000Y-36000000D01*
X122800000Y-33000000D02*
X121200000Y-33000000D01*
X122800000Y-36000000D02*
X122800000Y-33000000D01*
D14*
X119628000Y-35212000D02*
G75*
G03X119628000Y-35212000I-127000J0D01*
G74*
G01*
X118358000Y-35212000D02*
X119374000Y-35212000D01*
X119374000Y-35212000D02*
X119374000Y-33688000D01*
X119374000Y-33688000D02*
X118358000Y-33688000D01*
X117342000Y-33688000D02*
X116326000Y-33688000D01*
X116326000Y-33688000D02*
X116326000Y-35212000D01*
X116326000Y-35212000D02*
X117342000Y-35212000D01*
D12*
X116907000Y-39585000D02*
X119193000Y-39585000D01*
X119193000Y-39585000D02*
X119193000Y-38315000D01*
X119193000Y-38315000D02*
X116907000Y-38315000D01*
X116907000Y-38315000D02*
X116907000Y-39585000D01*
X145815000Y-64657000D02*
X145815000Y-66943000D01*
X145815000Y-66943000D02*
X147085000Y-66943000D01*
X147085000Y-66943000D02*
X147085000Y-64657000D01*
X147085000Y-64657000D02*
X145815000Y-64657000D01*
X149235000Y-66943000D02*
X149235000Y-64657000D01*
X149235000Y-64657000D02*
X147965000Y-64657000D01*
X147965000Y-64657000D02*
X147965000Y-66943000D01*
X147965000Y-66943000D02*
X149235000Y-66943000D01*
X93907000Y-47535000D02*
X96193000Y-47535000D01*
X96193000Y-47535000D02*
X96193000Y-46265000D01*
X96193000Y-46265000D02*
X93907000Y-46265000D01*
X93907000Y-46265000D02*
X93907000Y-47535000D01*
X91335000Y-60693000D02*
X91335000Y-58407000D01*
X91335000Y-58407000D02*
X90065000Y-58407000D01*
X90065000Y-58407000D02*
X90065000Y-60693000D01*
X90065000Y-60693000D02*
X91335000Y-60693000D01*
D14*
X119628000Y-37612000D02*
G75*
G03X119628000Y-37612000I-127000J0D01*
G74*
G01*
X118358000Y-37612000D02*
X119374000Y-37612000D01*
X119374000Y-37612000D02*
X119374000Y-36088000D01*
X119374000Y-36088000D02*
X118358000Y-36088000D01*
X117342000Y-36088000D02*
X116326000Y-36088000D01*
X116326000Y-36088000D02*
X116326000Y-37612000D01*
X116326000Y-37612000D02*
X117342000Y-37612000D01*
D13*
X109100000Y-38200000D02*
X109100000Y-33200000D01*
X112500000Y-38200000D02*
X112450000Y-38200000D01*
X112500000Y-33200000D02*
X112500000Y-38200000D01*
X108700000Y-33200000D02*
X112500000Y-33200000D01*
X108700000Y-38200000D02*
X108700000Y-33200000D01*
X112500000Y-38200000D02*
X108700000Y-38200000D01*
D12*
X87337210Y-50641000D02*
G75*
G03X87337210Y-50641000I-359210J0D01*
G74*
G01*
X86470000Y-53435000D02*
X87232000Y-53435000D01*
X87232000Y-53435000D02*
X87232000Y-52165000D01*
X87232000Y-52165000D02*
X86470000Y-52165000D01*
X96757000Y-50133000D02*
X86470000Y-50133000D01*
X86470000Y-55467000D02*
X96757000Y-55467000D01*
X86470000Y-55467000D02*
X86470000Y-50133000D01*
X96757000Y-55467000D02*
X96757000Y-50133000D01*
D10*
X101353333Y-37208571D02*
X101377143Y-37232381D01*
X101448571Y-37256190D01*
X101496190Y-37256190D01*
X101567619Y-37232381D01*
X101615238Y-37184762D01*
X101639047Y-37137143D01*
X101662857Y-37041905D01*
X101662857Y-36970476D01*
X101639047Y-36875238D01*
X101615238Y-36827619D01*
X101567619Y-36780000D01*
X101496190Y-36756190D01*
X101448571Y-36756190D01*
X101377143Y-36780000D01*
X101353333Y-36803810D01*
X100877143Y-37256190D02*
X101162857Y-37256190D01*
X101020000Y-37256190D02*
X101020000Y-36756190D01*
X101067619Y-36827619D01*
X101115238Y-36875238D01*
X101162857Y-36899048D01*
X86491428Y-48748571D02*
X86515238Y-48772381D01*
X86586666Y-48796190D01*
X86634285Y-48796190D01*
X86705714Y-48772381D01*
X86753333Y-48724762D01*
X86777142Y-48677143D01*
X86800952Y-48581905D01*
X86800952Y-48510476D01*
X86777142Y-48415238D01*
X86753333Y-48367619D01*
X86705714Y-48320000D01*
X86634285Y-48296190D01*
X86586666Y-48296190D01*
X86515238Y-48320000D01*
X86491428Y-48343810D01*
X86300952Y-48343810D02*
X86277142Y-48320000D01*
X86229523Y-48296190D01*
X86110476Y-48296190D01*
X86062857Y-48320000D01*
X86039047Y-48343810D01*
X86015238Y-48391429D01*
X86015238Y-48439048D01*
X86039047Y-48510476D01*
X86324761Y-48796190D01*
X86015238Y-48796190D01*
X85562857Y-48296190D02*
X85800952Y-48296190D01*
X85824762Y-48534286D01*
X85800952Y-48510476D01*
X85753333Y-48486667D01*
X85634286Y-48486667D01*
X85586667Y-48510476D01*
X85562857Y-48534286D01*
X85539048Y-48581905D01*
X85539048Y-48700952D01*
X85562857Y-48748571D01*
X85586667Y-48772381D01*
X85634286Y-48796190D01*
X85753333Y-48796190D01*
X85800952Y-48772381D01*
X85824762Y-48748571D01*
X95268571Y-59448572D02*
X95292381Y-59424762D01*
X95316190Y-59353334D01*
X95316190Y-59305715D01*
X95292381Y-59234286D01*
X95244762Y-59186667D01*
X95197143Y-59162858D01*
X95101905Y-59139048D01*
X95030476Y-59139048D01*
X94935238Y-59162858D01*
X94887619Y-59186667D01*
X94840000Y-59234286D01*
X94816190Y-59305715D01*
X94816190Y-59353334D01*
X94840000Y-59424762D01*
X94863810Y-59448572D01*
X94863810Y-59639048D02*
X94840000Y-59662858D01*
X94816190Y-59710477D01*
X94816190Y-59829524D01*
X94840000Y-59877143D01*
X94863810Y-59900953D01*
X94911429Y-59924762D01*
X94959048Y-59924762D01*
X95030476Y-59900953D01*
X95316190Y-59615239D01*
X95316190Y-59924762D01*
X94816190Y-60353333D02*
X94816190Y-60258095D01*
X94840000Y-60210476D01*
X94863810Y-60186667D01*
X94935238Y-60139048D01*
X95030476Y-60115238D01*
X95220952Y-60115238D01*
X95268571Y-60139048D01*
X95292381Y-60162857D01*
X95316190Y-60210476D01*
X95316190Y-60305714D01*
X95292381Y-60353333D01*
X95268571Y-60377143D01*
X95220952Y-60400952D01*
X95101905Y-60400952D01*
X95054286Y-60377143D01*
X95030476Y-60353333D01*
X95006667Y-60305714D01*
X95006667Y-60210476D01*
X95030476Y-60162857D01*
X95054286Y-60139048D01*
X95101905Y-60115238D01*
X95228571Y-57838572D02*
X95252381Y-57814762D01*
X95276190Y-57743334D01*
X95276190Y-57695715D01*
X95252381Y-57624286D01*
X95204762Y-57576667D01*
X95157143Y-57552858D01*
X95061905Y-57529048D01*
X94990476Y-57529048D01*
X94895238Y-57552858D01*
X94847619Y-57576667D01*
X94800000Y-57624286D01*
X94776190Y-57695715D01*
X94776190Y-57743334D01*
X94800000Y-57814762D01*
X94823810Y-57838572D01*
X94823810Y-58029048D02*
X94800000Y-58052858D01*
X94776190Y-58100477D01*
X94776190Y-58219524D01*
X94800000Y-58267143D01*
X94823810Y-58290953D01*
X94871429Y-58314762D01*
X94919048Y-58314762D01*
X94990476Y-58290953D01*
X95276190Y-58005239D01*
X95276190Y-58314762D01*
X94776190Y-58481429D02*
X94776190Y-58814762D01*
X95276190Y-58600476D01*
X97238571Y-59168572D02*
X97262381Y-59144762D01*
X97286190Y-59073334D01*
X97286190Y-59025715D01*
X97262381Y-58954286D01*
X97214762Y-58906667D01*
X97167143Y-58882858D01*
X97071905Y-58859048D01*
X97000476Y-58859048D01*
X96905238Y-58882858D01*
X96857619Y-58906667D01*
X96810000Y-58954286D01*
X96786190Y-59025715D01*
X96786190Y-59073334D01*
X96810000Y-59144762D01*
X96833810Y-59168572D01*
X96833810Y-59359048D02*
X96810000Y-59382858D01*
X96786190Y-59430477D01*
X96786190Y-59549524D01*
X96810000Y-59597143D01*
X96833810Y-59620953D01*
X96881429Y-59644762D01*
X96929048Y-59644762D01*
X97000476Y-59620953D01*
X97286190Y-59335239D01*
X97286190Y-59644762D01*
X97000476Y-59930476D02*
X96976667Y-59882857D01*
X96952857Y-59859048D01*
X96905238Y-59835238D01*
X96881429Y-59835238D01*
X96833810Y-59859048D01*
X96810000Y-59882857D01*
X96786190Y-59930476D01*
X96786190Y-60025714D01*
X96810000Y-60073333D01*
X96833810Y-60097143D01*
X96881429Y-60120952D01*
X96905238Y-60120952D01*
X96952857Y-60097143D01*
X96976667Y-60073333D01*
X97000476Y-60025714D01*
X97000476Y-59930476D01*
X97024286Y-59882857D01*
X97048095Y-59859048D01*
X97095714Y-59835238D01*
X97190952Y-59835238D01*
X97238571Y-59859048D01*
X97262381Y-59882857D01*
X97286190Y-59930476D01*
X97286190Y-60025714D01*
X97262381Y-60073333D01*
X97238571Y-60097143D01*
X97190952Y-60120952D01*
X97095714Y-60120952D01*
X97048095Y-60097143D01*
X97024286Y-60073333D01*
X97000476Y-60025714D01*
X85068571Y-58348572D02*
X85092381Y-58324762D01*
X85116190Y-58253334D01*
X85116190Y-58205715D01*
X85092381Y-58134286D01*
X85044762Y-58086667D01*
X84997143Y-58062858D01*
X84901905Y-58039048D01*
X84830476Y-58039048D01*
X84735238Y-58062858D01*
X84687619Y-58086667D01*
X84640000Y-58134286D01*
X84616190Y-58205715D01*
X84616190Y-58253334D01*
X84640000Y-58324762D01*
X84663810Y-58348572D01*
X84663810Y-58539048D02*
X84640000Y-58562858D01*
X84616190Y-58610477D01*
X84616190Y-58729524D01*
X84640000Y-58777143D01*
X84663810Y-58800953D01*
X84711429Y-58824762D01*
X84759048Y-58824762D01*
X84830476Y-58800953D01*
X85116190Y-58515239D01*
X85116190Y-58824762D01*
X85116190Y-59062857D02*
X85116190Y-59158095D01*
X85092381Y-59205714D01*
X85068571Y-59229524D01*
X84997143Y-59277143D01*
X84901905Y-59300952D01*
X84711429Y-59300952D01*
X84663810Y-59277143D01*
X84640000Y-59253333D01*
X84616190Y-59205714D01*
X84616190Y-59110476D01*
X84640000Y-59062857D01*
X84663810Y-59039048D01*
X84711429Y-59015238D01*
X84830476Y-59015238D01*
X84878095Y-59039048D01*
X84901905Y-59062857D01*
X84925714Y-59110476D01*
X84925714Y-59205714D01*
X84901905Y-59253333D01*
X84878095Y-59277143D01*
X84830476Y-59300952D01*
X89791428Y-63018571D02*
X89815238Y-63042381D01*
X89886666Y-63066190D01*
X89934285Y-63066190D01*
X90005714Y-63042381D01*
X90053333Y-62994762D01*
X90077142Y-62947143D01*
X90100952Y-62851905D01*
X90100952Y-62780476D01*
X90077142Y-62685238D01*
X90053333Y-62637619D01*
X90005714Y-62590000D01*
X89934285Y-62566190D01*
X89886666Y-62566190D01*
X89815238Y-62590000D01*
X89791428Y-62613810D01*
X89624761Y-62566190D02*
X89315238Y-62566190D01*
X89481904Y-62756667D01*
X89410476Y-62756667D01*
X89362857Y-62780476D01*
X89339047Y-62804286D01*
X89315238Y-62851905D01*
X89315238Y-62970952D01*
X89339047Y-63018571D01*
X89362857Y-63042381D01*
X89410476Y-63066190D01*
X89553333Y-63066190D01*
X89600952Y-63042381D01*
X89624761Y-63018571D01*
X89005714Y-62566190D02*
X88958095Y-62566190D01*
X88910476Y-62590000D01*
X88886667Y-62613810D01*
X88862857Y-62661429D01*
X88839048Y-62756667D01*
X88839048Y-62875714D01*
X88862857Y-62970952D01*
X88886667Y-63018571D01*
X88910476Y-63042381D01*
X88958095Y-63066190D01*
X89005714Y-63066190D01*
X89053333Y-63042381D01*
X89077143Y-63018571D01*
X89100952Y-62970952D01*
X89124762Y-62875714D01*
X89124762Y-62756667D01*
X89100952Y-62661429D01*
X89077143Y-62613810D01*
X89053333Y-62590000D01*
X89005714Y-62566190D01*
X95248571Y-61108572D02*
X95272381Y-61084762D01*
X95296190Y-61013334D01*
X95296190Y-60965715D01*
X95272381Y-60894286D01*
X95224762Y-60846667D01*
X95177143Y-60822858D01*
X95081905Y-60799048D01*
X95010476Y-60799048D01*
X94915238Y-60822858D01*
X94867619Y-60846667D01*
X94820000Y-60894286D01*
X94796190Y-60965715D01*
X94796190Y-61013334D01*
X94820000Y-61084762D01*
X94843810Y-61108572D01*
X94796190Y-61275239D02*
X94796190Y-61584762D01*
X94986667Y-61418096D01*
X94986667Y-61489524D01*
X95010476Y-61537143D01*
X95034286Y-61560953D01*
X95081905Y-61584762D01*
X95200952Y-61584762D01*
X95248571Y-61560953D01*
X95272381Y-61537143D01*
X95296190Y-61489524D01*
X95296190Y-61346667D01*
X95272381Y-61299048D01*
X95248571Y-61275239D01*
X95296190Y-62060952D02*
X95296190Y-61775238D01*
X95296190Y-61918095D02*
X94796190Y-61918095D01*
X94867619Y-61870476D01*
X94915238Y-61822857D01*
X94939048Y-61775238D01*
X158161428Y-66538571D02*
X158185238Y-66562381D01*
X158256666Y-66586190D01*
X158304285Y-66586190D01*
X158375714Y-66562381D01*
X158423333Y-66514762D01*
X158447142Y-66467143D01*
X158470952Y-66371905D01*
X158470952Y-66300476D01*
X158447142Y-66205238D01*
X158423333Y-66157619D01*
X158375714Y-66110000D01*
X158304285Y-66086190D01*
X158256666Y-66086190D01*
X158185238Y-66110000D01*
X158161428Y-66133810D01*
X157994761Y-66086190D02*
X157685238Y-66086190D01*
X157851904Y-66276667D01*
X157780476Y-66276667D01*
X157732857Y-66300476D01*
X157709047Y-66324286D01*
X157685238Y-66371905D01*
X157685238Y-66490952D01*
X157709047Y-66538571D01*
X157732857Y-66562381D01*
X157780476Y-66586190D01*
X157923333Y-66586190D01*
X157970952Y-66562381D01*
X157994761Y-66538571D01*
X157494762Y-66133810D02*
X157470952Y-66110000D01*
X157423333Y-66086190D01*
X157304286Y-66086190D01*
X157256667Y-66110000D01*
X157232857Y-66133810D01*
X157209048Y-66181429D01*
X157209048Y-66229048D01*
X157232857Y-66300476D01*
X157518571Y-66586190D01*
X157209048Y-66586190D01*
X157611428Y-62018571D02*
X157635238Y-62042381D01*
X157706666Y-62066190D01*
X157754285Y-62066190D01*
X157825714Y-62042381D01*
X157873333Y-61994762D01*
X157897142Y-61947143D01*
X157920952Y-61851905D01*
X157920952Y-61780476D01*
X157897142Y-61685238D01*
X157873333Y-61637619D01*
X157825714Y-61590000D01*
X157754285Y-61566190D01*
X157706666Y-61566190D01*
X157635238Y-61590000D01*
X157611428Y-61613810D01*
X157444761Y-61566190D02*
X157135238Y-61566190D01*
X157301904Y-61756667D01*
X157230476Y-61756667D01*
X157182857Y-61780476D01*
X157159047Y-61804286D01*
X157135238Y-61851905D01*
X157135238Y-61970952D01*
X157159047Y-62018571D01*
X157182857Y-62042381D01*
X157230476Y-62066190D01*
X157373333Y-62066190D01*
X157420952Y-62042381D01*
X157444761Y-62018571D01*
X156968571Y-61566190D02*
X156659048Y-61566190D01*
X156825714Y-61756667D01*
X156754286Y-61756667D01*
X156706667Y-61780476D01*
X156682857Y-61804286D01*
X156659048Y-61851905D01*
X156659048Y-61970952D01*
X156682857Y-62018571D01*
X156706667Y-62042381D01*
X156754286Y-62066190D01*
X156897143Y-62066190D01*
X156944762Y-62042381D01*
X156968571Y-62018571D01*
X164761428Y-63138571D02*
X164785238Y-63162381D01*
X164856666Y-63186190D01*
X164904285Y-63186190D01*
X164975714Y-63162381D01*
X165023333Y-63114762D01*
X165047142Y-63067143D01*
X165070952Y-62971905D01*
X165070952Y-62900476D01*
X165047142Y-62805238D01*
X165023333Y-62757619D01*
X164975714Y-62710000D01*
X164904285Y-62686190D01*
X164856666Y-62686190D01*
X164785238Y-62710000D01*
X164761428Y-62733810D01*
X164594761Y-62686190D02*
X164285238Y-62686190D01*
X164451904Y-62876667D01*
X164380476Y-62876667D01*
X164332857Y-62900476D01*
X164309047Y-62924286D01*
X164285238Y-62971905D01*
X164285238Y-63090952D01*
X164309047Y-63138571D01*
X164332857Y-63162381D01*
X164380476Y-63186190D01*
X164523333Y-63186190D01*
X164570952Y-63162381D01*
X164594761Y-63138571D01*
X163856667Y-62852857D02*
X163856667Y-63186190D01*
X163975714Y-62662381D02*
X164094762Y-63019524D01*
X163785238Y-63019524D01*
X164841428Y-65738571D02*
X164865238Y-65762381D01*
X164936666Y-65786190D01*
X164984285Y-65786190D01*
X165055714Y-65762381D01*
X165103333Y-65714762D01*
X165127142Y-65667143D01*
X165150952Y-65571905D01*
X165150952Y-65500476D01*
X165127142Y-65405238D01*
X165103333Y-65357619D01*
X165055714Y-65310000D01*
X164984285Y-65286190D01*
X164936666Y-65286190D01*
X164865238Y-65310000D01*
X164841428Y-65333810D01*
X164674761Y-65286190D02*
X164365238Y-65286190D01*
X164531904Y-65476667D01*
X164460476Y-65476667D01*
X164412857Y-65500476D01*
X164389047Y-65524286D01*
X164365238Y-65571905D01*
X164365238Y-65690952D01*
X164389047Y-65738571D01*
X164412857Y-65762381D01*
X164460476Y-65786190D01*
X164603333Y-65786190D01*
X164650952Y-65762381D01*
X164674761Y-65738571D01*
X163912857Y-65286190D02*
X164150952Y-65286190D01*
X164174762Y-65524286D01*
X164150952Y-65500476D01*
X164103333Y-65476667D01*
X163984286Y-65476667D01*
X163936667Y-65500476D01*
X163912857Y-65524286D01*
X163889048Y-65571905D01*
X163889048Y-65690952D01*
X163912857Y-65738571D01*
X163936667Y-65762381D01*
X163984286Y-65786190D01*
X164103333Y-65786190D01*
X164150952Y-65762381D01*
X164174762Y-65738571D01*
X160291428Y-68118571D02*
X160315238Y-68142381D01*
X160386666Y-68166190D01*
X160434285Y-68166190D01*
X160505714Y-68142381D01*
X160553333Y-68094762D01*
X160577142Y-68047143D01*
X160600952Y-67951905D01*
X160600952Y-67880476D01*
X160577142Y-67785238D01*
X160553333Y-67737619D01*
X160505714Y-67690000D01*
X160434285Y-67666190D01*
X160386666Y-67666190D01*
X160315238Y-67690000D01*
X160291428Y-67713810D01*
X160124761Y-67666190D02*
X159815238Y-67666190D01*
X159981904Y-67856667D01*
X159910476Y-67856667D01*
X159862857Y-67880476D01*
X159839047Y-67904286D01*
X159815238Y-67951905D01*
X159815238Y-68070952D01*
X159839047Y-68118571D01*
X159862857Y-68142381D01*
X159910476Y-68166190D01*
X160053333Y-68166190D01*
X160100952Y-68142381D01*
X160124761Y-68118571D01*
X159386667Y-67666190D02*
X159481905Y-67666190D01*
X159529524Y-67690000D01*
X159553333Y-67713810D01*
X159600952Y-67785238D01*
X159624762Y-67880476D01*
X159624762Y-68070952D01*
X159600952Y-68118571D01*
X159577143Y-68142381D01*
X159529524Y-68166190D01*
X159434286Y-68166190D01*
X159386667Y-68142381D01*
X159362857Y-68118571D01*
X159339048Y-68070952D01*
X159339048Y-67951905D01*
X159362857Y-67904286D01*
X159386667Y-67880476D01*
X159434286Y-67856667D01*
X159529524Y-67856667D01*
X159577143Y-67880476D01*
X159600952Y-67904286D01*
X159624762Y-67951905D01*
X162671428Y-66288571D02*
X162695238Y-66312381D01*
X162766666Y-66336190D01*
X162814285Y-66336190D01*
X162885714Y-66312381D01*
X162933333Y-66264762D01*
X162957142Y-66217143D01*
X162980952Y-66121905D01*
X162980952Y-66050476D01*
X162957142Y-65955238D01*
X162933333Y-65907619D01*
X162885714Y-65860000D01*
X162814285Y-65836190D01*
X162766666Y-65836190D01*
X162695238Y-65860000D01*
X162671428Y-65883810D01*
X162504761Y-65836190D02*
X162195238Y-65836190D01*
X162361904Y-66026667D01*
X162290476Y-66026667D01*
X162242857Y-66050476D01*
X162219047Y-66074286D01*
X162195238Y-66121905D01*
X162195238Y-66240952D01*
X162219047Y-66288571D01*
X162242857Y-66312381D01*
X162290476Y-66336190D01*
X162433333Y-66336190D01*
X162480952Y-66312381D01*
X162504761Y-66288571D01*
X162028571Y-65836190D02*
X161695238Y-65836190D01*
X161909524Y-66336190D01*
X93699047Y-31946190D02*
X93699047Y-31446190D01*
X93580000Y-31446190D01*
X93508571Y-31470000D01*
X93460952Y-31517619D01*
X93437143Y-31565238D01*
X93413333Y-31660476D01*
X93413333Y-31731905D01*
X93437143Y-31827143D01*
X93460952Y-31874762D01*
X93508571Y-31922381D01*
X93580000Y-31946190D01*
X93699047Y-31946190D01*
X92984762Y-31446190D02*
X93080000Y-31446190D01*
X93127619Y-31470000D01*
X93151428Y-31493810D01*
X93199047Y-31565238D01*
X93222857Y-31660476D01*
X93222857Y-31850952D01*
X93199047Y-31898571D01*
X93175238Y-31922381D01*
X93127619Y-31946190D01*
X93032381Y-31946190D01*
X92984762Y-31922381D01*
X92960952Y-31898571D01*
X92937143Y-31850952D01*
X92937143Y-31731905D01*
X92960952Y-31684286D01*
X92984762Y-31660476D01*
X93032381Y-31636667D01*
X93127619Y-31636667D01*
X93175238Y-31660476D01*
X93199047Y-31684286D01*
X93222857Y-31731905D01*
D15*
X101030952Y-31121429D02*
X100269047Y-31121429D01*
X100771429Y-37019048D02*
X100771429Y-37780953D01*
X101152381Y-37400001D02*
X100390476Y-37400001D01*
D16*
X85960000Y-60572857D02*
X85936190Y-60525238D01*
X85936190Y-60453810D01*
X85960000Y-60382381D01*
X86007619Y-60334762D01*
X86055238Y-60310953D01*
X86150476Y-60287143D01*
X86221905Y-60287143D01*
X86317143Y-60310953D01*
X86364762Y-60334762D01*
X86412381Y-60382381D01*
X86436190Y-60453810D01*
X86436190Y-60501429D01*
X86412381Y-60572857D01*
X86388571Y-60596667D01*
X86221905Y-60596667D01*
X86221905Y-60501429D01*
X86436190Y-61072857D02*
X86436190Y-60787143D01*
X86436190Y-60930000D02*
X85936190Y-60930000D01*
X86007619Y-60882381D01*
X86055238Y-60834762D01*
X86079048Y-60787143D01*
D10*
X122047619Y-32773810D02*
X122095238Y-32750000D01*
X122142857Y-32702381D01*
X122214286Y-32630952D01*
X122261905Y-32607143D01*
X122309524Y-32607143D01*
X122285714Y-32726190D02*
X122333333Y-32702381D01*
X122380952Y-32654762D01*
X122404762Y-32559524D01*
X122404762Y-32392857D01*
X122380952Y-32297619D01*
X122333333Y-32250000D01*
X122285714Y-32226190D01*
X122190476Y-32226190D01*
X122142857Y-32250000D01*
X122095238Y-32297619D01*
X122071429Y-32392857D01*
X122071429Y-32559524D01*
X122095238Y-32654762D01*
X122142857Y-32702381D01*
X122190476Y-32726190D01*
X122285714Y-32726190D01*
X121595238Y-32726190D02*
X121880952Y-32726190D01*
X121738095Y-32726190D02*
X121738095Y-32226190D01*
X121785714Y-32297619D01*
X121833333Y-32345238D01*
X121880952Y-32369048D01*
X117883396Y-33476362D02*
X118050190Y-33238086D01*
X118169328Y-33476362D02*
X118169328Y-32975982D01*
X117978707Y-32975982D01*
X117931052Y-32999810D01*
X117907224Y-33023638D01*
X117883396Y-33071293D01*
X117883396Y-33142776D01*
X117907224Y-33190431D01*
X117931052Y-33214259D01*
X117978707Y-33238086D01*
X118169328Y-33238086D01*
X117454499Y-33142776D02*
X117454499Y-33476362D01*
X117573637Y-32952155D02*
X117692776Y-33309569D01*
X117383016Y-33309569D01*
X120029810Y-38923800D02*
X119787905Y-38771400D01*
X120029810Y-38662543D02*
X119521810Y-38662543D01*
X119521810Y-38836715D01*
X119546000Y-38880257D01*
X119570190Y-38902029D01*
X119618571Y-38923800D01*
X119691143Y-38923800D01*
X119739524Y-38902029D01*
X119763714Y-38880257D01*
X119787905Y-38836715D01*
X119787905Y-38662543D01*
X119521810Y-39337457D02*
X119521810Y-39119743D01*
X119763714Y-39097972D01*
X119739524Y-39119743D01*
X119715333Y-39163286D01*
X119715333Y-39272143D01*
X119739524Y-39315686D01*
X119763714Y-39337457D01*
X119812095Y-39359229D01*
X119933048Y-39359229D01*
X119981429Y-39337457D01*
X120005619Y-39315686D01*
X120029810Y-39272143D01*
X120029810Y-39163286D01*
X120005619Y-39119743D01*
X119981429Y-39097972D01*
X146793915Y-67679810D02*
X146946315Y-67437905D01*
X147055172Y-67679810D02*
X147055172Y-67171810D01*
X146881000Y-67171810D01*
X146837458Y-67196000D01*
X146815686Y-67220190D01*
X146793915Y-67268571D01*
X146793915Y-67341143D01*
X146815686Y-67389524D01*
X146837458Y-67413714D01*
X146881000Y-67437905D01*
X147055172Y-67437905D01*
X146619743Y-67220190D02*
X146597972Y-67196000D01*
X146554429Y-67171810D01*
X146445572Y-67171810D01*
X146402029Y-67196000D01*
X146380258Y-67220190D01*
X146358486Y-67268571D01*
X146358486Y-67316952D01*
X146380258Y-67389524D01*
X146641515Y-67679810D01*
X146358486Y-67679810D01*
X146206086Y-67171810D02*
X145901286Y-67171810D01*
X146097229Y-67679810D01*
X148993915Y-67629810D02*
X149146315Y-67387905D01*
X149255172Y-67629810D02*
X149255172Y-67121810D01*
X149081000Y-67121810D01*
X149037458Y-67146000D01*
X149015686Y-67170190D01*
X148993915Y-67218571D01*
X148993915Y-67291143D01*
X149015686Y-67339524D01*
X149037458Y-67363714D01*
X149081000Y-67387905D01*
X149255172Y-67387905D01*
X148819743Y-67170190D02*
X148797972Y-67146000D01*
X148754429Y-67121810D01*
X148645572Y-67121810D01*
X148602029Y-67146000D01*
X148580258Y-67170190D01*
X148558486Y-67218571D01*
X148558486Y-67266952D01*
X148580258Y-67339524D01*
X148841515Y-67629810D01*
X148558486Y-67629810D01*
X148297229Y-67339524D02*
X148340771Y-67315333D01*
X148362543Y-67291143D01*
X148384314Y-67242762D01*
X148384314Y-67218571D01*
X148362543Y-67170190D01*
X148340771Y-67146000D01*
X148297229Y-67121810D01*
X148210143Y-67121810D01*
X148166600Y-67146000D01*
X148144829Y-67170190D01*
X148123057Y-67218571D01*
X148123057Y-67242762D01*
X148144829Y-67291143D01*
X148166600Y-67315333D01*
X148210143Y-67339524D01*
X148297229Y-67339524D01*
X148340771Y-67363714D01*
X148362543Y-67387905D01*
X148384314Y-67436286D01*
X148384314Y-67533048D01*
X148362543Y-67581429D01*
X148340771Y-67605619D01*
X148297229Y-67629810D01*
X148210143Y-67629810D01*
X148166600Y-67605619D01*
X148144829Y-67581429D01*
X148123057Y-67533048D01*
X148123057Y-67436286D01*
X148144829Y-67387905D01*
X148166600Y-67363714D01*
X148210143Y-67339524D01*
X95293915Y-46029810D02*
X95446315Y-45787905D01*
X95555172Y-46029810D02*
X95555172Y-45521810D01*
X95381000Y-45521810D01*
X95337458Y-45546000D01*
X95315686Y-45570190D01*
X95293915Y-45618571D01*
X95293915Y-45691143D01*
X95315686Y-45739524D01*
X95337458Y-45763714D01*
X95381000Y-45787905D01*
X95555172Y-45787905D01*
X95141515Y-45521810D02*
X94858486Y-45521810D01*
X95010886Y-45715333D01*
X94945572Y-45715333D01*
X94902029Y-45739524D01*
X94880258Y-45763714D01*
X94858486Y-45812095D01*
X94858486Y-45933048D01*
X94880258Y-45981429D01*
X94902029Y-46005619D01*
X94945572Y-46029810D01*
X95076200Y-46029810D01*
X95119743Y-46005619D01*
X95141515Y-45981429D01*
X94423057Y-46029810D02*
X94684314Y-46029810D01*
X94553686Y-46029810D02*
X94553686Y-45521810D01*
X94597229Y-45594381D01*
X94640771Y-45642762D01*
X94684314Y-45666952D01*
X91003915Y-58169810D02*
X91156315Y-57927905D01*
X91265172Y-58169810D02*
X91265172Y-57661810D01*
X91091000Y-57661810D01*
X91047458Y-57686000D01*
X91025686Y-57710190D01*
X91003915Y-57758571D01*
X91003915Y-57831143D01*
X91025686Y-57879524D01*
X91047458Y-57903714D01*
X91091000Y-57927905D01*
X91265172Y-57927905D01*
X90851515Y-57661810D02*
X90568486Y-57661810D01*
X90720886Y-57855333D01*
X90655572Y-57855333D01*
X90612029Y-57879524D01*
X90590258Y-57903714D01*
X90568486Y-57952095D01*
X90568486Y-58073048D01*
X90590258Y-58121429D01*
X90612029Y-58145619D01*
X90655572Y-58169810D01*
X90786200Y-58169810D01*
X90829743Y-58145619D01*
X90851515Y-58121429D01*
X90394314Y-57710190D02*
X90372543Y-57686000D01*
X90329000Y-57661810D01*
X90220143Y-57661810D01*
X90176600Y-57686000D01*
X90154829Y-57710190D01*
X90133057Y-57758571D01*
X90133057Y-57806952D01*
X90154829Y-57879524D01*
X90416086Y-58169810D01*
X90133057Y-58169810D01*
X118429948Y-35946362D02*
X118596742Y-35708086D01*
X118715880Y-35946362D02*
X118715880Y-35445982D01*
X118525259Y-35445982D01*
X118477604Y-35469810D01*
X118453776Y-35493638D01*
X118429948Y-35541293D01*
X118429948Y-35612776D01*
X118453776Y-35660431D01*
X118477604Y-35684259D01*
X118525259Y-35708086D01*
X118715880Y-35708086D01*
X118001051Y-35612776D02*
X118001051Y-35946362D01*
X118120189Y-35422155D02*
X118239328Y-35779569D01*
X117929568Y-35779569D01*
X117643637Y-35445982D02*
X117595982Y-35445982D01*
X117548327Y-35469810D01*
X117524499Y-35493638D01*
X117500672Y-35541293D01*
X117476844Y-35636603D01*
X117476844Y-35755741D01*
X117500672Y-35851052D01*
X117524499Y-35898707D01*
X117548327Y-35922535D01*
X117595982Y-35946362D01*
X117643637Y-35946362D01*
X117691293Y-35922535D01*
X117715120Y-35898707D01*
X117738948Y-35851052D01*
X117762776Y-35755741D01*
X117762776Y-35636603D01*
X117738948Y-35541293D01*
X117715120Y-35493638D01*
X117691293Y-35469810D01*
X117643637Y-35445982D01*
X117167085Y-35445982D02*
X117119430Y-35445982D01*
X117071775Y-35469810D01*
X117047947Y-35493638D01*
X117024120Y-35541293D01*
X117000292Y-35636603D01*
X117000292Y-35755741D01*
X117024120Y-35851052D01*
X117047947Y-35898707D01*
X117071775Y-35922535D01*
X117119430Y-35946362D01*
X117167085Y-35946362D01*
X117214741Y-35922535D01*
X117238568Y-35898707D01*
X117262396Y-35851052D01*
X117286224Y-35755741D01*
X117286224Y-35636603D01*
X117262396Y-35541293D01*
X117238568Y-35493638D01*
X117214741Y-35469810D01*
X117167085Y-35445982D01*
X113461905Y-31702381D02*
X113461905Y-32511905D01*
X113414286Y-32607143D01*
X113366667Y-32654762D01*
X113271429Y-32702381D01*
X113080952Y-32702381D01*
X112985714Y-32654762D01*
X112938095Y-32607143D01*
X112890476Y-32511905D01*
X112890476Y-31702381D01*
X111890476Y-32702381D02*
X112461905Y-32702381D01*
X112176191Y-32702381D02*
X112176191Y-31702381D01*
X112271429Y-31845238D01*
X112366667Y-31940476D01*
X112461905Y-31988095D01*
D12*
X85232714Y-50269429D02*
X85849571Y-50269429D01*
X85922143Y-50305714D01*
X85958429Y-50342000D01*
X85994714Y-50414571D01*
X85994714Y-50559714D01*
X85958429Y-50632286D01*
X85922143Y-50668571D01*
X85849571Y-50704857D01*
X85232714Y-50704857D01*
X85305286Y-51031429D02*
X85269000Y-51067715D01*
X85232714Y-51140286D01*
X85232714Y-51321715D01*
X85269000Y-51394286D01*
X85305286Y-51430572D01*
X85377857Y-51466857D01*
X85450429Y-51466857D01*
X85559286Y-51430572D01*
X85994714Y-50995143D01*
X85994714Y-51466857D01*
M02*
