M48
INCH,TZ
T1C0.012
T2C0.016
T3C0.020
T4C0.025
T5C0.028
T6C0.039
T7C0.051
T8C0.062
T9C0.122
%
G90
G05
T1
X35165Y-20031
X35665Y-19854
X35933Y-18555
X36177Y-20209
X36445Y-20402
X57732Y-23772
X57740Y-23102
X57740Y-23291
X57740Y-23524
X57972Y-23291
X57972Y-23520
X57972Y-23768
X58213Y-23291
X58480Y-23103
X58480Y-23290
X60425Y-26083
X61441Y-25731
X61453Y-25492
X61461Y-25094
X61610Y-25302
X61957Y-28138
X62106Y-25894
X62220Y-28150
X62398Y-24287
X62445Y-28366
X62577Y-25474
X62665Y-26039
X62791Y-25740
X63071Y-26173
X63159Y-24404
X63543Y-25878
X63669Y-24426
X63748Y-25701
X63937Y-25280
X64236Y-23894
X64350Y-23614
X64354Y-22075
X64980Y-23307
X65264Y-27531
X65965Y-27000
X66024Y-25106
X66156Y-24910
X66185Y-28547
X66245Y-24692
X67116Y-25461
X67116Y-26112
X67116Y-24937
X67331Y-26339
X69323Y-21539
X69335Y-21862
X69335Y-22181
X69657Y-21539
X69657Y-21862
X69669Y-22181
T2
X34646Y-21654
X34724Y-24823
X34941Y-21654
X35098Y-18563
X35925Y-21594
X36181Y-21594
X36456Y-25576
X36457Y-21594
X36732Y-21594
X37205Y-18917
X38161Y-22185
X38161Y-22945
X41673Y-14882
X41713Y-18465
X42007Y-12953
X42008Y-15138
X42028Y-13898
X42500Y-15217
X42795Y-24327
X43272Y-24327
X43307Y-13839
X43307Y-14114
X43524Y-13839
X43524Y-14114
X43740Y-13839
X43740Y-14114
X43740Y-24331
X44117Y-13953
X44142Y-24331
X44390Y-21969
X45039Y-13287
X45039Y-13839
X45157Y-14488
X45472Y-14528
X47323Y-14469
X47421Y-17894
X48189Y-14902
X48209Y-16516
X48209Y-17657
X48756Y-24382
X48917Y-13189
X48917Y-13425
X48917Y-13661
X50157Y-18169
X50709Y-16280
X50709Y-16555
X51043Y-16280
X51043Y-16555
X51181Y-17579
X51181Y-17835
X51339Y-16280
X51339Y-16555
X51457Y-17579
X51457Y-17835
X52637Y-22303
X52638Y-21921
X52638Y-22634
X53024Y-21925
X53024Y-22626
X53024Y-22303
X53378Y-22626
X53382Y-21925
X53382Y-22303
X55079Y-20134
X55079Y-20571
X55776Y-21240
X55776Y-21587
X55776Y-21965
X55776Y-22303
X56209Y-21969
X56213Y-22299
X56217Y-21236
X56217Y-21575
X56280Y-24760
X56280Y-25051
X56303Y-26748
X56307Y-26441
X56339Y-18591
X56594Y-24744
X56594Y-25047
X56614Y-26441
X56614Y-26744
X56898Y-24740
X56898Y-25055
X56925Y-26437
X56925Y-26744
X57504Y-28232
X58100Y-26206
X58394Y-24957
X58394Y-25252
X58689Y-12579
X58748Y-24949
X58748Y-25248
X59173Y-15787
X59173Y-16142
X59374Y-17402
X59508Y-15787
X59508Y-16142
X59768Y-26925
X59862Y-15787
X59862Y-16142
X60236Y-15787
X60236Y-16142
X60441Y-30945
X61531Y-23256
X61587Y-27043
X61614Y-26449
X61925Y-12965
X61925Y-13260
X61925Y-13571
X62272Y-12961
X62280Y-13575
X62283Y-13256
X62622Y-23890
X63146Y-26976
X64539Y-27126
X65055Y-24433
X65067Y-27126
X65465Y-23654
X65996Y-26677
T3
X51476Y-20138
X54429Y-20138
X61850Y-29823
X61850Y-30610
X62244Y-29429
X62244Y-30217
X62638Y-29823
X62638Y-30610
X63031Y-29429
X63031Y-30217
X63425Y-29823
X63425Y-30610
X63819Y-29429
X63819Y-30217
X64213Y-29823
X64213Y-30610
X64606Y-29429
X64606Y-30217
X67795Y-24016
X67795Y-24803
X67795Y-25591
X67795Y-26378
X68189Y-24409
X68189Y-25197
X68189Y-25984
X68189Y-26772
X68583Y-24016
X68583Y-24803
X68583Y-25591
X68583Y-26378
X68976Y-24409
X68976Y-25197
X68976Y-25984
X68976Y-26772
T4
X38976Y-15020
X38996Y-12520
X41240Y-20039
X43524Y-26843
X57441Y-15846
X58071Y-22717
X61043Y-13150
T5
X61614Y-21752
X62402Y-21752
X63189Y-21752
X63976Y-21752
X64764Y-21752
T6
X39110Y-17512
X39110Y-18311
X39110Y-20709
X39110Y-21508
X40110Y-17913
X40110Y-18713
X40110Y-20311
X40110Y-21110
X40110Y-21909
T7
X67854Y-17933
X67854Y-19311
T8
X31862Y-16331
X31862Y-22681
T9
X32224Y-30177
X32244Y-13681
X68386Y-30157
X68406Y-13681
T0
M30
