%FSLAX46Y46*%
G04 Gerber Fmt 4.6, Leading zero omitted, Abs format (unit mm)*
G04 Created by KiCad (PCBNEW (2014-08-26 BZR 5101)-product) date Sat 30 Aug 2014 02:05:03 AM EDT*
%MOMM*%
G01*
G04 APERTURE LIST*
%ADD10C,0.100000*%
%ADD11C,0.187500*%
%ADD12C,0.150000*%
%ADD13C,0.200000*%
%ADD14C,0.250000*%
%ADD15C,0.300000*%
%ADD16C,0.127000*%
%ADD17C,0.078740*%
%ADD18C,0.066040*%
%ADD19C,0.101600*%
%ADD20C,0.099060*%
%ADD21C,0.119380*%
%ADD22C,0.381000*%
G04 APERTURE END LIST*
D10*
D11*
X129692857Y-43569286D02*
X129692857Y-42819286D01*
X129978572Y-42819286D01*
X130050000Y-42855000D01*
X130085715Y-42890714D01*
X130121429Y-42962143D01*
X130121429Y-43069286D01*
X130085715Y-43140714D01*
X130050000Y-43176429D01*
X129978572Y-43212143D01*
X129692857Y-43212143D01*
X130442857Y-43569286D02*
X130442857Y-43069286D01*
X130442857Y-42819286D02*
X130407143Y-42855000D01*
X130442857Y-42890714D01*
X130478572Y-42855000D01*
X130442857Y-42819286D01*
X130442857Y-42890714D01*
X130800000Y-43069286D02*
X130800000Y-43569286D01*
X130800000Y-43140714D02*
X130835715Y-43105000D01*
X130907143Y-43069286D01*
X131014286Y-43069286D01*
X131085715Y-43105000D01*
X131121429Y-43176429D01*
X131121429Y-43569286D01*
X132442858Y-43569286D02*
X132014286Y-43569286D01*
X132228572Y-43569286D02*
X132228572Y-42819286D01*
X132157143Y-42926429D01*
X132085715Y-42997857D01*
X132014286Y-43033571D01*
D12*
X170445000Y-69769286D02*
X170445000Y-69019286D01*
X170695000Y-69555000D01*
X170945000Y-69019286D01*
X170945000Y-69769286D01*
X171730715Y-69697857D02*
X171695001Y-69733571D01*
X171587858Y-69769286D01*
X171516429Y-69769286D01*
X171409286Y-69733571D01*
X171337858Y-69662143D01*
X171302143Y-69590714D01*
X171266429Y-69447857D01*
X171266429Y-69340714D01*
X171302143Y-69197857D01*
X171337858Y-69126429D01*
X171409286Y-69055000D01*
X171516429Y-69019286D01*
X171587858Y-69019286D01*
X171695001Y-69055000D01*
X171730715Y-69090714D01*
X172052143Y-69019286D02*
X172052143Y-69626429D01*
X172087858Y-69697857D01*
X172123572Y-69733571D01*
X172195001Y-69769286D01*
X172337858Y-69769286D01*
X172409286Y-69733571D01*
X172445001Y-69697857D01*
X172480715Y-69626429D01*
X172480715Y-69019286D01*
X173409286Y-69769286D02*
X173409286Y-69019286D01*
X173695001Y-69019286D01*
X173766429Y-69055000D01*
X173802144Y-69090714D01*
X173837858Y-69162143D01*
X173837858Y-69269286D01*
X173802144Y-69340714D01*
X173766429Y-69376429D01*
X173695001Y-69412143D01*
X173409286Y-69412143D01*
X174266429Y-69769286D02*
X174195001Y-69733571D01*
X174159286Y-69697857D01*
X174123572Y-69626429D01*
X174123572Y-69412143D01*
X174159286Y-69340714D01*
X174195001Y-69305000D01*
X174266429Y-69269286D01*
X174373572Y-69269286D01*
X174445001Y-69305000D01*
X174480715Y-69340714D01*
X174516429Y-69412143D01*
X174516429Y-69626429D01*
X174480715Y-69697857D01*
X174445001Y-69733571D01*
X174373572Y-69769286D01*
X174266429Y-69769286D01*
X174837857Y-69769286D02*
X174837857Y-69269286D01*
X174837857Y-69412143D02*
X174873572Y-69340714D01*
X174909286Y-69305000D01*
X174980715Y-69269286D01*
X175052143Y-69269286D01*
X175195001Y-69269286D02*
X175480715Y-69269286D01*
X175302143Y-69019286D02*
X175302143Y-69662143D01*
X175337858Y-69733571D01*
X175409286Y-69769286D01*
X175480715Y-69769286D01*
X176730715Y-69697857D02*
X176695001Y-69733571D01*
X176587858Y-69769286D01*
X176516429Y-69769286D01*
X176409286Y-69733571D01*
X176337858Y-69662143D01*
X176302143Y-69590714D01*
X176266429Y-69447857D01*
X176266429Y-69340714D01*
X176302143Y-69197857D01*
X176337858Y-69126429D01*
X176409286Y-69055000D01*
X176516429Y-69019286D01*
X176587858Y-69019286D01*
X176695001Y-69055000D01*
X176730715Y-69090714D01*
X166839286Y-79185000D02*
X166089286Y-79185000D01*
X166625000Y-78935000D01*
X166089286Y-78685000D01*
X166839286Y-78685000D01*
X166767857Y-77899285D02*
X166803571Y-77934999D01*
X166839286Y-78042142D01*
X166839286Y-78113571D01*
X166803571Y-78220714D01*
X166732143Y-78292142D01*
X166660714Y-78327857D01*
X166517857Y-78363571D01*
X166410714Y-78363571D01*
X166267857Y-78327857D01*
X166196429Y-78292142D01*
X166125000Y-78220714D01*
X166089286Y-78113571D01*
X166089286Y-78042142D01*
X166125000Y-77934999D01*
X166160714Y-77899285D01*
X166089286Y-77577857D02*
X166696429Y-77577857D01*
X166767857Y-77542142D01*
X166803571Y-77506428D01*
X166839286Y-77434999D01*
X166839286Y-77292142D01*
X166803571Y-77220714D01*
X166767857Y-77184999D01*
X166696429Y-77149285D01*
X166089286Y-77149285D01*
X166839286Y-76220714D02*
X166089286Y-76220714D01*
X166089286Y-75934999D01*
X166125000Y-75863571D01*
X166160714Y-75827856D01*
X166232143Y-75792142D01*
X166339286Y-75792142D01*
X166410714Y-75827856D01*
X166446429Y-75863571D01*
X166482143Y-75934999D01*
X166482143Y-76220714D01*
X166839286Y-75363571D02*
X166803571Y-75434999D01*
X166767857Y-75470714D01*
X166696429Y-75506428D01*
X166482143Y-75506428D01*
X166410714Y-75470714D01*
X166375000Y-75434999D01*
X166339286Y-75363571D01*
X166339286Y-75256428D01*
X166375000Y-75184999D01*
X166410714Y-75149285D01*
X166482143Y-75113571D01*
X166696429Y-75113571D01*
X166767857Y-75149285D01*
X166803571Y-75184999D01*
X166839286Y-75256428D01*
X166839286Y-75363571D01*
X166839286Y-74792143D02*
X166339286Y-74792143D01*
X166482143Y-74792143D02*
X166410714Y-74756428D01*
X166375000Y-74720714D01*
X166339286Y-74649285D01*
X166339286Y-74577857D01*
X166339286Y-74434999D02*
X166339286Y-74149285D01*
X166089286Y-74327857D02*
X166732143Y-74327857D01*
X166803571Y-74292142D01*
X166839286Y-74220714D01*
X166839286Y-74149285D01*
X166446429Y-73077857D02*
X166482143Y-72970714D01*
X166517857Y-72934999D01*
X166589286Y-72899285D01*
X166696429Y-72899285D01*
X166767857Y-72934999D01*
X166803571Y-72970714D01*
X166839286Y-73042142D01*
X166839286Y-73327857D01*
X166089286Y-73327857D01*
X166089286Y-73077857D01*
X166125000Y-73006428D01*
X166160714Y-72970714D01*
X166232143Y-72934999D01*
X166303571Y-72934999D01*
X166375000Y-72970714D01*
X166410714Y-73006428D01*
X166446429Y-73077857D01*
X166446429Y-73327857D01*
X140719286Y-77338571D02*
X140362143Y-77588571D01*
X140719286Y-77767143D02*
X139969286Y-77767143D01*
X139969286Y-77481428D01*
X140005000Y-77410000D01*
X140040714Y-77374285D01*
X140112143Y-77338571D01*
X140219286Y-77338571D01*
X140290714Y-77374285D01*
X140326429Y-77410000D01*
X140362143Y-77481428D01*
X140362143Y-77767143D01*
X140683571Y-76731428D02*
X140719286Y-76802857D01*
X140719286Y-76945714D01*
X140683571Y-77017143D01*
X140612143Y-77052857D01*
X140326429Y-77052857D01*
X140255000Y-77017143D01*
X140219286Y-76945714D01*
X140219286Y-76802857D01*
X140255000Y-76731428D01*
X140326429Y-76695714D01*
X140397857Y-76695714D01*
X140469286Y-77052857D01*
X140683571Y-76410000D02*
X140719286Y-76338571D01*
X140719286Y-76195714D01*
X140683571Y-76124286D01*
X140612143Y-76088571D01*
X140576429Y-76088571D01*
X140505000Y-76124286D01*
X140469286Y-76195714D01*
X140469286Y-76302857D01*
X140433571Y-76374286D01*
X140362143Y-76410000D01*
X140326429Y-76410000D01*
X140255000Y-76374286D01*
X140219286Y-76302857D01*
X140219286Y-76195714D01*
X140255000Y-76124286D01*
X140683571Y-75481428D02*
X140719286Y-75552857D01*
X140719286Y-75695714D01*
X140683571Y-75767143D01*
X140612143Y-75802857D01*
X140326429Y-75802857D01*
X140255000Y-75767143D01*
X140219286Y-75695714D01*
X140219286Y-75552857D01*
X140255000Y-75481428D01*
X140326429Y-75445714D01*
X140397857Y-75445714D01*
X140469286Y-75802857D01*
X140219286Y-75231428D02*
X140219286Y-74945714D01*
X139969286Y-75124286D02*
X140612143Y-75124286D01*
X140683571Y-75088571D01*
X140719286Y-75017143D01*
X140719286Y-74945714D01*
D13*
X154999524Y-34752381D02*
X154523333Y-34752381D01*
X154475714Y-35228571D01*
X154523333Y-35180952D01*
X154618571Y-35133333D01*
X154856667Y-35133333D01*
X154951905Y-35180952D01*
X154999524Y-35228571D01*
X155047143Y-35323810D01*
X155047143Y-35561905D01*
X154999524Y-35657143D01*
X154951905Y-35704762D01*
X154856667Y-35752381D01*
X154618571Y-35752381D01*
X154523333Y-35704762D01*
X154475714Y-35657143D01*
X155332857Y-34752381D02*
X155666190Y-35752381D01*
X155999524Y-34752381D01*
D14*
X87697619Y-68967143D02*
X87650000Y-69014762D01*
X87507143Y-69062381D01*
X87411905Y-69062381D01*
X87269047Y-69014762D01*
X87173809Y-68919524D01*
X87126190Y-68824286D01*
X87078571Y-68633810D01*
X87078571Y-68490952D01*
X87126190Y-68300476D01*
X87173809Y-68205238D01*
X87269047Y-68110000D01*
X87411905Y-68062381D01*
X87507143Y-68062381D01*
X87650000Y-68110000D01*
X87697619Y-68157619D01*
X88126190Y-68538571D02*
X88459524Y-68538571D01*
X88602381Y-69062381D02*
X88126190Y-69062381D01*
X88126190Y-68062381D01*
X88602381Y-68062381D01*
X89602381Y-69062381D02*
X89269047Y-68586190D01*
X89030952Y-69062381D02*
X89030952Y-68062381D01*
X89411905Y-68062381D01*
X89507143Y-68110000D01*
X89554762Y-68157619D01*
X89602381Y-68252857D01*
X89602381Y-68395714D01*
X89554762Y-68490952D01*
X89507143Y-68538571D01*
X89411905Y-68586190D01*
X89030952Y-68586190D01*
X90030952Y-69062381D02*
X90030952Y-68062381D01*
X90602381Y-69062381D01*
X90602381Y-68062381D01*
X92030952Y-68062381D02*
X92221429Y-68062381D01*
X92316667Y-68110000D01*
X92411905Y-68205238D01*
X92459524Y-68395714D01*
X92459524Y-68729048D01*
X92411905Y-68919524D01*
X92316667Y-69014762D01*
X92221429Y-69062381D01*
X92030952Y-69062381D01*
X91935714Y-69014762D01*
X91840476Y-68919524D01*
X91792857Y-68729048D01*
X91792857Y-68395714D01*
X91840476Y-68205238D01*
X91935714Y-68110000D01*
X92030952Y-68062381D01*
X92888095Y-69062381D02*
X92888095Y-68062381D01*
X92888095Y-68538571D02*
X93459524Y-68538571D01*
X93459524Y-69062381D02*
X93459524Y-68062381D01*
X94411905Y-69062381D02*
X93935714Y-69062381D01*
X93935714Y-68062381D01*
X95411905Y-68395714D02*
X95650000Y-69062381D01*
X95888096Y-68395714D01*
X96792858Y-69062381D02*
X96221429Y-69062381D01*
X96507143Y-69062381D02*
X96507143Y-68062381D01*
X96411905Y-68205238D01*
X96316667Y-68300476D01*
X96221429Y-68348095D01*
X97221429Y-68967143D02*
X97269048Y-69014762D01*
X97221429Y-69062381D01*
X97173810Y-69014762D01*
X97221429Y-68967143D01*
X97221429Y-69062381D01*
X97650000Y-68157619D02*
X97697619Y-68110000D01*
X97792857Y-68062381D01*
X98030953Y-68062381D01*
X98126191Y-68110000D01*
X98173810Y-68157619D01*
X98221429Y-68252857D01*
X98221429Y-68348095D01*
X98173810Y-68490952D01*
X97602381Y-69062381D01*
X98221429Y-69062381D01*
D11*
X110613571Y-78906429D02*
X110720714Y-78942143D01*
X110756429Y-78977857D01*
X110792143Y-79049286D01*
X110792143Y-79156429D01*
X110756429Y-79227857D01*
X110720714Y-79263571D01*
X110649286Y-79299286D01*
X110363571Y-79299286D01*
X110363571Y-78549286D01*
X110613571Y-78549286D01*
X110685000Y-78585000D01*
X110720714Y-78620714D01*
X110756429Y-78692143D01*
X110756429Y-78763571D01*
X110720714Y-78835000D01*
X110685000Y-78870714D01*
X110613571Y-78906429D01*
X110363571Y-78906429D01*
X111220714Y-79299286D02*
X111149286Y-79263571D01*
X111113571Y-79227857D01*
X111077857Y-79156429D01*
X111077857Y-78942143D01*
X111113571Y-78870714D01*
X111149286Y-78835000D01*
X111220714Y-78799286D01*
X111327857Y-78799286D01*
X111399286Y-78835000D01*
X111435000Y-78870714D01*
X111470714Y-78942143D01*
X111470714Y-79156429D01*
X111435000Y-79227857D01*
X111399286Y-79263571D01*
X111327857Y-79299286D01*
X111220714Y-79299286D01*
X112113571Y-79299286D02*
X112113571Y-78906429D01*
X112077857Y-78835000D01*
X112006428Y-78799286D01*
X111863571Y-78799286D01*
X111792142Y-78835000D01*
X112113571Y-79263571D02*
X112042142Y-79299286D01*
X111863571Y-79299286D01*
X111792142Y-79263571D01*
X111756428Y-79192143D01*
X111756428Y-79120714D01*
X111792142Y-79049286D01*
X111863571Y-79013571D01*
X112042142Y-79013571D01*
X112113571Y-78977857D01*
X112470713Y-79299286D02*
X112470713Y-78799286D01*
X112470713Y-78942143D02*
X112506428Y-78870714D01*
X112542142Y-78835000D01*
X112613571Y-78799286D01*
X112684999Y-78799286D01*
X113256428Y-79299286D02*
X113256428Y-78549286D01*
X113256428Y-79263571D02*
X113184999Y-79299286D01*
X113042142Y-79299286D01*
X112970714Y-79263571D01*
X112934999Y-79227857D01*
X112899285Y-79156429D01*
X112899285Y-78942143D01*
X112934999Y-78870714D01*
X112970714Y-78835000D01*
X113042142Y-78799286D01*
X113184999Y-78799286D01*
X113256428Y-78835000D01*
X114542142Y-79299286D02*
X114184999Y-79299286D01*
X114184999Y-78549286D01*
X115113571Y-79299286D02*
X115113571Y-78906429D01*
X115077857Y-78835000D01*
X115006428Y-78799286D01*
X114863571Y-78799286D01*
X114792142Y-78835000D01*
X115113571Y-79263571D02*
X115042142Y-79299286D01*
X114863571Y-79299286D01*
X114792142Y-79263571D01*
X114756428Y-79192143D01*
X114756428Y-79120714D01*
X114792142Y-79049286D01*
X114863571Y-79013571D01*
X115042142Y-79013571D01*
X115113571Y-78977857D01*
X115399285Y-78799286D02*
X115577856Y-79299286D01*
X115756428Y-78799286D02*
X115577856Y-79299286D01*
X115506428Y-79477857D01*
X115470713Y-79513571D01*
X115399285Y-79549286D01*
X116327857Y-79263571D02*
X116256428Y-79299286D01*
X116113571Y-79299286D01*
X116042142Y-79263571D01*
X116006428Y-79192143D01*
X116006428Y-78906429D01*
X116042142Y-78835000D01*
X116113571Y-78799286D01*
X116256428Y-78799286D01*
X116327857Y-78835000D01*
X116363571Y-78906429D01*
X116363571Y-78977857D01*
X116006428Y-79049286D01*
X116684999Y-79299286D02*
X116684999Y-78799286D01*
X116684999Y-78942143D02*
X116720714Y-78870714D01*
X116756428Y-78835000D01*
X116827857Y-78799286D01*
X116899285Y-78799286D01*
X117113571Y-79263571D02*
X117185000Y-79299286D01*
X117327857Y-79299286D01*
X117399285Y-79263571D01*
X117435000Y-79192143D01*
X117435000Y-79156429D01*
X117399285Y-79085000D01*
X117327857Y-79049286D01*
X117220714Y-79049286D01*
X117149285Y-79013571D01*
X117113571Y-78942143D01*
X117113571Y-78906429D01*
X117149285Y-78835000D01*
X117220714Y-78799286D01*
X117327857Y-78799286D01*
X117399285Y-78835000D01*
X117756428Y-79227857D02*
X117792143Y-79263571D01*
X117756428Y-79299286D01*
X117720714Y-79263571D01*
X117756428Y-79227857D01*
X117756428Y-79299286D01*
X117756428Y-78835000D02*
X117792143Y-78870714D01*
X117756428Y-78906429D01*
X117720714Y-78870714D01*
X117756428Y-78835000D01*
X117756428Y-78906429D01*
D15*
X87645714Y-71668571D02*
X87645714Y-72740000D01*
X87574286Y-72954286D01*
X87431429Y-73097143D01*
X87217143Y-73168571D01*
X87074286Y-73168571D01*
X88574286Y-73168571D02*
X88431428Y-73097143D01*
X88360000Y-73025714D01*
X88288571Y-72882857D01*
X88288571Y-72454286D01*
X88360000Y-72311429D01*
X88431428Y-72240000D01*
X88574286Y-72168571D01*
X88788571Y-72168571D01*
X88931428Y-72240000D01*
X89002857Y-72311429D01*
X89074286Y-72454286D01*
X89074286Y-72882857D01*
X89002857Y-73025714D01*
X88931428Y-73097143D01*
X88788571Y-73168571D01*
X88574286Y-73168571D01*
X89717143Y-72168571D02*
X89717143Y-73168571D01*
X89717143Y-72311429D02*
X89788571Y-72240000D01*
X89931429Y-72168571D01*
X90145714Y-72168571D01*
X90288571Y-72240000D01*
X90360000Y-72382857D01*
X90360000Y-73168571D01*
X92217143Y-73168571D02*
X92217143Y-71668571D01*
X93074286Y-73168571D01*
X93074286Y-71668571D01*
X94360000Y-73097143D02*
X94217143Y-73168571D01*
X93931429Y-73168571D01*
X93788572Y-73097143D01*
X93717143Y-72954286D01*
X93717143Y-72382857D01*
X93788572Y-72240000D01*
X93931429Y-72168571D01*
X94217143Y-72168571D01*
X94360000Y-72240000D01*
X94431429Y-72382857D01*
X94431429Y-72525714D01*
X93717143Y-72668571D01*
X95717143Y-73168571D02*
X95717143Y-72382857D01*
X95645714Y-72240000D01*
X95502857Y-72168571D01*
X95217143Y-72168571D01*
X95074286Y-72240000D01*
X95717143Y-73097143D02*
X95574286Y-73168571D01*
X95217143Y-73168571D01*
X95074286Y-73097143D01*
X95002857Y-72954286D01*
X95002857Y-72811429D01*
X95074286Y-72668571D01*
X95217143Y-72597143D01*
X95574286Y-72597143D01*
X95717143Y-72525714D01*
X96645715Y-73168571D02*
X96502857Y-73097143D01*
X96431429Y-72954286D01*
X96431429Y-71668571D01*
X87217143Y-75568571D02*
X87217143Y-74068571D01*
X87860000Y-75568571D02*
X87860000Y-74782857D01*
X87788571Y-74640000D01*
X87645714Y-74568571D01*
X87431429Y-74568571D01*
X87288571Y-74640000D01*
X87217143Y-74711429D01*
X88360000Y-74568571D02*
X88931429Y-74568571D01*
X88574286Y-74068571D02*
X88574286Y-75354286D01*
X88645714Y-75497143D01*
X88788572Y-75568571D01*
X88931429Y-75568571D01*
X89217143Y-74568571D02*
X89788572Y-74568571D01*
X89431429Y-74068571D02*
X89431429Y-75354286D01*
X89502857Y-75497143D01*
X89645715Y-75568571D01*
X89788572Y-75568571D01*
X90288572Y-74568571D02*
X90288572Y-76068571D01*
X90288572Y-74640000D02*
X90431429Y-74568571D01*
X90717143Y-74568571D01*
X90860000Y-74640000D01*
X90931429Y-74711429D01*
X91002858Y-74854286D01*
X91002858Y-75282857D01*
X90931429Y-75425714D01*
X90860000Y-75497143D01*
X90717143Y-75568571D01*
X90431429Y-75568571D01*
X90288572Y-75497143D01*
X91574286Y-75497143D02*
X91717143Y-75568571D01*
X92002858Y-75568571D01*
X92145715Y-75497143D01*
X92217143Y-75354286D01*
X92217143Y-75282857D01*
X92145715Y-75140000D01*
X92002858Y-75068571D01*
X91788572Y-75068571D01*
X91645715Y-74997143D01*
X91574286Y-74854286D01*
X91574286Y-74782857D01*
X91645715Y-74640000D01*
X91788572Y-74568571D01*
X92002858Y-74568571D01*
X92145715Y-74640000D01*
X92860001Y-75425714D02*
X92931429Y-75497143D01*
X92860001Y-75568571D01*
X92788572Y-75497143D01*
X92860001Y-75425714D01*
X92860001Y-75568571D01*
X92860001Y-74640000D02*
X92931429Y-74711429D01*
X92860001Y-74782857D01*
X92788572Y-74711429D01*
X92860001Y-74640000D01*
X92860001Y-74782857D01*
X94645715Y-73997143D02*
X93360001Y-75925714D01*
X96217144Y-73997143D02*
X94931430Y-75925714D01*
X97360002Y-74568571D02*
X97360002Y-75782857D01*
X97288573Y-75925714D01*
X97217145Y-75997143D01*
X97074288Y-76068571D01*
X96860002Y-76068571D01*
X96717145Y-75997143D01*
X97360002Y-75497143D02*
X97217145Y-75568571D01*
X96931431Y-75568571D01*
X96788573Y-75497143D01*
X96717145Y-75425714D01*
X96645716Y-75282857D01*
X96645716Y-74854286D01*
X96717145Y-74711429D01*
X96788573Y-74640000D01*
X96931431Y-74568571D01*
X97217145Y-74568571D01*
X97360002Y-74640000D01*
X98074288Y-75568571D02*
X98074288Y-74568571D01*
X98074288Y-74068571D02*
X98002859Y-74140000D01*
X98074288Y-74211429D01*
X98145716Y-74140000D01*
X98074288Y-74068571D01*
X98074288Y-74211429D01*
X98574288Y-74568571D02*
X99145717Y-74568571D01*
X98788574Y-74068571D02*
X98788574Y-75354286D01*
X98860002Y-75497143D01*
X99002860Y-75568571D01*
X99145717Y-75568571D01*
X99645717Y-75568571D02*
X99645717Y-74068571D01*
X100288574Y-75568571D02*
X100288574Y-74782857D01*
X100217145Y-74640000D01*
X100074288Y-74568571D01*
X99860003Y-74568571D01*
X99717145Y-74640000D01*
X99645717Y-74711429D01*
X101645717Y-74568571D02*
X101645717Y-75568571D01*
X101002860Y-74568571D02*
X101002860Y-75354286D01*
X101074288Y-75497143D01*
X101217146Y-75568571D01*
X101431431Y-75568571D01*
X101574288Y-75497143D01*
X101645717Y-75425714D01*
X102360003Y-75568571D02*
X102360003Y-74068571D01*
X102360003Y-74640000D02*
X102502860Y-74568571D01*
X102788574Y-74568571D01*
X102931431Y-74640000D01*
X103002860Y-74711429D01*
X103074289Y-74854286D01*
X103074289Y-75282857D01*
X103002860Y-75425714D01*
X102931431Y-75497143D01*
X102788574Y-75568571D01*
X102502860Y-75568571D01*
X102360003Y-75497143D01*
X103717146Y-75425714D02*
X103788574Y-75497143D01*
X103717146Y-75568571D01*
X103645717Y-75497143D01*
X103717146Y-75425714D01*
X103717146Y-75568571D01*
X105074289Y-75497143D02*
X104931432Y-75568571D01*
X104645718Y-75568571D01*
X104502860Y-75497143D01*
X104431432Y-75425714D01*
X104360003Y-75282857D01*
X104360003Y-74854286D01*
X104431432Y-74711429D01*
X104502860Y-74640000D01*
X104645718Y-74568571D01*
X104931432Y-74568571D01*
X105074289Y-74640000D01*
X105931432Y-75568571D02*
X105788574Y-75497143D01*
X105717146Y-75425714D01*
X105645717Y-75282857D01*
X105645717Y-74854286D01*
X105717146Y-74711429D01*
X105788574Y-74640000D01*
X105931432Y-74568571D01*
X106145717Y-74568571D01*
X106288574Y-74640000D01*
X106360003Y-74711429D01*
X106431432Y-74854286D01*
X106431432Y-75282857D01*
X106360003Y-75425714D01*
X106288574Y-75497143D01*
X106145717Y-75568571D01*
X105931432Y-75568571D01*
X107074289Y-75568571D02*
X107074289Y-74568571D01*
X107074289Y-74711429D02*
X107145717Y-74640000D01*
X107288575Y-74568571D01*
X107502860Y-74568571D01*
X107645717Y-74640000D01*
X107717146Y-74782857D01*
X107717146Y-75568571D01*
X107717146Y-74782857D02*
X107788575Y-74640000D01*
X107931432Y-74568571D01*
X108145717Y-74568571D01*
X108288575Y-74640000D01*
X108360003Y-74782857D01*
X108360003Y-75568571D01*
X110145717Y-73997143D02*
X108860003Y-75925714D01*
X110645718Y-75568571D02*
X110645718Y-74568571D01*
X110645718Y-74854286D02*
X110717146Y-74711429D01*
X110788575Y-74640000D01*
X110931432Y-74568571D01*
X111074289Y-74568571D01*
X112145717Y-75497143D02*
X112002860Y-75568571D01*
X111717146Y-75568571D01*
X111574289Y-75497143D01*
X111502860Y-75354286D01*
X111502860Y-74782857D01*
X111574289Y-74640000D01*
X111717146Y-74568571D01*
X112002860Y-74568571D01*
X112145717Y-74640000D01*
X112217146Y-74782857D01*
X112217146Y-74925714D01*
X111502860Y-75068571D01*
X112860003Y-74568571D02*
X112860003Y-76068571D01*
X112860003Y-74640000D02*
X113002860Y-74568571D01*
X113288574Y-74568571D01*
X113431431Y-74640000D01*
X113502860Y-74711429D01*
X113574289Y-74854286D01*
X113574289Y-75282857D01*
X113502860Y-75425714D01*
X113431431Y-75497143D01*
X113288574Y-75568571D01*
X113002860Y-75568571D01*
X112860003Y-75497143D01*
X114431432Y-75568571D02*
X114288574Y-75497143D01*
X114217146Y-75425714D01*
X114145717Y-75282857D01*
X114145717Y-74854286D01*
X114217146Y-74711429D01*
X114288574Y-74640000D01*
X114431432Y-74568571D01*
X114645717Y-74568571D01*
X114788574Y-74640000D01*
X114860003Y-74711429D01*
X114931432Y-74854286D01*
X114931432Y-75282857D01*
X114860003Y-75425714D01*
X114788574Y-75497143D01*
X114645717Y-75568571D01*
X114431432Y-75568571D01*
X115574289Y-75568571D02*
X115574289Y-74568571D01*
X115574289Y-74854286D02*
X115645717Y-74711429D01*
X115717146Y-74640000D01*
X115860003Y-74568571D01*
X116002860Y-74568571D01*
X116288574Y-74568571D02*
X116860003Y-74568571D01*
X116502860Y-74068571D02*
X116502860Y-75354286D01*
X116574288Y-75497143D01*
X116717146Y-75568571D01*
X116860003Y-75568571D01*
X117360003Y-75568571D02*
X117360003Y-74568571D01*
X117360003Y-74068571D02*
X117288574Y-74140000D01*
X117360003Y-74211429D01*
X117431431Y-74140000D01*
X117360003Y-74068571D01*
X117360003Y-74211429D01*
X118074289Y-74568571D02*
X118074289Y-75568571D01*
X118074289Y-74711429D02*
X118145717Y-74640000D01*
X118288575Y-74568571D01*
X118502860Y-74568571D01*
X118645717Y-74640000D01*
X118717146Y-74782857D01*
X118717146Y-75568571D01*
X120074289Y-74568571D02*
X120074289Y-75782857D01*
X120002860Y-75925714D01*
X119931432Y-75997143D01*
X119788575Y-76068571D01*
X119574289Y-76068571D01*
X119431432Y-75997143D01*
X120074289Y-75497143D02*
X119931432Y-75568571D01*
X119645718Y-75568571D01*
X119502860Y-75497143D01*
X119431432Y-75425714D01*
X119360003Y-75282857D01*
X119360003Y-74854286D01*
X119431432Y-74711429D01*
X119502860Y-74640000D01*
X119645718Y-74568571D01*
X119931432Y-74568571D01*
X120074289Y-74640000D01*
X120717146Y-75497143D02*
X120860003Y-75568571D01*
X121145718Y-75568571D01*
X121288575Y-75497143D01*
X121360003Y-75354286D01*
X121360003Y-75282857D01*
X121288575Y-75140000D01*
X121145718Y-75068571D01*
X120931432Y-75068571D01*
X120788575Y-74997143D01*
X120717146Y-74854286D01*
X120717146Y-74782857D01*
X120788575Y-74640000D01*
X120931432Y-74568571D01*
X121145718Y-74568571D01*
X121288575Y-74640000D01*
X122002861Y-74568571D02*
X122002861Y-75854286D01*
X121931432Y-75997143D01*
X121788575Y-76068571D01*
X121717147Y-76068571D01*
X122002861Y-74068571D02*
X121931432Y-74140000D01*
X122002861Y-74211429D01*
X122074289Y-74140000D01*
X122002861Y-74068571D01*
X122002861Y-74211429D01*
X122717147Y-75568571D02*
X122717147Y-74568571D01*
X122717147Y-74854286D02*
X122788575Y-74711429D01*
X122860004Y-74640000D01*
X123002861Y-74568571D01*
X123145718Y-74568571D01*
X124717146Y-73997143D02*
X123431432Y-75925714D01*
X125217147Y-75568571D02*
X125217147Y-74568571D01*
X125217147Y-74854286D02*
X125288575Y-74711429D01*
X125360004Y-74640000D01*
X125502861Y-74568571D01*
X125645718Y-74568571D01*
X125931432Y-74568571D02*
X126502861Y-74568571D01*
X126145718Y-75568571D02*
X126145718Y-74282857D01*
X126217146Y-74140000D01*
X126360004Y-74068571D01*
X126502861Y-74068571D01*
X127002861Y-75568571D02*
X127002861Y-74568571D01*
X127002861Y-74068571D02*
X126931432Y-74140000D01*
X127002861Y-74211429D01*
X127074289Y-74140000D01*
X127002861Y-74068571D01*
X127002861Y-74211429D01*
X128360004Y-75568571D02*
X128360004Y-74068571D01*
X128360004Y-75497143D02*
X128217147Y-75568571D01*
X127931433Y-75568571D01*
X127788575Y-75497143D01*
X127717147Y-75425714D01*
X127645718Y-75282857D01*
X127645718Y-74854286D01*
X127717147Y-74711429D01*
X127788575Y-74640000D01*
X127931433Y-74568571D01*
X128217147Y-74568571D01*
X128360004Y-74640000D01*
X129574290Y-74782857D02*
X129788576Y-74854286D01*
X129860004Y-74925714D01*
X129931433Y-75068571D01*
X129931433Y-75282857D01*
X129860004Y-75425714D01*
X129788576Y-75497143D01*
X129645718Y-75568571D01*
X129074290Y-75568571D01*
X129074290Y-74068571D01*
X129574290Y-74068571D01*
X129717147Y-74140000D01*
X129788576Y-74211429D01*
X129860004Y-74354286D01*
X129860004Y-74497143D01*
X129788576Y-74640000D01*
X129717147Y-74711429D01*
X129574290Y-74782857D01*
X129074290Y-74782857D01*
X130788576Y-75568571D02*
X130645718Y-75497143D01*
X130574290Y-75425714D01*
X130502861Y-75282857D01*
X130502861Y-74854286D01*
X130574290Y-74711429D01*
X130645718Y-74640000D01*
X130788576Y-74568571D01*
X131002861Y-74568571D01*
X131145718Y-74640000D01*
X131217147Y-74711429D01*
X131288576Y-74854286D01*
X131288576Y-75282857D01*
X131217147Y-75425714D01*
X131145718Y-75497143D01*
X131002861Y-75568571D01*
X130788576Y-75568571D01*
X132574290Y-75568571D02*
X132574290Y-74782857D01*
X132502861Y-74640000D01*
X132360004Y-74568571D01*
X132074290Y-74568571D01*
X131931433Y-74640000D01*
X132574290Y-75497143D02*
X132431433Y-75568571D01*
X132074290Y-75568571D01*
X131931433Y-75497143D01*
X131860004Y-75354286D01*
X131860004Y-75211429D01*
X131931433Y-75068571D01*
X132074290Y-74997143D01*
X132431433Y-74997143D01*
X132574290Y-74925714D01*
X133288576Y-75568571D02*
X133288576Y-74568571D01*
X133288576Y-74854286D02*
X133360004Y-74711429D01*
X133431433Y-74640000D01*
X133574290Y-74568571D01*
X133717147Y-74568571D01*
X134860004Y-75568571D02*
X134860004Y-74068571D01*
X134860004Y-75497143D02*
X134717147Y-75568571D01*
X134431433Y-75568571D01*
X134288575Y-75497143D01*
X134217147Y-75425714D01*
X134145718Y-75282857D01*
X134145718Y-74854286D01*
X134217147Y-74711429D01*
X134288575Y-74640000D01*
X134431433Y-74568571D01*
X134717147Y-74568571D01*
X134860004Y-74640000D01*
X87002857Y-76468571D02*
X87502857Y-77968571D01*
X88002857Y-76468571D01*
X89074285Y-77897143D02*
X88931428Y-77968571D01*
X88645714Y-77968571D01*
X88502857Y-77897143D01*
X88431428Y-77754286D01*
X88431428Y-77182857D01*
X88502857Y-77040000D01*
X88645714Y-76968571D01*
X88931428Y-76968571D01*
X89074285Y-77040000D01*
X89145714Y-77182857D01*
X89145714Y-77325714D01*
X88431428Y-77468571D01*
X89788571Y-77968571D02*
X89788571Y-76968571D01*
X89788571Y-77254286D02*
X89859999Y-77111429D01*
X89931428Y-77040000D01*
X90074285Y-76968571D01*
X90217142Y-76968571D01*
X90645713Y-77897143D02*
X90788570Y-77968571D01*
X91074285Y-77968571D01*
X91217142Y-77897143D01*
X91288570Y-77754286D01*
X91288570Y-77682857D01*
X91217142Y-77540000D01*
X91074285Y-77468571D01*
X90859999Y-77468571D01*
X90717142Y-77397143D01*
X90645713Y-77254286D01*
X90645713Y-77182857D01*
X90717142Y-77040000D01*
X90859999Y-76968571D01*
X91074285Y-76968571D01*
X91217142Y-77040000D01*
X91931428Y-77968571D02*
X91931428Y-76968571D01*
X91931428Y-76468571D02*
X91859999Y-76540000D01*
X91931428Y-76611429D01*
X92002856Y-76540000D01*
X91931428Y-76468571D01*
X91931428Y-76611429D01*
X92860000Y-77968571D02*
X92717142Y-77897143D01*
X92645714Y-77825714D01*
X92574285Y-77682857D01*
X92574285Y-77254286D01*
X92645714Y-77111429D01*
X92717142Y-77040000D01*
X92860000Y-76968571D01*
X93074285Y-76968571D01*
X93217142Y-77040000D01*
X93288571Y-77111429D01*
X93360000Y-77254286D01*
X93360000Y-77682857D01*
X93288571Y-77825714D01*
X93217142Y-77897143D01*
X93074285Y-77968571D01*
X92860000Y-77968571D01*
X94002857Y-76968571D02*
X94002857Y-77968571D01*
X94002857Y-77111429D02*
X94074285Y-77040000D01*
X94217143Y-76968571D01*
X94431428Y-76968571D01*
X94574285Y-77040000D01*
X94645714Y-77182857D01*
X94645714Y-77968571D01*
X97288571Y-77968571D02*
X96431428Y-77968571D01*
X96860000Y-77968571D02*
X96860000Y-76468571D01*
X96717143Y-76682857D01*
X96574285Y-76825714D01*
X96431428Y-76897143D01*
D13*
X107555715Y-69898571D02*
X108484286Y-69898571D01*
X107984286Y-70470000D01*
X108198572Y-70470000D01*
X108341429Y-70541429D01*
X108412858Y-70612857D01*
X108484286Y-70755714D01*
X108484286Y-71112857D01*
X108412858Y-71255714D01*
X108341429Y-71327143D01*
X108198572Y-71398571D01*
X107770000Y-71398571D01*
X107627143Y-71327143D01*
X107555715Y-71255714D01*
X109127143Y-71255714D02*
X109198571Y-71327143D01*
X109127143Y-71398571D01*
X109055714Y-71327143D01*
X109127143Y-71255714D01*
X109127143Y-71398571D01*
X109698572Y-69898571D02*
X110627143Y-69898571D01*
X110127143Y-70470000D01*
X110341429Y-70470000D01*
X110484286Y-70541429D01*
X110555715Y-70612857D01*
X110627143Y-70755714D01*
X110627143Y-71112857D01*
X110555715Y-71255714D01*
X110484286Y-71327143D01*
X110341429Y-71398571D01*
X109912857Y-71398571D01*
X109770000Y-71327143D01*
X109698572Y-71255714D01*
X111055714Y-69898571D02*
X111555714Y-71398571D01*
X112055714Y-69898571D01*
X146701429Y-56458571D02*
X145844286Y-56458571D01*
X146272858Y-56458571D02*
X146272858Y-54958571D01*
X146130001Y-55172857D01*
X145987143Y-55315714D01*
X145844286Y-55387143D01*
X147272857Y-55101429D02*
X147344286Y-55030000D01*
X147487143Y-54958571D01*
X147844286Y-54958571D01*
X147987143Y-55030000D01*
X148058572Y-55101429D01*
X148130000Y-55244286D01*
X148130000Y-55387143D01*
X148058572Y-55601429D01*
X147201429Y-56458571D01*
X148130000Y-56458571D01*
X148558571Y-54958571D02*
X149058571Y-56458571D01*
X149558571Y-54958571D01*
X145188096Y-41450000D02*
X145092858Y-41402381D01*
X144950001Y-41402381D01*
X144807143Y-41450000D01*
X144711905Y-41545238D01*
X144664286Y-41640476D01*
X144616667Y-41830952D01*
X144616667Y-41973810D01*
X144664286Y-42164286D01*
X144711905Y-42259524D01*
X144807143Y-42354762D01*
X144950001Y-42402381D01*
X145045239Y-42402381D01*
X145188096Y-42354762D01*
X145235715Y-42307143D01*
X145235715Y-41973810D01*
X145045239Y-41973810D01*
X145664286Y-42402381D02*
X145664286Y-41402381D01*
X146235715Y-42402381D01*
X146235715Y-41402381D01*
X146711905Y-42402381D02*
X146711905Y-41402381D01*
X146950000Y-41402381D01*
X147092858Y-41450000D01*
X147188096Y-41545238D01*
X147235715Y-41640476D01*
X147283334Y-41830952D01*
X147283334Y-41973810D01*
X147235715Y-42164286D01*
X147188096Y-42259524D01*
X147092858Y-42354762D01*
X146950000Y-42402381D01*
X146711905Y-42402381D01*
D15*
X176278572Y-49057143D02*
X177421429Y-49057143D01*
X176850000Y-49628571D02*
X176850000Y-48485714D01*
X176328572Y-45507143D02*
X177471429Y-45507143D01*
D13*
X155700000Y-68700000D02*
X156500000Y-69500000D01*
X157410555Y-68250000D02*
G75*
G03X157410555Y-68250000I-360555J0D01*
G74*
G01*
X165700000Y-59500000D02*
X155700000Y-59500000D01*
X165700000Y-69500000D02*
X165700000Y-59500000D01*
X156500000Y-69500000D02*
X165700000Y-69500000D01*
X155700000Y-59500000D02*
X155700000Y-68700000D01*
D16*
X112143000Y-45212800D02*
X112143000Y-43587200D01*
X109857000Y-43587200D02*
X109857000Y-45212800D01*
X109399800Y-43587200D02*
X109399800Y-45212800D01*
X109399800Y-45212800D02*
X112600200Y-45212800D01*
X112600200Y-45212800D02*
X112600200Y-43587200D01*
X112600200Y-43587200D02*
X109399800Y-43587200D01*
X121041200Y-34193600D02*
X121041200Y-35006400D01*
X122158800Y-34981000D02*
X122158800Y-34193600D01*
X122412800Y-35006400D02*
X120787200Y-35006400D01*
X120787200Y-35006400D02*
X120787200Y-34193600D01*
X120787200Y-34193600D02*
X122412800Y-34193600D01*
X122412800Y-34193600D02*
X122412800Y-35006400D01*
X115465000Y-34065000D02*
X116735000Y-34065000D01*
X115465000Y-35335000D02*
X116709600Y-35335000D01*
X115465000Y-35716000D02*
X115465000Y-33684000D01*
X115465000Y-33684000D02*
X116735000Y-33684000D01*
X116735000Y-33684000D02*
X116735000Y-35716000D01*
X116735000Y-35716000D02*
X115465000Y-35716000D01*
D12*
X106980000Y-40350000D02*
X106230000Y-39600000D01*
X113980000Y-40350000D02*
X114730000Y-39600000D01*
X114730000Y-31850000D02*
X111630000Y-31850000D01*
X109380000Y-40350000D02*
X106980000Y-40350000D01*
X106230000Y-39600000D02*
X106230000Y-31850000D01*
X106230000Y-31850000D02*
X109330000Y-31850000D01*
X113980000Y-40350000D02*
X111630000Y-40350000D01*
X114730000Y-39600000D02*
X114730000Y-31850000D01*
D16*
X147608800Y-37456400D02*
X147608800Y-36643600D01*
X146491200Y-36669000D02*
X146491200Y-37456400D01*
X146237200Y-36643600D02*
X147862800Y-36643600D01*
X147862800Y-36643600D02*
X147862800Y-37456400D01*
X147862800Y-37456400D02*
X146237200Y-37456400D01*
X146237200Y-37456400D02*
X146237200Y-36643600D01*
X146085000Y-45565000D02*
X146085000Y-46835000D01*
X144815000Y-45565000D02*
X144815000Y-46809600D01*
X144434000Y-45565000D02*
X146466000Y-45565000D01*
X146466000Y-45565000D02*
X146466000Y-46835000D01*
X146466000Y-46835000D02*
X144434000Y-46835000D01*
X144434000Y-46835000D02*
X144434000Y-45565000D01*
D13*
X135250000Y-50150000D02*
X135250000Y-52150000D01*
X135250000Y-51150000D02*
X135250000Y-50150000D01*
X137250000Y-51150000D02*
X135250000Y-51150000D01*
X133750000Y-50150000D02*
X133750000Y-52150000D01*
X133750000Y-51150000D02*
X133750000Y-50150000D01*
X131750000Y-51150000D02*
X133750000Y-51150000D01*
X134500000Y-52650000D02*
X134500000Y-52900000D01*
X134500000Y-49900000D02*
X134500000Y-49400000D01*
X134500000Y-49900000D02*
X134500000Y-52650000D01*
D12*
X162550000Y-32400000D02*
X163300000Y-33150000D01*
X157050000Y-32400000D02*
X156300000Y-33150000D01*
X156300000Y-39400000D02*
X158650000Y-39400000D01*
X160900000Y-32400000D02*
X162550000Y-32400000D01*
X163300000Y-33150000D02*
X163300000Y-39400000D01*
X163300000Y-39400000D02*
X160950000Y-39400000D01*
X157050000Y-32400000D02*
X158650000Y-32400000D01*
X156300000Y-33150000D02*
X156300000Y-39400000D01*
D16*
X108258800Y-47306400D02*
X108258800Y-46493600D01*
X107141200Y-46519000D02*
X107141200Y-47306400D01*
X106887200Y-46493600D02*
X108512800Y-46493600D01*
X108512800Y-46493600D02*
X108512800Y-47306400D01*
X108512800Y-47306400D02*
X106887200Y-47306400D01*
X106887200Y-47306400D02*
X106887200Y-46493600D01*
X110391200Y-55393600D02*
X110391200Y-56206400D01*
X111508800Y-56181000D02*
X111508800Y-55393600D01*
X111762800Y-56206400D02*
X110137200Y-56206400D01*
X110137200Y-56206400D02*
X110137200Y-55393600D01*
X110137200Y-55393600D02*
X111762800Y-55393600D01*
X111762800Y-55393600D02*
X111762800Y-56206400D01*
X142893600Y-49508800D02*
X143706400Y-49508800D01*
X143681000Y-48391200D02*
X142893600Y-48391200D01*
X143706400Y-48137200D02*
X143706400Y-49762800D01*
X143706400Y-49762800D02*
X142893600Y-49762800D01*
X142893600Y-49762800D02*
X142893600Y-48137200D01*
X142893600Y-48137200D02*
X143706400Y-48137200D01*
X141058800Y-50106400D02*
X141058800Y-49293600D01*
X139941200Y-49319000D02*
X139941200Y-50106400D01*
X139687200Y-49293600D02*
X141312800Y-49293600D01*
X141312800Y-49293600D02*
X141312800Y-50106400D01*
X141312800Y-50106400D02*
X139687200Y-50106400D01*
X139687200Y-50106400D02*
X139687200Y-49293600D01*
X153812800Y-36057000D02*
X152187200Y-36057000D01*
X152187200Y-38343000D02*
X153812800Y-38343000D01*
X152187200Y-38800200D02*
X153812800Y-38800200D01*
X153812800Y-38800200D02*
X153812800Y-35599800D01*
X153812800Y-35599800D02*
X152187200Y-35599800D01*
X152187200Y-35599800D02*
X152187200Y-38800200D01*
X151112800Y-36057000D02*
X149487200Y-36057000D01*
X149487200Y-38343000D02*
X151112800Y-38343000D01*
X149487200Y-38800200D02*
X151112800Y-38800200D01*
X151112800Y-38800200D02*
X151112800Y-35599800D01*
X151112800Y-35599800D02*
X149487200Y-35599800D01*
X149487200Y-35599800D02*
X149487200Y-38800200D01*
X137337000Y-52957200D02*
X137337000Y-54582800D01*
X139623000Y-54582800D02*
X139623000Y-52957200D01*
X140080200Y-54582800D02*
X140080200Y-52957200D01*
X140080200Y-52957200D02*
X136879800Y-52957200D01*
X136879800Y-52957200D02*
X136879800Y-54582800D01*
X136879800Y-54582800D02*
X140080200Y-54582800D01*
X119975000Y-58505000D02*
X119975000Y-59775000D01*
X118705000Y-58505000D02*
X118705000Y-59749600D01*
X118324000Y-58505000D02*
X120356000Y-58505000D01*
X120356000Y-58505000D02*
X120356000Y-59775000D01*
X120356000Y-59775000D02*
X118324000Y-59775000D01*
X118324000Y-59775000D02*
X118324000Y-58505000D01*
X137307000Y-55837200D02*
X137307000Y-57462800D01*
X139593000Y-57462800D02*
X139593000Y-55837200D01*
X140050200Y-57462800D02*
X140050200Y-55837200D01*
X140050200Y-55837200D02*
X136849800Y-55837200D01*
X136849800Y-55837200D02*
X136849800Y-57462800D01*
X136849800Y-57462800D02*
X140050200Y-57462800D01*
X121858800Y-65056400D02*
X121858800Y-64243600D01*
X120741200Y-64269000D02*
X120741200Y-65056400D01*
X120487200Y-64243600D02*
X122112800Y-64243600D01*
X122112800Y-64243600D02*
X122112800Y-65056400D01*
X122112800Y-65056400D02*
X120487200Y-65056400D01*
X120487200Y-65056400D02*
X120487200Y-64243600D01*
X138265000Y-70685000D02*
X138265000Y-69415000D01*
X139535000Y-70685000D02*
X139535000Y-69440400D01*
X139916000Y-70685000D02*
X137884000Y-70685000D01*
X137884000Y-70685000D02*
X137884000Y-69415000D01*
X137884000Y-69415000D02*
X139916000Y-69415000D01*
X139916000Y-69415000D02*
X139916000Y-70685000D01*
X143508427Y-68785421D02*
X143508427Y-70055421D01*
X142238427Y-68785421D02*
X142238427Y-70030021D01*
X141857427Y-68785421D02*
X143889427Y-68785421D01*
X143889427Y-68785421D02*
X143889427Y-70055421D01*
X143889427Y-70055421D02*
X141857427Y-70055421D01*
X141857427Y-70055421D02*
X141857427Y-68785421D01*
X112129798Y-64479640D02*
X110859798Y-64479640D01*
X112129798Y-63209640D02*
X110885198Y-63209640D01*
X112129798Y-62828640D02*
X112129798Y-64860640D01*
X112129798Y-64860640D02*
X110859798Y-64860640D01*
X110859798Y-64860640D02*
X110859798Y-62828640D01*
X110859798Y-62828640D02*
X112129798Y-62828640D01*
X147905000Y-60535000D02*
X149175000Y-60535000D01*
X147905000Y-61805000D02*
X149149600Y-61805000D01*
X147905000Y-62186000D02*
X147905000Y-60154000D01*
X147905000Y-60154000D02*
X149175000Y-60154000D01*
X149175000Y-60154000D02*
X149175000Y-62186000D01*
X149175000Y-62186000D02*
X147905000Y-62186000D01*
X109749798Y-64499640D02*
X108479798Y-64499640D01*
X109749798Y-63229640D02*
X108505198Y-63229640D01*
X109749798Y-62848640D02*
X109749798Y-64880640D01*
X109749798Y-64880640D02*
X108479798Y-64880640D01*
X108479798Y-64880640D02*
X108479798Y-62848640D01*
X108479798Y-62848640D02*
X109749798Y-62848640D01*
X153343600Y-76958800D02*
X154156400Y-76958800D01*
X154131000Y-75841200D02*
X153343600Y-75841200D01*
X154156400Y-75587200D02*
X154156400Y-77212800D01*
X154156400Y-77212800D02*
X153343600Y-77212800D01*
X153343600Y-77212800D02*
X153343600Y-75587200D01*
X153343600Y-75587200D02*
X154156400Y-75587200D01*
X149893600Y-71528800D02*
X150706400Y-71528800D01*
X150681000Y-70411200D02*
X149893600Y-70411200D01*
X150706400Y-70157200D02*
X150706400Y-71782800D01*
X150706400Y-71782800D02*
X149893600Y-71782800D01*
X149893600Y-71782800D02*
X149893600Y-70157200D01*
X149893600Y-70157200D02*
X150706400Y-70157200D01*
X144838000Y-33850000D02*
X144634800Y-33850000D01*
X143314000Y-31945000D02*
X147886000Y-31945000D01*
X147886000Y-31945000D02*
X147886000Y-32580000D01*
X146260400Y-35755000D02*
X146260400Y-31945000D01*
X146590600Y-35755000D02*
X146590600Y-31945000D01*
X143314000Y-35120000D02*
X143314000Y-35755000D01*
X143314000Y-35755000D02*
X147886000Y-35755000D01*
X147886000Y-35755000D02*
X147886000Y-35120000D01*
X143314000Y-32580000D02*
X143314000Y-31945000D01*
X145473000Y-33850000D02*
X144838000Y-33375020D01*
X144838000Y-33375020D02*
X144838000Y-33850000D01*
X144838000Y-33850000D02*
X144838000Y-34324980D01*
X144838000Y-34324980D02*
X145473000Y-33850000D01*
X145473000Y-33850000D02*
X145473000Y-33532500D01*
X145473000Y-33532500D02*
X145315520Y-33375020D01*
X145473000Y-33850000D02*
X145473000Y-34167500D01*
X145473000Y-34167500D02*
X145630480Y-34324980D01*
X145473000Y-33850000D02*
X146582980Y-33850000D01*
X103200000Y-34038000D02*
X103200000Y-33834800D01*
X105105000Y-32514000D02*
X105105000Y-37086000D01*
X105105000Y-37086000D02*
X104470000Y-37086000D01*
X101295000Y-35460400D02*
X105105000Y-35460400D01*
X101295000Y-35790600D02*
X105105000Y-35790600D01*
X101930000Y-32514000D02*
X101295000Y-32514000D01*
X101295000Y-32514000D02*
X101295000Y-37086000D01*
X101295000Y-37086000D02*
X101930000Y-37086000D01*
X104470000Y-32514000D02*
X105105000Y-32514000D01*
X103200000Y-34673000D02*
X103674980Y-34038000D01*
X103674980Y-34038000D02*
X103200000Y-34038000D01*
X103200000Y-34038000D02*
X102725020Y-34038000D01*
X102725020Y-34038000D02*
X103200000Y-34673000D01*
X103200000Y-34673000D02*
X103517500Y-34673000D01*
X103517500Y-34673000D02*
X103674980Y-34515520D01*
X103200000Y-34673000D02*
X102882500Y-34673000D01*
X102882500Y-34673000D02*
X102725020Y-34830480D01*
X103200000Y-34673000D02*
X103200000Y-35782980D01*
D13*
X121816342Y-39230055D02*
X122916342Y-39230055D01*
D12*
X123000000Y-39850000D02*
X123000000Y-38300000D01*
X121800000Y-39850000D02*
X121800000Y-38300000D01*
D13*
X126816342Y-44380055D02*
X127916342Y-44380055D01*
D12*
X128000000Y-45000000D02*
X128000000Y-43450000D01*
X126800000Y-45000000D02*
X126800000Y-43450000D01*
D13*
X117900000Y-35550000D02*
X119900000Y-35550000D01*
X119900000Y-36150000D02*
X119600000Y-36150000D01*
X119900000Y-33150000D02*
X119900000Y-36150000D01*
X119600000Y-33150000D02*
X119900000Y-33150000D01*
X117900000Y-33150000D02*
X118200000Y-33150000D01*
X117900000Y-33250000D02*
X117900000Y-33150000D01*
X117900000Y-36150000D02*
X117900000Y-33250000D01*
X118200000Y-36150000D02*
X117900000Y-36150000D01*
X123369945Y-45116342D02*
X123369945Y-46216342D01*
D12*
X122750000Y-46300000D02*
X124300000Y-46300000D01*
X122750000Y-45100000D02*
X124300000Y-45100000D01*
D17*
X140958550Y-44073980D02*
G75*
G03X140958550Y-44073980I-159070J0D01*
G74*
G01*
X141658000Y-46520000D02*
X140642000Y-46520000D01*
X141658000Y-43916500D02*
X140642000Y-43916500D01*
X140642000Y-46520000D02*
X140642000Y-43916500D01*
X141658000Y-43916500D02*
X141658000Y-46520000D01*
D13*
X92750000Y-32200000D02*
X96750000Y-32200000D01*
X92750000Y-37200000D02*
X92750000Y-32200000D01*
X96750000Y-37200000D02*
X92750000Y-37200000D01*
X96750000Y-32200000D02*
X96750000Y-37200000D01*
D18*
X86650420Y-60700420D02*
X87549580Y-60700420D01*
X87549580Y-60700420D02*
X87549580Y-60301640D01*
X86650420Y-60301640D02*
X87549580Y-60301640D01*
X86650420Y-60700420D02*
X86650420Y-60301640D01*
X86650420Y-61998360D02*
X87549580Y-61998360D01*
X87549580Y-61998360D02*
X87549580Y-61599580D01*
X86650420Y-61599580D02*
X87549580Y-61599580D01*
X86650420Y-61998360D02*
X86650420Y-61599580D01*
X86650420Y-61150000D02*
X86800280Y-61150000D01*
X86800280Y-61150000D02*
X86800280Y-60850280D01*
X86650420Y-60850280D02*
X86800280Y-60850280D01*
X86650420Y-61150000D02*
X86650420Y-60850280D01*
X87399720Y-61150000D02*
X87549580Y-61150000D01*
X87549580Y-61150000D02*
X87549580Y-60850280D01*
X87399720Y-60850280D02*
X87549580Y-60850280D01*
X87399720Y-61150000D02*
X87399720Y-60850280D01*
X86950140Y-61150000D02*
X87249860Y-61150000D01*
X87249860Y-61150000D02*
X87249860Y-60850280D01*
X86950140Y-60850280D02*
X87249860Y-60850280D01*
X86950140Y-61150000D02*
X86950140Y-60850280D01*
D19*
X86701220Y-60700420D02*
X86701220Y-61599580D01*
X87498780Y-60700420D02*
X87498780Y-61599580D01*
D18*
X88900420Y-60700420D02*
X89799580Y-60700420D01*
X89799580Y-60700420D02*
X89799580Y-60301640D01*
X88900420Y-60301640D02*
X89799580Y-60301640D01*
X88900420Y-60700420D02*
X88900420Y-60301640D01*
X88900420Y-61998360D02*
X89799580Y-61998360D01*
X89799580Y-61998360D02*
X89799580Y-61599580D01*
X88900420Y-61599580D02*
X89799580Y-61599580D01*
X88900420Y-61998360D02*
X88900420Y-61599580D01*
X88900420Y-61150000D02*
X89050280Y-61150000D01*
X89050280Y-61150000D02*
X89050280Y-60850280D01*
X88900420Y-60850280D02*
X89050280Y-60850280D01*
X88900420Y-61150000D02*
X88900420Y-60850280D01*
X89649720Y-61150000D02*
X89799580Y-61150000D01*
X89799580Y-61150000D02*
X89799580Y-60850280D01*
X89649720Y-60850280D02*
X89799580Y-60850280D01*
X89649720Y-61150000D02*
X89649720Y-60850280D01*
X89200140Y-61150000D02*
X89499860Y-61150000D01*
X89499860Y-61150000D02*
X89499860Y-60850280D01*
X89200140Y-60850280D02*
X89499860Y-60850280D01*
X89200140Y-61150000D02*
X89200140Y-60850280D01*
D19*
X88951220Y-60700420D02*
X88951220Y-61599580D01*
X89748780Y-60700420D02*
X89748780Y-61599580D01*
D18*
X150400420Y-32399580D02*
X150400420Y-31500420D01*
X150400420Y-31500420D02*
X150001640Y-31500420D01*
X150001640Y-32399580D02*
X150001640Y-31500420D01*
X150400420Y-32399580D02*
X150001640Y-32399580D01*
X151698360Y-32399580D02*
X151698360Y-31500420D01*
X151698360Y-31500420D02*
X151299580Y-31500420D01*
X151299580Y-32399580D02*
X151299580Y-31500420D01*
X151698360Y-32399580D02*
X151299580Y-32399580D01*
X150850000Y-32399580D02*
X150850000Y-32249720D01*
X150850000Y-32249720D02*
X150550280Y-32249720D01*
X150550280Y-32399580D02*
X150550280Y-32249720D01*
X150850000Y-32399580D02*
X150550280Y-32399580D01*
X150850000Y-31650280D02*
X150850000Y-31500420D01*
X150850000Y-31500420D02*
X150550280Y-31500420D01*
X150550280Y-31650280D02*
X150550280Y-31500420D01*
X150850000Y-31650280D02*
X150550280Y-31650280D01*
X150850000Y-32099860D02*
X150850000Y-31800140D01*
X150850000Y-31800140D02*
X150550280Y-31800140D01*
X150550280Y-32099860D02*
X150550280Y-31800140D01*
X150850000Y-32099860D02*
X150550280Y-32099860D01*
D19*
X150400420Y-32348780D02*
X151299580Y-32348780D01*
X150400420Y-31551220D02*
X151299580Y-31551220D01*
D13*
X117606055Y-63842289D02*
X117606055Y-61842289D01*
X118206055Y-61842289D02*
X118206055Y-62142289D01*
X115206055Y-61842289D02*
X118206055Y-61842289D01*
X115206055Y-62142289D02*
X115206055Y-61842289D01*
X115206055Y-63842289D02*
X115206055Y-63542289D01*
X115306055Y-63842289D02*
X115206055Y-63842289D01*
X118206055Y-63842289D02*
X115306055Y-63842289D01*
X118206055Y-63542289D02*
X118206055Y-63842289D01*
X121870000Y-66450000D02*
X121870000Y-68450000D01*
X121270000Y-68450000D02*
X121270000Y-68150000D01*
X124270000Y-68450000D02*
X121270000Y-68450000D01*
X124270000Y-68150000D02*
X124270000Y-68450000D01*
X124270000Y-66450000D02*
X124270000Y-66750000D01*
X124170000Y-66450000D02*
X124270000Y-66450000D01*
X121270000Y-66450000D02*
X124170000Y-66450000D01*
X121270000Y-66750000D02*
X121270000Y-66450000D01*
D16*
X142511427Y-60070421D02*
X142308227Y-60070421D01*
X140987427Y-58165421D02*
X145559427Y-58165421D01*
X145559427Y-58165421D02*
X145559427Y-58800421D01*
X143933827Y-61975421D02*
X143933827Y-58165421D01*
X144264027Y-61975421D02*
X144264027Y-58165421D01*
X140987427Y-61340421D02*
X140987427Y-61975421D01*
X140987427Y-61975421D02*
X145559427Y-61975421D01*
X145559427Y-61975421D02*
X145559427Y-61340421D01*
X140987427Y-58800421D02*
X140987427Y-58165421D01*
X143146427Y-60070421D02*
X142511427Y-59595441D01*
X142511427Y-59595441D02*
X142511427Y-60070421D01*
X142511427Y-60070421D02*
X142511427Y-60545401D01*
X142511427Y-60545401D02*
X143146427Y-60070421D01*
X143146427Y-60070421D02*
X143146427Y-59752921D01*
X143146427Y-59752921D02*
X142988947Y-59595441D01*
X143146427Y-60070421D02*
X143146427Y-60387921D01*
X143146427Y-60387921D02*
X143303907Y-60545401D01*
X143146427Y-60070421D02*
X144256407Y-60070421D01*
D18*
X151549580Y-61499580D02*
X150650420Y-61499580D01*
X150650420Y-61499580D02*
X150650420Y-61898360D01*
X151549580Y-61898360D02*
X150650420Y-61898360D01*
X151549580Y-61499580D02*
X151549580Y-61898360D01*
X151549580Y-60201640D02*
X150650420Y-60201640D01*
X150650420Y-60201640D02*
X150650420Y-60600420D01*
X151549580Y-60600420D02*
X150650420Y-60600420D01*
X151549580Y-60201640D02*
X151549580Y-60600420D01*
X151549580Y-61050000D02*
X151399720Y-61050000D01*
X151399720Y-61050000D02*
X151399720Y-61349720D01*
X151549580Y-61349720D02*
X151399720Y-61349720D01*
X151549580Y-61050000D02*
X151549580Y-61349720D01*
X150800280Y-61050000D02*
X150650420Y-61050000D01*
X150650420Y-61050000D02*
X150650420Y-61349720D01*
X150800280Y-61349720D02*
X150650420Y-61349720D01*
X150800280Y-61050000D02*
X150800280Y-61349720D01*
X151249860Y-61050000D02*
X150950140Y-61050000D01*
X150950140Y-61050000D02*
X150950140Y-61349720D01*
X151249860Y-61349720D02*
X150950140Y-61349720D01*
X151249860Y-61050000D02*
X151249860Y-61349720D01*
D19*
X151498780Y-61499580D02*
X151498780Y-60600420D01*
X150701220Y-61499580D02*
X150701220Y-60600420D01*
D18*
X106340420Y-63210420D02*
X107239580Y-63210420D01*
X107239580Y-63210420D02*
X107239580Y-62811640D01*
X106340420Y-62811640D02*
X107239580Y-62811640D01*
X106340420Y-63210420D02*
X106340420Y-62811640D01*
X106340420Y-64508360D02*
X107239580Y-64508360D01*
X107239580Y-64508360D02*
X107239580Y-64109580D01*
X106340420Y-64109580D02*
X107239580Y-64109580D01*
X106340420Y-64508360D02*
X106340420Y-64109580D01*
X106340420Y-63660000D02*
X106490280Y-63660000D01*
X106490280Y-63660000D02*
X106490280Y-63360280D01*
X106340420Y-63360280D02*
X106490280Y-63360280D01*
X106340420Y-63660000D02*
X106340420Y-63360280D01*
X107089720Y-63660000D02*
X107239580Y-63660000D01*
X107239580Y-63660000D02*
X107239580Y-63360280D01*
X107089720Y-63360280D02*
X107239580Y-63360280D01*
X107089720Y-63660000D02*
X107089720Y-63360280D01*
X106640140Y-63660000D02*
X106939860Y-63660000D01*
X106939860Y-63660000D02*
X106939860Y-63360280D01*
X106640140Y-63360280D02*
X106939860Y-63360280D01*
X106640140Y-63660000D02*
X106640140Y-63360280D01*
D19*
X106391220Y-63210420D02*
X106391220Y-64109580D01*
X107188780Y-63210420D02*
X107188780Y-64109580D01*
D13*
X166500000Y-56550000D02*
X154500000Y-56550000D01*
X166500000Y-52450000D02*
X166500000Y-56950000D01*
X154500000Y-52450000D02*
X166500000Y-52450000D01*
X154500000Y-56950000D02*
X154500000Y-52450000D01*
X166500000Y-56950000D02*
X154500000Y-56950000D01*
D20*
X109886000Y-43192000D02*
G75*
G03X109886000Y-43192000I-127000J0D01*
G74*
G01*
X110902000Y-43192000D02*
X109886000Y-43192000D01*
X109886000Y-43192000D02*
X109886000Y-41668000D01*
X109886000Y-41668000D02*
X110902000Y-41668000D01*
X111918000Y-41668000D02*
X112934000Y-41668000D01*
X112934000Y-41668000D02*
X112934000Y-43192000D01*
X112934000Y-43192000D02*
X111918000Y-43192000D01*
X109478000Y-57338000D02*
G75*
G03X109478000Y-57338000I-127000J0D01*
G74*
G01*
X108208000Y-57338000D02*
X109224000Y-57338000D01*
X109224000Y-57338000D02*
X109224000Y-58862000D01*
X109224000Y-58862000D02*
X108208000Y-58862000D01*
X107192000Y-58862000D02*
X106176000Y-58862000D01*
X106176000Y-58862000D02*
X106176000Y-57338000D01*
X106176000Y-57338000D02*
X107192000Y-57338000D01*
D13*
X139100000Y-68180000D02*
X139100000Y-65280000D01*
X129100000Y-68180000D02*
X139100000Y-68180000D01*
X129100000Y-65280000D02*
X129100000Y-68180000D01*
X129100000Y-58180000D02*
X129100000Y-61080000D01*
X139100000Y-58180000D02*
X139100000Y-61080000D01*
X129100000Y-58180000D02*
X139100000Y-58180000D01*
X119266055Y-64802289D02*
X113266055Y-64802289D01*
X119266055Y-70802289D02*
X113266055Y-70802289D01*
D16*
X99853219Y-31800000D02*
G75*
G03X99853219Y-31800000I-803219J0D01*
G74*
G01*
X99803219Y-38150000D02*
G75*
G03X99803219Y-38150000I-803219J0D01*
G74*
G01*
X146703219Y-40250000D02*
G75*
G03X146703219Y-40250000I-803219J0D01*
G74*
G01*
X155853219Y-33400000D02*
G75*
G03X155853219Y-33400000I-803219J0D01*
G74*
G01*
X148303219Y-57700000D02*
G75*
G03X148303219Y-57700000I-803219J0D01*
G74*
G01*
X111353219Y-68180000D02*
G75*
G03X111353219Y-68180000I-803219J0D01*
G74*
G01*
D13*
X168850000Y-43800000D02*
X168850000Y-50800000D01*
X175850000Y-43800000D02*
X168850000Y-43800000D01*
X175850000Y-50800000D02*
X175850000Y-43800000D01*
X168850000Y-50800000D02*
X175850000Y-50800000D01*
D16*
X117558000Y-38488000D02*
X118320000Y-38996000D01*
X115780000Y-38488000D02*
X118383500Y-38488000D01*
X118383500Y-38488000D02*
X118383500Y-40012000D01*
X118383500Y-40012000D02*
X115780000Y-40012000D01*
X115780000Y-40012000D02*
X115780000Y-38488000D01*
D21*
X123831000Y-41476000D02*
X123831000Y-44524000D01*
X123831000Y-44524000D02*
X123069000Y-44524000D01*
X123069000Y-44524000D02*
X123069000Y-41476000D01*
X123069000Y-41476000D02*
X123831000Y-41476000D01*
X175674000Y-54081000D02*
X172626000Y-54081000D01*
X172626000Y-54081000D02*
X172626000Y-53319000D01*
X172626000Y-53319000D02*
X175674000Y-53319000D01*
X175674000Y-53319000D02*
X175674000Y-54081000D01*
D16*
X118957000Y-43265000D02*
X121243000Y-43265000D01*
X121243000Y-43265000D02*
X121243000Y-44535000D01*
X121243000Y-44535000D02*
X118957000Y-44535000D01*
X118957000Y-44535000D02*
X118957000Y-43265000D01*
X119365000Y-39893000D02*
X119365000Y-37607000D01*
X119365000Y-37607000D02*
X120635000Y-37607000D01*
X120635000Y-37607000D02*
X120635000Y-39893000D01*
X120635000Y-39893000D02*
X119365000Y-39893000D01*
X114285000Y-42843000D02*
X114285000Y-40557000D01*
X114285000Y-40557000D02*
X115555000Y-40557000D01*
X115555000Y-40557000D02*
X115555000Y-42843000D01*
X115555000Y-42843000D02*
X114285000Y-42843000D01*
X123715000Y-40743000D02*
X123715000Y-38457000D01*
X123715000Y-38457000D02*
X124985000Y-38457000D01*
X124985000Y-38457000D02*
X124985000Y-40743000D01*
X124985000Y-40743000D02*
X123715000Y-40743000D01*
D20*
X121776000Y-37112000D02*
G75*
G03X121776000Y-37112000I-127000J0D01*
G74*
G01*
X122792000Y-37112000D02*
X121776000Y-37112000D01*
X121776000Y-37112000D02*
X121776000Y-35588000D01*
X121776000Y-35588000D02*
X122792000Y-35588000D01*
X123808000Y-35588000D02*
X124824000Y-35588000D01*
X124824000Y-35588000D02*
X124824000Y-37112000D01*
X124824000Y-37112000D02*
X123808000Y-37112000D01*
D16*
X118957000Y-41515000D02*
X121243000Y-41515000D01*
X121243000Y-41515000D02*
X121243000Y-42785000D01*
X121243000Y-42785000D02*
X118957000Y-42785000D01*
X118957000Y-42785000D02*
X118957000Y-41515000D01*
X121957000Y-46865000D02*
X124243000Y-46865000D01*
X124243000Y-46865000D02*
X124243000Y-48135000D01*
X124243000Y-48135000D02*
X121957000Y-48135000D01*
X121957000Y-48135000D02*
X121957000Y-46865000D01*
X143107000Y-36415000D02*
X145393000Y-36415000D01*
X145393000Y-36415000D02*
X145393000Y-37685000D01*
X145393000Y-37685000D02*
X143107000Y-37685000D01*
X143107000Y-37685000D02*
X143107000Y-36415000D01*
X141643000Y-48535000D02*
X139357000Y-48535000D01*
X139357000Y-48535000D02*
X139357000Y-47265000D01*
X139357000Y-47265000D02*
X141643000Y-47265000D01*
X141643000Y-47265000D02*
X141643000Y-48535000D01*
X146793000Y-44935000D02*
X144507000Y-44935000D01*
X144507000Y-44935000D02*
X144507000Y-43665000D01*
X144507000Y-43665000D02*
X146793000Y-43665000D01*
X146793000Y-43665000D02*
X146793000Y-44935000D01*
X150143000Y-44935000D02*
X147857000Y-44935000D01*
X147857000Y-44935000D02*
X147857000Y-43665000D01*
X147857000Y-43665000D02*
X150143000Y-43665000D01*
X150143000Y-43665000D02*
X150143000Y-44935000D01*
X142665000Y-43943000D02*
X142665000Y-41657000D01*
X142665000Y-41657000D02*
X143935000Y-41657000D01*
X143935000Y-41657000D02*
X143935000Y-43943000D01*
X143935000Y-43943000D02*
X142665000Y-43943000D01*
X108843000Y-56435000D02*
X106557000Y-56435000D01*
X106557000Y-56435000D02*
X106557000Y-55165000D01*
X106557000Y-55165000D02*
X108843000Y-55165000D01*
X108843000Y-55165000D02*
X108843000Y-56435000D01*
X108843000Y-54285000D02*
X106557000Y-54285000D01*
X106557000Y-54285000D02*
X106557000Y-53015000D01*
X106557000Y-53015000D02*
X108843000Y-53015000D01*
X108843000Y-53015000D02*
X108843000Y-54285000D01*
X89985000Y-63057000D02*
X89985000Y-65343000D01*
X89985000Y-65343000D02*
X88715000Y-65343000D01*
X88715000Y-65343000D02*
X88715000Y-63057000D01*
X88715000Y-63057000D02*
X89985000Y-63057000D01*
X108793000Y-51535000D02*
X106507000Y-51535000D01*
X106507000Y-51535000D02*
X106507000Y-50265000D01*
X106507000Y-50265000D02*
X108793000Y-50265000D01*
X108793000Y-50265000D02*
X108793000Y-51535000D01*
X108793000Y-49335000D02*
X106507000Y-49335000D01*
X106507000Y-49335000D02*
X106507000Y-48065000D01*
X106507000Y-48065000D02*
X108793000Y-48065000D01*
X108793000Y-48065000D02*
X108793000Y-49335000D01*
X87735000Y-63057000D02*
X87735000Y-65343000D01*
X87735000Y-65343000D02*
X86465000Y-65343000D01*
X86465000Y-65343000D02*
X86465000Y-63057000D01*
X86465000Y-63057000D02*
X87735000Y-63057000D01*
X149115000Y-48243000D02*
X149115000Y-45957000D01*
X149115000Y-45957000D02*
X150385000Y-45957000D01*
X150385000Y-45957000D02*
X150385000Y-48243000D01*
X150385000Y-48243000D02*
X149115000Y-48243000D01*
X152435000Y-33963000D02*
X152435000Y-31677000D01*
X152435000Y-31677000D02*
X153705000Y-31677000D01*
X153705000Y-31677000D02*
X153705000Y-33963000D01*
X153705000Y-33963000D02*
X152435000Y-33963000D01*
X148215000Y-66943000D02*
X148215000Y-64657000D01*
X148215000Y-64657000D02*
X149485000Y-64657000D01*
X149485000Y-64657000D02*
X149485000Y-66943000D01*
X149485000Y-66943000D02*
X148215000Y-66943000D01*
D20*
X145099427Y-70182421D02*
G75*
G03X145099427Y-70182421I-127000J0D01*
G74*
G01*
X146115427Y-70182421D02*
X145099427Y-70182421D01*
X145099427Y-70182421D02*
X145099427Y-68658421D01*
X145099427Y-68658421D02*
X146115427Y-68658421D01*
X147131427Y-68658421D02*
X148147427Y-68658421D01*
X148147427Y-68658421D02*
X148147427Y-70182421D01*
X148147427Y-70182421D02*
X147131427Y-70182421D01*
D16*
X124257000Y-63525000D02*
X126543000Y-63525000D01*
X126543000Y-63525000D02*
X126543000Y-64795000D01*
X126543000Y-64795000D02*
X124257000Y-64795000D01*
X124257000Y-64795000D02*
X124257000Y-63525000D01*
X126539055Y-62547289D02*
X124253055Y-62547289D01*
X124253055Y-62547289D02*
X124253055Y-61277289D01*
X124253055Y-61277289D02*
X126539055Y-61277289D01*
X126539055Y-61277289D02*
X126539055Y-62547289D01*
X149197000Y-57525000D02*
X151483000Y-57525000D01*
X151483000Y-57525000D02*
X151483000Y-58795000D01*
X151483000Y-58795000D02*
X149197000Y-58795000D01*
X149197000Y-58795000D02*
X149197000Y-57525000D01*
X108693000Y-68155000D02*
X106407000Y-68155000D01*
X106407000Y-68155000D02*
X106407000Y-66885000D01*
X106407000Y-66885000D02*
X108693000Y-66885000D01*
X108693000Y-66885000D02*
X108693000Y-68155000D01*
X154307000Y-71415000D02*
X156593000Y-71415000D01*
X156593000Y-71415000D02*
X156593000Y-72685000D01*
X156593000Y-72685000D02*
X154307000Y-72685000D01*
X154307000Y-72685000D02*
X154307000Y-71415000D01*
X148015000Y-72913000D02*
X148015000Y-70627000D01*
X148015000Y-70627000D02*
X149285000Y-70627000D01*
X149285000Y-70627000D02*
X149285000Y-72913000D01*
X149285000Y-72913000D02*
X148015000Y-72913000D01*
X171893000Y-57685000D02*
X169607000Y-57685000D01*
X169607000Y-57685000D02*
X169607000Y-56415000D01*
X169607000Y-56415000D02*
X171893000Y-56415000D01*
X171893000Y-56415000D02*
X171893000Y-57685000D01*
X172957000Y-56415000D02*
X175243000Y-56415000D01*
X175243000Y-56415000D02*
X175243000Y-57685000D01*
X175243000Y-57685000D02*
X172957000Y-57685000D01*
X172957000Y-57685000D02*
X172957000Y-56415000D01*
D13*
X143800000Y-73350000D02*
X143800000Y-79350000D01*
X149800000Y-73350000D02*
X143800000Y-73350000D01*
X149800000Y-79350000D02*
X149800000Y-73350000D01*
X143800000Y-79350000D02*
X149800000Y-79350000D01*
D12*
X138250000Y-31050000D02*
X129250000Y-31050000D01*
X138250000Y-44150000D02*
X129250000Y-44150000D01*
X129250000Y-31060000D02*
X129250000Y-44140000D01*
X138250000Y-44140000D02*
X138250000Y-31060000D01*
D13*
X135550000Y-48200000D02*
X135550000Y-45500000D01*
X131450000Y-45500000D02*
X131450000Y-48200000D01*
X136150000Y-45500000D02*
X131450000Y-45500000D01*
X136150000Y-48200000D02*
X136150000Y-45500000D01*
X131450000Y-48200000D02*
X136150000Y-48200000D01*
D16*
X122318055Y-62440289D02*
X121810055Y-63202289D01*
X122318055Y-60662289D02*
X122318055Y-63265789D01*
X122318055Y-63265789D02*
X120794055Y-63265789D01*
X120794055Y-63265789D02*
X120794055Y-60662289D01*
X120794055Y-60662289D02*
X122318055Y-60662289D01*
D13*
X142458837Y-63520421D02*
G75*
G03X142458837Y-63520421I-335410J0D01*
G74*
G01*
X145823427Y-67920421D02*
X145823427Y-62820421D01*
X141323427Y-67920421D02*
X145823427Y-67920421D01*
X141323427Y-62820421D02*
X141323427Y-67920421D01*
X145823427Y-62820421D02*
X141323427Y-62820421D01*
D22*
X176036000Y-34750000D02*
G75*
G03X176036000Y-34750000I-2286000J0D01*
G74*
G01*
X84136000Y-76650000D02*
G75*
G03X84136000Y-76650000I-2286000J0D01*
G74*
G01*
X175986000Y-76600000D02*
G75*
G03X175986000Y-76600000I-2286000J0D01*
G74*
G01*
X84186000Y-34750000D02*
G75*
G03X84186000Y-34750000I-2286000J0D01*
G74*
G01*
X84138780Y-70539860D02*
X84499460Y-72010520D01*
X84499460Y-72010520D02*
X84778860Y-70948800D01*
X84778860Y-70948800D02*
X85088740Y-72020680D01*
X85088740Y-72020680D02*
X85429100Y-70570340D01*
X82718920Y-71230740D02*
X83508860Y-71220580D01*
X83508860Y-71220580D02*
X83519020Y-71230740D01*
X83519020Y-71230740D02*
X83519020Y-71220580D01*
X83559660Y-70509380D02*
X83559660Y-72051160D01*
X82670660Y-70499220D02*
X82670660Y-72068940D01*
X82670660Y-72068940D02*
X82680820Y-72058780D01*
X82119480Y-70600820D02*
X81768960Y-70519540D01*
X81768960Y-70519540D02*
X81448920Y-70509380D01*
X81448920Y-70509380D02*
X81210160Y-70710040D01*
X81210160Y-70710040D02*
X81179680Y-70979280D01*
X81179680Y-70979280D02*
X81420980Y-71220580D01*
X81420980Y-71220580D02*
X81809600Y-71350120D01*
X81809600Y-71350120D02*
X81989940Y-71510140D01*
X81989940Y-71510140D02*
X82030580Y-71809860D01*
X82030580Y-71809860D02*
X81799440Y-72030840D01*
X81799440Y-72030840D02*
X81479400Y-72058780D01*
X81479400Y-72058780D02*
X81128880Y-71949560D01*
X80090020Y-70499220D02*
X79841100Y-70519540D01*
X79841100Y-70519540D02*
X79599800Y-70760840D01*
X79599800Y-70760840D02*
X79510900Y-71251060D01*
X79510900Y-71251060D02*
X79538840Y-71599040D01*
X79538840Y-71599040D02*
X79739500Y-71919080D01*
X79739500Y-71919080D02*
X79990960Y-72041000D01*
X79990960Y-72041000D02*
X80300840Y-71969880D01*
X80300840Y-71969880D02*
X80519280Y-71789540D01*
X80519280Y-71789540D02*
X80590400Y-71329800D01*
X80590400Y-71329800D02*
X80539600Y-70920860D01*
X80539600Y-70920860D02*
X80430380Y-70638920D01*
X80430380Y-70638920D02*
X80069700Y-70509380D01*
X80689460Y-68779640D02*
X80430380Y-69340980D01*
X80430380Y-69340980D02*
X80968860Y-69859140D01*
X80968860Y-69859140D02*
X81489560Y-69589900D01*
X81489560Y-69589900D02*
X81768960Y-69749920D01*
X83209140Y-69729600D02*
X83539340Y-69539100D01*
X83539340Y-69539100D02*
X83978760Y-69869300D01*
X83978760Y-69869300D02*
X84451200Y-69379080D01*
X84451200Y-69379080D02*
X84169260Y-68899020D01*
X84169260Y-68899020D02*
X84359760Y-68429120D01*
X84359760Y-68429120D02*
X84969360Y-68241160D01*
X84969360Y-68241160D02*
X84969360Y-67560440D01*
X84969360Y-67560440D02*
X84410560Y-67420740D01*
X84410560Y-67420740D02*
X84209900Y-66849240D01*
X84209900Y-66849240D02*
X84479140Y-66379340D01*
X84479140Y-66379340D02*
X84009240Y-65868800D01*
X84009240Y-65868800D02*
X83491080Y-66130420D01*
X83491080Y-66130420D02*
X83021180Y-65929760D01*
X83021180Y-65929760D02*
X82851000Y-65388740D01*
X82851000Y-65388740D02*
X82160120Y-65370960D01*
X82160120Y-65370960D02*
X81949300Y-65919600D01*
X81949300Y-65919600D02*
X81530200Y-66089780D01*
X81530200Y-66089780D02*
X80979020Y-65820540D01*
X80979020Y-65820540D02*
X80460860Y-66348860D01*
X80460860Y-66348860D02*
X80709780Y-66889880D01*
X80709780Y-66889880D02*
X80539600Y-67369940D01*
X80539600Y-67369940D02*
X79990960Y-67469000D01*
X79990960Y-67469000D02*
X79980800Y-68170040D01*
X79980800Y-68170040D02*
X80539600Y-68370700D01*
X80539600Y-68370700D02*
X80679300Y-68769480D01*
X82820520Y-68749160D02*
X83120240Y-68599300D01*
X83120240Y-68599300D02*
X83320900Y-68401180D01*
X83320900Y-68401180D02*
X83470760Y-67999860D01*
X83470760Y-67999860D02*
X83470760Y-67601080D01*
X83470760Y-67601080D02*
X83320900Y-67250560D01*
X83320900Y-67250560D02*
X82868780Y-66900040D01*
X82868780Y-66900040D02*
X82419200Y-66849240D01*
X82419200Y-66849240D02*
X82020420Y-66950840D01*
X82020420Y-66950840D02*
X81619100Y-67298820D01*
X81619100Y-67298820D02*
X81469240Y-67750940D01*
X81469240Y-67750940D02*
X81520040Y-68248780D01*
X81520040Y-68248780D02*
X81768960Y-68551040D01*
X81768960Y-68551040D02*
X82119480Y-68749160D01*
X82119480Y-68749160D02*
X81768960Y-69749920D01*
X82820520Y-68749160D02*
X83219300Y-69749920D01*
D12*
X154788571Y-58099286D02*
X154788571Y-58706429D01*
X154824286Y-58777857D01*
X154860000Y-58813571D01*
X154931429Y-58849286D01*
X155074286Y-58849286D01*
X155145714Y-58813571D01*
X155181429Y-58777857D01*
X155217143Y-58706429D01*
X155217143Y-58099286D01*
X155895714Y-58099286D02*
X155752857Y-58099286D01*
X155681428Y-58135000D01*
X155645714Y-58170714D01*
X155574285Y-58277857D01*
X155538571Y-58420714D01*
X155538571Y-58706429D01*
X155574285Y-58777857D01*
X155610000Y-58813571D01*
X155681428Y-58849286D01*
X155824285Y-58849286D01*
X155895714Y-58813571D01*
X155931428Y-58777857D01*
X155967143Y-58706429D01*
X155967143Y-58527857D01*
X155931428Y-58456429D01*
X155895714Y-58420714D01*
X155824285Y-58385000D01*
X155681428Y-58385000D01*
X155610000Y-58420714D01*
X155574285Y-58456429D01*
X155538571Y-58527857D01*
X107730000Y-44724286D02*
X107701429Y-44752857D01*
X107615715Y-44781429D01*
X107558572Y-44781429D01*
X107472857Y-44752857D01*
X107415715Y-44695714D01*
X107387143Y-44638571D01*
X107358572Y-44524286D01*
X107358572Y-44438571D01*
X107387143Y-44324286D01*
X107415715Y-44267143D01*
X107472857Y-44210000D01*
X107558572Y-44181429D01*
X107615715Y-44181429D01*
X107701429Y-44210000D01*
X107730000Y-44238571D01*
X107958572Y-44238571D02*
X107987143Y-44210000D01*
X108044286Y-44181429D01*
X108187143Y-44181429D01*
X108244286Y-44210000D01*
X108272857Y-44238571D01*
X108301429Y-44295714D01*
X108301429Y-44352857D01*
X108272857Y-44438571D01*
X107930000Y-44781429D01*
X108301429Y-44781429D01*
X121440000Y-33784286D02*
X121411429Y-33812857D01*
X121325715Y-33841429D01*
X121268572Y-33841429D01*
X121182857Y-33812857D01*
X121125715Y-33755714D01*
X121097143Y-33698571D01*
X121068572Y-33584286D01*
X121068572Y-33498571D01*
X121097143Y-33384286D01*
X121125715Y-33327143D01*
X121182857Y-33270000D01*
X121268572Y-33241429D01*
X121325715Y-33241429D01*
X121411429Y-33270000D01*
X121440000Y-33298571D01*
X121640000Y-33241429D02*
X122011429Y-33241429D01*
X121811429Y-33470000D01*
X121897143Y-33470000D01*
X121954286Y-33498571D01*
X121982857Y-33527143D01*
X122011429Y-33584286D01*
X122011429Y-33727143D01*
X121982857Y-33784286D01*
X121954286Y-33812857D01*
X121897143Y-33841429D01*
X121725715Y-33841429D01*
X121668572Y-33812857D01*
X121640000Y-33784286D01*
X115990000Y-32734286D02*
X115961429Y-32762857D01*
X115875715Y-32791429D01*
X115818572Y-32791429D01*
X115732857Y-32762857D01*
X115675715Y-32705714D01*
X115647143Y-32648571D01*
X115618572Y-32534286D01*
X115618572Y-32448571D01*
X115647143Y-32334286D01*
X115675715Y-32277143D01*
X115732857Y-32220000D01*
X115818572Y-32191429D01*
X115875715Y-32191429D01*
X115961429Y-32220000D01*
X115990000Y-32248571D01*
X116504286Y-32391429D02*
X116504286Y-32791429D01*
X116361429Y-32162857D02*
X116218572Y-32591429D01*
X116590000Y-32591429D01*
X106880000Y-41294286D02*
X106851429Y-41322857D01*
X106765715Y-41351429D01*
X106708572Y-41351429D01*
X106622857Y-41322857D01*
X106565715Y-41265714D01*
X106537143Y-41208571D01*
X106508572Y-41094286D01*
X106508572Y-41008571D01*
X106537143Y-40894286D01*
X106565715Y-40837143D01*
X106622857Y-40780000D01*
X106708572Y-40751429D01*
X106765715Y-40751429D01*
X106851429Y-40780000D01*
X106880000Y-40808571D01*
X107422857Y-40751429D02*
X107137143Y-40751429D01*
X107108572Y-41037143D01*
X107137143Y-41008571D01*
X107194286Y-40980000D01*
X107337143Y-40980000D01*
X107394286Y-41008571D01*
X107422857Y-41037143D01*
X107451429Y-41094286D01*
X107451429Y-41237143D01*
X107422857Y-41294286D01*
X107394286Y-41322857D01*
X107337143Y-41351429D01*
X107194286Y-41351429D01*
X107137143Y-41322857D01*
X107108572Y-41294286D01*
X146900000Y-38454286D02*
X146871429Y-38482857D01*
X146785715Y-38511429D01*
X146728572Y-38511429D01*
X146642857Y-38482857D01*
X146585715Y-38425714D01*
X146557143Y-38368571D01*
X146528572Y-38254286D01*
X146528572Y-38168571D01*
X146557143Y-38054286D01*
X146585715Y-37997143D01*
X146642857Y-37940000D01*
X146728572Y-37911429D01*
X146785715Y-37911429D01*
X146871429Y-37940000D01*
X146900000Y-37968571D01*
X147414286Y-37911429D02*
X147300000Y-37911429D01*
X147242857Y-37940000D01*
X147214286Y-37968571D01*
X147157143Y-38054286D01*
X147128572Y-38168571D01*
X147128572Y-38397143D01*
X147157143Y-38454286D01*
X147185715Y-38482857D01*
X147242857Y-38511429D01*
X147357143Y-38511429D01*
X147414286Y-38482857D01*
X147442857Y-38454286D01*
X147471429Y-38397143D01*
X147471429Y-38254286D01*
X147442857Y-38197143D01*
X147414286Y-38168571D01*
X147357143Y-38140000D01*
X147242857Y-38140000D01*
X147185715Y-38168571D01*
X147157143Y-38197143D01*
X147128572Y-38254286D01*
X145300000Y-47784286D02*
X145271429Y-47812857D01*
X145185715Y-47841429D01*
X145128572Y-47841429D01*
X145042857Y-47812857D01*
X144985715Y-47755714D01*
X144957143Y-47698571D01*
X144928572Y-47584286D01*
X144928572Y-47498571D01*
X144957143Y-47384286D01*
X144985715Y-47327143D01*
X145042857Y-47270000D01*
X145128572Y-47241429D01*
X145185715Y-47241429D01*
X145271429Y-47270000D01*
X145300000Y-47298571D01*
X145500000Y-47241429D02*
X145900000Y-47241429D01*
X145642857Y-47841429D01*
X132050000Y-50114286D02*
X132021429Y-50142857D01*
X131935715Y-50171429D01*
X131878572Y-50171429D01*
X131792857Y-50142857D01*
X131735715Y-50085714D01*
X131707143Y-50028571D01*
X131678572Y-49914286D01*
X131678572Y-49828571D01*
X131707143Y-49714286D01*
X131735715Y-49657143D01*
X131792857Y-49600000D01*
X131878572Y-49571429D01*
X131935715Y-49571429D01*
X132021429Y-49600000D01*
X132050000Y-49628571D01*
X132392857Y-49828571D02*
X132335715Y-49800000D01*
X132307143Y-49771429D01*
X132278572Y-49714286D01*
X132278572Y-49685714D01*
X132307143Y-49628571D01*
X132335715Y-49600000D01*
X132392857Y-49571429D01*
X132507143Y-49571429D01*
X132564286Y-49600000D01*
X132592857Y-49628571D01*
X132621429Y-49685714D01*
X132621429Y-49714286D01*
X132592857Y-49771429D01*
X132564286Y-49800000D01*
X132507143Y-49828571D01*
X132392857Y-49828571D01*
X132335715Y-49857143D01*
X132307143Y-49885714D01*
X132278572Y-49942857D01*
X132278572Y-50057143D01*
X132307143Y-50114286D01*
X132335715Y-50142857D01*
X132392857Y-50171429D01*
X132507143Y-50171429D01*
X132564286Y-50142857D01*
X132592857Y-50114286D01*
X132621429Y-50057143D01*
X132621429Y-49942857D01*
X132592857Y-49885714D01*
X132564286Y-49857143D01*
X132507143Y-49828571D01*
X162300000Y-40364286D02*
X162271429Y-40392857D01*
X162185715Y-40421429D01*
X162128572Y-40421429D01*
X162042857Y-40392857D01*
X161985715Y-40335714D01*
X161957143Y-40278571D01*
X161928572Y-40164286D01*
X161928572Y-40078571D01*
X161957143Y-39964286D01*
X161985715Y-39907143D01*
X162042857Y-39850000D01*
X162128572Y-39821429D01*
X162185715Y-39821429D01*
X162271429Y-39850000D01*
X162300000Y-39878571D01*
X162585715Y-40421429D02*
X162700000Y-40421429D01*
X162757143Y-40392857D01*
X162785715Y-40364286D01*
X162842857Y-40278571D01*
X162871429Y-40164286D01*
X162871429Y-39935714D01*
X162842857Y-39878571D01*
X162814286Y-39850000D01*
X162757143Y-39821429D01*
X162642857Y-39821429D01*
X162585715Y-39850000D01*
X162557143Y-39878571D01*
X162528572Y-39935714D01*
X162528572Y-40078571D01*
X162557143Y-40135714D01*
X162585715Y-40164286D01*
X162642857Y-40192857D01*
X162757143Y-40192857D01*
X162814286Y-40164286D01*
X162842857Y-40135714D01*
X162871429Y-40078571D01*
X109694285Y-47164286D02*
X109665714Y-47192857D01*
X109580000Y-47221429D01*
X109522857Y-47221429D01*
X109437142Y-47192857D01*
X109380000Y-47135714D01*
X109351428Y-47078571D01*
X109322857Y-46964286D01*
X109322857Y-46878571D01*
X109351428Y-46764286D01*
X109380000Y-46707143D01*
X109437142Y-46650000D01*
X109522857Y-46621429D01*
X109580000Y-46621429D01*
X109665714Y-46650000D01*
X109694285Y-46678571D01*
X110265714Y-47221429D02*
X109922857Y-47221429D01*
X110094285Y-47221429D02*
X110094285Y-46621429D01*
X110037142Y-46707143D01*
X109980000Y-46764286D01*
X109922857Y-46792857D01*
X110637143Y-46621429D02*
X110694286Y-46621429D01*
X110751429Y-46650000D01*
X110780000Y-46678571D01*
X110808571Y-46735714D01*
X110837143Y-46850000D01*
X110837143Y-46992857D01*
X110808571Y-47107143D01*
X110780000Y-47164286D01*
X110751429Y-47192857D01*
X110694286Y-47221429D01*
X110637143Y-47221429D01*
X110580000Y-47192857D01*
X110551429Y-47164286D01*
X110522857Y-47107143D01*
X110494286Y-46992857D01*
X110494286Y-46850000D01*
X110522857Y-46735714D01*
X110551429Y-46678571D01*
X110580000Y-46650000D01*
X110637143Y-46621429D01*
X110484285Y-57014286D02*
X110455714Y-57042857D01*
X110370000Y-57071429D01*
X110312857Y-57071429D01*
X110227142Y-57042857D01*
X110170000Y-56985714D01*
X110141428Y-56928571D01*
X110112857Y-56814286D01*
X110112857Y-56728571D01*
X110141428Y-56614286D01*
X110170000Y-56557143D01*
X110227142Y-56500000D01*
X110312857Y-56471429D01*
X110370000Y-56471429D01*
X110455714Y-56500000D01*
X110484285Y-56528571D01*
X111055714Y-57071429D02*
X110712857Y-57071429D01*
X110884285Y-57071429D02*
X110884285Y-56471429D01*
X110827142Y-56557143D01*
X110770000Y-56614286D01*
X110712857Y-56642857D01*
X111627143Y-57071429D02*
X111284286Y-57071429D01*
X111455714Y-57071429D02*
X111455714Y-56471429D01*
X111398571Y-56557143D01*
X111341429Y-56614286D01*
X111284286Y-56642857D01*
X142884285Y-50984286D02*
X142855714Y-51012857D01*
X142770000Y-51041429D01*
X142712857Y-51041429D01*
X142627142Y-51012857D01*
X142570000Y-50955714D01*
X142541428Y-50898571D01*
X142512857Y-50784286D01*
X142512857Y-50698571D01*
X142541428Y-50584286D01*
X142570000Y-50527143D01*
X142627142Y-50470000D01*
X142712857Y-50441429D01*
X142770000Y-50441429D01*
X142855714Y-50470000D01*
X142884285Y-50498571D01*
X143455714Y-51041429D02*
X143112857Y-51041429D01*
X143284285Y-51041429D02*
X143284285Y-50441429D01*
X143227142Y-50527143D01*
X143170000Y-50584286D01*
X143112857Y-50612857D01*
X143684286Y-50498571D02*
X143712857Y-50470000D01*
X143770000Y-50441429D01*
X143912857Y-50441429D01*
X143970000Y-50470000D01*
X143998571Y-50498571D01*
X144027143Y-50555714D01*
X144027143Y-50612857D01*
X143998571Y-50698571D01*
X143655714Y-51041429D01*
X144027143Y-51041429D01*
X137814285Y-49964286D02*
X137785714Y-49992857D01*
X137700000Y-50021429D01*
X137642857Y-50021429D01*
X137557142Y-49992857D01*
X137500000Y-49935714D01*
X137471428Y-49878571D01*
X137442857Y-49764286D01*
X137442857Y-49678571D01*
X137471428Y-49564286D01*
X137500000Y-49507143D01*
X137557142Y-49450000D01*
X137642857Y-49421429D01*
X137700000Y-49421429D01*
X137785714Y-49450000D01*
X137814285Y-49478571D01*
X138385714Y-50021429D02*
X138042857Y-50021429D01*
X138214285Y-50021429D02*
X138214285Y-49421429D01*
X138157142Y-49507143D01*
X138100000Y-49564286D01*
X138042857Y-49592857D01*
X138585714Y-49421429D02*
X138957143Y-49421429D01*
X138757143Y-49650000D01*
X138842857Y-49650000D01*
X138900000Y-49678571D01*
X138928571Y-49707143D01*
X138957143Y-49764286D01*
X138957143Y-49907143D01*
X138928571Y-49964286D01*
X138900000Y-49992857D01*
X138842857Y-50021429D01*
X138671429Y-50021429D01*
X138614286Y-49992857D01*
X138585714Y-49964286D01*
X152514285Y-34744286D02*
X152485714Y-34772857D01*
X152400000Y-34801429D01*
X152342857Y-34801429D01*
X152257142Y-34772857D01*
X152200000Y-34715714D01*
X152171428Y-34658571D01*
X152142857Y-34544286D01*
X152142857Y-34458571D01*
X152171428Y-34344286D01*
X152200000Y-34287143D01*
X152257142Y-34230000D01*
X152342857Y-34201429D01*
X152400000Y-34201429D01*
X152485714Y-34230000D01*
X152514285Y-34258571D01*
X153085714Y-34801429D02*
X152742857Y-34801429D01*
X152914285Y-34801429D02*
X152914285Y-34201429D01*
X152857142Y-34287143D01*
X152800000Y-34344286D01*
X152742857Y-34372857D01*
X153600000Y-34401429D02*
X153600000Y-34801429D01*
X153457143Y-34172857D02*
X153314286Y-34601429D01*
X153685714Y-34601429D01*
X149904285Y-34624286D02*
X149875714Y-34652857D01*
X149790000Y-34681429D01*
X149732857Y-34681429D01*
X149647142Y-34652857D01*
X149590000Y-34595714D01*
X149561428Y-34538571D01*
X149532857Y-34424286D01*
X149532857Y-34338571D01*
X149561428Y-34224286D01*
X149590000Y-34167143D01*
X149647142Y-34110000D01*
X149732857Y-34081429D01*
X149790000Y-34081429D01*
X149875714Y-34110000D01*
X149904285Y-34138571D01*
X150475714Y-34681429D02*
X150132857Y-34681429D01*
X150304285Y-34681429D02*
X150304285Y-34081429D01*
X150247142Y-34167143D01*
X150190000Y-34224286D01*
X150132857Y-34252857D01*
X151018571Y-34081429D02*
X150732857Y-34081429D01*
X150704286Y-34367143D01*
X150732857Y-34338571D01*
X150790000Y-34310000D01*
X150932857Y-34310000D01*
X150990000Y-34338571D01*
X151018571Y-34367143D01*
X151047143Y-34424286D01*
X151047143Y-34567143D01*
X151018571Y-34624286D01*
X150990000Y-34652857D01*
X150932857Y-34681429D01*
X150790000Y-34681429D01*
X150732857Y-34652857D01*
X150704286Y-34624286D01*
X138014285Y-52584286D02*
X137985714Y-52612857D01*
X137900000Y-52641429D01*
X137842857Y-52641429D01*
X137757142Y-52612857D01*
X137700000Y-52555714D01*
X137671428Y-52498571D01*
X137642857Y-52384286D01*
X137642857Y-52298571D01*
X137671428Y-52184286D01*
X137700000Y-52127143D01*
X137757142Y-52070000D01*
X137842857Y-52041429D01*
X137900000Y-52041429D01*
X137985714Y-52070000D01*
X138014285Y-52098571D01*
X138585714Y-52641429D02*
X138242857Y-52641429D01*
X138414285Y-52641429D02*
X138414285Y-52041429D01*
X138357142Y-52127143D01*
X138300000Y-52184286D01*
X138242857Y-52212857D01*
X139100000Y-52041429D02*
X138985714Y-52041429D01*
X138928571Y-52070000D01*
X138900000Y-52098571D01*
X138842857Y-52184286D01*
X138814286Y-52298571D01*
X138814286Y-52527143D01*
X138842857Y-52584286D01*
X138871429Y-52612857D01*
X138928571Y-52641429D01*
X139042857Y-52641429D01*
X139100000Y-52612857D01*
X139128571Y-52584286D01*
X139157143Y-52527143D01*
X139157143Y-52384286D01*
X139128571Y-52327143D01*
X139100000Y-52298571D01*
X139042857Y-52270000D01*
X138928571Y-52270000D01*
X138871429Y-52298571D01*
X138842857Y-52327143D01*
X138814286Y-52384286D01*
X118844285Y-58034286D02*
X118815714Y-58062857D01*
X118730000Y-58091429D01*
X118672857Y-58091429D01*
X118587142Y-58062857D01*
X118530000Y-58005714D01*
X118501428Y-57948571D01*
X118472857Y-57834286D01*
X118472857Y-57748571D01*
X118501428Y-57634286D01*
X118530000Y-57577143D01*
X118587142Y-57520000D01*
X118672857Y-57491429D01*
X118730000Y-57491429D01*
X118815714Y-57520000D01*
X118844285Y-57548571D01*
X119415714Y-58091429D02*
X119072857Y-58091429D01*
X119244285Y-58091429D02*
X119244285Y-57491429D01*
X119187142Y-57577143D01*
X119130000Y-57634286D01*
X119072857Y-57662857D01*
X119615714Y-57491429D02*
X120015714Y-57491429D01*
X119758571Y-58091429D01*
X137974285Y-55474286D02*
X137945714Y-55502857D01*
X137860000Y-55531429D01*
X137802857Y-55531429D01*
X137717142Y-55502857D01*
X137660000Y-55445714D01*
X137631428Y-55388571D01*
X137602857Y-55274286D01*
X137602857Y-55188571D01*
X137631428Y-55074286D01*
X137660000Y-55017143D01*
X137717142Y-54960000D01*
X137802857Y-54931429D01*
X137860000Y-54931429D01*
X137945714Y-54960000D01*
X137974285Y-54988571D01*
X138545714Y-55531429D02*
X138202857Y-55531429D01*
X138374285Y-55531429D02*
X138374285Y-54931429D01*
X138317142Y-55017143D01*
X138260000Y-55074286D01*
X138202857Y-55102857D01*
X138888571Y-55188571D02*
X138831429Y-55160000D01*
X138802857Y-55131429D01*
X138774286Y-55074286D01*
X138774286Y-55045714D01*
X138802857Y-54988571D01*
X138831429Y-54960000D01*
X138888571Y-54931429D01*
X139002857Y-54931429D01*
X139060000Y-54960000D01*
X139088571Y-54988571D01*
X139117143Y-55045714D01*
X139117143Y-55074286D01*
X139088571Y-55131429D01*
X139060000Y-55160000D01*
X139002857Y-55188571D01*
X138888571Y-55188571D01*
X138831429Y-55217143D01*
X138802857Y-55245714D01*
X138774286Y-55302857D01*
X138774286Y-55417143D01*
X138802857Y-55474286D01*
X138831429Y-55502857D01*
X138888571Y-55531429D01*
X139002857Y-55531429D01*
X139060000Y-55502857D01*
X139088571Y-55474286D01*
X139117143Y-55417143D01*
X139117143Y-55302857D01*
X139088571Y-55245714D01*
X139060000Y-55217143D01*
X139002857Y-55188571D01*
X120834285Y-65984286D02*
X120805714Y-66012857D01*
X120720000Y-66041429D01*
X120662857Y-66041429D01*
X120577142Y-66012857D01*
X120520000Y-65955714D01*
X120491428Y-65898571D01*
X120462857Y-65784286D01*
X120462857Y-65698571D01*
X120491428Y-65584286D01*
X120520000Y-65527143D01*
X120577142Y-65470000D01*
X120662857Y-65441429D01*
X120720000Y-65441429D01*
X120805714Y-65470000D01*
X120834285Y-65498571D01*
X121405714Y-66041429D02*
X121062857Y-66041429D01*
X121234285Y-66041429D02*
X121234285Y-65441429D01*
X121177142Y-65527143D01*
X121120000Y-65584286D01*
X121062857Y-65612857D01*
X121691429Y-66041429D02*
X121805714Y-66041429D01*
X121862857Y-66012857D01*
X121891429Y-65984286D01*
X121948571Y-65898571D01*
X121977143Y-65784286D01*
X121977143Y-65555714D01*
X121948571Y-65498571D01*
X121920000Y-65470000D01*
X121862857Y-65441429D01*
X121748571Y-65441429D01*
X121691429Y-65470000D01*
X121662857Y-65498571D01*
X121634286Y-65555714D01*
X121634286Y-65698571D01*
X121662857Y-65755714D01*
X121691429Y-65784286D01*
X121748571Y-65812857D01*
X121862857Y-65812857D01*
X121920000Y-65784286D01*
X121948571Y-65755714D01*
X121977143Y-65698571D01*
X138554285Y-71654286D02*
X138525714Y-71682857D01*
X138440000Y-71711429D01*
X138382857Y-71711429D01*
X138297142Y-71682857D01*
X138240000Y-71625714D01*
X138211428Y-71568571D01*
X138182857Y-71454286D01*
X138182857Y-71368571D01*
X138211428Y-71254286D01*
X138240000Y-71197143D01*
X138297142Y-71140000D01*
X138382857Y-71111429D01*
X138440000Y-71111429D01*
X138525714Y-71140000D01*
X138554285Y-71168571D01*
X138782857Y-71168571D02*
X138811428Y-71140000D01*
X138868571Y-71111429D01*
X139011428Y-71111429D01*
X139068571Y-71140000D01*
X139097142Y-71168571D01*
X139125714Y-71225714D01*
X139125714Y-71282857D01*
X139097142Y-71368571D01*
X138754285Y-71711429D01*
X139125714Y-71711429D01*
X139497143Y-71111429D02*
X139554286Y-71111429D01*
X139611429Y-71140000D01*
X139640000Y-71168571D01*
X139668571Y-71225714D01*
X139697143Y-71340000D01*
X139697143Y-71482857D01*
X139668571Y-71597143D01*
X139640000Y-71654286D01*
X139611429Y-71682857D01*
X139554286Y-71711429D01*
X139497143Y-71711429D01*
X139440000Y-71682857D01*
X139411429Y-71654286D01*
X139382857Y-71597143D01*
X139354286Y-71482857D01*
X139354286Y-71340000D01*
X139382857Y-71225714D01*
X139411429Y-71168571D01*
X139440000Y-71140000D01*
X139497143Y-71111429D01*
X142574285Y-71084286D02*
X142545714Y-71112857D01*
X142460000Y-71141429D01*
X142402857Y-71141429D01*
X142317142Y-71112857D01*
X142260000Y-71055714D01*
X142231428Y-70998571D01*
X142202857Y-70884286D01*
X142202857Y-70798571D01*
X142231428Y-70684286D01*
X142260000Y-70627143D01*
X142317142Y-70570000D01*
X142402857Y-70541429D01*
X142460000Y-70541429D01*
X142545714Y-70570000D01*
X142574285Y-70598571D01*
X142802857Y-70598571D02*
X142831428Y-70570000D01*
X142888571Y-70541429D01*
X143031428Y-70541429D01*
X143088571Y-70570000D01*
X143117142Y-70598571D01*
X143145714Y-70655714D01*
X143145714Y-70712857D01*
X143117142Y-70798571D01*
X142774285Y-71141429D01*
X143145714Y-71141429D01*
X143717143Y-71141429D02*
X143374286Y-71141429D01*
X143545714Y-71141429D02*
X143545714Y-70541429D01*
X143488571Y-70627143D01*
X143431429Y-70684286D01*
X143374286Y-70712857D01*
X111074285Y-66364286D02*
X111045714Y-66392857D01*
X110960000Y-66421429D01*
X110902857Y-66421429D01*
X110817142Y-66392857D01*
X110760000Y-66335714D01*
X110731428Y-66278571D01*
X110702857Y-66164286D01*
X110702857Y-66078571D01*
X110731428Y-65964286D01*
X110760000Y-65907143D01*
X110817142Y-65850000D01*
X110902857Y-65821429D01*
X110960000Y-65821429D01*
X111045714Y-65850000D01*
X111074285Y-65878571D01*
X111302857Y-65878571D02*
X111331428Y-65850000D01*
X111388571Y-65821429D01*
X111531428Y-65821429D01*
X111588571Y-65850000D01*
X111617142Y-65878571D01*
X111645714Y-65935714D01*
X111645714Y-65992857D01*
X111617142Y-66078571D01*
X111274285Y-66421429D01*
X111645714Y-66421429D01*
X111874286Y-65878571D02*
X111902857Y-65850000D01*
X111960000Y-65821429D01*
X112102857Y-65821429D01*
X112160000Y-65850000D01*
X112188571Y-65878571D01*
X112217143Y-65935714D01*
X112217143Y-65992857D01*
X112188571Y-66078571D01*
X111845714Y-66421429D01*
X112217143Y-66421429D01*
X146334285Y-62294286D02*
X146305714Y-62322857D01*
X146220000Y-62351429D01*
X146162857Y-62351429D01*
X146077142Y-62322857D01*
X146020000Y-62265714D01*
X145991428Y-62208571D01*
X145962857Y-62094286D01*
X145962857Y-62008571D01*
X145991428Y-61894286D01*
X146020000Y-61837143D01*
X146077142Y-61780000D01*
X146162857Y-61751429D01*
X146220000Y-61751429D01*
X146305714Y-61780000D01*
X146334285Y-61808571D01*
X146562857Y-61808571D02*
X146591428Y-61780000D01*
X146648571Y-61751429D01*
X146791428Y-61751429D01*
X146848571Y-61780000D01*
X146877142Y-61808571D01*
X146905714Y-61865714D01*
X146905714Y-61922857D01*
X146877142Y-62008571D01*
X146534285Y-62351429D01*
X146905714Y-62351429D01*
X147105714Y-61751429D02*
X147477143Y-61751429D01*
X147277143Y-61980000D01*
X147362857Y-61980000D01*
X147420000Y-62008571D01*
X147448571Y-62037143D01*
X147477143Y-62094286D01*
X147477143Y-62237143D01*
X147448571Y-62294286D01*
X147420000Y-62322857D01*
X147362857Y-62351429D01*
X147191429Y-62351429D01*
X147134286Y-62322857D01*
X147105714Y-62294286D01*
X108744285Y-66364286D02*
X108715714Y-66392857D01*
X108630000Y-66421429D01*
X108572857Y-66421429D01*
X108487142Y-66392857D01*
X108430000Y-66335714D01*
X108401428Y-66278571D01*
X108372857Y-66164286D01*
X108372857Y-66078571D01*
X108401428Y-65964286D01*
X108430000Y-65907143D01*
X108487142Y-65850000D01*
X108572857Y-65821429D01*
X108630000Y-65821429D01*
X108715714Y-65850000D01*
X108744285Y-65878571D01*
X108972857Y-65878571D02*
X109001428Y-65850000D01*
X109058571Y-65821429D01*
X109201428Y-65821429D01*
X109258571Y-65850000D01*
X109287142Y-65878571D01*
X109315714Y-65935714D01*
X109315714Y-65992857D01*
X109287142Y-66078571D01*
X108944285Y-66421429D01*
X109315714Y-66421429D01*
X109830000Y-66021429D02*
X109830000Y-66421429D01*
X109687143Y-65792857D02*
X109544286Y-66221429D01*
X109915714Y-66221429D01*
X153344285Y-74864286D02*
X153315714Y-74892857D01*
X153230000Y-74921429D01*
X153172857Y-74921429D01*
X153087142Y-74892857D01*
X153030000Y-74835714D01*
X153001428Y-74778571D01*
X152972857Y-74664286D01*
X152972857Y-74578571D01*
X153001428Y-74464286D01*
X153030000Y-74407143D01*
X153087142Y-74350000D01*
X153172857Y-74321429D01*
X153230000Y-74321429D01*
X153315714Y-74350000D01*
X153344285Y-74378571D01*
X153544285Y-74321429D02*
X153915714Y-74321429D01*
X153715714Y-74550000D01*
X153801428Y-74550000D01*
X153858571Y-74578571D01*
X153887142Y-74607143D01*
X153915714Y-74664286D01*
X153915714Y-74807143D01*
X153887142Y-74864286D01*
X153858571Y-74892857D01*
X153801428Y-74921429D01*
X153630000Y-74921429D01*
X153572857Y-74892857D01*
X153544285Y-74864286D01*
X154258571Y-74578571D02*
X154201429Y-74550000D01*
X154172857Y-74521429D01*
X154144286Y-74464286D01*
X154144286Y-74435714D01*
X154172857Y-74378571D01*
X154201429Y-74350000D01*
X154258571Y-74321429D01*
X154372857Y-74321429D01*
X154430000Y-74350000D01*
X154458571Y-74378571D01*
X154487143Y-74435714D01*
X154487143Y-74464286D01*
X154458571Y-74521429D01*
X154430000Y-74550000D01*
X154372857Y-74578571D01*
X154258571Y-74578571D01*
X154201429Y-74607143D01*
X154172857Y-74635714D01*
X154144286Y-74692857D01*
X154144286Y-74807143D01*
X154172857Y-74864286D01*
X154201429Y-74892857D01*
X154258571Y-74921429D01*
X154372857Y-74921429D01*
X154430000Y-74892857D01*
X154458571Y-74864286D01*
X154487143Y-74807143D01*
X154487143Y-74692857D01*
X154458571Y-74635714D01*
X154430000Y-74607143D01*
X154372857Y-74578571D01*
X149854285Y-69424286D02*
X149825714Y-69452857D01*
X149740000Y-69481429D01*
X149682857Y-69481429D01*
X149597142Y-69452857D01*
X149540000Y-69395714D01*
X149511428Y-69338571D01*
X149482857Y-69224286D01*
X149482857Y-69138571D01*
X149511428Y-69024286D01*
X149540000Y-68967143D01*
X149597142Y-68910000D01*
X149682857Y-68881429D01*
X149740000Y-68881429D01*
X149825714Y-68910000D01*
X149854285Y-68938571D01*
X150054285Y-68881429D02*
X150425714Y-68881429D01*
X150225714Y-69110000D01*
X150311428Y-69110000D01*
X150368571Y-69138571D01*
X150397142Y-69167143D01*
X150425714Y-69224286D01*
X150425714Y-69367143D01*
X150397142Y-69424286D01*
X150368571Y-69452857D01*
X150311428Y-69481429D01*
X150140000Y-69481429D01*
X150082857Y-69452857D01*
X150054285Y-69424286D01*
X150711429Y-69481429D02*
X150825714Y-69481429D01*
X150882857Y-69452857D01*
X150911429Y-69424286D01*
X150968571Y-69338571D01*
X150997143Y-69224286D01*
X150997143Y-68995714D01*
X150968571Y-68938571D01*
X150940000Y-68910000D01*
X150882857Y-68881429D01*
X150768571Y-68881429D01*
X150711429Y-68910000D01*
X150682857Y-68938571D01*
X150654286Y-68995714D01*
X150654286Y-69138571D01*
X150682857Y-69195714D01*
X150711429Y-69224286D01*
X150768571Y-69252857D01*
X150882857Y-69252857D01*
X150940000Y-69224286D01*
X150968571Y-69195714D01*
X150997143Y-69138571D01*
X143387143Y-31681429D02*
X143387143Y-31081429D01*
X143530000Y-31081429D01*
X143615715Y-31110000D01*
X143672857Y-31167143D01*
X143701429Y-31224286D01*
X143730000Y-31338571D01*
X143730000Y-31424286D01*
X143701429Y-31538571D01*
X143672857Y-31595714D01*
X143615715Y-31652857D01*
X143530000Y-31681429D01*
X143387143Y-31681429D01*
X144301429Y-31681429D02*
X143958572Y-31681429D01*
X144130000Y-31681429D02*
X144130000Y-31081429D01*
X144072857Y-31167143D01*
X144015715Y-31224286D01*
X143958572Y-31252857D01*
X102737143Y-38461429D02*
X102737143Y-37861429D01*
X102880000Y-37861429D01*
X102965715Y-37890000D01*
X103022857Y-37947143D01*
X103051429Y-38004286D01*
X103080000Y-38118571D01*
X103080000Y-38204286D01*
X103051429Y-38318571D01*
X103022857Y-38375714D01*
X102965715Y-38432857D01*
X102880000Y-38461429D01*
X102737143Y-38461429D01*
X103308572Y-37918571D02*
X103337143Y-37890000D01*
X103394286Y-37861429D01*
X103537143Y-37861429D01*
X103594286Y-37890000D01*
X103622857Y-37918571D01*
X103651429Y-37975714D01*
X103651429Y-38032857D01*
X103622857Y-38118571D01*
X103280000Y-38461429D01*
X103651429Y-38461429D01*
X121957143Y-41331429D02*
X121957143Y-40731429D01*
X122100000Y-40731429D01*
X122185715Y-40760000D01*
X122242857Y-40817143D01*
X122271429Y-40874286D01*
X122300000Y-40988571D01*
X122300000Y-41074286D01*
X122271429Y-41188571D01*
X122242857Y-41245714D01*
X122185715Y-41302857D01*
X122100000Y-41331429D01*
X121957143Y-41331429D01*
X122500000Y-40731429D02*
X122871429Y-40731429D01*
X122671429Y-40960000D01*
X122757143Y-40960000D01*
X122814286Y-40988571D01*
X122842857Y-41017143D01*
X122871429Y-41074286D01*
X122871429Y-41217143D01*
X122842857Y-41274286D01*
X122814286Y-41302857D01*
X122757143Y-41331429D01*
X122585715Y-41331429D01*
X122528572Y-41302857D01*
X122500000Y-41274286D01*
X126967143Y-43261429D02*
X126967143Y-42661429D01*
X127110000Y-42661429D01*
X127195715Y-42690000D01*
X127252857Y-42747143D01*
X127281429Y-42804286D01*
X127310000Y-42918571D01*
X127310000Y-43004286D01*
X127281429Y-43118571D01*
X127252857Y-43175714D01*
X127195715Y-43232857D01*
X127110000Y-43261429D01*
X126967143Y-43261429D01*
X127824286Y-42861429D02*
X127824286Y-43261429D01*
X127681429Y-42632857D02*
X127538572Y-43061429D01*
X127910000Y-43061429D01*
X118437143Y-32231429D02*
X118437143Y-31631429D01*
X118580000Y-31631429D01*
X118665715Y-31660000D01*
X118722857Y-31717143D01*
X118751429Y-31774286D01*
X118780000Y-31888571D01*
X118780000Y-31974286D01*
X118751429Y-32088571D01*
X118722857Y-32145714D01*
X118665715Y-32202857D01*
X118580000Y-32231429D01*
X118437143Y-32231429D01*
X119322857Y-31631429D02*
X119037143Y-31631429D01*
X119008572Y-31917143D01*
X119037143Y-31888571D01*
X119094286Y-31860000D01*
X119237143Y-31860000D01*
X119294286Y-31888571D01*
X119322857Y-31917143D01*
X119351429Y-31974286D01*
X119351429Y-32117143D01*
X119322857Y-32174286D01*
X119294286Y-32202857D01*
X119237143Y-32231429D01*
X119094286Y-32231429D01*
X119037143Y-32202857D01*
X119008572Y-32174286D01*
X120797143Y-46061429D02*
X120797143Y-45461429D01*
X120940000Y-45461429D01*
X121025715Y-45490000D01*
X121082857Y-45547143D01*
X121111429Y-45604286D01*
X121140000Y-45718571D01*
X121140000Y-45804286D01*
X121111429Y-45918571D01*
X121082857Y-45975714D01*
X121025715Y-46032857D01*
X120940000Y-46061429D01*
X120797143Y-46061429D01*
X121340000Y-45461429D02*
X121740000Y-45461429D01*
X121482857Y-46061429D01*
X140627143Y-43611429D02*
X140627143Y-43011429D01*
X140770000Y-43011429D01*
X140855715Y-43040000D01*
X140912857Y-43097143D01*
X140941429Y-43154286D01*
X140970000Y-43268571D01*
X140970000Y-43354286D01*
X140941429Y-43468571D01*
X140912857Y-43525714D01*
X140855715Y-43582857D01*
X140770000Y-43611429D01*
X140627143Y-43611429D01*
X141312857Y-43268571D02*
X141255715Y-43240000D01*
X141227143Y-43211429D01*
X141198572Y-43154286D01*
X141198572Y-43125714D01*
X141227143Y-43068571D01*
X141255715Y-43040000D01*
X141312857Y-43011429D01*
X141427143Y-43011429D01*
X141484286Y-43040000D01*
X141512857Y-43068571D01*
X141541429Y-43125714D01*
X141541429Y-43154286D01*
X141512857Y-43211429D01*
X141484286Y-43240000D01*
X141427143Y-43268571D01*
X141312857Y-43268571D01*
X141255715Y-43297143D01*
X141227143Y-43325714D01*
X141198572Y-43382857D01*
X141198572Y-43497143D01*
X141227143Y-43554286D01*
X141255715Y-43582857D01*
X141312857Y-43611429D01*
X141427143Y-43611429D01*
X141484286Y-43582857D01*
X141512857Y-43554286D01*
X141541429Y-43497143D01*
X141541429Y-43382857D01*
X141512857Y-43325714D01*
X141484286Y-43297143D01*
X141427143Y-43268571D01*
X95827143Y-31851429D02*
X95827143Y-31251429D01*
X95970000Y-31251429D01*
X96055715Y-31280000D01*
X96112857Y-31337143D01*
X96141429Y-31394286D01*
X96170000Y-31508571D01*
X96170000Y-31594286D01*
X96141429Y-31708571D01*
X96112857Y-31765714D01*
X96055715Y-31822857D01*
X95970000Y-31851429D01*
X95827143Y-31851429D01*
X96455715Y-31851429D02*
X96570000Y-31851429D01*
X96627143Y-31822857D01*
X96655715Y-31794286D01*
X96712857Y-31708571D01*
X96741429Y-31594286D01*
X96741429Y-31365714D01*
X96712857Y-31308571D01*
X96684286Y-31280000D01*
X96627143Y-31251429D01*
X96512857Y-31251429D01*
X96455715Y-31280000D01*
X96427143Y-31308571D01*
X96398572Y-31365714D01*
X96398572Y-31508571D01*
X96427143Y-31565714D01*
X96455715Y-31594286D01*
X96512857Y-31622857D01*
X96627143Y-31622857D01*
X96684286Y-31594286D01*
X96712857Y-31565714D01*
X96741429Y-31508571D01*
X100269048Y-31121429D02*
X101030953Y-31121429D01*
X100771429Y-37780952D02*
X100771429Y-37019047D01*
X101152381Y-37399999D02*
X100390476Y-37399999D01*
X84871428Y-61411429D02*
X84871428Y-60811429D01*
X85014285Y-60811429D01*
X85100000Y-60840000D01*
X85157142Y-60897143D01*
X85185714Y-60954286D01*
X85214285Y-61068571D01*
X85214285Y-61154286D01*
X85185714Y-61268571D01*
X85157142Y-61325714D01*
X85100000Y-61382857D01*
X85014285Y-61411429D01*
X84871428Y-61411429D01*
X85785714Y-61411429D02*
X85442857Y-61411429D01*
X85614285Y-61411429D02*
X85614285Y-60811429D01*
X85557142Y-60897143D01*
X85500000Y-60954286D01*
X85442857Y-60982857D01*
X86157143Y-60811429D02*
X86214286Y-60811429D01*
X86271429Y-60840000D01*
X86300000Y-60868571D01*
X86328571Y-60925714D01*
X86357143Y-61040000D01*
X86357143Y-61182857D01*
X86328571Y-61297143D01*
X86300000Y-61354286D01*
X86271429Y-61382857D01*
X86214286Y-61411429D01*
X86157143Y-61411429D01*
X86100000Y-61382857D01*
X86071429Y-61354286D01*
X86042857Y-61297143D01*
X86014286Y-61182857D01*
X86014286Y-61040000D01*
X86042857Y-60925714D01*
X86071429Y-60868571D01*
X86100000Y-60840000D01*
X86157143Y-60811429D01*
X90201428Y-61441429D02*
X90201428Y-60841429D01*
X90344285Y-60841429D01*
X90430000Y-60870000D01*
X90487142Y-60927143D01*
X90515714Y-60984286D01*
X90544285Y-61098571D01*
X90544285Y-61184286D01*
X90515714Y-61298571D01*
X90487142Y-61355714D01*
X90430000Y-61412857D01*
X90344285Y-61441429D01*
X90201428Y-61441429D01*
X91115714Y-61441429D02*
X90772857Y-61441429D01*
X90944285Y-61441429D02*
X90944285Y-60841429D01*
X90887142Y-60927143D01*
X90830000Y-60984286D01*
X90772857Y-61012857D01*
X91687143Y-61441429D02*
X91344286Y-61441429D01*
X91515714Y-61441429D02*
X91515714Y-60841429D01*
X91458571Y-60927143D01*
X91401429Y-60984286D01*
X91344286Y-61012857D01*
X150181428Y-33311429D02*
X150181428Y-32711429D01*
X150324285Y-32711429D01*
X150410000Y-32740000D01*
X150467142Y-32797143D01*
X150495714Y-32854286D01*
X150524285Y-32968571D01*
X150524285Y-33054286D01*
X150495714Y-33168571D01*
X150467142Y-33225714D01*
X150410000Y-33282857D01*
X150324285Y-33311429D01*
X150181428Y-33311429D01*
X151095714Y-33311429D02*
X150752857Y-33311429D01*
X150924285Y-33311429D02*
X150924285Y-32711429D01*
X150867142Y-32797143D01*
X150810000Y-32854286D01*
X150752857Y-32882857D01*
X151324286Y-32768571D02*
X151352857Y-32740000D01*
X151410000Y-32711429D01*
X151552857Y-32711429D01*
X151610000Y-32740000D01*
X151638571Y-32768571D01*
X151667143Y-32825714D01*
X151667143Y-32882857D01*
X151638571Y-32968571D01*
X151295714Y-33311429D01*
X151667143Y-33311429D01*
X115881428Y-61591429D02*
X115881428Y-60991429D01*
X116024285Y-60991429D01*
X116110000Y-61020000D01*
X116167142Y-61077143D01*
X116195714Y-61134286D01*
X116224285Y-61248571D01*
X116224285Y-61334286D01*
X116195714Y-61448571D01*
X116167142Y-61505714D01*
X116110000Y-61562857D01*
X116024285Y-61591429D01*
X115881428Y-61591429D01*
X116795714Y-61591429D02*
X116452857Y-61591429D01*
X116624285Y-61591429D02*
X116624285Y-60991429D01*
X116567142Y-61077143D01*
X116510000Y-61134286D01*
X116452857Y-61162857D01*
X116995714Y-60991429D02*
X117367143Y-60991429D01*
X117167143Y-61220000D01*
X117252857Y-61220000D01*
X117310000Y-61248571D01*
X117338571Y-61277143D01*
X117367143Y-61334286D01*
X117367143Y-61477143D01*
X117338571Y-61534286D01*
X117310000Y-61562857D01*
X117252857Y-61591429D01*
X117081429Y-61591429D01*
X117024286Y-61562857D01*
X116995714Y-61534286D01*
X122081428Y-69381429D02*
X122081428Y-68781429D01*
X122224285Y-68781429D01*
X122310000Y-68810000D01*
X122367142Y-68867143D01*
X122395714Y-68924286D01*
X122424285Y-69038571D01*
X122424285Y-69124286D01*
X122395714Y-69238571D01*
X122367142Y-69295714D01*
X122310000Y-69352857D01*
X122224285Y-69381429D01*
X122081428Y-69381429D01*
X122995714Y-69381429D02*
X122652857Y-69381429D01*
X122824285Y-69381429D02*
X122824285Y-68781429D01*
X122767142Y-68867143D01*
X122710000Y-68924286D01*
X122652857Y-68952857D01*
X123510000Y-68981429D02*
X123510000Y-69381429D01*
X123367143Y-68752857D02*
X123224286Y-69181429D01*
X123595714Y-69181429D01*
X142644855Y-57891850D02*
X142644855Y-57291850D01*
X142787712Y-57291850D01*
X142873427Y-57320421D01*
X142930569Y-57377564D01*
X142959141Y-57434707D01*
X142987712Y-57548992D01*
X142987712Y-57634707D01*
X142959141Y-57748992D01*
X142930569Y-57806135D01*
X142873427Y-57863278D01*
X142787712Y-57891850D01*
X142644855Y-57891850D01*
X143559141Y-57891850D02*
X143216284Y-57891850D01*
X143387712Y-57891850D02*
X143387712Y-57291850D01*
X143330569Y-57377564D01*
X143273427Y-57434707D01*
X143216284Y-57463278D01*
X144101998Y-57291850D02*
X143816284Y-57291850D01*
X143787713Y-57577564D01*
X143816284Y-57548992D01*
X143873427Y-57520421D01*
X144016284Y-57520421D01*
X144073427Y-57548992D01*
X144101998Y-57577564D01*
X144130570Y-57634707D01*
X144130570Y-57777564D01*
X144101998Y-57834707D01*
X144073427Y-57863278D01*
X144016284Y-57891850D01*
X143873427Y-57891850D01*
X143816284Y-57863278D01*
X143787713Y-57834707D01*
X150381428Y-63141429D02*
X150381428Y-62541429D01*
X150524285Y-62541429D01*
X150610000Y-62570000D01*
X150667142Y-62627143D01*
X150695714Y-62684286D01*
X150724285Y-62798571D01*
X150724285Y-62884286D01*
X150695714Y-62998571D01*
X150667142Y-63055714D01*
X150610000Y-63112857D01*
X150524285Y-63141429D01*
X150381428Y-63141429D01*
X151295714Y-63141429D02*
X150952857Y-63141429D01*
X151124285Y-63141429D02*
X151124285Y-62541429D01*
X151067142Y-62627143D01*
X151010000Y-62684286D01*
X150952857Y-62712857D01*
X151810000Y-62541429D02*
X151695714Y-62541429D01*
X151638571Y-62570000D01*
X151610000Y-62598571D01*
X151552857Y-62684286D01*
X151524286Y-62798571D01*
X151524286Y-63027143D01*
X151552857Y-63084286D01*
X151581429Y-63112857D01*
X151638571Y-63141429D01*
X151752857Y-63141429D01*
X151810000Y-63112857D01*
X151838571Y-63084286D01*
X151867143Y-63027143D01*
X151867143Y-62884286D01*
X151838571Y-62827143D01*
X151810000Y-62798571D01*
X151752857Y-62770000D01*
X151638571Y-62770000D01*
X151581429Y-62798571D01*
X151552857Y-62827143D01*
X151524286Y-62884286D01*
X106071428Y-62191429D02*
X106071428Y-61591429D01*
X106214285Y-61591429D01*
X106300000Y-61620000D01*
X106357142Y-61677143D01*
X106385714Y-61734286D01*
X106414285Y-61848571D01*
X106414285Y-61934286D01*
X106385714Y-62048571D01*
X106357142Y-62105714D01*
X106300000Y-62162857D01*
X106214285Y-62191429D01*
X106071428Y-62191429D01*
X106985714Y-62191429D02*
X106642857Y-62191429D01*
X106814285Y-62191429D02*
X106814285Y-61591429D01*
X106757142Y-61677143D01*
X106700000Y-61734286D01*
X106642857Y-61762857D01*
X107185714Y-61591429D02*
X107585714Y-61591429D01*
X107328571Y-62191429D01*
X152531429Y-68730000D02*
X152474286Y-68701429D01*
X152388572Y-68701429D01*
X152302857Y-68730000D01*
X152245715Y-68787143D01*
X152217143Y-68844286D01*
X152188572Y-68958571D01*
X152188572Y-69044286D01*
X152217143Y-69158571D01*
X152245715Y-69215714D01*
X152302857Y-69272857D01*
X152388572Y-69301429D01*
X152445715Y-69301429D01*
X152531429Y-69272857D01*
X152560000Y-69244286D01*
X152560000Y-69044286D01*
X152445715Y-69044286D01*
X152788572Y-68758571D02*
X152817143Y-68730000D01*
X152874286Y-68701429D01*
X153017143Y-68701429D01*
X153074286Y-68730000D01*
X153102857Y-68758571D01*
X153131429Y-68815714D01*
X153131429Y-68872857D01*
X153102857Y-68958571D01*
X152760000Y-69301429D01*
X153131429Y-69301429D01*
X79210000Y-59749286D02*
X79210000Y-60285000D01*
X79174286Y-60392143D01*
X79102857Y-60463571D01*
X78995714Y-60499286D01*
X78924286Y-60499286D01*
X79960001Y-60499286D02*
X79531429Y-60499286D01*
X79745715Y-60499286D02*
X79745715Y-59749286D01*
X79674286Y-59856429D01*
X79602858Y-59927857D01*
X79531429Y-59963571D01*
X154740000Y-51289286D02*
X154740000Y-51825000D01*
X154704286Y-51932143D01*
X154632857Y-52003571D01*
X154525714Y-52039286D01*
X154454286Y-52039286D01*
X155061429Y-51360714D02*
X155097143Y-51325000D01*
X155168572Y-51289286D01*
X155347143Y-51289286D01*
X155418572Y-51325000D01*
X155454286Y-51360714D01*
X155490001Y-51432143D01*
X155490001Y-51503571D01*
X155454286Y-51610714D01*
X155025715Y-52039286D01*
X155490001Y-52039286D01*
X156738096Y-52902381D02*
X156261905Y-52902381D01*
X156214286Y-53378571D01*
X156261905Y-53330952D01*
X156357143Y-53283333D01*
X156595239Y-53283333D01*
X156690477Y-53330952D01*
X156738096Y-53378571D01*
X156785715Y-53473810D01*
X156785715Y-53711905D01*
X156738096Y-53807143D01*
X156690477Y-53854762D01*
X156595239Y-53902381D01*
X156357143Y-53902381D01*
X156261905Y-53854762D01*
X156214286Y-53807143D01*
X158790477Y-53235714D02*
X158790477Y-53902381D01*
X158552381Y-52854762D02*
X158314286Y-53569048D01*
X158933334Y-53569048D01*
X160166667Y-52902381D02*
X160785715Y-52902381D01*
X160452381Y-53283333D01*
X160595239Y-53283333D01*
X160690477Y-53330952D01*
X160738096Y-53378571D01*
X160785715Y-53473810D01*
X160785715Y-53711905D01*
X160738096Y-53807143D01*
X160690477Y-53854762D01*
X160595239Y-53902381D01*
X160309524Y-53902381D01*
X160214286Y-53854762D01*
X160166667Y-53807143D01*
X162214286Y-52997619D02*
X162261905Y-52950000D01*
X162357143Y-52902381D01*
X162595239Y-52902381D01*
X162690477Y-52950000D01*
X162738096Y-52997619D01*
X162785715Y-53092857D01*
X162785715Y-53188095D01*
X162738096Y-53330952D01*
X162166667Y-53902381D01*
X162785715Y-53902381D01*
X164785715Y-53902381D02*
X164214286Y-53902381D01*
X164500000Y-53902381D02*
X164500000Y-52902381D01*
X164404762Y-53045238D01*
X164309524Y-53140476D01*
X164214286Y-53188095D01*
X164109524Y-73902381D02*
X163538095Y-73902381D01*
X163823809Y-73902381D02*
X163823809Y-72902381D01*
X163728571Y-73045238D01*
X163633333Y-73140476D01*
X163538095Y-73188095D01*
X164966667Y-72902381D02*
X164776190Y-72902381D01*
X164680952Y-72950000D01*
X164633333Y-72997619D01*
X164538095Y-73140476D01*
X164490476Y-73330952D01*
X164490476Y-73711905D01*
X164538095Y-73807143D01*
X164585714Y-73854762D01*
X164680952Y-73902381D01*
X164871429Y-73902381D01*
X164966667Y-73854762D01*
X165014286Y-73807143D01*
X165061905Y-73711905D01*
X165061905Y-73473810D01*
X165014286Y-73378571D01*
X164966667Y-73330952D01*
X164871429Y-73283333D01*
X164680952Y-73283333D01*
X164585714Y-73330952D01*
X164538095Y-73378571D01*
X164490476Y-73473810D01*
X161709524Y-73902381D02*
X161138095Y-73902381D01*
X161423809Y-73902381D02*
X161423809Y-72902381D01*
X161328571Y-73045238D01*
X161233333Y-73140476D01*
X161138095Y-73188095D01*
X162090476Y-72997619D02*
X162138095Y-72950000D01*
X162233333Y-72902381D01*
X162471429Y-72902381D01*
X162566667Y-72950000D01*
X162614286Y-72997619D01*
X162661905Y-73092857D01*
X162661905Y-73188095D01*
X162614286Y-73330952D01*
X162042857Y-73902381D01*
X162661905Y-73902381D01*
X159904762Y-73330952D02*
X159809524Y-73283333D01*
X159761905Y-73235714D01*
X159714286Y-73140476D01*
X159714286Y-73092857D01*
X159761905Y-72997619D01*
X159809524Y-72950000D01*
X159904762Y-72902381D01*
X160095239Y-72902381D01*
X160190477Y-72950000D01*
X160238096Y-72997619D01*
X160285715Y-73092857D01*
X160285715Y-73140476D01*
X160238096Y-73235714D01*
X160190477Y-73283333D01*
X160095239Y-73330952D01*
X159904762Y-73330952D01*
X159809524Y-73378571D01*
X159761905Y-73426190D01*
X159714286Y-73521429D01*
X159714286Y-73711905D01*
X159761905Y-73807143D01*
X159809524Y-73854762D01*
X159904762Y-73902381D01*
X160095239Y-73902381D01*
X160190477Y-73854762D01*
X160238096Y-73807143D01*
X160285715Y-73711905D01*
X160285715Y-73521429D01*
X160238096Y-73426190D01*
X160190477Y-73378571D01*
X160095239Y-73330952D01*
X158290477Y-73235714D02*
X158290477Y-73902381D01*
X158052381Y-72854762D02*
X157814286Y-73569048D01*
X158433334Y-73569048D01*
X163109524Y-79702381D02*
X162538095Y-79702381D01*
X162823809Y-79702381D02*
X162823809Y-78702381D01*
X162728571Y-78845238D01*
X162633333Y-78940476D01*
X162538095Y-78988095D01*
X163442857Y-78702381D02*
X164061905Y-78702381D01*
X163728571Y-79083333D01*
X163871429Y-79083333D01*
X163966667Y-79130952D01*
X164014286Y-79178571D01*
X164061905Y-79273810D01*
X164061905Y-79511905D01*
X164014286Y-79607143D01*
X163966667Y-79654762D01*
X163871429Y-79702381D01*
X163585714Y-79702381D01*
X163490476Y-79654762D01*
X163442857Y-79607143D01*
X160909524Y-79702381D02*
X161100000Y-79702381D01*
X161195239Y-79654762D01*
X161242858Y-79607143D01*
X161338096Y-79464286D01*
X161385715Y-79273810D01*
X161385715Y-78892857D01*
X161338096Y-78797619D01*
X161290477Y-78750000D01*
X161195239Y-78702381D01*
X161004762Y-78702381D01*
X160909524Y-78750000D01*
X160861905Y-78797619D01*
X160814286Y-78892857D01*
X160814286Y-79130952D01*
X160861905Y-79226190D01*
X160909524Y-79273810D01*
X161004762Y-79321429D01*
X161195239Y-79321429D01*
X161290477Y-79273810D01*
X161338096Y-79226190D01*
X161385715Y-79130952D01*
X159338096Y-78702381D02*
X158861905Y-78702381D01*
X158814286Y-79178571D01*
X158861905Y-79130952D01*
X158957143Y-79083333D01*
X159195239Y-79083333D01*
X159290477Y-79130952D01*
X159338096Y-79178571D01*
X159385715Y-79273810D01*
X159385715Y-79511905D01*
X159338096Y-79607143D01*
X159290477Y-79654762D01*
X159195239Y-79702381D01*
X158957143Y-79702381D01*
X158861905Y-79654762D01*
X158814286Y-79607143D01*
X157385715Y-79602381D02*
X156814286Y-79602381D01*
X157100000Y-79602381D02*
X157100000Y-78602381D01*
X157004762Y-78745238D01*
X156909524Y-78840476D01*
X156814286Y-78888095D01*
X171352381Y-60990476D02*
X171352381Y-61561905D01*
X171352381Y-61276191D02*
X170352381Y-61276191D01*
X170495238Y-61371429D01*
X170590476Y-61466667D01*
X170638095Y-61561905D01*
X170352381Y-60133333D02*
X170352381Y-60323810D01*
X170400000Y-60419048D01*
X170447619Y-60466667D01*
X170590476Y-60561905D01*
X170780952Y-60609524D01*
X171161905Y-60609524D01*
X171257143Y-60561905D01*
X171304762Y-60514286D01*
X171352381Y-60419048D01*
X171352381Y-60228571D01*
X171304762Y-60133333D01*
X171257143Y-60085714D01*
X171161905Y-60038095D01*
X170923810Y-60038095D01*
X170828571Y-60085714D01*
X170780952Y-60133333D01*
X170733333Y-60228571D01*
X170733333Y-60419048D01*
X170780952Y-60514286D01*
X170828571Y-60561905D01*
X170923810Y-60609524D01*
X171352381Y-63390476D02*
X171352381Y-63961905D01*
X171352381Y-63676191D02*
X170352381Y-63676191D01*
X170495238Y-63771429D01*
X170590476Y-63866667D01*
X170638095Y-63961905D01*
X170447619Y-63009524D02*
X170400000Y-62961905D01*
X170352381Y-62866667D01*
X170352381Y-62628571D01*
X170400000Y-62533333D01*
X170447619Y-62485714D01*
X170542857Y-62438095D01*
X170638095Y-62438095D01*
X170780952Y-62485714D01*
X171352381Y-63057143D01*
X171352381Y-62438095D01*
X170780952Y-65195238D02*
X170733333Y-65290476D01*
X170685714Y-65338095D01*
X170590476Y-65385714D01*
X170542857Y-65385714D01*
X170447619Y-65338095D01*
X170400000Y-65290476D01*
X170352381Y-65195238D01*
X170352381Y-65004761D01*
X170400000Y-64909523D01*
X170447619Y-64861904D01*
X170542857Y-64814285D01*
X170590476Y-64814285D01*
X170685714Y-64861904D01*
X170733333Y-64909523D01*
X170780952Y-65004761D01*
X170780952Y-65195238D01*
X170828571Y-65290476D01*
X170876190Y-65338095D01*
X170971429Y-65385714D01*
X171161905Y-65385714D01*
X171257143Y-65338095D01*
X171304762Y-65290476D01*
X171352381Y-65195238D01*
X171352381Y-65004761D01*
X171304762Y-64909523D01*
X171257143Y-64861904D01*
X171161905Y-64814285D01*
X170971429Y-64814285D01*
X170876190Y-64861904D01*
X170828571Y-64909523D01*
X170780952Y-65004761D01*
X170685714Y-66809523D02*
X171352381Y-66809523D01*
X170304762Y-67047619D02*
X171019048Y-67285714D01*
X171019048Y-66666666D01*
X177152381Y-61990476D02*
X177152381Y-62561905D01*
X177152381Y-62276191D02*
X176152381Y-62276191D01*
X176295238Y-62371429D01*
X176390476Y-62466667D01*
X176438095Y-62561905D01*
X176152381Y-61657143D02*
X176152381Y-61038095D01*
X176533333Y-61371429D01*
X176533333Y-61228571D01*
X176580952Y-61133333D01*
X176628571Y-61085714D01*
X176723810Y-61038095D01*
X176961905Y-61038095D01*
X177057143Y-61085714D01*
X177104762Y-61133333D01*
X177152381Y-61228571D01*
X177152381Y-61514286D01*
X177104762Y-61609524D01*
X177057143Y-61657143D01*
X177152381Y-64190476D02*
X177152381Y-64000000D01*
X177104762Y-63904761D01*
X177057143Y-63857142D01*
X176914286Y-63761904D01*
X176723810Y-63714285D01*
X176342857Y-63714285D01*
X176247619Y-63761904D01*
X176200000Y-63809523D01*
X176152381Y-63904761D01*
X176152381Y-64095238D01*
X176200000Y-64190476D01*
X176247619Y-64238095D01*
X176342857Y-64285714D01*
X176580952Y-64285714D01*
X176676190Y-64238095D01*
X176723810Y-64190476D01*
X176771429Y-64095238D01*
X176771429Y-63904761D01*
X176723810Y-63809523D01*
X176676190Y-63761904D01*
X176580952Y-63714285D01*
X176152381Y-65761904D02*
X176152381Y-66238095D01*
X176628571Y-66285714D01*
X176580952Y-66238095D01*
X176533333Y-66142857D01*
X176533333Y-65904761D01*
X176580952Y-65809523D01*
X176628571Y-65761904D01*
X176723810Y-65714285D01*
X176961905Y-65714285D01*
X177057143Y-65761904D01*
X177104762Y-65809523D01*
X177152381Y-65904761D01*
X177152381Y-66142857D01*
X177104762Y-66238095D01*
X177057143Y-66285714D01*
X177052381Y-67714285D02*
X177052381Y-68285714D01*
X177052381Y-68000000D02*
X176052381Y-68000000D01*
X176195238Y-68095238D01*
X176290476Y-68190476D01*
X176338095Y-68285714D01*
X109020000Y-42691429D02*
X108734286Y-42691429D01*
X108734286Y-42091429D01*
X109534286Y-42691429D02*
X109191429Y-42691429D01*
X109362857Y-42691429D02*
X109362857Y-42091429D01*
X109305714Y-42177143D01*
X109248572Y-42234286D01*
X109191429Y-42262857D01*
X107540000Y-59951429D02*
X107254286Y-59951429D01*
X107254286Y-59351429D01*
X107711429Y-59408571D02*
X107740000Y-59380000D01*
X107797143Y-59351429D01*
X107940000Y-59351429D01*
X107997143Y-59380000D01*
X108025714Y-59408571D01*
X108054286Y-59465714D01*
X108054286Y-59522857D01*
X108025714Y-59608571D01*
X107682857Y-59951429D01*
X108054286Y-59951429D01*
X129920000Y-57811429D02*
X129634286Y-57811429D01*
X129634286Y-57211429D01*
X130062857Y-57211429D02*
X130434286Y-57211429D01*
X130234286Y-57440000D01*
X130320000Y-57440000D01*
X130377143Y-57468571D01*
X130405714Y-57497143D01*
X130434286Y-57554286D01*
X130434286Y-57697143D01*
X130405714Y-57754286D01*
X130377143Y-57782857D01*
X130320000Y-57811429D01*
X130148572Y-57811429D01*
X130091429Y-57782857D01*
X130062857Y-57754286D01*
X118710000Y-71881429D02*
X118424286Y-71881429D01*
X118424286Y-71281429D01*
X119167143Y-71481429D02*
X119167143Y-71881429D01*
X119024286Y-71252857D02*
X118881429Y-71681429D01*
X119252857Y-71681429D01*
D16*
X100225047Y-32029810D02*
X100225047Y-31521810D01*
X100418571Y-31521810D01*
X100466952Y-31546000D01*
X100491143Y-31570190D01*
X100515333Y-31618571D01*
X100515333Y-31691143D01*
X100491143Y-31739524D01*
X100466952Y-31763714D01*
X100418571Y-31787905D01*
X100225047Y-31787905D01*
X100999143Y-32029810D02*
X100708857Y-32029810D01*
X100854000Y-32029810D02*
X100854000Y-31521810D01*
X100805619Y-31594381D01*
X100757238Y-31642762D01*
X100708857Y-31666952D01*
D12*
X100227143Y-38841429D02*
X100227143Y-38241429D01*
X100455715Y-38241429D01*
X100512857Y-38270000D01*
X100541429Y-38298571D01*
X100570000Y-38355714D01*
X100570000Y-38441429D01*
X100541429Y-38498571D01*
X100512857Y-38527143D01*
X100455715Y-38555714D01*
X100227143Y-38555714D01*
X100798572Y-38298571D02*
X100827143Y-38270000D01*
X100884286Y-38241429D01*
X101027143Y-38241429D01*
X101084286Y-38270000D01*
X101112857Y-38298571D01*
X101141429Y-38355714D01*
X101141429Y-38412857D01*
X101112857Y-38498571D01*
X100770000Y-38841429D01*
X101141429Y-38841429D01*
X147006428Y-40509286D02*
X147006428Y-39759286D01*
X147292143Y-39759286D01*
X147363571Y-39795000D01*
X147399286Y-39830714D01*
X147435000Y-39902143D01*
X147435000Y-40009286D01*
X147399286Y-40080714D01*
X147363571Y-40116429D01*
X147292143Y-40152143D01*
X147006428Y-40152143D01*
X147685000Y-39759286D02*
X148149286Y-39759286D01*
X147899286Y-40045000D01*
X148006428Y-40045000D01*
X148077857Y-40080714D01*
X148113571Y-40116429D01*
X148149286Y-40187857D01*
X148149286Y-40366429D01*
X148113571Y-40437857D01*
X148077857Y-40473571D01*
X148006428Y-40509286D01*
X147792143Y-40509286D01*
X147720714Y-40473571D01*
X147685000Y-40437857D01*
X154607143Y-32403969D02*
X154607143Y-31803969D01*
X154835715Y-31803969D01*
X154892857Y-31832540D01*
X154921429Y-31861111D01*
X154950000Y-31918254D01*
X154950000Y-32003969D01*
X154921429Y-32061111D01*
X154892857Y-32089683D01*
X154835715Y-32118254D01*
X154607143Y-32118254D01*
X155464286Y-32003969D02*
X155464286Y-32403969D01*
X155321429Y-31775397D02*
X155178572Y-32203969D01*
X155550000Y-32203969D01*
X145146428Y-57809286D02*
X145146428Y-57059286D01*
X145432143Y-57059286D01*
X145503571Y-57095000D01*
X145539286Y-57130714D01*
X145575000Y-57202143D01*
X145575000Y-57309286D01*
X145539286Y-57380714D01*
X145503571Y-57416429D01*
X145432143Y-57452143D01*
X145146428Y-57452143D01*
X146253571Y-57059286D02*
X145896428Y-57059286D01*
X145860714Y-57416429D01*
X145896428Y-57380714D01*
X145967857Y-57345000D01*
X146146428Y-57345000D01*
X146217857Y-57380714D01*
X146253571Y-57416429D01*
X146289286Y-57487857D01*
X146289286Y-57666429D01*
X146253571Y-57737857D01*
X146217857Y-57773571D01*
X146146428Y-57809286D01*
X145967857Y-57809286D01*
X145896428Y-57773571D01*
X145860714Y-57737857D01*
X111556428Y-68579286D02*
X111556428Y-67829286D01*
X111842143Y-67829286D01*
X111913571Y-67865000D01*
X111949286Y-67900714D01*
X111985000Y-67972143D01*
X111985000Y-68079286D01*
X111949286Y-68150714D01*
X111913571Y-68186429D01*
X111842143Y-68222143D01*
X111556428Y-68222143D01*
X112627857Y-67829286D02*
X112485000Y-67829286D01*
X112413571Y-67865000D01*
X112377857Y-67900714D01*
X112306428Y-68007857D01*
X112270714Y-68150714D01*
X112270714Y-68436429D01*
X112306428Y-68507857D01*
X112342143Y-68543571D01*
X112413571Y-68579286D01*
X112556428Y-68579286D01*
X112627857Y-68543571D01*
X112663571Y-68507857D01*
X112699286Y-68436429D01*
X112699286Y-68257857D01*
X112663571Y-68186429D01*
X112627857Y-68150714D01*
X112556428Y-68115000D01*
X112413571Y-68115000D01*
X112342143Y-68150714D01*
X112306428Y-68186429D01*
X112270714Y-68257857D01*
X168937143Y-43351429D02*
X168937143Y-42751429D01*
X169165715Y-42751429D01*
X169222857Y-42780000D01*
X169251429Y-42808571D01*
X169280000Y-42865714D01*
X169280000Y-42951429D01*
X169251429Y-43008571D01*
X169222857Y-43037143D01*
X169165715Y-43065714D01*
X168937143Y-43065714D01*
X169480000Y-42751429D02*
X169880000Y-42751429D01*
X169622857Y-43351429D01*
X118202857Y-41018571D02*
X118145714Y-40990000D01*
X118088571Y-40932857D01*
X118002857Y-40847143D01*
X117945714Y-40818571D01*
X117888571Y-40818571D01*
X117917143Y-40961429D02*
X117860000Y-40932857D01*
X117802857Y-40875714D01*
X117774286Y-40761429D01*
X117774286Y-40561429D01*
X117802857Y-40447143D01*
X117860000Y-40390000D01*
X117917143Y-40361429D01*
X118031429Y-40361429D01*
X118088571Y-40390000D01*
X118145714Y-40447143D01*
X118174286Y-40561429D01*
X118174286Y-40761429D01*
X118145714Y-40875714D01*
X118088571Y-40932857D01*
X118031429Y-40961429D01*
X117917143Y-40961429D01*
X118402857Y-40418571D02*
X118431428Y-40390000D01*
X118488571Y-40361429D01*
X118631428Y-40361429D01*
X118688571Y-40390000D01*
X118717142Y-40418571D01*
X118745714Y-40475714D01*
X118745714Y-40532857D01*
X118717142Y-40618571D01*
X118374285Y-40961429D01*
X118745714Y-40961429D01*
X125572857Y-43388571D02*
X125515714Y-43360000D01*
X125458571Y-43302857D01*
X125372857Y-43217143D01*
X125315714Y-43188571D01*
X125258571Y-43188571D01*
X125287143Y-43331429D02*
X125230000Y-43302857D01*
X125172857Y-43245714D01*
X125144286Y-43131429D01*
X125144286Y-42931429D01*
X125172857Y-42817143D01*
X125230000Y-42760000D01*
X125287143Y-42731429D01*
X125401429Y-42731429D01*
X125458571Y-42760000D01*
X125515714Y-42817143D01*
X125544286Y-42931429D01*
X125544286Y-43131429D01*
X125515714Y-43245714D01*
X125458571Y-43302857D01*
X125401429Y-43331429D01*
X125287143Y-43331429D01*
X125744285Y-42731429D02*
X126115714Y-42731429D01*
X125915714Y-42960000D01*
X126001428Y-42960000D01*
X126058571Y-42988571D01*
X126087142Y-43017143D01*
X126115714Y-43074286D01*
X126115714Y-43217143D01*
X126087142Y-43274286D01*
X126058571Y-43302857D01*
X126001428Y-43331429D01*
X125830000Y-43331429D01*
X125772857Y-43302857D01*
X125744285Y-43274286D01*
X175492857Y-52908571D02*
X175435714Y-52880000D01*
X175378571Y-52822857D01*
X175292857Y-52737143D01*
X175235714Y-52708571D01*
X175178571Y-52708571D01*
X175207143Y-52851429D02*
X175150000Y-52822857D01*
X175092857Y-52765714D01*
X175064286Y-52651429D01*
X175064286Y-52451429D01*
X175092857Y-52337143D01*
X175150000Y-52280000D01*
X175207143Y-52251429D01*
X175321429Y-52251429D01*
X175378571Y-52280000D01*
X175435714Y-52337143D01*
X175464286Y-52451429D01*
X175464286Y-52651429D01*
X175435714Y-52765714D01*
X175378571Y-52822857D01*
X175321429Y-52851429D01*
X175207143Y-52851429D01*
X175978571Y-52451429D02*
X175978571Y-52851429D01*
X175835714Y-52222857D02*
X175692857Y-52651429D01*
X176064285Y-52651429D01*
X118090000Y-44181429D02*
X117890000Y-43895714D01*
X117747143Y-44181429D02*
X117747143Y-43581429D01*
X117975715Y-43581429D01*
X118032857Y-43610000D01*
X118061429Y-43638571D01*
X118090000Y-43695714D01*
X118090000Y-43781429D01*
X118061429Y-43838571D01*
X118032857Y-43867143D01*
X117975715Y-43895714D01*
X117747143Y-43895714D01*
X118661429Y-44181429D02*
X118318572Y-44181429D01*
X118490000Y-44181429D02*
X118490000Y-43581429D01*
X118432857Y-43667143D01*
X118375715Y-43724286D01*
X118318572Y-43752857D01*
X119910000Y-40811429D02*
X119710000Y-40525714D01*
X119567143Y-40811429D02*
X119567143Y-40211429D01*
X119795715Y-40211429D01*
X119852857Y-40240000D01*
X119881429Y-40268571D01*
X119910000Y-40325714D01*
X119910000Y-40411429D01*
X119881429Y-40468571D01*
X119852857Y-40497143D01*
X119795715Y-40525714D01*
X119567143Y-40525714D01*
X120138572Y-40268571D02*
X120167143Y-40240000D01*
X120224286Y-40211429D01*
X120367143Y-40211429D01*
X120424286Y-40240000D01*
X120452857Y-40268571D01*
X120481429Y-40325714D01*
X120481429Y-40382857D01*
X120452857Y-40468571D01*
X120110000Y-40811429D01*
X120481429Y-40811429D01*
X114790000Y-43751429D02*
X114590000Y-43465714D01*
X114447143Y-43751429D02*
X114447143Y-43151429D01*
X114675715Y-43151429D01*
X114732857Y-43180000D01*
X114761429Y-43208571D01*
X114790000Y-43265714D01*
X114790000Y-43351429D01*
X114761429Y-43408571D01*
X114732857Y-43437143D01*
X114675715Y-43465714D01*
X114447143Y-43465714D01*
X114990000Y-43151429D02*
X115361429Y-43151429D01*
X115161429Y-43380000D01*
X115247143Y-43380000D01*
X115304286Y-43408571D01*
X115332857Y-43437143D01*
X115361429Y-43494286D01*
X115361429Y-43637143D01*
X115332857Y-43694286D01*
X115304286Y-43722857D01*
X115247143Y-43751429D01*
X115075715Y-43751429D01*
X115018572Y-43722857D01*
X114990000Y-43694286D01*
X124250000Y-38241429D02*
X124050000Y-37955714D01*
X123907143Y-38241429D02*
X123907143Y-37641429D01*
X124135715Y-37641429D01*
X124192857Y-37670000D01*
X124221429Y-37698571D01*
X124250000Y-37755714D01*
X124250000Y-37841429D01*
X124221429Y-37898571D01*
X124192857Y-37927143D01*
X124135715Y-37955714D01*
X123907143Y-37955714D01*
X124764286Y-37641429D02*
X124650000Y-37641429D01*
X124592857Y-37670000D01*
X124564286Y-37698571D01*
X124507143Y-37784286D01*
X124478572Y-37898571D01*
X124478572Y-38127143D01*
X124507143Y-38184286D01*
X124535715Y-38212857D01*
X124592857Y-38241429D01*
X124707143Y-38241429D01*
X124764286Y-38212857D01*
X124792857Y-38184286D01*
X124821429Y-38127143D01*
X124821429Y-37984286D01*
X124792857Y-37927143D01*
X124764286Y-37898571D01*
X124707143Y-37870000D01*
X124592857Y-37870000D01*
X124535715Y-37898571D01*
X124507143Y-37927143D01*
X124478572Y-37984286D01*
X120960000Y-36761429D02*
X120760000Y-36475714D01*
X120617143Y-36761429D02*
X120617143Y-36161429D01*
X120845715Y-36161429D01*
X120902857Y-36190000D01*
X120931429Y-36218571D01*
X120960000Y-36275714D01*
X120960000Y-36361429D01*
X120931429Y-36418571D01*
X120902857Y-36447143D01*
X120845715Y-36475714D01*
X120617143Y-36475714D01*
X121160000Y-36161429D02*
X121560000Y-36161429D01*
X121302857Y-36761429D01*
X118050000Y-42401429D02*
X117850000Y-42115714D01*
X117707143Y-42401429D02*
X117707143Y-41801429D01*
X117935715Y-41801429D01*
X117992857Y-41830000D01*
X118021429Y-41858571D01*
X118050000Y-41915714D01*
X118050000Y-42001429D01*
X118021429Y-42058571D01*
X117992857Y-42087143D01*
X117935715Y-42115714D01*
X117707143Y-42115714D01*
X118392857Y-42058571D02*
X118335715Y-42030000D01*
X118307143Y-42001429D01*
X118278572Y-41944286D01*
X118278572Y-41915714D01*
X118307143Y-41858571D01*
X118335715Y-41830000D01*
X118392857Y-41801429D01*
X118507143Y-41801429D01*
X118564286Y-41830000D01*
X118592857Y-41858571D01*
X118621429Y-41915714D01*
X118621429Y-41944286D01*
X118592857Y-42001429D01*
X118564286Y-42030000D01*
X118507143Y-42058571D01*
X118392857Y-42058571D01*
X118335715Y-42087143D01*
X118307143Y-42115714D01*
X118278572Y-42172857D01*
X118278572Y-42287143D01*
X118307143Y-42344286D01*
X118335715Y-42372857D01*
X118392857Y-42401429D01*
X118507143Y-42401429D01*
X118564286Y-42372857D01*
X118592857Y-42344286D01*
X118621429Y-42287143D01*
X118621429Y-42172857D01*
X118592857Y-42115714D01*
X118564286Y-42087143D01*
X118507143Y-42058571D01*
X120990000Y-47871429D02*
X120790000Y-47585714D01*
X120647143Y-47871429D02*
X120647143Y-47271429D01*
X120875715Y-47271429D01*
X120932857Y-47300000D01*
X120961429Y-47328571D01*
X120990000Y-47385714D01*
X120990000Y-47471429D01*
X120961429Y-47528571D01*
X120932857Y-47557143D01*
X120875715Y-47585714D01*
X120647143Y-47585714D01*
X121275715Y-47871429D02*
X121390000Y-47871429D01*
X121447143Y-47842857D01*
X121475715Y-47814286D01*
X121532857Y-47728571D01*
X121561429Y-47614286D01*
X121561429Y-47385714D01*
X121532857Y-47328571D01*
X121504286Y-47300000D01*
X121447143Y-47271429D01*
X121332857Y-47271429D01*
X121275715Y-47300000D01*
X121247143Y-47328571D01*
X121218572Y-47385714D01*
X121218572Y-47528571D01*
X121247143Y-47585714D01*
X121275715Y-47614286D01*
X121332857Y-47642857D01*
X121447143Y-47642857D01*
X121504286Y-47614286D01*
X121532857Y-47585714D01*
X121561429Y-47528571D01*
X143974285Y-38661429D02*
X143774285Y-38375714D01*
X143631428Y-38661429D02*
X143631428Y-38061429D01*
X143860000Y-38061429D01*
X143917142Y-38090000D01*
X143945714Y-38118571D01*
X143974285Y-38175714D01*
X143974285Y-38261429D01*
X143945714Y-38318571D01*
X143917142Y-38347143D01*
X143860000Y-38375714D01*
X143631428Y-38375714D01*
X144545714Y-38661429D02*
X144202857Y-38661429D01*
X144374285Y-38661429D02*
X144374285Y-38061429D01*
X144317142Y-38147143D01*
X144260000Y-38204286D01*
X144202857Y-38232857D01*
X144917143Y-38061429D02*
X144974286Y-38061429D01*
X145031429Y-38090000D01*
X145060000Y-38118571D01*
X145088571Y-38175714D01*
X145117143Y-38290000D01*
X145117143Y-38432857D01*
X145088571Y-38547143D01*
X145060000Y-38604286D01*
X145031429Y-38632857D01*
X144974286Y-38661429D01*
X144917143Y-38661429D01*
X144860000Y-38632857D01*
X144831429Y-38604286D01*
X144802857Y-38547143D01*
X144774286Y-38432857D01*
X144774286Y-38290000D01*
X144802857Y-38175714D01*
X144831429Y-38118571D01*
X144860000Y-38090000D01*
X144917143Y-38061429D01*
X138024285Y-48841429D02*
X137824285Y-48555714D01*
X137681428Y-48841429D02*
X137681428Y-48241429D01*
X137910000Y-48241429D01*
X137967142Y-48270000D01*
X137995714Y-48298571D01*
X138024285Y-48355714D01*
X138024285Y-48441429D01*
X137995714Y-48498571D01*
X137967142Y-48527143D01*
X137910000Y-48555714D01*
X137681428Y-48555714D01*
X138595714Y-48841429D02*
X138252857Y-48841429D01*
X138424285Y-48841429D02*
X138424285Y-48241429D01*
X138367142Y-48327143D01*
X138310000Y-48384286D01*
X138252857Y-48412857D01*
X139167143Y-48841429D02*
X138824286Y-48841429D01*
X138995714Y-48841429D02*
X138995714Y-48241429D01*
X138938571Y-48327143D01*
X138881429Y-48384286D01*
X138824286Y-48412857D01*
X145314285Y-43371429D02*
X145114285Y-43085714D01*
X144971428Y-43371429D02*
X144971428Y-42771429D01*
X145200000Y-42771429D01*
X145257142Y-42800000D01*
X145285714Y-42828571D01*
X145314285Y-42885714D01*
X145314285Y-42971429D01*
X145285714Y-43028571D01*
X145257142Y-43057143D01*
X145200000Y-43085714D01*
X144971428Y-43085714D01*
X145885714Y-43371429D02*
X145542857Y-43371429D01*
X145714285Y-43371429D02*
X145714285Y-42771429D01*
X145657142Y-42857143D01*
X145600000Y-42914286D01*
X145542857Y-42942857D01*
X146114286Y-42828571D02*
X146142857Y-42800000D01*
X146200000Y-42771429D01*
X146342857Y-42771429D01*
X146400000Y-42800000D01*
X146428571Y-42828571D01*
X146457143Y-42885714D01*
X146457143Y-42942857D01*
X146428571Y-43028571D01*
X146085714Y-43371429D01*
X146457143Y-43371429D01*
X148614285Y-43371429D02*
X148414285Y-43085714D01*
X148271428Y-43371429D02*
X148271428Y-42771429D01*
X148500000Y-42771429D01*
X148557142Y-42800000D01*
X148585714Y-42828571D01*
X148614285Y-42885714D01*
X148614285Y-42971429D01*
X148585714Y-43028571D01*
X148557142Y-43057143D01*
X148500000Y-43085714D01*
X148271428Y-43085714D01*
X149185714Y-43371429D02*
X148842857Y-43371429D01*
X149014285Y-43371429D02*
X149014285Y-42771429D01*
X148957142Y-42857143D01*
X148900000Y-42914286D01*
X148842857Y-42942857D01*
X149385714Y-42771429D02*
X149757143Y-42771429D01*
X149557143Y-43000000D01*
X149642857Y-43000000D01*
X149700000Y-43028571D01*
X149728571Y-43057143D01*
X149757143Y-43114286D01*
X149757143Y-43257143D01*
X149728571Y-43314286D01*
X149700000Y-43342857D01*
X149642857Y-43371429D01*
X149471429Y-43371429D01*
X149414286Y-43342857D01*
X149385714Y-43314286D01*
X142884285Y-41361429D02*
X142684285Y-41075714D01*
X142541428Y-41361429D02*
X142541428Y-40761429D01*
X142770000Y-40761429D01*
X142827142Y-40790000D01*
X142855714Y-40818571D01*
X142884285Y-40875714D01*
X142884285Y-40961429D01*
X142855714Y-41018571D01*
X142827142Y-41047143D01*
X142770000Y-41075714D01*
X142541428Y-41075714D01*
X143455714Y-41361429D02*
X143112857Y-41361429D01*
X143284285Y-41361429D02*
X143284285Y-40761429D01*
X143227142Y-40847143D01*
X143170000Y-40904286D01*
X143112857Y-40932857D01*
X143970000Y-40961429D02*
X143970000Y-41361429D01*
X143827143Y-40732857D02*
X143684286Y-41161429D01*
X144055714Y-41161429D01*
X105014285Y-56131429D02*
X104814285Y-55845714D01*
X104671428Y-56131429D02*
X104671428Y-55531429D01*
X104900000Y-55531429D01*
X104957142Y-55560000D01*
X104985714Y-55588571D01*
X105014285Y-55645714D01*
X105014285Y-55731429D01*
X104985714Y-55788571D01*
X104957142Y-55817143D01*
X104900000Y-55845714D01*
X104671428Y-55845714D01*
X105585714Y-56131429D02*
X105242857Y-56131429D01*
X105414285Y-56131429D02*
X105414285Y-55531429D01*
X105357142Y-55617143D01*
X105300000Y-55674286D01*
X105242857Y-55702857D01*
X106128571Y-55531429D02*
X105842857Y-55531429D01*
X105814286Y-55817143D01*
X105842857Y-55788571D01*
X105900000Y-55760000D01*
X106042857Y-55760000D01*
X106100000Y-55788571D01*
X106128571Y-55817143D01*
X106157143Y-55874286D01*
X106157143Y-56017143D01*
X106128571Y-56074286D01*
X106100000Y-56102857D01*
X106042857Y-56131429D01*
X105900000Y-56131429D01*
X105842857Y-56102857D01*
X105814286Y-56074286D01*
X109604285Y-53981429D02*
X109404285Y-53695714D01*
X109261428Y-53981429D02*
X109261428Y-53381429D01*
X109490000Y-53381429D01*
X109547142Y-53410000D01*
X109575714Y-53438571D01*
X109604285Y-53495714D01*
X109604285Y-53581429D01*
X109575714Y-53638571D01*
X109547142Y-53667143D01*
X109490000Y-53695714D01*
X109261428Y-53695714D01*
X110175714Y-53981429D02*
X109832857Y-53981429D01*
X110004285Y-53981429D02*
X110004285Y-53381429D01*
X109947142Y-53467143D01*
X109890000Y-53524286D01*
X109832857Y-53552857D01*
X110690000Y-53381429D02*
X110575714Y-53381429D01*
X110518571Y-53410000D01*
X110490000Y-53438571D01*
X110432857Y-53524286D01*
X110404286Y-53638571D01*
X110404286Y-53867143D01*
X110432857Y-53924286D01*
X110461429Y-53952857D01*
X110518571Y-53981429D01*
X110632857Y-53981429D01*
X110690000Y-53952857D01*
X110718571Y-53924286D01*
X110747143Y-53867143D01*
X110747143Y-53724286D01*
X110718571Y-53667143D01*
X110690000Y-53638571D01*
X110632857Y-53610000D01*
X110518571Y-53610000D01*
X110461429Y-53638571D01*
X110432857Y-53667143D01*
X110404286Y-53724286D01*
X88924285Y-66221429D02*
X88724285Y-65935714D01*
X88581428Y-66221429D02*
X88581428Y-65621429D01*
X88810000Y-65621429D01*
X88867142Y-65650000D01*
X88895714Y-65678571D01*
X88924285Y-65735714D01*
X88924285Y-65821429D01*
X88895714Y-65878571D01*
X88867142Y-65907143D01*
X88810000Y-65935714D01*
X88581428Y-65935714D01*
X89495714Y-66221429D02*
X89152857Y-66221429D01*
X89324285Y-66221429D02*
X89324285Y-65621429D01*
X89267142Y-65707143D01*
X89210000Y-65764286D01*
X89152857Y-65792857D01*
X89695714Y-65621429D02*
X90095714Y-65621429D01*
X89838571Y-66221429D01*
X109654285Y-51201429D02*
X109454285Y-50915714D01*
X109311428Y-51201429D02*
X109311428Y-50601429D01*
X109540000Y-50601429D01*
X109597142Y-50630000D01*
X109625714Y-50658571D01*
X109654285Y-50715714D01*
X109654285Y-50801429D01*
X109625714Y-50858571D01*
X109597142Y-50887143D01*
X109540000Y-50915714D01*
X109311428Y-50915714D01*
X110225714Y-51201429D02*
X109882857Y-51201429D01*
X110054285Y-51201429D02*
X110054285Y-50601429D01*
X109997142Y-50687143D01*
X109940000Y-50744286D01*
X109882857Y-50772857D01*
X110568571Y-50858571D02*
X110511429Y-50830000D01*
X110482857Y-50801429D01*
X110454286Y-50744286D01*
X110454286Y-50715714D01*
X110482857Y-50658571D01*
X110511429Y-50630000D01*
X110568571Y-50601429D01*
X110682857Y-50601429D01*
X110740000Y-50630000D01*
X110768571Y-50658571D01*
X110797143Y-50715714D01*
X110797143Y-50744286D01*
X110768571Y-50801429D01*
X110740000Y-50830000D01*
X110682857Y-50858571D01*
X110568571Y-50858571D01*
X110511429Y-50887143D01*
X110482857Y-50915714D01*
X110454286Y-50972857D01*
X110454286Y-51087143D01*
X110482857Y-51144286D01*
X110511429Y-51172857D01*
X110568571Y-51201429D01*
X110682857Y-51201429D01*
X110740000Y-51172857D01*
X110768571Y-51144286D01*
X110797143Y-51087143D01*
X110797143Y-50972857D01*
X110768571Y-50915714D01*
X110740000Y-50887143D01*
X110682857Y-50858571D01*
X109684285Y-48981429D02*
X109484285Y-48695714D01*
X109341428Y-48981429D02*
X109341428Y-48381429D01*
X109570000Y-48381429D01*
X109627142Y-48410000D01*
X109655714Y-48438571D01*
X109684285Y-48495714D01*
X109684285Y-48581429D01*
X109655714Y-48638571D01*
X109627142Y-48667143D01*
X109570000Y-48695714D01*
X109341428Y-48695714D01*
X110255714Y-48981429D02*
X109912857Y-48981429D01*
X110084285Y-48981429D02*
X110084285Y-48381429D01*
X110027142Y-48467143D01*
X109970000Y-48524286D01*
X109912857Y-48552857D01*
X110541429Y-48981429D02*
X110655714Y-48981429D01*
X110712857Y-48952857D01*
X110741429Y-48924286D01*
X110798571Y-48838571D01*
X110827143Y-48724286D01*
X110827143Y-48495714D01*
X110798571Y-48438571D01*
X110770000Y-48410000D01*
X110712857Y-48381429D01*
X110598571Y-48381429D01*
X110541429Y-48410000D01*
X110512857Y-48438571D01*
X110484286Y-48495714D01*
X110484286Y-48638571D01*
X110512857Y-48695714D01*
X110541429Y-48724286D01*
X110598571Y-48752857D01*
X110712857Y-48752857D01*
X110770000Y-48724286D01*
X110798571Y-48695714D01*
X110827143Y-48638571D01*
X86694285Y-66211429D02*
X86494285Y-65925714D01*
X86351428Y-66211429D02*
X86351428Y-65611429D01*
X86580000Y-65611429D01*
X86637142Y-65640000D01*
X86665714Y-65668571D01*
X86694285Y-65725714D01*
X86694285Y-65811429D01*
X86665714Y-65868571D01*
X86637142Y-65897143D01*
X86580000Y-65925714D01*
X86351428Y-65925714D01*
X86922857Y-65668571D02*
X86951428Y-65640000D01*
X87008571Y-65611429D01*
X87151428Y-65611429D01*
X87208571Y-65640000D01*
X87237142Y-65668571D01*
X87265714Y-65725714D01*
X87265714Y-65782857D01*
X87237142Y-65868571D01*
X86894285Y-66211429D01*
X87265714Y-66211429D01*
X87637143Y-65611429D02*
X87694286Y-65611429D01*
X87751429Y-65640000D01*
X87780000Y-65668571D01*
X87808571Y-65725714D01*
X87837143Y-65840000D01*
X87837143Y-65982857D01*
X87808571Y-66097143D01*
X87780000Y-66154286D01*
X87751429Y-66182857D01*
X87694286Y-66211429D01*
X87637143Y-66211429D01*
X87580000Y-66182857D01*
X87551429Y-66154286D01*
X87522857Y-66097143D01*
X87494286Y-65982857D01*
X87494286Y-65840000D01*
X87522857Y-65725714D01*
X87551429Y-65668571D01*
X87580000Y-65640000D01*
X87637143Y-65611429D01*
X149414285Y-49151429D02*
X149214285Y-48865714D01*
X149071428Y-49151429D02*
X149071428Y-48551429D01*
X149300000Y-48551429D01*
X149357142Y-48580000D01*
X149385714Y-48608571D01*
X149414285Y-48665714D01*
X149414285Y-48751429D01*
X149385714Y-48808571D01*
X149357142Y-48837143D01*
X149300000Y-48865714D01*
X149071428Y-48865714D01*
X149642857Y-48608571D02*
X149671428Y-48580000D01*
X149728571Y-48551429D01*
X149871428Y-48551429D01*
X149928571Y-48580000D01*
X149957142Y-48608571D01*
X149985714Y-48665714D01*
X149985714Y-48722857D01*
X149957142Y-48808571D01*
X149614285Y-49151429D01*
X149985714Y-49151429D01*
X150557143Y-49151429D02*
X150214286Y-49151429D01*
X150385714Y-49151429D02*
X150385714Y-48551429D01*
X150328571Y-48637143D01*
X150271429Y-48694286D01*
X150214286Y-48722857D01*
X152674285Y-31491429D02*
X152474285Y-31205714D01*
X152331428Y-31491429D02*
X152331428Y-30891429D01*
X152560000Y-30891429D01*
X152617142Y-30920000D01*
X152645714Y-30948571D01*
X152674285Y-31005714D01*
X152674285Y-31091429D01*
X152645714Y-31148571D01*
X152617142Y-31177143D01*
X152560000Y-31205714D01*
X152331428Y-31205714D01*
X152902857Y-30948571D02*
X152931428Y-30920000D01*
X152988571Y-30891429D01*
X153131428Y-30891429D01*
X153188571Y-30920000D01*
X153217142Y-30948571D01*
X153245714Y-31005714D01*
X153245714Y-31062857D01*
X153217142Y-31148571D01*
X152874285Y-31491429D01*
X153245714Y-31491429D01*
X153474286Y-30948571D02*
X153502857Y-30920000D01*
X153560000Y-30891429D01*
X153702857Y-30891429D01*
X153760000Y-30920000D01*
X153788571Y-30948571D01*
X153817143Y-31005714D01*
X153817143Y-31062857D01*
X153788571Y-31148571D01*
X153445714Y-31491429D01*
X153817143Y-31491429D01*
X148454285Y-67731429D02*
X148254285Y-67445714D01*
X148111428Y-67731429D02*
X148111428Y-67131429D01*
X148340000Y-67131429D01*
X148397142Y-67160000D01*
X148425714Y-67188571D01*
X148454285Y-67245714D01*
X148454285Y-67331429D01*
X148425714Y-67388571D01*
X148397142Y-67417143D01*
X148340000Y-67445714D01*
X148111428Y-67445714D01*
X148682857Y-67188571D02*
X148711428Y-67160000D01*
X148768571Y-67131429D01*
X148911428Y-67131429D01*
X148968571Y-67160000D01*
X148997142Y-67188571D01*
X149025714Y-67245714D01*
X149025714Y-67302857D01*
X148997142Y-67388571D01*
X148654285Y-67731429D01*
X149025714Y-67731429D01*
X149225714Y-67131429D02*
X149597143Y-67131429D01*
X149397143Y-67360000D01*
X149482857Y-67360000D01*
X149540000Y-67388571D01*
X149568571Y-67417143D01*
X149597143Y-67474286D01*
X149597143Y-67617143D01*
X149568571Y-67674286D01*
X149540000Y-67702857D01*
X149482857Y-67731429D01*
X149311429Y-67731429D01*
X149254286Y-67702857D01*
X149225714Y-67674286D01*
X146184285Y-71141429D02*
X145984285Y-70855714D01*
X145841428Y-71141429D02*
X145841428Y-70541429D01*
X146070000Y-70541429D01*
X146127142Y-70570000D01*
X146155714Y-70598571D01*
X146184285Y-70655714D01*
X146184285Y-70741429D01*
X146155714Y-70798571D01*
X146127142Y-70827143D01*
X146070000Y-70855714D01*
X145841428Y-70855714D01*
X146412857Y-70598571D02*
X146441428Y-70570000D01*
X146498571Y-70541429D01*
X146641428Y-70541429D01*
X146698571Y-70570000D01*
X146727142Y-70598571D01*
X146755714Y-70655714D01*
X146755714Y-70712857D01*
X146727142Y-70798571D01*
X146384285Y-71141429D01*
X146755714Y-71141429D01*
X147270000Y-70741429D02*
X147270000Y-71141429D01*
X147127143Y-70512857D02*
X146984286Y-70941429D01*
X147355714Y-70941429D01*
X124984285Y-65771429D02*
X124784285Y-65485714D01*
X124641428Y-65771429D02*
X124641428Y-65171429D01*
X124870000Y-65171429D01*
X124927142Y-65200000D01*
X124955714Y-65228571D01*
X124984285Y-65285714D01*
X124984285Y-65371429D01*
X124955714Y-65428571D01*
X124927142Y-65457143D01*
X124870000Y-65485714D01*
X124641428Y-65485714D01*
X125212857Y-65228571D02*
X125241428Y-65200000D01*
X125298571Y-65171429D01*
X125441428Y-65171429D01*
X125498571Y-65200000D01*
X125527142Y-65228571D01*
X125555714Y-65285714D01*
X125555714Y-65342857D01*
X125527142Y-65428571D01*
X125184285Y-65771429D01*
X125555714Y-65771429D01*
X126098571Y-65171429D02*
X125812857Y-65171429D01*
X125784286Y-65457143D01*
X125812857Y-65428571D01*
X125870000Y-65400000D01*
X126012857Y-65400000D01*
X126070000Y-65428571D01*
X126098571Y-65457143D01*
X126127143Y-65514286D01*
X126127143Y-65657143D01*
X126098571Y-65714286D01*
X126070000Y-65742857D01*
X126012857Y-65771429D01*
X125870000Y-65771429D01*
X125812857Y-65742857D01*
X125784286Y-65714286D01*
X124944285Y-63311429D02*
X124744285Y-63025714D01*
X124601428Y-63311429D02*
X124601428Y-62711429D01*
X124830000Y-62711429D01*
X124887142Y-62740000D01*
X124915714Y-62768571D01*
X124944285Y-62825714D01*
X124944285Y-62911429D01*
X124915714Y-62968571D01*
X124887142Y-62997143D01*
X124830000Y-63025714D01*
X124601428Y-63025714D01*
X125172857Y-62768571D02*
X125201428Y-62740000D01*
X125258571Y-62711429D01*
X125401428Y-62711429D01*
X125458571Y-62740000D01*
X125487142Y-62768571D01*
X125515714Y-62825714D01*
X125515714Y-62882857D01*
X125487142Y-62968571D01*
X125144285Y-63311429D01*
X125515714Y-63311429D01*
X126030000Y-62711429D02*
X125915714Y-62711429D01*
X125858571Y-62740000D01*
X125830000Y-62768571D01*
X125772857Y-62854286D01*
X125744286Y-62968571D01*
X125744286Y-63197143D01*
X125772857Y-63254286D01*
X125801429Y-63282857D01*
X125858571Y-63311429D01*
X125972857Y-63311429D01*
X126030000Y-63282857D01*
X126058571Y-63254286D01*
X126087143Y-63197143D01*
X126087143Y-63054286D01*
X126058571Y-62997143D01*
X126030000Y-62968571D01*
X125972857Y-62940000D01*
X125858571Y-62940000D01*
X125801429Y-62968571D01*
X125772857Y-62997143D01*
X125744286Y-63054286D01*
X150054285Y-57231429D02*
X149854285Y-56945714D01*
X149711428Y-57231429D02*
X149711428Y-56631429D01*
X149940000Y-56631429D01*
X149997142Y-56660000D01*
X150025714Y-56688571D01*
X150054285Y-56745714D01*
X150054285Y-56831429D01*
X150025714Y-56888571D01*
X149997142Y-56917143D01*
X149940000Y-56945714D01*
X149711428Y-56945714D01*
X150282857Y-56688571D02*
X150311428Y-56660000D01*
X150368571Y-56631429D01*
X150511428Y-56631429D01*
X150568571Y-56660000D01*
X150597142Y-56688571D01*
X150625714Y-56745714D01*
X150625714Y-56802857D01*
X150597142Y-56888571D01*
X150254285Y-57231429D01*
X150625714Y-57231429D01*
X150911429Y-57231429D02*
X151025714Y-57231429D01*
X151082857Y-57202857D01*
X151111429Y-57174286D01*
X151168571Y-57088571D01*
X151197143Y-56974286D01*
X151197143Y-56745714D01*
X151168571Y-56688571D01*
X151140000Y-56660000D01*
X151082857Y-56631429D01*
X150968571Y-56631429D01*
X150911429Y-56660000D01*
X150882857Y-56688571D01*
X150854286Y-56745714D01*
X150854286Y-56888571D01*
X150882857Y-56945714D01*
X150911429Y-56974286D01*
X150968571Y-57002857D01*
X151082857Y-57002857D01*
X151140000Y-56974286D01*
X151168571Y-56945714D01*
X151197143Y-56888571D01*
X107124285Y-69181429D02*
X106924285Y-68895714D01*
X106781428Y-69181429D02*
X106781428Y-68581429D01*
X107010000Y-68581429D01*
X107067142Y-68610000D01*
X107095714Y-68638571D01*
X107124285Y-68695714D01*
X107124285Y-68781429D01*
X107095714Y-68838571D01*
X107067142Y-68867143D01*
X107010000Y-68895714D01*
X106781428Y-68895714D01*
X107324285Y-68581429D02*
X107695714Y-68581429D01*
X107495714Y-68810000D01*
X107581428Y-68810000D01*
X107638571Y-68838571D01*
X107667142Y-68867143D01*
X107695714Y-68924286D01*
X107695714Y-69067143D01*
X107667142Y-69124286D01*
X107638571Y-69152857D01*
X107581428Y-69181429D01*
X107410000Y-69181429D01*
X107352857Y-69152857D01*
X107324285Y-69124286D01*
X108067143Y-68581429D02*
X108124286Y-68581429D01*
X108181429Y-68610000D01*
X108210000Y-68638571D01*
X108238571Y-68695714D01*
X108267143Y-68810000D01*
X108267143Y-68952857D01*
X108238571Y-69067143D01*
X108210000Y-69124286D01*
X108181429Y-69152857D01*
X108124286Y-69181429D01*
X108067143Y-69181429D01*
X108010000Y-69152857D01*
X107981429Y-69124286D01*
X107952857Y-69067143D01*
X107924286Y-68952857D01*
X107924286Y-68810000D01*
X107952857Y-68695714D01*
X107981429Y-68638571D01*
X108010000Y-68610000D01*
X108067143Y-68581429D01*
X155084285Y-71141429D02*
X154884285Y-70855714D01*
X154741428Y-71141429D02*
X154741428Y-70541429D01*
X154970000Y-70541429D01*
X155027142Y-70570000D01*
X155055714Y-70598571D01*
X155084285Y-70655714D01*
X155084285Y-70741429D01*
X155055714Y-70798571D01*
X155027142Y-70827143D01*
X154970000Y-70855714D01*
X154741428Y-70855714D01*
X155284285Y-70541429D02*
X155655714Y-70541429D01*
X155455714Y-70770000D01*
X155541428Y-70770000D01*
X155598571Y-70798571D01*
X155627142Y-70827143D01*
X155655714Y-70884286D01*
X155655714Y-71027143D01*
X155627142Y-71084286D01*
X155598571Y-71112857D01*
X155541428Y-71141429D01*
X155370000Y-71141429D01*
X155312857Y-71112857D01*
X155284285Y-71084286D01*
X155855714Y-70541429D02*
X156227143Y-70541429D01*
X156027143Y-70770000D01*
X156112857Y-70770000D01*
X156170000Y-70798571D01*
X156198571Y-70827143D01*
X156227143Y-70884286D01*
X156227143Y-71027143D01*
X156198571Y-71084286D01*
X156170000Y-71112857D01*
X156112857Y-71141429D01*
X155941429Y-71141429D01*
X155884286Y-71112857D01*
X155855714Y-71084286D01*
X146594285Y-72861429D02*
X146394285Y-72575714D01*
X146251428Y-72861429D02*
X146251428Y-72261429D01*
X146480000Y-72261429D01*
X146537142Y-72290000D01*
X146565714Y-72318571D01*
X146594285Y-72375714D01*
X146594285Y-72461429D01*
X146565714Y-72518571D01*
X146537142Y-72547143D01*
X146480000Y-72575714D01*
X146251428Y-72575714D01*
X146794285Y-72261429D02*
X147165714Y-72261429D01*
X146965714Y-72490000D01*
X147051428Y-72490000D01*
X147108571Y-72518571D01*
X147137142Y-72547143D01*
X147165714Y-72604286D01*
X147165714Y-72747143D01*
X147137142Y-72804286D01*
X147108571Y-72832857D01*
X147051428Y-72861429D01*
X146880000Y-72861429D01*
X146822857Y-72832857D01*
X146794285Y-72804286D01*
X147680000Y-72461429D02*
X147680000Y-72861429D01*
X147537143Y-72232857D02*
X147394286Y-72661429D01*
X147765714Y-72661429D01*
X170454285Y-56121429D02*
X170254285Y-55835714D01*
X170111428Y-56121429D02*
X170111428Y-55521429D01*
X170340000Y-55521429D01*
X170397142Y-55550000D01*
X170425714Y-55578571D01*
X170454285Y-55635714D01*
X170454285Y-55721429D01*
X170425714Y-55778571D01*
X170397142Y-55807143D01*
X170340000Y-55835714D01*
X170111428Y-55835714D01*
X170654285Y-55521429D02*
X171025714Y-55521429D01*
X170825714Y-55750000D01*
X170911428Y-55750000D01*
X170968571Y-55778571D01*
X170997142Y-55807143D01*
X171025714Y-55864286D01*
X171025714Y-56007143D01*
X170997142Y-56064286D01*
X170968571Y-56092857D01*
X170911428Y-56121429D01*
X170740000Y-56121429D01*
X170682857Y-56092857D01*
X170654285Y-56064286D01*
X171568571Y-55521429D02*
X171282857Y-55521429D01*
X171254286Y-55807143D01*
X171282857Y-55778571D01*
X171340000Y-55750000D01*
X171482857Y-55750000D01*
X171540000Y-55778571D01*
X171568571Y-55807143D01*
X171597143Y-55864286D01*
X171597143Y-56007143D01*
X171568571Y-56064286D01*
X171540000Y-56092857D01*
X171482857Y-56121429D01*
X171340000Y-56121429D01*
X171282857Y-56092857D01*
X171254286Y-56064286D01*
X173784285Y-56161429D02*
X173584285Y-55875714D01*
X173441428Y-56161429D02*
X173441428Y-55561429D01*
X173670000Y-55561429D01*
X173727142Y-55590000D01*
X173755714Y-55618571D01*
X173784285Y-55675714D01*
X173784285Y-55761429D01*
X173755714Y-55818571D01*
X173727142Y-55847143D01*
X173670000Y-55875714D01*
X173441428Y-55875714D01*
X173984285Y-55561429D02*
X174355714Y-55561429D01*
X174155714Y-55790000D01*
X174241428Y-55790000D01*
X174298571Y-55818571D01*
X174327142Y-55847143D01*
X174355714Y-55904286D01*
X174355714Y-56047143D01*
X174327142Y-56104286D01*
X174298571Y-56132857D01*
X174241428Y-56161429D01*
X174070000Y-56161429D01*
X174012857Y-56132857D01*
X173984285Y-56104286D01*
X174870000Y-55561429D02*
X174755714Y-55561429D01*
X174698571Y-55590000D01*
X174670000Y-55618571D01*
X174612857Y-55704286D01*
X174584286Y-55818571D01*
X174584286Y-56047143D01*
X174612857Y-56104286D01*
X174641429Y-56132857D01*
X174698571Y-56161429D01*
X174812857Y-56161429D01*
X174870000Y-56132857D01*
X174898571Y-56104286D01*
X174927143Y-56047143D01*
X174927143Y-55904286D01*
X174898571Y-55847143D01*
X174870000Y-55818571D01*
X174812857Y-55790000D01*
X174698571Y-55790000D01*
X174641429Y-55818571D01*
X174612857Y-55847143D01*
X174584286Y-55904286D01*
X143100000Y-80292857D02*
X143185714Y-80321429D01*
X143328571Y-80321429D01*
X143385714Y-80292857D01*
X143414285Y-80264286D01*
X143442857Y-80207143D01*
X143442857Y-80150000D01*
X143414285Y-80092857D01*
X143385714Y-80064286D01*
X143328571Y-80035714D01*
X143214285Y-80007143D01*
X143157143Y-79978571D01*
X143128571Y-79950000D01*
X143100000Y-79892857D01*
X143100000Y-79835714D01*
X143128571Y-79778571D01*
X143157143Y-79750000D01*
X143214285Y-79721429D01*
X143357143Y-79721429D01*
X143442857Y-79750000D01*
X143642857Y-79721429D02*
X143785714Y-80321429D01*
X143900000Y-79892857D01*
X144014286Y-80321429D01*
X144157143Y-79721429D01*
X144700000Y-80321429D02*
X144357143Y-80321429D01*
X144528571Y-80321429D02*
X144528571Y-79721429D01*
X144471428Y-79807143D01*
X144414286Y-79864286D01*
X144357143Y-79892857D01*
D11*
X126648572Y-31499286D02*
X127077143Y-31499286D01*
X126862857Y-32249286D02*
X126862857Y-31499286D01*
X127720001Y-32249286D02*
X127291429Y-32249286D01*
X127505715Y-32249286D02*
X127505715Y-31499286D01*
X127434286Y-31606429D01*
X127362858Y-31677857D01*
X127291429Y-31713571D01*
D12*
X135082857Y-48521429D02*
X135082857Y-49007143D01*
X135111429Y-49064286D01*
X135140000Y-49092857D01*
X135197143Y-49121429D01*
X135311429Y-49121429D01*
X135368571Y-49092857D01*
X135397143Y-49064286D01*
X135425714Y-49007143D01*
X135425714Y-48521429D01*
X135654285Y-48521429D02*
X136025714Y-48521429D01*
X135825714Y-48750000D01*
X135911428Y-48750000D01*
X135968571Y-48778571D01*
X135997142Y-48807143D01*
X136025714Y-48864286D01*
X136025714Y-49007143D01*
X135997142Y-49064286D01*
X135968571Y-49092857D01*
X135911428Y-49121429D01*
X135740000Y-49121429D01*
X135682857Y-49092857D01*
X135654285Y-49064286D01*
X121988571Y-59579286D02*
X121988571Y-60186429D01*
X122024286Y-60257857D01*
X122060000Y-60293571D01*
X122131429Y-60329286D01*
X122274286Y-60329286D01*
X122345714Y-60293571D01*
X122381429Y-60257857D01*
X122417143Y-60186429D01*
X122417143Y-59579286D01*
X123095714Y-59829286D02*
X123095714Y-60329286D01*
X122917143Y-59543571D02*
X122738571Y-60079286D01*
X123202857Y-60079286D01*
X139608571Y-68009286D02*
X139608571Y-68616429D01*
X139644286Y-68687857D01*
X139680000Y-68723571D01*
X139751429Y-68759286D01*
X139894286Y-68759286D01*
X139965714Y-68723571D01*
X140001429Y-68687857D01*
X140037143Y-68616429D01*
X140037143Y-68009286D01*
X140751428Y-68009286D02*
X140394285Y-68009286D01*
X140358571Y-68366429D01*
X140394285Y-68330714D01*
X140465714Y-68295000D01*
X140644285Y-68295000D01*
X140715714Y-68330714D01*
X140751428Y-68366429D01*
X140787143Y-68437857D01*
X140787143Y-68616429D01*
X140751428Y-68687857D01*
X140715714Y-68723571D01*
X140644285Y-68759286D01*
X140465714Y-68759286D01*
X140394285Y-68723571D01*
X140358571Y-68687857D01*
M02*
