%FSLAX46Y46*%
G04 Gerber Fmt 4.6, Leading zero omitted, Abs format (unit mm)*
G04 Created by KiCad (PCBNEW (2014-08-12 BZR 5067)-product) date Tue 26 Aug 2014 12:58:06 PM EDT*
%MOMM*%
G01*
G04 APERTURE LIST*
%ADD10C,0.100000*%
%ADD11C,0.150000*%
%ADD12C,0.250000*%
%ADD13C,0.187500*%
%ADD14C,0.300000*%
%ADD15C,0.080000*%
%ADD16C,0.200000*%
%ADD17C,0.127000*%
%ADD18C,0.078740*%
%ADD19C,0.066040*%
%ADD20C,0.101600*%
%ADD21C,0.099060*%
%ADD22C,0.119380*%
%ADD23C,0.381000*%
%ADD24C,0.114300*%
G04 APERTURE END LIST*
D10*
D11*
X170445000Y-69769286D02*
X170445000Y-69019286D01*
X170695000Y-69555000D01*
X170945000Y-69019286D01*
X170945000Y-69769286D01*
X171730715Y-69697857D02*
X171695001Y-69733571D01*
X171587858Y-69769286D01*
X171516429Y-69769286D01*
X171409286Y-69733571D01*
X171337858Y-69662143D01*
X171302143Y-69590714D01*
X171266429Y-69447857D01*
X171266429Y-69340714D01*
X171302143Y-69197857D01*
X171337858Y-69126429D01*
X171409286Y-69055000D01*
X171516429Y-69019286D01*
X171587858Y-69019286D01*
X171695001Y-69055000D01*
X171730715Y-69090714D01*
X172052143Y-69019286D02*
X172052143Y-69626429D01*
X172087858Y-69697857D01*
X172123572Y-69733571D01*
X172195001Y-69769286D01*
X172337858Y-69769286D01*
X172409286Y-69733571D01*
X172445001Y-69697857D01*
X172480715Y-69626429D01*
X172480715Y-69019286D01*
X173409286Y-69769286D02*
X173409286Y-69019286D01*
X173695001Y-69019286D01*
X173766429Y-69055000D01*
X173802144Y-69090714D01*
X173837858Y-69162143D01*
X173837858Y-69269286D01*
X173802144Y-69340714D01*
X173766429Y-69376429D01*
X173695001Y-69412143D01*
X173409286Y-69412143D01*
X174266429Y-69769286D02*
X174195001Y-69733571D01*
X174159286Y-69697857D01*
X174123572Y-69626429D01*
X174123572Y-69412143D01*
X174159286Y-69340714D01*
X174195001Y-69305000D01*
X174266429Y-69269286D01*
X174373572Y-69269286D01*
X174445001Y-69305000D01*
X174480715Y-69340714D01*
X174516429Y-69412143D01*
X174516429Y-69626429D01*
X174480715Y-69697857D01*
X174445001Y-69733571D01*
X174373572Y-69769286D01*
X174266429Y-69769286D01*
X174837857Y-69769286D02*
X174837857Y-69269286D01*
X174837857Y-69412143D02*
X174873572Y-69340714D01*
X174909286Y-69305000D01*
X174980715Y-69269286D01*
X175052143Y-69269286D01*
X175195001Y-69269286D02*
X175480715Y-69269286D01*
X175302143Y-69019286D02*
X175302143Y-69662143D01*
X175337858Y-69733571D01*
X175409286Y-69769286D01*
X175480715Y-69769286D01*
X176730715Y-69697857D02*
X176695001Y-69733571D01*
X176587858Y-69769286D01*
X176516429Y-69769286D01*
X176409286Y-69733571D01*
X176337858Y-69662143D01*
X176302143Y-69590714D01*
X176266429Y-69447857D01*
X176266429Y-69340714D01*
X176302143Y-69197857D01*
X176337858Y-69126429D01*
X176409286Y-69055000D01*
X176516429Y-69019286D01*
X176587858Y-69019286D01*
X176695001Y-69055000D01*
X176730715Y-69090714D01*
X166839286Y-79185000D02*
X166089286Y-79185000D01*
X166625000Y-78935000D01*
X166089286Y-78685000D01*
X166839286Y-78685000D01*
X166767857Y-77899285D02*
X166803571Y-77934999D01*
X166839286Y-78042142D01*
X166839286Y-78113571D01*
X166803571Y-78220714D01*
X166732143Y-78292142D01*
X166660714Y-78327857D01*
X166517857Y-78363571D01*
X166410714Y-78363571D01*
X166267857Y-78327857D01*
X166196429Y-78292142D01*
X166125000Y-78220714D01*
X166089286Y-78113571D01*
X166089286Y-78042142D01*
X166125000Y-77934999D01*
X166160714Y-77899285D01*
X166089286Y-77577857D02*
X166696429Y-77577857D01*
X166767857Y-77542142D01*
X166803571Y-77506428D01*
X166839286Y-77434999D01*
X166839286Y-77292142D01*
X166803571Y-77220714D01*
X166767857Y-77184999D01*
X166696429Y-77149285D01*
X166089286Y-77149285D01*
X166839286Y-76220714D02*
X166089286Y-76220714D01*
X166089286Y-75934999D01*
X166125000Y-75863571D01*
X166160714Y-75827856D01*
X166232143Y-75792142D01*
X166339286Y-75792142D01*
X166410714Y-75827856D01*
X166446429Y-75863571D01*
X166482143Y-75934999D01*
X166482143Y-76220714D01*
X166839286Y-75363571D02*
X166803571Y-75434999D01*
X166767857Y-75470714D01*
X166696429Y-75506428D01*
X166482143Y-75506428D01*
X166410714Y-75470714D01*
X166375000Y-75434999D01*
X166339286Y-75363571D01*
X166339286Y-75256428D01*
X166375000Y-75184999D01*
X166410714Y-75149285D01*
X166482143Y-75113571D01*
X166696429Y-75113571D01*
X166767857Y-75149285D01*
X166803571Y-75184999D01*
X166839286Y-75256428D01*
X166839286Y-75363571D01*
X166839286Y-74792143D02*
X166339286Y-74792143D01*
X166482143Y-74792143D02*
X166410714Y-74756428D01*
X166375000Y-74720714D01*
X166339286Y-74649285D01*
X166339286Y-74577857D01*
X166339286Y-74434999D02*
X166339286Y-74149285D01*
X166089286Y-74327857D02*
X166732143Y-74327857D01*
X166803571Y-74292142D01*
X166839286Y-74220714D01*
X166839286Y-74149285D01*
X166446429Y-73077857D02*
X166482143Y-72970714D01*
X166517857Y-72934999D01*
X166589286Y-72899285D01*
X166696429Y-72899285D01*
X166767857Y-72934999D01*
X166803571Y-72970714D01*
X166839286Y-73042142D01*
X166839286Y-73327857D01*
X166089286Y-73327857D01*
X166089286Y-73077857D01*
X166125000Y-73006428D01*
X166160714Y-72970714D01*
X166232143Y-72934999D01*
X166303571Y-72934999D01*
X166375000Y-72970714D01*
X166410714Y-73006428D01*
X166446429Y-73077857D01*
X166446429Y-73327857D01*
X140719286Y-77338571D02*
X140362143Y-77588571D01*
X140719286Y-77767143D02*
X139969286Y-77767143D01*
X139969286Y-77481428D01*
X140005000Y-77410000D01*
X140040714Y-77374285D01*
X140112143Y-77338571D01*
X140219286Y-77338571D01*
X140290714Y-77374285D01*
X140326429Y-77410000D01*
X140362143Y-77481428D01*
X140362143Y-77767143D01*
X140683571Y-76731428D02*
X140719286Y-76802857D01*
X140719286Y-76945714D01*
X140683571Y-77017143D01*
X140612143Y-77052857D01*
X140326429Y-77052857D01*
X140255000Y-77017143D01*
X140219286Y-76945714D01*
X140219286Y-76802857D01*
X140255000Y-76731428D01*
X140326429Y-76695714D01*
X140397857Y-76695714D01*
X140469286Y-77052857D01*
X140683571Y-76410000D02*
X140719286Y-76338571D01*
X140719286Y-76195714D01*
X140683571Y-76124286D01*
X140612143Y-76088571D01*
X140576429Y-76088571D01*
X140505000Y-76124286D01*
X140469286Y-76195714D01*
X140469286Y-76302857D01*
X140433571Y-76374286D01*
X140362143Y-76410000D01*
X140326429Y-76410000D01*
X140255000Y-76374286D01*
X140219286Y-76302857D01*
X140219286Y-76195714D01*
X140255000Y-76124286D01*
X140683571Y-75481428D02*
X140719286Y-75552857D01*
X140719286Y-75695714D01*
X140683571Y-75767143D01*
X140612143Y-75802857D01*
X140326429Y-75802857D01*
X140255000Y-75767143D01*
X140219286Y-75695714D01*
X140219286Y-75552857D01*
X140255000Y-75481428D01*
X140326429Y-75445714D01*
X140397857Y-75445714D01*
X140469286Y-75802857D01*
X140219286Y-75231428D02*
X140219286Y-74945714D01*
X139969286Y-75124286D02*
X140612143Y-75124286D01*
X140683571Y-75088571D01*
X140719286Y-75017143D01*
X140719286Y-74945714D01*
X154999524Y-34752381D02*
X154523333Y-34752381D01*
X154475714Y-35228571D01*
X154523333Y-35180952D01*
X154618571Y-35133333D01*
X154856667Y-35133333D01*
X154951905Y-35180952D01*
X154999524Y-35228571D01*
X155047143Y-35323810D01*
X155047143Y-35561905D01*
X154999524Y-35657143D01*
X154951905Y-35704762D01*
X154856667Y-35752381D01*
X154618571Y-35752381D01*
X154523333Y-35704762D01*
X154475714Y-35657143D01*
X155332857Y-34752381D02*
X155666190Y-35752381D01*
X155999524Y-34752381D01*
D12*
X87697619Y-68967143D02*
X87650000Y-69014762D01*
X87507143Y-69062381D01*
X87411905Y-69062381D01*
X87269047Y-69014762D01*
X87173809Y-68919524D01*
X87126190Y-68824286D01*
X87078571Y-68633810D01*
X87078571Y-68490952D01*
X87126190Y-68300476D01*
X87173809Y-68205238D01*
X87269047Y-68110000D01*
X87411905Y-68062381D01*
X87507143Y-68062381D01*
X87650000Y-68110000D01*
X87697619Y-68157619D01*
X88126190Y-68538571D02*
X88459524Y-68538571D01*
X88602381Y-69062381D02*
X88126190Y-69062381D01*
X88126190Y-68062381D01*
X88602381Y-68062381D01*
X89602381Y-69062381D02*
X89269047Y-68586190D01*
X89030952Y-69062381D02*
X89030952Y-68062381D01*
X89411905Y-68062381D01*
X89507143Y-68110000D01*
X89554762Y-68157619D01*
X89602381Y-68252857D01*
X89602381Y-68395714D01*
X89554762Y-68490952D01*
X89507143Y-68538571D01*
X89411905Y-68586190D01*
X89030952Y-68586190D01*
X90030952Y-69062381D02*
X90030952Y-68062381D01*
X90602381Y-69062381D01*
X90602381Y-68062381D01*
X92030952Y-68062381D02*
X92221429Y-68062381D01*
X92316667Y-68110000D01*
X92411905Y-68205238D01*
X92459524Y-68395714D01*
X92459524Y-68729048D01*
X92411905Y-68919524D01*
X92316667Y-69014762D01*
X92221429Y-69062381D01*
X92030952Y-69062381D01*
X91935714Y-69014762D01*
X91840476Y-68919524D01*
X91792857Y-68729048D01*
X91792857Y-68395714D01*
X91840476Y-68205238D01*
X91935714Y-68110000D01*
X92030952Y-68062381D01*
X92888095Y-69062381D02*
X92888095Y-68062381D01*
X92888095Y-68538571D02*
X93459524Y-68538571D01*
X93459524Y-69062381D02*
X93459524Y-68062381D01*
X94411905Y-69062381D02*
X93935714Y-69062381D01*
X93935714Y-68062381D01*
X95411905Y-68395714D02*
X95650000Y-69062381D01*
X95888096Y-68395714D01*
X96792858Y-69062381D02*
X96221429Y-69062381D01*
X96507143Y-69062381D02*
X96507143Y-68062381D01*
X96411905Y-68205238D01*
X96316667Y-68300476D01*
X96221429Y-68348095D01*
X97221429Y-68967143D02*
X97269048Y-69014762D01*
X97221429Y-69062381D01*
X97173810Y-69014762D01*
X97221429Y-68967143D01*
X97221429Y-69062381D01*
X97650000Y-68157619D02*
X97697619Y-68110000D01*
X97792857Y-68062381D01*
X98030953Y-68062381D01*
X98126191Y-68110000D01*
X98173810Y-68157619D01*
X98221429Y-68252857D01*
X98221429Y-68348095D01*
X98173810Y-68490952D01*
X97602381Y-69062381D01*
X98221429Y-69062381D01*
D13*
X110613571Y-78906429D02*
X110720714Y-78942143D01*
X110756429Y-78977857D01*
X110792143Y-79049286D01*
X110792143Y-79156429D01*
X110756429Y-79227857D01*
X110720714Y-79263571D01*
X110649286Y-79299286D01*
X110363571Y-79299286D01*
X110363571Y-78549286D01*
X110613571Y-78549286D01*
X110685000Y-78585000D01*
X110720714Y-78620714D01*
X110756429Y-78692143D01*
X110756429Y-78763571D01*
X110720714Y-78835000D01*
X110685000Y-78870714D01*
X110613571Y-78906429D01*
X110363571Y-78906429D01*
X111220714Y-79299286D02*
X111149286Y-79263571D01*
X111113571Y-79227857D01*
X111077857Y-79156429D01*
X111077857Y-78942143D01*
X111113571Y-78870714D01*
X111149286Y-78835000D01*
X111220714Y-78799286D01*
X111327857Y-78799286D01*
X111399286Y-78835000D01*
X111435000Y-78870714D01*
X111470714Y-78942143D01*
X111470714Y-79156429D01*
X111435000Y-79227857D01*
X111399286Y-79263571D01*
X111327857Y-79299286D01*
X111220714Y-79299286D01*
X112113571Y-79299286D02*
X112113571Y-78906429D01*
X112077857Y-78835000D01*
X112006428Y-78799286D01*
X111863571Y-78799286D01*
X111792142Y-78835000D01*
X112113571Y-79263571D02*
X112042142Y-79299286D01*
X111863571Y-79299286D01*
X111792142Y-79263571D01*
X111756428Y-79192143D01*
X111756428Y-79120714D01*
X111792142Y-79049286D01*
X111863571Y-79013571D01*
X112042142Y-79013571D01*
X112113571Y-78977857D01*
X112470713Y-79299286D02*
X112470713Y-78799286D01*
X112470713Y-78942143D02*
X112506428Y-78870714D01*
X112542142Y-78835000D01*
X112613571Y-78799286D01*
X112684999Y-78799286D01*
X113256428Y-79299286D02*
X113256428Y-78549286D01*
X113256428Y-79263571D02*
X113184999Y-79299286D01*
X113042142Y-79299286D01*
X112970714Y-79263571D01*
X112934999Y-79227857D01*
X112899285Y-79156429D01*
X112899285Y-78942143D01*
X112934999Y-78870714D01*
X112970714Y-78835000D01*
X113042142Y-78799286D01*
X113184999Y-78799286D01*
X113256428Y-78835000D01*
X114542142Y-79299286D02*
X114184999Y-79299286D01*
X114184999Y-78549286D01*
X115113571Y-79299286D02*
X115113571Y-78906429D01*
X115077857Y-78835000D01*
X115006428Y-78799286D01*
X114863571Y-78799286D01*
X114792142Y-78835000D01*
X115113571Y-79263571D02*
X115042142Y-79299286D01*
X114863571Y-79299286D01*
X114792142Y-79263571D01*
X114756428Y-79192143D01*
X114756428Y-79120714D01*
X114792142Y-79049286D01*
X114863571Y-79013571D01*
X115042142Y-79013571D01*
X115113571Y-78977857D01*
X115399285Y-78799286D02*
X115577856Y-79299286D01*
X115756428Y-78799286D02*
X115577856Y-79299286D01*
X115506428Y-79477857D01*
X115470713Y-79513571D01*
X115399285Y-79549286D01*
X116327857Y-79263571D02*
X116256428Y-79299286D01*
X116113571Y-79299286D01*
X116042142Y-79263571D01*
X116006428Y-79192143D01*
X116006428Y-78906429D01*
X116042142Y-78835000D01*
X116113571Y-78799286D01*
X116256428Y-78799286D01*
X116327857Y-78835000D01*
X116363571Y-78906429D01*
X116363571Y-78977857D01*
X116006428Y-79049286D01*
X116684999Y-79299286D02*
X116684999Y-78799286D01*
X116684999Y-78942143D02*
X116720714Y-78870714D01*
X116756428Y-78835000D01*
X116827857Y-78799286D01*
X116899285Y-78799286D01*
X117113571Y-79263571D02*
X117185000Y-79299286D01*
X117327857Y-79299286D01*
X117399285Y-79263571D01*
X117435000Y-79192143D01*
X117435000Y-79156429D01*
X117399285Y-79085000D01*
X117327857Y-79049286D01*
X117220714Y-79049286D01*
X117149285Y-79013571D01*
X117113571Y-78942143D01*
X117113571Y-78906429D01*
X117149285Y-78835000D01*
X117220714Y-78799286D01*
X117327857Y-78799286D01*
X117399285Y-78835000D01*
X117756428Y-79227857D02*
X117792143Y-79263571D01*
X117756428Y-79299286D01*
X117720714Y-79263571D01*
X117756428Y-79227857D01*
X117756428Y-79299286D01*
X117756428Y-78835000D02*
X117792143Y-78870714D01*
X117756428Y-78906429D01*
X117720714Y-78870714D01*
X117756428Y-78835000D01*
X117756428Y-78906429D01*
D14*
X87645714Y-71668571D02*
X87645714Y-72740000D01*
X87574286Y-72954286D01*
X87431429Y-73097143D01*
X87217143Y-73168571D01*
X87074286Y-73168571D01*
X88574286Y-73168571D02*
X88431428Y-73097143D01*
X88360000Y-73025714D01*
X88288571Y-72882857D01*
X88288571Y-72454286D01*
X88360000Y-72311429D01*
X88431428Y-72240000D01*
X88574286Y-72168571D01*
X88788571Y-72168571D01*
X88931428Y-72240000D01*
X89002857Y-72311429D01*
X89074286Y-72454286D01*
X89074286Y-72882857D01*
X89002857Y-73025714D01*
X88931428Y-73097143D01*
X88788571Y-73168571D01*
X88574286Y-73168571D01*
X89717143Y-72168571D02*
X89717143Y-73168571D01*
X89717143Y-72311429D02*
X89788571Y-72240000D01*
X89931429Y-72168571D01*
X90145714Y-72168571D01*
X90288571Y-72240000D01*
X90360000Y-72382857D01*
X90360000Y-73168571D01*
X92217143Y-73168571D02*
X92217143Y-71668571D01*
X93074286Y-73168571D01*
X93074286Y-71668571D01*
X94360000Y-73097143D02*
X94217143Y-73168571D01*
X93931429Y-73168571D01*
X93788572Y-73097143D01*
X93717143Y-72954286D01*
X93717143Y-72382857D01*
X93788572Y-72240000D01*
X93931429Y-72168571D01*
X94217143Y-72168571D01*
X94360000Y-72240000D01*
X94431429Y-72382857D01*
X94431429Y-72525714D01*
X93717143Y-72668571D01*
X95717143Y-73168571D02*
X95717143Y-72382857D01*
X95645714Y-72240000D01*
X95502857Y-72168571D01*
X95217143Y-72168571D01*
X95074286Y-72240000D01*
X95717143Y-73097143D02*
X95574286Y-73168571D01*
X95217143Y-73168571D01*
X95074286Y-73097143D01*
X95002857Y-72954286D01*
X95002857Y-72811429D01*
X95074286Y-72668571D01*
X95217143Y-72597143D01*
X95574286Y-72597143D01*
X95717143Y-72525714D01*
X96645715Y-73168571D02*
X96502857Y-73097143D01*
X96431429Y-72954286D01*
X96431429Y-71668571D01*
X87217143Y-75568571D02*
X87217143Y-74068571D01*
X87860000Y-75568571D02*
X87860000Y-74782857D01*
X87788571Y-74640000D01*
X87645714Y-74568571D01*
X87431429Y-74568571D01*
X87288571Y-74640000D01*
X87217143Y-74711429D01*
X88360000Y-74568571D02*
X88931429Y-74568571D01*
X88574286Y-74068571D02*
X88574286Y-75354286D01*
X88645714Y-75497143D01*
X88788572Y-75568571D01*
X88931429Y-75568571D01*
X89217143Y-74568571D02*
X89788572Y-74568571D01*
X89431429Y-74068571D02*
X89431429Y-75354286D01*
X89502857Y-75497143D01*
X89645715Y-75568571D01*
X89788572Y-75568571D01*
X90288572Y-74568571D02*
X90288572Y-76068571D01*
X90288572Y-74640000D02*
X90431429Y-74568571D01*
X90717143Y-74568571D01*
X90860000Y-74640000D01*
X90931429Y-74711429D01*
X91002858Y-74854286D01*
X91002858Y-75282857D01*
X90931429Y-75425714D01*
X90860000Y-75497143D01*
X90717143Y-75568571D01*
X90431429Y-75568571D01*
X90288572Y-75497143D01*
X91574286Y-75497143D02*
X91717143Y-75568571D01*
X92002858Y-75568571D01*
X92145715Y-75497143D01*
X92217143Y-75354286D01*
X92217143Y-75282857D01*
X92145715Y-75140000D01*
X92002858Y-75068571D01*
X91788572Y-75068571D01*
X91645715Y-74997143D01*
X91574286Y-74854286D01*
X91574286Y-74782857D01*
X91645715Y-74640000D01*
X91788572Y-74568571D01*
X92002858Y-74568571D01*
X92145715Y-74640000D01*
X92860001Y-75425714D02*
X92931429Y-75497143D01*
X92860001Y-75568571D01*
X92788572Y-75497143D01*
X92860001Y-75425714D01*
X92860001Y-75568571D01*
X92860001Y-74640000D02*
X92931429Y-74711429D01*
X92860001Y-74782857D01*
X92788572Y-74711429D01*
X92860001Y-74640000D01*
X92860001Y-74782857D01*
X94645715Y-73997143D02*
X93360001Y-75925714D01*
X96217144Y-73997143D02*
X94931430Y-75925714D01*
X97360002Y-74568571D02*
X97360002Y-75782857D01*
X97288573Y-75925714D01*
X97217145Y-75997143D01*
X97074288Y-76068571D01*
X96860002Y-76068571D01*
X96717145Y-75997143D01*
X97360002Y-75497143D02*
X97217145Y-75568571D01*
X96931431Y-75568571D01*
X96788573Y-75497143D01*
X96717145Y-75425714D01*
X96645716Y-75282857D01*
X96645716Y-74854286D01*
X96717145Y-74711429D01*
X96788573Y-74640000D01*
X96931431Y-74568571D01*
X97217145Y-74568571D01*
X97360002Y-74640000D01*
X98074288Y-75568571D02*
X98074288Y-74568571D01*
X98074288Y-74068571D02*
X98002859Y-74140000D01*
X98074288Y-74211429D01*
X98145716Y-74140000D01*
X98074288Y-74068571D01*
X98074288Y-74211429D01*
X98574288Y-74568571D02*
X99145717Y-74568571D01*
X98788574Y-74068571D02*
X98788574Y-75354286D01*
X98860002Y-75497143D01*
X99002860Y-75568571D01*
X99145717Y-75568571D01*
X99645717Y-75568571D02*
X99645717Y-74068571D01*
X100288574Y-75568571D02*
X100288574Y-74782857D01*
X100217145Y-74640000D01*
X100074288Y-74568571D01*
X99860003Y-74568571D01*
X99717145Y-74640000D01*
X99645717Y-74711429D01*
X101645717Y-74568571D02*
X101645717Y-75568571D01*
X101002860Y-74568571D02*
X101002860Y-75354286D01*
X101074288Y-75497143D01*
X101217146Y-75568571D01*
X101431431Y-75568571D01*
X101574288Y-75497143D01*
X101645717Y-75425714D01*
X102360003Y-75568571D02*
X102360003Y-74068571D01*
X102360003Y-74640000D02*
X102502860Y-74568571D01*
X102788574Y-74568571D01*
X102931431Y-74640000D01*
X103002860Y-74711429D01*
X103074289Y-74854286D01*
X103074289Y-75282857D01*
X103002860Y-75425714D01*
X102931431Y-75497143D01*
X102788574Y-75568571D01*
X102502860Y-75568571D01*
X102360003Y-75497143D01*
X103717146Y-75425714D02*
X103788574Y-75497143D01*
X103717146Y-75568571D01*
X103645717Y-75497143D01*
X103717146Y-75425714D01*
X103717146Y-75568571D01*
X105074289Y-75497143D02*
X104931432Y-75568571D01*
X104645718Y-75568571D01*
X104502860Y-75497143D01*
X104431432Y-75425714D01*
X104360003Y-75282857D01*
X104360003Y-74854286D01*
X104431432Y-74711429D01*
X104502860Y-74640000D01*
X104645718Y-74568571D01*
X104931432Y-74568571D01*
X105074289Y-74640000D01*
X105931432Y-75568571D02*
X105788574Y-75497143D01*
X105717146Y-75425714D01*
X105645717Y-75282857D01*
X105645717Y-74854286D01*
X105717146Y-74711429D01*
X105788574Y-74640000D01*
X105931432Y-74568571D01*
X106145717Y-74568571D01*
X106288574Y-74640000D01*
X106360003Y-74711429D01*
X106431432Y-74854286D01*
X106431432Y-75282857D01*
X106360003Y-75425714D01*
X106288574Y-75497143D01*
X106145717Y-75568571D01*
X105931432Y-75568571D01*
X107074289Y-75568571D02*
X107074289Y-74568571D01*
X107074289Y-74711429D02*
X107145717Y-74640000D01*
X107288575Y-74568571D01*
X107502860Y-74568571D01*
X107645717Y-74640000D01*
X107717146Y-74782857D01*
X107717146Y-75568571D01*
X107717146Y-74782857D02*
X107788575Y-74640000D01*
X107931432Y-74568571D01*
X108145717Y-74568571D01*
X108288575Y-74640000D01*
X108360003Y-74782857D01*
X108360003Y-75568571D01*
X110145717Y-73997143D02*
X108860003Y-75925714D01*
X110645718Y-75568571D02*
X110645718Y-74568571D01*
X110645718Y-74854286D02*
X110717146Y-74711429D01*
X110788575Y-74640000D01*
X110931432Y-74568571D01*
X111074289Y-74568571D01*
X112145717Y-75497143D02*
X112002860Y-75568571D01*
X111717146Y-75568571D01*
X111574289Y-75497143D01*
X111502860Y-75354286D01*
X111502860Y-74782857D01*
X111574289Y-74640000D01*
X111717146Y-74568571D01*
X112002860Y-74568571D01*
X112145717Y-74640000D01*
X112217146Y-74782857D01*
X112217146Y-74925714D01*
X111502860Y-75068571D01*
X112860003Y-74568571D02*
X112860003Y-76068571D01*
X112860003Y-74640000D02*
X113002860Y-74568571D01*
X113288574Y-74568571D01*
X113431431Y-74640000D01*
X113502860Y-74711429D01*
X113574289Y-74854286D01*
X113574289Y-75282857D01*
X113502860Y-75425714D01*
X113431431Y-75497143D01*
X113288574Y-75568571D01*
X113002860Y-75568571D01*
X112860003Y-75497143D01*
X114431432Y-75568571D02*
X114288574Y-75497143D01*
X114217146Y-75425714D01*
X114145717Y-75282857D01*
X114145717Y-74854286D01*
X114217146Y-74711429D01*
X114288574Y-74640000D01*
X114431432Y-74568571D01*
X114645717Y-74568571D01*
X114788574Y-74640000D01*
X114860003Y-74711429D01*
X114931432Y-74854286D01*
X114931432Y-75282857D01*
X114860003Y-75425714D01*
X114788574Y-75497143D01*
X114645717Y-75568571D01*
X114431432Y-75568571D01*
X115574289Y-75568571D02*
X115574289Y-74568571D01*
X115574289Y-74854286D02*
X115645717Y-74711429D01*
X115717146Y-74640000D01*
X115860003Y-74568571D01*
X116002860Y-74568571D01*
X116288574Y-74568571D02*
X116860003Y-74568571D01*
X116502860Y-74068571D02*
X116502860Y-75354286D01*
X116574288Y-75497143D01*
X116717146Y-75568571D01*
X116860003Y-75568571D01*
X117360003Y-75568571D02*
X117360003Y-74568571D01*
X117360003Y-74068571D02*
X117288574Y-74140000D01*
X117360003Y-74211429D01*
X117431431Y-74140000D01*
X117360003Y-74068571D01*
X117360003Y-74211429D01*
X118074289Y-74568571D02*
X118074289Y-75568571D01*
X118074289Y-74711429D02*
X118145717Y-74640000D01*
X118288575Y-74568571D01*
X118502860Y-74568571D01*
X118645717Y-74640000D01*
X118717146Y-74782857D01*
X118717146Y-75568571D01*
X120074289Y-74568571D02*
X120074289Y-75782857D01*
X120002860Y-75925714D01*
X119931432Y-75997143D01*
X119788575Y-76068571D01*
X119574289Y-76068571D01*
X119431432Y-75997143D01*
X120074289Y-75497143D02*
X119931432Y-75568571D01*
X119645718Y-75568571D01*
X119502860Y-75497143D01*
X119431432Y-75425714D01*
X119360003Y-75282857D01*
X119360003Y-74854286D01*
X119431432Y-74711429D01*
X119502860Y-74640000D01*
X119645718Y-74568571D01*
X119931432Y-74568571D01*
X120074289Y-74640000D01*
X120717146Y-75497143D02*
X120860003Y-75568571D01*
X121145718Y-75568571D01*
X121288575Y-75497143D01*
X121360003Y-75354286D01*
X121360003Y-75282857D01*
X121288575Y-75140000D01*
X121145718Y-75068571D01*
X120931432Y-75068571D01*
X120788575Y-74997143D01*
X120717146Y-74854286D01*
X120717146Y-74782857D01*
X120788575Y-74640000D01*
X120931432Y-74568571D01*
X121145718Y-74568571D01*
X121288575Y-74640000D01*
X122002861Y-74568571D02*
X122002861Y-75854286D01*
X121931432Y-75997143D01*
X121788575Y-76068571D01*
X121717147Y-76068571D01*
X122002861Y-74068571D02*
X121931432Y-74140000D01*
X122002861Y-74211429D01*
X122074289Y-74140000D01*
X122002861Y-74068571D01*
X122002861Y-74211429D01*
X122717147Y-75568571D02*
X122717147Y-74568571D01*
X122717147Y-74854286D02*
X122788575Y-74711429D01*
X122860004Y-74640000D01*
X123002861Y-74568571D01*
X123145718Y-74568571D01*
X124717146Y-73997143D02*
X123431432Y-75925714D01*
X125217147Y-75568571D02*
X125217147Y-74568571D01*
X125217147Y-74854286D02*
X125288575Y-74711429D01*
X125360004Y-74640000D01*
X125502861Y-74568571D01*
X125645718Y-74568571D01*
X125931432Y-74568571D02*
X126502861Y-74568571D01*
X126145718Y-75568571D02*
X126145718Y-74282857D01*
X126217146Y-74140000D01*
X126360004Y-74068571D01*
X126502861Y-74068571D01*
X127002861Y-75568571D02*
X127002861Y-74568571D01*
X127002861Y-74068571D02*
X126931432Y-74140000D01*
X127002861Y-74211429D01*
X127074289Y-74140000D01*
X127002861Y-74068571D01*
X127002861Y-74211429D01*
X128360004Y-75568571D02*
X128360004Y-74068571D01*
X128360004Y-75497143D02*
X128217147Y-75568571D01*
X127931433Y-75568571D01*
X127788575Y-75497143D01*
X127717147Y-75425714D01*
X127645718Y-75282857D01*
X127645718Y-74854286D01*
X127717147Y-74711429D01*
X127788575Y-74640000D01*
X127931433Y-74568571D01*
X128217147Y-74568571D01*
X128360004Y-74640000D01*
X129574290Y-74782857D02*
X129788576Y-74854286D01*
X129860004Y-74925714D01*
X129931433Y-75068571D01*
X129931433Y-75282857D01*
X129860004Y-75425714D01*
X129788576Y-75497143D01*
X129645718Y-75568571D01*
X129074290Y-75568571D01*
X129074290Y-74068571D01*
X129574290Y-74068571D01*
X129717147Y-74140000D01*
X129788576Y-74211429D01*
X129860004Y-74354286D01*
X129860004Y-74497143D01*
X129788576Y-74640000D01*
X129717147Y-74711429D01*
X129574290Y-74782857D01*
X129074290Y-74782857D01*
X130788576Y-75568571D02*
X130645718Y-75497143D01*
X130574290Y-75425714D01*
X130502861Y-75282857D01*
X130502861Y-74854286D01*
X130574290Y-74711429D01*
X130645718Y-74640000D01*
X130788576Y-74568571D01*
X131002861Y-74568571D01*
X131145718Y-74640000D01*
X131217147Y-74711429D01*
X131288576Y-74854286D01*
X131288576Y-75282857D01*
X131217147Y-75425714D01*
X131145718Y-75497143D01*
X131002861Y-75568571D01*
X130788576Y-75568571D01*
X132574290Y-75568571D02*
X132574290Y-74782857D01*
X132502861Y-74640000D01*
X132360004Y-74568571D01*
X132074290Y-74568571D01*
X131931433Y-74640000D01*
X132574290Y-75497143D02*
X132431433Y-75568571D01*
X132074290Y-75568571D01*
X131931433Y-75497143D01*
X131860004Y-75354286D01*
X131860004Y-75211429D01*
X131931433Y-75068571D01*
X132074290Y-74997143D01*
X132431433Y-74997143D01*
X132574290Y-74925714D01*
X133288576Y-75568571D02*
X133288576Y-74568571D01*
X133288576Y-74854286D02*
X133360004Y-74711429D01*
X133431433Y-74640000D01*
X133574290Y-74568571D01*
X133717147Y-74568571D01*
X134860004Y-75568571D02*
X134860004Y-74068571D01*
X134860004Y-75497143D02*
X134717147Y-75568571D01*
X134431433Y-75568571D01*
X134288575Y-75497143D01*
X134217147Y-75425714D01*
X134145718Y-75282857D01*
X134145718Y-74854286D01*
X134217147Y-74711429D01*
X134288575Y-74640000D01*
X134431433Y-74568571D01*
X134717147Y-74568571D01*
X134860004Y-74640000D01*
X87002857Y-76468571D02*
X87502857Y-77968571D01*
X88002857Y-76468571D01*
X89074285Y-77897143D02*
X88931428Y-77968571D01*
X88645714Y-77968571D01*
X88502857Y-77897143D01*
X88431428Y-77754286D01*
X88431428Y-77182857D01*
X88502857Y-77040000D01*
X88645714Y-76968571D01*
X88931428Y-76968571D01*
X89074285Y-77040000D01*
X89145714Y-77182857D01*
X89145714Y-77325714D01*
X88431428Y-77468571D01*
X89788571Y-77968571D02*
X89788571Y-76968571D01*
X89788571Y-77254286D02*
X89859999Y-77111429D01*
X89931428Y-77040000D01*
X90074285Y-76968571D01*
X90217142Y-76968571D01*
X90645713Y-77897143D02*
X90788570Y-77968571D01*
X91074285Y-77968571D01*
X91217142Y-77897143D01*
X91288570Y-77754286D01*
X91288570Y-77682857D01*
X91217142Y-77540000D01*
X91074285Y-77468571D01*
X90859999Y-77468571D01*
X90717142Y-77397143D01*
X90645713Y-77254286D01*
X90645713Y-77182857D01*
X90717142Y-77040000D01*
X90859999Y-76968571D01*
X91074285Y-76968571D01*
X91217142Y-77040000D01*
X91931428Y-77968571D02*
X91931428Y-76968571D01*
X91931428Y-76468571D02*
X91859999Y-76540000D01*
X91931428Y-76611429D01*
X92002856Y-76540000D01*
X91931428Y-76468571D01*
X91931428Y-76611429D01*
X92860000Y-77968571D02*
X92717142Y-77897143D01*
X92645714Y-77825714D01*
X92574285Y-77682857D01*
X92574285Y-77254286D01*
X92645714Y-77111429D01*
X92717142Y-77040000D01*
X92860000Y-76968571D01*
X93074285Y-76968571D01*
X93217142Y-77040000D01*
X93288571Y-77111429D01*
X93360000Y-77254286D01*
X93360000Y-77682857D01*
X93288571Y-77825714D01*
X93217142Y-77897143D01*
X93074285Y-77968571D01*
X92860000Y-77968571D01*
X94002857Y-76968571D02*
X94002857Y-77968571D01*
X94002857Y-77111429D02*
X94074285Y-77040000D01*
X94217143Y-76968571D01*
X94431428Y-76968571D01*
X94574285Y-77040000D01*
X94645714Y-77182857D01*
X94645714Y-77968571D01*
X97288571Y-77968571D02*
X96431428Y-77968571D01*
X96860000Y-77968571D02*
X96860000Y-76468571D01*
X96717143Y-76682857D01*
X96574285Y-76825714D01*
X96431428Y-76897143D01*
X107555715Y-69898571D02*
X108484286Y-69898571D01*
X107984286Y-70470000D01*
X108198572Y-70470000D01*
X108341429Y-70541429D01*
X108412858Y-70612857D01*
X108484286Y-70755714D01*
X108484286Y-71112857D01*
X108412858Y-71255714D01*
X108341429Y-71327143D01*
X108198572Y-71398571D01*
X107770000Y-71398571D01*
X107627143Y-71327143D01*
X107555715Y-71255714D01*
X109127143Y-71255714D02*
X109198571Y-71327143D01*
X109127143Y-71398571D01*
X109055714Y-71327143D01*
X109127143Y-71255714D01*
X109127143Y-71398571D01*
X109698572Y-69898571D02*
X110627143Y-69898571D01*
X110127143Y-70470000D01*
X110341429Y-70470000D01*
X110484286Y-70541429D01*
X110555715Y-70612857D01*
X110627143Y-70755714D01*
X110627143Y-71112857D01*
X110555715Y-71255714D01*
X110484286Y-71327143D01*
X110341429Y-71398571D01*
X109912857Y-71398571D01*
X109770000Y-71327143D01*
X109698572Y-71255714D01*
X111055714Y-69898571D02*
X111555714Y-71398571D01*
X112055714Y-69898571D01*
D15*
X146980953Y-56502381D02*
X146409524Y-56502381D01*
X146695238Y-56502381D02*
X146695238Y-55502381D01*
X146600000Y-55645238D01*
X146504762Y-55740476D01*
X146409524Y-55788095D01*
X147361905Y-55597619D02*
X147409524Y-55550000D01*
X147504762Y-55502381D01*
X147742858Y-55502381D01*
X147838096Y-55550000D01*
X147885715Y-55597619D01*
X147933334Y-55692857D01*
X147933334Y-55788095D01*
X147885715Y-55930952D01*
X147314286Y-56502381D01*
X147933334Y-56502381D01*
X148219048Y-55502381D02*
X148552381Y-56502381D01*
X148885715Y-55502381D01*
X145188096Y-41450000D02*
X145092858Y-41402381D01*
X144950001Y-41402381D01*
X144807143Y-41450000D01*
X144711905Y-41545238D01*
X144664286Y-41640476D01*
X144616667Y-41830952D01*
X144616667Y-41973810D01*
X144664286Y-42164286D01*
X144711905Y-42259524D01*
X144807143Y-42354762D01*
X144950001Y-42402381D01*
X145045239Y-42402381D01*
X145188096Y-42354762D01*
X145235715Y-42307143D01*
X145235715Y-41973810D01*
X145045239Y-41973810D01*
X145664286Y-42402381D02*
X145664286Y-41402381D01*
X146235715Y-42402381D01*
X146235715Y-41402381D01*
X146711905Y-42402381D02*
X146711905Y-41402381D01*
X146950000Y-41402381D01*
X147092858Y-41450000D01*
X147188096Y-41545238D01*
X147235715Y-41640476D01*
X147283334Y-41830952D01*
X147283334Y-41973810D01*
X147235715Y-42164286D01*
X147188096Y-42259524D01*
X147092858Y-42354762D01*
X146950000Y-42402381D01*
X146711905Y-42402381D01*
D14*
X176278572Y-49057143D02*
X177421429Y-49057143D01*
X176850000Y-49628571D02*
X176850000Y-48485714D01*
X176328572Y-45507143D02*
X177471429Y-45507143D01*
D16*
X155700000Y-68700000D02*
X156500000Y-69500000D01*
X157410555Y-68250000D02*
G75*
G03X157410555Y-68250000I-360555J0D01*
G74*
G01*
X165700000Y-59500000D02*
X155700000Y-59500000D01*
X165700000Y-69500000D02*
X165700000Y-59500000D01*
X156500000Y-69500000D02*
X165700000Y-69500000D01*
X155700000Y-59500000D02*
X155700000Y-68700000D01*
D17*
X112143000Y-45212800D02*
X112143000Y-43587200D01*
X109857000Y-43587200D02*
X109857000Y-45212800D01*
X109399800Y-43587200D02*
X109399800Y-45212800D01*
X109399800Y-45212800D02*
X112600200Y-45212800D01*
X112600200Y-45212800D02*
X112600200Y-43587200D01*
X112600200Y-43587200D02*
X109399800Y-43587200D01*
X121041200Y-34193600D02*
X121041200Y-35006400D01*
X122158800Y-34981000D02*
X122158800Y-34193600D01*
X122412800Y-35006400D02*
X120787200Y-35006400D01*
X120787200Y-35006400D02*
X120787200Y-34193600D01*
X120787200Y-34193600D02*
X122412800Y-34193600D01*
X122412800Y-34193600D02*
X122412800Y-35006400D01*
X115465000Y-34065000D02*
X116735000Y-34065000D01*
X115465000Y-35335000D02*
X116709600Y-35335000D01*
X115465000Y-35716000D02*
X115465000Y-33684000D01*
X115465000Y-33684000D02*
X116735000Y-33684000D01*
X116735000Y-33684000D02*
X116735000Y-35716000D01*
X116735000Y-35716000D02*
X115465000Y-35716000D01*
D11*
X106980000Y-40350000D02*
X106230000Y-39600000D01*
X113980000Y-40350000D02*
X114730000Y-39600000D01*
X114730000Y-31850000D02*
X111630000Y-31850000D01*
X109380000Y-40350000D02*
X106980000Y-40350000D01*
X106230000Y-39600000D02*
X106230000Y-31850000D01*
X106230000Y-31850000D02*
X109330000Y-31850000D01*
X113980000Y-40350000D02*
X111630000Y-40350000D01*
X114730000Y-39600000D02*
X114730000Y-31850000D01*
D17*
X147608800Y-37456400D02*
X147608800Y-36643600D01*
X146491200Y-36669000D02*
X146491200Y-37456400D01*
X146237200Y-36643600D02*
X147862800Y-36643600D01*
X147862800Y-36643600D02*
X147862800Y-37456400D01*
X147862800Y-37456400D02*
X146237200Y-37456400D01*
X146237200Y-37456400D02*
X146237200Y-36643600D01*
X146085000Y-45565000D02*
X146085000Y-46835000D01*
X144815000Y-45565000D02*
X144815000Y-46809600D01*
X144434000Y-45565000D02*
X146466000Y-45565000D01*
X146466000Y-45565000D02*
X146466000Y-46835000D01*
X146466000Y-46835000D02*
X144434000Y-46835000D01*
X144434000Y-46835000D02*
X144434000Y-45565000D01*
D16*
X135250000Y-50150000D02*
X135250000Y-52150000D01*
X135250000Y-51150000D02*
X135250000Y-50150000D01*
X137250000Y-51150000D02*
X135250000Y-51150000D01*
X133750000Y-50150000D02*
X133750000Y-52150000D01*
X133750000Y-51150000D02*
X133750000Y-50150000D01*
X131750000Y-51150000D02*
X133750000Y-51150000D01*
X134500000Y-52650000D02*
X134500000Y-52900000D01*
X134500000Y-49900000D02*
X134500000Y-49400000D01*
X134500000Y-49900000D02*
X134500000Y-52650000D01*
D11*
X162550000Y-32400000D02*
X163300000Y-33150000D01*
X157050000Y-32400000D02*
X156300000Y-33150000D01*
X156300000Y-39400000D02*
X158650000Y-39400000D01*
X160900000Y-32400000D02*
X162550000Y-32400000D01*
X163300000Y-33150000D02*
X163300000Y-39400000D01*
X163300000Y-39400000D02*
X160950000Y-39400000D01*
X157050000Y-32400000D02*
X158650000Y-32400000D01*
X156300000Y-33150000D02*
X156300000Y-39400000D01*
D17*
X108258800Y-47306400D02*
X108258800Y-46493600D01*
X107141200Y-46519000D02*
X107141200Y-47306400D01*
X106887200Y-46493600D02*
X108512800Y-46493600D01*
X108512800Y-46493600D02*
X108512800Y-47306400D01*
X108512800Y-47306400D02*
X106887200Y-47306400D01*
X106887200Y-47306400D02*
X106887200Y-46493600D01*
X110391200Y-55393600D02*
X110391200Y-56206400D01*
X111508800Y-56181000D02*
X111508800Y-55393600D01*
X111762800Y-56206400D02*
X110137200Y-56206400D01*
X110137200Y-56206400D02*
X110137200Y-55393600D01*
X110137200Y-55393600D02*
X111762800Y-55393600D01*
X111762800Y-55393600D02*
X111762800Y-56206400D01*
X142893600Y-49508800D02*
X143706400Y-49508800D01*
X143681000Y-48391200D02*
X142893600Y-48391200D01*
X143706400Y-48137200D02*
X143706400Y-49762800D01*
X143706400Y-49762800D02*
X142893600Y-49762800D01*
X142893600Y-49762800D02*
X142893600Y-48137200D01*
X142893600Y-48137200D02*
X143706400Y-48137200D01*
X141058800Y-50106400D02*
X141058800Y-49293600D01*
X139941200Y-49319000D02*
X139941200Y-50106400D01*
X139687200Y-49293600D02*
X141312800Y-49293600D01*
X141312800Y-49293600D02*
X141312800Y-50106400D01*
X141312800Y-50106400D02*
X139687200Y-50106400D01*
X139687200Y-50106400D02*
X139687200Y-49293600D01*
X153812800Y-36057000D02*
X152187200Y-36057000D01*
X152187200Y-38343000D02*
X153812800Y-38343000D01*
X152187200Y-38800200D02*
X153812800Y-38800200D01*
X153812800Y-38800200D02*
X153812800Y-35599800D01*
X153812800Y-35599800D02*
X152187200Y-35599800D01*
X152187200Y-35599800D02*
X152187200Y-38800200D01*
X151112800Y-36057000D02*
X149487200Y-36057000D01*
X149487200Y-38343000D02*
X151112800Y-38343000D01*
X149487200Y-38800200D02*
X151112800Y-38800200D01*
X151112800Y-38800200D02*
X151112800Y-35599800D01*
X151112800Y-35599800D02*
X149487200Y-35599800D01*
X149487200Y-35599800D02*
X149487200Y-38800200D01*
X137357000Y-53137200D02*
X137357000Y-54762800D01*
X139643000Y-54762800D02*
X139643000Y-53137200D01*
X140100200Y-54762800D02*
X140100200Y-53137200D01*
X140100200Y-53137200D02*
X136899800Y-53137200D01*
X136899800Y-53137200D02*
X136899800Y-54762800D01*
X136899800Y-54762800D02*
X140100200Y-54762800D01*
X119975000Y-58505000D02*
X119975000Y-59775000D01*
X118705000Y-58505000D02*
X118705000Y-59749600D01*
X118324000Y-58505000D02*
X120356000Y-58505000D01*
X120356000Y-58505000D02*
X120356000Y-59775000D01*
X120356000Y-59775000D02*
X118324000Y-59775000D01*
X118324000Y-59775000D02*
X118324000Y-58505000D01*
X137307000Y-55837200D02*
X137307000Y-57462800D01*
X139593000Y-57462800D02*
X139593000Y-55837200D01*
X140050200Y-57462800D02*
X140050200Y-55837200D01*
X140050200Y-55837200D02*
X136849800Y-55837200D01*
X136849800Y-55837200D02*
X136849800Y-57462800D01*
X136849800Y-57462800D02*
X140050200Y-57462800D01*
X121858800Y-65056400D02*
X121858800Y-64243600D01*
X120741200Y-64269000D02*
X120741200Y-65056400D01*
X120487200Y-64243600D02*
X122112800Y-64243600D01*
X122112800Y-64243600D02*
X122112800Y-65056400D01*
X122112800Y-65056400D02*
X120487200Y-65056400D01*
X120487200Y-65056400D02*
X120487200Y-64243600D01*
X138265000Y-70685000D02*
X138265000Y-69415000D01*
X139535000Y-70685000D02*
X139535000Y-69440400D01*
X139916000Y-70685000D02*
X137884000Y-70685000D01*
X137884000Y-70685000D02*
X137884000Y-69415000D01*
X137884000Y-69415000D02*
X139916000Y-69415000D01*
X139916000Y-69415000D02*
X139916000Y-70685000D01*
X143508427Y-68785421D02*
X143508427Y-70055421D01*
X142238427Y-68785421D02*
X142238427Y-70030021D01*
X141857427Y-68785421D02*
X143889427Y-68785421D01*
X143889427Y-68785421D02*
X143889427Y-70055421D01*
X143889427Y-70055421D02*
X141857427Y-70055421D01*
X141857427Y-70055421D02*
X141857427Y-68785421D01*
X112129798Y-64479640D02*
X110859798Y-64479640D01*
X112129798Y-63209640D02*
X110885198Y-63209640D01*
X112129798Y-62828640D02*
X112129798Y-64860640D01*
X112129798Y-64860640D02*
X110859798Y-64860640D01*
X110859798Y-64860640D02*
X110859798Y-62828640D01*
X110859798Y-62828640D02*
X112129798Y-62828640D01*
X147905000Y-60535000D02*
X149175000Y-60535000D01*
X147905000Y-61805000D02*
X149149600Y-61805000D01*
X147905000Y-62186000D02*
X147905000Y-60154000D01*
X147905000Y-60154000D02*
X149175000Y-60154000D01*
X149175000Y-60154000D02*
X149175000Y-62186000D01*
X149175000Y-62186000D02*
X147905000Y-62186000D01*
X109749798Y-64499640D02*
X108479798Y-64499640D01*
X109749798Y-63229640D02*
X108505198Y-63229640D01*
X109749798Y-62848640D02*
X109749798Y-64880640D01*
X109749798Y-64880640D02*
X108479798Y-64880640D01*
X108479798Y-64880640D02*
X108479798Y-62848640D01*
X108479798Y-62848640D02*
X109749798Y-62848640D01*
X153343600Y-76958800D02*
X154156400Y-76958800D01*
X154131000Y-75841200D02*
X153343600Y-75841200D01*
X154156400Y-75587200D02*
X154156400Y-77212800D01*
X154156400Y-77212800D02*
X153343600Y-77212800D01*
X153343600Y-77212800D02*
X153343600Y-75587200D01*
X153343600Y-75587200D02*
X154156400Y-75587200D01*
X149893600Y-71528800D02*
X150706400Y-71528800D01*
X150681000Y-70411200D02*
X149893600Y-70411200D01*
X150706400Y-70157200D02*
X150706400Y-71782800D01*
X150706400Y-71782800D02*
X149893600Y-71782800D01*
X149893600Y-71782800D02*
X149893600Y-70157200D01*
X149893600Y-70157200D02*
X150706400Y-70157200D01*
X144838000Y-33850000D02*
X144634800Y-33850000D01*
X143314000Y-31945000D02*
X147886000Y-31945000D01*
X147886000Y-31945000D02*
X147886000Y-32580000D01*
X146260400Y-35755000D02*
X146260400Y-31945000D01*
X146590600Y-35755000D02*
X146590600Y-31945000D01*
X143314000Y-35120000D02*
X143314000Y-35755000D01*
X143314000Y-35755000D02*
X147886000Y-35755000D01*
X147886000Y-35755000D02*
X147886000Y-35120000D01*
X143314000Y-32580000D02*
X143314000Y-31945000D01*
X145473000Y-33850000D02*
X144838000Y-33375020D01*
X144838000Y-33375020D02*
X144838000Y-33850000D01*
X144838000Y-33850000D02*
X144838000Y-34324980D01*
X144838000Y-34324980D02*
X145473000Y-33850000D01*
X145473000Y-33850000D02*
X145473000Y-33532500D01*
X145473000Y-33532500D02*
X145315520Y-33375020D01*
X145473000Y-33850000D02*
X145473000Y-34167500D01*
X145473000Y-34167500D02*
X145630480Y-34324980D01*
X145473000Y-33850000D02*
X146582980Y-33850000D01*
X103200000Y-34038000D02*
X103200000Y-33834800D01*
X105105000Y-32514000D02*
X105105000Y-37086000D01*
X105105000Y-37086000D02*
X104470000Y-37086000D01*
X101295000Y-35460400D02*
X105105000Y-35460400D01*
X101295000Y-35790600D02*
X105105000Y-35790600D01*
X101930000Y-32514000D02*
X101295000Y-32514000D01*
X101295000Y-32514000D02*
X101295000Y-37086000D01*
X101295000Y-37086000D02*
X101930000Y-37086000D01*
X104470000Y-32514000D02*
X105105000Y-32514000D01*
X103200000Y-34673000D02*
X103674980Y-34038000D01*
X103674980Y-34038000D02*
X103200000Y-34038000D01*
X103200000Y-34038000D02*
X102725020Y-34038000D01*
X102725020Y-34038000D02*
X103200000Y-34673000D01*
X103200000Y-34673000D02*
X103517500Y-34673000D01*
X103517500Y-34673000D02*
X103674980Y-34515520D01*
X103200000Y-34673000D02*
X102882500Y-34673000D01*
X102882500Y-34673000D02*
X102725020Y-34830480D01*
X103200000Y-34673000D02*
X103200000Y-35782980D01*
D16*
X121816342Y-39230055D02*
X122916342Y-39230055D01*
D11*
X123000000Y-39850000D02*
X123000000Y-38300000D01*
X121800000Y-39850000D02*
X121800000Y-38300000D01*
D16*
X126816342Y-44380055D02*
X127916342Y-44380055D01*
D11*
X128000000Y-45000000D02*
X128000000Y-43450000D01*
X126800000Y-45000000D02*
X126800000Y-43450000D01*
D16*
X117900000Y-35550000D02*
X119900000Y-35550000D01*
X119900000Y-36150000D02*
X119600000Y-36150000D01*
X119900000Y-33150000D02*
X119900000Y-36150000D01*
X119600000Y-33150000D02*
X119900000Y-33150000D01*
X117900000Y-33150000D02*
X118200000Y-33150000D01*
X117900000Y-33250000D02*
X117900000Y-33150000D01*
X117900000Y-36150000D02*
X117900000Y-33250000D01*
X118200000Y-36150000D02*
X117900000Y-36150000D01*
X123369945Y-45116342D02*
X123369945Y-46216342D01*
D11*
X122750000Y-46300000D02*
X124300000Y-46300000D01*
X122750000Y-45100000D02*
X124300000Y-45100000D01*
D18*
X140958550Y-44073980D02*
G75*
G03X140958550Y-44073980I-159070J0D01*
G74*
G01*
X141658000Y-46520000D02*
X140642000Y-46520000D01*
X141658000Y-43916500D02*
X140642000Y-43916500D01*
X140642000Y-46520000D02*
X140642000Y-43916500D01*
X141658000Y-43916500D02*
X141658000Y-46520000D01*
D16*
X92750000Y-32200000D02*
X96750000Y-32200000D01*
X92750000Y-37200000D02*
X92750000Y-32200000D01*
X96750000Y-37200000D02*
X92750000Y-37200000D01*
X96750000Y-32200000D02*
X96750000Y-37200000D01*
D19*
X86650420Y-60700420D02*
X87549580Y-60700420D01*
X87549580Y-60700420D02*
X87549580Y-60301640D01*
X86650420Y-60301640D02*
X87549580Y-60301640D01*
X86650420Y-60700420D02*
X86650420Y-60301640D01*
X86650420Y-61998360D02*
X87549580Y-61998360D01*
X87549580Y-61998360D02*
X87549580Y-61599580D01*
X86650420Y-61599580D02*
X87549580Y-61599580D01*
X86650420Y-61998360D02*
X86650420Y-61599580D01*
X86650420Y-61150000D02*
X86800280Y-61150000D01*
X86800280Y-61150000D02*
X86800280Y-60850280D01*
X86650420Y-60850280D02*
X86800280Y-60850280D01*
X86650420Y-61150000D02*
X86650420Y-60850280D01*
X87399720Y-61150000D02*
X87549580Y-61150000D01*
X87549580Y-61150000D02*
X87549580Y-60850280D01*
X87399720Y-60850280D02*
X87549580Y-60850280D01*
X87399720Y-61150000D02*
X87399720Y-60850280D01*
X86950140Y-61150000D02*
X87249860Y-61150000D01*
X87249860Y-61150000D02*
X87249860Y-60850280D01*
X86950140Y-60850280D02*
X87249860Y-60850280D01*
X86950140Y-61150000D02*
X86950140Y-60850280D01*
D20*
X86701220Y-60700420D02*
X86701220Y-61599580D01*
X87498780Y-60700420D02*
X87498780Y-61599580D01*
D19*
X88900420Y-60700420D02*
X89799580Y-60700420D01*
X89799580Y-60700420D02*
X89799580Y-60301640D01*
X88900420Y-60301640D02*
X89799580Y-60301640D01*
X88900420Y-60700420D02*
X88900420Y-60301640D01*
X88900420Y-61998360D02*
X89799580Y-61998360D01*
X89799580Y-61998360D02*
X89799580Y-61599580D01*
X88900420Y-61599580D02*
X89799580Y-61599580D01*
X88900420Y-61998360D02*
X88900420Y-61599580D01*
X88900420Y-61150000D02*
X89050280Y-61150000D01*
X89050280Y-61150000D02*
X89050280Y-60850280D01*
X88900420Y-60850280D02*
X89050280Y-60850280D01*
X88900420Y-61150000D02*
X88900420Y-60850280D01*
X89649720Y-61150000D02*
X89799580Y-61150000D01*
X89799580Y-61150000D02*
X89799580Y-60850280D01*
X89649720Y-60850280D02*
X89799580Y-60850280D01*
X89649720Y-61150000D02*
X89649720Y-60850280D01*
X89200140Y-61150000D02*
X89499860Y-61150000D01*
X89499860Y-61150000D02*
X89499860Y-60850280D01*
X89200140Y-60850280D02*
X89499860Y-60850280D01*
X89200140Y-61150000D02*
X89200140Y-60850280D01*
D20*
X88951220Y-60700420D02*
X88951220Y-61599580D01*
X89748780Y-60700420D02*
X89748780Y-61599580D01*
D19*
X150400420Y-32399580D02*
X150400420Y-31500420D01*
X150400420Y-31500420D02*
X150001640Y-31500420D01*
X150001640Y-32399580D02*
X150001640Y-31500420D01*
X150400420Y-32399580D02*
X150001640Y-32399580D01*
X151698360Y-32399580D02*
X151698360Y-31500420D01*
X151698360Y-31500420D02*
X151299580Y-31500420D01*
X151299580Y-32399580D02*
X151299580Y-31500420D01*
X151698360Y-32399580D02*
X151299580Y-32399580D01*
X150850000Y-32399580D02*
X150850000Y-32249720D01*
X150850000Y-32249720D02*
X150550280Y-32249720D01*
X150550280Y-32399580D02*
X150550280Y-32249720D01*
X150850000Y-32399580D02*
X150550280Y-32399580D01*
X150850000Y-31650280D02*
X150850000Y-31500420D01*
X150850000Y-31500420D02*
X150550280Y-31500420D01*
X150550280Y-31650280D02*
X150550280Y-31500420D01*
X150850000Y-31650280D02*
X150550280Y-31650280D01*
X150850000Y-32099860D02*
X150850000Y-31800140D01*
X150850000Y-31800140D02*
X150550280Y-31800140D01*
X150550280Y-32099860D02*
X150550280Y-31800140D01*
X150850000Y-32099860D02*
X150550280Y-32099860D01*
D20*
X150400420Y-32348780D02*
X151299580Y-32348780D01*
X150400420Y-31551220D02*
X151299580Y-31551220D01*
D16*
X117606055Y-63842289D02*
X117606055Y-61842289D01*
X118206055Y-61842289D02*
X118206055Y-62142289D01*
X115206055Y-61842289D02*
X118206055Y-61842289D01*
X115206055Y-62142289D02*
X115206055Y-61842289D01*
X115206055Y-63842289D02*
X115206055Y-63542289D01*
X115306055Y-63842289D02*
X115206055Y-63842289D01*
X118206055Y-63842289D02*
X115306055Y-63842289D01*
X118206055Y-63542289D02*
X118206055Y-63842289D01*
X121870000Y-66450000D02*
X121870000Y-68450000D01*
X121270000Y-68450000D02*
X121270000Y-68150000D01*
X124270000Y-68450000D02*
X121270000Y-68450000D01*
X124270000Y-68150000D02*
X124270000Y-68450000D01*
X124270000Y-66450000D02*
X124270000Y-66750000D01*
X124170000Y-66450000D02*
X124270000Y-66450000D01*
X121270000Y-66450000D02*
X124170000Y-66450000D01*
X121270000Y-66750000D02*
X121270000Y-66450000D01*
D17*
X142511427Y-60070421D02*
X142308227Y-60070421D01*
X140987427Y-58165421D02*
X145559427Y-58165421D01*
X145559427Y-58165421D02*
X145559427Y-58800421D01*
X143933827Y-61975421D02*
X143933827Y-58165421D01*
X144264027Y-61975421D02*
X144264027Y-58165421D01*
X140987427Y-61340421D02*
X140987427Y-61975421D01*
X140987427Y-61975421D02*
X145559427Y-61975421D01*
X145559427Y-61975421D02*
X145559427Y-61340421D01*
X140987427Y-58800421D02*
X140987427Y-58165421D01*
X143146427Y-60070421D02*
X142511427Y-59595441D01*
X142511427Y-59595441D02*
X142511427Y-60070421D01*
X142511427Y-60070421D02*
X142511427Y-60545401D01*
X142511427Y-60545401D02*
X143146427Y-60070421D01*
X143146427Y-60070421D02*
X143146427Y-59752921D01*
X143146427Y-59752921D02*
X142988947Y-59595441D01*
X143146427Y-60070421D02*
X143146427Y-60387921D01*
X143146427Y-60387921D02*
X143303907Y-60545401D01*
X143146427Y-60070421D02*
X144256407Y-60070421D01*
D19*
X151549580Y-61499580D02*
X150650420Y-61499580D01*
X150650420Y-61499580D02*
X150650420Y-61898360D01*
X151549580Y-61898360D02*
X150650420Y-61898360D01*
X151549580Y-61499580D02*
X151549580Y-61898360D01*
X151549580Y-60201640D02*
X150650420Y-60201640D01*
X150650420Y-60201640D02*
X150650420Y-60600420D01*
X151549580Y-60600420D02*
X150650420Y-60600420D01*
X151549580Y-60201640D02*
X151549580Y-60600420D01*
X151549580Y-61050000D02*
X151399720Y-61050000D01*
X151399720Y-61050000D02*
X151399720Y-61349720D01*
X151549580Y-61349720D02*
X151399720Y-61349720D01*
X151549580Y-61050000D02*
X151549580Y-61349720D01*
X150800280Y-61050000D02*
X150650420Y-61050000D01*
X150650420Y-61050000D02*
X150650420Y-61349720D01*
X150800280Y-61349720D02*
X150650420Y-61349720D01*
X150800280Y-61050000D02*
X150800280Y-61349720D01*
X151249860Y-61050000D02*
X150950140Y-61050000D01*
X150950140Y-61050000D02*
X150950140Y-61349720D01*
X151249860Y-61349720D02*
X150950140Y-61349720D01*
X151249860Y-61050000D02*
X151249860Y-61349720D01*
D20*
X151498780Y-61499580D02*
X151498780Y-60600420D01*
X150701220Y-61499580D02*
X150701220Y-60600420D01*
D19*
X106340420Y-63210420D02*
X107239580Y-63210420D01*
X107239580Y-63210420D02*
X107239580Y-62811640D01*
X106340420Y-62811640D02*
X107239580Y-62811640D01*
X106340420Y-63210420D02*
X106340420Y-62811640D01*
X106340420Y-64508360D02*
X107239580Y-64508360D01*
X107239580Y-64508360D02*
X107239580Y-64109580D01*
X106340420Y-64109580D02*
X107239580Y-64109580D01*
X106340420Y-64508360D02*
X106340420Y-64109580D01*
X106340420Y-63660000D02*
X106490280Y-63660000D01*
X106490280Y-63660000D02*
X106490280Y-63360280D01*
X106340420Y-63360280D02*
X106490280Y-63360280D01*
X106340420Y-63660000D02*
X106340420Y-63360280D01*
X107089720Y-63660000D02*
X107239580Y-63660000D01*
X107239580Y-63660000D02*
X107239580Y-63360280D01*
X107089720Y-63360280D02*
X107239580Y-63360280D01*
X107089720Y-63660000D02*
X107089720Y-63360280D01*
X106640140Y-63660000D02*
X106939860Y-63660000D01*
X106939860Y-63660000D02*
X106939860Y-63360280D01*
X106640140Y-63360280D02*
X106939860Y-63360280D01*
X106640140Y-63660000D02*
X106640140Y-63360280D01*
D20*
X106391220Y-63210420D02*
X106391220Y-64109580D01*
X107188780Y-63210420D02*
X107188780Y-64109580D01*
D16*
X166500000Y-56550000D02*
X154500000Y-56550000D01*
X166500000Y-52450000D02*
X166500000Y-56950000D01*
X154500000Y-52450000D02*
X166500000Y-52450000D01*
X154500000Y-56950000D02*
X154500000Y-52450000D01*
X166500000Y-56950000D02*
X154500000Y-56950000D01*
D21*
X109886000Y-43192000D02*
G75*
G03X109886000Y-43192000I-127000J0D01*
G74*
G01*
X110902000Y-43192000D02*
X109886000Y-43192000D01*
X109886000Y-43192000D02*
X109886000Y-41668000D01*
X109886000Y-41668000D02*
X110902000Y-41668000D01*
X111918000Y-41668000D02*
X112934000Y-41668000D01*
X112934000Y-41668000D02*
X112934000Y-43192000D01*
X112934000Y-43192000D02*
X111918000Y-43192000D01*
X109478000Y-57338000D02*
G75*
G03X109478000Y-57338000I-127000J0D01*
G74*
G01*
X108208000Y-57338000D02*
X109224000Y-57338000D01*
X109224000Y-57338000D02*
X109224000Y-58862000D01*
X109224000Y-58862000D02*
X108208000Y-58862000D01*
X107192000Y-58862000D02*
X106176000Y-58862000D01*
X106176000Y-58862000D02*
X106176000Y-57338000D01*
X106176000Y-57338000D02*
X107192000Y-57338000D01*
D16*
X139100000Y-68180000D02*
X139100000Y-65280000D01*
X129100000Y-68180000D02*
X139100000Y-68180000D01*
X129100000Y-65280000D02*
X129100000Y-68180000D01*
X129100000Y-58180000D02*
X129100000Y-61080000D01*
X139100000Y-58180000D02*
X139100000Y-61080000D01*
X129100000Y-58180000D02*
X139100000Y-58180000D01*
X119266055Y-64802289D02*
X113266055Y-64802289D01*
X119266055Y-70802289D02*
X113266055Y-70802289D01*
D17*
X99853219Y-31800000D02*
G75*
G03X99853219Y-31800000I-803219J0D01*
G74*
G01*
X99803219Y-38150000D02*
G75*
G03X99803219Y-38150000I-803219J0D01*
G74*
G01*
X146703219Y-40250000D02*
G75*
G03X146703219Y-40250000I-803219J0D01*
G74*
G01*
X155853219Y-33400000D02*
G75*
G03X155853219Y-33400000I-803219J0D01*
G74*
G01*
X148303219Y-57700000D02*
G75*
G03X148303219Y-57700000I-803219J0D01*
G74*
G01*
X111353219Y-68180000D02*
G75*
G03X111353219Y-68180000I-803219J0D01*
G74*
G01*
D16*
X168850000Y-43800000D02*
X168850000Y-50800000D01*
X175850000Y-43800000D02*
X168850000Y-43800000D01*
X175850000Y-50800000D02*
X175850000Y-43800000D01*
X168850000Y-50800000D02*
X175850000Y-50800000D01*
D17*
X117558000Y-38488000D02*
X118320000Y-38996000D01*
X115780000Y-38488000D02*
X118383500Y-38488000D01*
X118383500Y-38488000D02*
X118383500Y-40012000D01*
X118383500Y-40012000D02*
X115780000Y-40012000D01*
X115780000Y-40012000D02*
X115780000Y-38488000D01*
D22*
X123831000Y-41476000D02*
X123831000Y-44524000D01*
X123831000Y-44524000D02*
X123069000Y-44524000D01*
X123069000Y-44524000D02*
X123069000Y-41476000D01*
X123069000Y-41476000D02*
X123831000Y-41476000D01*
X175674000Y-54081000D02*
X172626000Y-54081000D01*
X172626000Y-54081000D02*
X172626000Y-53319000D01*
X172626000Y-53319000D02*
X175674000Y-53319000D01*
X175674000Y-53319000D02*
X175674000Y-54081000D01*
D17*
X118957000Y-43265000D02*
X121243000Y-43265000D01*
X121243000Y-43265000D02*
X121243000Y-44535000D01*
X121243000Y-44535000D02*
X118957000Y-44535000D01*
X118957000Y-44535000D02*
X118957000Y-43265000D01*
X119365000Y-39893000D02*
X119365000Y-37607000D01*
X119365000Y-37607000D02*
X120635000Y-37607000D01*
X120635000Y-37607000D02*
X120635000Y-39893000D01*
X120635000Y-39893000D02*
X119365000Y-39893000D01*
X114285000Y-42843000D02*
X114285000Y-40557000D01*
X114285000Y-40557000D02*
X115555000Y-40557000D01*
X115555000Y-40557000D02*
X115555000Y-42843000D01*
X115555000Y-42843000D02*
X114285000Y-42843000D01*
X123715000Y-40743000D02*
X123715000Y-38457000D01*
X123715000Y-38457000D02*
X124985000Y-38457000D01*
X124985000Y-38457000D02*
X124985000Y-40743000D01*
X124985000Y-40743000D02*
X123715000Y-40743000D01*
D21*
X121776000Y-37112000D02*
G75*
G03X121776000Y-37112000I-127000J0D01*
G74*
G01*
X122792000Y-37112000D02*
X121776000Y-37112000D01*
X121776000Y-37112000D02*
X121776000Y-35588000D01*
X121776000Y-35588000D02*
X122792000Y-35588000D01*
X123808000Y-35588000D02*
X124824000Y-35588000D01*
X124824000Y-35588000D02*
X124824000Y-37112000D01*
X124824000Y-37112000D02*
X123808000Y-37112000D01*
D17*
X118957000Y-41515000D02*
X121243000Y-41515000D01*
X121243000Y-41515000D02*
X121243000Y-42785000D01*
X121243000Y-42785000D02*
X118957000Y-42785000D01*
X118957000Y-42785000D02*
X118957000Y-41515000D01*
X121957000Y-46865000D02*
X124243000Y-46865000D01*
X124243000Y-46865000D02*
X124243000Y-48135000D01*
X124243000Y-48135000D02*
X121957000Y-48135000D01*
X121957000Y-48135000D02*
X121957000Y-46865000D01*
X143107000Y-36415000D02*
X145393000Y-36415000D01*
X145393000Y-36415000D02*
X145393000Y-37685000D01*
X145393000Y-37685000D02*
X143107000Y-37685000D01*
X143107000Y-37685000D02*
X143107000Y-36415000D01*
X141643000Y-48535000D02*
X139357000Y-48535000D01*
X139357000Y-48535000D02*
X139357000Y-47265000D01*
X139357000Y-47265000D02*
X141643000Y-47265000D01*
X141643000Y-47265000D02*
X141643000Y-48535000D01*
X146793000Y-44935000D02*
X144507000Y-44935000D01*
X144507000Y-44935000D02*
X144507000Y-43665000D01*
X144507000Y-43665000D02*
X146793000Y-43665000D01*
X146793000Y-43665000D02*
X146793000Y-44935000D01*
X150143000Y-44935000D02*
X147857000Y-44935000D01*
X147857000Y-44935000D02*
X147857000Y-43665000D01*
X147857000Y-43665000D02*
X150143000Y-43665000D01*
X150143000Y-43665000D02*
X150143000Y-44935000D01*
X142665000Y-43943000D02*
X142665000Y-41657000D01*
X142665000Y-41657000D02*
X143935000Y-41657000D01*
X143935000Y-41657000D02*
X143935000Y-43943000D01*
X143935000Y-43943000D02*
X142665000Y-43943000D01*
X108843000Y-56435000D02*
X106557000Y-56435000D01*
X106557000Y-56435000D02*
X106557000Y-55165000D01*
X106557000Y-55165000D02*
X108843000Y-55165000D01*
X108843000Y-55165000D02*
X108843000Y-56435000D01*
X108843000Y-54285000D02*
X106557000Y-54285000D01*
X106557000Y-54285000D02*
X106557000Y-53015000D01*
X106557000Y-53015000D02*
X108843000Y-53015000D01*
X108843000Y-53015000D02*
X108843000Y-54285000D01*
X89985000Y-63057000D02*
X89985000Y-65343000D01*
X89985000Y-65343000D02*
X88715000Y-65343000D01*
X88715000Y-65343000D02*
X88715000Y-63057000D01*
X88715000Y-63057000D02*
X89985000Y-63057000D01*
X108793000Y-51535000D02*
X106507000Y-51535000D01*
X106507000Y-51535000D02*
X106507000Y-50265000D01*
X106507000Y-50265000D02*
X108793000Y-50265000D01*
X108793000Y-50265000D02*
X108793000Y-51535000D01*
X108793000Y-49335000D02*
X106507000Y-49335000D01*
X106507000Y-49335000D02*
X106507000Y-48065000D01*
X106507000Y-48065000D02*
X108793000Y-48065000D01*
X108793000Y-48065000D02*
X108793000Y-49335000D01*
X87735000Y-63057000D02*
X87735000Y-65343000D01*
X87735000Y-65343000D02*
X86465000Y-65343000D01*
X86465000Y-65343000D02*
X86465000Y-63057000D01*
X86465000Y-63057000D02*
X87735000Y-63057000D01*
X149115000Y-48243000D02*
X149115000Y-45957000D01*
X149115000Y-45957000D02*
X150385000Y-45957000D01*
X150385000Y-45957000D02*
X150385000Y-48243000D01*
X150385000Y-48243000D02*
X149115000Y-48243000D01*
X152365000Y-33843000D02*
X152365000Y-31557000D01*
X152365000Y-31557000D02*
X153635000Y-31557000D01*
X153635000Y-31557000D02*
X153635000Y-33843000D01*
X153635000Y-33843000D02*
X152365000Y-33843000D01*
X148215000Y-66943000D02*
X148215000Y-64657000D01*
X148215000Y-64657000D02*
X149485000Y-64657000D01*
X149485000Y-64657000D02*
X149485000Y-66943000D01*
X149485000Y-66943000D02*
X148215000Y-66943000D01*
D21*
X145099427Y-70182421D02*
G75*
G03X145099427Y-70182421I-127000J0D01*
G74*
G01*
X146115427Y-70182421D02*
X145099427Y-70182421D01*
X145099427Y-70182421D02*
X145099427Y-68658421D01*
X145099427Y-68658421D02*
X146115427Y-68658421D01*
X147131427Y-68658421D02*
X148147427Y-68658421D01*
X148147427Y-68658421D02*
X148147427Y-70182421D01*
X148147427Y-70182421D02*
X147131427Y-70182421D01*
D17*
X124257000Y-63525000D02*
X126543000Y-63525000D01*
X126543000Y-63525000D02*
X126543000Y-64795000D01*
X126543000Y-64795000D02*
X124257000Y-64795000D01*
X124257000Y-64795000D02*
X124257000Y-63525000D01*
X126539055Y-62547289D02*
X124253055Y-62547289D01*
X124253055Y-62547289D02*
X124253055Y-61277289D01*
X124253055Y-61277289D02*
X126539055Y-61277289D01*
X126539055Y-61277289D02*
X126539055Y-62547289D01*
X149197000Y-57525000D02*
X151483000Y-57525000D01*
X151483000Y-57525000D02*
X151483000Y-58795000D01*
X151483000Y-58795000D02*
X149197000Y-58795000D01*
X149197000Y-58795000D02*
X149197000Y-57525000D01*
X108693000Y-68155000D02*
X106407000Y-68155000D01*
X106407000Y-68155000D02*
X106407000Y-66885000D01*
X106407000Y-66885000D02*
X108693000Y-66885000D01*
X108693000Y-66885000D02*
X108693000Y-68155000D01*
X154307000Y-71415000D02*
X156593000Y-71415000D01*
X156593000Y-71415000D02*
X156593000Y-72685000D01*
X156593000Y-72685000D02*
X154307000Y-72685000D01*
X154307000Y-72685000D02*
X154307000Y-71415000D01*
X148015000Y-72913000D02*
X148015000Y-70627000D01*
X148015000Y-70627000D02*
X149285000Y-70627000D01*
X149285000Y-70627000D02*
X149285000Y-72913000D01*
X149285000Y-72913000D02*
X148015000Y-72913000D01*
X171893000Y-57685000D02*
X169607000Y-57685000D01*
X169607000Y-57685000D02*
X169607000Y-56415000D01*
X169607000Y-56415000D02*
X171893000Y-56415000D01*
X171893000Y-56415000D02*
X171893000Y-57685000D01*
X172957000Y-56415000D02*
X175243000Y-56415000D01*
X175243000Y-56415000D02*
X175243000Y-57685000D01*
X175243000Y-57685000D02*
X172957000Y-57685000D01*
X172957000Y-57685000D02*
X172957000Y-56415000D01*
D16*
X143800000Y-73350000D02*
X143800000Y-79350000D01*
X149800000Y-73350000D02*
X143800000Y-73350000D01*
X149800000Y-79350000D02*
X149800000Y-73350000D01*
X143800000Y-79350000D02*
X149800000Y-79350000D01*
D11*
X138250000Y-31050000D02*
X129250000Y-31050000D01*
X138250000Y-44150000D02*
X129250000Y-44150000D01*
X129250000Y-31060000D02*
X129250000Y-44140000D01*
X138250000Y-44140000D02*
X138250000Y-31060000D01*
D16*
X135550000Y-48200000D02*
X135550000Y-45500000D01*
X131450000Y-45500000D02*
X131450000Y-48200000D01*
X136150000Y-45500000D02*
X131450000Y-45500000D01*
X136150000Y-48200000D02*
X136150000Y-45500000D01*
X131450000Y-48200000D02*
X136150000Y-48200000D01*
D17*
X122318055Y-62440289D02*
X121810055Y-63202289D01*
X122318055Y-60662289D02*
X122318055Y-63265789D01*
X122318055Y-63265789D02*
X120794055Y-63265789D01*
X120794055Y-63265789D02*
X120794055Y-60662289D01*
X120794055Y-60662289D02*
X122318055Y-60662289D01*
D16*
X142458837Y-63520421D02*
G75*
G03X142458837Y-63520421I-335410J0D01*
G74*
G01*
X145823427Y-67920421D02*
X145823427Y-62820421D01*
X141323427Y-67920421D02*
X145823427Y-67920421D01*
X141323427Y-62820421D02*
X141323427Y-67920421D01*
X145823427Y-62820421D02*
X141323427Y-62820421D01*
D23*
X176036000Y-34750000D02*
G75*
G03X176036000Y-34750000I-2286000J0D01*
G74*
G01*
X84136000Y-76650000D02*
G75*
G03X84136000Y-76650000I-2286000J0D01*
G74*
G01*
X175986000Y-76600000D02*
G75*
G03X175986000Y-76600000I-2286000J0D01*
G74*
G01*
X84186000Y-34750000D02*
G75*
G03X84186000Y-34750000I-2286000J0D01*
G74*
G01*
X84138780Y-70539860D02*
X84499460Y-72010520D01*
X84499460Y-72010520D02*
X84778860Y-70948800D01*
X84778860Y-70948800D02*
X85088740Y-72020680D01*
X85088740Y-72020680D02*
X85429100Y-70570340D01*
X82718920Y-71230740D02*
X83508860Y-71220580D01*
X83508860Y-71220580D02*
X83519020Y-71230740D01*
X83519020Y-71230740D02*
X83519020Y-71220580D01*
X83559660Y-70509380D02*
X83559660Y-72051160D01*
X82670660Y-70499220D02*
X82670660Y-72068940D01*
X82670660Y-72068940D02*
X82680820Y-72058780D01*
X82119480Y-70600820D02*
X81768960Y-70519540D01*
X81768960Y-70519540D02*
X81448920Y-70509380D01*
X81448920Y-70509380D02*
X81210160Y-70710040D01*
X81210160Y-70710040D02*
X81179680Y-70979280D01*
X81179680Y-70979280D02*
X81420980Y-71220580D01*
X81420980Y-71220580D02*
X81809600Y-71350120D01*
X81809600Y-71350120D02*
X81989940Y-71510140D01*
X81989940Y-71510140D02*
X82030580Y-71809860D01*
X82030580Y-71809860D02*
X81799440Y-72030840D01*
X81799440Y-72030840D02*
X81479400Y-72058780D01*
X81479400Y-72058780D02*
X81128880Y-71949560D01*
X80090020Y-70499220D02*
X79841100Y-70519540D01*
X79841100Y-70519540D02*
X79599800Y-70760840D01*
X79599800Y-70760840D02*
X79510900Y-71251060D01*
X79510900Y-71251060D02*
X79538840Y-71599040D01*
X79538840Y-71599040D02*
X79739500Y-71919080D01*
X79739500Y-71919080D02*
X79990960Y-72041000D01*
X79990960Y-72041000D02*
X80300840Y-71969880D01*
X80300840Y-71969880D02*
X80519280Y-71789540D01*
X80519280Y-71789540D02*
X80590400Y-71329800D01*
X80590400Y-71329800D02*
X80539600Y-70920860D01*
X80539600Y-70920860D02*
X80430380Y-70638920D01*
X80430380Y-70638920D02*
X80069700Y-70509380D01*
X80689460Y-68779640D02*
X80430380Y-69340980D01*
X80430380Y-69340980D02*
X80968860Y-69859140D01*
X80968860Y-69859140D02*
X81489560Y-69589900D01*
X81489560Y-69589900D02*
X81768960Y-69749920D01*
X83209140Y-69729600D02*
X83539340Y-69539100D01*
X83539340Y-69539100D02*
X83978760Y-69869300D01*
X83978760Y-69869300D02*
X84451200Y-69379080D01*
X84451200Y-69379080D02*
X84169260Y-68899020D01*
X84169260Y-68899020D02*
X84359760Y-68429120D01*
X84359760Y-68429120D02*
X84969360Y-68241160D01*
X84969360Y-68241160D02*
X84969360Y-67560440D01*
X84969360Y-67560440D02*
X84410560Y-67420740D01*
X84410560Y-67420740D02*
X84209900Y-66849240D01*
X84209900Y-66849240D02*
X84479140Y-66379340D01*
X84479140Y-66379340D02*
X84009240Y-65868800D01*
X84009240Y-65868800D02*
X83491080Y-66130420D01*
X83491080Y-66130420D02*
X83021180Y-65929760D01*
X83021180Y-65929760D02*
X82851000Y-65388740D01*
X82851000Y-65388740D02*
X82160120Y-65370960D01*
X82160120Y-65370960D02*
X81949300Y-65919600D01*
X81949300Y-65919600D02*
X81530200Y-66089780D01*
X81530200Y-66089780D02*
X80979020Y-65820540D01*
X80979020Y-65820540D02*
X80460860Y-66348860D01*
X80460860Y-66348860D02*
X80709780Y-66889880D01*
X80709780Y-66889880D02*
X80539600Y-67369940D01*
X80539600Y-67369940D02*
X79990960Y-67469000D01*
X79990960Y-67469000D02*
X79980800Y-68170040D01*
X79980800Y-68170040D02*
X80539600Y-68370700D01*
X80539600Y-68370700D02*
X80679300Y-68769480D01*
X82820520Y-68749160D02*
X83120240Y-68599300D01*
X83120240Y-68599300D02*
X83320900Y-68401180D01*
X83320900Y-68401180D02*
X83470760Y-67999860D01*
X83470760Y-67999860D02*
X83470760Y-67601080D01*
X83470760Y-67601080D02*
X83320900Y-67250560D01*
X83320900Y-67250560D02*
X82868780Y-66900040D01*
X82868780Y-66900040D02*
X82419200Y-66849240D01*
X82419200Y-66849240D02*
X82020420Y-66950840D01*
X82020420Y-66950840D02*
X81619100Y-67298820D01*
X81619100Y-67298820D02*
X81469240Y-67750940D01*
X81469240Y-67750940D02*
X81520040Y-68248780D01*
X81520040Y-68248780D02*
X81768960Y-68551040D01*
X81768960Y-68551040D02*
X82119480Y-68749160D01*
X82119480Y-68749160D02*
X81768960Y-69749920D01*
X82820520Y-68749160D02*
X83219300Y-69749920D01*
D10*
X155219048Y-58376190D02*
X155219048Y-58780952D01*
X155242857Y-58828571D01*
X155266667Y-58852381D01*
X155314286Y-58876190D01*
X155409524Y-58876190D01*
X155457143Y-58852381D01*
X155480952Y-58828571D01*
X155504762Y-58780952D01*
X155504762Y-58376190D01*
X155957143Y-58376190D02*
X155861905Y-58376190D01*
X155814286Y-58400000D01*
X155790477Y-58423810D01*
X155742858Y-58495238D01*
X155719048Y-58590476D01*
X155719048Y-58780952D01*
X155742858Y-58828571D01*
X155766667Y-58852381D01*
X155814286Y-58876190D01*
X155909524Y-58876190D01*
X155957143Y-58852381D01*
X155980953Y-58828571D01*
X156004762Y-58780952D01*
X156004762Y-58661905D01*
X155980953Y-58614286D01*
X155957143Y-58590476D01*
X155909524Y-58566667D01*
X155814286Y-58566667D01*
X155766667Y-58590476D01*
X155742858Y-58614286D01*
X155719048Y-58661905D01*
X112296604Y-46018707D02*
X112272776Y-46042535D01*
X112201293Y-46066362D01*
X112153638Y-46066362D01*
X112082155Y-46042535D01*
X112034500Y-45994880D01*
X112010672Y-45947224D01*
X111986844Y-45851914D01*
X111986844Y-45780431D01*
X112010672Y-45685120D01*
X112034500Y-45637465D01*
X112082155Y-45589810D01*
X112153638Y-45565982D01*
X112201293Y-45565982D01*
X112272776Y-45589810D01*
X112296604Y-45613638D01*
X112487224Y-45613638D02*
X112511052Y-45589810D01*
X112558707Y-45565982D01*
X112677845Y-45565982D01*
X112725501Y-45589810D01*
X112749328Y-45613638D01*
X112773156Y-45661293D01*
X112773156Y-45708948D01*
X112749328Y-45780431D01*
X112463397Y-46066362D01*
X112773156Y-46066362D01*
X121666667Y-33828571D02*
X121642857Y-33852381D01*
X121571429Y-33876190D01*
X121523810Y-33876190D01*
X121452381Y-33852381D01*
X121404762Y-33804762D01*
X121380953Y-33757143D01*
X121357143Y-33661905D01*
X121357143Y-33590476D01*
X121380953Y-33495238D01*
X121404762Y-33447619D01*
X121452381Y-33400000D01*
X121523810Y-33376190D01*
X121571429Y-33376190D01*
X121642857Y-33400000D01*
X121666667Y-33423810D01*
X121833334Y-33376190D02*
X122142857Y-33376190D01*
X121976191Y-33566667D01*
X122047619Y-33566667D01*
X122095238Y-33590476D01*
X122119048Y-33614286D01*
X122142857Y-33661905D01*
X122142857Y-33780952D01*
X122119048Y-33828571D01*
X122095238Y-33852381D01*
X122047619Y-33876190D01*
X121904762Y-33876190D01*
X121857143Y-33852381D01*
X121833334Y-33828571D01*
X116006667Y-32698571D02*
X115982857Y-32722381D01*
X115911429Y-32746190D01*
X115863810Y-32746190D01*
X115792381Y-32722381D01*
X115744762Y-32674762D01*
X115720953Y-32627143D01*
X115697143Y-32531905D01*
X115697143Y-32460476D01*
X115720953Y-32365238D01*
X115744762Y-32317619D01*
X115792381Y-32270000D01*
X115863810Y-32246190D01*
X115911429Y-32246190D01*
X115982857Y-32270000D01*
X116006667Y-32293810D01*
X116435238Y-32412857D02*
X116435238Y-32746190D01*
X116316191Y-32222381D02*
X116197143Y-32579524D01*
X116506667Y-32579524D01*
X107076667Y-41158571D02*
X107052857Y-41182381D01*
X106981429Y-41206190D01*
X106933810Y-41206190D01*
X106862381Y-41182381D01*
X106814762Y-41134762D01*
X106790953Y-41087143D01*
X106767143Y-40991905D01*
X106767143Y-40920476D01*
X106790953Y-40825238D01*
X106814762Y-40777619D01*
X106862381Y-40730000D01*
X106933810Y-40706190D01*
X106981429Y-40706190D01*
X107052857Y-40730000D01*
X107076667Y-40753810D01*
X107529048Y-40706190D02*
X107290953Y-40706190D01*
X107267143Y-40944286D01*
X107290953Y-40920476D01*
X107338572Y-40896667D01*
X107457619Y-40896667D01*
X107505238Y-40920476D01*
X107529048Y-40944286D01*
X107552857Y-40991905D01*
X107552857Y-41110952D01*
X107529048Y-41158571D01*
X107505238Y-41182381D01*
X107457619Y-41206190D01*
X107338572Y-41206190D01*
X107290953Y-41182381D01*
X107267143Y-41158571D01*
X146876667Y-38288571D02*
X146852857Y-38312381D01*
X146781429Y-38336190D01*
X146733810Y-38336190D01*
X146662381Y-38312381D01*
X146614762Y-38264762D01*
X146590953Y-38217143D01*
X146567143Y-38121905D01*
X146567143Y-38050476D01*
X146590953Y-37955238D01*
X146614762Y-37907619D01*
X146662381Y-37860000D01*
X146733810Y-37836190D01*
X146781429Y-37836190D01*
X146852857Y-37860000D01*
X146876667Y-37883810D01*
X147305238Y-37836190D02*
X147210000Y-37836190D01*
X147162381Y-37860000D01*
X147138572Y-37883810D01*
X147090953Y-37955238D01*
X147067143Y-38050476D01*
X147067143Y-38240952D01*
X147090953Y-38288571D01*
X147114762Y-38312381D01*
X147162381Y-38336190D01*
X147257619Y-38336190D01*
X147305238Y-38312381D01*
X147329048Y-38288571D01*
X147352857Y-38240952D01*
X147352857Y-38121905D01*
X147329048Y-38074286D01*
X147305238Y-38050476D01*
X147257619Y-38026667D01*
X147162381Y-38026667D01*
X147114762Y-38050476D01*
X147090953Y-38074286D01*
X147067143Y-38121905D01*
X145346667Y-47688571D02*
X145322857Y-47712381D01*
X145251429Y-47736190D01*
X145203810Y-47736190D01*
X145132381Y-47712381D01*
X145084762Y-47664762D01*
X145060953Y-47617143D01*
X145037143Y-47521905D01*
X145037143Y-47450476D01*
X145060953Y-47355238D01*
X145084762Y-47307619D01*
X145132381Y-47260000D01*
X145203810Y-47236190D01*
X145251429Y-47236190D01*
X145322857Y-47260000D01*
X145346667Y-47283810D01*
X145513334Y-47236190D02*
X145846667Y-47236190D01*
X145632381Y-47736190D01*
X131983334Y-50257143D02*
X131935715Y-50304762D01*
X131792858Y-50352381D01*
X131697620Y-50352381D01*
X131554762Y-50304762D01*
X131459524Y-50209524D01*
X131411905Y-50114286D01*
X131364286Y-49923810D01*
X131364286Y-49780952D01*
X131411905Y-49590476D01*
X131459524Y-49495238D01*
X131554762Y-49400000D01*
X131697620Y-49352381D01*
X131792858Y-49352381D01*
X131935715Y-49400000D01*
X131983334Y-49447619D01*
X132554762Y-49780952D02*
X132459524Y-49733333D01*
X132411905Y-49685714D01*
X132364286Y-49590476D01*
X132364286Y-49542857D01*
X132411905Y-49447619D01*
X132459524Y-49400000D01*
X132554762Y-49352381D01*
X132745239Y-49352381D01*
X132840477Y-49400000D01*
X132888096Y-49447619D01*
X132935715Y-49542857D01*
X132935715Y-49590476D01*
X132888096Y-49685714D01*
X132840477Y-49733333D01*
X132745239Y-49780952D01*
X132554762Y-49780952D01*
X132459524Y-49828571D01*
X132411905Y-49876190D01*
X132364286Y-49971429D01*
X132364286Y-50161905D01*
X132411905Y-50257143D01*
X132459524Y-50304762D01*
X132554762Y-50352381D01*
X132745239Y-50352381D01*
X132840477Y-50304762D01*
X132888096Y-50257143D01*
X132935715Y-50161905D01*
X132935715Y-49971429D01*
X132888096Y-49876190D01*
X132840477Y-49828571D01*
X132745239Y-49780952D01*
X162316667Y-40328571D02*
X162292857Y-40352381D01*
X162221429Y-40376190D01*
X162173810Y-40376190D01*
X162102381Y-40352381D01*
X162054762Y-40304762D01*
X162030953Y-40257143D01*
X162007143Y-40161905D01*
X162007143Y-40090476D01*
X162030953Y-39995238D01*
X162054762Y-39947619D01*
X162102381Y-39900000D01*
X162173810Y-39876190D01*
X162221429Y-39876190D01*
X162292857Y-39900000D01*
X162316667Y-39923810D01*
X162554762Y-40376190D02*
X162650000Y-40376190D01*
X162697619Y-40352381D01*
X162721429Y-40328571D01*
X162769048Y-40257143D01*
X162792857Y-40161905D01*
X162792857Y-39971429D01*
X162769048Y-39923810D01*
X162745238Y-39900000D01*
X162697619Y-39876190D01*
X162602381Y-39876190D01*
X162554762Y-39900000D01*
X162530953Y-39923810D01*
X162507143Y-39971429D01*
X162507143Y-40090476D01*
X162530953Y-40138095D01*
X162554762Y-40161905D01*
X162602381Y-40185714D01*
X162697619Y-40185714D01*
X162745238Y-40161905D01*
X162769048Y-40138095D01*
X162792857Y-40090476D01*
X107305572Y-47928571D02*
X107283762Y-47952381D01*
X107218334Y-47976190D01*
X107174715Y-47976190D01*
X107109286Y-47952381D01*
X107065667Y-47904762D01*
X107043858Y-47857143D01*
X107022048Y-47761905D01*
X107022048Y-47690476D01*
X107043858Y-47595238D01*
X107065667Y-47547619D01*
X107109286Y-47500000D01*
X107174715Y-47476190D01*
X107218334Y-47476190D01*
X107283762Y-47500000D01*
X107305572Y-47523810D01*
X107741762Y-47976190D02*
X107480048Y-47976190D01*
X107610905Y-47976190D02*
X107610905Y-47476190D01*
X107567286Y-47547619D01*
X107523667Y-47595238D01*
X107480048Y-47619048D01*
X108025286Y-47476190D02*
X108068905Y-47476190D01*
X108112524Y-47500000D01*
X108134333Y-47523810D01*
X108156143Y-47571429D01*
X108177952Y-47666667D01*
X108177952Y-47785714D01*
X108156143Y-47880952D01*
X108134333Y-47928571D01*
X108112524Y-47952381D01*
X108068905Y-47976190D01*
X108025286Y-47976190D01*
X107981667Y-47952381D01*
X107959857Y-47928571D01*
X107938048Y-47880952D01*
X107916238Y-47785714D01*
X107916238Y-47666667D01*
X107938048Y-47571429D01*
X107959857Y-47523810D01*
X107981667Y-47500000D01*
X108025286Y-47476190D01*
X110612858Y-56978571D02*
X110593810Y-57002381D01*
X110536667Y-57026190D01*
X110498572Y-57026190D01*
X110441429Y-57002381D01*
X110403334Y-56954762D01*
X110384286Y-56907143D01*
X110365238Y-56811905D01*
X110365238Y-56740476D01*
X110384286Y-56645238D01*
X110403334Y-56597619D01*
X110441429Y-56550000D01*
X110498572Y-56526190D01*
X110536667Y-56526190D01*
X110593810Y-56550000D01*
X110612858Y-56573810D01*
X110993810Y-57026190D02*
X110765238Y-57026190D01*
X110879524Y-57026190D02*
X110879524Y-56526190D01*
X110841429Y-56597619D01*
X110803334Y-56645238D01*
X110765238Y-56669048D01*
X111374762Y-57026190D02*
X111146190Y-57026190D01*
X111260476Y-57026190D02*
X111260476Y-56526190D01*
X111222381Y-56597619D01*
X111184286Y-56645238D01*
X111146190Y-56669048D01*
X143028572Y-50828571D02*
X143004762Y-50852381D01*
X142933334Y-50876190D01*
X142885715Y-50876190D01*
X142814286Y-50852381D01*
X142766667Y-50804762D01*
X142742858Y-50757143D01*
X142719048Y-50661905D01*
X142719048Y-50590476D01*
X142742858Y-50495238D01*
X142766667Y-50447619D01*
X142814286Y-50400000D01*
X142885715Y-50376190D01*
X142933334Y-50376190D01*
X143004762Y-50400000D01*
X143028572Y-50423810D01*
X143504762Y-50876190D02*
X143219048Y-50876190D01*
X143361905Y-50876190D02*
X143361905Y-50376190D01*
X143314286Y-50447619D01*
X143266667Y-50495238D01*
X143219048Y-50519048D01*
X143695238Y-50423810D02*
X143719048Y-50400000D01*
X143766667Y-50376190D01*
X143885714Y-50376190D01*
X143933333Y-50400000D01*
X143957143Y-50423810D01*
X143980952Y-50471429D01*
X143980952Y-50519048D01*
X143957143Y-50590476D01*
X143671429Y-50876190D01*
X143980952Y-50876190D01*
X138888571Y-49971428D02*
X138912381Y-49995238D01*
X138936190Y-50066666D01*
X138936190Y-50114285D01*
X138912381Y-50185714D01*
X138864762Y-50233333D01*
X138817143Y-50257142D01*
X138721905Y-50280952D01*
X138650476Y-50280952D01*
X138555238Y-50257142D01*
X138507619Y-50233333D01*
X138460000Y-50185714D01*
X138436190Y-50114285D01*
X138436190Y-50066666D01*
X138460000Y-49995238D01*
X138483810Y-49971428D01*
X138936190Y-49495238D02*
X138936190Y-49780952D01*
X138936190Y-49638095D02*
X138436190Y-49638095D01*
X138507619Y-49685714D01*
X138555238Y-49733333D01*
X138579048Y-49780952D01*
X138436190Y-49328571D02*
X138436190Y-49019048D01*
X138626667Y-49185714D01*
X138626667Y-49114286D01*
X138650476Y-49066667D01*
X138674286Y-49042857D01*
X138721905Y-49019048D01*
X138840952Y-49019048D01*
X138888571Y-49042857D01*
X138912381Y-49066667D01*
X138936190Y-49114286D01*
X138936190Y-49257143D01*
X138912381Y-49304762D01*
X138888571Y-49328571D01*
D22*
X151883307Y-37496272D02*
X151907135Y-37520100D01*
X151930962Y-37591583D01*
X151930962Y-37639238D01*
X151907135Y-37710721D01*
X151859480Y-37758376D01*
X151811824Y-37782204D01*
X151716514Y-37806032D01*
X151645031Y-37806032D01*
X151549720Y-37782204D01*
X151502065Y-37758376D01*
X151454410Y-37710721D01*
X151430582Y-37639238D01*
X151430582Y-37591583D01*
X151454410Y-37520100D01*
X151478238Y-37496272D01*
X151930962Y-37019720D02*
X151930962Y-37305652D01*
X151930962Y-37162686D02*
X151430582Y-37162686D01*
X151502065Y-37210341D01*
X151549720Y-37257996D01*
X151573548Y-37305652D01*
X151597376Y-36590823D02*
X151930962Y-36590823D01*
X151406755Y-36709961D02*
X151764169Y-36829100D01*
X151764169Y-36519340D01*
X149183307Y-37496272D02*
X149207135Y-37520100D01*
X149230962Y-37591583D01*
X149230962Y-37639238D01*
X149207135Y-37710721D01*
X149159480Y-37758376D01*
X149111824Y-37782204D01*
X149016514Y-37806032D01*
X148945031Y-37806032D01*
X148849720Y-37782204D01*
X148802065Y-37758376D01*
X148754410Y-37710721D01*
X148730582Y-37639238D01*
X148730582Y-37591583D01*
X148754410Y-37520100D01*
X148778238Y-37496272D01*
X149230962Y-37019720D02*
X149230962Y-37305652D01*
X149230962Y-37162686D02*
X148730582Y-37162686D01*
X148802065Y-37210341D01*
X148849720Y-37257996D01*
X148873548Y-37305652D01*
X148730582Y-36566996D02*
X148730582Y-36805272D01*
X148968859Y-36829100D01*
X148945031Y-36805272D01*
X148921203Y-36757617D01*
X148921203Y-36638479D01*
X148945031Y-36590823D01*
X148968859Y-36566996D01*
X149016514Y-36543168D01*
X149135652Y-36543168D01*
X149183307Y-36566996D01*
X149207135Y-36590823D01*
X149230962Y-36638479D01*
X149230962Y-36757617D01*
X149207135Y-36805272D01*
X149183307Y-36829100D01*
D15*
X138178328Y-52768707D02*
X138154500Y-52792535D01*
X138083017Y-52816362D01*
X138035362Y-52816362D01*
X137963879Y-52792535D01*
X137916224Y-52744880D01*
X137892396Y-52697224D01*
X137868568Y-52601914D01*
X137868568Y-52530431D01*
X137892396Y-52435120D01*
X137916224Y-52387465D01*
X137963879Y-52339810D01*
X138035362Y-52315982D01*
X138083017Y-52315982D01*
X138154500Y-52339810D01*
X138178328Y-52363638D01*
X138654880Y-52816362D02*
X138368948Y-52816362D01*
X138511914Y-52816362D02*
X138511914Y-52315982D01*
X138464259Y-52387465D01*
X138416604Y-52435120D01*
X138368948Y-52458948D01*
X139083777Y-52315982D02*
X138988466Y-52315982D01*
X138940811Y-52339810D01*
X138916983Y-52363638D01*
X138869328Y-52435120D01*
X138845500Y-52530431D01*
X138845500Y-52721052D01*
X138869328Y-52768707D01*
X138893156Y-52792535D01*
X138940811Y-52816362D01*
X139036121Y-52816362D01*
X139083777Y-52792535D01*
X139107604Y-52768707D01*
X139131432Y-52721052D01*
X139131432Y-52601914D01*
X139107604Y-52554259D01*
X139083777Y-52530431D01*
X139036121Y-52506603D01*
X138940811Y-52506603D01*
X138893156Y-52530431D01*
X138869328Y-52554259D01*
X138845500Y-52601914D01*
D10*
X118968572Y-58088571D02*
X118944762Y-58112381D01*
X118873334Y-58136190D01*
X118825715Y-58136190D01*
X118754286Y-58112381D01*
X118706667Y-58064762D01*
X118682858Y-58017143D01*
X118659048Y-57921905D01*
X118659048Y-57850476D01*
X118682858Y-57755238D01*
X118706667Y-57707619D01*
X118754286Y-57660000D01*
X118825715Y-57636190D01*
X118873334Y-57636190D01*
X118944762Y-57660000D01*
X118968572Y-57683810D01*
X119444762Y-58136190D02*
X119159048Y-58136190D01*
X119301905Y-58136190D02*
X119301905Y-57636190D01*
X119254286Y-57707619D01*
X119206667Y-57755238D01*
X119159048Y-57779048D01*
X119611429Y-57636190D02*
X119944762Y-57636190D01*
X119730476Y-58136190D01*
D15*
X138098328Y-55548707D02*
X138074500Y-55572535D01*
X138003017Y-55596362D01*
X137955362Y-55596362D01*
X137883879Y-55572535D01*
X137836224Y-55524880D01*
X137812396Y-55477224D01*
X137788568Y-55381914D01*
X137788568Y-55310431D01*
X137812396Y-55215120D01*
X137836224Y-55167465D01*
X137883879Y-55119810D01*
X137955362Y-55095982D01*
X138003017Y-55095982D01*
X138074500Y-55119810D01*
X138098328Y-55143638D01*
X138574880Y-55596362D02*
X138288948Y-55596362D01*
X138431914Y-55596362D02*
X138431914Y-55095982D01*
X138384259Y-55167465D01*
X138336604Y-55215120D01*
X138288948Y-55238948D01*
X138860811Y-55310431D02*
X138813156Y-55286603D01*
X138789328Y-55262776D01*
X138765500Y-55215120D01*
X138765500Y-55191293D01*
X138789328Y-55143638D01*
X138813156Y-55119810D01*
X138860811Y-55095982D01*
X138956121Y-55095982D01*
X139003777Y-55119810D01*
X139027604Y-55143638D01*
X139051432Y-55191293D01*
X139051432Y-55215120D01*
X139027604Y-55262776D01*
X139003777Y-55286603D01*
X138956121Y-55310431D01*
X138860811Y-55310431D01*
X138813156Y-55334259D01*
X138789328Y-55358086D01*
X138765500Y-55405741D01*
X138765500Y-55501052D01*
X138789328Y-55548707D01*
X138813156Y-55572535D01*
X138860811Y-55596362D01*
X138956121Y-55596362D01*
X139003777Y-55572535D01*
X139027604Y-55548707D01*
X139051432Y-55501052D01*
X139051432Y-55405741D01*
X139027604Y-55358086D01*
X139003777Y-55334259D01*
X138956121Y-55310431D01*
D10*
X120998572Y-63928571D02*
X120974762Y-63952381D01*
X120903334Y-63976190D01*
X120855715Y-63976190D01*
X120784286Y-63952381D01*
X120736667Y-63904762D01*
X120712858Y-63857143D01*
X120689048Y-63761905D01*
X120689048Y-63690476D01*
X120712858Y-63595238D01*
X120736667Y-63547619D01*
X120784286Y-63500000D01*
X120855715Y-63476190D01*
X120903334Y-63476190D01*
X120974762Y-63500000D01*
X120998572Y-63523810D01*
X121474762Y-63976190D02*
X121189048Y-63976190D01*
X121331905Y-63976190D02*
X121331905Y-63476190D01*
X121284286Y-63547619D01*
X121236667Y-63595238D01*
X121189048Y-63619048D01*
X121712857Y-63976190D02*
X121808095Y-63976190D01*
X121855714Y-63952381D01*
X121879524Y-63928571D01*
X121927143Y-63857143D01*
X121950952Y-63761905D01*
X121950952Y-63571429D01*
X121927143Y-63523810D01*
X121903333Y-63500000D01*
X121855714Y-63476190D01*
X121760476Y-63476190D01*
X121712857Y-63500000D01*
X121689048Y-63523810D01*
X121665238Y-63571429D01*
X121665238Y-63690476D01*
X121689048Y-63738095D01*
X121712857Y-63761905D01*
X121760476Y-63785714D01*
X121855714Y-63785714D01*
X121903333Y-63761905D01*
X121927143Y-63738095D01*
X121950952Y-63690476D01*
X138578572Y-71428571D02*
X138554762Y-71452381D01*
X138483334Y-71476190D01*
X138435715Y-71476190D01*
X138364286Y-71452381D01*
X138316667Y-71404762D01*
X138292858Y-71357143D01*
X138269048Y-71261905D01*
X138269048Y-71190476D01*
X138292858Y-71095238D01*
X138316667Y-71047619D01*
X138364286Y-71000000D01*
X138435715Y-70976190D01*
X138483334Y-70976190D01*
X138554762Y-71000000D01*
X138578572Y-71023810D01*
X138769048Y-71023810D02*
X138792858Y-71000000D01*
X138840477Y-70976190D01*
X138959524Y-70976190D01*
X139007143Y-71000000D01*
X139030953Y-71023810D01*
X139054762Y-71071429D01*
X139054762Y-71119048D01*
X139030953Y-71190476D01*
X138745239Y-71476190D01*
X139054762Y-71476190D01*
X139364286Y-70976190D02*
X139411905Y-70976190D01*
X139459524Y-71000000D01*
X139483333Y-71023810D01*
X139507143Y-71071429D01*
X139530952Y-71166667D01*
X139530952Y-71285714D01*
X139507143Y-71380952D01*
X139483333Y-71428571D01*
X139459524Y-71452381D01*
X139411905Y-71476190D01*
X139364286Y-71476190D01*
X139316667Y-71452381D01*
X139292857Y-71428571D01*
X139269048Y-71380952D01*
X139245238Y-71285714D01*
X139245238Y-71166667D01*
X139269048Y-71071429D01*
X139292857Y-71023810D01*
X139316667Y-71000000D01*
X139364286Y-70976190D01*
X142401999Y-70948992D02*
X142378189Y-70972802D01*
X142306761Y-70996611D01*
X142259142Y-70996611D01*
X142187713Y-70972802D01*
X142140094Y-70925183D01*
X142116285Y-70877564D01*
X142092475Y-70782326D01*
X142092475Y-70710897D01*
X142116285Y-70615659D01*
X142140094Y-70568040D01*
X142187713Y-70520421D01*
X142259142Y-70496611D01*
X142306761Y-70496611D01*
X142378189Y-70520421D01*
X142401999Y-70544231D01*
X142592475Y-70544231D02*
X142616285Y-70520421D01*
X142663904Y-70496611D01*
X142782951Y-70496611D01*
X142830570Y-70520421D01*
X142854380Y-70544231D01*
X142878189Y-70591850D01*
X142878189Y-70639469D01*
X142854380Y-70710897D01*
X142568666Y-70996611D01*
X142878189Y-70996611D01*
X143354379Y-70996611D02*
X143068665Y-70996611D01*
X143211522Y-70996611D02*
X143211522Y-70496611D01*
X143163903Y-70568040D01*
X143116284Y-70615659D01*
X143068665Y-70639469D01*
X112928571Y-64191428D02*
X112952381Y-64215238D01*
X112976190Y-64286666D01*
X112976190Y-64334285D01*
X112952381Y-64405714D01*
X112904762Y-64453333D01*
X112857143Y-64477142D01*
X112761905Y-64500952D01*
X112690476Y-64500952D01*
X112595238Y-64477142D01*
X112547619Y-64453333D01*
X112500000Y-64405714D01*
X112476190Y-64334285D01*
X112476190Y-64286666D01*
X112500000Y-64215238D01*
X112523810Y-64191428D01*
X112523810Y-64000952D02*
X112500000Y-63977142D01*
X112476190Y-63929523D01*
X112476190Y-63810476D01*
X112500000Y-63762857D01*
X112523810Y-63739047D01*
X112571429Y-63715238D01*
X112619048Y-63715238D01*
X112690476Y-63739047D01*
X112976190Y-64024761D01*
X112976190Y-63715238D01*
X112523810Y-63524762D02*
X112500000Y-63500952D01*
X112476190Y-63453333D01*
X112476190Y-63334286D01*
X112500000Y-63286667D01*
X112523810Y-63262857D01*
X112571429Y-63239048D01*
X112619048Y-63239048D01*
X112690476Y-63262857D01*
X112976190Y-63548571D01*
X112976190Y-63239048D01*
X147438571Y-61821428D02*
X147462381Y-61845238D01*
X147486190Y-61916666D01*
X147486190Y-61964285D01*
X147462381Y-62035714D01*
X147414762Y-62083333D01*
X147367143Y-62107142D01*
X147271905Y-62130952D01*
X147200476Y-62130952D01*
X147105238Y-62107142D01*
X147057619Y-62083333D01*
X147010000Y-62035714D01*
X146986190Y-61964285D01*
X146986190Y-61916666D01*
X147010000Y-61845238D01*
X147033810Y-61821428D01*
X147033810Y-61630952D02*
X147010000Y-61607142D01*
X146986190Y-61559523D01*
X146986190Y-61440476D01*
X147010000Y-61392857D01*
X147033810Y-61369047D01*
X147081429Y-61345238D01*
X147129048Y-61345238D01*
X147200476Y-61369047D01*
X147486190Y-61654761D01*
X147486190Y-61345238D01*
X146986190Y-61178571D02*
X146986190Y-60869048D01*
X147176667Y-61035714D01*
X147176667Y-60964286D01*
X147200476Y-60916667D01*
X147224286Y-60892857D01*
X147271905Y-60869048D01*
X147390952Y-60869048D01*
X147438571Y-60892857D01*
X147462381Y-60916667D01*
X147486190Y-60964286D01*
X147486190Y-61107143D01*
X147462381Y-61154762D01*
X147438571Y-61178571D01*
X110548571Y-64241428D02*
X110572381Y-64265238D01*
X110596190Y-64336666D01*
X110596190Y-64384285D01*
X110572381Y-64455714D01*
X110524762Y-64503333D01*
X110477143Y-64527142D01*
X110381905Y-64550952D01*
X110310476Y-64550952D01*
X110215238Y-64527142D01*
X110167619Y-64503333D01*
X110120000Y-64455714D01*
X110096190Y-64384285D01*
X110096190Y-64336666D01*
X110120000Y-64265238D01*
X110143810Y-64241428D01*
X110143810Y-64050952D02*
X110120000Y-64027142D01*
X110096190Y-63979523D01*
X110096190Y-63860476D01*
X110120000Y-63812857D01*
X110143810Y-63789047D01*
X110191429Y-63765238D01*
X110239048Y-63765238D01*
X110310476Y-63789047D01*
X110596190Y-64074761D01*
X110596190Y-63765238D01*
X110262857Y-63336667D02*
X110596190Y-63336667D01*
X110072381Y-63455714D02*
X110429524Y-63574762D01*
X110429524Y-63265238D01*
X153448572Y-74898571D02*
X153424762Y-74922381D01*
X153353334Y-74946190D01*
X153305715Y-74946190D01*
X153234286Y-74922381D01*
X153186667Y-74874762D01*
X153162858Y-74827143D01*
X153139048Y-74731905D01*
X153139048Y-74660476D01*
X153162858Y-74565238D01*
X153186667Y-74517619D01*
X153234286Y-74470000D01*
X153305715Y-74446190D01*
X153353334Y-74446190D01*
X153424762Y-74470000D01*
X153448572Y-74493810D01*
X153615239Y-74446190D02*
X153924762Y-74446190D01*
X153758096Y-74636667D01*
X153829524Y-74636667D01*
X153877143Y-74660476D01*
X153900953Y-74684286D01*
X153924762Y-74731905D01*
X153924762Y-74850952D01*
X153900953Y-74898571D01*
X153877143Y-74922381D01*
X153829524Y-74946190D01*
X153686667Y-74946190D01*
X153639048Y-74922381D01*
X153615239Y-74898571D01*
X154210476Y-74660476D02*
X154162857Y-74636667D01*
X154139048Y-74612857D01*
X154115238Y-74565238D01*
X154115238Y-74541429D01*
X154139048Y-74493810D01*
X154162857Y-74470000D01*
X154210476Y-74446190D01*
X154305714Y-74446190D01*
X154353333Y-74470000D01*
X154377143Y-74493810D01*
X154400952Y-74541429D01*
X154400952Y-74565238D01*
X154377143Y-74612857D01*
X154353333Y-74636667D01*
X154305714Y-74660476D01*
X154210476Y-74660476D01*
X154162857Y-74684286D01*
X154139048Y-74708095D01*
X154115238Y-74755714D01*
X154115238Y-74850952D01*
X154139048Y-74898571D01*
X154162857Y-74922381D01*
X154210476Y-74946190D01*
X154305714Y-74946190D01*
X154353333Y-74922381D01*
X154377143Y-74898571D01*
X154400952Y-74850952D01*
X154400952Y-74755714D01*
X154377143Y-74708095D01*
X154353333Y-74684286D01*
X154305714Y-74660476D01*
X149868572Y-69518571D02*
X149844762Y-69542381D01*
X149773334Y-69566190D01*
X149725715Y-69566190D01*
X149654286Y-69542381D01*
X149606667Y-69494762D01*
X149582858Y-69447143D01*
X149559048Y-69351905D01*
X149559048Y-69280476D01*
X149582858Y-69185238D01*
X149606667Y-69137619D01*
X149654286Y-69090000D01*
X149725715Y-69066190D01*
X149773334Y-69066190D01*
X149844762Y-69090000D01*
X149868572Y-69113810D01*
X150035239Y-69066190D02*
X150344762Y-69066190D01*
X150178096Y-69256667D01*
X150249524Y-69256667D01*
X150297143Y-69280476D01*
X150320953Y-69304286D01*
X150344762Y-69351905D01*
X150344762Y-69470952D01*
X150320953Y-69518571D01*
X150297143Y-69542381D01*
X150249524Y-69566190D01*
X150106667Y-69566190D01*
X150059048Y-69542381D01*
X150035239Y-69518571D01*
X150582857Y-69566190D02*
X150678095Y-69566190D01*
X150725714Y-69542381D01*
X150749524Y-69518571D01*
X150797143Y-69447143D01*
X150820952Y-69351905D01*
X150820952Y-69161429D01*
X150797143Y-69113810D01*
X150773333Y-69090000D01*
X150725714Y-69066190D01*
X150630476Y-69066190D01*
X150582857Y-69090000D01*
X150559048Y-69113810D01*
X150535238Y-69161429D01*
X150535238Y-69280476D01*
X150559048Y-69328095D01*
X150582857Y-69351905D01*
X150630476Y-69375714D01*
X150725714Y-69375714D01*
X150773333Y-69351905D01*
X150797143Y-69328095D01*
X150820952Y-69280476D01*
X143460953Y-31636190D02*
X143460953Y-31136190D01*
X143580000Y-31136190D01*
X143651429Y-31160000D01*
X143699048Y-31207619D01*
X143722857Y-31255238D01*
X143746667Y-31350476D01*
X143746667Y-31421905D01*
X143722857Y-31517143D01*
X143699048Y-31564762D01*
X143651429Y-31612381D01*
X143580000Y-31636190D01*
X143460953Y-31636190D01*
X144222857Y-31636190D02*
X143937143Y-31636190D01*
X144080000Y-31636190D02*
X144080000Y-31136190D01*
X144032381Y-31207619D01*
X143984762Y-31255238D01*
X143937143Y-31279048D01*
X102940953Y-38396190D02*
X102940953Y-37896190D01*
X103060000Y-37896190D01*
X103131429Y-37920000D01*
X103179048Y-37967619D01*
X103202857Y-38015238D01*
X103226667Y-38110476D01*
X103226667Y-38181905D01*
X103202857Y-38277143D01*
X103179048Y-38324762D01*
X103131429Y-38372381D01*
X103060000Y-38396190D01*
X102940953Y-38396190D01*
X103417143Y-37943810D02*
X103440953Y-37920000D01*
X103488572Y-37896190D01*
X103607619Y-37896190D01*
X103655238Y-37920000D01*
X103679048Y-37943810D01*
X103702857Y-37991429D01*
X103702857Y-38039048D01*
X103679048Y-38110476D01*
X103393334Y-38396190D01*
X103702857Y-38396190D01*
X122000953Y-41156190D02*
X122000953Y-40656190D01*
X122120000Y-40656190D01*
X122191429Y-40680000D01*
X122239048Y-40727619D01*
X122262857Y-40775238D01*
X122286667Y-40870476D01*
X122286667Y-40941905D01*
X122262857Y-41037143D01*
X122239048Y-41084762D01*
X122191429Y-41132381D01*
X122120000Y-41156190D01*
X122000953Y-41156190D01*
X122453334Y-40656190D02*
X122762857Y-40656190D01*
X122596191Y-40846667D01*
X122667619Y-40846667D01*
X122715238Y-40870476D01*
X122739048Y-40894286D01*
X122762857Y-40941905D01*
X122762857Y-41060952D01*
X122739048Y-41108571D01*
X122715238Y-41132381D01*
X122667619Y-41156190D01*
X122524762Y-41156190D01*
X122477143Y-41132381D01*
X122453334Y-41108571D01*
X126990953Y-43266190D02*
X126990953Y-42766190D01*
X127110000Y-42766190D01*
X127181429Y-42790000D01*
X127229048Y-42837619D01*
X127252857Y-42885238D01*
X127276667Y-42980476D01*
X127276667Y-43051905D01*
X127252857Y-43147143D01*
X127229048Y-43194762D01*
X127181429Y-43242381D01*
X127110000Y-43266190D01*
X126990953Y-43266190D01*
X127705238Y-42932857D02*
X127705238Y-43266190D01*
X127586191Y-42742381D02*
X127467143Y-43099524D01*
X127776667Y-43099524D01*
X118530953Y-32326190D02*
X118530953Y-31826190D01*
X118650000Y-31826190D01*
X118721429Y-31850000D01*
X118769048Y-31897619D01*
X118792857Y-31945238D01*
X118816667Y-32040476D01*
X118816667Y-32111905D01*
X118792857Y-32207143D01*
X118769048Y-32254762D01*
X118721429Y-32302381D01*
X118650000Y-32326190D01*
X118530953Y-32326190D01*
X119269048Y-31826190D02*
X119030953Y-31826190D01*
X119007143Y-32064286D01*
X119030953Y-32040476D01*
X119078572Y-32016667D01*
X119197619Y-32016667D01*
X119245238Y-32040476D01*
X119269048Y-32064286D01*
X119292857Y-32111905D01*
X119292857Y-32230952D01*
X119269048Y-32278571D01*
X119245238Y-32302381D01*
X119197619Y-32326190D01*
X119078572Y-32326190D01*
X119030953Y-32302381D01*
X119007143Y-32278571D01*
X121040953Y-45966190D02*
X121040953Y-45466190D01*
X121160000Y-45466190D01*
X121231429Y-45490000D01*
X121279048Y-45537619D01*
X121302857Y-45585238D01*
X121326667Y-45680476D01*
X121326667Y-45751905D01*
X121302857Y-45847143D01*
X121279048Y-45894762D01*
X121231429Y-45942381D01*
X121160000Y-45966190D01*
X121040953Y-45966190D01*
X121493334Y-45466190D02*
X121826667Y-45466190D01*
X121612381Y-45966190D01*
D15*
X140280953Y-43576190D02*
X140280953Y-43076190D01*
X140400000Y-43076190D01*
X140471429Y-43100000D01*
X140519048Y-43147619D01*
X140542857Y-43195238D01*
X140566667Y-43290476D01*
X140566667Y-43361905D01*
X140542857Y-43457143D01*
X140519048Y-43504762D01*
X140471429Y-43552381D01*
X140400000Y-43576190D01*
X140280953Y-43576190D01*
X140852381Y-43290476D02*
X140804762Y-43266667D01*
X140780953Y-43242857D01*
X140757143Y-43195238D01*
X140757143Y-43171429D01*
X140780953Y-43123810D01*
X140804762Y-43100000D01*
X140852381Y-43076190D01*
X140947619Y-43076190D01*
X140995238Y-43100000D01*
X141019048Y-43123810D01*
X141042857Y-43171429D01*
X141042857Y-43195238D01*
X141019048Y-43242857D01*
X140995238Y-43266667D01*
X140947619Y-43290476D01*
X140852381Y-43290476D01*
X140804762Y-43314286D01*
X140780953Y-43338095D01*
X140757143Y-43385714D01*
X140757143Y-43480952D01*
X140780953Y-43528571D01*
X140804762Y-43552381D01*
X140852381Y-43576190D01*
X140947619Y-43576190D01*
X140995238Y-43552381D01*
X141019048Y-43528571D01*
X141042857Y-43480952D01*
X141042857Y-43385714D01*
X141019048Y-43338095D01*
X140995238Y-43314286D01*
X140947619Y-43290476D01*
D10*
X95900953Y-31886190D02*
X95900953Y-31386190D01*
X96020000Y-31386190D01*
X96091429Y-31410000D01*
X96139048Y-31457619D01*
X96162857Y-31505238D01*
X96186667Y-31600476D01*
X96186667Y-31671905D01*
X96162857Y-31767143D01*
X96139048Y-31814762D01*
X96091429Y-31862381D01*
X96020000Y-31886190D01*
X95900953Y-31886190D01*
X96424762Y-31886190D02*
X96520000Y-31886190D01*
X96567619Y-31862381D01*
X96591429Y-31838571D01*
X96639048Y-31767143D01*
X96662857Y-31671905D01*
X96662857Y-31481429D01*
X96639048Y-31433810D01*
X96615238Y-31410000D01*
X96567619Y-31386190D01*
X96472381Y-31386190D01*
X96424762Y-31410000D01*
X96400953Y-31433810D01*
X96377143Y-31481429D01*
X96377143Y-31600476D01*
X96400953Y-31648095D01*
X96424762Y-31671905D01*
X96472381Y-31695714D01*
X96567619Y-31695714D01*
X96615238Y-31671905D01*
X96639048Y-31648095D01*
X96662857Y-31600476D01*
D11*
X100269048Y-31121429D02*
X101030953Y-31121429D01*
X100771429Y-37780952D02*
X100771429Y-37019047D01*
X101152381Y-37399999D02*
X100390476Y-37399999D01*
D10*
X86313810Y-61766858D02*
X85805810Y-61766858D01*
X85805810Y-61645905D01*
X85830000Y-61573334D01*
X85878381Y-61524953D01*
X85926762Y-61500762D01*
X86023524Y-61476572D01*
X86096095Y-61476572D01*
X86192857Y-61500762D01*
X86241238Y-61524953D01*
X86289619Y-61573334D01*
X86313810Y-61645905D01*
X86313810Y-61766858D01*
X86313810Y-60992762D02*
X86313810Y-61283048D01*
X86313810Y-61137905D02*
X85805810Y-61137905D01*
X85878381Y-61186286D01*
X85926762Y-61234667D01*
X85950952Y-61283048D01*
X85805810Y-60678286D02*
X85805810Y-60629905D01*
X85830000Y-60581524D01*
X85854190Y-60557333D01*
X85902571Y-60533143D01*
X85999333Y-60508952D01*
X86120286Y-60508952D01*
X86217048Y-60533143D01*
X86265429Y-60557333D01*
X86289619Y-60581524D01*
X86313810Y-60629905D01*
X86313810Y-60678286D01*
X86289619Y-60726667D01*
X86265429Y-60750857D01*
X86217048Y-60775048D01*
X86120286Y-60799238D01*
X85999333Y-60799238D01*
X85902571Y-60775048D01*
X85854190Y-60750857D01*
X85830000Y-60726667D01*
X85805810Y-60678286D01*
X88563810Y-61766858D02*
X88055810Y-61766858D01*
X88055810Y-61645905D01*
X88080000Y-61573334D01*
X88128381Y-61524953D01*
X88176762Y-61500762D01*
X88273524Y-61476572D01*
X88346095Y-61476572D01*
X88442857Y-61500762D01*
X88491238Y-61524953D01*
X88539619Y-61573334D01*
X88563810Y-61645905D01*
X88563810Y-61766858D01*
X88563810Y-60992762D02*
X88563810Y-61283048D01*
X88563810Y-61137905D02*
X88055810Y-61137905D01*
X88128381Y-61186286D01*
X88176762Y-61234667D01*
X88200952Y-61283048D01*
X88563810Y-60508952D02*
X88563810Y-60799238D01*
X88563810Y-60654095D02*
X88055810Y-60654095D01*
X88128381Y-60702476D01*
X88176762Y-60750857D01*
X88200952Y-60799238D01*
D17*
X150233142Y-33195810D02*
X150233142Y-32687810D01*
X150354095Y-32687810D01*
X150426666Y-32712000D01*
X150475047Y-32760381D01*
X150499238Y-32808762D01*
X150523428Y-32905524D01*
X150523428Y-32978095D01*
X150499238Y-33074857D01*
X150475047Y-33123238D01*
X150426666Y-33171619D01*
X150354095Y-33195810D01*
X150233142Y-33195810D01*
X151007238Y-33195810D02*
X150716952Y-33195810D01*
X150862095Y-33195810D02*
X150862095Y-32687810D01*
X150813714Y-32760381D01*
X150765333Y-32808762D01*
X150716952Y-32832952D01*
X151200762Y-32736190D02*
X151224952Y-32712000D01*
X151273333Y-32687810D01*
X151394286Y-32687810D01*
X151442667Y-32712000D01*
X151466857Y-32736190D01*
X151491048Y-32784571D01*
X151491048Y-32832952D01*
X151466857Y-32905524D01*
X151176571Y-33195810D01*
X151491048Y-33195810D01*
D10*
X116068913Y-61598479D02*
X116068913Y-61098479D01*
X116187960Y-61098479D01*
X116259389Y-61122289D01*
X116307008Y-61169908D01*
X116330817Y-61217527D01*
X116354627Y-61312765D01*
X116354627Y-61384194D01*
X116330817Y-61479432D01*
X116307008Y-61527051D01*
X116259389Y-61574670D01*
X116187960Y-61598479D01*
X116068913Y-61598479D01*
X116830817Y-61598479D02*
X116545103Y-61598479D01*
X116687960Y-61598479D02*
X116687960Y-61098479D01*
X116640341Y-61169908D01*
X116592722Y-61217527D01*
X116545103Y-61241337D01*
X116997484Y-61098479D02*
X117307007Y-61098479D01*
X117140341Y-61288956D01*
X117211769Y-61288956D01*
X117259388Y-61312765D01*
X117283198Y-61336575D01*
X117307007Y-61384194D01*
X117307007Y-61503241D01*
X117283198Y-61550860D01*
X117259388Y-61574670D01*
X117211769Y-61598479D01*
X117068912Y-61598479D01*
X117021293Y-61574670D01*
X116997484Y-61550860D01*
X122312858Y-66026190D02*
X122312858Y-65526190D01*
X122431905Y-65526190D01*
X122503334Y-65550000D01*
X122550953Y-65597619D01*
X122574762Y-65645238D01*
X122598572Y-65740476D01*
X122598572Y-65811905D01*
X122574762Y-65907143D01*
X122550953Y-65954762D01*
X122503334Y-66002381D01*
X122431905Y-66026190D01*
X122312858Y-66026190D01*
X123074762Y-66026190D02*
X122789048Y-66026190D01*
X122931905Y-66026190D02*
X122931905Y-65526190D01*
X122884286Y-65597619D01*
X122836667Y-65645238D01*
X122789048Y-65669048D01*
X123503333Y-65692857D02*
X123503333Y-66026190D01*
X123384286Y-65502381D02*
X123265238Y-65859524D01*
X123574762Y-65859524D01*
D15*
X142766285Y-57846611D02*
X142766285Y-57346611D01*
X142885332Y-57346611D01*
X142956761Y-57370421D01*
X143004380Y-57418040D01*
X143028189Y-57465659D01*
X143051999Y-57560897D01*
X143051999Y-57632326D01*
X143028189Y-57727564D01*
X143004380Y-57775183D01*
X142956761Y-57822802D01*
X142885332Y-57846611D01*
X142766285Y-57846611D01*
X143528189Y-57846611D02*
X143242475Y-57846611D01*
X143385332Y-57846611D02*
X143385332Y-57346611D01*
X143337713Y-57418040D01*
X143290094Y-57465659D01*
X143242475Y-57489469D01*
X143980570Y-57346611D02*
X143742475Y-57346611D01*
X143718665Y-57584707D01*
X143742475Y-57560897D01*
X143790094Y-57537088D01*
X143909141Y-57537088D01*
X143956760Y-57560897D01*
X143980570Y-57584707D01*
X144004379Y-57632326D01*
X144004379Y-57751373D01*
X143980570Y-57798992D01*
X143956760Y-57822802D01*
X143909141Y-57846611D01*
X143790094Y-57846611D01*
X143742475Y-57822802D01*
X143718665Y-57798992D01*
D10*
X150533142Y-63059810D02*
X150533142Y-62551810D01*
X150654095Y-62551810D01*
X150726666Y-62576000D01*
X150775047Y-62624381D01*
X150799238Y-62672762D01*
X150823428Y-62769524D01*
X150823428Y-62842095D01*
X150799238Y-62938857D01*
X150775047Y-62987238D01*
X150726666Y-63035619D01*
X150654095Y-63059810D01*
X150533142Y-63059810D01*
X151307238Y-63059810D02*
X151016952Y-63059810D01*
X151162095Y-63059810D02*
X151162095Y-62551810D01*
X151113714Y-62624381D01*
X151065333Y-62672762D01*
X151016952Y-62696952D01*
X151742667Y-62551810D02*
X151645905Y-62551810D01*
X151597524Y-62576000D01*
X151573333Y-62600190D01*
X151524952Y-62672762D01*
X151500762Y-62769524D01*
X151500762Y-62963048D01*
X151524952Y-63011429D01*
X151549143Y-63035619D01*
X151597524Y-63059810D01*
X151694286Y-63059810D01*
X151742667Y-63035619D01*
X151766857Y-63011429D01*
X151791048Y-62963048D01*
X151791048Y-62842095D01*
X151766857Y-62793714D01*
X151742667Y-62769524D01*
X151694286Y-62745333D01*
X151597524Y-62745333D01*
X151549143Y-62769524D01*
X151524952Y-62793714D01*
X151500762Y-62842095D01*
X106099810Y-64226858D02*
X105591810Y-64226858D01*
X105591810Y-64105905D01*
X105616000Y-64033334D01*
X105664381Y-63984953D01*
X105712762Y-63960762D01*
X105809524Y-63936572D01*
X105882095Y-63936572D01*
X105978857Y-63960762D01*
X106027238Y-63984953D01*
X106075619Y-64033334D01*
X106099810Y-64105905D01*
X106099810Y-64226858D01*
X106099810Y-63452762D02*
X106099810Y-63743048D01*
X106099810Y-63597905D02*
X105591810Y-63597905D01*
X105664381Y-63646286D01*
X105712762Y-63694667D01*
X105736952Y-63743048D01*
X105591810Y-63283429D02*
X105591810Y-62944762D01*
X106099810Y-63162476D01*
D15*
X151742857Y-68850000D02*
X151695238Y-68826190D01*
X151623810Y-68826190D01*
X151552381Y-68850000D01*
X151504762Y-68897619D01*
X151480953Y-68945238D01*
X151457143Y-69040476D01*
X151457143Y-69111905D01*
X151480953Y-69207143D01*
X151504762Y-69254762D01*
X151552381Y-69302381D01*
X151623810Y-69326190D01*
X151671429Y-69326190D01*
X151742857Y-69302381D01*
X151766667Y-69278571D01*
X151766667Y-69111905D01*
X151671429Y-69111905D01*
X151957143Y-68873810D02*
X151980953Y-68850000D01*
X152028572Y-68826190D01*
X152147619Y-68826190D01*
X152195238Y-68850000D01*
X152219048Y-68873810D01*
X152242857Y-68921429D01*
X152242857Y-68969048D01*
X152219048Y-69040476D01*
X151933334Y-69326190D01*
X152242857Y-69326190D01*
D11*
X79212381Y-61093333D02*
X79926667Y-61093333D01*
X80069524Y-61140953D01*
X80164762Y-61236191D01*
X80212381Y-61379048D01*
X80212381Y-61474286D01*
X80212381Y-60093333D02*
X80212381Y-60664762D01*
X80212381Y-60379048D02*
X79212381Y-60379048D01*
X79355238Y-60474286D01*
X79450476Y-60569524D01*
X79498095Y-60664762D01*
D15*
X154833334Y-51576190D02*
X154833334Y-51933333D01*
X154809524Y-52004762D01*
X154761905Y-52052381D01*
X154690477Y-52076190D01*
X154642858Y-52076190D01*
X155047619Y-51623810D02*
X155071429Y-51600000D01*
X155119048Y-51576190D01*
X155238095Y-51576190D01*
X155285714Y-51600000D01*
X155309524Y-51623810D01*
X155333333Y-51671429D01*
X155333333Y-51719048D01*
X155309524Y-51790476D01*
X155023810Y-52076190D01*
X155333333Y-52076190D01*
D11*
X156738096Y-52902381D02*
X156261905Y-52902381D01*
X156214286Y-53378571D01*
X156261905Y-53330952D01*
X156357143Y-53283333D01*
X156595239Y-53283333D01*
X156690477Y-53330952D01*
X156738096Y-53378571D01*
X156785715Y-53473810D01*
X156785715Y-53711905D01*
X156738096Y-53807143D01*
X156690477Y-53854762D01*
X156595239Y-53902381D01*
X156357143Y-53902381D01*
X156261905Y-53854762D01*
X156214286Y-53807143D01*
X158790477Y-53235714D02*
X158790477Y-53902381D01*
X158552381Y-52854762D02*
X158314286Y-53569048D01*
X158933334Y-53569048D01*
X160166667Y-52902381D02*
X160785715Y-52902381D01*
X160452381Y-53283333D01*
X160595239Y-53283333D01*
X160690477Y-53330952D01*
X160738096Y-53378571D01*
X160785715Y-53473810D01*
X160785715Y-53711905D01*
X160738096Y-53807143D01*
X160690477Y-53854762D01*
X160595239Y-53902381D01*
X160309524Y-53902381D01*
X160214286Y-53854762D01*
X160166667Y-53807143D01*
X162214286Y-52997619D02*
X162261905Y-52950000D01*
X162357143Y-52902381D01*
X162595239Y-52902381D01*
X162690477Y-52950000D01*
X162738096Y-52997619D01*
X162785715Y-53092857D01*
X162785715Y-53188095D01*
X162738096Y-53330952D01*
X162166667Y-53902381D01*
X162785715Y-53902381D01*
X164785715Y-53902381D02*
X164214286Y-53902381D01*
X164500000Y-53902381D02*
X164500000Y-52902381D01*
X164404762Y-53045238D01*
X164309524Y-53140476D01*
X164214286Y-53188095D01*
X164109524Y-73902381D02*
X163538095Y-73902381D01*
X163823809Y-73902381D02*
X163823809Y-72902381D01*
X163728571Y-73045238D01*
X163633333Y-73140476D01*
X163538095Y-73188095D01*
X164966667Y-72902381D02*
X164776190Y-72902381D01*
X164680952Y-72950000D01*
X164633333Y-72997619D01*
X164538095Y-73140476D01*
X164490476Y-73330952D01*
X164490476Y-73711905D01*
X164538095Y-73807143D01*
X164585714Y-73854762D01*
X164680952Y-73902381D01*
X164871429Y-73902381D01*
X164966667Y-73854762D01*
X165014286Y-73807143D01*
X165061905Y-73711905D01*
X165061905Y-73473810D01*
X165014286Y-73378571D01*
X164966667Y-73330952D01*
X164871429Y-73283333D01*
X164680952Y-73283333D01*
X164585714Y-73330952D01*
X164538095Y-73378571D01*
X164490476Y-73473810D01*
X161709524Y-73902381D02*
X161138095Y-73902381D01*
X161423809Y-73902381D02*
X161423809Y-72902381D01*
X161328571Y-73045238D01*
X161233333Y-73140476D01*
X161138095Y-73188095D01*
X162090476Y-72997619D02*
X162138095Y-72950000D01*
X162233333Y-72902381D01*
X162471429Y-72902381D01*
X162566667Y-72950000D01*
X162614286Y-72997619D01*
X162661905Y-73092857D01*
X162661905Y-73188095D01*
X162614286Y-73330952D01*
X162042857Y-73902381D01*
X162661905Y-73902381D01*
X159904762Y-73330952D02*
X159809524Y-73283333D01*
X159761905Y-73235714D01*
X159714286Y-73140476D01*
X159714286Y-73092857D01*
X159761905Y-72997619D01*
X159809524Y-72950000D01*
X159904762Y-72902381D01*
X160095239Y-72902381D01*
X160190477Y-72950000D01*
X160238096Y-72997619D01*
X160285715Y-73092857D01*
X160285715Y-73140476D01*
X160238096Y-73235714D01*
X160190477Y-73283333D01*
X160095239Y-73330952D01*
X159904762Y-73330952D01*
X159809524Y-73378571D01*
X159761905Y-73426190D01*
X159714286Y-73521429D01*
X159714286Y-73711905D01*
X159761905Y-73807143D01*
X159809524Y-73854762D01*
X159904762Y-73902381D01*
X160095239Y-73902381D01*
X160190477Y-73854762D01*
X160238096Y-73807143D01*
X160285715Y-73711905D01*
X160285715Y-73521429D01*
X160238096Y-73426190D01*
X160190477Y-73378571D01*
X160095239Y-73330952D01*
X158290477Y-73235714D02*
X158290477Y-73902381D01*
X158052381Y-72854762D02*
X157814286Y-73569048D01*
X158433334Y-73569048D01*
X163109524Y-79702381D02*
X162538095Y-79702381D01*
X162823809Y-79702381D02*
X162823809Y-78702381D01*
X162728571Y-78845238D01*
X162633333Y-78940476D01*
X162538095Y-78988095D01*
X163442857Y-78702381D02*
X164061905Y-78702381D01*
X163728571Y-79083333D01*
X163871429Y-79083333D01*
X163966667Y-79130952D01*
X164014286Y-79178571D01*
X164061905Y-79273810D01*
X164061905Y-79511905D01*
X164014286Y-79607143D01*
X163966667Y-79654762D01*
X163871429Y-79702381D01*
X163585714Y-79702381D01*
X163490476Y-79654762D01*
X163442857Y-79607143D01*
X160909524Y-79702381D02*
X161100000Y-79702381D01*
X161195239Y-79654762D01*
X161242858Y-79607143D01*
X161338096Y-79464286D01*
X161385715Y-79273810D01*
X161385715Y-78892857D01*
X161338096Y-78797619D01*
X161290477Y-78750000D01*
X161195239Y-78702381D01*
X161004762Y-78702381D01*
X160909524Y-78750000D01*
X160861905Y-78797619D01*
X160814286Y-78892857D01*
X160814286Y-79130952D01*
X160861905Y-79226190D01*
X160909524Y-79273810D01*
X161004762Y-79321429D01*
X161195239Y-79321429D01*
X161290477Y-79273810D01*
X161338096Y-79226190D01*
X161385715Y-79130952D01*
X159338096Y-78702381D02*
X158861905Y-78702381D01*
X158814286Y-79178571D01*
X158861905Y-79130952D01*
X158957143Y-79083333D01*
X159195239Y-79083333D01*
X159290477Y-79130952D01*
X159338096Y-79178571D01*
X159385715Y-79273810D01*
X159385715Y-79511905D01*
X159338096Y-79607143D01*
X159290477Y-79654762D01*
X159195239Y-79702381D01*
X158957143Y-79702381D01*
X158861905Y-79654762D01*
X158814286Y-79607143D01*
X157385715Y-79602381D02*
X156814286Y-79602381D01*
X157100000Y-79602381D02*
X157100000Y-78602381D01*
X157004762Y-78745238D01*
X156909524Y-78840476D01*
X156814286Y-78888095D01*
X171352381Y-60990476D02*
X171352381Y-61561905D01*
X171352381Y-61276191D02*
X170352381Y-61276191D01*
X170495238Y-61371429D01*
X170590476Y-61466667D01*
X170638095Y-61561905D01*
X170352381Y-60133333D02*
X170352381Y-60323810D01*
X170400000Y-60419048D01*
X170447619Y-60466667D01*
X170590476Y-60561905D01*
X170780952Y-60609524D01*
X171161905Y-60609524D01*
X171257143Y-60561905D01*
X171304762Y-60514286D01*
X171352381Y-60419048D01*
X171352381Y-60228571D01*
X171304762Y-60133333D01*
X171257143Y-60085714D01*
X171161905Y-60038095D01*
X170923810Y-60038095D01*
X170828571Y-60085714D01*
X170780952Y-60133333D01*
X170733333Y-60228571D01*
X170733333Y-60419048D01*
X170780952Y-60514286D01*
X170828571Y-60561905D01*
X170923810Y-60609524D01*
X171352381Y-63390476D02*
X171352381Y-63961905D01*
X171352381Y-63676191D02*
X170352381Y-63676191D01*
X170495238Y-63771429D01*
X170590476Y-63866667D01*
X170638095Y-63961905D01*
X170447619Y-63009524D02*
X170400000Y-62961905D01*
X170352381Y-62866667D01*
X170352381Y-62628571D01*
X170400000Y-62533333D01*
X170447619Y-62485714D01*
X170542857Y-62438095D01*
X170638095Y-62438095D01*
X170780952Y-62485714D01*
X171352381Y-63057143D01*
X171352381Y-62438095D01*
X170780952Y-65195238D02*
X170733333Y-65290476D01*
X170685714Y-65338095D01*
X170590476Y-65385714D01*
X170542857Y-65385714D01*
X170447619Y-65338095D01*
X170400000Y-65290476D01*
X170352381Y-65195238D01*
X170352381Y-65004761D01*
X170400000Y-64909523D01*
X170447619Y-64861904D01*
X170542857Y-64814285D01*
X170590476Y-64814285D01*
X170685714Y-64861904D01*
X170733333Y-64909523D01*
X170780952Y-65004761D01*
X170780952Y-65195238D01*
X170828571Y-65290476D01*
X170876190Y-65338095D01*
X170971429Y-65385714D01*
X171161905Y-65385714D01*
X171257143Y-65338095D01*
X171304762Y-65290476D01*
X171352381Y-65195238D01*
X171352381Y-65004761D01*
X171304762Y-64909523D01*
X171257143Y-64861904D01*
X171161905Y-64814285D01*
X170971429Y-64814285D01*
X170876190Y-64861904D01*
X170828571Y-64909523D01*
X170780952Y-65004761D01*
X170685714Y-66809523D02*
X171352381Y-66809523D01*
X170304762Y-67047619D02*
X171019048Y-67285714D01*
X171019048Y-66666666D01*
X177152381Y-61990476D02*
X177152381Y-62561905D01*
X177152381Y-62276191D02*
X176152381Y-62276191D01*
X176295238Y-62371429D01*
X176390476Y-62466667D01*
X176438095Y-62561905D01*
X176152381Y-61657143D02*
X176152381Y-61038095D01*
X176533333Y-61371429D01*
X176533333Y-61228571D01*
X176580952Y-61133333D01*
X176628571Y-61085714D01*
X176723810Y-61038095D01*
X176961905Y-61038095D01*
X177057143Y-61085714D01*
X177104762Y-61133333D01*
X177152381Y-61228571D01*
X177152381Y-61514286D01*
X177104762Y-61609524D01*
X177057143Y-61657143D01*
X177152381Y-64190476D02*
X177152381Y-64000000D01*
X177104762Y-63904761D01*
X177057143Y-63857142D01*
X176914286Y-63761904D01*
X176723810Y-63714285D01*
X176342857Y-63714285D01*
X176247619Y-63761904D01*
X176200000Y-63809523D01*
X176152381Y-63904761D01*
X176152381Y-64095238D01*
X176200000Y-64190476D01*
X176247619Y-64238095D01*
X176342857Y-64285714D01*
X176580952Y-64285714D01*
X176676190Y-64238095D01*
X176723810Y-64190476D01*
X176771429Y-64095238D01*
X176771429Y-63904761D01*
X176723810Y-63809523D01*
X176676190Y-63761904D01*
X176580952Y-63714285D01*
X176152381Y-65761904D02*
X176152381Y-66238095D01*
X176628571Y-66285714D01*
X176580952Y-66238095D01*
X176533333Y-66142857D01*
X176533333Y-65904761D01*
X176580952Y-65809523D01*
X176628571Y-65761904D01*
X176723810Y-65714285D01*
X176961905Y-65714285D01*
X177057143Y-65761904D01*
X177104762Y-65809523D01*
X177152381Y-65904761D01*
X177152381Y-66142857D01*
X177104762Y-66238095D01*
X177057143Y-66285714D01*
X177052381Y-67714285D02*
X177052381Y-68285714D01*
X177052381Y-68000000D02*
X176052381Y-68000000D01*
X176195238Y-68095238D01*
X176290476Y-68190476D01*
X176338095Y-68285714D01*
D10*
X112326603Y-41306362D02*
X112088327Y-41306362D01*
X112088327Y-40805982D01*
X112755501Y-41306362D02*
X112469569Y-41306362D01*
X112612535Y-41306362D02*
X112612535Y-40805982D01*
X112564880Y-40877465D01*
X112517225Y-40925120D01*
X112469569Y-40948948D01*
X107586603Y-59686362D02*
X107348327Y-59686362D01*
X107348327Y-59185982D01*
X107729569Y-59233638D02*
X107753397Y-59209810D01*
X107801052Y-59185982D01*
X107920190Y-59185982D01*
X107967846Y-59209810D01*
X107991673Y-59233638D01*
X108015501Y-59281293D01*
X108015501Y-59328948D01*
X107991673Y-59400431D01*
X107705742Y-59686362D01*
X108015501Y-59686362D01*
X129936667Y-57766190D02*
X129698572Y-57766190D01*
X129698572Y-57266190D01*
X130055715Y-57266190D02*
X130365238Y-57266190D01*
X130198572Y-57456667D01*
X130270000Y-57456667D01*
X130317619Y-57480476D01*
X130341429Y-57504286D01*
X130365238Y-57551905D01*
X130365238Y-57670952D01*
X130341429Y-57718571D01*
X130317619Y-57742381D01*
X130270000Y-57766190D01*
X130127143Y-57766190D01*
X130079524Y-57742381D01*
X130055715Y-57718571D01*
X116492722Y-71748479D02*
X116254627Y-71748479D01*
X116254627Y-71248479D01*
X116873674Y-71415146D02*
X116873674Y-71748479D01*
X116754627Y-71224670D02*
X116635579Y-71581813D01*
X116945103Y-71581813D01*
D17*
X100225047Y-32029810D02*
X100225047Y-31521810D01*
X100418571Y-31521810D01*
X100466952Y-31546000D01*
X100491143Y-31570190D01*
X100515333Y-31618571D01*
X100515333Y-31691143D01*
X100491143Y-31739524D01*
X100466952Y-31763714D01*
X100418571Y-31787905D01*
X100225047Y-31787905D01*
X100999143Y-32029810D02*
X100708857Y-32029810D01*
X100854000Y-32029810D02*
X100854000Y-31521810D01*
X100805619Y-31594381D01*
X100757238Y-31642762D01*
X100708857Y-31666952D01*
X100375047Y-38779810D02*
X100375047Y-38271810D01*
X100568571Y-38271810D01*
X100616952Y-38296000D01*
X100641143Y-38320190D01*
X100665333Y-38368571D01*
X100665333Y-38441143D01*
X100641143Y-38489524D01*
X100616952Y-38513714D01*
X100568571Y-38537905D01*
X100375047Y-38537905D01*
X100858857Y-38320190D02*
X100883047Y-38296000D01*
X100931428Y-38271810D01*
X101052381Y-38271810D01*
X101100762Y-38296000D01*
X101124952Y-38320190D01*
X101149143Y-38368571D01*
X101149143Y-38416952D01*
X101124952Y-38489524D01*
X100834666Y-38779810D01*
X101149143Y-38779810D01*
X145525047Y-39212350D02*
X145525047Y-38704350D01*
X145718571Y-38704350D01*
X145766952Y-38728540D01*
X145791143Y-38752730D01*
X145815333Y-38801111D01*
X145815333Y-38873683D01*
X145791143Y-38922064D01*
X145766952Y-38946254D01*
X145718571Y-38970445D01*
X145525047Y-38970445D01*
X145984666Y-38704350D02*
X146299143Y-38704350D01*
X146129809Y-38897873D01*
X146202381Y-38897873D01*
X146250762Y-38922064D01*
X146274952Y-38946254D01*
X146299143Y-38994635D01*
X146299143Y-39115588D01*
X146274952Y-39163969D01*
X146250762Y-39188159D01*
X146202381Y-39212350D01*
X146057238Y-39212350D01*
X146008857Y-39188159D01*
X145984666Y-39163969D01*
X154675047Y-32362350D02*
X154675047Y-31854350D01*
X154868571Y-31854350D01*
X154916952Y-31878540D01*
X154941143Y-31902730D01*
X154965333Y-31951111D01*
X154965333Y-32023683D01*
X154941143Y-32072064D01*
X154916952Y-32096254D01*
X154868571Y-32120445D01*
X154675047Y-32120445D01*
X155400762Y-32023683D02*
X155400762Y-32362350D01*
X155279809Y-31830159D02*
X155158857Y-32193016D01*
X155473333Y-32193016D01*
D15*
X146462350Y-58074953D02*
X145954350Y-58074953D01*
X145954350Y-57881429D01*
X145978540Y-57833048D01*
X146002730Y-57808857D01*
X146051111Y-57784667D01*
X146123683Y-57784667D01*
X146172064Y-57808857D01*
X146196254Y-57833048D01*
X146220445Y-57881429D01*
X146220445Y-58074953D01*
X145954350Y-57325048D02*
X145954350Y-57566953D01*
X146196254Y-57591143D01*
X146172064Y-57566953D01*
X146147873Y-57518572D01*
X146147873Y-57397619D01*
X146172064Y-57349238D01*
X146196254Y-57325048D01*
X146244635Y-57300857D01*
X146365588Y-57300857D01*
X146413969Y-57325048D01*
X146438159Y-57349238D01*
X146462350Y-57397619D01*
X146462350Y-57518572D01*
X146438159Y-57566953D01*
X146413969Y-57591143D01*
X110155047Y-67129810D02*
X110155047Y-66621810D01*
X110348571Y-66621810D01*
X110396952Y-66646000D01*
X110421143Y-66670190D01*
X110445333Y-66718571D01*
X110445333Y-66791143D01*
X110421143Y-66839524D01*
X110396952Y-66863714D01*
X110348571Y-66887905D01*
X110155047Y-66887905D01*
X110880762Y-66621810D02*
X110784000Y-66621810D01*
X110735619Y-66646000D01*
X110711428Y-66670190D01*
X110663047Y-66742762D01*
X110638857Y-66839524D01*
X110638857Y-67033048D01*
X110663047Y-67081429D01*
X110687238Y-67105619D01*
X110735619Y-67129810D01*
X110832381Y-67129810D01*
X110880762Y-67105619D01*
X110904952Y-67081429D01*
X110929143Y-67033048D01*
X110929143Y-66912095D01*
X110904952Y-66863714D01*
X110880762Y-66839524D01*
X110832381Y-66815333D01*
X110735619Y-66815333D01*
X110687238Y-66839524D01*
X110663047Y-66863714D01*
X110638857Y-66912095D01*
D10*
X169130953Y-43426190D02*
X169130953Y-42926190D01*
X169321429Y-42926190D01*
X169369048Y-42950000D01*
X169392857Y-42973810D01*
X169416667Y-43021429D01*
X169416667Y-43092857D01*
X169392857Y-43140476D01*
X169369048Y-43164286D01*
X169321429Y-43188095D01*
X169130953Y-43188095D01*
X169583334Y-42926190D02*
X169916667Y-42926190D01*
X169702381Y-43426190D01*
X118092381Y-40913810D02*
X118044762Y-40890000D01*
X117997143Y-40842381D01*
X117925714Y-40770952D01*
X117878095Y-40747143D01*
X117830476Y-40747143D01*
X117854286Y-40866190D02*
X117806667Y-40842381D01*
X117759048Y-40794762D01*
X117735238Y-40699524D01*
X117735238Y-40532857D01*
X117759048Y-40437619D01*
X117806667Y-40390000D01*
X117854286Y-40366190D01*
X117949524Y-40366190D01*
X117997143Y-40390000D01*
X118044762Y-40437619D01*
X118068571Y-40532857D01*
X118068571Y-40699524D01*
X118044762Y-40794762D01*
X117997143Y-40842381D01*
X117949524Y-40866190D01*
X117854286Y-40866190D01*
X118259048Y-40413810D02*
X118282858Y-40390000D01*
X118330477Y-40366190D01*
X118449524Y-40366190D01*
X118497143Y-40390000D01*
X118520953Y-40413810D01*
X118544762Y-40461429D01*
X118544762Y-40509048D01*
X118520953Y-40580476D01*
X118235239Y-40866190D01*
X118544762Y-40866190D01*
X125442381Y-43373810D02*
X125394762Y-43350000D01*
X125347143Y-43302381D01*
X125275714Y-43230952D01*
X125228095Y-43207143D01*
X125180476Y-43207143D01*
X125204286Y-43326190D02*
X125156667Y-43302381D01*
X125109048Y-43254762D01*
X125085238Y-43159524D01*
X125085238Y-42992857D01*
X125109048Y-42897619D01*
X125156667Y-42850000D01*
X125204286Y-42826190D01*
X125299524Y-42826190D01*
X125347143Y-42850000D01*
X125394762Y-42897619D01*
X125418571Y-42992857D01*
X125418571Y-43159524D01*
X125394762Y-43254762D01*
X125347143Y-43302381D01*
X125299524Y-43326190D01*
X125204286Y-43326190D01*
X125585239Y-42826190D02*
X125894762Y-42826190D01*
X125728096Y-43016667D01*
X125799524Y-43016667D01*
X125847143Y-43040476D01*
X125870953Y-43064286D01*
X125894762Y-43111905D01*
X125894762Y-43230952D01*
X125870953Y-43278571D01*
X125847143Y-43302381D01*
X125799524Y-43326190D01*
X125656667Y-43326190D01*
X125609048Y-43302381D01*
X125585239Y-43278571D01*
X175402381Y-52873810D02*
X175354762Y-52850000D01*
X175307143Y-52802381D01*
X175235714Y-52730952D01*
X175188095Y-52707143D01*
X175140476Y-52707143D01*
X175164286Y-52826190D02*
X175116667Y-52802381D01*
X175069048Y-52754762D01*
X175045238Y-52659524D01*
X175045238Y-52492857D01*
X175069048Y-52397619D01*
X175116667Y-52350000D01*
X175164286Y-52326190D01*
X175259524Y-52326190D01*
X175307143Y-52350000D01*
X175354762Y-52397619D01*
X175378571Y-52492857D01*
X175378571Y-52659524D01*
X175354762Y-52754762D01*
X175307143Y-52802381D01*
X175259524Y-52826190D01*
X175164286Y-52826190D01*
X175807143Y-52492857D02*
X175807143Y-52826190D01*
X175688096Y-52302381D02*
X175569048Y-52659524D01*
X175878572Y-52659524D01*
D24*
X118233800Y-44199810D02*
X118081400Y-43957905D01*
X117972543Y-44199810D02*
X117972543Y-43691810D01*
X118146715Y-43691810D01*
X118190257Y-43716000D01*
X118212029Y-43740190D01*
X118233800Y-43788571D01*
X118233800Y-43861143D01*
X118212029Y-43909524D01*
X118190257Y-43933714D01*
X118146715Y-43957905D01*
X117972543Y-43957905D01*
X118669229Y-44199810D02*
X118407972Y-44199810D01*
X118538600Y-44199810D02*
X118538600Y-43691810D01*
X118495057Y-43764381D01*
X118451515Y-43812762D01*
X118407972Y-43836952D01*
D10*
X119973800Y-40599810D02*
X119821400Y-40357905D01*
X119712543Y-40599810D02*
X119712543Y-40091810D01*
X119886715Y-40091810D01*
X119930257Y-40116000D01*
X119952029Y-40140190D01*
X119973800Y-40188571D01*
X119973800Y-40261143D01*
X119952029Y-40309524D01*
X119930257Y-40333714D01*
X119886715Y-40357905D01*
X119712543Y-40357905D01*
X120147972Y-40140190D02*
X120169743Y-40116000D01*
X120213286Y-40091810D01*
X120322143Y-40091810D01*
X120365686Y-40116000D01*
X120387457Y-40140190D01*
X120409229Y-40188571D01*
X120409229Y-40236952D01*
X120387457Y-40309524D01*
X120126200Y-40599810D01*
X120409229Y-40599810D01*
X114873800Y-43559810D02*
X114721400Y-43317905D01*
X114612543Y-43559810D02*
X114612543Y-43051810D01*
X114786715Y-43051810D01*
X114830257Y-43076000D01*
X114852029Y-43100190D01*
X114873800Y-43148571D01*
X114873800Y-43221143D01*
X114852029Y-43269524D01*
X114830257Y-43293714D01*
X114786715Y-43317905D01*
X114612543Y-43317905D01*
X115026200Y-43051810D02*
X115309229Y-43051810D01*
X115156829Y-43245333D01*
X115222143Y-43245333D01*
X115265686Y-43269524D01*
X115287457Y-43293714D01*
X115309229Y-43342095D01*
X115309229Y-43463048D01*
X115287457Y-43511429D01*
X115265686Y-43535619D01*
X115222143Y-43559810D01*
X115091515Y-43559810D01*
X115047972Y-43535619D01*
X115026200Y-43511429D01*
X124523800Y-38179810D02*
X124371400Y-37937905D01*
X124262543Y-38179810D02*
X124262543Y-37671810D01*
X124436715Y-37671810D01*
X124480257Y-37696000D01*
X124502029Y-37720190D01*
X124523800Y-37768571D01*
X124523800Y-37841143D01*
X124502029Y-37889524D01*
X124480257Y-37913714D01*
X124436715Y-37937905D01*
X124262543Y-37937905D01*
X124915686Y-37671810D02*
X124828600Y-37671810D01*
X124785057Y-37696000D01*
X124763286Y-37720190D01*
X124719743Y-37792762D01*
X124697972Y-37889524D01*
X124697972Y-38083048D01*
X124719743Y-38131429D01*
X124741515Y-38155619D01*
X124785057Y-38179810D01*
X124872143Y-38179810D01*
X124915686Y-38155619D01*
X124937457Y-38131429D01*
X124959229Y-38083048D01*
X124959229Y-37962095D01*
X124937457Y-37913714D01*
X124915686Y-37889524D01*
X124872143Y-37865333D01*
X124785057Y-37865333D01*
X124741515Y-37889524D01*
X124719743Y-37913714D01*
X124697972Y-37962095D01*
X121136604Y-36636362D02*
X120969810Y-36398086D01*
X120850672Y-36636362D02*
X120850672Y-36135982D01*
X121041293Y-36135982D01*
X121088948Y-36159810D01*
X121112776Y-36183638D01*
X121136604Y-36231293D01*
X121136604Y-36302776D01*
X121112776Y-36350431D01*
X121088948Y-36374259D01*
X121041293Y-36398086D01*
X120850672Y-36398086D01*
X121303397Y-36135982D02*
X121636984Y-36135982D01*
X121422535Y-36636362D01*
X118233800Y-42399810D02*
X118081400Y-42157905D01*
X117972543Y-42399810D02*
X117972543Y-41891810D01*
X118146715Y-41891810D01*
X118190257Y-41916000D01*
X118212029Y-41940190D01*
X118233800Y-41988571D01*
X118233800Y-42061143D01*
X118212029Y-42109524D01*
X118190257Y-42133714D01*
X118146715Y-42157905D01*
X117972543Y-42157905D01*
X118495057Y-42109524D02*
X118451515Y-42085333D01*
X118429743Y-42061143D01*
X118407972Y-42012762D01*
X118407972Y-41988571D01*
X118429743Y-41940190D01*
X118451515Y-41916000D01*
X118495057Y-41891810D01*
X118582143Y-41891810D01*
X118625686Y-41916000D01*
X118647457Y-41940190D01*
X118669229Y-41988571D01*
X118669229Y-42012762D01*
X118647457Y-42061143D01*
X118625686Y-42085333D01*
X118582143Y-42109524D01*
X118495057Y-42109524D01*
X118451515Y-42133714D01*
X118429743Y-42157905D01*
X118407972Y-42206286D01*
X118407972Y-42303048D01*
X118429743Y-42351429D01*
X118451515Y-42375619D01*
X118495057Y-42399810D01*
X118582143Y-42399810D01*
X118625686Y-42375619D01*
X118647457Y-42351429D01*
X118669229Y-42303048D01*
X118669229Y-42206286D01*
X118647457Y-42157905D01*
X118625686Y-42133714D01*
X118582143Y-42109524D01*
X121253800Y-47799810D02*
X121101400Y-47557905D01*
X120992543Y-47799810D02*
X120992543Y-47291810D01*
X121166715Y-47291810D01*
X121210257Y-47316000D01*
X121232029Y-47340190D01*
X121253800Y-47388571D01*
X121253800Y-47461143D01*
X121232029Y-47509524D01*
X121210257Y-47533714D01*
X121166715Y-47557905D01*
X120992543Y-47557905D01*
X121471515Y-47799810D02*
X121558600Y-47799810D01*
X121602143Y-47775619D01*
X121623915Y-47751429D01*
X121667457Y-47678857D01*
X121689229Y-47582095D01*
X121689229Y-47388571D01*
X121667457Y-47340190D01*
X121645686Y-47316000D01*
X121602143Y-47291810D01*
X121515057Y-47291810D01*
X121471515Y-47316000D01*
X121449743Y-47340190D01*
X121427972Y-47388571D01*
X121427972Y-47509524D01*
X121449743Y-47557905D01*
X121471515Y-47582095D01*
X121515057Y-47606286D01*
X121602143Y-47606286D01*
X121645686Y-47582095D01*
X121667457Y-47557905D01*
X121689229Y-47509524D01*
D24*
X144086085Y-38489810D02*
X143933685Y-38247905D01*
X143824828Y-38489810D02*
X143824828Y-37981810D01*
X143999000Y-37981810D01*
X144042542Y-38006000D01*
X144064314Y-38030190D01*
X144086085Y-38078571D01*
X144086085Y-38151143D01*
X144064314Y-38199524D01*
X144042542Y-38223714D01*
X143999000Y-38247905D01*
X143824828Y-38247905D01*
X144521514Y-38489810D02*
X144260257Y-38489810D01*
X144390885Y-38489810D02*
X144390885Y-37981810D01*
X144347342Y-38054381D01*
X144303800Y-38102762D01*
X144260257Y-38126952D01*
X144804543Y-37981810D02*
X144848086Y-37981810D01*
X144891629Y-38006000D01*
X144913400Y-38030190D01*
X144935171Y-38078571D01*
X144956943Y-38175333D01*
X144956943Y-38296286D01*
X144935171Y-38393048D01*
X144913400Y-38441429D01*
X144891629Y-38465619D01*
X144848086Y-38489810D01*
X144804543Y-38489810D01*
X144761000Y-38465619D01*
X144739229Y-38441429D01*
X144717457Y-38393048D01*
X144695686Y-38296286D01*
X144695686Y-38175333D01*
X144717457Y-38078571D01*
X144739229Y-38030190D01*
X144761000Y-38006000D01*
X144804543Y-37981810D01*
D10*
X138929810Y-48221428D02*
X138687905Y-48388095D01*
X138929810Y-48507142D02*
X138421810Y-48507142D01*
X138421810Y-48316666D01*
X138446000Y-48269047D01*
X138470190Y-48245238D01*
X138518571Y-48221428D01*
X138591143Y-48221428D01*
X138639524Y-48245238D01*
X138663714Y-48269047D01*
X138687905Y-48316666D01*
X138687905Y-48507142D01*
X138929810Y-47745238D02*
X138929810Y-48030952D01*
X138929810Y-47888095D02*
X138421810Y-47888095D01*
X138494381Y-47935714D01*
X138542762Y-47983333D01*
X138566952Y-48030952D01*
X138929810Y-47269048D02*
X138929810Y-47554762D01*
X138929810Y-47411905D02*
X138421810Y-47411905D01*
X138494381Y-47459524D01*
X138542762Y-47507143D01*
X138566952Y-47554762D01*
D15*
X145406085Y-43329810D02*
X145253685Y-43087905D01*
X145144828Y-43329810D02*
X145144828Y-42821810D01*
X145319000Y-42821810D01*
X145362542Y-42846000D01*
X145384314Y-42870190D01*
X145406085Y-42918571D01*
X145406085Y-42991143D01*
X145384314Y-43039524D01*
X145362542Y-43063714D01*
X145319000Y-43087905D01*
X145144828Y-43087905D01*
X145841514Y-43329810D02*
X145580257Y-43329810D01*
X145710885Y-43329810D02*
X145710885Y-42821810D01*
X145667342Y-42894381D01*
X145623800Y-42942762D01*
X145580257Y-42966952D01*
X146015686Y-42870190D02*
X146037457Y-42846000D01*
X146081000Y-42821810D01*
X146189857Y-42821810D01*
X146233400Y-42846000D01*
X146255171Y-42870190D01*
X146276943Y-42918571D01*
X146276943Y-42966952D01*
X146255171Y-43039524D01*
X145993914Y-43329810D01*
X146276943Y-43329810D01*
X148706085Y-43329810D02*
X148553685Y-43087905D01*
X148444828Y-43329810D02*
X148444828Y-42821810D01*
X148619000Y-42821810D01*
X148662542Y-42846000D01*
X148684314Y-42870190D01*
X148706085Y-42918571D01*
X148706085Y-42991143D01*
X148684314Y-43039524D01*
X148662542Y-43063714D01*
X148619000Y-43087905D01*
X148444828Y-43087905D01*
X149141514Y-43329810D02*
X148880257Y-43329810D01*
X149010885Y-43329810D02*
X149010885Y-42821810D01*
X148967342Y-42894381D01*
X148923800Y-42942762D01*
X148880257Y-42966952D01*
X149293914Y-42821810D02*
X149576943Y-42821810D01*
X149424543Y-43015333D01*
X149489857Y-43015333D01*
X149533400Y-43039524D01*
X149555171Y-43063714D01*
X149576943Y-43112095D01*
X149576943Y-43233048D01*
X149555171Y-43281429D01*
X149533400Y-43305619D01*
X149489857Y-43329810D01*
X149359229Y-43329810D01*
X149315686Y-43305619D01*
X149293914Y-43281429D01*
D10*
X142996085Y-41359810D02*
X142843685Y-41117905D01*
X142734828Y-41359810D02*
X142734828Y-40851810D01*
X142909000Y-40851810D01*
X142952542Y-40876000D01*
X142974314Y-40900190D01*
X142996085Y-40948571D01*
X142996085Y-41021143D01*
X142974314Y-41069524D01*
X142952542Y-41093714D01*
X142909000Y-41117905D01*
X142734828Y-41117905D01*
X143431514Y-41359810D02*
X143170257Y-41359810D01*
X143300885Y-41359810D02*
X143300885Y-40851810D01*
X143257342Y-40924381D01*
X143213800Y-40972762D01*
X143170257Y-40996952D01*
X143823400Y-41021143D02*
X143823400Y-41359810D01*
X143714543Y-40827619D02*
X143605686Y-41190476D01*
X143888714Y-41190476D01*
X107456085Y-57129810D02*
X107303685Y-56887905D01*
X107194828Y-57129810D02*
X107194828Y-56621810D01*
X107369000Y-56621810D01*
X107412542Y-56646000D01*
X107434314Y-56670190D01*
X107456085Y-56718571D01*
X107456085Y-56791143D01*
X107434314Y-56839524D01*
X107412542Y-56863714D01*
X107369000Y-56887905D01*
X107194828Y-56887905D01*
X107891514Y-57129810D02*
X107630257Y-57129810D01*
X107760885Y-57129810D02*
X107760885Y-56621810D01*
X107717342Y-56694381D01*
X107673800Y-56742762D01*
X107630257Y-56766952D01*
X108305171Y-56621810D02*
X108087457Y-56621810D01*
X108065686Y-56863714D01*
X108087457Y-56839524D01*
X108131000Y-56815333D01*
X108239857Y-56815333D01*
X108283400Y-56839524D01*
X108305171Y-56863714D01*
X108326943Y-56912095D01*
X108326943Y-57033048D01*
X108305171Y-57081429D01*
X108283400Y-57105619D01*
X108239857Y-57129810D01*
X108131000Y-57129810D01*
X108087457Y-57105619D01*
X108065686Y-57081429D01*
X107406085Y-54979810D02*
X107253685Y-54737905D01*
X107144828Y-54979810D02*
X107144828Y-54471810D01*
X107319000Y-54471810D01*
X107362542Y-54496000D01*
X107384314Y-54520190D01*
X107406085Y-54568571D01*
X107406085Y-54641143D01*
X107384314Y-54689524D01*
X107362542Y-54713714D01*
X107319000Y-54737905D01*
X107144828Y-54737905D01*
X107841514Y-54979810D02*
X107580257Y-54979810D01*
X107710885Y-54979810D02*
X107710885Y-54471810D01*
X107667342Y-54544381D01*
X107623800Y-54592762D01*
X107580257Y-54616952D01*
X108233400Y-54471810D02*
X108146314Y-54471810D01*
X108102771Y-54496000D01*
X108081000Y-54520190D01*
X108037457Y-54592762D01*
X108015686Y-54689524D01*
X108015686Y-54883048D01*
X108037457Y-54931429D01*
X108059229Y-54955619D01*
X108102771Y-54979810D01*
X108189857Y-54979810D01*
X108233400Y-54955619D01*
X108255171Y-54931429D01*
X108276943Y-54883048D01*
X108276943Y-54762095D01*
X108255171Y-54713714D01*
X108233400Y-54689524D01*
X108189857Y-54665333D01*
X108102771Y-54665333D01*
X108059229Y-54689524D01*
X108037457Y-54713714D01*
X108015686Y-54762095D01*
X88479810Y-64493915D02*
X88237905Y-64646315D01*
X88479810Y-64755172D02*
X87971810Y-64755172D01*
X87971810Y-64581000D01*
X87996000Y-64537458D01*
X88020190Y-64515686D01*
X88068571Y-64493915D01*
X88141143Y-64493915D01*
X88189524Y-64515686D01*
X88213714Y-64537458D01*
X88237905Y-64581000D01*
X88237905Y-64755172D01*
X88479810Y-64058486D02*
X88479810Y-64319743D01*
X88479810Y-64189115D02*
X87971810Y-64189115D01*
X88044381Y-64232658D01*
X88092762Y-64276200D01*
X88116952Y-64319743D01*
X87971810Y-63906086D02*
X87971810Y-63601286D01*
X88479810Y-63797229D01*
X107306085Y-52379810D02*
X107153685Y-52137905D01*
X107044828Y-52379810D02*
X107044828Y-51871810D01*
X107219000Y-51871810D01*
X107262542Y-51896000D01*
X107284314Y-51920190D01*
X107306085Y-51968571D01*
X107306085Y-52041143D01*
X107284314Y-52089524D01*
X107262542Y-52113714D01*
X107219000Y-52137905D01*
X107044828Y-52137905D01*
X107741514Y-52379810D02*
X107480257Y-52379810D01*
X107610885Y-52379810D02*
X107610885Y-51871810D01*
X107567342Y-51944381D01*
X107523800Y-51992762D01*
X107480257Y-52016952D01*
X108002771Y-52089524D02*
X107959229Y-52065333D01*
X107937457Y-52041143D01*
X107915686Y-51992762D01*
X107915686Y-51968571D01*
X107937457Y-51920190D01*
X107959229Y-51896000D01*
X108002771Y-51871810D01*
X108089857Y-51871810D01*
X108133400Y-51896000D01*
X108155171Y-51920190D01*
X108176943Y-51968571D01*
X108176943Y-51992762D01*
X108155171Y-52041143D01*
X108133400Y-52065333D01*
X108089857Y-52089524D01*
X108002771Y-52089524D01*
X107959229Y-52113714D01*
X107937457Y-52137905D01*
X107915686Y-52186286D01*
X107915686Y-52283048D01*
X107937457Y-52331429D01*
X107959229Y-52355619D01*
X108002771Y-52379810D01*
X108089857Y-52379810D01*
X108133400Y-52355619D01*
X108155171Y-52331429D01*
X108176943Y-52283048D01*
X108176943Y-52186286D01*
X108155171Y-52137905D01*
X108133400Y-52113714D01*
X108089857Y-52089524D01*
X107306085Y-50029810D02*
X107153685Y-49787905D01*
X107044828Y-50029810D02*
X107044828Y-49521810D01*
X107219000Y-49521810D01*
X107262542Y-49546000D01*
X107284314Y-49570190D01*
X107306085Y-49618571D01*
X107306085Y-49691143D01*
X107284314Y-49739524D01*
X107262542Y-49763714D01*
X107219000Y-49787905D01*
X107044828Y-49787905D01*
X107741514Y-50029810D02*
X107480257Y-50029810D01*
X107610885Y-50029810D02*
X107610885Y-49521810D01*
X107567342Y-49594381D01*
X107523800Y-49642762D01*
X107480257Y-49666952D01*
X107959229Y-50029810D02*
X108046314Y-50029810D01*
X108089857Y-50005619D01*
X108111629Y-49981429D01*
X108155171Y-49908857D01*
X108176943Y-49812095D01*
X108176943Y-49618571D01*
X108155171Y-49570190D01*
X108133400Y-49546000D01*
X108089857Y-49521810D01*
X108002771Y-49521810D01*
X107959229Y-49546000D01*
X107937457Y-49570190D01*
X107915686Y-49618571D01*
X107915686Y-49739524D01*
X107937457Y-49787905D01*
X107959229Y-49812095D01*
X108002771Y-49836286D01*
X108089857Y-49836286D01*
X108133400Y-49812095D01*
X108155171Y-49787905D01*
X108176943Y-49739524D01*
X86279810Y-64343915D02*
X86037905Y-64496315D01*
X86279810Y-64605172D02*
X85771810Y-64605172D01*
X85771810Y-64431000D01*
X85796000Y-64387458D01*
X85820190Y-64365686D01*
X85868571Y-64343915D01*
X85941143Y-64343915D01*
X85989524Y-64365686D01*
X86013714Y-64387458D01*
X86037905Y-64431000D01*
X86037905Y-64605172D01*
X85820190Y-64169743D02*
X85796000Y-64147972D01*
X85771810Y-64104429D01*
X85771810Y-63995572D01*
X85796000Y-63952029D01*
X85820190Y-63930258D01*
X85868571Y-63908486D01*
X85916952Y-63908486D01*
X85989524Y-63930258D01*
X86279810Y-64191515D01*
X86279810Y-63908486D01*
X85771810Y-63625457D02*
X85771810Y-63581914D01*
X85796000Y-63538371D01*
X85820190Y-63516600D01*
X85868571Y-63494829D01*
X85965333Y-63473057D01*
X86086286Y-63473057D01*
X86183048Y-63494829D01*
X86231429Y-63516600D01*
X86255619Y-63538371D01*
X86279810Y-63581914D01*
X86279810Y-63625457D01*
X86255619Y-63669000D01*
X86231429Y-63690771D01*
X86183048Y-63712543D01*
X86086286Y-63734314D01*
X85965333Y-63734314D01*
X85868571Y-63712543D01*
X85820190Y-63690771D01*
X85796000Y-63669000D01*
X85771810Y-63625457D01*
D15*
X149556085Y-48929810D02*
X149403685Y-48687905D01*
X149294828Y-48929810D02*
X149294828Y-48421810D01*
X149469000Y-48421810D01*
X149512542Y-48446000D01*
X149534314Y-48470190D01*
X149556085Y-48518571D01*
X149556085Y-48591143D01*
X149534314Y-48639524D01*
X149512542Y-48663714D01*
X149469000Y-48687905D01*
X149294828Y-48687905D01*
X149730257Y-48470190D02*
X149752028Y-48446000D01*
X149795571Y-48421810D01*
X149904428Y-48421810D01*
X149947971Y-48446000D01*
X149969742Y-48470190D01*
X149991514Y-48518571D01*
X149991514Y-48566952D01*
X149969742Y-48639524D01*
X149708485Y-48929810D01*
X149991514Y-48929810D01*
X150426943Y-48929810D02*
X150165686Y-48929810D01*
X150296314Y-48929810D02*
X150296314Y-48421810D01*
X150252771Y-48494381D01*
X150209229Y-48542762D01*
X150165686Y-48566952D01*
D24*
X152706085Y-34549810D02*
X152553685Y-34307905D01*
X152444828Y-34549810D02*
X152444828Y-34041810D01*
X152619000Y-34041810D01*
X152662542Y-34066000D01*
X152684314Y-34090190D01*
X152706085Y-34138571D01*
X152706085Y-34211143D01*
X152684314Y-34259524D01*
X152662542Y-34283714D01*
X152619000Y-34307905D01*
X152444828Y-34307905D01*
X152880257Y-34090190D02*
X152902028Y-34066000D01*
X152945571Y-34041810D01*
X153054428Y-34041810D01*
X153097971Y-34066000D01*
X153119742Y-34090190D01*
X153141514Y-34138571D01*
X153141514Y-34186952D01*
X153119742Y-34259524D01*
X152858485Y-34549810D01*
X153141514Y-34549810D01*
X153315686Y-34090190D02*
X153337457Y-34066000D01*
X153381000Y-34041810D01*
X153489857Y-34041810D01*
X153533400Y-34066000D01*
X153555171Y-34090190D01*
X153576943Y-34138571D01*
X153576943Y-34186952D01*
X153555171Y-34259524D01*
X153293914Y-34549810D01*
X153576943Y-34549810D01*
D10*
X148456085Y-67729810D02*
X148303685Y-67487905D01*
X148194828Y-67729810D02*
X148194828Y-67221810D01*
X148369000Y-67221810D01*
X148412542Y-67246000D01*
X148434314Y-67270190D01*
X148456085Y-67318571D01*
X148456085Y-67391143D01*
X148434314Y-67439524D01*
X148412542Y-67463714D01*
X148369000Y-67487905D01*
X148194828Y-67487905D01*
X148630257Y-67270190D02*
X148652028Y-67246000D01*
X148695571Y-67221810D01*
X148804428Y-67221810D01*
X148847971Y-67246000D01*
X148869742Y-67270190D01*
X148891514Y-67318571D01*
X148891514Y-67366952D01*
X148869742Y-67439524D01*
X148608485Y-67729810D01*
X148891514Y-67729810D01*
X149043914Y-67221810D02*
X149326943Y-67221810D01*
X149174543Y-67415333D01*
X149239857Y-67415333D01*
X149283400Y-67439524D01*
X149305171Y-67463714D01*
X149326943Y-67512095D01*
X149326943Y-67633048D01*
X149305171Y-67681429D01*
X149283400Y-67705619D01*
X149239857Y-67729810D01*
X149109229Y-67729810D01*
X149065686Y-67705619D01*
X149043914Y-67681429D01*
X146351755Y-71046783D02*
X146184961Y-70808507D01*
X146065823Y-71046783D02*
X146065823Y-70546403D01*
X146256444Y-70546403D01*
X146304099Y-70570231D01*
X146327927Y-70594059D01*
X146351755Y-70641714D01*
X146351755Y-70713197D01*
X146327927Y-70760852D01*
X146304099Y-70784680D01*
X146256444Y-70808507D01*
X146065823Y-70808507D01*
X146542375Y-70594059D02*
X146566203Y-70570231D01*
X146613858Y-70546403D01*
X146732996Y-70546403D01*
X146780652Y-70570231D01*
X146804479Y-70594059D01*
X146828307Y-70641714D01*
X146828307Y-70689369D01*
X146804479Y-70760852D01*
X146518548Y-71046783D01*
X146828307Y-71046783D01*
X147257204Y-70713197D02*
X147257204Y-71046783D01*
X147138066Y-70522576D02*
X147018927Y-70879990D01*
X147328687Y-70879990D01*
X125086085Y-65559810D02*
X124933685Y-65317905D01*
X124824828Y-65559810D02*
X124824828Y-65051810D01*
X124999000Y-65051810D01*
X125042542Y-65076000D01*
X125064314Y-65100190D01*
X125086085Y-65148571D01*
X125086085Y-65221143D01*
X125064314Y-65269524D01*
X125042542Y-65293714D01*
X124999000Y-65317905D01*
X124824828Y-65317905D01*
X125260257Y-65100190D02*
X125282028Y-65076000D01*
X125325571Y-65051810D01*
X125434428Y-65051810D01*
X125477971Y-65076000D01*
X125499742Y-65100190D01*
X125521514Y-65148571D01*
X125521514Y-65196952D01*
X125499742Y-65269524D01*
X125238485Y-65559810D01*
X125521514Y-65559810D01*
X125935171Y-65051810D02*
X125717457Y-65051810D01*
X125695686Y-65293714D01*
X125717457Y-65269524D01*
X125761000Y-65245333D01*
X125869857Y-65245333D01*
X125913400Y-65269524D01*
X125935171Y-65293714D01*
X125956943Y-65342095D01*
X125956943Y-65463048D01*
X125935171Y-65511429D01*
X125913400Y-65535619D01*
X125869857Y-65559810D01*
X125761000Y-65559810D01*
X125717457Y-65535619D01*
X125695686Y-65511429D01*
X125082140Y-63312099D02*
X124929740Y-63070194D01*
X124820883Y-63312099D02*
X124820883Y-62804099D01*
X124995055Y-62804099D01*
X125038597Y-62828289D01*
X125060369Y-62852479D01*
X125082140Y-62900860D01*
X125082140Y-62973432D01*
X125060369Y-63021813D01*
X125038597Y-63046003D01*
X124995055Y-63070194D01*
X124820883Y-63070194D01*
X125256312Y-62852479D02*
X125278083Y-62828289D01*
X125321626Y-62804099D01*
X125430483Y-62804099D01*
X125474026Y-62828289D01*
X125495797Y-62852479D01*
X125517569Y-62900860D01*
X125517569Y-62949241D01*
X125495797Y-63021813D01*
X125234540Y-63312099D01*
X125517569Y-63312099D01*
X125909455Y-62804099D02*
X125822369Y-62804099D01*
X125778826Y-62828289D01*
X125757055Y-62852479D01*
X125713512Y-62925051D01*
X125691741Y-63021813D01*
X125691741Y-63215337D01*
X125713512Y-63263718D01*
X125735284Y-63287908D01*
X125778826Y-63312099D01*
X125865912Y-63312099D01*
X125909455Y-63287908D01*
X125931226Y-63263718D01*
X125952998Y-63215337D01*
X125952998Y-63094384D01*
X125931226Y-63046003D01*
X125909455Y-63021813D01*
X125865912Y-62997622D01*
X125778826Y-62997622D01*
X125735284Y-63021813D01*
X125713512Y-63046003D01*
X125691741Y-63094384D01*
D15*
X150146085Y-57189810D02*
X149993685Y-56947905D01*
X149884828Y-57189810D02*
X149884828Y-56681810D01*
X150059000Y-56681810D01*
X150102542Y-56706000D01*
X150124314Y-56730190D01*
X150146085Y-56778571D01*
X150146085Y-56851143D01*
X150124314Y-56899524D01*
X150102542Y-56923714D01*
X150059000Y-56947905D01*
X149884828Y-56947905D01*
X150320257Y-56730190D02*
X150342028Y-56706000D01*
X150385571Y-56681810D01*
X150494428Y-56681810D01*
X150537971Y-56706000D01*
X150559742Y-56730190D01*
X150581514Y-56778571D01*
X150581514Y-56826952D01*
X150559742Y-56899524D01*
X150298485Y-57189810D01*
X150581514Y-57189810D01*
X150799229Y-57189810D02*
X150886314Y-57189810D01*
X150929857Y-57165619D01*
X150951629Y-57141429D01*
X150995171Y-57068857D01*
X151016943Y-56972095D01*
X151016943Y-56778571D01*
X150995171Y-56730190D01*
X150973400Y-56706000D01*
X150929857Y-56681810D01*
X150842771Y-56681810D01*
X150799229Y-56706000D01*
X150777457Y-56730190D01*
X150755686Y-56778571D01*
X150755686Y-56899524D01*
X150777457Y-56947905D01*
X150799229Y-56972095D01*
X150842771Y-56996286D01*
X150929857Y-56996286D01*
X150973400Y-56972095D01*
X150995171Y-56947905D01*
X151016943Y-56899524D01*
X107366085Y-66589810D02*
X107213685Y-66347905D01*
X107104828Y-66589810D02*
X107104828Y-66081810D01*
X107279000Y-66081810D01*
X107322542Y-66106000D01*
X107344314Y-66130190D01*
X107366085Y-66178571D01*
X107366085Y-66251143D01*
X107344314Y-66299524D01*
X107322542Y-66323714D01*
X107279000Y-66347905D01*
X107104828Y-66347905D01*
X107518485Y-66081810D02*
X107801514Y-66081810D01*
X107649114Y-66275333D01*
X107714428Y-66275333D01*
X107757971Y-66299524D01*
X107779742Y-66323714D01*
X107801514Y-66372095D01*
X107801514Y-66493048D01*
X107779742Y-66541429D01*
X107757971Y-66565619D01*
X107714428Y-66589810D01*
X107583800Y-66589810D01*
X107540257Y-66565619D01*
X107518485Y-66541429D01*
X108084543Y-66081810D02*
X108128086Y-66081810D01*
X108171629Y-66106000D01*
X108193400Y-66130190D01*
X108215171Y-66178571D01*
X108236943Y-66275333D01*
X108236943Y-66396286D01*
X108215171Y-66493048D01*
X108193400Y-66541429D01*
X108171629Y-66565619D01*
X108128086Y-66589810D01*
X108084543Y-66589810D01*
X108041000Y-66565619D01*
X108019229Y-66541429D01*
X107997457Y-66493048D01*
X107975686Y-66396286D01*
X107975686Y-66275333D01*
X107997457Y-66178571D01*
X108019229Y-66130190D01*
X108041000Y-66106000D01*
X108084543Y-66081810D01*
X155006085Y-71129810D02*
X154853685Y-70887905D01*
X154744828Y-71129810D02*
X154744828Y-70621810D01*
X154919000Y-70621810D01*
X154962542Y-70646000D01*
X154984314Y-70670190D01*
X155006085Y-70718571D01*
X155006085Y-70791143D01*
X154984314Y-70839524D01*
X154962542Y-70863714D01*
X154919000Y-70887905D01*
X154744828Y-70887905D01*
X155158485Y-70621810D02*
X155441514Y-70621810D01*
X155289114Y-70815333D01*
X155354428Y-70815333D01*
X155397971Y-70839524D01*
X155419742Y-70863714D01*
X155441514Y-70912095D01*
X155441514Y-71033048D01*
X155419742Y-71081429D01*
X155397971Y-71105619D01*
X155354428Y-71129810D01*
X155223800Y-71129810D01*
X155180257Y-71105619D01*
X155158485Y-71081429D01*
X155593914Y-70621810D02*
X155876943Y-70621810D01*
X155724543Y-70815333D01*
X155789857Y-70815333D01*
X155833400Y-70839524D01*
X155855171Y-70863714D01*
X155876943Y-70912095D01*
X155876943Y-71033048D01*
X155855171Y-71081429D01*
X155833400Y-71105619D01*
X155789857Y-71129810D01*
X155659229Y-71129810D01*
X155615686Y-71105619D01*
X155593914Y-71081429D01*
D24*
X146836085Y-72779810D02*
X146683685Y-72537905D01*
X146574828Y-72779810D02*
X146574828Y-72271810D01*
X146749000Y-72271810D01*
X146792542Y-72296000D01*
X146814314Y-72320190D01*
X146836085Y-72368571D01*
X146836085Y-72441143D01*
X146814314Y-72489524D01*
X146792542Y-72513714D01*
X146749000Y-72537905D01*
X146574828Y-72537905D01*
X146988485Y-72271810D02*
X147271514Y-72271810D01*
X147119114Y-72465333D01*
X147184428Y-72465333D01*
X147227971Y-72489524D01*
X147249742Y-72513714D01*
X147271514Y-72562095D01*
X147271514Y-72683048D01*
X147249742Y-72731429D01*
X147227971Y-72755619D01*
X147184428Y-72779810D01*
X147053800Y-72779810D01*
X147010257Y-72755619D01*
X146988485Y-72731429D01*
X147663400Y-72441143D02*
X147663400Y-72779810D01*
X147554543Y-72247619D02*
X147445686Y-72610476D01*
X147728714Y-72610476D01*
D10*
X170506085Y-56129810D02*
X170353685Y-55887905D01*
X170244828Y-56129810D02*
X170244828Y-55621810D01*
X170419000Y-55621810D01*
X170462542Y-55646000D01*
X170484314Y-55670190D01*
X170506085Y-55718571D01*
X170506085Y-55791143D01*
X170484314Y-55839524D01*
X170462542Y-55863714D01*
X170419000Y-55887905D01*
X170244828Y-55887905D01*
X170658485Y-55621810D02*
X170941514Y-55621810D01*
X170789114Y-55815333D01*
X170854428Y-55815333D01*
X170897971Y-55839524D01*
X170919742Y-55863714D01*
X170941514Y-55912095D01*
X170941514Y-56033048D01*
X170919742Y-56081429D01*
X170897971Y-56105619D01*
X170854428Y-56129810D01*
X170723800Y-56129810D01*
X170680257Y-56105619D01*
X170658485Y-56081429D01*
X171355171Y-55621810D02*
X171137457Y-55621810D01*
X171115686Y-55863714D01*
X171137457Y-55839524D01*
X171181000Y-55815333D01*
X171289857Y-55815333D01*
X171333400Y-55839524D01*
X171355171Y-55863714D01*
X171376943Y-55912095D01*
X171376943Y-56033048D01*
X171355171Y-56081429D01*
X171333400Y-56105619D01*
X171289857Y-56129810D01*
X171181000Y-56129810D01*
X171137457Y-56105619D01*
X171115686Y-56081429D01*
X173856085Y-56129810D02*
X173703685Y-55887905D01*
X173594828Y-56129810D02*
X173594828Y-55621810D01*
X173769000Y-55621810D01*
X173812542Y-55646000D01*
X173834314Y-55670190D01*
X173856085Y-55718571D01*
X173856085Y-55791143D01*
X173834314Y-55839524D01*
X173812542Y-55863714D01*
X173769000Y-55887905D01*
X173594828Y-55887905D01*
X174008485Y-55621810D02*
X174291514Y-55621810D01*
X174139114Y-55815333D01*
X174204428Y-55815333D01*
X174247971Y-55839524D01*
X174269742Y-55863714D01*
X174291514Y-55912095D01*
X174291514Y-56033048D01*
X174269742Y-56081429D01*
X174247971Y-56105619D01*
X174204428Y-56129810D01*
X174073800Y-56129810D01*
X174030257Y-56105619D01*
X174008485Y-56081429D01*
X174683400Y-55621810D02*
X174596314Y-55621810D01*
X174552771Y-55646000D01*
X174531000Y-55670190D01*
X174487457Y-55742762D01*
X174465686Y-55839524D01*
X174465686Y-56033048D01*
X174487457Y-56081429D01*
X174509229Y-56105619D01*
X174552771Y-56129810D01*
X174639857Y-56129810D01*
X174683400Y-56105619D01*
X174705171Y-56081429D01*
X174726943Y-56033048D01*
X174726943Y-55912095D01*
X174705171Y-55863714D01*
X174683400Y-55839524D01*
X174639857Y-55815333D01*
X174552771Y-55815333D01*
X174509229Y-55839524D01*
X174487457Y-55863714D01*
X174465686Y-55912095D01*
X143233334Y-80252381D02*
X143304763Y-80276190D01*
X143423810Y-80276190D01*
X143471429Y-80252381D01*
X143495239Y-80228571D01*
X143519048Y-80180952D01*
X143519048Y-80133333D01*
X143495239Y-80085714D01*
X143471429Y-80061905D01*
X143423810Y-80038095D01*
X143328572Y-80014286D01*
X143280953Y-79990476D01*
X143257144Y-79966667D01*
X143233334Y-79919048D01*
X143233334Y-79871429D01*
X143257144Y-79823810D01*
X143280953Y-79800000D01*
X143328572Y-79776190D01*
X143447620Y-79776190D01*
X143519048Y-79800000D01*
X143685715Y-79776190D02*
X143804762Y-80276190D01*
X143900000Y-79919048D01*
X143995238Y-80276190D01*
X144114286Y-79776190D01*
X144566667Y-80276190D02*
X144280953Y-80276190D01*
X144423810Y-80276190D02*
X144423810Y-79776190D01*
X144376191Y-79847619D01*
X144328572Y-79895238D01*
X144280953Y-79919048D01*
D11*
X132862381Y-38301905D02*
X132862381Y-37730476D01*
X133862381Y-38016191D02*
X132862381Y-38016191D01*
X133862381Y-36873333D02*
X133862381Y-37444762D01*
X133862381Y-37159048D02*
X132862381Y-37159048D01*
X133005238Y-37254286D01*
X133100476Y-37349524D01*
X133148095Y-37444762D01*
D10*
X135159048Y-48576190D02*
X135159048Y-48980952D01*
X135182857Y-49028571D01*
X135206667Y-49052381D01*
X135254286Y-49076190D01*
X135349524Y-49076190D01*
X135397143Y-49052381D01*
X135420952Y-49028571D01*
X135444762Y-48980952D01*
X135444762Y-48576190D01*
X135635239Y-48576190D02*
X135944762Y-48576190D01*
X135778096Y-48766667D01*
X135849524Y-48766667D01*
X135897143Y-48790476D01*
X135920953Y-48814286D01*
X135944762Y-48861905D01*
X135944762Y-48980952D01*
X135920953Y-49028571D01*
X135897143Y-49052381D01*
X135849524Y-49076190D01*
X135706667Y-49076190D01*
X135659048Y-49052381D01*
X135635239Y-49028571D01*
X121185103Y-59788479D02*
X121185103Y-60193241D01*
X121208912Y-60240860D01*
X121232722Y-60264670D01*
X121280341Y-60288479D01*
X121375579Y-60288479D01*
X121423198Y-60264670D01*
X121447007Y-60240860D01*
X121470817Y-60193241D01*
X121470817Y-59788479D01*
X121923198Y-59955146D02*
X121923198Y-60288479D01*
X121804151Y-59764670D02*
X121685103Y-60121813D01*
X121994627Y-60121813D01*
X140249617Y-68751373D02*
X140654379Y-68751373D01*
X140701998Y-68727564D01*
X140725808Y-68703754D01*
X140749617Y-68656135D01*
X140749617Y-68560897D01*
X140725808Y-68513278D01*
X140701998Y-68489469D01*
X140654379Y-68465659D01*
X140249617Y-68465659D01*
X140249617Y-67989468D02*
X140249617Y-68227563D01*
X140487713Y-68251373D01*
X140463903Y-68227563D01*
X140440094Y-68179944D01*
X140440094Y-68060897D01*
X140463903Y-68013278D01*
X140487713Y-67989468D01*
X140535332Y-67965659D01*
X140654379Y-67965659D01*
X140701998Y-67989468D01*
X140725808Y-68013278D01*
X140749617Y-68060897D01*
X140749617Y-68179944D01*
X140725808Y-68227563D01*
X140701998Y-68251373D01*
M02*
