%FSLAX45Y45*%
G04 Gerber Fmt 4.5, Leading zero omitted, Abs format (unit mm)*
G04 Created by KiCad (PCBNEW (2014-09-17 BZR 5140)-product) date Sun 28 Sep 2014 11:22:45 PM EDT*
%MOMM*%
G01*
G04 APERTURE LIST*
%ADD10C,0.100000*%
%ADD11C,0.150000*%
%ADD12C,0.200000*%
%ADD13C,0.300000*%
%ADD14C,0.127000*%
%ADD15C,0.099060*%
%ADD16C,0.152400*%
%ADD17C,0.381000*%
G04 APERTURE END LIST*
D10*
D11*
X17329286Y-9878929D02*
X17375714Y-9878929D01*
X17350714Y-9907500D01*
X17361429Y-9907500D01*
X17368571Y-9911071D01*
X17372143Y-9914643D01*
X17375714Y-9921786D01*
X17375714Y-9939643D01*
X17372143Y-9946786D01*
X17368571Y-9950357D01*
X17361429Y-9953929D01*
X17340000Y-9953929D01*
X17332857Y-9950357D01*
X17329286Y-9946786D01*
X17407857Y-9946786D02*
X17411429Y-9950357D01*
X17407857Y-9953929D01*
X17404286Y-9950357D01*
X17407857Y-9946786D01*
X17407857Y-9953929D01*
X17436429Y-9878929D02*
X17482857Y-9878929D01*
X17457857Y-9907500D01*
X17468571Y-9907500D01*
X17475714Y-9911071D01*
X17479286Y-9914643D01*
X17482857Y-9921786D01*
X17482857Y-9939643D01*
X17479286Y-9946786D01*
X17475714Y-9950357D01*
X17468571Y-9953929D01*
X17447143Y-9953929D01*
X17440000Y-9950357D01*
X17436429Y-9946786D01*
X17504286Y-9878929D02*
X17529286Y-9953929D01*
X17554286Y-9878929D01*
X17362857Y-9672500D02*
X17355714Y-9668929D01*
X17345000Y-9668929D01*
X17334286Y-9672500D01*
X17327143Y-9679643D01*
X17323571Y-9686786D01*
X17320000Y-9701071D01*
X17320000Y-9711786D01*
X17323571Y-9726071D01*
X17327143Y-9733214D01*
X17334286Y-9740357D01*
X17345000Y-9743929D01*
X17352143Y-9743929D01*
X17362857Y-9740357D01*
X17366429Y-9736786D01*
X17366429Y-9711786D01*
X17352143Y-9711786D01*
X17398571Y-9743929D02*
X17398571Y-9668929D01*
X17441429Y-9743929D01*
X17441429Y-9668929D01*
X17477143Y-9743929D02*
X17477143Y-9668929D01*
X17495000Y-9668929D01*
X17505714Y-9672500D01*
X17512857Y-9679643D01*
X17516429Y-9686786D01*
X17520000Y-9701071D01*
X17520000Y-9711786D01*
X17516429Y-9726071D01*
X17512857Y-9733214D01*
X17505714Y-9740357D01*
X17495000Y-9743929D01*
X17477143Y-9743929D01*
D12*
X18680952Y-9090238D02*
X18647619Y-9042619D01*
X18623810Y-9090238D02*
X18623810Y-8990238D01*
X18661905Y-8990238D01*
X18671429Y-8995000D01*
X18676191Y-8999762D01*
X18680952Y-9009286D01*
X18680952Y-9023571D01*
X18676191Y-9033095D01*
X18671429Y-9037857D01*
X18661905Y-9042619D01*
X18623810Y-9042619D01*
X18757143Y-9037857D02*
X18723810Y-9037857D01*
X18723810Y-9090238D02*
X18723810Y-8990238D01*
X18771429Y-8990238D01*
X18809524Y-9090238D02*
X18809524Y-8990238D01*
X18857143Y-9090238D02*
X18857143Y-8990238D01*
X18880952Y-8990238D01*
X18895238Y-8995000D01*
X18904762Y-9004524D01*
X18909524Y-9014048D01*
X18914286Y-9033095D01*
X18914286Y-9047381D01*
X18909524Y-9066429D01*
X18904762Y-9075952D01*
X18895238Y-9085476D01*
X18880952Y-9090238D01*
X18857143Y-9090238D01*
X19028571Y-8985476D02*
X18942857Y-9114048D01*
X19061905Y-9090238D02*
X19061905Y-8990238D01*
X19119048Y-9090238D01*
X19119048Y-8990238D01*
X19200000Y-9037857D02*
X19166667Y-9037857D01*
X19166667Y-9090238D02*
X19166667Y-8990238D01*
X19214286Y-8990238D01*
X19309524Y-9080714D02*
X19304762Y-9085476D01*
X19290476Y-9090238D01*
X19280952Y-9090238D01*
X19266667Y-9085476D01*
X19257143Y-9075952D01*
X19252381Y-9066429D01*
X19247619Y-9047381D01*
X19247619Y-9033095D01*
X19252381Y-9014048D01*
X19257143Y-9004524D01*
X19266667Y-8995000D01*
X19280952Y-8990238D01*
X19290476Y-8990238D01*
X19304762Y-8995000D01*
X19309524Y-8999762D01*
X19414286Y-9023571D02*
X19452381Y-9023571D01*
X19428571Y-8990238D02*
X19428571Y-9075952D01*
X19433333Y-9085476D01*
X19442857Y-9090238D01*
X19452381Y-9090238D01*
X19485714Y-9090238D02*
X19485714Y-9023571D01*
X19485714Y-9042619D02*
X19490476Y-9033095D01*
X19495238Y-9028333D01*
X19504762Y-9023571D01*
X19514286Y-9023571D01*
X19590476Y-9090238D02*
X19590476Y-9037857D01*
X19585714Y-9028333D01*
X19576191Y-9023571D01*
X19557143Y-9023571D01*
X19547619Y-9028333D01*
X19590476Y-9085476D02*
X19580953Y-9090238D01*
X19557143Y-9090238D01*
X19547619Y-9085476D01*
X19542857Y-9075952D01*
X19542857Y-9066429D01*
X19547619Y-9056905D01*
X19557143Y-9052143D01*
X19580953Y-9052143D01*
X19590476Y-9047381D01*
X19638095Y-9023571D02*
X19638095Y-9090238D01*
X19638095Y-9033095D02*
X19642857Y-9028333D01*
X19652381Y-9023571D01*
X19666667Y-9023571D01*
X19676191Y-9028333D01*
X19680953Y-9037857D01*
X19680953Y-9090238D01*
X19723810Y-9085476D02*
X19733333Y-9090238D01*
X19752381Y-9090238D01*
X19761905Y-9085476D01*
X19766667Y-9075952D01*
X19766667Y-9071191D01*
X19761905Y-9061667D01*
X19752381Y-9056905D01*
X19738095Y-9056905D01*
X19728572Y-9052143D01*
X19723810Y-9042619D01*
X19723810Y-9037857D01*
X19728572Y-9028333D01*
X19738095Y-9023571D01*
X19752381Y-9023571D01*
X19761905Y-9028333D01*
X19852381Y-9085476D02*
X19842857Y-9090238D01*
X19823810Y-9090238D01*
X19814286Y-9085476D01*
X19809524Y-9080714D01*
X19804762Y-9071191D01*
X19804762Y-9042619D01*
X19809524Y-9033095D01*
X19814286Y-9028333D01*
X19823810Y-9023571D01*
X19842857Y-9023571D01*
X19852381Y-9028333D01*
X19933334Y-9085476D02*
X19923810Y-9090238D01*
X19904762Y-9090238D01*
X19895238Y-9085476D01*
X19890476Y-9075952D01*
X19890476Y-9037857D01*
X19895238Y-9028333D01*
X19904762Y-9023571D01*
X19923810Y-9023571D01*
X19933334Y-9028333D01*
X19938095Y-9037857D01*
X19938095Y-9047381D01*
X19890476Y-9056905D01*
X19980953Y-9090238D02*
X19980953Y-9023571D01*
X19980953Y-8990238D02*
X19976191Y-8995000D01*
X19980953Y-8999762D01*
X19985714Y-8995000D01*
X19980953Y-8990238D01*
X19980953Y-8999762D01*
X20019048Y-9023571D02*
X20042857Y-9090238D01*
X20066667Y-9023571D01*
X20142857Y-9085476D02*
X20133334Y-9090238D01*
X20114286Y-9090238D01*
X20104762Y-9085476D01*
X20100000Y-9075952D01*
X20100000Y-9037857D01*
X20104762Y-9028333D01*
X20114286Y-9023571D01*
X20133334Y-9023571D01*
X20142857Y-9028333D01*
X20147619Y-9037857D01*
X20147619Y-9047381D01*
X20100000Y-9056905D01*
X20190476Y-9090238D02*
X20190476Y-9023571D01*
X20190476Y-9042619D02*
X20195238Y-9033095D01*
X20200000Y-9028333D01*
X20209524Y-9023571D01*
X20219048Y-9023571D01*
X18609524Y-9150238D02*
X18642857Y-9250238D01*
X18676191Y-9150238D01*
X18747619Y-9245476D02*
X18738095Y-9250238D01*
X18719048Y-9250238D01*
X18709524Y-9245476D01*
X18704762Y-9235952D01*
X18704762Y-9197857D01*
X18709524Y-9188333D01*
X18719048Y-9183571D01*
X18738095Y-9183571D01*
X18747619Y-9188333D01*
X18752381Y-9197857D01*
X18752381Y-9207381D01*
X18704762Y-9216905D01*
X18795238Y-9250238D02*
X18795238Y-9183571D01*
X18795238Y-9202619D02*
X18800000Y-9193095D01*
X18804762Y-9188333D01*
X18814286Y-9183571D01*
X18823810Y-9183571D01*
X18852381Y-9245476D02*
X18861905Y-9250238D01*
X18880952Y-9250238D01*
X18890476Y-9245476D01*
X18895238Y-9235952D01*
X18895238Y-9231191D01*
X18890476Y-9221667D01*
X18880952Y-9216905D01*
X18866667Y-9216905D01*
X18857143Y-9212143D01*
X18852381Y-9202619D01*
X18852381Y-9197857D01*
X18857143Y-9188333D01*
X18866667Y-9183571D01*
X18880952Y-9183571D01*
X18890476Y-9188333D01*
X18938095Y-9250238D02*
X18938095Y-9183571D01*
X18938095Y-9150238D02*
X18933333Y-9155000D01*
X18938095Y-9159762D01*
X18942857Y-9155000D01*
X18938095Y-9150238D01*
X18938095Y-9159762D01*
X19000000Y-9250238D02*
X18990476Y-9245476D01*
X18985714Y-9240714D01*
X18980952Y-9231191D01*
X18980952Y-9202619D01*
X18985714Y-9193095D01*
X18990476Y-9188333D01*
X19000000Y-9183571D01*
X19014286Y-9183571D01*
X19023810Y-9188333D01*
X19028572Y-9193095D01*
X19033333Y-9202619D01*
X19033333Y-9231191D01*
X19028572Y-9240714D01*
X19023810Y-9245476D01*
X19014286Y-9250238D01*
X19000000Y-9250238D01*
X19076191Y-9183571D02*
X19076191Y-9250238D01*
X19076191Y-9193095D02*
X19080952Y-9188333D01*
X19090476Y-9183571D01*
X19104762Y-9183571D01*
X19114286Y-9188333D01*
X19119048Y-9197857D01*
X19119048Y-9250238D01*
X19295238Y-9250238D02*
X19238095Y-9250238D01*
X19266667Y-9250238D02*
X19266667Y-9150238D01*
X19257143Y-9164524D01*
X19247619Y-9174048D01*
X19238095Y-9178810D01*
X18611905Y-8895238D02*
X18611905Y-8795238D01*
X18654762Y-8895238D02*
X18654762Y-8842857D01*
X18650000Y-8833333D01*
X18640476Y-8828571D01*
X18626190Y-8828571D01*
X18616667Y-8833333D01*
X18611905Y-8838095D01*
X18688095Y-8828571D02*
X18726190Y-8828571D01*
X18702381Y-8795238D02*
X18702381Y-8880952D01*
X18707143Y-8890476D01*
X18716667Y-8895238D01*
X18726190Y-8895238D01*
X18745238Y-8828571D02*
X18783333Y-8828571D01*
X18759524Y-8795238D02*
X18759524Y-8880952D01*
X18764286Y-8890476D01*
X18773809Y-8895238D01*
X18783333Y-8895238D01*
X18816667Y-8828571D02*
X18816667Y-8928571D01*
X18816667Y-8833333D02*
X18826190Y-8828571D01*
X18845238Y-8828571D01*
X18854762Y-8833333D01*
X18859524Y-8838095D01*
X18864286Y-8847619D01*
X18864286Y-8876191D01*
X18859524Y-8885714D01*
X18854762Y-8890476D01*
X18845238Y-8895238D01*
X18826190Y-8895238D01*
X18816667Y-8890476D01*
X18902381Y-8890476D02*
X18911905Y-8895238D01*
X18930952Y-8895238D01*
X18940476Y-8890476D01*
X18945238Y-8880952D01*
X18945238Y-8876191D01*
X18940476Y-8866667D01*
X18930952Y-8861905D01*
X18916667Y-8861905D01*
X18907143Y-8857143D01*
X18902381Y-8847619D01*
X18902381Y-8842857D01*
X18907143Y-8833333D01*
X18916667Y-8828571D01*
X18930952Y-8828571D01*
X18940476Y-8833333D01*
X18988095Y-8885714D02*
X18992857Y-8890476D01*
X18988095Y-8895238D01*
X18983333Y-8890476D01*
X18988095Y-8885714D01*
X18988095Y-8895238D01*
X18988095Y-8833333D02*
X18992857Y-8838095D01*
X18988095Y-8842857D01*
X18983333Y-8838095D01*
X18988095Y-8833333D01*
X18988095Y-8842857D01*
X19107143Y-8790476D02*
X19021429Y-8919048D01*
X19211905Y-8790476D02*
X19126190Y-8919048D01*
X19288095Y-8828571D02*
X19288095Y-8909524D01*
X19283333Y-8919048D01*
X19278571Y-8923810D01*
X19269048Y-8928571D01*
X19254762Y-8928571D01*
X19245238Y-8923810D01*
X19288095Y-8890476D02*
X19278571Y-8895238D01*
X19259524Y-8895238D01*
X19250000Y-8890476D01*
X19245238Y-8885714D01*
X19240476Y-8876191D01*
X19240476Y-8847619D01*
X19245238Y-8838095D01*
X19250000Y-8833333D01*
X19259524Y-8828571D01*
X19278571Y-8828571D01*
X19288095Y-8833333D01*
X19335714Y-8895238D02*
X19335714Y-8828571D01*
X19335714Y-8795238D02*
X19330952Y-8800000D01*
X19335714Y-8804762D01*
X19340476Y-8800000D01*
X19335714Y-8795238D01*
X19335714Y-8804762D01*
X19369048Y-8828571D02*
X19407143Y-8828571D01*
X19383333Y-8795238D02*
X19383333Y-8880952D01*
X19388095Y-8890476D01*
X19397619Y-8895238D01*
X19407143Y-8895238D01*
X19440476Y-8895238D02*
X19440476Y-8795238D01*
X19483333Y-8895238D02*
X19483333Y-8842857D01*
X19478571Y-8833333D01*
X19469048Y-8828571D01*
X19454762Y-8828571D01*
X19445238Y-8833333D01*
X19440476Y-8838095D01*
X19573810Y-8828571D02*
X19573810Y-8895238D01*
X19530952Y-8828571D02*
X19530952Y-8880952D01*
X19535714Y-8890476D01*
X19545238Y-8895238D01*
X19559524Y-8895238D01*
X19569048Y-8890476D01*
X19573810Y-8885714D01*
X19621429Y-8895238D02*
X19621429Y-8795238D01*
X19621429Y-8833333D02*
X19630952Y-8828571D01*
X19650000Y-8828571D01*
X19659524Y-8833333D01*
X19664286Y-8838095D01*
X19669048Y-8847619D01*
X19669048Y-8876191D01*
X19664286Y-8885714D01*
X19659524Y-8890476D01*
X19650000Y-8895238D01*
X19630952Y-8895238D01*
X19621429Y-8890476D01*
X19711905Y-8885714D02*
X19716667Y-8890476D01*
X19711905Y-8895238D01*
X19707143Y-8890476D01*
X19711905Y-8885714D01*
X19711905Y-8895238D01*
X19802381Y-8890476D02*
X19792857Y-8895238D01*
X19773809Y-8895238D01*
X19764286Y-8890476D01*
X19759524Y-8885714D01*
X19754762Y-8876191D01*
X19754762Y-8847619D01*
X19759524Y-8838095D01*
X19764286Y-8833333D01*
X19773809Y-8828571D01*
X19792857Y-8828571D01*
X19802381Y-8833333D01*
X19859524Y-8895238D02*
X19850000Y-8890476D01*
X19845238Y-8885714D01*
X19840476Y-8876191D01*
X19840476Y-8847619D01*
X19845238Y-8838095D01*
X19850000Y-8833333D01*
X19859524Y-8828571D01*
X19873810Y-8828571D01*
X19883333Y-8833333D01*
X19888095Y-8838095D01*
X19892857Y-8847619D01*
X19892857Y-8876191D01*
X19888095Y-8885714D01*
X19883333Y-8890476D01*
X19873810Y-8895238D01*
X19859524Y-8895238D01*
X19935714Y-8895238D02*
X19935714Y-8828571D01*
X19935714Y-8838095D02*
X19940476Y-8833333D01*
X19950000Y-8828571D01*
X19964286Y-8828571D01*
X19973810Y-8833333D01*
X19978571Y-8842857D01*
X19978571Y-8895238D01*
X19978571Y-8842857D02*
X19983333Y-8833333D01*
X19992857Y-8828571D01*
X20007143Y-8828571D01*
X20016667Y-8833333D01*
X20021429Y-8842857D01*
X20021429Y-8895238D01*
X20140476Y-8790476D02*
X20054762Y-8919048D01*
X20173809Y-8895238D02*
X20173809Y-8828571D01*
X20173809Y-8847619D02*
X20178571Y-8838095D01*
X20183333Y-8833333D01*
X20192857Y-8828571D01*
X20202381Y-8828571D01*
X20273810Y-8890476D02*
X20264286Y-8895238D01*
X20245238Y-8895238D01*
X20235714Y-8890476D01*
X20230952Y-8880952D01*
X20230952Y-8842857D01*
X20235714Y-8833333D01*
X20245238Y-8828571D01*
X20264286Y-8828571D01*
X20273810Y-8833333D01*
X20278571Y-8842857D01*
X20278571Y-8852381D01*
X20230952Y-8861905D01*
X20321429Y-8828571D02*
X20321429Y-8928571D01*
X20321429Y-8833333D02*
X20330952Y-8828571D01*
X20350000Y-8828571D01*
X20359524Y-8833333D01*
X20364286Y-8838095D01*
X20369048Y-8847619D01*
X20369048Y-8876191D01*
X20364286Y-8885714D01*
X20359524Y-8890476D01*
X20350000Y-8895238D01*
X20330952Y-8895238D01*
X20321429Y-8890476D01*
X20426190Y-8895238D02*
X20416667Y-8890476D01*
X20411905Y-8885714D01*
X20407143Y-8876191D01*
X20407143Y-8847619D01*
X20411905Y-8838095D01*
X20416667Y-8833333D01*
X20426190Y-8828571D01*
X20440476Y-8828571D01*
X20450000Y-8833333D01*
X20454762Y-8838095D01*
X20459524Y-8847619D01*
X20459524Y-8876191D01*
X20454762Y-8885714D01*
X20450000Y-8890476D01*
X20440476Y-8895238D01*
X20426190Y-8895238D01*
X20502381Y-8895238D02*
X20502381Y-8828571D01*
X20502381Y-8847619D02*
X20507143Y-8838095D01*
X20511905Y-8833333D01*
X20521429Y-8828571D01*
X20530952Y-8828571D01*
X20550000Y-8828571D02*
X20588095Y-8828571D01*
X20564286Y-8795238D02*
X20564286Y-8880952D01*
X20569048Y-8890476D01*
X20578571Y-8895238D01*
X20588095Y-8895238D01*
X20621429Y-8895238D02*
X20621429Y-8828571D01*
X20621429Y-8795238D02*
X20616667Y-8800000D01*
X20621429Y-8804762D01*
X20626191Y-8800000D01*
X20621429Y-8795238D01*
X20621429Y-8804762D01*
X20669048Y-8828571D02*
X20669048Y-8895238D01*
X20669048Y-8838095D02*
X20673810Y-8833333D01*
X20683333Y-8828571D01*
X20697619Y-8828571D01*
X20707143Y-8833333D01*
X20711905Y-8842857D01*
X20711905Y-8895238D01*
X20802381Y-8828571D02*
X20802381Y-8909524D01*
X20797619Y-8919048D01*
X20792857Y-8923810D01*
X20783333Y-8928571D01*
X20769048Y-8928571D01*
X20759524Y-8923810D01*
X20802381Y-8890476D02*
X20792857Y-8895238D01*
X20773810Y-8895238D01*
X20764286Y-8890476D01*
X20759524Y-8885714D01*
X20754762Y-8876191D01*
X20754762Y-8847619D01*
X20759524Y-8838095D01*
X20764286Y-8833333D01*
X20773810Y-8828571D01*
X20792857Y-8828571D01*
X20802381Y-8833333D01*
X20845238Y-8890476D02*
X20854762Y-8895238D01*
X20873810Y-8895238D01*
X20883333Y-8890476D01*
X20888095Y-8880952D01*
X20888095Y-8876191D01*
X20883333Y-8866667D01*
X20873810Y-8861905D01*
X20859524Y-8861905D01*
X20850000Y-8857143D01*
X20845238Y-8847619D01*
X20845238Y-8842857D01*
X20850000Y-8833333D01*
X20859524Y-8828571D01*
X20873810Y-8828571D01*
X20883333Y-8833333D01*
X20930952Y-8828571D02*
X20930952Y-8914286D01*
X20926191Y-8923810D01*
X20916667Y-8928571D01*
X20911905Y-8928571D01*
X20930952Y-8795238D02*
X20926191Y-8800000D01*
X20930952Y-8804762D01*
X20935714Y-8800000D01*
X20930952Y-8795238D01*
X20930952Y-8804762D01*
X20978571Y-8895238D02*
X20978571Y-8828571D01*
X20978571Y-8847619D02*
X20983333Y-8838095D01*
X20988095Y-8833333D01*
X20997619Y-8828571D01*
X21007143Y-8828571D01*
X21111905Y-8790476D02*
X21026191Y-8919048D01*
X21145238Y-8895238D02*
X21145238Y-8828571D01*
X21145238Y-8847619D02*
X21150000Y-8838095D01*
X21154762Y-8833333D01*
X21164286Y-8828571D01*
X21173810Y-8828571D01*
X21192857Y-8828571D02*
X21230952Y-8828571D01*
X21207143Y-8895238D02*
X21207143Y-8809524D01*
X21211905Y-8800000D01*
X21221429Y-8795238D01*
X21230952Y-8795238D01*
X21264286Y-8895238D02*
X21264286Y-8828571D01*
X21264286Y-8795238D02*
X21259524Y-8800000D01*
X21264286Y-8804762D01*
X21269048Y-8800000D01*
X21264286Y-8795238D01*
X21264286Y-8804762D01*
X21354762Y-8895238D02*
X21354762Y-8795238D01*
X21354762Y-8890476D02*
X21345238Y-8895238D01*
X21326191Y-8895238D01*
X21316667Y-8890476D01*
X21311905Y-8885714D01*
X21307143Y-8876191D01*
X21307143Y-8847619D01*
X21311905Y-8838095D01*
X21316667Y-8833333D01*
X21326191Y-8828571D01*
X21345238Y-8828571D01*
X21354762Y-8833333D01*
X21435714Y-8842857D02*
X21450000Y-8847619D01*
X21454762Y-8852381D01*
X21459524Y-8861905D01*
X21459524Y-8876191D01*
X21454762Y-8885714D01*
X21450000Y-8890476D01*
X21440476Y-8895238D01*
X21402381Y-8895238D01*
X21402381Y-8795238D01*
X21435714Y-8795238D01*
X21445238Y-8800000D01*
X21450000Y-8804762D01*
X21454762Y-8814286D01*
X21454762Y-8823810D01*
X21450000Y-8833333D01*
X21445238Y-8838095D01*
X21435714Y-8842857D01*
X21402381Y-8842857D01*
X21516667Y-8895238D02*
X21507143Y-8890476D01*
X21502381Y-8885714D01*
X21497619Y-8876191D01*
X21497619Y-8847619D01*
X21502381Y-8838095D01*
X21507143Y-8833333D01*
X21516667Y-8828571D01*
X21530953Y-8828571D01*
X21540476Y-8833333D01*
X21545238Y-8838095D01*
X21550000Y-8847619D01*
X21550000Y-8876191D01*
X21545238Y-8885714D01*
X21540476Y-8890476D01*
X21530953Y-8895238D01*
X21516667Y-8895238D01*
X21635714Y-8895238D02*
X21635714Y-8842857D01*
X21630953Y-8833333D01*
X21621429Y-8828571D01*
X21602381Y-8828571D01*
X21592857Y-8833333D01*
X21635714Y-8890476D02*
X21626191Y-8895238D01*
X21602381Y-8895238D01*
X21592857Y-8890476D01*
X21588095Y-8880952D01*
X21588095Y-8871429D01*
X21592857Y-8861905D01*
X21602381Y-8857143D01*
X21626191Y-8857143D01*
X21635714Y-8852381D01*
X21683333Y-8895238D02*
X21683333Y-8828571D01*
X21683333Y-8847619D02*
X21688095Y-8838095D01*
X21692857Y-8833333D01*
X21702381Y-8828571D01*
X21711905Y-8828571D01*
X21788095Y-8895238D02*
X21788095Y-8795238D01*
X21788095Y-8890476D02*
X21778572Y-8895238D01*
X21759524Y-8895238D01*
X21750000Y-8890476D01*
X21745238Y-8885714D01*
X21740476Y-8876191D01*
X21740476Y-8847619D01*
X21745238Y-8838095D01*
X21750000Y-8833333D01*
X21759524Y-8828571D01*
X21778572Y-8828571D01*
X21788095Y-8833333D01*
D13*
X20018571Y-8097857D02*
X20018571Y-8205000D01*
X20011429Y-8226429D01*
X19997143Y-8240714D01*
X19975714Y-8247857D01*
X19961429Y-8247857D01*
X20111429Y-8247857D02*
X20097143Y-8240714D01*
X20090000Y-8233571D01*
X20082857Y-8219286D01*
X20082857Y-8176429D01*
X20090000Y-8162143D01*
X20097143Y-8155000D01*
X20111429Y-8147857D01*
X20132857Y-8147857D01*
X20147143Y-8155000D01*
X20154286Y-8162143D01*
X20161429Y-8176429D01*
X20161429Y-8219286D01*
X20154286Y-8233571D01*
X20147143Y-8240714D01*
X20132857Y-8247857D01*
X20111429Y-8247857D01*
X20225714Y-8147857D02*
X20225714Y-8247857D01*
X20225714Y-8162143D02*
X20232857Y-8155000D01*
X20247143Y-8147857D01*
X20268571Y-8147857D01*
X20282857Y-8155000D01*
X20290000Y-8169286D01*
X20290000Y-8247857D01*
X20475714Y-8247857D02*
X20475714Y-8097857D01*
X20561429Y-8247857D01*
X20561429Y-8097857D01*
X20690000Y-8240714D02*
X20675714Y-8247857D01*
X20647143Y-8247857D01*
X20632857Y-8240714D01*
X20625714Y-8226429D01*
X20625714Y-8169286D01*
X20632857Y-8155000D01*
X20647143Y-8147857D01*
X20675714Y-8147857D01*
X20690000Y-8155000D01*
X20697143Y-8169286D01*
X20697143Y-8183571D01*
X20625714Y-8197857D01*
X20825714Y-8247857D02*
X20825714Y-8169286D01*
X20818571Y-8155000D01*
X20804286Y-8147857D01*
X20775714Y-8147857D01*
X20761429Y-8155000D01*
X20825714Y-8240714D02*
X20811429Y-8247857D01*
X20775714Y-8247857D01*
X20761429Y-8240714D01*
X20754286Y-8226429D01*
X20754286Y-8212143D01*
X20761429Y-8197857D01*
X20775714Y-8190714D01*
X20811429Y-8190714D01*
X20825714Y-8183571D01*
X20918572Y-8247857D02*
X20904286Y-8240714D01*
X20897143Y-8226429D01*
X20897143Y-8097857D01*
X19757143Y-7983571D02*
X19750000Y-7990714D01*
X19728571Y-7997857D01*
X19714286Y-7997857D01*
X19692857Y-7990714D01*
X19678571Y-7976429D01*
X19671429Y-7962143D01*
X19664286Y-7933571D01*
X19664286Y-7912143D01*
X19671429Y-7883571D01*
X19678571Y-7869286D01*
X19692857Y-7855000D01*
X19714286Y-7847857D01*
X19728571Y-7847857D01*
X19750000Y-7855000D01*
X19757143Y-7862143D01*
X19821429Y-7919286D02*
X19871429Y-7919286D01*
X19892857Y-7997857D02*
X19821429Y-7997857D01*
X19821429Y-7847857D01*
X19892857Y-7847857D01*
X20042857Y-7997857D02*
X19992857Y-7926429D01*
X19957143Y-7997857D02*
X19957143Y-7847857D01*
X20014286Y-7847857D01*
X20028572Y-7855000D01*
X20035714Y-7862143D01*
X20042857Y-7876429D01*
X20042857Y-7897857D01*
X20035714Y-7912143D01*
X20028572Y-7919286D01*
X20014286Y-7926429D01*
X19957143Y-7926429D01*
X20107143Y-7997857D02*
X20107143Y-7847857D01*
X20192857Y-7997857D01*
X20192857Y-7847857D01*
X20407143Y-7847857D02*
X20435714Y-7847857D01*
X20450000Y-7855000D01*
X20464286Y-7869286D01*
X20471429Y-7897857D01*
X20471429Y-7947857D01*
X20464286Y-7976429D01*
X20450000Y-7990714D01*
X20435714Y-7997857D01*
X20407143Y-7997857D01*
X20392857Y-7990714D01*
X20378572Y-7976429D01*
X20371429Y-7947857D01*
X20371429Y-7897857D01*
X20378572Y-7869286D01*
X20392857Y-7855000D01*
X20407143Y-7847857D01*
X20535714Y-7997857D02*
X20535714Y-7847857D01*
X20535714Y-7919286D02*
X20621429Y-7919286D01*
X20621429Y-7997857D02*
X20621429Y-7847857D01*
X20764286Y-7997857D02*
X20692857Y-7997857D01*
X20692857Y-7847857D01*
X20914286Y-7897857D02*
X20950000Y-7997857D01*
X20985714Y-7897857D01*
X21121429Y-7997857D02*
X21035714Y-7997857D01*
X21078572Y-7997857D02*
X21078572Y-7847857D01*
X21064286Y-7869286D01*
X21050000Y-7883571D01*
X21035714Y-7890714D01*
X21185714Y-7983571D02*
X21192857Y-7990714D01*
X21185714Y-7997857D01*
X21178572Y-7990714D01*
X21185714Y-7983571D01*
X21185714Y-7997857D01*
X21250000Y-7862143D02*
X21257143Y-7855000D01*
X21271429Y-7847857D01*
X21307143Y-7847857D01*
X21321429Y-7855000D01*
X21328572Y-7862143D01*
X21335714Y-7876429D01*
X21335714Y-7890714D01*
X21328572Y-7912143D01*
X21242857Y-7997857D01*
X21335714Y-7997857D01*
D14*
X16153500Y-8935700D02*
X16153500Y-9164300D01*
X16153500Y-9164300D02*
X16026500Y-9164300D01*
X16026500Y-9164300D02*
X16026500Y-8935700D01*
X16026500Y-8935700D02*
X16153500Y-8935700D01*
X16404300Y-9353500D02*
X16175700Y-9353500D01*
X16175700Y-9353500D02*
X16175700Y-9226500D01*
X16175700Y-9226500D02*
X16404300Y-9226500D01*
X16404300Y-9226500D02*
X16404300Y-9353500D01*
X17983500Y-10055700D02*
X17983500Y-10284300D01*
X17983500Y-10284300D02*
X17856500Y-10284300D01*
X17856500Y-10284300D02*
X17856500Y-10055700D01*
X17856500Y-10055700D02*
X17983500Y-10055700D01*
X17676500Y-9704300D02*
X17676500Y-9475700D01*
X17676500Y-9475700D02*
X17803500Y-9475700D01*
X17803500Y-9475700D02*
X17803500Y-9704300D01*
X17803500Y-9704300D02*
X17676500Y-9704300D01*
X16505700Y-8076500D02*
X16734300Y-8076500D01*
X16734300Y-8076500D02*
X16734300Y-8203500D01*
X16734300Y-8203500D02*
X16505700Y-8203500D01*
X16505700Y-8203500D02*
X16505700Y-8076500D01*
X16683500Y-8905700D02*
X16683500Y-9134300D01*
X16683500Y-9134300D02*
X16556500Y-9134300D01*
X16556500Y-9134300D02*
X16556500Y-8905700D01*
X16556500Y-8905700D02*
X16683500Y-8905700D01*
X16755700Y-8276500D02*
X16984300Y-8276500D01*
X16984300Y-8276500D02*
X16984300Y-8403500D01*
X16984300Y-8403500D02*
X16755700Y-8403500D01*
X16755700Y-8403500D02*
X16755700Y-8276500D01*
X17593500Y-10055700D02*
X17593500Y-10284300D01*
X17593500Y-10284300D02*
X17466500Y-10284300D01*
X17466500Y-10284300D02*
X17466500Y-10055700D01*
X17466500Y-10055700D02*
X17593500Y-10055700D01*
D15*
X18018900Y-9755100D02*
G75*
G03X18018900Y-9755100I-12700J0D01*
G74*
G01*
X18006200Y-9640800D02*
X18006200Y-9742400D01*
X18006200Y-9742400D02*
X17853800Y-9742400D01*
X17853800Y-9742400D02*
X17853800Y-9640800D01*
X17853800Y-9539200D02*
X17853800Y-9437600D01*
X17853800Y-9437600D02*
X18006200Y-9437600D01*
X18006200Y-9437600D02*
X18006200Y-9539200D01*
D14*
X17106500Y-9204300D02*
X17106500Y-8975700D01*
X17106500Y-8975700D02*
X17233500Y-8975700D01*
X17233500Y-8975700D02*
X17233500Y-9204300D01*
X17233500Y-9204300D02*
X17106500Y-9204300D01*
X17233500Y-7845700D02*
X17233500Y-8074300D01*
X17233500Y-8074300D02*
X17106500Y-8074300D01*
X17106500Y-8074300D02*
X17106500Y-7845700D01*
X17106500Y-7845700D02*
X17233500Y-7845700D01*
X17354300Y-8903500D02*
X17125700Y-8903500D01*
X17125700Y-8903500D02*
X17125700Y-8776500D01*
X17125700Y-8776500D02*
X17354300Y-8776500D01*
X17354300Y-8776500D02*
X17354300Y-8903500D01*
X17354300Y-8273500D02*
X17125700Y-8273500D01*
X17125700Y-8273500D02*
X17125700Y-8146500D01*
X17125700Y-8146500D02*
X17354300Y-8146500D01*
X17354300Y-8146500D02*
X17354300Y-8273500D01*
X17466500Y-8644300D02*
X17466500Y-8415700D01*
X17466500Y-8415700D02*
X17593500Y-8415700D01*
X17593500Y-8415700D02*
X17593500Y-8644300D01*
X17593500Y-8644300D02*
X17466500Y-8644300D01*
X17666500Y-8644300D02*
X17666500Y-8415700D01*
X17666500Y-8415700D02*
X17793500Y-8415700D01*
X17793500Y-8415700D02*
X17793500Y-8644300D01*
X17793500Y-8644300D02*
X17666500Y-8644300D01*
X17735700Y-9846500D02*
X17964300Y-9846500D01*
X17964300Y-9846500D02*
X17964300Y-9973500D01*
X17964300Y-9973500D02*
X17735700Y-9973500D01*
X17735700Y-9973500D02*
X17735700Y-9846500D01*
D12*
X16550000Y-10110000D02*
X16550000Y-9520000D01*
X17290000Y-10110000D02*
X16500000Y-10110000D01*
X17290000Y-9510000D02*
X17290000Y-10110000D01*
X16500000Y-9510000D02*
X17290000Y-9510000D01*
X16500000Y-10110000D02*
X16500000Y-9510000D01*
X15810000Y-7210000D02*
X17220000Y-7210000D01*
X15810000Y-7620000D02*
X15810000Y-7170000D01*
X17220000Y-7620000D02*
X15810000Y-7620000D01*
X17220000Y-7170000D02*
X17220000Y-7620000D01*
X15810000Y-7170000D02*
X17220000Y-7170000D01*
D14*
X16873500Y-6855700D02*
X16873500Y-7084300D01*
X16873500Y-7084300D02*
X16746500Y-7084300D01*
X16746500Y-7084300D02*
X16746500Y-6855700D01*
X16746500Y-6855700D02*
X16873500Y-6855700D01*
X16044300Y-8523500D02*
X15815700Y-8523500D01*
X15815700Y-8523500D02*
X15815700Y-8396500D01*
X15815700Y-8396500D02*
X16044300Y-8396500D01*
X16044300Y-8396500D02*
X16044300Y-8523500D01*
X16044300Y-8703500D02*
X15815700Y-8703500D01*
X15815700Y-8703500D02*
X15815700Y-8576500D01*
X15815700Y-8576500D02*
X16044300Y-8576500D01*
X16044300Y-8576500D02*
X16044300Y-8703500D01*
X17073500Y-6855700D02*
X17073500Y-7084300D01*
X17073500Y-7084300D02*
X16946500Y-7084300D01*
X16946500Y-7084300D02*
X16946500Y-6855700D01*
X16946500Y-6855700D02*
X17073500Y-6855700D01*
X16984300Y-8723500D02*
X16755700Y-8723500D01*
X16755700Y-8723500D02*
X16755700Y-8596500D01*
X16755700Y-8596500D02*
X16984300Y-8596500D01*
X16984300Y-8596500D02*
X16984300Y-8723500D01*
X17354300Y-8503500D02*
X17125700Y-8503500D01*
X17125700Y-8503500D02*
X17125700Y-8376500D01*
X17125700Y-8376500D02*
X17354300Y-8376500D01*
X17354300Y-8376500D02*
X17354300Y-8503500D01*
X17354300Y-8673500D02*
X17125700Y-8673500D01*
X17125700Y-8673500D02*
X17125700Y-8546500D01*
X17125700Y-8546500D02*
X17354300Y-8546500D01*
X17354300Y-8546500D02*
X17354300Y-8673500D01*
X16984300Y-8893500D02*
X16755700Y-8893500D01*
X16755700Y-8893500D02*
X16755700Y-8766500D01*
X16755700Y-8766500D02*
X16984300Y-8766500D01*
X16984300Y-8766500D02*
X16984300Y-8893500D01*
X17866500Y-8644300D02*
X17866500Y-8415700D01*
X17866500Y-8415700D02*
X17993500Y-8415700D01*
X17993500Y-8415700D02*
X17993500Y-8644300D01*
X17993500Y-8644300D02*
X17866500Y-8644300D01*
X16120600Y-8270600D02*
X16679400Y-8270600D01*
X16679400Y-8270600D02*
X16679400Y-8283300D01*
X16628600Y-8829400D02*
X16120600Y-8829400D01*
X16120600Y-8829400D02*
X16120600Y-8270600D01*
X16679400Y-8283300D02*
X16679400Y-8778600D01*
X16679400Y-8778600D02*
X16628600Y-8829400D01*
D16*
X16650444Y-8775298D02*
G75*
G03X16650444Y-8775298I-25146J0D01*
G74*
G01*
D11*
X16230000Y-8920000D02*
G75*
G03X16230000Y-8920000I-20000J0D01*
G74*
G01*
X16420000Y-9170000D02*
X16420000Y-8930000D01*
X16220000Y-9170000D02*
X16420000Y-9170000D01*
X16220000Y-8930000D02*
X16220000Y-9170000D01*
X16420000Y-8930000D02*
X16220000Y-8930000D01*
D17*
X19191878Y-8228986D02*
X19227946Y-8376052D01*
X19227946Y-8376052D02*
X19255886Y-8269880D01*
X19255886Y-8269880D02*
X19286874Y-8377068D01*
X19286874Y-8377068D02*
X19320910Y-8232034D01*
X19049892Y-8298074D02*
X19128886Y-8297058D01*
X19128886Y-8297058D02*
X19129902Y-8298074D01*
X19129902Y-8298074D02*
X19129902Y-8297058D01*
X19133966Y-8225938D02*
X19133966Y-8380116D01*
X19045066Y-8224922D02*
X19045066Y-8381894D01*
X19045066Y-8381894D02*
X19046082Y-8380878D01*
X18939002Y-8224922D02*
X18914110Y-8226954D01*
X18914110Y-8226954D02*
X18889980Y-8251084D01*
X18889980Y-8251084D02*
X18881090Y-8300106D01*
X18881090Y-8300106D02*
X18883884Y-8334904D01*
X18883884Y-8334904D02*
X18903950Y-8366908D01*
X18903950Y-8366908D02*
X18929096Y-8379100D01*
X18929096Y-8379100D02*
X18960084Y-8371988D01*
X18960084Y-8371988D02*
X18981928Y-8353954D01*
X18981928Y-8353954D02*
X18989040Y-8307980D01*
X18989040Y-8307980D02*
X18983960Y-8267086D01*
X18983960Y-8267086D02*
X18973038Y-8238892D01*
X18973038Y-8238892D02*
X18936970Y-8225938D01*
X18921946Y-8052964D02*
X18896038Y-8109098D01*
X18896038Y-8109098D02*
X18949886Y-8160914D01*
X18949886Y-8160914D02*
X19001956Y-8133990D01*
X19001956Y-8133990D02*
X19029896Y-8149992D01*
X19173914Y-8147960D02*
X19206934Y-8128910D01*
X19206934Y-8128910D02*
X19250876Y-8161930D01*
X19250876Y-8161930D02*
X19298120Y-8112908D01*
X19298120Y-8112908D02*
X19269926Y-8064902D01*
X19269926Y-8064902D02*
X19288976Y-8017912D01*
X19288976Y-8017912D02*
X19349936Y-7999116D01*
X19349936Y-7999116D02*
X19349936Y-7931044D01*
X19349936Y-7931044D02*
X19294056Y-7917074D01*
X19294056Y-7917074D02*
X19273990Y-7859924D01*
X19273990Y-7859924D02*
X19300914Y-7812934D01*
X19300914Y-7812934D02*
X19253924Y-7761880D01*
X19253924Y-7761880D02*
X19202108Y-7788042D01*
X19202108Y-7788042D02*
X19155118Y-7767976D01*
X19155118Y-7767976D02*
X19138100Y-7713874D01*
X19138100Y-7713874D02*
X19069012Y-7712096D01*
X19069012Y-7712096D02*
X19047930Y-7766960D01*
X19047930Y-7766960D02*
X19006020Y-7783978D01*
X19006020Y-7783978D02*
X18950902Y-7757054D01*
X18950902Y-7757054D02*
X18899086Y-7809886D01*
X18899086Y-7809886D02*
X18923978Y-7863988D01*
X18923978Y-7863988D02*
X18906960Y-7911994D01*
X18906960Y-7911994D02*
X18852096Y-7921900D01*
X18852096Y-7921900D02*
X18851080Y-7992004D01*
X18851080Y-7992004D02*
X18906960Y-8012070D01*
X18906960Y-8012070D02*
X18920930Y-8051948D01*
X19135052Y-8049916D02*
X19165024Y-8034930D01*
X19165024Y-8034930D02*
X19185090Y-8015118D01*
X19185090Y-8015118D02*
X19200076Y-7974986D01*
X19200076Y-7974986D02*
X19200076Y-7935108D01*
X19200076Y-7935108D02*
X19185090Y-7900056D01*
X19185090Y-7900056D02*
X19139878Y-7865004D01*
X19139878Y-7865004D02*
X19094920Y-7859924D01*
X19094920Y-7859924D02*
X19055042Y-7870084D01*
X19055042Y-7870084D02*
X19014910Y-7904882D01*
X19014910Y-7904882D02*
X18999924Y-7950094D01*
X18999924Y-7950094D02*
X19005004Y-7999878D01*
X19005004Y-7999878D02*
X19029896Y-8030104D01*
X19029896Y-8030104D02*
X19064948Y-8049916D01*
X19064948Y-8049916D02*
X19029896Y-8149992D01*
X19135052Y-8049916D02*
X19174930Y-8149992D01*
D11*
X15950000Y-9151429D02*
X15947143Y-9154286D01*
X15938571Y-9157143D01*
X15932857Y-9157143D01*
X15924286Y-9154286D01*
X15918571Y-9148571D01*
X15915714Y-9142857D01*
X15912857Y-9131429D01*
X15912857Y-9122857D01*
X15915714Y-9111429D01*
X15918571Y-9105714D01*
X15924286Y-9100000D01*
X15932857Y-9097143D01*
X15938571Y-9097143D01*
X15947143Y-9100000D01*
X15950000Y-9102857D01*
X16007143Y-9157143D02*
X15972857Y-9157143D01*
X15990000Y-9157143D02*
X15990000Y-9097143D01*
X15984286Y-9105714D01*
X15978571Y-9111429D01*
X15972857Y-9114286D01*
X16220000Y-9441429D02*
X16217143Y-9444286D01*
X16208571Y-9447143D01*
X16202857Y-9447143D01*
X16194286Y-9444286D01*
X16188571Y-9438571D01*
X16185714Y-9432857D01*
X16182857Y-9421429D01*
X16182857Y-9412857D01*
X16185714Y-9401429D01*
X16188571Y-9395714D01*
X16194286Y-9390000D01*
X16202857Y-9387143D01*
X16208571Y-9387143D01*
X16217143Y-9390000D01*
X16220000Y-9392857D01*
X16242857Y-9392857D02*
X16245714Y-9390000D01*
X16251429Y-9387143D01*
X16265714Y-9387143D01*
X16271429Y-9390000D01*
X16274286Y-9392857D01*
X16277143Y-9398571D01*
X16277143Y-9404286D01*
X16274286Y-9412857D01*
X16240000Y-9447143D01*
X16277143Y-9447143D01*
X17910000Y-10371429D02*
X17907143Y-10374286D01*
X17898572Y-10377143D01*
X17892857Y-10377143D01*
X17884286Y-10374286D01*
X17878572Y-10368571D01*
X17875714Y-10362857D01*
X17872857Y-10351429D01*
X17872857Y-10342857D01*
X17875714Y-10331429D01*
X17878572Y-10325714D01*
X17884286Y-10320000D01*
X17892857Y-10317143D01*
X17898572Y-10317143D01*
X17907143Y-10320000D01*
X17910000Y-10322857D01*
X17930000Y-10317143D02*
X17967143Y-10317143D01*
X17947143Y-10340000D01*
X17955714Y-10340000D01*
X17961429Y-10342857D01*
X17964286Y-10345714D01*
X17967143Y-10351429D01*
X17967143Y-10365714D01*
X17964286Y-10371429D01*
X17961429Y-10374286D01*
X17955714Y-10377143D01*
X17938572Y-10377143D01*
X17932857Y-10374286D01*
X17930000Y-10371429D01*
X17730000Y-9441429D02*
X17727143Y-9444286D01*
X17718572Y-9447143D01*
X17712857Y-9447143D01*
X17704286Y-9444286D01*
X17698572Y-9438571D01*
X17695714Y-9432857D01*
X17692857Y-9421429D01*
X17692857Y-9412857D01*
X17695714Y-9401429D01*
X17698572Y-9395714D01*
X17704286Y-9390000D01*
X17712857Y-9387143D01*
X17718572Y-9387143D01*
X17727143Y-9390000D01*
X17730000Y-9392857D01*
X17781429Y-9407143D02*
X17781429Y-9447143D01*
X17767143Y-9384286D02*
X17752857Y-9427143D01*
X17790000Y-9427143D01*
X16540000Y-8046429D02*
X16537143Y-8049286D01*
X16528571Y-8052143D01*
X16522857Y-8052143D01*
X16514286Y-8049286D01*
X16508571Y-8043571D01*
X16505714Y-8037857D01*
X16502857Y-8026429D01*
X16502857Y-8017857D01*
X16505714Y-8006429D01*
X16508571Y-8000714D01*
X16514286Y-7995000D01*
X16522857Y-7992143D01*
X16528571Y-7992143D01*
X16537143Y-7995000D01*
X16540000Y-7997857D01*
X16594286Y-7992143D02*
X16565714Y-7992143D01*
X16562857Y-8020714D01*
X16565714Y-8017857D01*
X16571429Y-8015000D01*
X16585714Y-8015000D01*
X16591429Y-8017857D01*
X16594286Y-8020714D01*
X16597143Y-8026429D01*
X16597143Y-8040714D01*
X16594286Y-8046429D01*
X16591429Y-8049286D01*
X16585714Y-8052143D01*
X16571429Y-8052143D01*
X16565714Y-8049286D01*
X16562857Y-8046429D01*
X16760000Y-9121429D02*
X16757143Y-9124286D01*
X16748571Y-9127143D01*
X16742857Y-9127143D01*
X16734286Y-9124286D01*
X16728571Y-9118571D01*
X16725714Y-9112857D01*
X16722857Y-9101429D01*
X16722857Y-9092857D01*
X16725714Y-9081429D01*
X16728571Y-9075714D01*
X16734286Y-9070000D01*
X16742857Y-9067143D01*
X16748571Y-9067143D01*
X16757143Y-9070000D01*
X16760000Y-9072857D01*
X16811429Y-9067143D02*
X16800000Y-9067143D01*
X16794286Y-9070000D01*
X16791429Y-9072857D01*
X16785714Y-9081429D01*
X16782857Y-9092857D01*
X16782857Y-9115714D01*
X16785714Y-9121429D01*
X16788572Y-9124286D01*
X16794286Y-9127143D01*
X16805714Y-9127143D01*
X16811429Y-9124286D01*
X16814286Y-9121429D01*
X16817143Y-9115714D01*
X16817143Y-9101429D01*
X16814286Y-9095714D01*
X16811429Y-9092857D01*
X16805714Y-9090000D01*
X16794286Y-9090000D01*
X16788572Y-9092857D01*
X16785714Y-9095714D01*
X16782857Y-9101429D01*
X16865000Y-8246429D02*
X16862143Y-8249286D01*
X16853572Y-8252143D01*
X16847857Y-8252143D01*
X16839286Y-8249286D01*
X16833572Y-8243571D01*
X16830714Y-8237857D01*
X16827857Y-8226429D01*
X16827857Y-8217857D01*
X16830714Y-8206429D01*
X16833572Y-8200714D01*
X16839286Y-8195000D01*
X16847857Y-8192143D01*
X16853572Y-8192143D01*
X16862143Y-8195000D01*
X16865000Y-8197857D01*
X16885000Y-8192143D02*
X16925000Y-8192143D01*
X16899286Y-8252143D01*
X17520000Y-10371429D02*
X17517143Y-10374286D01*
X17508572Y-10377143D01*
X17502857Y-10377143D01*
X17494286Y-10374286D01*
X17488572Y-10368571D01*
X17485714Y-10362857D01*
X17482857Y-10351429D01*
X17482857Y-10342857D01*
X17485714Y-10331429D01*
X17488572Y-10325714D01*
X17494286Y-10320000D01*
X17502857Y-10317143D01*
X17508572Y-10317143D01*
X17517143Y-10320000D01*
X17520000Y-10322857D01*
X17554286Y-10342857D02*
X17548572Y-10340000D01*
X17545714Y-10337143D01*
X17542857Y-10331429D01*
X17542857Y-10328571D01*
X17545714Y-10322857D01*
X17548572Y-10320000D01*
X17554286Y-10317143D01*
X17565714Y-10317143D01*
X17571429Y-10320000D01*
X17574286Y-10322857D01*
X17577143Y-10328571D01*
X17577143Y-10331429D01*
X17574286Y-10337143D01*
X17571429Y-10340000D01*
X17565714Y-10342857D01*
X17554286Y-10342857D01*
X17548572Y-10345714D01*
X17545714Y-10348571D01*
X17542857Y-10354286D01*
X17542857Y-10365714D01*
X17545714Y-10371429D01*
X17548572Y-10374286D01*
X17554286Y-10377143D01*
X17565714Y-10377143D01*
X17571429Y-10374286D01*
X17574286Y-10371429D01*
X17577143Y-10365714D01*
X17577143Y-10354286D01*
X17574286Y-10348571D01*
X17571429Y-10345714D01*
X17565714Y-10342857D01*
X17920000Y-9411429D02*
X17917143Y-9414286D01*
X17908572Y-9417143D01*
X17902857Y-9417143D01*
X17894286Y-9414286D01*
X17888572Y-9408571D01*
X17885714Y-9402857D01*
X17882857Y-9391429D01*
X17882857Y-9382857D01*
X17885714Y-9371429D01*
X17888572Y-9365714D01*
X17894286Y-9360000D01*
X17902857Y-9357143D01*
X17908572Y-9357143D01*
X17917143Y-9360000D01*
X17920000Y-9362857D01*
X17948572Y-9417143D02*
X17960000Y-9417143D01*
X17965714Y-9414286D01*
X17968572Y-9411429D01*
X17974286Y-9402857D01*
X17977143Y-9391429D01*
X17977143Y-9368571D01*
X17974286Y-9362857D01*
X17971429Y-9360000D01*
X17965714Y-9357143D01*
X17954286Y-9357143D01*
X17948572Y-9360000D01*
X17945714Y-9362857D01*
X17942857Y-9368571D01*
X17942857Y-9382857D01*
X17945714Y-9388571D01*
X17948572Y-9391429D01*
X17954286Y-9394286D01*
X17965714Y-9394286D01*
X17971429Y-9391429D01*
X17974286Y-9388571D01*
X17977143Y-9382857D01*
X17301429Y-9121429D02*
X17298571Y-9124286D01*
X17290000Y-9127143D01*
X17284286Y-9127143D01*
X17275714Y-9124286D01*
X17270000Y-9118571D01*
X17267143Y-9112857D01*
X17264286Y-9101429D01*
X17264286Y-9092857D01*
X17267143Y-9081429D01*
X17270000Y-9075714D01*
X17275714Y-9070000D01*
X17284286Y-9067143D01*
X17290000Y-9067143D01*
X17298571Y-9070000D01*
X17301429Y-9072857D01*
X17358571Y-9127143D02*
X17324286Y-9127143D01*
X17341429Y-9127143D02*
X17341429Y-9067143D01*
X17335714Y-9075714D01*
X17330000Y-9081429D01*
X17324286Y-9084286D01*
X17395714Y-9067143D02*
X17401429Y-9067143D01*
X17407143Y-9070000D01*
X17410000Y-9072857D01*
X17412857Y-9078571D01*
X17415714Y-9090000D01*
X17415714Y-9104286D01*
X17412857Y-9115714D01*
X17410000Y-9121429D01*
X17407143Y-9124286D01*
X17401429Y-9127143D01*
X17395714Y-9127143D01*
X17390000Y-9124286D01*
X17387143Y-9121429D01*
X17384286Y-9115714D01*
X17381429Y-9104286D01*
X17381429Y-9090000D01*
X17384286Y-9078571D01*
X17387143Y-9072857D01*
X17390000Y-9070000D01*
X17395714Y-9067143D01*
X17311429Y-7991429D02*
X17308571Y-7994286D01*
X17300000Y-7997143D01*
X17294286Y-7997143D01*
X17285714Y-7994286D01*
X17280000Y-7988571D01*
X17277143Y-7982857D01*
X17274286Y-7971429D01*
X17274286Y-7962857D01*
X17277143Y-7951429D01*
X17280000Y-7945714D01*
X17285714Y-7940000D01*
X17294286Y-7937143D01*
X17300000Y-7937143D01*
X17308571Y-7940000D01*
X17311429Y-7942857D01*
X17368571Y-7997143D02*
X17334286Y-7997143D01*
X17351429Y-7997143D02*
X17351429Y-7937143D01*
X17345714Y-7945714D01*
X17340000Y-7951429D01*
X17334286Y-7954286D01*
X17425714Y-7997143D02*
X17391429Y-7997143D01*
X17408571Y-7997143D02*
X17408571Y-7937143D01*
X17402857Y-7945714D01*
X17397143Y-7951429D01*
X17391429Y-7954286D01*
X17431429Y-8871429D02*
X17428571Y-8874286D01*
X17420000Y-8877143D01*
X17414286Y-8877143D01*
X17405714Y-8874286D01*
X17400000Y-8868571D01*
X17397143Y-8862857D01*
X17394286Y-8851429D01*
X17394286Y-8842857D01*
X17397143Y-8831429D01*
X17400000Y-8825714D01*
X17405714Y-8820000D01*
X17414286Y-8817143D01*
X17420000Y-8817143D01*
X17428571Y-8820000D01*
X17431429Y-8822857D01*
X17488571Y-8877143D02*
X17454286Y-8877143D01*
X17471429Y-8877143D02*
X17471429Y-8817143D01*
X17465714Y-8825714D01*
X17460000Y-8831429D01*
X17454286Y-8834286D01*
X17511429Y-8822857D02*
X17514286Y-8820000D01*
X17520000Y-8817143D01*
X17534286Y-8817143D01*
X17540000Y-8820000D01*
X17542857Y-8822857D01*
X17545714Y-8828571D01*
X17545714Y-8834286D01*
X17542857Y-8842857D01*
X17508571Y-8877143D01*
X17545714Y-8877143D01*
X17421429Y-8231429D02*
X17418571Y-8234286D01*
X17410000Y-8237143D01*
X17404286Y-8237143D01*
X17395714Y-8234286D01*
X17390000Y-8228571D01*
X17387143Y-8222857D01*
X17384286Y-8211429D01*
X17384286Y-8202857D01*
X17387143Y-8191429D01*
X17390000Y-8185714D01*
X17395714Y-8180000D01*
X17404286Y-8177143D01*
X17410000Y-8177143D01*
X17418571Y-8180000D01*
X17421429Y-8182857D01*
X17478571Y-8237143D02*
X17444286Y-8237143D01*
X17461429Y-8237143D02*
X17461429Y-8177143D01*
X17455714Y-8185714D01*
X17450000Y-8191429D01*
X17444286Y-8194286D01*
X17498571Y-8177143D02*
X17535714Y-8177143D01*
X17515714Y-8200000D01*
X17524286Y-8200000D01*
X17530000Y-8202857D01*
X17532857Y-8205714D01*
X17535714Y-8211429D01*
X17535714Y-8225714D01*
X17532857Y-8231429D01*
X17530000Y-8234286D01*
X17524286Y-8237143D01*
X17507143Y-8237143D01*
X17501429Y-8234286D01*
X17498571Y-8231429D01*
X17491429Y-8376429D02*
X17488571Y-8379286D01*
X17480000Y-8382143D01*
X17474286Y-8382143D01*
X17465714Y-8379286D01*
X17460000Y-8373571D01*
X17457143Y-8367857D01*
X17454286Y-8356429D01*
X17454286Y-8347857D01*
X17457143Y-8336429D01*
X17460000Y-8330714D01*
X17465714Y-8325000D01*
X17474286Y-8322143D01*
X17480000Y-8322143D01*
X17488571Y-8325000D01*
X17491429Y-8327857D01*
X17548571Y-8382143D02*
X17514286Y-8382143D01*
X17531429Y-8382143D02*
X17531429Y-8322143D01*
X17525714Y-8330714D01*
X17520000Y-8336429D01*
X17514286Y-8339286D01*
X17600000Y-8342143D02*
X17600000Y-8382143D01*
X17585714Y-8319286D02*
X17571429Y-8362143D01*
X17608571Y-8362143D01*
X17691429Y-8376429D02*
X17688571Y-8379286D01*
X17680000Y-8382143D01*
X17674286Y-8382143D01*
X17665714Y-8379286D01*
X17660000Y-8373571D01*
X17657143Y-8367857D01*
X17654286Y-8356429D01*
X17654286Y-8347857D01*
X17657143Y-8336429D01*
X17660000Y-8330714D01*
X17665714Y-8325000D01*
X17674286Y-8322143D01*
X17680000Y-8322143D01*
X17688571Y-8325000D01*
X17691429Y-8327857D01*
X17748571Y-8382143D02*
X17714286Y-8382143D01*
X17731429Y-8382143D02*
X17731429Y-8322143D01*
X17725714Y-8330714D01*
X17720000Y-8336429D01*
X17714286Y-8339286D01*
X17802857Y-8322143D02*
X17774286Y-8322143D01*
X17771429Y-8350714D01*
X17774286Y-8347857D01*
X17780000Y-8345000D01*
X17794286Y-8345000D01*
X17800000Y-8347857D01*
X17802857Y-8350714D01*
X17805714Y-8356429D01*
X17805714Y-8370714D01*
X17802857Y-8376429D01*
X17800000Y-8379286D01*
X17794286Y-8382143D01*
X17780000Y-8382143D01*
X17774286Y-8379286D01*
X17771429Y-8376429D01*
X17650000Y-9947143D02*
X17621429Y-9947143D01*
X17621429Y-9887143D01*
X17701429Y-9947143D02*
X17667143Y-9947143D01*
X17684286Y-9947143D02*
X17684286Y-9887143D01*
X17678571Y-9895714D01*
X17672857Y-9901429D01*
X17667143Y-9904286D01*
X17076191Y-10265238D02*
X17076191Y-10165238D01*
X17114286Y-10165238D01*
X17123810Y-10170000D01*
X17128572Y-10174762D01*
X17133333Y-10184286D01*
X17133333Y-10198571D01*
X17128572Y-10208095D01*
X17123810Y-10212857D01*
X17114286Y-10217619D01*
X17076191Y-10217619D01*
X17228572Y-10265238D02*
X17171429Y-10265238D01*
X17200000Y-10265238D02*
X17200000Y-10165238D01*
X17190476Y-10179524D01*
X17180952Y-10189048D01*
X17171429Y-10193810D01*
X16884762Y-9938571D02*
X16880000Y-9933810D01*
X16875238Y-9924286D01*
X16875238Y-9900476D01*
X16880000Y-9890952D01*
X16884762Y-9886190D01*
X16894286Y-9881429D01*
X16903810Y-9881429D01*
X16918095Y-9886190D01*
X16975238Y-9943333D01*
X16975238Y-9881429D01*
X16975238Y-9681429D02*
X16975238Y-9738571D01*
X16975238Y-9710000D02*
X16875238Y-9710000D01*
X16889524Y-9719524D01*
X16899048Y-9729048D01*
X16903810Y-9738571D01*
X15826190Y-7115238D02*
X15826190Y-7015238D01*
X15864286Y-7015238D01*
X15873810Y-7020000D01*
X15878571Y-7024762D01*
X15883333Y-7034286D01*
X15883333Y-7048571D01*
X15878571Y-7058095D01*
X15873810Y-7062857D01*
X15864286Y-7067619D01*
X15826190Y-7067619D01*
X15921429Y-7024762D02*
X15926190Y-7020000D01*
X15935714Y-7015238D01*
X15959524Y-7015238D01*
X15969048Y-7020000D01*
X15973810Y-7024762D01*
X15978571Y-7034286D01*
X15978571Y-7043809D01*
X15973810Y-7058095D01*
X15916667Y-7115238D01*
X15978571Y-7115238D01*
X17029048Y-7465238D02*
X17010000Y-7465238D01*
X17000476Y-7470000D01*
X16995714Y-7474762D01*
X16986191Y-7489048D01*
X16981429Y-7508095D01*
X16981429Y-7546190D01*
X16986191Y-7555714D01*
X16990952Y-7560476D01*
X17000476Y-7565238D01*
X17019524Y-7565238D01*
X17029048Y-7560476D01*
X17033810Y-7555714D01*
X17038572Y-7546190D01*
X17038572Y-7522381D01*
X17033810Y-7512857D01*
X17029048Y-7508095D01*
X17019524Y-7503333D01*
X17000476Y-7503333D01*
X16990952Y-7508095D01*
X16986191Y-7512857D01*
X16981429Y-7522381D01*
X16833810Y-7465238D02*
X16786191Y-7465238D01*
X16781429Y-7512857D01*
X16786191Y-7508095D01*
X16795714Y-7503333D01*
X16819524Y-7503333D01*
X16829048Y-7508095D01*
X16833810Y-7512857D01*
X16838572Y-7522381D01*
X16838572Y-7546190D01*
X16833810Y-7555714D01*
X16829048Y-7560476D01*
X16819524Y-7565238D01*
X16795714Y-7565238D01*
X16786191Y-7560476D01*
X16781429Y-7555714D01*
X16619048Y-7498571D02*
X16619048Y-7565238D01*
X16595238Y-7460476D02*
X16571429Y-7531905D01*
X16633333Y-7531905D01*
X16376667Y-7465238D02*
X16438571Y-7465238D01*
X16405238Y-7503333D01*
X16419524Y-7503333D01*
X16429048Y-7508095D01*
X16433810Y-7512857D01*
X16438571Y-7522381D01*
X16438571Y-7546190D01*
X16433810Y-7555714D01*
X16429048Y-7560476D01*
X16419524Y-7565238D01*
X16390952Y-7565238D01*
X16381429Y-7560476D01*
X16376667Y-7555714D01*
X16181429Y-7474762D02*
X16186190Y-7470000D01*
X16195714Y-7465238D01*
X16219524Y-7465238D01*
X16229048Y-7470000D01*
X16233810Y-7474762D01*
X16238571Y-7484286D01*
X16238571Y-7493809D01*
X16233810Y-7508095D01*
X16176667Y-7565238D01*
X16238571Y-7565238D01*
X16038571Y-7565238D02*
X15981429Y-7565238D01*
X16010000Y-7565238D02*
X16010000Y-7465238D01*
X16000476Y-7479524D01*
X15990952Y-7489048D01*
X15981429Y-7493809D01*
X16800000Y-6827143D02*
X16780000Y-6798571D01*
X16765714Y-6827143D02*
X16765714Y-6767143D01*
X16788572Y-6767143D01*
X16794286Y-6770000D01*
X16797143Y-6772857D01*
X16800000Y-6778571D01*
X16800000Y-6787143D01*
X16797143Y-6792857D01*
X16794286Y-6795714D01*
X16788572Y-6798571D01*
X16765714Y-6798571D01*
X16857143Y-6827143D02*
X16822857Y-6827143D01*
X16840000Y-6827143D02*
X16840000Y-6767143D01*
X16834286Y-6775714D01*
X16828572Y-6781429D01*
X16822857Y-6784286D01*
X15915000Y-8377143D02*
X15895000Y-8348571D01*
X15880714Y-8377143D02*
X15880714Y-8317143D01*
X15903571Y-8317143D01*
X15909286Y-8320000D01*
X15912143Y-8322857D01*
X15915000Y-8328571D01*
X15915000Y-8337143D01*
X15912143Y-8342857D01*
X15909286Y-8345714D01*
X15903571Y-8348571D01*
X15880714Y-8348571D01*
X15937857Y-8322857D02*
X15940714Y-8320000D01*
X15946429Y-8317143D01*
X15960714Y-8317143D01*
X15966429Y-8320000D01*
X15969286Y-8322857D01*
X15972143Y-8328571D01*
X15972143Y-8334286D01*
X15969286Y-8342857D01*
X15935000Y-8377143D01*
X15972143Y-8377143D01*
X15920000Y-8787143D02*
X15900000Y-8758571D01*
X15885714Y-8787143D02*
X15885714Y-8727143D01*
X15908571Y-8727143D01*
X15914286Y-8730000D01*
X15917143Y-8732857D01*
X15920000Y-8738571D01*
X15920000Y-8747143D01*
X15917143Y-8752857D01*
X15914286Y-8755714D01*
X15908571Y-8758571D01*
X15885714Y-8758571D01*
X15940000Y-8727143D02*
X15977143Y-8727143D01*
X15957143Y-8750000D01*
X15965714Y-8750000D01*
X15971429Y-8752857D01*
X15974286Y-8755714D01*
X15977143Y-8761429D01*
X15977143Y-8775714D01*
X15974286Y-8781429D01*
X15971429Y-8784286D01*
X15965714Y-8787143D01*
X15948571Y-8787143D01*
X15942857Y-8784286D01*
X15940000Y-8781429D01*
X17000000Y-6827143D02*
X16980000Y-6798571D01*
X16965714Y-6827143D02*
X16965714Y-6767143D01*
X16988572Y-6767143D01*
X16994286Y-6770000D01*
X16997143Y-6772857D01*
X17000000Y-6778571D01*
X17000000Y-6787143D01*
X16997143Y-6792857D01*
X16994286Y-6795714D01*
X16988572Y-6798571D01*
X16965714Y-6798571D01*
X17051429Y-6787143D02*
X17051429Y-6827143D01*
X17037143Y-6764286D02*
X17022857Y-6807143D01*
X17060000Y-6807143D01*
X16855000Y-8577143D02*
X16835000Y-8548571D01*
X16820714Y-8577143D02*
X16820714Y-8517143D01*
X16843572Y-8517143D01*
X16849286Y-8520000D01*
X16852143Y-8522857D01*
X16855000Y-8528571D01*
X16855000Y-8537143D01*
X16852143Y-8542857D01*
X16849286Y-8545714D01*
X16843572Y-8548571D01*
X16820714Y-8548571D01*
X16909286Y-8517143D02*
X16880714Y-8517143D01*
X16877857Y-8545714D01*
X16880714Y-8542857D01*
X16886429Y-8540000D01*
X16900714Y-8540000D01*
X16906429Y-8542857D01*
X16909286Y-8545714D01*
X16912143Y-8551429D01*
X16912143Y-8565714D01*
X16909286Y-8571429D01*
X16906429Y-8574286D01*
X16900714Y-8577143D01*
X16886429Y-8577143D01*
X16880714Y-8574286D01*
X16877857Y-8571429D01*
X17230000Y-8357143D02*
X17210000Y-8328571D01*
X17195714Y-8357143D02*
X17195714Y-8297143D01*
X17218572Y-8297143D01*
X17224286Y-8300000D01*
X17227143Y-8302857D01*
X17230000Y-8308571D01*
X17230000Y-8317143D01*
X17227143Y-8322857D01*
X17224286Y-8325714D01*
X17218572Y-8328571D01*
X17195714Y-8328571D01*
X17281429Y-8297143D02*
X17270000Y-8297143D01*
X17264286Y-8300000D01*
X17261429Y-8302857D01*
X17255714Y-8311429D01*
X17252857Y-8322857D01*
X17252857Y-8345714D01*
X17255714Y-8351429D01*
X17258572Y-8354286D01*
X17264286Y-8357143D01*
X17275714Y-8357143D01*
X17281429Y-8354286D01*
X17284286Y-8351429D01*
X17287143Y-8345714D01*
X17287143Y-8331429D01*
X17284286Y-8325714D01*
X17281429Y-8322857D01*
X17275714Y-8320000D01*
X17264286Y-8320000D01*
X17258572Y-8322857D01*
X17255714Y-8325714D01*
X17252857Y-8331429D01*
X17220000Y-8757143D02*
X17200000Y-8728571D01*
X17185714Y-8757143D02*
X17185714Y-8697143D01*
X17208572Y-8697143D01*
X17214286Y-8700000D01*
X17217143Y-8702857D01*
X17220000Y-8708571D01*
X17220000Y-8717143D01*
X17217143Y-8722857D01*
X17214286Y-8725714D01*
X17208572Y-8728571D01*
X17185714Y-8728571D01*
X17240000Y-8697143D02*
X17280000Y-8697143D01*
X17254286Y-8757143D01*
X16860000Y-8977143D02*
X16840000Y-8948571D01*
X16825714Y-8977143D02*
X16825714Y-8917143D01*
X16848572Y-8917143D01*
X16854286Y-8920000D01*
X16857143Y-8922857D01*
X16860000Y-8928571D01*
X16860000Y-8937143D01*
X16857143Y-8942857D01*
X16854286Y-8945714D01*
X16848572Y-8948571D01*
X16825714Y-8948571D01*
X16894286Y-8942857D02*
X16888572Y-8940000D01*
X16885714Y-8937143D01*
X16882857Y-8931429D01*
X16882857Y-8928571D01*
X16885714Y-8922857D01*
X16888572Y-8920000D01*
X16894286Y-8917143D01*
X16905714Y-8917143D01*
X16911429Y-8920000D01*
X16914286Y-8922857D01*
X16917143Y-8928571D01*
X16917143Y-8931429D01*
X16914286Y-8937143D01*
X16911429Y-8940000D01*
X16905714Y-8942857D01*
X16894286Y-8942857D01*
X16888572Y-8945714D01*
X16885714Y-8948571D01*
X16882857Y-8954286D01*
X16882857Y-8965714D01*
X16885714Y-8971429D01*
X16888572Y-8974286D01*
X16894286Y-8977143D01*
X16905714Y-8977143D01*
X16911429Y-8974286D01*
X16914286Y-8971429D01*
X16917143Y-8965714D01*
X16917143Y-8954286D01*
X16914286Y-8948571D01*
X16911429Y-8945714D01*
X16905714Y-8942857D01*
X17920000Y-8382143D02*
X17900000Y-8353571D01*
X17885714Y-8382143D02*
X17885714Y-8322143D01*
X17908572Y-8322143D01*
X17914286Y-8325000D01*
X17917143Y-8327857D01*
X17920000Y-8333571D01*
X17920000Y-8342143D01*
X17917143Y-8347857D01*
X17914286Y-8350714D01*
X17908572Y-8353571D01*
X17885714Y-8353571D01*
X17948572Y-8382143D02*
X17960000Y-8382143D01*
X17965714Y-8379286D01*
X17968572Y-8376429D01*
X17974286Y-8367857D01*
X17977143Y-8356429D01*
X17977143Y-8333571D01*
X17974286Y-8327857D01*
X17971429Y-8325000D01*
X17965714Y-8322143D01*
X17954286Y-8322143D01*
X17948572Y-8325000D01*
X17945714Y-8327857D01*
X17942857Y-8333571D01*
X17942857Y-8347857D01*
X17945714Y-8353571D01*
X17948572Y-8356429D01*
X17954286Y-8359286D01*
X17965714Y-8359286D01*
X17971429Y-8356429D01*
X17974286Y-8353571D01*
X17977143Y-8347857D01*
X16091943Y-8168271D02*
X16091943Y-8229957D01*
X16095571Y-8237214D01*
X16099200Y-8240843D01*
X16106457Y-8244471D01*
X16120971Y-8244471D01*
X16128229Y-8240843D01*
X16131857Y-8237214D01*
X16135486Y-8229957D01*
X16135486Y-8168271D01*
X16211686Y-8244471D02*
X16168143Y-8244471D01*
X16189914Y-8244471D02*
X16189914Y-8168271D01*
X16182657Y-8179157D01*
X16175400Y-8186414D01*
X16168143Y-8190043D01*
X16477143Y-8930000D02*
X16471429Y-8927143D01*
X16462857Y-8927143D01*
X16454286Y-8930000D01*
X16448571Y-8935714D01*
X16445714Y-8941429D01*
X16442857Y-8952857D01*
X16442857Y-8961429D01*
X16445714Y-8972857D01*
X16448571Y-8978571D01*
X16454286Y-8984286D01*
X16462857Y-8987143D01*
X16468571Y-8987143D01*
X16477143Y-8984286D01*
X16480000Y-8981429D01*
X16480000Y-8961429D01*
X16468571Y-8961429D01*
X16537143Y-8987143D02*
X16502857Y-8987143D01*
X16520000Y-8987143D02*
X16520000Y-8927143D01*
X16514286Y-8935714D01*
X16508571Y-8941429D01*
X16502857Y-8944286D01*
G36*
X21492500Y-9592500D02*
X18607500Y-9592500D01*
X18607500Y-9307500D01*
X21492500Y-9307500D01*
X21492500Y-9592500D01*
X21492500Y-9592500D01*
G37*
X21492500Y-9592500D02*
X18607500Y-9592500D01*
X18607500Y-9307500D01*
X21492500Y-9307500D01*
X21492500Y-9592500D01*
M02*
