M48
METRIC,TZ
T1C0.300
T2C0.700
T3C3.500
%
G90
G05
T1
X157500Y-71500
X157500Y-74000
X157500Y-76500
X157500Y-78500
X157500Y-80500
X157500Y-82500
X157500Y-84500
X157500Y-86500
X157500Y-88500
X157500Y-91000
X157500Y-93500
X157500Y-96000
X157500Y-98500
X157500Y-101000
X158538Y-80174
X159000Y-69500
X160000Y-101000
X160900Y-92900
X163000Y-69000
X163100Y-84600
X163100Y-86400
X164000Y-102000
X164500Y-61500
X164900Y-84600
X164900Y-86400
X165000Y-67000
X165500Y-64000
X165500Y-105500
X165500Y-108500
X166200Y-92000
X166400Y-80200
X167000Y-61500
X167900Y-81400
X168000Y-108500
X169500Y-61500
X170000Y-108500
X170200Y-86600
X170500Y-82100
X171700Y-92700
X172000Y-61500
X172000Y-108500
X173200Y-78800
X174000Y-108500
X174500Y-61500
X175900Y-82500
X176000Y-108500
X176100Y-95100
X176500Y-102500
X177000Y-61500
X178000Y-108500
X179400Y-76000
X179400Y-79300
X179400Y-82600
X179500Y-61500
X179500Y-63500
X179500Y-66000
X179500Y-68500
X179500Y-71000
X179500Y-73500
X179500Y-104000
X179500Y-106300
X179500Y-108500
X179600Y-87700
X179600Y-90300
X179600Y-93000
X181500Y-86200
X184000Y-86250
T2
X160100Y-73400
X162100Y-73400
X164100Y-73400
X166100Y-73400
X168100Y-73400
X170100Y-73400
X171300Y-97100
X171300Y-99100
T3
X161000Y-65000
X161000Y-105000
X226000Y-65000
X226000Y-105000
T0
M30
