%FSLAX46Y46*%
G04 Gerber Fmt 4.6, Leading zero omitted, Abs format (unit mm)*
G04 Created by KiCad (PCBNEW (2014-08-26 BZR 5101)-product) date Sat 30 Aug 2014 02:05:03 AM EDT*
%MOMM*%
G01*
G04 APERTURE LIST*
%ADD10C,0.100000*%
%ADD11C,0.187500*%
%ADD12C,1.150000*%
%ADD13C,1.600000*%
%ADD14C,2.200000*%
%ADD15C,1.300000*%
%ADD16C,0.900000*%
%ADD17C,1.143000*%
%ADD18C,1.998980*%
%ADD19C,6.000000*%
%ADD20C,0.600000*%
%ADD21C,0.450000*%
%ADD22C,0.150000*%
%ADD23C,0.200000*%
G04 APERTURE END LIST*
D10*
D11*
X122640000Y-78619286D02*
X123104286Y-78619286D01*
X122854286Y-78905000D01*
X122961428Y-78905000D01*
X123032857Y-78940714D01*
X123068571Y-78976429D01*
X123104286Y-79047857D01*
X123104286Y-79226429D01*
X123068571Y-79297857D01*
X123032857Y-79333571D01*
X122961428Y-79369286D01*
X122747143Y-79369286D01*
X122675714Y-79333571D01*
X122640000Y-79297857D01*
D12*
X130750000Y-51150000D03*
X138250000Y-51150000D03*
D13*
X99340000Y-54630000D03*
X99340000Y-52600000D03*
X99340000Y-46510000D03*
X99340000Y-44480000D03*
X101880000Y-55650000D03*
X101880000Y-53620000D03*
X101880000Y-51590000D03*
X101880000Y-47530000D03*
X101880000Y-45500000D03*
D14*
X80930000Y-57610000D03*
X80930000Y-41480000D03*
D15*
X160500000Y-55250000D03*
X162500000Y-55250000D03*
X164500000Y-55250000D03*
X158500000Y-55250000D03*
X156500000Y-55250000D03*
D16*
X157100000Y-77750000D03*
X158100000Y-76750000D03*
X159100000Y-77750000D03*
X160100000Y-76750000D03*
X161100000Y-77750000D03*
X162100000Y-76750000D03*
X163100000Y-77750000D03*
X164100000Y-76750000D03*
X157100000Y-75750000D03*
X160100000Y-74750000D03*
X159100000Y-75750000D03*
X158100000Y-74750000D03*
X162100000Y-74750000D03*
X161100000Y-75750000D03*
X163100000Y-75750000D03*
X164100000Y-74750000D03*
X175200000Y-68000000D03*
X174200000Y-67000000D03*
X175200000Y-66000000D03*
X174200000Y-65000000D03*
X175200000Y-64000000D03*
X174200000Y-63000000D03*
X175200000Y-62000000D03*
X174200000Y-61000000D03*
X173200000Y-68000000D03*
X172200000Y-65000000D03*
X173200000Y-66000000D03*
X172200000Y-67000000D03*
X172200000Y-63000000D03*
X173200000Y-64000000D03*
X173200000Y-62000000D03*
X172200000Y-61000000D03*
D17*
X99050000Y-31800000D03*
X99000000Y-38150000D03*
X145900000Y-40250000D03*
X155050000Y-33400000D03*
X147500000Y-57700000D03*
X110550000Y-68180000D03*
D18*
X172350000Y-49050060D03*
X172350000Y-45549940D03*
D19*
X173750000Y-34750000D03*
X81850000Y-76650000D03*
X173700000Y-76600000D03*
X81900000Y-34750000D03*
D20*
X112060000Y-35450000D03*
X106697158Y-32900080D03*
X114700000Y-36599321D03*
X110372593Y-36297407D03*
X111030000Y-36350000D03*
X114400000Y-33750000D03*
X107950000Y-38650000D03*
X111030000Y-35540000D03*
X110080000Y-35570000D03*
X128900000Y-41350000D03*
X129700000Y-41350000D03*
X130510000Y-41350000D03*
X130520000Y-42100000D03*
X129700000Y-42090000D03*
X128890000Y-42090000D03*
X127400000Y-46150000D03*
X130700000Y-45300000D03*
X130700000Y-44650000D03*
X130000000Y-44650000D03*
X130000000Y-45300000D03*
X106750000Y-35300000D03*
X115500000Y-36900000D03*
X122400000Y-37850000D03*
X158170000Y-32920000D03*
X157290000Y-32930000D03*
X157290000Y-33680000D03*
X157290000Y-34470000D03*
X158190000Y-34480000D03*
X158200000Y-33670000D03*
X135590000Y-55690000D03*
X135590244Y-56650000D03*
X135580000Y-57470000D03*
X134680000Y-57470000D03*
X134680304Y-56650000D03*
X134680000Y-55690000D03*
X133700000Y-55680000D03*
X133697387Y-56650000D03*
X133700000Y-57490000D03*
X150810000Y-44200000D03*
X165240000Y-62040000D03*
X139900000Y-52224991D03*
X89150000Y-47150000D03*
X91330000Y-54860000D03*
X91980000Y-54860000D03*
X92650000Y-54850000D03*
X93300000Y-54850000D03*
X105950000Y-46900000D03*
X112750000Y-55800000D03*
X150300000Y-40100000D03*
X153000000Y-40100000D03*
X152050000Y-40100000D03*
X151150000Y-40100000D03*
X150300000Y-41000000D03*
X151150000Y-41000000D03*
X152050000Y-41000000D03*
X153000000Y-41000000D03*
X143100000Y-47220000D03*
X139900000Y-51140000D03*
X141670000Y-53950000D03*
X142790000Y-53940000D03*
X141670000Y-56650000D03*
X142780000Y-56640000D03*
X142770000Y-55800000D03*
X142790000Y-54800000D03*
X141670000Y-55790000D03*
X141670000Y-54830000D03*
X149220000Y-63370000D03*
X149210000Y-64160000D03*
X148320000Y-64140000D03*
X148320000Y-63390000D03*
X142950000Y-63630000D03*
X142940000Y-62840000D03*
X144510000Y-62830000D03*
X144520000Y-63640000D03*
X143020000Y-67160000D03*
X143010000Y-67940000D03*
X143800000Y-67930000D03*
X144590000Y-67930000D03*
X144590000Y-67150000D03*
X143800000Y-67160000D03*
X143750000Y-63620000D03*
X143750000Y-62820000D03*
X149070000Y-31950000D03*
X108700000Y-61790000D03*
X109910000Y-61790000D03*
X111100000Y-61800000D03*
X112120000Y-61800000D03*
X153520000Y-78600000D03*
X123840000Y-61920000D03*
X167630000Y-67760000D03*
X160380000Y-68520000D03*
X156520000Y-67190000D03*
X159060000Y-60680000D03*
X153470000Y-66240000D03*
X176080000Y-54710000D03*
X176890000Y-54710000D03*
X176890000Y-55530000D03*
X176110000Y-55530000D03*
X176110000Y-56340000D03*
X176890000Y-56340000D03*
D21*
X163460000Y-56070000D03*
D20*
X166228763Y-60031237D03*
X88200000Y-63050000D03*
X92597845Y-64962000D03*
X96930000Y-56350000D03*
X96930000Y-58280000D03*
X165250000Y-68880000D03*
X163950000Y-68890000D03*
X156430000Y-68690000D03*
X156290000Y-59070000D03*
X146060000Y-71710000D03*
X151810000Y-68390000D03*
X148540000Y-59156108D03*
X147900000Y-59160000D03*
X147270000Y-59150000D03*
X146640000Y-59160000D03*
X146640000Y-59770000D03*
X147250000Y-59760000D03*
X147260000Y-60380000D03*
X146640000Y-60380000D03*
X122340000Y-44830000D03*
X122460000Y-41970000D03*
X106700000Y-38450000D03*
X88000000Y-55000000D03*
X88750003Y-55000000D03*
X104750000Y-50900000D03*
X94500000Y-48050000D03*
X167710000Y-63740000D03*
X168496739Y-63693261D03*
X156560000Y-64230000D03*
X156050000Y-64710000D03*
X159160000Y-66140000D03*
X160210000Y-66480000D03*
X171020000Y-66900000D03*
X165150000Y-59280000D03*
X168250000Y-62770000D03*
X157770000Y-65720000D03*
X156050000Y-65360000D03*
X156050000Y-63750000D03*
X170440000Y-63360000D03*
X162380000Y-64240000D03*
X163410000Y-59970000D03*
X163160000Y-60690000D03*
X170470000Y-66340000D03*
X170490000Y-64710000D03*
X161720000Y-61990000D03*
X157380000Y-71480000D03*
X160571388Y-61911786D03*
X158480000Y-61650000D03*
X158080000Y-71500000D03*
X158590000Y-72000000D03*
X124250000Y-34880000D03*
X124250000Y-34200000D03*
X124250000Y-33530000D03*
X105850000Y-37800000D03*
X120200000Y-36730000D03*
X120450000Y-45450000D03*
X114400000Y-35150000D03*
X147573719Y-66562000D03*
X89320000Y-50880000D03*
D21*
X167550000Y-68580000D03*
D20*
X90610000Y-50370000D03*
X161440000Y-65730000D03*
X91270000Y-47130000D03*
X161920000Y-65270000D03*
X91880000Y-51350000D03*
X158940000Y-64700000D03*
X92570000Y-51840000D03*
X159460000Y-65370000D03*
X165770000Y-69930000D03*
X168110000Y-72510000D03*
D22*
X166830000Y-77750000D02*
X163100000Y-77750000D01*
X171020000Y-73560000D02*
X166830000Y-77750000D01*
X171020000Y-66900000D02*
X171020000Y-73560000D01*
X170024970Y-63084968D02*
X170024970Y-73434970D01*
X165915013Y-58975011D02*
X170024970Y-63084968D01*
X165274999Y-58975011D02*
X165915013Y-58975011D01*
X165050000Y-59200010D02*
X165274999Y-58975011D01*
X170024970Y-73434970D02*
X166649940Y-76810000D01*
X166589940Y-76750000D02*
X164100000Y-76750000D01*
X166649940Y-76810000D02*
X166589940Y-76750000D01*
X167285662Y-75750000D02*
X163100000Y-75750000D01*
X169724960Y-73310702D02*
X167285662Y-75750000D01*
X166980001Y-60580001D02*
X169724960Y-63324960D01*
X169724960Y-63324960D02*
X169724960Y-73310702D01*
X164050001Y-60580001D02*
X166980001Y-60580001D01*
X163450000Y-59980000D02*
X164050001Y-60580001D01*
X171165001Y-66324999D02*
X170474971Y-66324999D01*
X172525997Y-66324999D02*
X171165001Y-66324999D01*
X172876997Y-66675999D02*
X172525997Y-66324999D01*
X173524999Y-66675999D02*
X172876997Y-66675999D01*
X174200998Y-66000000D02*
X173524999Y-66675999D01*
X175200000Y-66000000D02*
X174200998Y-66000000D01*
X173563604Y-65000000D02*
X174200000Y-65000000D01*
X173200998Y-65000000D02*
X173563604Y-65000000D01*
X172448634Y-64247636D02*
X173200998Y-65000000D01*
X170897346Y-64247636D02*
X172448634Y-64247636D01*
X170474971Y-64670011D02*
X170897346Y-64247636D01*
D23*
G36*
X132350000Y-46700000D02*
X125900000Y-46700000D01*
X125900000Y-43650000D01*
X124850104Y-43650000D01*
X124850104Y-34761176D01*
X124758952Y-34540571D01*
X124758458Y-34540076D01*
X124849896Y-34319871D01*
X124850104Y-34081176D01*
X124760674Y-33864740D01*
X124849896Y-33649871D01*
X124850104Y-33411176D01*
X124758952Y-33190571D01*
X124590317Y-33021641D01*
X124369871Y-32930104D01*
X124131176Y-32929896D01*
X123910571Y-33021048D01*
X123741641Y-33189683D01*
X123650104Y-33410129D01*
X123649896Y-33648824D01*
X123739325Y-33865259D01*
X123650104Y-34080129D01*
X123649896Y-34318824D01*
X123741048Y-34539429D01*
X123741541Y-34539923D01*
X123650104Y-34760129D01*
X123649896Y-34998824D01*
X123741048Y-35219429D01*
X123909683Y-35388359D01*
X124130129Y-35479896D01*
X124368824Y-35480104D01*
X124589429Y-35388952D01*
X124758359Y-35220317D01*
X124849896Y-34999871D01*
X124850104Y-34761176D01*
X124850104Y-43650000D01*
X123060104Y-43650000D01*
X123060104Y-41851176D01*
X123000104Y-41705964D01*
X123000104Y-37731176D01*
X122908952Y-37510571D01*
X122740317Y-37341641D01*
X122519871Y-37250104D01*
X122281176Y-37249896D01*
X122060571Y-37341048D01*
X121891641Y-37509683D01*
X121800104Y-37730129D01*
X121799896Y-37968824D01*
X121891048Y-38189429D01*
X122059683Y-38358359D01*
X122280129Y-38449896D01*
X122518824Y-38450104D01*
X122739429Y-38358952D01*
X122908359Y-38190317D01*
X122999896Y-37969871D01*
X123000104Y-37731176D01*
X123000104Y-41705964D01*
X122968952Y-41630571D01*
X122800317Y-41461641D01*
X122579871Y-41370104D01*
X122341176Y-41369896D01*
X122120571Y-41461048D01*
X121951641Y-41629683D01*
X121860104Y-41850129D01*
X121859896Y-42088824D01*
X121951048Y-42309429D01*
X122119683Y-42478359D01*
X122340129Y-42569896D01*
X122578824Y-42570104D01*
X122799429Y-42478952D01*
X122968359Y-42310317D01*
X123059896Y-42089871D01*
X123060104Y-41851176D01*
X123060104Y-43650000D01*
X120800104Y-43650000D01*
X120800104Y-36611176D01*
X120708952Y-36390571D01*
X120540317Y-36221641D01*
X120319871Y-36130104D01*
X120081176Y-36129896D01*
X119860571Y-36221048D01*
X119691641Y-36389683D01*
X119600104Y-36610129D01*
X119599896Y-36848824D01*
X119691048Y-37069429D01*
X119859683Y-37238359D01*
X120080129Y-37329896D01*
X120318824Y-37330104D01*
X120539429Y-37238952D01*
X120708359Y-37070317D01*
X120799896Y-36849871D01*
X120800104Y-36611176D01*
X120800104Y-43650000D01*
X116100104Y-43650000D01*
X116100104Y-36781176D01*
X116008952Y-36560571D01*
X115840317Y-36391641D01*
X115619871Y-36300104D01*
X115381176Y-36299896D01*
X115248186Y-36354846D01*
X115208952Y-36259892D01*
X115040317Y-36090962D01*
X115000104Y-36074264D01*
X115000104Y-35031176D01*
X114908952Y-34810571D01*
X114740317Y-34641641D01*
X114519871Y-34550104D01*
X114281176Y-34549896D01*
X114060571Y-34641048D01*
X113891641Y-34809683D01*
X113800104Y-35030129D01*
X113799896Y-35268824D01*
X113891048Y-35489429D01*
X114059683Y-35658359D01*
X114280129Y-35749896D01*
X114518824Y-35750104D01*
X114739429Y-35658952D01*
X114908359Y-35490317D01*
X114999896Y-35269871D01*
X115000104Y-35031176D01*
X115000104Y-36074264D01*
X114819871Y-35999425D01*
X114581176Y-35999217D01*
X114360571Y-36090369D01*
X114191641Y-36259004D01*
X114100104Y-36479450D01*
X114099896Y-36718145D01*
X114191048Y-36938750D01*
X114359683Y-37107680D01*
X114580129Y-37199217D01*
X114818824Y-37199425D01*
X114951813Y-37144474D01*
X114991048Y-37239429D01*
X115159683Y-37408359D01*
X115380129Y-37499896D01*
X115618824Y-37500104D01*
X115839429Y-37408952D01*
X116008359Y-37240317D01*
X116099896Y-37019871D01*
X116100104Y-36781176D01*
X116100104Y-43650000D01*
X114800000Y-43650000D01*
X114800000Y-39450000D01*
X112660104Y-39450000D01*
X112660104Y-35331176D01*
X112568952Y-35110571D01*
X112400317Y-34941641D01*
X112179871Y-34850104D01*
X111941176Y-34849896D01*
X111720571Y-34941048D01*
X111551641Y-35109683D01*
X111460104Y-35330129D01*
X111459896Y-35568824D01*
X111551048Y-35789429D01*
X111719683Y-35958359D01*
X111940129Y-36049896D01*
X112178824Y-36050104D01*
X112399429Y-35958952D01*
X112568359Y-35790317D01*
X112659896Y-35569871D01*
X112660104Y-35331176D01*
X112660104Y-39450000D01*
X107350104Y-39450000D01*
X107350104Y-35181176D01*
X107297262Y-35053288D01*
X107297262Y-32781256D01*
X107206110Y-32560651D01*
X107037475Y-32391721D01*
X106817029Y-32300184D01*
X106578334Y-32299976D01*
X106357729Y-32391128D01*
X106188799Y-32559763D01*
X106097262Y-32780209D01*
X106097054Y-33018904D01*
X106188206Y-33239509D01*
X106356841Y-33408439D01*
X106577287Y-33499976D01*
X106815982Y-33500184D01*
X107036587Y-33409032D01*
X107205517Y-33240397D01*
X107297054Y-33019951D01*
X107297262Y-32781256D01*
X107297262Y-35053288D01*
X107258952Y-34960571D01*
X107090317Y-34791641D01*
X106869871Y-34700104D01*
X106631176Y-34699896D01*
X106410571Y-34791048D01*
X106241641Y-34959683D01*
X106150104Y-35180129D01*
X106149896Y-35418824D01*
X106241048Y-35639429D01*
X106409683Y-35808359D01*
X106630129Y-35899896D01*
X106868824Y-35900104D01*
X107089429Y-35808952D01*
X107258359Y-35640317D01*
X107349896Y-35419871D01*
X107350104Y-35181176D01*
X107350104Y-39450000D01*
X107300104Y-39450000D01*
X107300104Y-38331176D01*
X107208952Y-38110571D01*
X107040317Y-37941641D01*
X106819871Y-37850104D01*
X106581176Y-37849896D01*
X106449909Y-37904134D01*
X106450104Y-37681176D01*
X106358952Y-37460571D01*
X106190317Y-37291641D01*
X105969871Y-37200104D01*
X105731176Y-37199896D01*
X105510571Y-37291048D01*
X105341641Y-37459683D01*
X105250104Y-37680129D01*
X105249896Y-37918824D01*
X105341048Y-38139429D01*
X105509683Y-38308359D01*
X105730129Y-38399896D01*
X105968824Y-38400104D01*
X106100090Y-38345865D01*
X106099896Y-38568824D01*
X106191048Y-38789429D01*
X106359683Y-38958359D01*
X106580129Y-39049896D01*
X106818824Y-39050104D01*
X107039429Y-38958952D01*
X107208359Y-38790317D01*
X107299896Y-38569871D01*
X107300104Y-38331176D01*
X107300104Y-39450000D01*
X99871651Y-39450000D01*
X99871651Y-37977408D01*
X99739253Y-37656980D01*
X99494310Y-37411609D01*
X99174113Y-37278651D01*
X98827408Y-37278349D01*
X98506980Y-37410747D01*
X98261609Y-37655690D01*
X98128651Y-37975887D01*
X98128349Y-38322592D01*
X98260747Y-38643020D01*
X98505690Y-38888391D01*
X98825887Y-39021349D01*
X99172592Y-39021651D01*
X99493020Y-38889253D01*
X99738391Y-38644310D01*
X99871349Y-38324113D01*
X99871651Y-37977408D01*
X99871651Y-39450000D01*
X94998974Y-39450000D01*
X95048974Y-44350000D01*
X88574725Y-44350000D01*
X86050492Y-45713086D01*
X86025333Y-45728181D01*
X86025333Y-42818774D01*
X85732887Y-42111000D01*
X85191849Y-41569016D01*
X84484586Y-41275335D01*
X83718774Y-41274667D01*
X83011000Y-41567113D01*
X82469016Y-42108151D01*
X82345838Y-42404796D01*
X82345838Y-41661536D01*
X82307535Y-41105900D01*
X82168592Y-40770465D01*
X81988985Y-40638804D01*
X81771196Y-40856593D01*
X81771196Y-40421015D01*
X81639535Y-40241408D01*
X81111536Y-40064162D01*
X80555900Y-40102465D01*
X80220465Y-40241408D01*
X80088804Y-40421015D01*
X80930000Y-41262211D01*
X81771196Y-40421015D01*
X81771196Y-40856593D01*
X81147789Y-41480000D01*
X81988985Y-42321196D01*
X82168592Y-42189535D01*
X82345838Y-41661536D01*
X82345838Y-42404796D01*
X82175335Y-42815414D01*
X82174667Y-43581226D01*
X82467113Y-44289000D01*
X83008151Y-44830984D01*
X83715414Y-45124665D01*
X84481226Y-45125333D01*
X85189000Y-44832887D01*
X85730984Y-44291849D01*
X86024665Y-43584586D01*
X86025333Y-42818774D01*
X86025333Y-45728181D01*
X85050075Y-46313336D01*
X83100000Y-47391009D01*
X83100000Y-54230338D01*
X83011000Y-54267113D01*
X82469016Y-54808151D01*
X82175335Y-55515414D01*
X82174667Y-56281226D01*
X82467113Y-56989000D01*
X83008151Y-57530984D01*
X83100000Y-57569123D01*
X83100000Y-62350000D01*
X82345838Y-62350000D01*
X82345838Y-57791536D01*
X82307535Y-57235900D01*
X82168592Y-56900465D01*
X81988985Y-56768804D01*
X81771196Y-56986593D01*
X81771196Y-56551015D01*
X81771196Y-42538985D01*
X80930000Y-41697789D01*
X80712211Y-41915578D01*
X80712211Y-41480000D01*
X79871015Y-40638804D01*
X79691408Y-40770465D01*
X79514162Y-41298464D01*
X79552465Y-41854100D01*
X79691408Y-42189535D01*
X79871015Y-42321196D01*
X80712211Y-41480000D01*
X80712211Y-41915578D01*
X80088804Y-42538985D01*
X80220465Y-42718592D01*
X80748464Y-42895838D01*
X81304100Y-42857535D01*
X81639535Y-42718592D01*
X81771196Y-42538985D01*
X81771196Y-56551015D01*
X81639535Y-56371408D01*
X81111536Y-56194162D01*
X80555900Y-56232465D01*
X80220465Y-56371408D01*
X80088804Y-56551015D01*
X80930000Y-57392211D01*
X81771196Y-56551015D01*
X81771196Y-56986593D01*
X81147789Y-57610000D01*
X81988985Y-58451196D01*
X82168592Y-58319535D01*
X82345838Y-57791536D01*
X82345838Y-62350000D01*
X81771196Y-62350000D01*
X81771196Y-58668985D01*
X80930000Y-57827789D01*
X80712211Y-58045578D01*
X80712211Y-57610000D01*
X79871015Y-56768804D01*
X79691408Y-56900465D01*
X79514162Y-57428464D01*
X79552465Y-57984100D01*
X79691408Y-58319535D01*
X79871015Y-58451196D01*
X80712211Y-57610000D01*
X80712211Y-58045578D01*
X80088804Y-58668985D01*
X80220465Y-58848592D01*
X80748464Y-59025838D01*
X81304100Y-58987535D01*
X81639535Y-58848592D01*
X81771196Y-58668985D01*
X81771196Y-62350000D01*
X78600000Y-62350000D01*
X78600000Y-39749546D01*
X89600000Y-39699546D01*
X89600000Y-32100000D01*
X98230992Y-32100000D01*
X98310747Y-32293020D01*
X98555690Y-32538391D01*
X98875887Y-32671349D01*
X99222592Y-32671651D01*
X99543020Y-32539253D01*
X99788391Y-32294310D01*
X99869075Y-32100000D01*
X132350000Y-32100000D01*
X132350000Y-46700000D01*
X132350000Y-46700000D01*
G37*
X132350000Y-46700000D02*
X125900000Y-46700000D01*
X125900000Y-43650000D01*
X124850104Y-43650000D01*
X124850104Y-34761176D01*
X124758952Y-34540571D01*
X124758458Y-34540076D01*
X124849896Y-34319871D01*
X124850104Y-34081176D01*
X124760674Y-33864740D01*
X124849896Y-33649871D01*
X124850104Y-33411176D01*
X124758952Y-33190571D01*
X124590317Y-33021641D01*
X124369871Y-32930104D01*
X124131176Y-32929896D01*
X123910571Y-33021048D01*
X123741641Y-33189683D01*
X123650104Y-33410129D01*
X123649896Y-33648824D01*
X123739325Y-33865259D01*
X123650104Y-34080129D01*
X123649896Y-34318824D01*
X123741048Y-34539429D01*
X123741541Y-34539923D01*
X123650104Y-34760129D01*
X123649896Y-34998824D01*
X123741048Y-35219429D01*
X123909683Y-35388359D01*
X124130129Y-35479896D01*
X124368824Y-35480104D01*
X124589429Y-35388952D01*
X124758359Y-35220317D01*
X124849896Y-34999871D01*
X124850104Y-34761176D01*
X124850104Y-43650000D01*
X123060104Y-43650000D01*
X123060104Y-41851176D01*
X123000104Y-41705964D01*
X123000104Y-37731176D01*
X122908952Y-37510571D01*
X122740317Y-37341641D01*
X122519871Y-37250104D01*
X122281176Y-37249896D01*
X122060571Y-37341048D01*
X121891641Y-37509683D01*
X121800104Y-37730129D01*
X121799896Y-37968824D01*
X121891048Y-38189429D01*
X122059683Y-38358359D01*
X122280129Y-38449896D01*
X122518824Y-38450104D01*
X122739429Y-38358952D01*
X122908359Y-38190317D01*
X122999896Y-37969871D01*
X123000104Y-37731176D01*
X123000104Y-41705964D01*
X122968952Y-41630571D01*
X122800317Y-41461641D01*
X122579871Y-41370104D01*
X122341176Y-41369896D01*
X122120571Y-41461048D01*
X121951641Y-41629683D01*
X121860104Y-41850129D01*
X121859896Y-42088824D01*
X121951048Y-42309429D01*
X122119683Y-42478359D01*
X122340129Y-42569896D01*
X122578824Y-42570104D01*
X122799429Y-42478952D01*
X122968359Y-42310317D01*
X123059896Y-42089871D01*
X123060104Y-41851176D01*
X123060104Y-43650000D01*
X120800104Y-43650000D01*
X120800104Y-36611176D01*
X120708952Y-36390571D01*
X120540317Y-36221641D01*
X120319871Y-36130104D01*
X120081176Y-36129896D01*
X119860571Y-36221048D01*
X119691641Y-36389683D01*
X119600104Y-36610129D01*
X119599896Y-36848824D01*
X119691048Y-37069429D01*
X119859683Y-37238359D01*
X120080129Y-37329896D01*
X120318824Y-37330104D01*
X120539429Y-37238952D01*
X120708359Y-37070317D01*
X120799896Y-36849871D01*
X120800104Y-36611176D01*
X120800104Y-43650000D01*
X116100104Y-43650000D01*
X116100104Y-36781176D01*
X116008952Y-36560571D01*
X115840317Y-36391641D01*
X115619871Y-36300104D01*
X115381176Y-36299896D01*
X115248186Y-36354846D01*
X115208952Y-36259892D01*
X115040317Y-36090962D01*
X115000104Y-36074264D01*
X115000104Y-35031176D01*
X114908952Y-34810571D01*
X114740317Y-34641641D01*
X114519871Y-34550104D01*
X114281176Y-34549896D01*
X114060571Y-34641048D01*
X113891641Y-34809683D01*
X113800104Y-35030129D01*
X113799896Y-35268824D01*
X113891048Y-35489429D01*
X114059683Y-35658359D01*
X114280129Y-35749896D01*
X114518824Y-35750104D01*
X114739429Y-35658952D01*
X114908359Y-35490317D01*
X114999896Y-35269871D01*
X115000104Y-35031176D01*
X115000104Y-36074264D01*
X114819871Y-35999425D01*
X114581176Y-35999217D01*
X114360571Y-36090369D01*
X114191641Y-36259004D01*
X114100104Y-36479450D01*
X114099896Y-36718145D01*
X114191048Y-36938750D01*
X114359683Y-37107680D01*
X114580129Y-37199217D01*
X114818824Y-37199425D01*
X114951813Y-37144474D01*
X114991048Y-37239429D01*
X115159683Y-37408359D01*
X115380129Y-37499896D01*
X115618824Y-37500104D01*
X115839429Y-37408952D01*
X116008359Y-37240317D01*
X116099896Y-37019871D01*
X116100104Y-36781176D01*
X116100104Y-43650000D01*
X114800000Y-43650000D01*
X114800000Y-39450000D01*
X112660104Y-39450000D01*
X112660104Y-35331176D01*
X112568952Y-35110571D01*
X112400317Y-34941641D01*
X112179871Y-34850104D01*
X111941176Y-34849896D01*
X111720571Y-34941048D01*
X111551641Y-35109683D01*
X111460104Y-35330129D01*
X111459896Y-35568824D01*
X111551048Y-35789429D01*
X111719683Y-35958359D01*
X111940129Y-36049896D01*
X112178824Y-36050104D01*
X112399429Y-35958952D01*
X112568359Y-35790317D01*
X112659896Y-35569871D01*
X112660104Y-35331176D01*
X112660104Y-39450000D01*
X107350104Y-39450000D01*
X107350104Y-35181176D01*
X107297262Y-35053288D01*
X107297262Y-32781256D01*
X107206110Y-32560651D01*
X107037475Y-32391721D01*
X106817029Y-32300184D01*
X106578334Y-32299976D01*
X106357729Y-32391128D01*
X106188799Y-32559763D01*
X106097262Y-32780209D01*
X106097054Y-33018904D01*
X106188206Y-33239509D01*
X106356841Y-33408439D01*
X106577287Y-33499976D01*
X106815982Y-33500184D01*
X107036587Y-33409032D01*
X107205517Y-33240397D01*
X107297054Y-33019951D01*
X107297262Y-32781256D01*
X107297262Y-35053288D01*
X107258952Y-34960571D01*
X107090317Y-34791641D01*
X106869871Y-34700104D01*
X106631176Y-34699896D01*
X106410571Y-34791048D01*
X106241641Y-34959683D01*
X106150104Y-35180129D01*
X106149896Y-35418824D01*
X106241048Y-35639429D01*
X106409683Y-35808359D01*
X106630129Y-35899896D01*
X106868824Y-35900104D01*
X107089429Y-35808952D01*
X107258359Y-35640317D01*
X107349896Y-35419871D01*
X107350104Y-35181176D01*
X107350104Y-39450000D01*
X107300104Y-39450000D01*
X107300104Y-38331176D01*
X107208952Y-38110571D01*
X107040317Y-37941641D01*
X106819871Y-37850104D01*
X106581176Y-37849896D01*
X106449909Y-37904134D01*
X106450104Y-37681176D01*
X106358952Y-37460571D01*
X106190317Y-37291641D01*
X105969871Y-37200104D01*
X105731176Y-37199896D01*
X105510571Y-37291048D01*
X105341641Y-37459683D01*
X105250104Y-37680129D01*
X105249896Y-37918824D01*
X105341048Y-38139429D01*
X105509683Y-38308359D01*
X105730129Y-38399896D01*
X105968824Y-38400104D01*
X106100090Y-38345865D01*
X106099896Y-38568824D01*
X106191048Y-38789429D01*
X106359683Y-38958359D01*
X106580129Y-39049896D01*
X106818824Y-39050104D01*
X107039429Y-38958952D01*
X107208359Y-38790317D01*
X107299896Y-38569871D01*
X107300104Y-38331176D01*
X107300104Y-39450000D01*
X99871651Y-39450000D01*
X99871651Y-37977408D01*
X99739253Y-37656980D01*
X99494310Y-37411609D01*
X99174113Y-37278651D01*
X98827408Y-37278349D01*
X98506980Y-37410747D01*
X98261609Y-37655690D01*
X98128651Y-37975887D01*
X98128349Y-38322592D01*
X98260747Y-38643020D01*
X98505690Y-38888391D01*
X98825887Y-39021349D01*
X99172592Y-39021651D01*
X99493020Y-38889253D01*
X99738391Y-38644310D01*
X99871349Y-38324113D01*
X99871651Y-37977408D01*
X99871651Y-39450000D01*
X94998974Y-39450000D01*
X95048974Y-44350000D01*
X88574725Y-44350000D01*
X86050492Y-45713086D01*
X86025333Y-45728181D01*
X86025333Y-42818774D01*
X85732887Y-42111000D01*
X85191849Y-41569016D01*
X84484586Y-41275335D01*
X83718774Y-41274667D01*
X83011000Y-41567113D01*
X82469016Y-42108151D01*
X82345838Y-42404796D01*
X82345838Y-41661536D01*
X82307535Y-41105900D01*
X82168592Y-40770465D01*
X81988985Y-40638804D01*
X81771196Y-40856593D01*
X81771196Y-40421015D01*
X81639535Y-40241408D01*
X81111536Y-40064162D01*
X80555900Y-40102465D01*
X80220465Y-40241408D01*
X80088804Y-40421015D01*
X80930000Y-41262211D01*
X81771196Y-40421015D01*
X81771196Y-40856593D01*
X81147789Y-41480000D01*
X81988985Y-42321196D01*
X82168592Y-42189535D01*
X82345838Y-41661536D01*
X82345838Y-42404796D01*
X82175335Y-42815414D01*
X82174667Y-43581226D01*
X82467113Y-44289000D01*
X83008151Y-44830984D01*
X83715414Y-45124665D01*
X84481226Y-45125333D01*
X85189000Y-44832887D01*
X85730984Y-44291849D01*
X86024665Y-43584586D01*
X86025333Y-42818774D01*
X86025333Y-45728181D01*
X85050075Y-46313336D01*
X83100000Y-47391009D01*
X83100000Y-54230338D01*
X83011000Y-54267113D01*
X82469016Y-54808151D01*
X82175335Y-55515414D01*
X82174667Y-56281226D01*
X82467113Y-56989000D01*
X83008151Y-57530984D01*
X83100000Y-57569123D01*
X83100000Y-62350000D01*
X82345838Y-62350000D01*
X82345838Y-57791536D01*
X82307535Y-57235900D01*
X82168592Y-56900465D01*
X81988985Y-56768804D01*
X81771196Y-56986593D01*
X81771196Y-56551015D01*
X81771196Y-42538985D01*
X80930000Y-41697789D01*
X80712211Y-41915578D01*
X80712211Y-41480000D01*
X79871015Y-40638804D01*
X79691408Y-40770465D01*
X79514162Y-41298464D01*
X79552465Y-41854100D01*
X79691408Y-42189535D01*
X79871015Y-42321196D01*
X80712211Y-41480000D01*
X80712211Y-41915578D01*
X80088804Y-42538985D01*
X80220465Y-42718592D01*
X80748464Y-42895838D01*
X81304100Y-42857535D01*
X81639535Y-42718592D01*
X81771196Y-42538985D01*
X81771196Y-56551015D01*
X81639535Y-56371408D01*
X81111536Y-56194162D01*
X80555900Y-56232465D01*
X80220465Y-56371408D01*
X80088804Y-56551015D01*
X80930000Y-57392211D01*
X81771196Y-56551015D01*
X81771196Y-56986593D01*
X81147789Y-57610000D01*
X81988985Y-58451196D01*
X82168592Y-58319535D01*
X82345838Y-57791536D01*
X82345838Y-62350000D01*
X81771196Y-62350000D01*
X81771196Y-58668985D01*
X80930000Y-57827789D01*
X80712211Y-58045578D01*
X80712211Y-57610000D01*
X79871015Y-56768804D01*
X79691408Y-56900465D01*
X79514162Y-57428464D01*
X79552465Y-57984100D01*
X79691408Y-58319535D01*
X79871015Y-58451196D01*
X80712211Y-57610000D01*
X80712211Y-58045578D01*
X80088804Y-58668985D01*
X80220465Y-58848592D01*
X80748464Y-59025838D01*
X81304100Y-58987535D01*
X81639535Y-58848592D01*
X81771196Y-58668985D01*
X81771196Y-62350000D01*
X78600000Y-62350000D01*
X78600000Y-39749546D01*
X89600000Y-39699546D01*
X89600000Y-32100000D01*
X98230992Y-32100000D01*
X98310747Y-32293020D01*
X98555690Y-32538391D01*
X98875887Y-32671349D01*
X99222592Y-32671651D01*
X99543020Y-32539253D01*
X99788391Y-32294310D01*
X99869075Y-32100000D01*
X132350000Y-32100000D01*
X132350000Y-46700000D01*
G36*
X177149897Y-79900000D02*
X174354915Y-79900000D01*
X175566858Y-79399235D01*
X176495973Y-78471741D01*
X176999426Y-77259290D01*
X177000572Y-75946469D01*
X176499235Y-74733142D01*
X175950130Y-74183077D01*
X175950130Y-67851470D01*
X175836189Y-67575714D01*
X175625395Y-67364552D01*
X175349839Y-67250131D01*
X175051470Y-67249870D01*
X174878687Y-67321262D01*
X174949869Y-67149839D01*
X174950130Y-66851470D01*
X174878737Y-66678687D01*
X175050161Y-66749869D01*
X175348530Y-66750130D01*
X175624286Y-66636189D01*
X175835448Y-66425395D01*
X175949869Y-66149839D01*
X175950130Y-65851470D01*
X175836189Y-65575714D01*
X175625395Y-65364552D01*
X175349839Y-65250131D01*
X175051470Y-65249870D01*
X174878687Y-65321262D01*
X174949869Y-65149839D01*
X174950130Y-64851470D01*
X174878737Y-64678687D01*
X175050161Y-64749869D01*
X175348530Y-64750130D01*
X175624286Y-64636189D01*
X175835448Y-64425395D01*
X175949869Y-64149839D01*
X175950130Y-63851470D01*
X175836189Y-63575714D01*
X175625395Y-63364552D01*
X175349839Y-63250131D01*
X175051470Y-63249870D01*
X174878687Y-63321262D01*
X174949869Y-63149839D01*
X174950130Y-62851470D01*
X174878737Y-62678687D01*
X175050161Y-62749869D01*
X175348530Y-62750130D01*
X175624286Y-62636189D01*
X175835448Y-62425395D01*
X175949869Y-62149839D01*
X175950130Y-61851470D01*
X175836189Y-61575714D01*
X175625395Y-61364552D01*
X175349839Y-61250131D01*
X175051470Y-61249870D01*
X174878687Y-61321262D01*
X174949869Y-61149839D01*
X174950130Y-60851470D01*
X174836189Y-60575714D01*
X174625395Y-60364552D01*
X174349839Y-60250131D01*
X174051470Y-60249870D01*
X173775714Y-60363811D01*
X173649716Y-60489589D01*
X173649716Y-48792709D01*
X173649716Y-45292589D01*
X173452297Y-44814799D01*
X173087063Y-44448928D01*
X172609619Y-44250676D01*
X172092649Y-44250224D01*
X171614859Y-44447643D01*
X171248988Y-44812877D01*
X171050736Y-45290321D01*
X171050284Y-45807291D01*
X171247703Y-46285081D01*
X171612937Y-46650952D01*
X172090381Y-46849204D01*
X172607351Y-46849656D01*
X173085141Y-46652237D01*
X173451012Y-46287003D01*
X173649264Y-45809559D01*
X173649716Y-45292589D01*
X173649716Y-48792709D01*
X173452297Y-48314919D01*
X173087063Y-47949048D01*
X172609619Y-47750796D01*
X172092649Y-47750344D01*
X171614859Y-47947763D01*
X171248988Y-48312997D01*
X171050736Y-48790441D01*
X171050284Y-49307411D01*
X171247703Y-49785201D01*
X171612937Y-50151072D01*
X172090381Y-50349324D01*
X172607351Y-50349776D01*
X173085141Y-50152357D01*
X173451012Y-49787123D01*
X173649264Y-49309679D01*
X173649716Y-48792709D01*
X173649716Y-60489589D01*
X173564552Y-60574605D01*
X173450131Y-60850161D01*
X173449870Y-61148530D01*
X173521262Y-61321312D01*
X173349839Y-61250131D01*
X173051470Y-61249870D01*
X172878687Y-61321262D01*
X172949869Y-61149839D01*
X172950130Y-60851470D01*
X172836189Y-60575714D01*
X172625395Y-60364552D01*
X172349839Y-60250131D01*
X172051470Y-60249870D01*
X171775714Y-60363811D01*
X171564552Y-60574605D01*
X171450131Y-60850161D01*
X171449870Y-61148530D01*
X171563811Y-61424286D01*
X171774605Y-61635448D01*
X172050161Y-61749869D01*
X172348530Y-61750130D01*
X172521312Y-61678737D01*
X172450131Y-61850161D01*
X172449870Y-62148530D01*
X172521262Y-62321312D01*
X172349839Y-62250131D01*
X172051470Y-62249870D01*
X171775714Y-62363811D01*
X171564552Y-62574605D01*
X171450131Y-62850161D01*
X171449870Y-63148530D01*
X171563811Y-63424286D01*
X171774605Y-63635448D01*
X172050161Y-63749869D01*
X172348530Y-63750130D01*
X172521312Y-63678737D01*
X172450131Y-63850161D01*
X172450111Y-63872929D01*
X172448634Y-63872636D01*
X170897346Y-63872636D01*
X170753840Y-63901181D01*
X170632181Y-63982471D01*
X170504639Y-64110012D01*
X170399970Y-64109921D01*
X170399970Y-63959965D01*
X170558824Y-63960104D01*
X170779429Y-63868952D01*
X170948359Y-63700317D01*
X171039896Y-63479871D01*
X171040104Y-63241176D01*
X170948952Y-63020571D01*
X170780317Y-62851641D01*
X170559871Y-62760104D01*
X170321176Y-62759896D01*
X170256819Y-62786487D01*
X166180178Y-58709846D01*
X166058520Y-58628556D01*
X165915013Y-58600011D01*
X165450165Y-58600011D01*
X165450165Y-55061862D01*
X165305841Y-54712571D01*
X165038835Y-54445098D01*
X164689796Y-54300165D01*
X164311862Y-54299835D01*
X163962571Y-54444159D01*
X163695098Y-54711165D01*
X163550165Y-55060204D01*
X163549835Y-55438138D01*
X163694159Y-55787429D01*
X163961165Y-56054902D01*
X164310204Y-56199835D01*
X164688138Y-56200165D01*
X165037429Y-56055841D01*
X165304902Y-55788835D01*
X165449835Y-55439796D01*
X165450165Y-55061862D01*
X165450165Y-58600011D01*
X165274999Y-58600011D01*
X165131493Y-58628556D01*
X165054626Y-58679916D01*
X165031176Y-58679896D01*
X164810571Y-58771048D01*
X164641641Y-58939683D01*
X164550104Y-59160129D01*
X164549896Y-59398824D01*
X164641048Y-59619429D01*
X164809683Y-59788359D01*
X165030129Y-59879896D01*
X165268824Y-59880104D01*
X165489429Y-59788952D01*
X165658359Y-59620317D01*
X165749896Y-59399871D01*
X165749939Y-59350011D01*
X165759683Y-59350011D01*
X165919494Y-59509822D01*
X165889334Y-59522285D01*
X165720404Y-59690920D01*
X165628867Y-59911366D01*
X165628659Y-60150061D01*
X165651359Y-60205001D01*
X164205331Y-60205001D01*
X164009965Y-60009635D01*
X164010104Y-59851176D01*
X163918952Y-59630571D01*
X163750317Y-59461641D01*
X163529871Y-59370104D01*
X163291176Y-59369896D01*
X163070571Y-59461048D01*
X162901641Y-59629683D01*
X162810104Y-59850129D01*
X162809896Y-60088824D01*
X162844001Y-60171366D01*
X162820571Y-60181048D01*
X162651641Y-60349683D01*
X162560104Y-60570129D01*
X162559896Y-60808824D01*
X162651048Y-61029429D01*
X162819683Y-61198359D01*
X163040129Y-61289896D01*
X163278824Y-61290104D01*
X163499429Y-61198952D01*
X163668359Y-61030317D01*
X163756857Y-60817187D01*
X163784836Y-60845166D01*
X163906495Y-60926456D01*
X164050001Y-60955001D01*
X166824671Y-60955001D01*
X168066351Y-62196681D01*
X167910571Y-62261048D01*
X167741641Y-62429683D01*
X167650104Y-62650129D01*
X167649896Y-62888824D01*
X167741048Y-63109429D01*
X167771618Y-63140053D01*
X167591176Y-63139896D01*
X167370571Y-63231048D01*
X167201641Y-63399683D01*
X167110104Y-63620129D01*
X167109896Y-63858824D01*
X167201048Y-64079429D01*
X167369683Y-64248359D01*
X167590129Y-64339896D01*
X167828824Y-64340104D01*
X168049429Y-64248952D01*
X168126684Y-64171830D01*
X168156422Y-64201620D01*
X168376868Y-64293157D01*
X168615563Y-64293365D01*
X168836168Y-64202213D01*
X169005098Y-64033578D01*
X169096635Y-63813132D01*
X169096843Y-63574437D01*
X169005691Y-63353832D01*
X168837056Y-63184902D01*
X168728710Y-63139913D01*
X168758359Y-63110317D01*
X168823385Y-62953715D01*
X169349960Y-63480290D01*
X169349960Y-73155372D01*
X168710104Y-73795228D01*
X168710104Y-72391176D01*
X168618952Y-72170571D01*
X168450317Y-72001641D01*
X168229871Y-71910104D01*
X168075091Y-71909969D01*
X168075091Y-68476029D01*
X167995333Y-68283000D01*
X167847777Y-68135186D01*
X167654887Y-68055092D01*
X167446029Y-68054909D01*
X167253000Y-68134667D01*
X167105186Y-68282223D01*
X167025092Y-68475113D01*
X167024909Y-68683971D01*
X167104667Y-68877000D01*
X167252223Y-69024814D01*
X167445113Y-69104908D01*
X167653971Y-69105091D01*
X167847000Y-69025333D01*
X167994814Y-68877777D01*
X168074908Y-68684887D01*
X168075091Y-68476029D01*
X168075091Y-71909969D01*
X167991176Y-71909896D01*
X167770571Y-72001048D01*
X167601641Y-72169683D01*
X167510104Y-72390129D01*
X167509896Y-72628824D01*
X167601048Y-72849429D01*
X167769683Y-73018359D01*
X167990129Y-73109896D01*
X168228824Y-73110104D01*
X168449429Y-73018952D01*
X168618359Y-72850317D01*
X168709896Y-72629871D01*
X168710104Y-72391176D01*
X168710104Y-73795228D01*
X167130332Y-75375000D01*
X166370104Y-75375000D01*
X166370104Y-69811176D01*
X166278952Y-69590571D01*
X166110317Y-69421641D01*
X165889871Y-69330104D01*
X165651176Y-69329896D01*
X165646760Y-69331720D01*
X165758359Y-69220317D01*
X165849896Y-68999871D01*
X165850104Y-68761176D01*
X165758952Y-68540571D01*
X165590317Y-68371641D01*
X165369871Y-68280104D01*
X165131176Y-68279896D01*
X164910571Y-68371048D01*
X164741641Y-68539683D01*
X164650104Y-68760129D01*
X164649896Y-68998824D01*
X164741048Y-69219429D01*
X164909683Y-69388359D01*
X165130129Y-69479896D01*
X165368824Y-69480104D01*
X165373239Y-69478279D01*
X165261641Y-69589683D01*
X165170104Y-69810129D01*
X165169896Y-70048824D01*
X165261048Y-70269429D01*
X165429683Y-70438359D01*
X165650129Y-70529896D01*
X165888824Y-70530104D01*
X166109429Y-70438952D01*
X166278359Y-70270317D01*
X166369896Y-70049871D01*
X166370104Y-69811176D01*
X166370104Y-75375000D01*
X164535494Y-75375000D01*
X164735448Y-75175395D01*
X164849869Y-74899839D01*
X164850130Y-74601470D01*
X164736189Y-74325714D01*
X164550104Y-74139304D01*
X164550104Y-68771176D01*
X164458952Y-68550571D01*
X164290317Y-68381641D01*
X164069871Y-68290104D01*
X163831176Y-68289896D01*
X163610571Y-68381048D01*
X163441641Y-68549683D01*
X163350104Y-68770129D01*
X163349896Y-69008824D01*
X163441048Y-69229429D01*
X163609683Y-69398359D01*
X163830129Y-69489896D01*
X164068824Y-69490104D01*
X164289429Y-69398952D01*
X164458359Y-69230317D01*
X164549896Y-69009871D01*
X164550104Y-68771176D01*
X164550104Y-74139304D01*
X164525395Y-74114552D01*
X164249839Y-74000131D01*
X163951470Y-73999870D01*
X163675714Y-74113811D01*
X163464552Y-74324605D01*
X163350131Y-74600161D01*
X163349870Y-74898530D01*
X163421262Y-75071312D01*
X163249839Y-75000131D01*
X162980104Y-74999895D01*
X162980104Y-64121176D01*
X162888952Y-63900571D01*
X162720317Y-63731641D01*
X162499871Y-63640104D01*
X162320104Y-63639947D01*
X162320104Y-61871176D01*
X162228952Y-61650571D01*
X162060317Y-61481641D01*
X161839871Y-61390104D01*
X161601176Y-61389896D01*
X161450165Y-61452292D01*
X161450165Y-55061862D01*
X161305841Y-54712571D01*
X161038835Y-54445098D01*
X160689796Y-54300165D01*
X160311862Y-54299835D01*
X159962571Y-54444159D01*
X159695098Y-54711165D01*
X159550165Y-55060204D01*
X159549835Y-55438138D01*
X159694159Y-55787429D01*
X159961165Y-56054902D01*
X160310204Y-56199835D01*
X160688138Y-56200165D01*
X161037429Y-56055841D01*
X161304902Y-55788835D01*
X161449835Y-55439796D01*
X161450165Y-55061862D01*
X161450165Y-61452292D01*
X161380571Y-61481048D01*
X161211641Y-61649683D01*
X161161843Y-61769609D01*
X161080340Y-61572357D01*
X160911705Y-61403427D01*
X160691259Y-61311890D01*
X160452564Y-61311682D01*
X160231959Y-61402834D01*
X160063029Y-61571469D01*
X159971492Y-61791915D01*
X159971284Y-62030610D01*
X160062436Y-62251215D01*
X160231071Y-62420145D01*
X160451517Y-62511682D01*
X160690212Y-62511890D01*
X160910817Y-62420738D01*
X161079747Y-62252103D01*
X161129544Y-62132176D01*
X161211048Y-62329429D01*
X161379683Y-62498359D01*
X161600129Y-62589896D01*
X161838824Y-62590104D01*
X162059429Y-62498952D01*
X162228359Y-62330317D01*
X162319896Y-62109871D01*
X162320104Y-61871176D01*
X162320104Y-63639947D01*
X162261176Y-63639896D01*
X162040571Y-63731048D01*
X161871641Y-63899683D01*
X161780104Y-64120129D01*
X161779896Y-64358824D01*
X161871048Y-64579429D01*
X161961496Y-64670035D01*
X161801176Y-64669896D01*
X161580571Y-64761048D01*
X161411641Y-64929683D01*
X161328502Y-65129902D01*
X161321176Y-65129896D01*
X161100571Y-65221048D01*
X160931641Y-65389683D01*
X160840104Y-65610129D01*
X160839896Y-65848824D01*
X160931048Y-66069429D01*
X161099683Y-66238359D01*
X161320129Y-66329896D01*
X161558824Y-66330104D01*
X161779429Y-66238952D01*
X161948359Y-66070317D01*
X162031497Y-65870097D01*
X162038824Y-65870104D01*
X162259429Y-65778952D01*
X162428359Y-65610317D01*
X162519896Y-65389871D01*
X162520104Y-65151176D01*
X162428952Y-64930571D01*
X162338503Y-64839964D01*
X162498824Y-64840104D01*
X162719429Y-64748952D01*
X162888359Y-64580317D01*
X162979896Y-64359871D01*
X162980104Y-64121176D01*
X162980104Y-74999895D01*
X162951470Y-74999870D01*
X162778687Y-75071262D01*
X162849869Y-74899839D01*
X162850130Y-74601470D01*
X162736189Y-74325714D01*
X162525395Y-74114552D01*
X162249839Y-74000131D01*
X161951470Y-73999870D01*
X161675714Y-74113811D01*
X161464552Y-74324605D01*
X161350131Y-74600161D01*
X161349870Y-74898530D01*
X161421262Y-75071312D01*
X161249839Y-75000131D01*
X160951470Y-74999870D01*
X160778687Y-75071262D01*
X160849869Y-74899839D01*
X160850130Y-74601470D01*
X160810104Y-74504600D01*
X160810104Y-66361176D01*
X160718952Y-66140571D01*
X160550317Y-65971641D01*
X160329871Y-65880104D01*
X160091176Y-65879896D01*
X159870571Y-65971048D01*
X159760051Y-66081374D01*
X159760104Y-66021176D01*
X159715642Y-65913571D01*
X159799429Y-65878952D01*
X159968359Y-65710317D01*
X160059896Y-65489871D01*
X160060104Y-65251176D01*
X159968952Y-65030571D01*
X159800317Y-64861641D01*
X159579871Y-64770104D01*
X159539939Y-64770069D01*
X159540104Y-64581176D01*
X159450165Y-64363506D01*
X159450165Y-55061862D01*
X159305841Y-54712571D01*
X159038835Y-54445098D01*
X158800104Y-54345968D01*
X158800104Y-33551176D01*
X158708952Y-33330571D01*
X158658555Y-33280086D01*
X158678359Y-33260317D01*
X158769896Y-33039871D01*
X158770104Y-32801176D01*
X158678952Y-32580571D01*
X158510317Y-32411641D01*
X158289871Y-32320104D01*
X158051176Y-32319896D01*
X157830571Y-32411048D01*
X157724972Y-32516462D01*
X157630317Y-32421641D01*
X157409871Y-32330104D01*
X157171176Y-32329896D01*
X156950571Y-32421048D01*
X156781641Y-32589683D01*
X156690104Y-32810129D01*
X156689896Y-33048824D01*
X156781048Y-33269429D01*
X156816470Y-33304913D01*
X156781641Y-33339683D01*
X156690104Y-33560129D01*
X156689896Y-33798824D01*
X156781048Y-34019429D01*
X156836470Y-34074948D01*
X156781641Y-34129683D01*
X156690104Y-34350129D01*
X156689896Y-34588824D01*
X156781048Y-34809429D01*
X156949683Y-34978359D01*
X157170129Y-35069896D01*
X157408824Y-35070104D01*
X157629429Y-34978952D01*
X157735044Y-34873520D01*
X157849683Y-34988359D01*
X158070129Y-35079896D01*
X158308824Y-35080104D01*
X158529429Y-34988952D01*
X158698359Y-34820317D01*
X158789896Y-34599871D01*
X158790104Y-34361176D01*
X158698952Y-34140571D01*
X158638520Y-34080033D01*
X158708359Y-34010317D01*
X158799896Y-33789871D01*
X158800104Y-33551176D01*
X158800104Y-54345968D01*
X158689796Y-54300165D01*
X158311862Y-54299835D01*
X157962571Y-54444159D01*
X157695098Y-54711165D01*
X157550165Y-55060204D01*
X157549835Y-55438138D01*
X157694159Y-55787429D01*
X157961165Y-56054902D01*
X158310204Y-56199835D01*
X158688138Y-56200165D01*
X159037429Y-56055841D01*
X159304902Y-55788835D01*
X159449835Y-55439796D01*
X159450165Y-55061862D01*
X159450165Y-64363506D01*
X159448952Y-64360571D01*
X159280317Y-64191641D01*
X159080104Y-64108505D01*
X159080104Y-61531176D01*
X158988952Y-61310571D01*
X158820317Y-61141641D01*
X158599871Y-61050104D01*
X158361176Y-61049896D01*
X158140571Y-61141048D01*
X157971641Y-61309683D01*
X157880104Y-61530129D01*
X157879896Y-61768824D01*
X157971048Y-61989429D01*
X158139683Y-62158359D01*
X158360129Y-62249896D01*
X158598824Y-62250104D01*
X158819429Y-62158952D01*
X158988359Y-61990317D01*
X159079896Y-61769871D01*
X159080104Y-61531176D01*
X159080104Y-64108505D01*
X159059871Y-64100104D01*
X158821176Y-64099896D01*
X158600571Y-64191048D01*
X158431641Y-64359683D01*
X158340104Y-64580129D01*
X158339896Y-64818824D01*
X158431048Y-65039429D01*
X158599683Y-65208359D01*
X158820129Y-65299896D01*
X158860060Y-65299930D01*
X158859896Y-65488824D01*
X158904357Y-65596428D01*
X158820571Y-65631048D01*
X158651641Y-65799683D01*
X158560104Y-66020129D01*
X158559896Y-66258824D01*
X158651048Y-66479429D01*
X158819683Y-66648359D01*
X159040129Y-66739896D01*
X159278824Y-66740104D01*
X159499429Y-66648952D01*
X159609948Y-66538625D01*
X159609896Y-66598824D01*
X159701048Y-66819429D01*
X159869683Y-66988359D01*
X160090129Y-67079896D01*
X160328824Y-67080104D01*
X160549429Y-66988952D01*
X160718359Y-66820317D01*
X160809896Y-66599871D01*
X160810104Y-66361176D01*
X160810104Y-74504600D01*
X160736189Y-74325714D01*
X160525395Y-74114552D01*
X160249839Y-74000131D01*
X159951470Y-73999870D01*
X159675714Y-74113811D01*
X159464552Y-74324605D01*
X159350131Y-74600161D01*
X159349870Y-74898530D01*
X159421262Y-75071312D01*
X159249839Y-75000131D01*
X159190104Y-75000078D01*
X159190104Y-71881176D01*
X159098952Y-71660571D01*
X158930317Y-71491641D01*
X158709871Y-71400104D01*
X158680087Y-71400078D01*
X158680104Y-71381176D01*
X158588952Y-71160571D01*
X158420317Y-70991641D01*
X158370104Y-70970790D01*
X158370104Y-65601176D01*
X158278952Y-65380571D01*
X158110317Y-65211641D01*
X157889871Y-65120104D01*
X157651176Y-65119896D01*
X157450165Y-65202951D01*
X157450165Y-55061862D01*
X157305841Y-54712571D01*
X157038835Y-54445098D01*
X156689796Y-54300165D01*
X156311862Y-54299835D01*
X155962571Y-54444159D01*
X155921651Y-54485007D01*
X155921651Y-33227408D01*
X155789253Y-32906980D01*
X155544310Y-32661609D01*
X155224113Y-32528651D01*
X154877408Y-32528349D01*
X154556980Y-32660747D01*
X154311609Y-32905690D01*
X154178651Y-33225887D01*
X154178349Y-33572592D01*
X154310747Y-33893020D01*
X154555690Y-34138391D01*
X154875887Y-34271349D01*
X155222592Y-34271651D01*
X155543020Y-34139253D01*
X155788391Y-33894310D01*
X155921349Y-33574113D01*
X155921651Y-33227408D01*
X155921651Y-54485007D01*
X155695098Y-54711165D01*
X155550165Y-55060204D01*
X155549835Y-55438138D01*
X155694159Y-55787429D01*
X155961165Y-56054902D01*
X156310204Y-56199835D01*
X156688138Y-56200165D01*
X157037429Y-56055841D01*
X157304902Y-55788835D01*
X157449835Y-55439796D01*
X157450165Y-55061862D01*
X157450165Y-65202951D01*
X157430571Y-65211048D01*
X157261641Y-65379683D01*
X157170104Y-65600129D01*
X157169896Y-65838824D01*
X157261048Y-66059429D01*
X157429683Y-66228359D01*
X157650129Y-66319896D01*
X157888824Y-66320104D01*
X158109429Y-66228952D01*
X158278359Y-66060317D01*
X158369896Y-65839871D01*
X158370104Y-65601176D01*
X158370104Y-70970790D01*
X158199871Y-70900104D01*
X157961176Y-70899896D01*
X157740571Y-70991048D01*
X157740129Y-70991488D01*
X157720317Y-70971641D01*
X157499871Y-70880104D01*
X157261176Y-70879896D01*
X157160104Y-70921658D01*
X157160104Y-64111176D01*
X157068952Y-63890571D01*
X156900317Y-63721641D01*
X156890104Y-63717400D01*
X156890104Y-58951176D01*
X156798952Y-58730571D01*
X156630317Y-58561641D01*
X156409871Y-58470104D01*
X156171176Y-58469896D01*
X155950571Y-58561048D01*
X155781641Y-58729683D01*
X155690104Y-58950129D01*
X155689896Y-59188824D01*
X155781048Y-59409429D01*
X155949683Y-59578359D01*
X156170129Y-59669896D01*
X156408824Y-59670104D01*
X156629429Y-59578952D01*
X156798359Y-59410317D01*
X156889896Y-59189871D01*
X156890104Y-58951176D01*
X156890104Y-63717400D01*
X156679871Y-63630104D01*
X156649650Y-63630077D01*
X156558952Y-63410571D01*
X156390317Y-63241641D01*
X156169871Y-63150104D01*
X155931176Y-63149896D01*
X155710571Y-63241048D01*
X155541641Y-63409683D01*
X155450104Y-63630129D01*
X155449896Y-63868824D01*
X155541048Y-64089429D01*
X155681470Y-64230097D01*
X155541641Y-64369683D01*
X155450104Y-64590129D01*
X155449896Y-64828824D01*
X155535183Y-65035235D01*
X155450104Y-65240129D01*
X155449896Y-65478824D01*
X155541048Y-65699429D01*
X155709683Y-65868359D01*
X155930129Y-65959896D01*
X156168824Y-65960104D01*
X156389429Y-65868952D01*
X156558359Y-65700317D01*
X156649896Y-65479871D01*
X156650104Y-65241176D01*
X156564816Y-65034764D01*
X156649809Y-64830078D01*
X156678824Y-64830104D01*
X156899429Y-64738952D01*
X157068359Y-64570317D01*
X157159896Y-64349871D01*
X157160104Y-64111176D01*
X157160104Y-70921658D01*
X157040571Y-70971048D01*
X157030104Y-70981496D01*
X157030104Y-68571176D01*
X156938952Y-68350571D01*
X156770317Y-68181641D01*
X156549871Y-68090104D01*
X156311176Y-68089896D01*
X156090571Y-68181048D01*
X155921641Y-68349683D01*
X155830104Y-68570129D01*
X155829896Y-68808824D01*
X155921048Y-69029429D01*
X156089683Y-69198359D01*
X156310129Y-69289896D01*
X156548824Y-69290104D01*
X156769429Y-69198952D01*
X156938359Y-69030317D01*
X157029896Y-68809871D01*
X157030104Y-68571176D01*
X157030104Y-70981496D01*
X156871641Y-71139683D01*
X156780104Y-71360129D01*
X156779896Y-71598824D01*
X156871048Y-71819429D01*
X157039683Y-71988359D01*
X157260129Y-72079896D01*
X157498824Y-72080104D01*
X157719429Y-71988952D01*
X157719870Y-71988511D01*
X157739683Y-72008359D01*
X157960129Y-72099896D01*
X157989912Y-72099921D01*
X157989896Y-72118824D01*
X158081048Y-72339429D01*
X158249683Y-72508359D01*
X158470129Y-72599896D01*
X158708824Y-72600104D01*
X158929429Y-72508952D01*
X159098359Y-72340317D01*
X159189896Y-72119871D01*
X159190104Y-71881176D01*
X159190104Y-75000078D01*
X158951470Y-74999870D01*
X158778687Y-75071262D01*
X158849869Y-74899839D01*
X158850130Y-74601470D01*
X158736189Y-74325714D01*
X158525395Y-74114552D01*
X158249839Y-74000131D01*
X157951470Y-73999870D01*
X157675714Y-74113811D01*
X157464552Y-74324605D01*
X157350131Y-74600161D01*
X157349870Y-74898530D01*
X157421262Y-75071312D01*
X157249839Y-75000131D01*
X156951470Y-74999870D01*
X156675714Y-75113811D01*
X156464552Y-75324605D01*
X156350131Y-75600161D01*
X156349870Y-75898530D01*
X156463811Y-76174286D01*
X156674605Y-76385448D01*
X156950161Y-76499869D01*
X157248530Y-76500130D01*
X157421312Y-76428737D01*
X157350131Y-76600161D01*
X157349870Y-76898530D01*
X157421262Y-77071312D01*
X157249839Y-77000131D01*
X156951470Y-76999870D01*
X156675714Y-77113811D01*
X156464552Y-77324605D01*
X156350131Y-77600161D01*
X156349870Y-77898530D01*
X156463811Y-78174286D01*
X156674605Y-78385448D01*
X156950161Y-78499869D01*
X157248530Y-78500130D01*
X157524286Y-78386189D01*
X157735448Y-78175395D01*
X157849869Y-77899839D01*
X157850130Y-77601470D01*
X157778737Y-77428687D01*
X157950161Y-77499869D01*
X158248530Y-77500130D01*
X158421312Y-77428737D01*
X158350131Y-77600161D01*
X158349870Y-77898530D01*
X158463811Y-78174286D01*
X158674605Y-78385448D01*
X158950161Y-78499869D01*
X159248530Y-78500130D01*
X159524286Y-78386189D01*
X159735448Y-78175395D01*
X159849869Y-77899839D01*
X159850130Y-77601470D01*
X159778737Y-77428687D01*
X159950161Y-77499869D01*
X160248530Y-77500130D01*
X160421312Y-77428737D01*
X160350131Y-77600161D01*
X160349870Y-77898530D01*
X160463811Y-78174286D01*
X160674605Y-78385448D01*
X160950161Y-78499869D01*
X161248530Y-78500130D01*
X161524286Y-78386189D01*
X161735448Y-78175395D01*
X161849869Y-77899839D01*
X161850130Y-77601470D01*
X161778737Y-77428687D01*
X161950161Y-77499869D01*
X162248530Y-77500130D01*
X162421312Y-77428737D01*
X162350131Y-77600161D01*
X162349870Y-77898530D01*
X162463811Y-78174286D01*
X162674605Y-78385448D01*
X162950161Y-78499869D01*
X163248530Y-78500130D01*
X163524286Y-78386189D01*
X163735448Y-78175395D01*
X163756373Y-78125000D01*
X166830000Y-78125000D01*
X166973506Y-78096455D01*
X166973507Y-78096455D01*
X167095165Y-78015165D01*
X171285165Y-73825165D01*
X171366455Y-73703506D01*
X171395000Y-73560000D01*
X171395000Y-67373443D01*
X171499641Y-67268984D01*
X171563811Y-67424286D01*
X171774605Y-67635448D01*
X172050161Y-67749869D01*
X172348530Y-67750130D01*
X172521312Y-67678737D01*
X172450131Y-67850161D01*
X172449870Y-68148530D01*
X172563811Y-68424286D01*
X172774605Y-68635448D01*
X173050161Y-68749869D01*
X173348530Y-68750130D01*
X173624286Y-68636189D01*
X173835448Y-68425395D01*
X173949869Y-68149839D01*
X173950130Y-67851470D01*
X173878737Y-67678687D01*
X174050161Y-67749869D01*
X174348530Y-67750130D01*
X174521312Y-67678737D01*
X174450131Y-67850161D01*
X174449870Y-68148530D01*
X174563811Y-68424286D01*
X174774605Y-68635448D01*
X175050161Y-68749869D01*
X175348530Y-68750130D01*
X175624286Y-68636189D01*
X175835448Y-68425395D01*
X175949869Y-68149839D01*
X175950130Y-67851470D01*
X175950130Y-74183077D01*
X175571741Y-73804027D01*
X174359290Y-73300574D01*
X173046469Y-73299428D01*
X171833142Y-73800765D01*
X170904027Y-74728259D01*
X170400574Y-75940710D01*
X170399428Y-77253531D01*
X170900765Y-78466858D01*
X171828259Y-79395973D01*
X173040710Y-79899426D01*
X173698266Y-79900000D01*
X152410104Y-79900000D01*
X152410104Y-68271176D01*
X152318952Y-68050571D01*
X152150317Y-67881641D01*
X151929871Y-67790104D01*
X151691176Y-67789896D01*
X151470571Y-67881048D01*
X151410104Y-67941409D01*
X151410104Y-44081176D01*
X151318952Y-43860571D01*
X151150317Y-43691641D01*
X150929871Y-43600104D01*
X150691176Y-43599896D01*
X150470571Y-43691048D01*
X150301641Y-43859683D01*
X150210104Y-44080129D01*
X150209896Y-44318824D01*
X150301048Y-44539429D01*
X150469683Y-44708359D01*
X150690129Y-44799896D01*
X150928824Y-44800104D01*
X151149429Y-44708952D01*
X151318359Y-44540317D01*
X151409896Y-44319871D01*
X151410104Y-44081176D01*
X151410104Y-67941409D01*
X151301641Y-68049683D01*
X151210104Y-68270129D01*
X151209896Y-68508824D01*
X151301048Y-68729429D01*
X151469683Y-68898359D01*
X151690129Y-68989896D01*
X151928824Y-68990104D01*
X152149429Y-68898952D01*
X152318359Y-68730317D01*
X152409896Y-68509871D01*
X152410104Y-68271176D01*
X152410104Y-79900000D01*
X149140104Y-79900000D01*
X149140104Y-59037284D01*
X149048952Y-58816679D01*
X148880317Y-58647749D01*
X148659871Y-58556212D01*
X148421176Y-58556004D01*
X148215079Y-58641161D01*
X148019871Y-58560104D01*
X147781176Y-58559896D01*
X147596860Y-58636053D01*
X147441276Y-58571449D01*
X147672592Y-58571651D01*
X147993020Y-58439253D01*
X148238391Y-58194310D01*
X148371349Y-57874113D01*
X148371651Y-57527408D01*
X148239253Y-57206980D01*
X147994310Y-56961609D01*
X147674113Y-56828651D01*
X147327408Y-56828349D01*
X147006980Y-56960747D01*
X146761609Y-57205690D01*
X146628651Y-57525887D01*
X146628349Y-57872592D01*
X146760747Y-58193020D01*
X147005690Y-58438391D01*
X147274481Y-58550003D01*
X147151176Y-58549896D01*
X146942718Y-58636028D01*
X146759871Y-58560104D01*
X146521176Y-58559896D01*
X146300571Y-58651048D01*
X146131641Y-58819683D01*
X146040104Y-59040129D01*
X146039896Y-59278824D01*
X146116898Y-59465185D01*
X146040104Y-59650129D01*
X146039896Y-59888824D01*
X146116898Y-60075185D01*
X146040104Y-60260129D01*
X146039896Y-60498824D01*
X146131048Y-60719429D01*
X146299683Y-60888359D01*
X146520129Y-60979896D01*
X146758824Y-60980104D01*
X146950198Y-60901029D01*
X147140129Y-60979896D01*
X147378824Y-60980104D01*
X147599429Y-60888952D01*
X147768359Y-60720317D01*
X147859896Y-60499871D01*
X147860104Y-60261176D01*
X147776042Y-60057730D01*
X147849896Y-59879871D01*
X147850000Y-59759956D01*
X148018824Y-59760104D01*
X148224920Y-59674946D01*
X148420129Y-59756004D01*
X148658824Y-59756212D01*
X148879429Y-59665060D01*
X149048359Y-59496425D01*
X149139896Y-59275979D01*
X149140104Y-59037284D01*
X149140104Y-79900000D01*
X148173823Y-79900000D01*
X148173823Y-66443176D01*
X148082671Y-66222571D01*
X147914036Y-66053641D01*
X147693590Y-65962104D01*
X147454895Y-65961896D01*
X147234290Y-66053048D01*
X147065360Y-66221683D01*
X146973823Y-66442129D01*
X146973615Y-66680824D01*
X147064767Y-66901429D01*
X147233402Y-67070359D01*
X147453848Y-67161896D01*
X147692543Y-67162104D01*
X147913148Y-67070952D01*
X148082078Y-66902317D01*
X148173615Y-66681871D01*
X148173823Y-66443176D01*
X148173823Y-79900000D01*
X146660104Y-79900000D01*
X146660104Y-71591176D01*
X146568952Y-71370571D01*
X146400317Y-71201641D01*
X146179871Y-71110104D01*
X145941176Y-71109896D01*
X145720571Y-71201048D01*
X145551641Y-71369683D01*
X145460104Y-71590129D01*
X145459896Y-71828824D01*
X145551048Y-72049429D01*
X145719683Y-72218359D01*
X145940129Y-72309896D01*
X146178824Y-72310104D01*
X146399429Y-72218952D01*
X146568359Y-72050317D01*
X146659896Y-71829871D01*
X146660104Y-71591176D01*
X146660104Y-79900000D01*
X136190348Y-79900000D01*
X136190348Y-56531176D01*
X136099196Y-56310571D01*
X135958651Y-56169780D01*
X136098359Y-56030317D01*
X136189896Y-55809871D01*
X136190104Y-55571176D01*
X136098952Y-55350571D01*
X135930317Y-55181641D01*
X135709871Y-55090104D01*
X135471176Y-55089896D01*
X135250571Y-55181048D01*
X135134946Y-55296470D01*
X135020317Y-55181641D01*
X134799871Y-55090104D01*
X134561176Y-55089896D01*
X134340571Y-55181048D01*
X134194885Y-55326479D01*
X134040317Y-55171641D01*
X133819871Y-55080104D01*
X133581176Y-55079896D01*
X133360571Y-55171048D01*
X133191641Y-55339683D01*
X133100104Y-55560129D01*
X133099896Y-55798824D01*
X133191048Y-56019429D01*
X133335166Y-56163799D01*
X133189028Y-56309683D01*
X133097491Y-56530129D01*
X133097283Y-56768824D01*
X133188435Y-56989429D01*
X133270162Y-57071299D01*
X133191641Y-57149683D01*
X133100104Y-57370129D01*
X133099896Y-57608824D01*
X133191048Y-57829429D01*
X133359683Y-57998359D01*
X133580129Y-58089896D01*
X133818824Y-58090104D01*
X134039429Y-57998952D01*
X134200114Y-57838546D01*
X134339683Y-57978359D01*
X134560129Y-58069896D01*
X134798824Y-58070104D01*
X135019429Y-57978952D01*
X135130044Y-57868529D01*
X135239683Y-57978359D01*
X135460129Y-58069896D01*
X135698824Y-58070104D01*
X135919429Y-57978952D01*
X136088359Y-57810317D01*
X136179896Y-57589871D01*
X136180104Y-57351176D01*
X136088952Y-57130571D01*
X136023642Y-57065146D01*
X136098603Y-56990317D01*
X136190140Y-56769871D01*
X136190348Y-56531176D01*
X136190348Y-79900000D01*
X125700000Y-79900000D01*
X125700000Y-77900000D01*
X111421651Y-77900000D01*
X111421651Y-68007408D01*
X111289253Y-67686980D01*
X111044310Y-67441609D01*
X110724113Y-67308651D01*
X110377408Y-67308349D01*
X110056980Y-67440747D01*
X109811609Y-67685690D01*
X109678651Y-68005887D01*
X109678349Y-68352592D01*
X109810747Y-68673020D01*
X110055690Y-68918391D01*
X110375887Y-69051349D01*
X110722592Y-69051651D01*
X111043020Y-68919253D01*
X111288391Y-68674310D01*
X111421349Y-68354113D01*
X111421651Y-68007408D01*
X111421651Y-77900000D01*
X109099782Y-77900000D01*
X109104147Y-79900000D01*
X105350104Y-79900000D01*
X105350104Y-50781176D01*
X105258952Y-50560571D01*
X105090317Y-50391641D01*
X104869871Y-50300104D01*
X104631176Y-50299896D01*
X104410571Y-50391048D01*
X104241641Y-50559683D01*
X104150104Y-50780129D01*
X104149896Y-51018824D01*
X104241048Y-51239429D01*
X104409683Y-51408359D01*
X104630129Y-51499896D01*
X104868824Y-51500104D01*
X105089429Y-51408952D01*
X105258359Y-51240317D01*
X105349896Y-51019871D01*
X105350104Y-50781176D01*
X105350104Y-79900000D01*
X102980190Y-79900000D01*
X102980190Y-55432156D01*
X102813078Y-55027714D01*
X102503913Y-54718009D01*
X102304011Y-54635003D01*
X102502286Y-54553078D01*
X102811991Y-54243913D01*
X102979808Y-53839763D01*
X102980190Y-53402156D01*
X102813078Y-52997714D01*
X102503913Y-52688009D01*
X102304011Y-52605003D01*
X102502286Y-52523078D01*
X102811991Y-52213913D01*
X102979808Y-51809763D01*
X102980190Y-51372156D01*
X102813078Y-50967714D01*
X102503913Y-50658009D01*
X102099763Y-50490192D01*
X101662156Y-50489810D01*
X101257714Y-50656922D01*
X100948009Y-50966087D01*
X100780192Y-51370237D01*
X100779810Y-51807844D01*
X100946922Y-52212286D01*
X101256087Y-52521991D01*
X101455988Y-52604996D01*
X101257714Y-52686922D01*
X100948009Y-52996087D01*
X100780192Y-53400237D01*
X100779810Y-53837844D01*
X100946922Y-54242286D01*
X101256087Y-54551991D01*
X101455988Y-54634996D01*
X101257714Y-54716922D01*
X100948009Y-55026087D01*
X100780192Y-55430237D01*
X100779810Y-55867844D01*
X100946922Y-56272286D01*
X101256087Y-56581991D01*
X101660237Y-56749808D01*
X102097844Y-56750190D01*
X102502286Y-56583078D01*
X102811991Y-56273913D01*
X102979808Y-55869763D01*
X102980190Y-55432156D01*
X102980190Y-79900000D01*
X100440190Y-79900000D01*
X100440190Y-54412156D01*
X100273078Y-54007714D01*
X99963913Y-53698009D01*
X99764011Y-53615003D01*
X99962286Y-53533078D01*
X100271991Y-53223913D01*
X100439808Y-52819763D01*
X100440190Y-52382156D01*
X100273078Y-51977714D01*
X99963913Y-51668009D01*
X99559763Y-51500192D01*
X99122156Y-51499810D01*
X98717714Y-51666922D01*
X98408009Y-51976087D01*
X98240192Y-52380237D01*
X98239810Y-52817844D01*
X98406922Y-53222286D01*
X98716087Y-53531991D01*
X98915988Y-53614996D01*
X98717714Y-53696922D01*
X98408009Y-54006087D01*
X98240192Y-54410237D01*
X98239810Y-54847844D01*
X98406922Y-55252286D01*
X98716087Y-55561991D01*
X99120237Y-55729808D01*
X99557844Y-55730190D01*
X99962286Y-55563078D01*
X100271991Y-55253913D01*
X100439808Y-54849763D01*
X100440190Y-54412156D01*
X100440190Y-79900000D01*
X97530104Y-79900000D01*
X97530104Y-58161176D01*
X97530104Y-56231176D01*
X97438952Y-56010571D01*
X97270317Y-55841641D01*
X97049871Y-55750104D01*
X96811176Y-55749896D01*
X96590571Y-55841048D01*
X96421641Y-56009683D01*
X96330104Y-56230129D01*
X96329896Y-56468824D01*
X96421048Y-56689429D01*
X96589683Y-56858359D01*
X96810129Y-56949896D01*
X97048824Y-56950104D01*
X97269429Y-56858952D01*
X97438359Y-56690317D01*
X97529896Y-56469871D01*
X97530104Y-56231176D01*
X97530104Y-58161176D01*
X97438952Y-57940571D01*
X97270317Y-57771641D01*
X97049871Y-57680104D01*
X96811176Y-57679896D01*
X96590571Y-57771048D01*
X96421641Y-57939683D01*
X96330104Y-58160129D01*
X96329896Y-58398824D01*
X96421048Y-58619429D01*
X96589683Y-58788359D01*
X96810129Y-58879896D01*
X97048824Y-58880104D01*
X97269429Y-58788952D01*
X97438359Y-58620317D01*
X97529896Y-58399871D01*
X97530104Y-58161176D01*
X97530104Y-79900000D01*
X95100104Y-79900000D01*
X95100104Y-47931176D01*
X95008952Y-47710571D01*
X94840317Y-47541641D01*
X94619871Y-47450104D01*
X94381176Y-47449896D01*
X94160571Y-47541048D01*
X93991641Y-47709683D01*
X93900104Y-47930129D01*
X93899896Y-48168824D01*
X93991048Y-48389429D01*
X94159683Y-48558359D01*
X94380129Y-48649896D01*
X94618824Y-48650104D01*
X94839429Y-48558952D01*
X95008359Y-48390317D01*
X95099896Y-48169871D01*
X95100104Y-47931176D01*
X95100104Y-79900000D01*
X93197949Y-79900000D01*
X93197949Y-64843176D01*
X93170104Y-64775785D01*
X93170104Y-51721176D01*
X93078952Y-51500571D01*
X92910317Y-51331641D01*
X92689871Y-51240104D01*
X92480096Y-51239921D01*
X92480104Y-51231176D01*
X92388952Y-51010571D01*
X92220317Y-50841641D01*
X91999871Y-50750104D01*
X91870104Y-50749990D01*
X91870104Y-47011176D01*
X91778952Y-46790571D01*
X91610317Y-46621641D01*
X91389871Y-46530104D01*
X91151176Y-46529896D01*
X90930571Y-46621048D01*
X90761641Y-46789683D01*
X90670104Y-47010129D01*
X90669896Y-47248824D01*
X90761048Y-47469429D01*
X90929683Y-47638359D01*
X91150129Y-47729896D01*
X91388824Y-47730104D01*
X91609429Y-47638952D01*
X91778359Y-47470317D01*
X91869896Y-47249871D01*
X91870104Y-47011176D01*
X91870104Y-50749990D01*
X91761176Y-50749896D01*
X91540571Y-50841048D01*
X91371641Y-51009683D01*
X91280104Y-51230129D01*
X91279896Y-51468824D01*
X91371048Y-51689429D01*
X91539683Y-51858359D01*
X91760129Y-51949896D01*
X91969903Y-51950078D01*
X91969896Y-51958824D01*
X92061048Y-52179429D01*
X92229683Y-52348359D01*
X92450129Y-52439896D01*
X92688824Y-52440104D01*
X92909429Y-52348952D01*
X93078359Y-52180317D01*
X93169896Y-51959871D01*
X93170104Y-51721176D01*
X93170104Y-64775785D01*
X93106797Y-64622571D01*
X92938162Y-64453641D01*
X92717716Y-64362104D01*
X92479021Y-64361896D01*
X92258416Y-64453048D01*
X92089486Y-64621683D01*
X91997949Y-64842129D01*
X91997741Y-65080824D01*
X92088893Y-65301429D01*
X92257528Y-65470359D01*
X92477974Y-65561896D01*
X92716669Y-65562104D01*
X92937274Y-65470952D01*
X93106204Y-65302317D01*
X93197741Y-65081871D01*
X93197949Y-64843176D01*
X93197949Y-79900000D01*
X91210104Y-79900000D01*
X91210104Y-50251176D01*
X91118952Y-50030571D01*
X90950317Y-49861641D01*
X90729871Y-49770104D01*
X90491176Y-49769896D01*
X90270571Y-49861048D01*
X90101641Y-50029683D01*
X90010104Y-50250129D01*
X90009896Y-50488824D01*
X90101048Y-50709429D01*
X90269683Y-50878359D01*
X90490129Y-50969896D01*
X90728824Y-50970104D01*
X90949429Y-50878952D01*
X91118359Y-50710317D01*
X91209896Y-50489871D01*
X91210104Y-50251176D01*
X91210104Y-79900000D01*
X89920104Y-79900000D01*
X89920104Y-50761176D01*
X89828952Y-50540571D01*
X89660317Y-50371641D01*
X89439871Y-50280104D01*
X89201176Y-50279896D01*
X88980571Y-50371048D01*
X88811641Y-50539683D01*
X88720104Y-50760129D01*
X88719896Y-50998824D01*
X88811048Y-51219429D01*
X88979683Y-51388359D01*
X89200129Y-51479896D01*
X89438824Y-51480104D01*
X89659429Y-51388952D01*
X89828359Y-51220317D01*
X89919896Y-50999871D01*
X89920104Y-50761176D01*
X89920104Y-79900000D01*
X89350107Y-79900000D01*
X89350107Y-54881176D01*
X89258955Y-54660571D01*
X89090320Y-54491641D01*
X88869874Y-54400104D01*
X88631179Y-54399896D01*
X88410574Y-54491048D01*
X88375087Y-54526472D01*
X88340317Y-54491641D01*
X88119871Y-54400104D01*
X87881176Y-54399896D01*
X87660571Y-54491048D01*
X87491641Y-54659683D01*
X87400104Y-54880129D01*
X87399896Y-55118824D01*
X87491048Y-55339429D01*
X87659683Y-55508359D01*
X87880129Y-55599896D01*
X88118824Y-55600104D01*
X88339429Y-55508952D01*
X88374915Y-55473527D01*
X88409686Y-55508359D01*
X88630132Y-55599896D01*
X88868827Y-55600104D01*
X89089432Y-55508952D01*
X89258362Y-55340317D01*
X89349899Y-55119871D01*
X89350107Y-54881176D01*
X89350107Y-79900000D01*
X88800104Y-79900000D01*
X88800104Y-62931176D01*
X88708952Y-62710571D01*
X88540317Y-62541641D01*
X88319871Y-62450104D01*
X88081176Y-62449896D01*
X87860571Y-62541048D01*
X87691641Y-62709683D01*
X87600104Y-62930129D01*
X87599896Y-63168824D01*
X87691048Y-63389429D01*
X87859683Y-63558359D01*
X88080129Y-63649896D01*
X88318824Y-63650104D01*
X88539429Y-63558952D01*
X88708359Y-63390317D01*
X88799896Y-63169871D01*
X88800104Y-62931176D01*
X88800104Y-79900000D01*
X82625924Y-79900000D01*
X83716858Y-79449235D01*
X84645973Y-78521741D01*
X85149426Y-77309290D01*
X85150572Y-75996469D01*
X84649235Y-74783142D01*
X83721741Y-73854027D01*
X82509290Y-73350574D01*
X81196469Y-73349428D01*
X79983142Y-73850765D01*
X79054027Y-74778259D01*
X78600000Y-75871678D01*
X78600000Y-63850000D01*
X84450000Y-63850000D01*
X84450000Y-57825305D01*
X84481226Y-57825333D01*
X85189000Y-57532887D01*
X85730984Y-56991849D01*
X86024665Y-56284586D01*
X86025333Y-55518774D01*
X85732887Y-54811000D01*
X85191849Y-54269016D01*
X84484586Y-53975335D01*
X84450000Y-53975304D01*
X84450000Y-47860861D01*
X85847639Y-47137944D01*
X87326364Y-46300000D01*
X98240183Y-46300000D01*
X98239810Y-46727844D01*
X98406922Y-47132286D01*
X98716087Y-47441991D01*
X99120237Y-47609808D01*
X99557844Y-47610190D01*
X99962286Y-47443078D01*
X100271991Y-47133913D01*
X100439808Y-46729763D01*
X100440183Y-46300000D01*
X101124326Y-46300000D01*
X101256087Y-46431991D01*
X101455988Y-46514996D01*
X101257714Y-46596922D01*
X100948009Y-46906087D01*
X100780192Y-47310237D01*
X100779810Y-47747844D01*
X100946922Y-48152286D01*
X101256087Y-48461991D01*
X101660237Y-48629808D01*
X102097844Y-48630190D01*
X102502286Y-48463078D01*
X102811991Y-48153913D01*
X102979808Y-47749763D01*
X102980190Y-47312156D01*
X102813078Y-46907714D01*
X102503913Y-46598009D01*
X102304011Y-46515003D01*
X102502286Y-46433078D01*
X102635596Y-46300000D01*
X109750000Y-46300000D01*
X109750000Y-46350000D01*
X109750000Y-52900000D01*
X111350000Y-52900000D01*
X135050000Y-52900000D01*
X135050000Y-32050000D01*
X135050000Y-31600000D01*
X172732057Y-31600000D01*
X171883142Y-31950765D01*
X170954027Y-32878259D01*
X170450574Y-34090710D01*
X170449428Y-35403531D01*
X170950765Y-36616858D01*
X171878259Y-37545973D01*
X173090710Y-38049426D01*
X174403531Y-38050572D01*
X175616858Y-37549235D01*
X176545973Y-36621741D01*
X177049426Y-35409290D01*
X177050572Y-34096469D01*
X176549235Y-32883142D01*
X175621741Y-31954027D01*
X174769148Y-31600000D01*
X177100103Y-31600000D01*
X177149897Y-79900000D01*
X177149897Y-79900000D01*
G37*
X177149897Y-79900000D02*
X174354915Y-79900000D01*
X175566858Y-79399235D01*
X176495973Y-78471741D01*
X176999426Y-77259290D01*
X177000572Y-75946469D01*
X176499235Y-74733142D01*
X175950130Y-74183077D01*
X175950130Y-67851470D01*
X175836189Y-67575714D01*
X175625395Y-67364552D01*
X175349839Y-67250131D01*
X175051470Y-67249870D01*
X174878687Y-67321262D01*
X174949869Y-67149839D01*
X174950130Y-66851470D01*
X174878737Y-66678687D01*
X175050161Y-66749869D01*
X175348530Y-66750130D01*
X175624286Y-66636189D01*
X175835448Y-66425395D01*
X175949869Y-66149839D01*
X175950130Y-65851470D01*
X175836189Y-65575714D01*
X175625395Y-65364552D01*
X175349839Y-65250131D01*
X175051470Y-65249870D01*
X174878687Y-65321262D01*
X174949869Y-65149839D01*
X174950130Y-64851470D01*
X174878737Y-64678687D01*
X175050161Y-64749869D01*
X175348530Y-64750130D01*
X175624286Y-64636189D01*
X175835448Y-64425395D01*
X175949869Y-64149839D01*
X175950130Y-63851470D01*
X175836189Y-63575714D01*
X175625395Y-63364552D01*
X175349839Y-63250131D01*
X175051470Y-63249870D01*
X174878687Y-63321262D01*
X174949869Y-63149839D01*
X174950130Y-62851470D01*
X174878737Y-62678687D01*
X175050161Y-62749869D01*
X175348530Y-62750130D01*
X175624286Y-62636189D01*
X175835448Y-62425395D01*
X175949869Y-62149839D01*
X175950130Y-61851470D01*
X175836189Y-61575714D01*
X175625395Y-61364552D01*
X175349839Y-61250131D01*
X175051470Y-61249870D01*
X174878687Y-61321262D01*
X174949869Y-61149839D01*
X174950130Y-60851470D01*
X174836189Y-60575714D01*
X174625395Y-60364552D01*
X174349839Y-60250131D01*
X174051470Y-60249870D01*
X173775714Y-60363811D01*
X173649716Y-60489589D01*
X173649716Y-48792709D01*
X173649716Y-45292589D01*
X173452297Y-44814799D01*
X173087063Y-44448928D01*
X172609619Y-44250676D01*
X172092649Y-44250224D01*
X171614859Y-44447643D01*
X171248988Y-44812877D01*
X171050736Y-45290321D01*
X171050284Y-45807291D01*
X171247703Y-46285081D01*
X171612937Y-46650952D01*
X172090381Y-46849204D01*
X172607351Y-46849656D01*
X173085141Y-46652237D01*
X173451012Y-46287003D01*
X173649264Y-45809559D01*
X173649716Y-45292589D01*
X173649716Y-48792709D01*
X173452297Y-48314919D01*
X173087063Y-47949048D01*
X172609619Y-47750796D01*
X172092649Y-47750344D01*
X171614859Y-47947763D01*
X171248988Y-48312997D01*
X171050736Y-48790441D01*
X171050284Y-49307411D01*
X171247703Y-49785201D01*
X171612937Y-50151072D01*
X172090381Y-50349324D01*
X172607351Y-50349776D01*
X173085141Y-50152357D01*
X173451012Y-49787123D01*
X173649264Y-49309679D01*
X173649716Y-48792709D01*
X173649716Y-60489589D01*
X173564552Y-60574605D01*
X173450131Y-60850161D01*
X173449870Y-61148530D01*
X173521262Y-61321312D01*
X173349839Y-61250131D01*
X173051470Y-61249870D01*
X172878687Y-61321262D01*
X172949869Y-61149839D01*
X172950130Y-60851470D01*
X172836189Y-60575714D01*
X172625395Y-60364552D01*
X172349839Y-60250131D01*
X172051470Y-60249870D01*
X171775714Y-60363811D01*
X171564552Y-60574605D01*
X171450131Y-60850161D01*
X171449870Y-61148530D01*
X171563811Y-61424286D01*
X171774605Y-61635448D01*
X172050161Y-61749869D01*
X172348530Y-61750130D01*
X172521312Y-61678737D01*
X172450131Y-61850161D01*
X172449870Y-62148530D01*
X172521262Y-62321312D01*
X172349839Y-62250131D01*
X172051470Y-62249870D01*
X171775714Y-62363811D01*
X171564552Y-62574605D01*
X171450131Y-62850161D01*
X171449870Y-63148530D01*
X171563811Y-63424286D01*
X171774605Y-63635448D01*
X172050161Y-63749869D01*
X172348530Y-63750130D01*
X172521312Y-63678737D01*
X172450131Y-63850161D01*
X172450111Y-63872929D01*
X172448634Y-63872636D01*
X170897346Y-63872636D01*
X170753840Y-63901181D01*
X170632181Y-63982471D01*
X170504639Y-64110012D01*
X170399970Y-64109921D01*
X170399970Y-63959965D01*
X170558824Y-63960104D01*
X170779429Y-63868952D01*
X170948359Y-63700317D01*
X171039896Y-63479871D01*
X171040104Y-63241176D01*
X170948952Y-63020571D01*
X170780317Y-62851641D01*
X170559871Y-62760104D01*
X170321176Y-62759896D01*
X170256819Y-62786487D01*
X166180178Y-58709846D01*
X166058520Y-58628556D01*
X165915013Y-58600011D01*
X165450165Y-58600011D01*
X165450165Y-55061862D01*
X165305841Y-54712571D01*
X165038835Y-54445098D01*
X164689796Y-54300165D01*
X164311862Y-54299835D01*
X163962571Y-54444159D01*
X163695098Y-54711165D01*
X163550165Y-55060204D01*
X163549835Y-55438138D01*
X163694159Y-55787429D01*
X163961165Y-56054902D01*
X164310204Y-56199835D01*
X164688138Y-56200165D01*
X165037429Y-56055841D01*
X165304902Y-55788835D01*
X165449835Y-55439796D01*
X165450165Y-55061862D01*
X165450165Y-58600011D01*
X165274999Y-58600011D01*
X165131493Y-58628556D01*
X165054626Y-58679916D01*
X165031176Y-58679896D01*
X164810571Y-58771048D01*
X164641641Y-58939683D01*
X164550104Y-59160129D01*
X164549896Y-59398824D01*
X164641048Y-59619429D01*
X164809683Y-59788359D01*
X165030129Y-59879896D01*
X165268824Y-59880104D01*
X165489429Y-59788952D01*
X165658359Y-59620317D01*
X165749896Y-59399871D01*
X165749939Y-59350011D01*
X165759683Y-59350011D01*
X165919494Y-59509822D01*
X165889334Y-59522285D01*
X165720404Y-59690920D01*
X165628867Y-59911366D01*
X165628659Y-60150061D01*
X165651359Y-60205001D01*
X164205331Y-60205001D01*
X164009965Y-60009635D01*
X164010104Y-59851176D01*
X163918952Y-59630571D01*
X163750317Y-59461641D01*
X163529871Y-59370104D01*
X163291176Y-59369896D01*
X163070571Y-59461048D01*
X162901641Y-59629683D01*
X162810104Y-59850129D01*
X162809896Y-60088824D01*
X162844001Y-60171366D01*
X162820571Y-60181048D01*
X162651641Y-60349683D01*
X162560104Y-60570129D01*
X162559896Y-60808824D01*
X162651048Y-61029429D01*
X162819683Y-61198359D01*
X163040129Y-61289896D01*
X163278824Y-61290104D01*
X163499429Y-61198952D01*
X163668359Y-61030317D01*
X163756857Y-60817187D01*
X163784836Y-60845166D01*
X163906495Y-60926456D01*
X164050001Y-60955001D01*
X166824671Y-60955001D01*
X168066351Y-62196681D01*
X167910571Y-62261048D01*
X167741641Y-62429683D01*
X167650104Y-62650129D01*
X167649896Y-62888824D01*
X167741048Y-63109429D01*
X167771618Y-63140053D01*
X167591176Y-63139896D01*
X167370571Y-63231048D01*
X167201641Y-63399683D01*
X167110104Y-63620129D01*
X167109896Y-63858824D01*
X167201048Y-64079429D01*
X167369683Y-64248359D01*
X167590129Y-64339896D01*
X167828824Y-64340104D01*
X168049429Y-64248952D01*
X168126684Y-64171830D01*
X168156422Y-64201620D01*
X168376868Y-64293157D01*
X168615563Y-64293365D01*
X168836168Y-64202213D01*
X169005098Y-64033578D01*
X169096635Y-63813132D01*
X169096843Y-63574437D01*
X169005691Y-63353832D01*
X168837056Y-63184902D01*
X168728710Y-63139913D01*
X168758359Y-63110317D01*
X168823385Y-62953715D01*
X169349960Y-63480290D01*
X169349960Y-73155372D01*
X168710104Y-73795228D01*
X168710104Y-72391176D01*
X168618952Y-72170571D01*
X168450317Y-72001641D01*
X168229871Y-71910104D01*
X168075091Y-71909969D01*
X168075091Y-68476029D01*
X167995333Y-68283000D01*
X167847777Y-68135186D01*
X167654887Y-68055092D01*
X167446029Y-68054909D01*
X167253000Y-68134667D01*
X167105186Y-68282223D01*
X167025092Y-68475113D01*
X167024909Y-68683971D01*
X167104667Y-68877000D01*
X167252223Y-69024814D01*
X167445113Y-69104908D01*
X167653971Y-69105091D01*
X167847000Y-69025333D01*
X167994814Y-68877777D01*
X168074908Y-68684887D01*
X168075091Y-68476029D01*
X168075091Y-71909969D01*
X167991176Y-71909896D01*
X167770571Y-72001048D01*
X167601641Y-72169683D01*
X167510104Y-72390129D01*
X167509896Y-72628824D01*
X167601048Y-72849429D01*
X167769683Y-73018359D01*
X167990129Y-73109896D01*
X168228824Y-73110104D01*
X168449429Y-73018952D01*
X168618359Y-72850317D01*
X168709896Y-72629871D01*
X168710104Y-72391176D01*
X168710104Y-73795228D01*
X167130332Y-75375000D01*
X166370104Y-75375000D01*
X166370104Y-69811176D01*
X166278952Y-69590571D01*
X166110317Y-69421641D01*
X165889871Y-69330104D01*
X165651176Y-69329896D01*
X165646760Y-69331720D01*
X165758359Y-69220317D01*
X165849896Y-68999871D01*
X165850104Y-68761176D01*
X165758952Y-68540571D01*
X165590317Y-68371641D01*
X165369871Y-68280104D01*
X165131176Y-68279896D01*
X164910571Y-68371048D01*
X164741641Y-68539683D01*
X164650104Y-68760129D01*
X164649896Y-68998824D01*
X164741048Y-69219429D01*
X164909683Y-69388359D01*
X165130129Y-69479896D01*
X165368824Y-69480104D01*
X165373239Y-69478279D01*
X165261641Y-69589683D01*
X165170104Y-69810129D01*
X165169896Y-70048824D01*
X165261048Y-70269429D01*
X165429683Y-70438359D01*
X165650129Y-70529896D01*
X165888824Y-70530104D01*
X166109429Y-70438952D01*
X166278359Y-70270317D01*
X166369896Y-70049871D01*
X166370104Y-69811176D01*
X166370104Y-75375000D01*
X164535494Y-75375000D01*
X164735448Y-75175395D01*
X164849869Y-74899839D01*
X164850130Y-74601470D01*
X164736189Y-74325714D01*
X164550104Y-74139304D01*
X164550104Y-68771176D01*
X164458952Y-68550571D01*
X164290317Y-68381641D01*
X164069871Y-68290104D01*
X163831176Y-68289896D01*
X163610571Y-68381048D01*
X163441641Y-68549683D01*
X163350104Y-68770129D01*
X163349896Y-69008824D01*
X163441048Y-69229429D01*
X163609683Y-69398359D01*
X163830129Y-69489896D01*
X164068824Y-69490104D01*
X164289429Y-69398952D01*
X164458359Y-69230317D01*
X164549896Y-69009871D01*
X164550104Y-68771176D01*
X164550104Y-74139304D01*
X164525395Y-74114552D01*
X164249839Y-74000131D01*
X163951470Y-73999870D01*
X163675714Y-74113811D01*
X163464552Y-74324605D01*
X163350131Y-74600161D01*
X163349870Y-74898530D01*
X163421262Y-75071312D01*
X163249839Y-75000131D01*
X162980104Y-74999895D01*
X162980104Y-64121176D01*
X162888952Y-63900571D01*
X162720317Y-63731641D01*
X162499871Y-63640104D01*
X162320104Y-63639947D01*
X162320104Y-61871176D01*
X162228952Y-61650571D01*
X162060317Y-61481641D01*
X161839871Y-61390104D01*
X161601176Y-61389896D01*
X161450165Y-61452292D01*
X161450165Y-55061862D01*
X161305841Y-54712571D01*
X161038835Y-54445098D01*
X160689796Y-54300165D01*
X160311862Y-54299835D01*
X159962571Y-54444159D01*
X159695098Y-54711165D01*
X159550165Y-55060204D01*
X159549835Y-55438138D01*
X159694159Y-55787429D01*
X159961165Y-56054902D01*
X160310204Y-56199835D01*
X160688138Y-56200165D01*
X161037429Y-56055841D01*
X161304902Y-55788835D01*
X161449835Y-55439796D01*
X161450165Y-55061862D01*
X161450165Y-61452292D01*
X161380571Y-61481048D01*
X161211641Y-61649683D01*
X161161843Y-61769609D01*
X161080340Y-61572357D01*
X160911705Y-61403427D01*
X160691259Y-61311890D01*
X160452564Y-61311682D01*
X160231959Y-61402834D01*
X160063029Y-61571469D01*
X159971492Y-61791915D01*
X159971284Y-62030610D01*
X160062436Y-62251215D01*
X160231071Y-62420145D01*
X160451517Y-62511682D01*
X160690212Y-62511890D01*
X160910817Y-62420738D01*
X161079747Y-62252103D01*
X161129544Y-62132176D01*
X161211048Y-62329429D01*
X161379683Y-62498359D01*
X161600129Y-62589896D01*
X161838824Y-62590104D01*
X162059429Y-62498952D01*
X162228359Y-62330317D01*
X162319896Y-62109871D01*
X162320104Y-61871176D01*
X162320104Y-63639947D01*
X162261176Y-63639896D01*
X162040571Y-63731048D01*
X161871641Y-63899683D01*
X161780104Y-64120129D01*
X161779896Y-64358824D01*
X161871048Y-64579429D01*
X161961496Y-64670035D01*
X161801176Y-64669896D01*
X161580571Y-64761048D01*
X161411641Y-64929683D01*
X161328502Y-65129902D01*
X161321176Y-65129896D01*
X161100571Y-65221048D01*
X160931641Y-65389683D01*
X160840104Y-65610129D01*
X160839896Y-65848824D01*
X160931048Y-66069429D01*
X161099683Y-66238359D01*
X161320129Y-66329896D01*
X161558824Y-66330104D01*
X161779429Y-66238952D01*
X161948359Y-66070317D01*
X162031497Y-65870097D01*
X162038824Y-65870104D01*
X162259429Y-65778952D01*
X162428359Y-65610317D01*
X162519896Y-65389871D01*
X162520104Y-65151176D01*
X162428952Y-64930571D01*
X162338503Y-64839964D01*
X162498824Y-64840104D01*
X162719429Y-64748952D01*
X162888359Y-64580317D01*
X162979896Y-64359871D01*
X162980104Y-64121176D01*
X162980104Y-74999895D01*
X162951470Y-74999870D01*
X162778687Y-75071262D01*
X162849869Y-74899839D01*
X162850130Y-74601470D01*
X162736189Y-74325714D01*
X162525395Y-74114552D01*
X162249839Y-74000131D01*
X161951470Y-73999870D01*
X161675714Y-74113811D01*
X161464552Y-74324605D01*
X161350131Y-74600161D01*
X161349870Y-74898530D01*
X161421262Y-75071312D01*
X161249839Y-75000131D01*
X160951470Y-74999870D01*
X160778687Y-75071262D01*
X160849869Y-74899839D01*
X160850130Y-74601470D01*
X160810104Y-74504600D01*
X160810104Y-66361176D01*
X160718952Y-66140571D01*
X160550317Y-65971641D01*
X160329871Y-65880104D01*
X160091176Y-65879896D01*
X159870571Y-65971048D01*
X159760051Y-66081374D01*
X159760104Y-66021176D01*
X159715642Y-65913571D01*
X159799429Y-65878952D01*
X159968359Y-65710317D01*
X160059896Y-65489871D01*
X160060104Y-65251176D01*
X159968952Y-65030571D01*
X159800317Y-64861641D01*
X159579871Y-64770104D01*
X159539939Y-64770069D01*
X159540104Y-64581176D01*
X159450165Y-64363506D01*
X159450165Y-55061862D01*
X159305841Y-54712571D01*
X159038835Y-54445098D01*
X158800104Y-54345968D01*
X158800104Y-33551176D01*
X158708952Y-33330571D01*
X158658555Y-33280086D01*
X158678359Y-33260317D01*
X158769896Y-33039871D01*
X158770104Y-32801176D01*
X158678952Y-32580571D01*
X158510317Y-32411641D01*
X158289871Y-32320104D01*
X158051176Y-32319896D01*
X157830571Y-32411048D01*
X157724972Y-32516462D01*
X157630317Y-32421641D01*
X157409871Y-32330104D01*
X157171176Y-32329896D01*
X156950571Y-32421048D01*
X156781641Y-32589683D01*
X156690104Y-32810129D01*
X156689896Y-33048824D01*
X156781048Y-33269429D01*
X156816470Y-33304913D01*
X156781641Y-33339683D01*
X156690104Y-33560129D01*
X156689896Y-33798824D01*
X156781048Y-34019429D01*
X156836470Y-34074948D01*
X156781641Y-34129683D01*
X156690104Y-34350129D01*
X156689896Y-34588824D01*
X156781048Y-34809429D01*
X156949683Y-34978359D01*
X157170129Y-35069896D01*
X157408824Y-35070104D01*
X157629429Y-34978952D01*
X157735044Y-34873520D01*
X157849683Y-34988359D01*
X158070129Y-35079896D01*
X158308824Y-35080104D01*
X158529429Y-34988952D01*
X158698359Y-34820317D01*
X158789896Y-34599871D01*
X158790104Y-34361176D01*
X158698952Y-34140571D01*
X158638520Y-34080033D01*
X158708359Y-34010317D01*
X158799896Y-33789871D01*
X158800104Y-33551176D01*
X158800104Y-54345968D01*
X158689796Y-54300165D01*
X158311862Y-54299835D01*
X157962571Y-54444159D01*
X157695098Y-54711165D01*
X157550165Y-55060204D01*
X157549835Y-55438138D01*
X157694159Y-55787429D01*
X157961165Y-56054902D01*
X158310204Y-56199835D01*
X158688138Y-56200165D01*
X159037429Y-56055841D01*
X159304902Y-55788835D01*
X159449835Y-55439796D01*
X159450165Y-55061862D01*
X159450165Y-64363506D01*
X159448952Y-64360571D01*
X159280317Y-64191641D01*
X159080104Y-64108505D01*
X159080104Y-61531176D01*
X158988952Y-61310571D01*
X158820317Y-61141641D01*
X158599871Y-61050104D01*
X158361176Y-61049896D01*
X158140571Y-61141048D01*
X157971641Y-61309683D01*
X157880104Y-61530129D01*
X157879896Y-61768824D01*
X157971048Y-61989429D01*
X158139683Y-62158359D01*
X158360129Y-62249896D01*
X158598824Y-62250104D01*
X158819429Y-62158952D01*
X158988359Y-61990317D01*
X159079896Y-61769871D01*
X159080104Y-61531176D01*
X159080104Y-64108505D01*
X159059871Y-64100104D01*
X158821176Y-64099896D01*
X158600571Y-64191048D01*
X158431641Y-64359683D01*
X158340104Y-64580129D01*
X158339896Y-64818824D01*
X158431048Y-65039429D01*
X158599683Y-65208359D01*
X158820129Y-65299896D01*
X158860060Y-65299930D01*
X158859896Y-65488824D01*
X158904357Y-65596428D01*
X158820571Y-65631048D01*
X158651641Y-65799683D01*
X158560104Y-66020129D01*
X158559896Y-66258824D01*
X158651048Y-66479429D01*
X158819683Y-66648359D01*
X159040129Y-66739896D01*
X159278824Y-66740104D01*
X159499429Y-66648952D01*
X159609948Y-66538625D01*
X159609896Y-66598824D01*
X159701048Y-66819429D01*
X159869683Y-66988359D01*
X160090129Y-67079896D01*
X160328824Y-67080104D01*
X160549429Y-66988952D01*
X160718359Y-66820317D01*
X160809896Y-66599871D01*
X160810104Y-66361176D01*
X160810104Y-74504600D01*
X160736189Y-74325714D01*
X160525395Y-74114552D01*
X160249839Y-74000131D01*
X159951470Y-73999870D01*
X159675714Y-74113811D01*
X159464552Y-74324605D01*
X159350131Y-74600161D01*
X159349870Y-74898530D01*
X159421262Y-75071312D01*
X159249839Y-75000131D01*
X159190104Y-75000078D01*
X159190104Y-71881176D01*
X159098952Y-71660571D01*
X158930317Y-71491641D01*
X158709871Y-71400104D01*
X158680087Y-71400078D01*
X158680104Y-71381176D01*
X158588952Y-71160571D01*
X158420317Y-70991641D01*
X158370104Y-70970790D01*
X158370104Y-65601176D01*
X158278952Y-65380571D01*
X158110317Y-65211641D01*
X157889871Y-65120104D01*
X157651176Y-65119896D01*
X157450165Y-65202951D01*
X157450165Y-55061862D01*
X157305841Y-54712571D01*
X157038835Y-54445098D01*
X156689796Y-54300165D01*
X156311862Y-54299835D01*
X155962571Y-54444159D01*
X155921651Y-54485007D01*
X155921651Y-33227408D01*
X155789253Y-32906980D01*
X155544310Y-32661609D01*
X155224113Y-32528651D01*
X154877408Y-32528349D01*
X154556980Y-32660747D01*
X154311609Y-32905690D01*
X154178651Y-33225887D01*
X154178349Y-33572592D01*
X154310747Y-33893020D01*
X154555690Y-34138391D01*
X154875887Y-34271349D01*
X155222592Y-34271651D01*
X155543020Y-34139253D01*
X155788391Y-33894310D01*
X155921349Y-33574113D01*
X155921651Y-33227408D01*
X155921651Y-54485007D01*
X155695098Y-54711165D01*
X155550165Y-55060204D01*
X155549835Y-55438138D01*
X155694159Y-55787429D01*
X155961165Y-56054902D01*
X156310204Y-56199835D01*
X156688138Y-56200165D01*
X157037429Y-56055841D01*
X157304902Y-55788835D01*
X157449835Y-55439796D01*
X157450165Y-55061862D01*
X157450165Y-65202951D01*
X157430571Y-65211048D01*
X157261641Y-65379683D01*
X157170104Y-65600129D01*
X157169896Y-65838824D01*
X157261048Y-66059429D01*
X157429683Y-66228359D01*
X157650129Y-66319896D01*
X157888824Y-66320104D01*
X158109429Y-66228952D01*
X158278359Y-66060317D01*
X158369896Y-65839871D01*
X158370104Y-65601176D01*
X158370104Y-70970790D01*
X158199871Y-70900104D01*
X157961176Y-70899896D01*
X157740571Y-70991048D01*
X157740129Y-70991488D01*
X157720317Y-70971641D01*
X157499871Y-70880104D01*
X157261176Y-70879896D01*
X157160104Y-70921658D01*
X157160104Y-64111176D01*
X157068952Y-63890571D01*
X156900317Y-63721641D01*
X156890104Y-63717400D01*
X156890104Y-58951176D01*
X156798952Y-58730571D01*
X156630317Y-58561641D01*
X156409871Y-58470104D01*
X156171176Y-58469896D01*
X155950571Y-58561048D01*
X155781641Y-58729683D01*
X155690104Y-58950129D01*
X155689896Y-59188824D01*
X155781048Y-59409429D01*
X155949683Y-59578359D01*
X156170129Y-59669896D01*
X156408824Y-59670104D01*
X156629429Y-59578952D01*
X156798359Y-59410317D01*
X156889896Y-59189871D01*
X156890104Y-58951176D01*
X156890104Y-63717400D01*
X156679871Y-63630104D01*
X156649650Y-63630077D01*
X156558952Y-63410571D01*
X156390317Y-63241641D01*
X156169871Y-63150104D01*
X155931176Y-63149896D01*
X155710571Y-63241048D01*
X155541641Y-63409683D01*
X155450104Y-63630129D01*
X155449896Y-63868824D01*
X155541048Y-64089429D01*
X155681470Y-64230097D01*
X155541641Y-64369683D01*
X155450104Y-64590129D01*
X155449896Y-64828824D01*
X155535183Y-65035235D01*
X155450104Y-65240129D01*
X155449896Y-65478824D01*
X155541048Y-65699429D01*
X155709683Y-65868359D01*
X155930129Y-65959896D01*
X156168824Y-65960104D01*
X156389429Y-65868952D01*
X156558359Y-65700317D01*
X156649896Y-65479871D01*
X156650104Y-65241176D01*
X156564816Y-65034764D01*
X156649809Y-64830078D01*
X156678824Y-64830104D01*
X156899429Y-64738952D01*
X157068359Y-64570317D01*
X157159896Y-64349871D01*
X157160104Y-64111176D01*
X157160104Y-70921658D01*
X157040571Y-70971048D01*
X157030104Y-70981496D01*
X157030104Y-68571176D01*
X156938952Y-68350571D01*
X156770317Y-68181641D01*
X156549871Y-68090104D01*
X156311176Y-68089896D01*
X156090571Y-68181048D01*
X155921641Y-68349683D01*
X155830104Y-68570129D01*
X155829896Y-68808824D01*
X155921048Y-69029429D01*
X156089683Y-69198359D01*
X156310129Y-69289896D01*
X156548824Y-69290104D01*
X156769429Y-69198952D01*
X156938359Y-69030317D01*
X157029896Y-68809871D01*
X157030104Y-68571176D01*
X157030104Y-70981496D01*
X156871641Y-71139683D01*
X156780104Y-71360129D01*
X156779896Y-71598824D01*
X156871048Y-71819429D01*
X157039683Y-71988359D01*
X157260129Y-72079896D01*
X157498824Y-72080104D01*
X157719429Y-71988952D01*
X157719870Y-71988511D01*
X157739683Y-72008359D01*
X157960129Y-72099896D01*
X157989912Y-72099921D01*
X157989896Y-72118824D01*
X158081048Y-72339429D01*
X158249683Y-72508359D01*
X158470129Y-72599896D01*
X158708824Y-72600104D01*
X158929429Y-72508952D01*
X159098359Y-72340317D01*
X159189896Y-72119871D01*
X159190104Y-71881176D01*
X159190104Y-75000078D01*
X158951470Y-74999870D01*
X158778687Y-75071262D01*
X158849869Y-74899839D01*
X158850130Y-74601470D01*
X158736189Y-74325714D01*
X158525395Y-74114552D01*
X158249839Y-74000131D01*
X157951470Y-73999870D01*
X157675714Y-74113811D01*
X157464552Y-74324605D01*
X157350131Y-74600161D01*
X157349870Y-74898530D01*
X157421262Y-75071312D01*
X157249839Y-75000131D01*
X156951470Y-74999870D01*
X156675714Y-75113811D01*
X156464552Y-75324605D01*
X156350131Y-75600161D01*
X156349870Y-75898530D01*
X156463811Y-76174286D01*
X156674605Y-76385448D01*
X156950161Y-76499869D01*
X157248530Y-76500130D01*
X157421312Y-76428737D01*
X157350131Y-76600161D01*
X157349870Y-76898530D01*
X157421262Y-77071312D01*
X157249839Y-77000131D01*
X156951470Y-76999870D01*
X156675714Y-77113811D01*
X156464552Y-77324605D01*
X156350131Y-77600161D01*
X156349870Y-77898530D01*
X156463811Y-78174286D01*
X156674605Y-78385448D01*
X156950161Y-78499869D01*
X157248530Y-78500130D01*
X157524286Y-78386189D01*
X157735448Y-78175395D01*
X157849869Y-77899839D01*
X157850130Y-77601470D01*
X157778737Y-77428687D01*
X157950161Y-77499869D01*
X158248530Y-77500130D01*
X158421312Y-77428737D01*
X158350131Y-77600161D01*
X158349870Y-77898530D01*
X158463811Y-78174286D01*
X158674605Y-78385448D01*
X158950161Y-78499869D01*
X159248530Y-78500130D01*
X159524286Y-78386189D01*
X159735448Y-78175395D01*
X159849869Y-77899839D01*
X159850130Y-77601470D01*
X159778737Y-77428687D01*
X159950161Y-77499869D01*
X160248530Y-77500130D01*
X160421312Y-77428737D01*
X160350131Y-77600161D01*
X160349870Y-77898530D01*
X160463811Y-78174286D01*
X160674605Y-78385448D01*
X160950161Y-78499869D01*
X161248530Y-78500130D01*
X161524286Y-78386189D01*
X161735448Y-78175395D01*
X161849869Y-77899839D01*
X161850130Y-77601470D01*
X161778737Y-77428687D01*
X161950161Y-77499869D01*
X162248530Y-77500130D01*
X162421312Y-77428737D01*
X162350131Y-77600161D01*
X162349870Y-77898530D01*
X162463811Y-78174286D01*
X162674605Y-78385448D01*
X162950161Y-78499869D01*
X163248530Y-78500130D01*
X163524286Y-78386189D01*
X163735448Y-78175395D01*
X163756373Y-78125000D01*
X166830000Y-78125000D01*
X166973506Y-78096455D01*
X166973507Y-78096455D01*
X167095165Y-78015165D01*
X171285165Y-73825165D01*
X171366455Y-73703506D01*
X171395000Y-73560000D01*
X171395000Y-67373443D01*
X171499641Y-67268984D01*
X171563811Y-67424286D01*
X171774605Y-67635448D01*
X172050161Y-67749869D01*
X172348530Y-67750130D01*
X172521312Y-67678737D01*
X172450131Y-67850161D01*
X172449870Y-68148530D01*
X172563811Y-68424286D01*
X172774605Y-68635448D01*
X173050161Y-68749869D01*
X173348530Y-68750130D01*
X173624286Y-68636189D01*
X173835448Y-68425395D01*
X173949869Y-68149839D01*
X173950130Y-67851470D01*
X173878737Y-67678687D01*
X174050161Y-67749869D01*
X174348530Y-67750130D01*
X174521312Y-67678737D01*
X174450131Y-67850161D01*
X174449870Y-68148530D01*
X174563811Y-68424286D01*
X174774605Y-68635448D01*
X175050161Y-68749869D01*
X175348530Y-68750130D01*
X175624286Y-68636189D01*
X175835448Y-68425395D01*
X175949869Y-68149839D01*
X175950130Y-67851470D01*
X175950130Y-74183077D01*
X175571741Y-73804027D01*
X174359290Y-73300574D01*
X173046469Y-73299428D01*
X171833142Y-73800765D01*
X170904027Y-74728259D01*
X170400574Y-75940710D01*
X170399428Y-77253531D01*
X170900765Y-78466858D01*
X171828259Y-79395973D01*
X173040710Y-79899426D01*
X173698266Y-79900000D01*
X152410104Y-79900000D01*
X152410104Y-68271176D01*
X152318952Y-68050571D01*
X152150317Y-67881641D01*
X151929871Y-67790104D01*
X151691176Y-67789896D01*
X151470571Y-67881048D01*
X151410104Y-67941409D01*
X151410104Y-44081176D01*
X151318952Y-43860571D01*
X151150317Y-43691641D01*
X150929871Y-43600104D01*
X150691176Y-43599896D01*
X150470571Y-43691048D01*
X150301641Y-43859683D01*
X150210104Y-44080129D01*
X150209896Y-44318824D01*
X150301048Y-44539429D01*
X150469683Y-44708359D01*
X150690129Y-44799896D01*
X150928824Y-44800104D01*
X151149429Y-44708952D01*
X151318359Y-44540317D01*
X151409896Y-44319871D01*
X151410104Y-44081176D01*
X151410104Y-67941409D01*
X151301641Y-68049683D01*
X151210104Y-68270129D01*
X151209896Y-68508824D01*
X151301048Y-68729429D01*
X151469683Y-68898359D01*
X151690129Y-68989896D01*
X151928824Y-68990104D01*
X152149429Y-68898952D01*
X152318359Y-68730317D01*
X152409896Y-68509871D01*
X152410104Y-68271176D01*
X152410104Y-79900000D01*
X149140104Y-79900000D01*
X149140104Y-59037284D01*
X149048952Y-58816679D01*
X148880317Y-58647749D01*
X148659871Y-58556212D01*
X148421176Y-58556004D01*
X148215079Y-58641161D01*
X148019871Y-58560104D01*
X147781176Y-58559896D01*
X147596860Y-58636053D01*
X147441276Y-58571449D01*
X147672592Y-58571651D01*
X147993020Y-58439253D01*
X148238391Y-58194310D01*
X148371349Y-57874113D01*
X148371651Y-57527408D01*
X148239253Y-57206980D01*
X147994310Y-56961609D01*
X147674113Y-56828651D01*
X147327408Y-56828349D01*
X147006980Y-56960747D01*
X146761609Y-57205690D01*
X146628651Y-57525887D01*
X146628349Y-57872592D01*
X146760747Y-58193020D01*
X147005690Y-58438391D01*
X147274481Y-58550003D01*
X147151176Y-58549896D01*
X146942718Y-58636028D01*
X146759871Y-58560104D01*
X146521176Y-58559896D01*
X146300571Y-58651048D01*
X146131641Y-58819683D01*
X146040104Y-59040129D01*
X146039896Y-59278824D01*
X146116898Y-59465185D01*
X146040104Y-59650129D01*
X146039896Y-59888824D01*
X146116898Y-60075185D01*
X146040104Y-60260129D01*
X146039896Y-60498824D01*
X146131048Y-60719429D01*
X146299683Y-60888359D01*
X146520129Y-60979896D01*
X146758824Y-60980104D01*
X146950198Y-60901029D01*
X147140129Y-60979896D01*
X147378824Y-60980104D01*
X147599429Y-60888952D01*
X147768359Y-60720317D01*
X147859896Y-60499871D01*
X147860104Y-60261176D01*
X147776042Y-60057730D01*
X147849896Y-59879871D01*
X147850000Y-59759956D01*
X148018824Y-59760104D01*
X148224920Y-59674946D01*
X148420129Y-59756004D01*
X148658824Y-59756212D01*
X148879429Y-59665060D01*
X149048359Y-59496425D01*
X149139896Y-59275979D01*
X149140104Y-59037284D01*
X149140104Y-79900000D01*
X148173823Y-79900000D01*
X148173823Y-66443176D01*
X148082671Y-66222571D01*
X147914036Y-66053641D01*
X147693590Y-65962104D01*
X147454895Y-65961896D01*
X147234290Y-66053048D01*
X147065360Y-66221683D01*
X146973823Y-66442129D01*
X146973615Y-66680824D01*
X147064767Y-66901429D01*
X147233402Y-67070359D01*
X147453848Y-67161896D01*
X147692543Y-67162104D01*
X147913148Y-67070952D01*
X148082078Y-66902317D01*
X148173615Y-66681871D01*
X148173823Y-66443176D01*
X148173823Y-79900000D01*
X146660104Y-79900000D01*
X146660104Y-71591176D01*
X146568952Y-71370571D01*
X146400317Y-71201641D01*
X146179871Y-71110104D01*
X145941176Y-71109896D01*
X145720571Y-71201048D01*
X145551641Y-71369683D01*
X145460104Y-71590129D01*
X145459896Y-71828824D01*
X145551048Y-72049429D01*
X145719683Y-72218359D01*
X145940129Y-72309896D01*
X146178824Y-72310104D01*
X146399429Y-72218952D01*
X146568359Y-72050317D01*
X146659896Y-71829871D01*
X146660104Y-71591176D01*
X146660104Y-79900000D01*
X136190348Y-79900000D01*
X136190348Y-56531176D01*
X136099196Y-56310571D01*
X135958651Y-56169780D01*
X136098359Y-56030317D01*
X136189896Y-55809871D01*
X136190104Y-55571176D01*
X136098952Y-55350571D01*
X135930317Y-55181641D01*
X135709871Y-55090104D01*
X135471176Y-55089896D01*
X135250571Y-55181048D01*
X135134946Y-55296470D01*
X135020317Y-55181641D01*
X134799871Y-55090104D01*
X134561176Y-55089896D01*
X134340571Y-55181048D01*
X134194885Y-55326479D01*
X134040317Y-55171641D01*
X133819871Y-55080104D01*
X133581176Y-55079896D01*
X133360571Y-55171048D01*
X133191641Y-55339683D01*
X133100104Y-55560129D01*
X133099896Y-55798824D01*
X133191048Y-56019429D01*
X133335166Y-56163799D01*
X133189028Y-56309683D01*
X133097491Y-56530129D01*
X133097283Y-56768824D01*
X133188435Y-56989429D01*
X133270162Y-57071299D01*
X133191641Y-57149683D01*
X133100104Y-57370129D01*
X133099896Y-57608824D01*
X133191048Y-57829429D01*
X133359683Y-57998359D01*
X133580129Y-58089896D01*
X133818824Y-58090104D01*
X134039429Y-57998952D01*
X134200114Y-57838546D01*
X134339683Y-57978359D01*
X134560129Y-58069896D01*
X134798824Y-58070104D01*
X135019429Y-57978952D01*
X135130044Y-57868529D01*
X135239683Y-57978359D01*
X135460129Y-58069896D01*
X135698824Y-58070104D01*
X135919429Y-57978952D01*
X136088359Y-57810317D01*
X136179896Y-57589871D01*
X136180104Y-57351176D01*
X136088952Y-57130571D01*
X136023642Y-57065146D01*
X136098603Y-56990317D01*
X136190140Y-56769871D01*
X136190348Y-56531176D01*
X136190348Y-79900000D01*
X125700000Y-79900000D01*
X125700000Y-77900000D01*
X111421651Y-77900000D01*
X111421651Y-68007408D01*
X111289253Y-67686980D01*
X111044310Y-67441609D01*
X110724113Y-67308651D01*
X110377408Y-67308349D01*
X110056980Y-67440747D01*
X109811609Y-67685690D01*
X109678651Y-68005887D01*
X109678349Y-68352592D01*
X109810747Y-68673020D01*
X110055690Y-68918391D01*
X110375887Y-69051349D01*
X110722592Y-69051651D01*
X111043020Y-68919253D01*
X111288391Y-68674310D01*
X111421349Y-68354113D01*
X111421651Y-68007408D01*
X111421651Y-77900000D01*
X109099782Y-77900000D01*
X109104147Y-79900000D01*
X105350104Y-79900000D01*
X105350104Y-50781176D01*
X105258952Y-50560571D01*
X105090317Y-50391641D01*
X104869871Y-50300104D01*
X104631176Y-50299896D01*
X104410571Y-50391048D01*
X104241641Y-50559683D01*
X104150104Y-50780129D01*
X104149896Y-51018824D01*
X104241048Y-51239429D01*
X104409683Y-51408359D01*
X104630129Y-51499896D01*
X104868824Y-51500104D01*
X105089429Y-51408952D01*
X105258359Y-51240317D01*
X105349896Y-51019871D01*
X105350104Y-50781176D01*
X105350104Y-79900000D01*
X102980190Y-79900000D01*
X102980190Y-55432156D01*
X102813078Y-55027714D01*
X102503913Y-54718009D01*
X102304011Y-54635003D01*
X102502286Y-54553078D01*
X102811991Y-54243913D01*
X102979808Y-53839763D01*
X102980190Y-53402156D01*
X102813078Y-52997714D01*
X102503913Y-52688009D01*
X102304011Y-52605003D01*
X102502286Y-52523078D01*
X102811991Y-52213913D01*
X102979808Y-51809763D01*
X102980190Y-51372156D01*
X102813078Y-50967714D01*
X102503913Y-50658009D01*
X102099763Y-50490192D01*
X101662156Y-50489810D01*
X101257714Y-50656922D01*
X100948009Y-50966087D01*
X100780192Y-51370237D01*
X100779810Y-51807844D01*
X100946922Y-52212286D01*
X101256087Y-52521991D01*
X101455988Y-52604996D01*
X101257714Y-52686922D01*
X100948009Y-52996087D01*
X100780192Y-53400237D01*
X100779810Y-53837844D01*
X100946922Y-54242286D01*
X101256087Y-54551991D01*
X101455988Y-54634996D01*
X101257714Y-54716922D01*
X100948009Y-55026087D01*
X100780192Y-55430237D01*
X100779810Y-55867844D01*
X100946922Y-56272286D01*
X101256087Y-56581991D01*
X101660237Y-56749808D01*
X102097844Y-56750190D01*
X102502286Y-56583078D01*
X102811991Y-56273913D01*
X102979808Y-55869763D01*
X102980190Y-55432156D01*
X102980190Y-79900000D01*
X100440190Y-79900000D01*
X100440190Y-54412156D01*
X100273078Y-54007714D01*
X99963913Y-53698009D01*
X99764011Y-53615003D01*
X99962286Y-53533078D01*
X100271991Y-53223913D01*
X100439808Y-52819763D01*
X100440190Y-52382156D01*
X100273078Y-51977714D01*
X99963913Y-51668009D01*
X99559763Y-51500192D01*
X99122156Y-51499810D01*
X98717714Y-51666922D01*
X98408009Y-51976087D01*
X98240192Y-52380237D01*
X98239810Y-52817844D01*
X98406922Y-53222286D01*
X98716087Y-53531991D01*
X98915988Y-53614996D01*
X98717714Y-53696922D01*
X98408009Y-54006087D01*
X98240192Y-54410237D01*
X98239810Y-54847844D01*
X98406922Y-55252286D01*
X98716087Y-55561991D01*
X99120237Y-55729808D01*
X99557844Y-55730190D01*
X99962286Y-55563078D01*
X100271991Y-55253913D01*
X100439808Y-54849763D01*
X100440190Y-54412156D01*
X100440190Y-79900000D01*
X97530104Y-79900000D01*
X97530104Y-58161176D01*
X97530104Y-56231176D01*
X97438952Y-56010571D01*
X97270317Y-55841641D01*
X97049871Y-55750104D01*
X96811176Y-55749896D01*
X96590571Y-55841048D01*
X96421641Y-56009683D01*
X96330104Y-56230129D01*
X96329896Y-56468824D01*
X96421048Y-56689429D01*
X96589683Y-56858359D01*
X96810129Y-56949896D01*
X97048824Y-56950104D01*
X97269429Y-56858952D01*
X97438359Y-56690317D01*
X97529896Y-56469871D01*
X97530104Y-56231176D01*
X97530104Y-58161176D01*
X97438952Y-57940571D01*
X97270317Y-57771641D01*
X97049871Y-57680104D01*
X96811176Y-57679896D01*
X96590571Y-57771048D01*
X96421641Y-57939683D01*
X96330104Y-58160129D01*
X96329896Y-58398824D01*
X96421048Y-58619429D01*
X96589683Y-58788359D01*
X96810129Y-58879896D01*
X97048824Y-58880104D01*
X97269429Y-58788952D01*
X97438359Y-58620317D01*
X97529896Y-58399871D01*
X97530104Y-58161176D01*
X97530104Y-79900000D01*
X95100104Y-79900000D01*
X95100104Y-47931176D01*
X95008952Y-47710571D01*
X94840317Y-47541641D01*
X94619871Y-47450104D01*
X94381176Y-47449896D01*
X94160571Y-47541048D01*
X93991641Y-47709683D01*
X93900104Y-47930129D01*
X93899896Y-48168824D01*
X93991048Y-48389429D01*
X94159683Y-48558359D01*
X94380129Y-48649896D01*
X94618824Y-48650104D01*
X94839429Y-48558952D01*
X95008359Y-48390317D01*
X95099896Y-48169871D01*
X95100104Y-47931176D01*
X95100104Y-79900000D01*
X93197949Y-79900000D01*
X93197949Y-64843176D01*
X93170104Y-64775785D01*
X93170104Y-51721176D01*
X93078952Y-51500571D01*
X92910317Y-51331641D01*
X92689871Y-51240104D01*
X92480096Y-51239921D01*
X92480104Y-51231176D01*
X92388952Y-51010571D01*
X92220317Y-50841641D01*
X91999871Y-50750104D01*
X91870104Y-50749990D01*
X91870104Y-47011176D01*
X91778952Y-46790571D01*
X91610317Y-46621641D01*
X91389871Y-46530104D01*
X91151176Y-46529896D01*
X90930571Y-46621048D01*
X90761641Y-46789683D01*
X90670104Y-47010129D01*
X90669896Y-47248824D01*
X90761048Y-47469429D01*
X90929683Y-47638359D01*
X91150129Y-47729896D01*
X91388824Y-47730104D01*
X91609429Y-47638952D01*
X91778359Y-47470317D01*
X91869896Y-47249871D01*
X91870104Y-47011176D01*
X91870104Y-50749990D01*
X91761176Y-50749896D01*
X91540571Y-50841048D01*
X91371641Y-51009683D01*
X91280104Y-51230129D01*
X91279896Y-51468824D01*
X91371048Y-51689429D01*
X91539683Y-51858359D01*
X91760129Y-51949896D01*
X91969903Y-51950078D01*
X91969896Y-51958824D01*
X92061048Y-52179429D01*
X92229683Y-52348359D01*
X92450129Y-52439896D01*
X92688824Y-52440104D01*
X92909429Y-52348952D01*
X93078359Y-52180317D01*
X93169896Y-51959871D01*
X93170104Y-51721176D01*
X93170104Y-64775785D01*
X93106797Y-64622571D01*
X92938162Y-64453641D01*
X92717716Y-64362104D01*
X92479021Y-64361896D01*
X92258416Y-64453048D01*
X92089486Y-64621683D01*
X91997949Y-64842129D01*
X91997741Y-65080824D01*
X92088893Y-65301429D01*
X92257528Y-65470359D01*
X92477974Y-65561896D01*
X92716669Y-65562104D01*
X92937274Y-65470952D01*
X93106204Y-65302317D01*
X93197741Y-65081871D01*
X93197949Y-64843176D01*
X93197949Y-79900000D01*
X91210104Y-79900000D01*
X91210104Y-50251176D01*
X91118952Y-50030571D01*
X90950317Y-49861641D01*
X90729871Y-49770104D01*
X90491176Y-49769896D01*
X90270571Y-49861048D01*
X90101641Y-50029683D01*
X90010104Y-50250129D01*
X90009896Y-50488824D01*
X90101048Y-50709429D01*
X90269683Y-50878359D01*
X90490129Y-50969896D01*
X90728824Y-50970104D01*
X90949429Y-50878952D01*
X91118359Y-50710317D01*
X91209896Y-50489871D01*
X91210104Y-50251176D01*
X91210104Y-79900000D01*
X89920104Y-79900000D01*
X89920104Y-50761176D01*
X89828952Y-50540571D01*
X89660317Y-50371641D01*
X89439871Y-50280104D01*
X89201176Y-50279896D01*
X88980571Y-50371048D01*
X88811641Y-50539683D01*
X88720104Y-50760129D01*
X88719896Y-50998824D01*
X88811048Y-51219429D01*
X88979683Y-51388359D01*
X89200129Y-51479896D01*
X89438824Y-51480104D01*
X89659429Y-51388952D01*
X89828359Y-51220317D01*
X89919896Y-50999871D01*
X89920104Y-50761176D01*
X89920104Y-79900000D01*
X89350107Y-79900000D01*
X89350107Y-54881176D01*
X89258955Y-54660571D01*
X89090320Y-54491641D01*
X88869874Y-54400104D01*
X88631179Y-54399896D01*
X88410574Y-54491048D01*
X88375087Y-54526472D01*
X88340317Y-54491641D01*
X88119871Y-54400104D01*
X87881176Y-54399896D01*
X87660571Y-54491048D01*
X87491641Y-54659683D01*
X87400104Y-54880129D01*
X87399896Y-55118824D01*
X87491048Y-55339429D01*
X87659683Y-55508359D01*
X87880129Y-55599896D01*
X88118824Y-55600104D01*
X88339429Y-55508952D01*
X88374915Y-55473527D01*
X88409686Y-55508359D01*
X88630132Y-55599896D01*
X88868827Y-55600104D01*
X89089432Y-55508952D01*
X89258362Y-55340317D01*
X89349899Y-55119871D01*
X89350107Y-54881176D01*
X89350107Y-79900000D01*
X88800104Y-79900000D01*
X88800104Y-62931176D01*
X88708952Y-62710571D01*
X88540317Y-62541641D01*
X88319871Y-62450104D01*
X88081176Y-62449896D01*
X87860571Y-62541048D01*
X87691641Y-62709683D01*
X87600104Y-62930129D01*
X87599896Y-63168824D01*
X87691048Y-63389429D01*
X87859683Y-63558359D01*
X88080129Y-63649896D01*
X88318824Y-63650104D01*
X88539429Y-63558952D01*
X88708359Y-63390317D01*
X88799896Y-63169871D01*
X88800104Y-62931176D01*
X88800104Y-79900000D01*
X82625924Y-79900000D01*
X83716858Y-79449235D01*
X84645973Y-78521741D01*
X85149426Y-77309290D01*
X85150572Y-75996469D01*
X84649235Y-74783142D01*
X83721741Y-73854027D01*
X82509290Y-73350574D01*
X81196469Y-73349428D01*
X79983142Y-73850765D01*
X79054027Y-74778259D01*
X78600000Y-75871678D01*
X78600000Y-63850000D01*
X84450000Y-63850000D01*
X84450000Y-57825305D01*
X84481226Y-57825333D01*
X85189000Y-57532887D01*
X85730984Y-56991849D01*
X86024665Y-56284586D01*
X86025333Y-55518774D01*
X85732887Y-54811000D01*
X85191849Y-54269016D01*
X84484586Y-53975335D01*
X84450000Y-53975304D01*
X84450000Y-47860861D01*
X85847639Y-47137944D01*
X87326364Y-46300000D01*
X98240183Y-46300000D01*
X98239810Y-46727844D01*
X98406922Y-47132286D01*
X98716087Y-47441991D01*
X99120237Y-47609808D01*
X99557844Y-47610190D01*
X99962286Y-47443078D01*
X100271991Y-47133913D01*
X100439808Y-46729763D01*
X100440183Y-46300000D01*
X101124326Y-46300000D01*
X101256087Y-46431991D01*
X101455988Y-46514996D01*
X101257714Y-46596922D01*
X100948009Y-46906087D01*
X100780192Y-47310237D01*
X100779810Y-47747844D01*
X100946922Y-48152286D01*
X101256087Y-48461991D01*
X101660237Y-48629808D01*
X102097844Y-48630190D01*
X102502286Y-48463078D01*
X102811991Y-48153913D01*
X102979808Y-47749763D01*
X102980190Y-47312156D01*
X102813078Y-46907714D01*
X102503913Y-46598009D01*
X102304011Y-46515003D01*
X102502286Y-46433078D01*
X102635596Y-46300000D01*
X109750000Y-46300000D01*
X109750000Y-46350000D01*
X109750000Y-52900000D01*
X111350000Y-52900000D01*
X135050000Y-52900000D01*
X135050000Y-32050000D01*
X135050000Y-31600000D01*
X172732057Y-31600000D01*
X171883142Y-31950765D01*
X170954027Y-32878259D01*
X170450574Y-34090710D01*
X170449428Y-35403531D01*
X170950765Y-36616858D01*
X171878259Y-37545973D01*
X173090710Y-38049426D01*
X174403531Y-38050572D01*
X175616858Y-37549235D01*
X176545973Y-36621741D01*
X177049426Y-35409290D01*
X177050572Y-34096469D01*
X176549235Y-32883142D01*
X175621741Y-31954027D01*
X174769148Y-31600000D01*
X177100103Y-31600000D01*
X177149897Y-79900000D01*
M02*
