%FSLAX46Y46*%
G04 Gerber Fmt 4.6, Leading zero omitted, Abs format (unit mm)*
G04 Created by KiCad (PCBNEW (2014-08-26 BZR 5101)-product) date Sat 30 Aug 2014 02:05:03 AM EDT*
%MOMM*%
G01*
G04 APERTURE LIST*
%ADD10C,0.100000*%
%ADD11C,0.187500*%
%ADD12R,1.498600X1.300480*%
%ADD13C,1.150000*%
%ADD14R,1.300480X1.498600*%
%ADD15R,0.899160X1.000760*%
%ADD16R,1.000760X0.899160*%
%ADD17R,1.700000X0.800000*%
%ADD18R,1.100000X1.000000*%
%ADD19C,1.600000*%
%ADD20C,2.200000*%
%ADD21C,1.300000*%
%ADD22C,0.900000*%
%ADD23C,1.143000*%
%ADD24C,1.998980*%
%ADD25R,0.700000X0.500000*%
%ADD26R,0.889000X1.397000*%
%ADD27R,0.635000X1.143000*%
%ADD28R,1.143000X0.635000*%
%ADD29R,1.143000X0.419100*%
%ADD30R,0.406400X1.270000*%
%ADD31C,6.000000*%
%ADD32C,0.600000*%
%ADD33C,0.450000*%
%ADD34C,0.254000*%
%ADD35C,0.200000*%
%ADD36C,0.250000*%
%ADD37C,0.150000*%
%ADD38C,0.300000*%
%ADD39C,0.350000*%
%ADD40C,0.500000*%
%ADD41C,0.050000*%
G04 APERTURE END LIST*
D10*
D11*
X124652857Y-78929286D02*
X124652857Y-79429286D01*
X124474286Y-78643571D02*
X124295714Y-79179286D01*
X124760000Y-79179286D01*
D12*
X101250000Y-35752500D03*
X101250000Y-33847500D03*
D13*
X130750000Y-51150000D03*
X138250000Y-51150000D03*
D14*
X88002500Y-47150000D03*
X86097500Y-47150000D03*
D15*
X92598160Y-59800000D03*
X94101840Y-59800000D03*
X92598160Y-58100000D03*
X94101840Y-58100000D03*
D16*
X96080000Y-58358160D03*
X96080000Y-59861840D03*
X85850000Y-57948160D03*
X85850000Y-59451840D03*
D15*
X89101840Y-61900000D03*
X87598160Y-61900000D03*
X92598160Y-61400000D03*
X94101840Y-61400000D03*
D16*
X157800000Y-68701840D03*
X157800000Y-67198160D03*
D15*
X156498160Y-60700000D03*
X158001840Y-60700000D03*
D16*
X164350000Y-60448160D03*
X164350000Y-61951840D03*
X164520000Y-67941840D03*
X164520000Y-66438160D03*
D15*
X162801840Y-68500000D03*
X161298160Y-68500000D03*
X162801840Y-67000000D03*
X161298160Y-67000000D03*
D17*
X97250000Y-33450000D03*
X92250000Y-33450000D03*
X92250000Y-35950000D03*
X97250000Y-35950000D03*
D18*
X87550000Y-58800000D03*
X89150000Y-58800000D03*
X89150000Y-60300000D03*
X87550000Y-60300000D03*
D19*
X99340000Y-54630000D03*
X99340000Y-52600000D03*
X99340000Y-46510000D03*
X99340000Y-44480000D03*
X101880000Y-55650000D03*
X101880000Y-53620000D03*
X101880000Y-51590000D03*
X101880000Y-47530000D03*
X101880000Y-45500000D03*
D20*
X80930000Y-57610000D03*
X80930000Y-41480000D03*
D21*
X160500000Y-55250000D03*
X162500000Y-55250000D03*
X164500000Y-55250000D03*
X158500000Y-55250000D03*
X156500000Y-55250000D03*
D22*
X157100000Y-77750000D03*
X158100000Y-76750000D03*
X159100000Y-77750000D03*
X160100000Y-76750000D03*
X161100000Y-77750000D03*
X162100000Y-76750000D03*
X163100000Y-77750000D03*
X164100000Y-76750000D03*
X157100000Y-75750000D03*
X160100000Y-74750000D03*
X159100000Y-75750000D03*
X158100000Y-74750000D03*
X162100000Y-74750000D03*
X161100000Y-75750000D03*
X163100000Y-75750000D03*
X164100000Y-74750000D03*
X175200000Y-68000000D03*
X174200000Y-67000000D03*
X175200000Y-66000000D03*
X174200000Y-65000000D03*
X175200000Y-64000000D03*
X174200000Y-63000000D03*
X175200000Y-62000000D03*
X174200000Y-61000000D03*
X173200000Y-68000000D03*
X172200000Y-65000000D03*
X173200000Y-66000000D03*
X172200000Y-67000000D03*
X172200000Y-63000000D03*
X173200000Y-64000000D03*
X173200000Y-62000000D03*
X172200000Y-61000000D03*
D23*
X99050000Y-31800000D03*
X99000000Y-38150000D03*
X145900000Y-40250000D03*
X155050000Y-33400000D03*
X147500000Y-57700000D03*
X110550000Y-68180000D03*
D24*
X172350000Y-49050060D03*
X172350000Y-45549940D03*
D25*
X123163000Y-34500000D03*
X123163000Y-35500000D03*
X123163000Y-33500000D03*
X120837000Y-35500000D03*
X120837000Y-33500000D03*
X120837000Y-34500000D03*
D26*
X118802500Y-34450000D03*
X116897500Y-34450000D03*
D27*
X117288000Y-38950000D03*
X118812000Y-38950000D03*
D28*
X146450000Y-65038000D03*
X146450000Y-66562000D03*
X148600000Y-66562000D03*
X148600000Y-65038000D03*
D27*
X94288000Y-46900000D03*
X95812000Y-46900000D03*
D28*
X90700000Y-60312000D03*
X90700000Y-58788000D03*
D26*
X118802500Y-36850000D03*
X116897500Y-36850000D03*
D29*
X107933000Y-35985716D03*
X107933000Y-36557144D03*
X107933000Y-37128572D03*
X107933000Y-37700000D03*
X107933000Y-33700000D03*
X107933000Y-34300000D03*
X107933000Y-34842860D03*
X107933000Y-35414288D03*
X113270000Y-34792860D03*
X113270000Y-37078572D03*
X113270000Y-35935716D03*
X113270000Y-36507144D03*
X113270000Y-33650000D03*
X113270000Y-34250000D03*
X113270000Y-35364288D03*
X113270000Y-37650000D03*
D30*
X87359000Y-49244000D03*
X87994000Y-49244000D03*
X88654400Y-49244000D03*
X89314800Y-49244000D03*
X89949800Y-49244000D03*
X90610200Y-49244000D03*
X91270600Y-49244000D03*
X91905600Y-49244000D03*
X92566000Y-49244000D03*
X93201000Y-49244000D03*
X93861400Y-49244000D03*
X94521800Y-49244000D03*
X95156800Y-49244000D03*
X95817200Y-49244000D03*
X95817200Y-56356000D03*
X95156800Y-56356000D03*
X94547200Y-56356000D03*
X93861400Y-56356000D03*
X93201000Y-56356000D03*
X92566000Y-56356000D03*
X91905600Y-56356000D03*
X91270600Y-56356000D03*
X90610200Y-56356000D03*
X89949800Y-56356000D03*
X89314800Y-56356000D03*
X88654400Y-56356000D03*
X87994000Y-56356000D03*
X87359000Y-56356000D03*
D31*
X173750000Y-34750000D03*
X81850000Y-76650000D03*
X173700000Y-76600000D03*
X81900000Y-34750000D03*
D32*
X112060000Y-35450000D03*
X106697158Y-32900080D03*
X114700000Y-36599321D03*
X110372593Y-36297407D03*
X111030000Y-36350000D03*
X114400000Y-33750000D03*
X107950000Y-38650000D03*
X111030000Y-35540000D03*
X110080000Y-35570000D03*
X128900000Y-41350000D03*
X129700000Y-41350000D03*
X130510000Y-41350000D03*
X130520000Y-42100000D03*
X129700000Y-42090000D03*
X128890000Y-42090000D03*
X127400000Y-46150000D03*
X130700000Y-45300000D03*
X130700000Y-44650000D03*
X130000000Y-44650000D03*
X130000000Y-45300000D03*
X106750000Y-35300000D03*
X115500000Y-36900000D03*
X122400000Y-37850000D03*
X158170000Y-32920000D03*
X157290000Y-32930000D03*
X157290000Y-33680000D03*
X157290000Y-34470000D03*
X158190000Y-34480000D03*
X158200000Y-33670000D03*
X135590000Y-55690000D03*
X135590244Y-56650000D03*
X135580000Y-57470000D03*
X134680000Y-57470000D03*
X134680304Y-56650000D03*
X134680000Y-55690000D03*
X133700000Y-55680000D03*
X133697387Y-56650000D03*
X133700000Y-57490000D03*
X150810000Y-44200000D03*
X165240000Y-62040000D03*
X139900000Y-52224991D03*
X89150000Y-47150000D03*
X91330000Y-54860000D03*
X91980000Y-54860000D03*
X92650000Y-54850000D03*
X93300000Y-54850000D03*
X105950000Y-46900000D03*
X112750000Y-55800000D03*
X150300000Y-40100000D03*
X153000000Y-40100000D03*
X152050000Y-40100000D03*
X151150000Y-40100000D03*
X150300000Y-41000000D03*
X151150000Y-41000000D03*
X152050000Y-41000000D03*
X153000000Y-41000000D03*
X143100000Y-47220000D03*
X139900000Y-51140000D03*
X141670000Y-53950000D03*
X142790000Y-53940000D03*
X141670000Y-56650000D03*
X142780000Y-56640000D03*
X142770000Y-55800000D03*
X142790000Y-54800000D03*
X141670000Y-55790000D03*
X141670000Y-54830000D03*
X149220000Y-63370000D03*
X149210000Y-64160000D03*
X148320000Y-64140000D03*
X148320000Y-63390000D03*
X142950000Y-63630000D03*
X142940000Y-62840000D03*
X144510000Y-62830000D03*
X144520000Y-63640000D03*
X143020000Y-67160000D03*
X143010000Y-67940000D03*
X143800000Y-67930000D03*
X144590000Y-67930000D03*
X144590000Y-67150000D03*
X143800000Y-67160000D03*
X143750000Y-63620000D03*
X143750000Y-62820000D03*
X149070000Y-31950000D03*
X108700000Y-61790000D03*
X109910000Y-61790000D03*
X111100000Y-61800000D03*
X112120000Y-61800000D03*
X153520000Y-78600000D03*
X123840000Y-61920000D03*
X167630000Y-67760000D03*
X160380000Y-68520000D03*
X156520000Y-67190000D03*
X159060000Y-60680000D03*
X153470000Y-66240000D03*
X176080000Y-54710000D03*
X176890000Y-54710000D03*
X176890000Y-55530000D03*
X176110000Y-55530000D03*
X176110000Y-56340000D03*
X176890000Y-56340000D03*
D33*
X163460000Y-56070000D03*
D32*
X166228763Y-60031237D03*
X88200000Y-63050000D03*
X92597845Y-64962000D03*
X96930000Y-56350000D03*
X96930000Y-58280000D03*
X165250000Y-68880000D03*
X163950000Y-68890000D03*
X156430000Y-68690000D03*
X156290000Y-59070000D03*
X146060000Y-71710000D03*
X151810000Y-68390000D03*
X148540000Y-59156108D03*
X147900000Y-59160000D03*
X147270000Y-59150000D03*
X146640000Y-59160000D03*
X146640000Y-59770000D03*
X147250000Y-59760000D03*
X147260000Y-60380000D03*
X146640000Y-60380000D03*
X122340000Y-44830000D03*
X122460000Y-41970000D03*
X106700000Y-38450000D03*
X88000000Y-55000000D03*
X88750003Y-55000000D03*
X104750000Y-50900000D03*
X94500000Y-48050000D03*
X167710000Y-63740000D03*
X168496739Y-63693261D03*
X156560000Y-64230000D03*
X156050000Y-64710000D03*
X159160000Y-66140000D03*
X160210000Y-66480000D03*
X171020000Y-66900000D03*
X165150000Y-59280000D03*
X168250000Y-62770000D03*
X157770000Y-65720000D03*
X156050000Y-65360000D03*
X156050000Y-63750000D03*
X170440000Y-63360000D03*
X162380000Y-64240000D03*
X163410000Y-59970000D03*
X163160000Y-60690000D03*
X170470000Y-66340000D03*
X170490000Y-64710000D03*
X161720000Y-61990000D03*
X157380000Y-71480000D03*
X160571388Y-61911786D03*
X158480000Y-61650000D03*
X158080000Y-71500000D03*
X158590000Y-72000000D03*
X124250000Y-34880000D03*
X124250000Y-34200000D03*
X124250000Y-33530000D03*
X105850000Y-37800000D03*
X120200000Y-36730000D03*
X120450000Y-45450000D03*
X114400000Y-35150000D03*
X147573719Y-66562000D03*
X89320000Y-50880000D03*
D33*
X167550000Y-68580000D03*
D32*
X90610000Y-50370000D03*
X161440000Y-65730000D03*
X91270000Y-47130000D03*
X161920000Y-65270000D03*
X91880000Y-51350000D03*
X158940000Y-64700000D03*
X92570000Y-51840000D03*
X159460000Y-65370000D03*
X165770000Y-69930000D03*
X168110000Y-72510000D03*
D34*
X99000000Y-36650000D02*
X99897500Y-35752500D01*
X99897500Y-35752500D02*
X101250000Y-35752500D01*
X99000000Y-38150000D02*
X99000000Y-36650000D01*
X95650000Y-33946000D02*
X95650000Y-36285802D01*
X95650000Y-36285802D02*
X97514198Y-38150000D01*
X97514198Y-38150000D02*
X98191777Y-38150000D01*
X98191777Y-38150000D02*
X99000000Y-38150000D01*
X97250000Y-33450000D02*
X96146000Y-33450000D01*
X96146000Y-33450000D02*
X95650000Y-33946000D01*
D35*
X112134253Y-35364288D02*
X112151931Y-35381966D01*
D36*
X112058437Y-35440104D02*
X112134253Y-35364288D01*
X112134253Y-35364288D02*
X113270000Y-35364288D01*
X107933000Y-34300000D02*
X107111500Y-34300000D01*
X107111500Y-34300000D02*
X106697158Y-33885658D01*
X106697158Y-33885658D02*
X106697158Y-32900080D01*
D34*
X99050000Y-33781587D02*
X99050000Y-32608223D01*
X99050000Y-35254000D02*
X99050000Y-33781587D01*
X99050000Y-33781587D02*
X99115913Y-33847500D01*
X99115913Y-33847500D02*
X101250000Y-33847500D01*
X97250000Y-35950000D02*
X98354000Y-35950000D01*
X98354000Y-35950000D02*
X99050000Y-35254000D01*
X99050000Y-32608223D02*
X99050000Y-31800000D01*
D36*
X114700000Y-36800000D02*
X114700000Y-36599321D01*
X114700000Y-36599321D02*
X114700000Y-36411092D01*
X114700000Y-36411092D02*
X114224624Y-35935716D01*
X114224624Y-35935716D02*
X114091500Y-35935716D01*
X114091500Y-35935716D02*
X113270000Y-35935716D01*
D37*
X111030000Y-36350000D02*
X110425186Y-36350000D01*
X110425186Y-36350000D02*
X110372593Y-36297407D01*
X111030000Y-35540000D02*
X111030000Y-36350000D01*
D38*
X114400000Y-33750000D02*
X113370000Y-33750000D01*
X113370000Y-33750000D02*
X113270000Y-33650000D01*
D39*
X107950000Y-38650000D02*
X107950000Y-37730123D01*
X107950000Y-37730123D02*
X107933000Y-37713123D01*
D36*
X110000000Y-35150000D02*
X110000000Y-35850000D01*
X111450000Y-35850000D02*
X111100000Y-35850000D01*
X111500000Y-35150000D02*
X111100000Y-35150000D01*
X109500000Y-35850000D02*
X110000000Y-35850000D01*
X109450000Y-35150000D02*
X110000000Y-35150000D01*
X113270000Y-34250000D02*
X111850000Y-34250000D01*
X111850000Y-34250000D02*
X111750000Y-34150000D01*
X113270000Y-37078572D02*
X111778572Y-37078572D01*
X111778572Y-37078572D02*
X111750000Y-37050000D01*
X111750000Y-36150000D02*
X111450000Y-35850000D01*
X111750000Y-37050000D02*
X111750000Y-36150000D01*
X112350000Y-37650000D02*
X111750000Y-37050000D01*
X112908050Y-37650000D02*
X112350000Y-37650000D01*
X113270000Y-37650000D02*
X112908050Y-37650000D01*
X111750000Y-34900000D02*
X111500000Y-35150000D01*
X111750000Y-34150000D02*
X111750000Y-34900000D01*
X112250000Y-33650000D02*
X111750000Y-34150000D01*
X113270000Y-33650000D02*
X112250000Y-33650000D01*
X109250000Y-36100000D02*
X109500000Y-35850000D01*
X109250000Y-37204500D02*
X109250000Y-36100000D01*
X107933000Y-37700000D02*
X108754500Y-37700000D01*
X108754500Y-37700000D02*
X109250000Y-37204500D01*
X109250000Y-34950000D02*
X109450000Y-35150000D01*
X109250000Y-34195500D02*
X109250000Y-34950000D01*
X107933000Y-33700000D02*
X108754500Y-33700000D01*
X108754500Y-33700000D02*
X109250000Y-34195500D01*
X116897500Y-36596000D02*
X116897500Y-36850000D01*
X114551500Y-34250000D02*
X116897500Y-36596000D01*
X114400000Y-34234183D02*
X114384183Y-34250000D01*
X114400000Y-33750000D02*
X114400000Y-34234183D01*
X114384183Y-34250000D02*
X114551500Y-34250000D01*
X113270000Y-34250000D02*
X114384183Y-34250000D01*
X114751500Y-34450000D02*
X116897500Y-34450000D01*
X114551500Y-34250000D02*
X114751500Y-34450000D01*
X106750000Y-35300000D02*
X106750000Y-35688908D01*
X106750000Y-35688908D02*
X107046808Y-35985716D01*
X107046808Y-35985716D02*
X107111500Y-35985716D01*
X107111500Y-35985716D02*
X107933000Y-35985716D01*
D40*
X157290000Y-34470000D02*
X157290000Y-44210000D01*
X150820000Y-44210000D02*
X150810000Y-44200000D01*
X157290000Y-44210000D02*
X150820000Y-44210000D01*
X150810000Y-44588908D02*
X150640000Y-44758908D01*
X150810000Y-44200000D02*
X150810000Y-44588908D01*
X150640000Y-44758908D02*
X150640000Y-52890000D01*
X135864999Y-55415001D02*
X135590000Y-55690000D01*
X138304999Y-52975001D02*
X135864999Y-55415001D01*
X150554999Y-52975001D02*
X138304999Y-52975001D01*
X150640000Y-52890000D02*
X150554999Y-52975001D01*
D37*
X165240000Y-62060000D02*
X165131840Y-61951840D01*
D39*
X87994000Y-47158500D02*
X88002500Y-47150000D01*
X87994000Y-49244000D02*
X87994000Y-47158500D01*
D36*
X91596501Y-57566901D02*
X91270600Y-57241000D01*
X91270600Y-57241000D02*
X91270600Y-56356000D01*
X91596501Y-59365501D02*
X91596501Y-57566901D01*
X91531501Y-59430501D02*
X91596501Y-59365501D01*
X89830501Y-59430501D02*
X91531501Y-59430501D01*
X89200000Y-58800000D02*
X89830501Y-59430501D01*
X89150000Y-58800000D02*
X89200000Y-58800000D01*
X90586002Y-61900000D02*
X89801420Y-61900000D01*
X89801420Y-61900000D02*
X89101840Y-61900000D01*
X91596501Y-60889501D02*
X90586002Y-61900000D01*
X91596501Y-59495501D02*
X91596501Y-60889501D01*
X91531501Y-59430501D02*
X91596501Y-59495501D01*
X89101840Y-62650380D02*
X89101840Y-61900000D01*
X89101840Y-63036162D02*
X89101840Y-62650380D01*
X88488001Y-63650001D02*
X89101840Y-63036162D01*
X87813199Y-63650001D02*
X88488001Y-63650001D01*
X85850000Y-61686802D02*
X87813199Y-63650001D01*
X85850000Y-59451840D02*
X85850000Y-61686802D01*
X94288000Y-47154000D02*
X94288000Y-46900000D01*
X93720500Y-48218100D02*
X93720500Y-47721500D01*
X93720500Y-47721500D02*
X94288000Y-47154000D01*
X93861400Y-48359000D02*
X93720500Y-48218100D01*
X93861400Y-49244000D02*
X93861400Y-48359000D01*
X93861400Y-49244000D02*
X93861400Y-56356000D01*
D38*
X88002500Y-47150000D02*
X89150000Y-47150000D01*
X91270600Y-54870600D02*
X91250000Y-54850000D01*
X91270600Y-56356000D02*
X91270600Y-54870600D01*
X91905600Y-54855600D02*
X91900000Y-54850000D01*
X91905600Y-56356000D02*
X91905600Y-54855600D01*
X91900000Y-54850000D02*
X92600000Y-54850000D01*
X92600000Y-54850000D02*
X93300000Y-54850000D01*
D35*
X148600000Y-64420000D02*
X148320000Y-64140000D01*
X148600000Y-65038000D02*
X148600000Y-64420000D01*
D36*
X166308160Y-66438160D02*
X164520000Y-66438160D01*
X167630000Y-67760000D02*
X166308160Y-66438160D01*
X161278160Y-68520000D02*
X161298160Y-68500000D01*
X160390000Y-68520000D02*
X161278160Y-68520000D01*
X161298160Y-68500000D02*
X161298160Y-67000000D01*
X157781840Y-67180000D02*
X157800000Y-67198160D01*
X156500000Y-67180000D02*
X157781840Y-67180000D01*
X164458160Y-62060000D02*
X164350000Y-61951840D01*
X165240000Y-62060000D02*
X164458160Y-62060000D01*
X158021840Y-60680000D02*
X158001840Y-60700000D01*
X159060000Y-60680000D02*
X158021840Y-60680000D01*
D35*
X87500000Y-60300000D02*
X87550000Y-60300000D01*
X86699999Y-59499999D02*
X87500000Y-60300000D01*
X86699999Y-58059999D02*
X86699999Y-59499999D01*
X86759999Y-57999999D02*
X86699999Y-58059999D01*
X89314800Y-57191000D02*
X88505801Y-57999999D01*
X89314800Y-56356000D02*
X89314800Y-57191000D01*
X87550000Y-61851840D02*
X87598160Y-61900000D01*
X87550000Y-60300000D02*
X87550000Y-61851840D01*
D36*
X87359000Y-57974040D02*
X87358041Y-57974999D01*
X87359000Y-56356000D02*
X87359000Y-57974040D01*
X87333120Y-57948160D02*
X87359000Y-57974040D01*
X85850000Y-57948160D02*
X87333120Y-57948160D01*
X87598160Y-62448160D02*
X88200000Y-63050000D01*
X87598160Y-61900000D02*
X87598160Y-62448160D01*
D35*
X92566000Y-56356000D02*
X93201000Y-56356000D01*
X92566000Y-58067840D02*
X92598160Y-58100000D01*
X92566000Y-56356000D02*
X92566000Y-58067840D01*
X92566000Y-59767840D02*
X92598160Y-59800000D01*
X92566000Y-56356000D02*
X92566000Y-59767840D01*
X92598160Y-59800000D02*
X92598160Y-61400000D01*
D37*
X87362141Y-57999999D02*
X86759999Y-57999999D01*
D35*
X88505801Y-57999999D02*
X87362141Y-57999999D01*
D38*
X92598160Y-64961685D02*
X92597845Y-64962000D01*
X92598160Y-61400000D02*
X92598160Y-64961685D01*
X96924000Y-56356000D02*
X96930000Y-56350000D01*
X95817200Y-56356000D02*
X96924000Y-56356000D01*
X95868160Y-58280000D02*
X95850000Y-58298160D01*
X96930000Y-58280000D02*
X95868160Y-58280000D01*
D35*
X165270000Y-68691840D02*
X164520000Y-67941840D01*
X165270000Y-68900000D02*
X165270000Y-68691840D01*
X163201840Y-68900000D02*
X162801840Y-68500000D01*
X163930000Y-68900000D02*
X163201840Y-68900000D01*
X163930000Y-68900000D02*
X165270000Y-68900000D01*
X162801840Y-68500000D02*
X162801840Y-67000000D01*
X157788160Y-68690000D02*
X157800000Y-68701840D01*
X156430000Y-68690000D02*
X157788160Y-68690000D01*
D36*
X156290000Y-60491840D02*
X156498160Y-60700000D01*
X156290000Y-59070000D02*
X156290000Y-60491840D01*
X164718160Y-60080000D02*
X164350000Y-60448160D01*
X166280000Y-60080000D02*
X164718160Y-60080000D01*
D35*
X164500000Y-60298160D02*
X164350000Y-60448160D01*
X164500000Y-55250000D02*
X164500000Y-60298160D01*
D40*
X149380000Y-68390000D02*
X151810000Y-68390000D01*
X146060000Y-71710000D02*
X149380000Y-68390000D01*
X151810000Y-63550000D02*
X156290000Y-59070000D01*
X151810000Y-68390000D02*
X151810000Y-63550000D01*
D36*
X164350000Y-59748580D02*
X164350000Y-60448160D01*
X164081419Y-59479999D02*
X164350000Y-59748580D01*
X162189999Y-59479999D02*
X164081419Y-59479999D01*
X159479997Y-62190001D02*
X162189999Y-59479999D01*
X157237781Y-62190001D02*
X159479997Y-62190001D01*
X156498160Y-61450380D02*
X157237781Y-62190001D01*
X156498160Y-60700000D02*
X156498160Y-61450380D01*
D35*
X146450000Y-65038000D02*
X146450000Y-64520500D01*
D37*
X146640000Y-64330500D02*
X146640000Y-60380000D01*
X146450000Y-64520500D02*
X146640000Y-64330500D01*
D39*
X86097500Y-47982500D02*
X86097500Y-47150000D01*
X87359000Y-49244000D02*
X86097500Y-47982500D01*
D34*
X90500000Y-33800000D02*
X90850000Y-33450000D01*
X90850000Y-33450000D02*
X92250000Y-33450000D01*
X90500000Y-42400000D02*
X90500000Y-33800000D01*
X91800000Y-43700000D02*
X90500000Y-42400000D01*
X95398630Y-43700000D02*
X91800000Y-43700000D01*
X99340000Y-46510000D02*
X98208630Y-46510000D01*
X98208630Y-46510000D02*
X95398630Y-43700000D01*
X94800000Y-36150000D02*
X94600000Y-35950000D01*
X94600000Y-35950000D02*
X92250000Y-35950000D01*
X94800000Y-41200000D02*
X94800000Y-36150000D01*
X95800000Y-42200000D02*
X94800000Y-41200000D01*
X101100000Y-42200000D02*
X95800000Y-42200000D01*
X103061001Y-44161001D02*
X101100000Y-42200000D01*
X101880000Y-47530000D02*
X103061001Y-46348999D01*
X103061001Y-46348999D02*
X103061001Y-44161001D01*
D37*
X107211500Y-37128572D02*
X107933000Y-37128572D01*
X106700000Y-37640072D02*
X107211500Y-37128572D01*
X106700000Y-38450000D02*
X106700000Y-37640072D01*
D36*
X87994000Y-55006000D02*
X88000000Y-55000000D01*
X87994000Y-56356000D02*
X87994000Y-55006000D01*
X88654400Y-55095603D02*
X88750003Y-55000000D01*
X88654400Y-56356000D02*
X88654400Y-55095603D01*
D35*
X89162000Y-60312000D02*
X89150000Y-60300000D01*
X90700000Y-60312000D02*
X89162000Y-60312000D01*
X94547200Y-56356000D02*
X94547200Y-55521000D01*
X94547200Y-55521000D02*
X95438200Y-54630000D01*
X95438200Y-54630000D02*
X98208630Y-54630000D01*
X98208630Y-54630000D02*
X99340000Y-54630000D01*
X95156800Y-49244000D02*
X95156800Y-50079000D01*
X95156800Y-50079000D02*
X97677800Y-52600000D01*
X97677800Y-52600000D02*
X98208630Y-52600000D01*
X98208630Y-52600000D02*
X99340000Y-52600000D01*
X95156800Y-56356000D02*
X95156800Y-57191000D01*
X95156800Y-57191000D02*
X95256801Y-57291001D01*
X101080001Y-54419999D02*
X101880000Y-53620000D01*
X95256801Y-57291001D02*
X98307001Y-57291001D01*
X98307001Y-57291001D02*
X101080001Y-54518001D01*
X101080001Y-54518001D02*
X101080001Y-54419999D01*
X94521800Y-49244000D02*
X94521800Y-48409000D01*
X94521800Y-48071800D02*
X94500000Y-48050000D01*
X94521800Y-48409000D02*
X94521800Y-48071800D01*
D37*
X155130000Y-77290000D02*
X155600000Y-77760000D01*
X155600000Y-77760000D02*
X155610000Y-77750000D01*
X155130000Y-74940000D02*
X155130000Y-77290000D01*
X157250000Y-72820000D02*
X155130000Y-74940000D01*
X155610000Y-77750000D02*
X157100000Y-77750000D01*
X163976039Y-72820000D02*
X157250000Y-72820000D01*
X168650000Y-68146039D02*
X163976039Y-72820000D01*
X168650000Y-64720000D02*
X168650000Y-68146039D01*
X167700000Y-63770000D02*
X168650000Y-64720000D01*
X168496739Y-63693261D02*
X168950009Y-64146531D01*
X168950009Y-64146531D02*
X168950009Y-68270308D01*
X168950009Y-68270308D02*
X164100307Y-73120010D01*
X155430010Y-75064268D02*
X155430010Y-76220010D01*
X155430010Y-76220010D02*
X155960000Y-76750000D01*
X164100307Y-73120010D02*
X157374268Y-73120010D01*
X157374268Y-73120010D02*
X155430010Y-75064268D01*
X155960000Y-76750000D02*
X158100000Y-76750000D01*
X169250019Y-63704065D02*
X169250018Y-68394577D01*
X168263392Y-62717438D02*
X169250019Y-63704065D01*
X164224575Y-73420020D02*
X157869980Y-73420020D01*
X169250018Y-68394577D02*
X164224575Y-73420020D01*
X157100000Y-74190000D02*
X157100000Y-75750000D01*
X157869980Y-73420020D02*
X157100000Y-74190000D01*
X162549999Y-74300001D02*
X162100000Y-74750000D01*
X162775001Y-74074999D02*
X162549999Y-74300001D01*
X169550028Y-68879972D02*
X164355001Y-74074999D01*
X169550028Y-66583940D02*
X169550028Y-68879972D01*
X170924972Y-65208996D02*
X169550028Y-66583940D01*
X170924972Y-64454010D02*
X170924972Y-65208996D01*
X170474980Y-64004018D02*
X170924972Y-64454010D01*
X164355001Y-74074999D02*
X162775001Y-74074999D01*
X170474980Y-63340000D02*
X170474980Y-64004018D01*
X174223991Y-60024989D02*
X175875001Y-61675999D01*
X168120733Y-60024989D02*
X174223991Y-60024989D01*
X175875001Y-68324001D02*
X169339002Y-74860000D01*
X166868463Y-61277259D02*
X168120733Y-60024989D01*
X163747259Y-61277259D02*
X166868463Y-61277259D01*
X175875001Y-61675999D02*
X175875001Y-68324001D01*
X163160000Y-60690000D02*
X163747259Y-61277259D01*
X169339002Y-74860000D02*
X164930000Y-74860000D01*
X164820000Y-74750000D02*
X164100000Y-74750000D01*
X164930000Y-74860000D02*
X164820000Y-74750000D01*
X157370000Y-71470000D02*
X157860000Y-70980000D01*
X157860000Y-70980000D02*
X157860000Y-69920000D01*
X158719999Y-69060001D02*
X158719999Y-65119999D01*
X157860000Y-69920000D02*
X158719999Y-69060001D01*
X158719999Y-65119999D02*
X158410000Y-64810000D01*
X158410000Y-64573998D02*
X160203998Y-62780000D01*
X158410000Y-64810000D02*
X158410000Y-64573998D01*
X160203998Y-62780000D02*
X165790000Y-62780000D01*
X173750001Y-60550001D02*
X174200000Y-61000000D01*
X173524999Y-60324999D02*
X173750001Y-60550001D01*
X168245001Y-60324999D02*
X173524999Y-60324999D01*
X165790000Y-62780000D02*
X168245001Y-60324999D01*
X168230000Y-62000000D02*
X173200000Y-62000000D01*
X166849980Y-63380020D02*
X168230000Y-62000000D01*
X164989980Y-63380020D02*
X166849980Y-63380020D01*
X162127259Y-66242741D02*
X164989980Y-63380020D01*
X158040000Y-72146002D02*
X158393999Y-72500001D01*
X162127259Y-69198743D02*
X162127259Y-66242741D01*
X158826001Y-72500001D02*
X162127259Y-69198743D01*
X158393999Y-72500001D02*
X158826001Y-72500001D01*
X158040000Y-71500000D02*
X158040000Y-72146002D01*
X168620000Y-61000000D02*
X172200000Y-61000000D01*
X161339990Y-63080010D02*
X166539990Y-63080010D01*
X160880000Y-63540000D02*
X161339990Y-63080010D01*
X160880000Y-64656002D02*
X160880000Y-63540000D01*
X159620001Y-65916001D02*
X160880000Y-64656002D01*
X159620001Y-71039999D02*
X159620001Y-65916001D01*
X166539990Y-63080010D02*
X168620000Y-61000000D01*
X158610000Y-72050000D02*
X159620001Y-71039999D01*
D40*
X123363000Y-33700000D02*
X123163000Y-33500000D01*
D37*
X121687999Y-36475001D02*
X122663000Y-35500000D01*
X120474999Y-36475001D02*
X121687999Y-36475001D01*
X122663000Y-35500000D02*
X123163000Y-35500000D01*
X120200000Y-36750000D02*
X120474999Y-36475001D01*
X107933000Y-36557144D02*
X106192856Y-36557144D01*
X105850000Y-36900000D02*
X105850000Y-37800000D01*
X106192856Y-36557144D02*
X105850000Y-36900000D01*
D40*
X119852500Y-35500000D02*
X118802500Y-34450000D01*
X120837000Y-35500000D02*
X119852500Y-35500000D01*
X118802500Y-36596000D02*
X118802500Y-36850000D01*
X119852500Y-35546000D02*
X118802500Y-36596000D01*
X119852500Y-35500000D02*
X119852500Y-35546000D01*
D35*
X118802500Y-38940500D02*
X118812000Y-38950000D01*
X118802500Y-36850000D02*
X118802500Y-38940500D01*
X114042860Y-34792860D02*
X113270000Y-34792860D01*
X114400000Y-35150000D02*
X114042860Y-34792860D01*
D37*
X113991500Y-36507144D02*
X113270000Y-36507144D01*
X114116501Y-36632145D02*
X113991500Y-36507144D01*
X116035998Y-38950000D02*
X114116501Y-37030503D01*
X114116501Y-37030503D02*
X114116501Y-36632145D01*
X117288000Y-38950000D02*
X116035998Y-38950000D01*
D35*
X147573719Y-66562000D02*
X148600000Y-66562000D01*
X146450000Y-66562000D02*
X147573719Y-66562000D01*
D36*
X95817200Y-46905200D02*
X95812000Y-46900000D01*
X95817200Y-49244000D02*
X95817200Y-46905200D01*
D35*
X90700000Y-58788000D02*
X90700000Y-58200000D01*
X90610200Y-58110200D02*
X90610200Y-56356000D01*
X90700000Y-58200000D02*
X90610200Y-58110200D01*
D37*
X89314800Y-50029000D02*
X89330000Y-50044200D01*
X89314800Y-49244000D02*
X89314800Y-50029000D01*
X89330000Y-50870000D02*
X89320000Y-50880000D01*
X89330000Y-50044200D02*
X89330000Y-50870000D01*
X90610200Y-50409790D02*
X90590000Y-50429990D01*
X90610200Y-49244000D02*
X90610200Y-50409790D01*
X91270600Y-48459000D02*
X91270000Y-48458400D01*
X91270000Y-48458400D02*
X91270000Y-47130000D01*
X91270600Y-49244000D02*
X91270600Y-48459000D01*
X91890000Y-50044600D02*
X91890000Y-51330010D01*
X91905600Y-50029000D02*
X91890000Y-50044600D01*
X91905600Y-49244000D02*
X91905600Y-50029000D01*
X92570000Y-50033000D02*
X92570000Y-51820000D01*
X92566000Y-50029000D02*
X92570000Y-50033000D01*
X92566000Y-49244000D02*
X92566000Y-50029000D01*
D34*
G36*
X124523000Y-34773000D02*
X123934025Y-34773000D01*
X123872699Y-34711673D01*
X123840000Y-34698128D01*
X123840000Y-34293250D01*
X123840000Y-34184956D01*
X123790217Y-34064770D01*
X123725447Y-34000000D01*
X123790217Y-33935230D01*
X123840000Y-33815044D01*
X123840000Y-33706750D01*
X123758250Y-33625000D01*
X123290000Y-33625000D01*
X123290000Y-33995250D01*
X123294750Y-34000000D01*
X123290000Y-34004750D01*
X123290000Y-34375000D01*
X123758250Y-34375000D01*
X123840000Y-34293250D01*
X123840000Y-34698128D01*
X123825282Y-34692032D01*
X123758250Y-34625000D01*
X123663452Y-34625000D01*
X123639310Y-34615000D01*
X123386691Y-34615000D01*
X123036000Y-34615000D01*
X123036000Y-34375000D01*
X123036000Y-34004750D01*
X123031250Y-34000000D01*
X123036000Y-33995250D01*
X123036000Y-33625000D01*
X122567750Y-33625000D01*
X122486000Y-33706750D01*
X122486000Y-33815044D01*
X122535783Y-33935230D01*
X122600552Y-34000000D01*
X122535783Y-34064770D01*
X122486000Y-34184956D01*
X122486000Y-34293250D01*
X122567750Y-34375000D01*
X123036000Y-34375000D01*
X123036000Y-34615000D01*
X122686691Y-34615000D01*
X122662548Y-34625000D01*
X122567750Y-34625000D01*
X122500716Y-34692033D01*
X122453302Y-34711673D01*
X122391974Y-34773000D01*
X121608025Y-34773000D01*
X121546699Y-34711673D01*
X121514000Y-34698128D01*
X121514000Y-34293250D01*
X121514000Y-34184956D01*
X121464217Y-34064770D01*
X121399447Y-34000000D01*
X121464217Y-33935230D01*
X121514000Y-33815044D01*
X121514000Y-33706750D01*
X121432250Y-33625000D01*
X120964000Y-33625000D01*
X120964000Y-33995250D01*
X120968750Y-34000000D01*
X120964000Y-34004750D01*
X120964000Y-34375000D01*
X121432250Y-34375000D01*
X121514000Y-34293250D01*
X121514000Y-34698128D01*
X121499282Y-34692032D01*
X121432250Y-34625000D01*
X121337452Y-34625000D01*
X121313310Y-34615000D01*
X121060691Y-34615000D01*
X120837000Y-34615000D01*
X120690000Y-34615000D01*
X120690000Y-34375000D01*
X120710000Y-34375000D01*
X120710000Y-34004750D01*
X120705250Y-34000000D01*
X120710000Y-33995250D01*
X120710000Y-33625000D01*
X120690000Y-33625000D01*
X120690000Y-33375000D01*
X120710000Y-33375000D01*
X120710000Y-33353000D01*
X120964000Y-33353000D01*
X120964000Y-33375000D01*
X121432250Y-33375000D01*
X121514000Y-33293250D01*
X121514000Y-33184956D01*
X121489993Y-33127000D01*
X122510006Y-33127000D01*
X122486000Y-33184956D01*
X122486000Y-33293250D01*
X122567750Y-33375000D01*
X123036000Y-33375000D01*
X123036000Y-33353000D01*
X123290000Y-33353000D01*
X123290000Y-33375000D01*
X123758250Y-33375000D01*
X123840000Y-33293250D01*
X123840000Y-33184956D01*
X123815993Y-33127000D01*
X124523000Y-33127000D01*
X124523000Y-34773000D01*
X124523000Y-34773000D01*
G37*
X124523000Y-34773000D02*
X123934025Y-34773000D01*
X123872699Y-34711673D01*
X123840000Y-34698128D01*
X123840000Y-34293250D01*
X123840000Y-34184956D01*
X123790217Y-34064770D01*
X123725447Y-34000000D01*
X123790217Y-33935230D01*
X123840000Y-33815044D01*
X123840000Y-33706750D01*
X123758250Y-33625000D01*
X123290000Y-33625000D01*
X123290000Y-33995250D01*
X123294750Y-34000000D01*
X123290000Y-34004750D01*
X123290000Y-34375000D01*
X123758250Y-34375000D01*
X123840000Y-34293250D01*
X123840000Y-34698128D01*
X123825282Y-34692032D01*
X123758250Y-34625000D01*
X123663452Y-34625000D01*
X123639310Y-34615000D01*
X123386691Y-34615000D01*
X123036000Y-34615000D01*
X123036000Y-34375000D01*
X123036000Y-34004750D01*
X123031250Y-34000000D01*
X123036000Y-33995250D01*
X123036000Y-33625000D01*
X122567750Y-33625000D01*
X122486000Y-33706750D01*
X122486000Y-33815044D01*
X122535783Y-33935230D01*
X122600552Y-34000000D01*
X122535783Y-34064770D01*
X122486000Y-34184956D01*
X122486000Y-34293250D01*
X122567750Y-34375000D01*
X123036000Y-34375000D01*
X123036000Y-34615000D01*
X122686691Y-34615000D01*
X122662548Y-34625000D01*
X122567750Y-34625000D01*
X122500716Y-34692033D01*
X122453302Y-34711673D01*
X122391974Y-34773000D01*
X121608025Y-34773000D01*
X121546699Y-34711673D01*
X121514000Y-34698128D01*
X121514000Y-34293250D01*
X121514000Y-34184956D01*
X121464217Y-34064770D01*
X121399447Y-34000000D01*
X121464217Y-33935230D01*
X121514000Y-33815044D01*
X121514000Y-33706750D01*
X121432250Y-33625000D01*
X120964000Y-33625000D01*
X120964000Y-33995250D01*
X120968750Y-34000000D01*
X120964000Y-34004750D01*
X120964000Y-34375000D01*
X121432250Y-34375000D01*
X121514000Y-34293250D01*
X121514000Y-34698128D01*
X121499282Y-34692032D01*
X121432250Y-34625000D01*
X121337452Y-34625000D01*
X121313310Y-34615000D01*
X121060691Y-34615000D01*
X120837000Y-34615000D01*
X120690000Y-34615000D01*
X120690000Y-34375000D01*
X120710000Y-34375000D01*
X120710000Y-34004750D01*
X120705250Y-34000000D01*
X120710000Y-33995250D01*
X120710000Y-33625000D01*
X120690000Y-33625000D01*
X120690000Y-33375000D01*
X120710000Y-33375000D01*
X120710000Y-33353000D01*
X120964000Y-33353000D01*
X120964000Y-33375000D01*
X121432250Y-33375000D01*
X121514000Y-33293250D01*
X121514000Y-33184956D01*
X121489993Y-33127000D01*
X122510006Y-33127000D01*
X122486000Y-33184956D01*
X122486000Y-33293250D01*
X122567750Y-33375000D01*
X123036000Y-33375000D01*
X123036000Y-33353000D01*
X123290000Y-33353000D01*
X123290000Y-33375000D01*
X123758250Y-33375000D01*
X123840000Y-33293250D01*
X123840000Y-33184956D01*
X123815993Y-33127000D01*
X124523000Y-33127000D01*
X124523000Y-34773000D01*
D37*
G36*
X111375000Y-36655000D02*
X109755000Y-36655000D01*
X109755000Y-35265000D01*
X111375000Y-35265000D01*
X111375000Y-36655000D01*
X111375000Y-36655000D01*
G37*
X111375000Y-36655000D02*
X109755000Y-36655000D01*
X109755000Y-35265000D01*
X111375000Y-35265000D01*
X111375000Y-36655000D01*
D34*
G36*
X93323000Y-57057667D02*
X93023000Y-57457667D01*
X93023000Y-61923000D01*
X92127000Y-61923000D01*
X92127000Y-57542333D01*
X92427000Y-57142333D01*
X92427000Y-55727000D01*
X93323000Y-55727000D01*
X93323000Y-57057667D01*
X93323000Y-57057667D01*
G37*
X93323000Y-57057667D02*
X93023000Y-57457667D01*
X93023000Y-61923000D01*
X92127000Y-61923000D01*
X92127000Y-57542333D01*
X92427000Y-57142333D01*
X92427000Y-55727000D01*
X93323000Y-55727000D01*
X93323000Y-57057667D01*
D41*
G36*
X96425000Y-60325000D02*
X94839645Y-60325000D01*
X94625000Y-60539645D01*
X94625000Y-62000000D01*
X94625000Y-62025000D01*
X93575000Y-62025000D01*
X93575000Y-57035948D01*
X93579200Y-57025809D01*
X93579200Y-56956190D01*
X93579200Y-55686190D01*
X93575000Y-55676050D01*
X93575000Y-55639645D01*
X93360355Y-55425000D01*
X92339645Y-55425000D01*
X92125000Y-55639645D01*
X92125000Y-57025000D01*
X91025000Y-57025000D01*
X91025000Y-55650000D01*
X91025000Y-55400000D01*
X91025000Y-54575000D01*
X94125000Y-54575000D01*
X94125000Y-55400000D01*
X94125000Y-57112016D01*
X94625000Y-57512016D01*
X94625000Y-59010355D01*
X94839645Y-59225000D01*
X96425000Y-59225000D01*
X96425000Y-60325000D01*
X96425000Y-60325000D01*
G37*
X96425000Y-60325000D02*
X94839645Y-60325000D01*
X94625000Y-60539645D01*
X94625000Y-62000000D01*
X94625000Y-62025000D01*
X93575000Y-62025000D01*
X93575000Y-57035948D01*
X93579200Y-57025809D01*
X93579200Y-56956190D01*
X93579200Y-55686190D01*
X93575000Y-55676050D01*
X93575000Y-55639645D01*
X93360355Y-55425000D01*
X92339645Y-55425000D01*
X92125000Y-55639645D01*
X92125000Y-57025000D01*
X91025000Y-57025000D01*
X91025000Y-55650000D01*
X91025000Y-55400000D01*
X91025000Y-54575000D01*
X94125000Y-54575000D01*
X94125000Y-55400000D01*
X94125000Y-57112016D01*
X94625000Y-57512016D01*
X94625000Y-59010355D01*
X94839645Y-59225000D01*
X96425000Y-59225000D01*
X96425000Y-60325000D01*
D35*
G36*
X158700000Y-49300000D02*
X152900000Y-49300000D01*
X152900000Y-54900000D01*
X143700000Y-54900000D01*
X143700000Y-57690000D01*
X143719908Y-57690000D01*
X143390104Y-57690608D01*
X143390104Y-54681176D01*
X143298952Y-54460571D01*
X143208529Y-54369989D01*
X143298359Y-54280317D01*
X143389896Y-54059871D01*
X143390104Y-53821176D01*
X143298952Y-53600571D01*
X143130317Y-53431641D01*
X142909871Y-53340104D01*
X142671176Y-53339896D01*
X142450571Y-53431048D01*
X142281641Y-53599683D01*
X142227914Y-53729070D01*
X142178952Y-53610571D01*
X142010317Y-53441641D01*
X141789871Y-53350104D01*
X141551176Y-53349896D01*
X141330571Y-53441048D01*
X141161641Y-53609683D01*
X141070104Y-53830129D01*
X141069896Y-54068824D01*
X141161048Y-54289429D01*
X141261470Y-54390027D01*
X141161641Y-54489683D01*
X141070104Y-54710129D01*
X141069896Y-54948824D01*
X141161048Y-55169429D01*
X141301470Y-55310097D01*
X141161641Y-55449683D01*
X141070104Y-55670129D01*
X141069896Y-55908824D01*
X141161048Y-56129429D01*
X141251470Y-56220010D01*
X141161641Y-56309683D01*
X141070104Y-56530129D01*
X141069896Y-56768824D01*
X141161048Y-56989429D01*
X141329683Y-57158359D01*
X141550129Y-57249896D01*
X141788824Y-57250104D01*
X142009429Y-57158952D01*
X142178359Y-56990317D01*
X142227072Y-56873000D01*
X142271048Y-56979429D01*
X142439683Y-57148359D01*
X142660129Y-57239896D01*
X142898824Y-57240104D01*
X143119429Y-57148952D01*
X143288359Y-56980317D01*
X143379896Y-56759871D01*
X143380104Y-56521176D01*
X143288952Y-56300571D01*
X143203537Y-56215007D01*
X143278359Y-56140317D01*
X143369896Y-55919871D01*
X143370104Y-55681176D01*
X143278952Y-55460571D01*
X143128132Y-55309487D01*
X143129429Y-55308952D01*
X143298359Y-55140317D01*
X143389896Y-54919871D01*
X143390104Y-54681176D01*
X143390104Y-57690608D01*
X138299908Y-57700000D01*
X132900000Y-57700000D01*
X132900000Y-52200000D01*
X139300021Y-52200000D01*
X139299896Y-52343815D01*
X139391048Y-52564420D01*
X139559683Y-52733350D01*
X139780129Y-52824887D01*
X140018824Y-52825095D01*
X140239429Y-52733943D01*
X140408359Y-52565308D01*
X140499896Y-52344862D01*
X140500022Y-52200000D01*
X149300000Y-52200000D01*
X149300000Y-43100000D01*
X156900000Y-43100000D01*
X156900000Y-32400000D01*
X158700000Y-32400000D01*
X158700000Y-49300000D01*
X158700000Y-49300000D01*
G37*
X158700000Y-49300000D02*
X152900000Y-49300000D01*
X152900000Y-54900000D01*
X143700000Y-54900000D01*
X143700000Y-57690000D01*
X143719908Y-57690000D01*
X143390104Y-57690608D01*
X143390104Y-54681176D01*
X143298952Y-54460571D01*
X143208529Y-54369989D01*
X143298359Y-54280317D01*
X143389896Y-54059871D01*
X143390104Y-53821176D01*
X143298952Y-53600571D01*
X143130317Y-53431641D01*
X142909871Y-53340104D01*
X142671176Y-53339896D01*
X142450571Y-53431048D01*
X142281641Y-53599683D01*
X142227914Y-53729070D01*
X142178952Y-53610571D01*
X142010317Y-53441641D01*
X141789871Y-53350104D01*
X141551176Y-53349896D01*
X141330571Y-53441048D01*
X141161641Y-53609683D01*
X141070104Y-53830129D01*
X141069896Y-54068824D01*
X141161048Y-54289429D01*
X141261470Y-54390027D01*
X141161641Y-54489683D01*
X141070104Y-54710129D01*
X141069896Y-54948824D01*
X141161048Y-55169429D01*
X141301470Y-55310097D01*
X141161641Y-55449683D01*
X141070104Y-55670129D01*
X141069896Y-55908824D01*
X141161048Y-56129429D01*
X141251470Y-56220010D01*
X141161641Y-56309683D01*
X141070104Y-56530129D01*
X141069896Y-56768824D01*
X141161048Y-56989429D01*
X141329683Y-57158359D01*
X141550129Y-57249896D01*
X141788824Y-57250104D01*
X142009429Y-57158952D01*
X142178359Y-56990317D01*
X142227072Y-56873000D01*
X142271048Y-56979429D01*
X142439683Y-57148359D01*
X142660129Y-57239896D01*
X142898824Y-57240104D01*
X143119429Y-57148952D01*
X143288359Y-56980317D01*
X143379896Y-56759871D01*
X143380104Y-56521176D01*
X143288952Y-56300571D01*
X143203537Y-56215007D01*
X143278359Y-56140317D01*
X143369896Y-55919871D01*
X143370104Y-55681176D01*
X143278952Y-55460571D01*
X143128132Y-55309487D01*
X143129429Y-55308952D01*
X143298359Y-55140317D01*
X143389896Y-54919871D01*
X143390104Y-54681176D01*
X143390104Y-57690608D01*
X138299908Y-57700000D01*
X132900000Y-57700000D01*
X132900000Y-52200000D01*
X139300021Y-52200000D01*
X139299896Y-52343815D01*
X139391048Y-52564420D01*
X139559683Y-52733350D01*
X139780129Y-52824887D01*
X140018824Y-52825095D01*
X140239429Y-52733943D01*
X140408359Y-52565308D01*
X140499896Y-52344862D01*
X140500022Y-52200000D01*
X149300000Y-52200000D01*
X149300000Y-43100000D01*
X156900000Y-43100000D01*
X156900000Y-32400000D01*
X158700000Y-32400000D01*
X158700000Y-49300000D01*
M02*
