%TF.GenerationSoftware,KiCad,Pcbnew,5.99.0-unknown-r19092-42a2f134*%
%TF.CreationDate,2020-07-22T08:57:51-04:00*%
%TF.ProjectId,rfid,72666964-2e6b-4696-9361-645f70636258,rev?*%
%TF.SameCoordinates,Original*%
%TF.FileFunction,Copper,L1,Top*%
%TF.FilePolarity,Positive*%
%FSLAX45Y45*%
G04 Gerber Fmt 4.5, Leading zero omitted, Abs format (unit mm)*
G04 Created by KiCad (PCBNEW 5.99.0-unknown-r19092-42a2f134) date 2020-07-22 08:57:51*
%MOMM*%
%LPD*%
G01*
G04 APERTURE LIST*
%TA.AperFunction,SMDPad,CuDef*%
%ADD10R,1.143000X0.635000*%
%TD*%
%TA.AperFunction,SMDPad,CuDef*%
%ADD11R,0.635000X1.143000*%
%TD*%
%TA.AperFunction,SMDPad,CuDef*%
%ADD12R,1.397000X0.889000*%
%TD*%
%TA.AperFunction,ComponentPad*%
%ADD13C,1.300000*%
%TD*%
%TA.AperFunction,SMDPad,CuDef*%
%ADD14R,0.599440X0.248920*%
%TD*%
%TA.AperFunction,SMDPad,CuDef*%
%ADD15R,0.248920X0.599440*%
%TD*%
%TA.AperFunction,SMDPad,CuDef*%
%ADD16R,3.299460X3.299460*%
%TD*%
%TA.AperFunction,SMDPad,CuDef*%
%ADD17R,0.700000X0.750000*%
%TD*%
%TA.AperFunction,ViaPad*%
%ADD18C,0.900000*%
%TD*%
%TA.AperFunction,Conductor*%
%ADD19C,0.250000*%
%TD*%
%TA.AperFunction,Conductor*%
%ADD20C,0.500000*%
%TD*%
%TA.AperFunction,Conductor*%
%ADD21C,0.300000*%
%TD*%
%TA.AperFunction,Conductor*%
%ADD22C,1.000000*%
%TD*%
%TA.AperFunction,Conductor*%
%ADD23C,0.200000*%
%TD*%
%TA.AperFunction,Conductor*%
%ADD24C,0.350000*%
%TD*%
%TA.AperFunction,Conductor*%
%ADD25C,0.150000*%
%TD*%
G04 APERTURE END LIST*
D10*
%TO.P,C1,1*%
%TO.N,Net-(C1-Pad1)*%
X16090000Y-8973800D03*
%TO.P,C1,2*%
%TO.N,GND*%
X16090000Y-9126200D03*
%TD*%
D11*
%TO.P,C2,1*%
%TO.N,Net-(C2-Pad1)*%
X16366200Y-9290000D03*
%TO.P,C2,2*%
%TO.N,GND*%
X16213800Y-9290000D03*
%TD*%
D10*
%TO.P,C3,1*%
%TO.N,3V3*%
X17920000Y-10093800D03*
%TO.P,C3,2*%
%TO.N,GND*%
X17920000Y-10246200D03*
%TD*%
%TO.P,C4,1*%
%TO.N,3V3_RF*%
X17740000Y-9666200D03*
%TO.P,C4,2*%
%TO.N,GND*%
X17740000Y-9513800D03*
%TD*%
D11*
%TO.P,C5,1*%
%TO.N,3V3*%
X16543800Y-8106796D03*
%TO.P,C5,2*%
%TO.N,GND*%
X16696200Y-8106796D03*
%TD*%
D10*
%TO.P,C6,1*%
%TO.N,3V3_RF*%
X16620000Y-8943800D03*
%TO.P,C6,2*%
%TO.N,GND*%
X16620000Y-9096200D03*
%TD*%
%TO.P,C7,1*%
%TO.N,Net-(C7-Pad1)*%
X16843803Y-8296200D03*
%TO.P,C7,2*%
%TO.N,GND*%
X16843803Y-8143800D03*
%TD*%
%TO.P,C8,1*%
%TO.N,3V3*%
X17530000Y-10093800D03*
%TO.P,C8,2*%
%TO.N,GND*%
X17530000Y-10246200D03*
%TD*%
D12*
%TO.P,C9,1*%
%TO.N,3V3_RF*%
X17930000Y-9685250D03*
%TO.P,C9,2*%
%TO.N,GND*%
X17930000Y-9494750D03*
%TD*%
D10*
%TO.P,C10,1*%
%TO.N,GND*%
X17170000Y-9166200D03*
%TO.P,C10,2*%
%TO.N,Net-(C10-Pad2)*%
X17170000Y-9013800D03*
%TD*%
%TO.P,C11,1*%
%TO.N,GND*%
X17170000Y-7883800D03*
%TO.P,C11,2*%
%TO.N,Net-(C11-Pad2)*%
X17170000Y-8036200D03*
%TD*%
D11*
%TO.P,C12,1*%
%TO.N,Net-(C12-Pad1)*%
X17316200Y-8840000D03*
%TO.P,C12,2*%
%TO.N,Net-(C10-Pad2)*%
X17163800Y-8840000D03*
%TD*%
%TO.P,C13,1*%
%TO.N,Net-(C12-Pad1)*%
X17316200Y-8210000D03*
%TO.P,C13,2*%
%TO.N,Net-(C11-Pad2)*%
X17163800Y-8210000D03*
%TD*%
D10*
%TO.P,C14,1*%
%TO.N,Net-(C12-Pad1)*%
X17530000Y-8606200D03*
%TO.P,C14,2*%
X17530000Y-8453800D03*
%TD*%
%TO.P,C15,1*%
%TO.N,Net-(C12-Pad1)*%
X17730000Y-8606200D03*
%TO.P,C15,2*%
X17730000Y-8453800D03*
%TD*%
D11*
%TO.P,L1,1*%
%TO.N,3V3*%
X17773800Y-9910000D03*
%TO.P,L1,2*%
%TO.N,3V3_RF*%
X17926200Y-9910000D03*
%TD*%
D13*
%TO.P,P1,1*%
%TO.N,GND*%
X17130000Y-9710000D03*
%TO.P,P1,2*%
%TO.N,3V3*%
X17130000Y-9910000D03*
%TD*%
%TO.P,P2,3*%
%TO.N,Net-(P2-Pad3)*%
X16410000Y-7340000D03*
%TO.P,P2,2*%
%TO.N,Net-(P2-Pad2)*%
X16210000Y-7340000D03*
%TO.P,P2,1*%
%TO.N,Net-(P2-Pad1)*%
X16010000Y-7340000D03*
%TO.P,P2,4*%
%TO.N,Net-(P2-Pad4)*%
X16610000Y-7340000D03*
%TO.P,P2,5*%
%TO.N,Net-(P2-Pad5)*%
X16810000Y-7340000D03*
%TO.P,P2,6*%
%TO.N,Net-(P2-Pad6)*%
X17010000Y-7340000D03*
%TD*%
D10*
%TO.P,R1,1*%
%TO.N,3V3*%
X16810000Y-6893800D03*
%TO.P,R1,2*%
%TO.N,Net-(P2-Pad5)*%
X16810000Y-7046200D03*
%TD*%
D11*
%TO.P,R2,1*%
%TO.N,Net-(R2-Pad1)*%
X16006200Y-8460000D03*
%TO.P,R2,2*%
%TO.N,3V3*%
X15853800Y-8460000D03*
%TD*%
%TO.P,R3,1*%
%TO.N,Net-(R3-Pad1)*%
X16006200Y-8640000D03*
%TO.P,R3,2*%
%TO.N,3V3*%
X15853800Y-8640000D03*
%TD*%
D10*
%TO.P,R4,1*%
%TO.N,3V3*%
X17010000Y-6893800D03*
%TO.P,R4,2*%
%TO.N,Net-(P2-Pad6)*%
X17010000Y-7046200D03*
%TD*%
D11*
%TO.P,R5,1*%
%TO.N,Net-(C11-Pad2)*%
X16946200Y-8660000D03*
%TO.P,R5,2*%
%TO.N,Net-(R5-Pad2)*%
X16793800Y-8660000D03*
%TD*%
%TO.P,R6,1*%
%TO.N,Net-(C12-Pad1)*%
X17316200Y-8440000D03*
%TO.P,R6,2*%
%TO.N,Net-(R6-Pad2)*%
X17163800Y-8440000D03*
%TD*%
%TO.P,R7,1*%
%TO.N,Net-(C12-Pad1)*%
X17316200Y-8610000D03*
%TO.P,R7,2*%
%TO.N,Net-(R7-Pad2)*%
X17163800Y-8610000D03*
%TD*%
%TO.P,R8,1*%
%TO.N,Net-(C10-Pad2)*%
X16946200Y-8830000D03*
%TO.P,R8,2*%
%TO.N,Net-(R8-Pad2)*%
X16793800Y-8830000D03*
%TD*%
D10*
%TO.P,R9,1*%
%TO.N,Net-(C12-Pad1)*%
X17930000Y-8606200D03*
%TO.P,R9,2*%
X17930000Y-8453800D03*
%TD*%
D14*
%TO.P,U1,1*%
%TO.N,Net-(R8-Pad2)*%
X16639776Y-8724752D03*
%TO.P,U1,2*%
%TO.N,Net-(R5-Pad2)*%
X16639776Y-8674714D03*
%TO.P,U1,3*%
%TO.N,Net-(U1-Pad3)*%
X16639776Y-8624676D03*
%TO.P,U1,4*%
%TO.N,Net-(U1-Pad4)*%
X16639776Y-8574638D03*
%TO.P,U1,5*%
%TO.N,Net-(R7-Pad2)*%
X16639776Y-8524854D03*
%TO.P,U1,6*%
%TO.N,Net-(R6-Pad2)*%
X16639776Y-8474816D03*
%TO.P,U1,7*%
%TO.N,Net-(U1-Pad7)*%
X16639776Y-8424778D03*
%TO.P,U1,8*%
%TO.N,GND*%
X16639776Y-8374740D03*
D15*
%TO.P,U1,13*%
%TO.N,3V3*%
X16375108Y-8309716D03*
%TO.P,U1,14*%
%TO.N,Net-(P2-Pad5)*%
X16325324Y-8309716D03*
%TO.P,U1,15*%
%TO.N,Net-(P2-Pad4)*%
X16275286Y-8309716D03*
%TO.P,U1,16*%
%TO.N,Net-(P2-Pad3)*%
X16225248Y-8309716D03*
D16*
%TO.P,U1,33*%
%TO.N,GND*%
X16400000Y-8550000D03*
D15*
%TO.P,U1,9*%
%TO.N,Net-(C7-Pad1)*%
X16575006Y-8309716D03*
%TO.P,U1,10*%
%TO.N,Net-(U1-Pad10)*%
X16524968Y-8309716D03*
%TO.P,U1,11*%
%TO.N,Net-(U1-Pad11)*%
X16474930Y-8309716D03*
%TO.P,U1,12*%
%TO.N,Net-(P2-Pad6)*%
X16425146Y-8309716D03*
D14*
%TO.P,U1,17*%
%TO.N,Net-(P2-Pad2)*%
X16160224Y-8375248D03*
%TO.P,U1,18*%
%TO.N,Net-(P2-Pad1)*%
X16159970Y-8425286D03*
%TO.P,U1,19*%
%TO.N,Net-(R2-Pad1)*%
X16159970Y-8475070D03*
%TO.P,U1,20*%
%TO.N,GND*%
X16159970Y-8525108D03*
%TO.P,U1,21*%
%TO.N,Net-(R3-Pad1)*%
X16159970Y-8575146D03*
%TO.P,U1,22*%
%TO.N,GND*%
X16159970Y-8625184D03*
%TO.P,U1,23*%
%TO.N,Net-(U1-Pad23)*%
X16159970Y-8675222D03*
%TO.P,U1,24*%
%TO.N,Net-(U1-Pad24)*%
X16159970Y-8725260D03*
D15*
%TO.P,U1,25*%
%TO.N,Net-(U1-Pad25)*%
X16224994Y-8790030D03*
%TO.P,U1,26*%
%TO.N,Net-(U1-Pad26)*%
X16275032Y-8790030D03*
%TO.P,U1,27*%
%TO.N,Net-(U1-Pad27)*%
X16325070Y-8790030D03*
%TO.P,U1,28*%
%TO.N,Net-(U1-Pad28)*%
X16374854Y-8790030D03*
%TO.P,U1,29*%
%TO.N,Net-(C1-Pad1)*%
X16424892Y-8790030D03*
%TO.P,U1,30*%
%TO.N,Net-(C2-Pad1)*%
X16474930Y-8790030D03*
%TO.P,U1,31*%
%TO.N,GND*%
X16524968Y-8790030D03*
%TO.P,U1,32*%
%TO.N,3V3_RF*%
X16575006Y-8790030D03*
%TD*%
D17*
%TO.P,G1,1*%
%TO.N,Net-(C1-Pad1)*%
X16270000Y-8982500D03*
%TO.P,G1,2*%
%TO.N,Net-(G1-Pad2)*%
X16270000Y-9117500D03*
%TO.P,G1,3*%
%TO.N,Net-(C2-Pad1)*%
X16370000Y-9117500D03*
%TO.P,G1,4*%
%TO.N,Net-(G1-Pad4)*%
X16370000Y-8982500D03*
%TD*%
D18*
%TO.N,GND*%
X17360000Y-10250000D03*
%TO.N,Net-(C12-Pad1)*%
X18400000Y-8630000D03*
X18150000Y-8620000D03*
%TO.N,Net-(C11-Pad2)*%
X17050000Y-8680000D03*
X17050000Y-8210000D03*
%TO.N,3V3*%
X16420000Y-8140000D03*
X15853800Y-8146200D03*
%TD*%
D19*
%TO.N,GND*%
X17130000Y-9710000D02*
X16710000Y-9290000D01*
X16710000Y-9290000D02*
X16620000Y-9290000D01*
X18080000Y-9644750D02*
X18080000Y-10230000D01*
X17930000Y-9494750D02*
X18080000Y-9644750D01*
X18080000Y-10230000D02*
X18063800Y-10246200D01*
X18063800Y-10246200D02*
X17920000Y-10246200D01*
X17530000Y-10246200D02*
X17363800Y-10246200D01*
X17363800Y-10246200D02*
X17360000Y-10250000D01*
X17920000Y-10246200D02*
X17530000Y-10246200D01*
X17740000Y-9513800D02*
X17910950Y-9513800D01*
X17910950Y-9513800D02*
X17930000Y-9494750D01*
X17170000Y-9166200D02*
X17392400Y-9166200D01*
X17392400Y-9166200D02*
X17740000Y-9513800D01*
X16384600Y-9410000D02*
X16500000Y-9410000D01*
X16213800Y-9323800D02*
X16300000Y-9410000D01*
X16300000Y-9410000D02*
X16384600Y-9410000D01*
X16213800Y-9290000D02*
X16213800Y-9323800D01*
X16500000Y-9410000D02*
X16620000Y-9290000D01*
X16620000Y-9290000D02*
X16620000Y-9096200D01*
X16090000Y-9126200D02*
X16090000Y-9166200D01*
X16090000Y-9166200D02*
X16213800Y-9290000D01*
X16524968Y-8790030D02*
X16524968Y-9064968D01*
X16556200Y-9096200D02*
X16620000Y-9096200D01*
X16524968Y-9064968D02*
X16556200Y-9096200D01*
%TO.N,Net-(C2-Pad1)*%
X16370000Y-9117500D02*
X16422500Y-9117500D01*
X16422500Y-9117500D02*
X16474930Y-9065070D01*
X16474930Y-9065070D02*
X16474930Y-8790030D01*
X16366200Y-9290000D02*
X16366200Y-9121300D01*
X16366200Y-9121300D02*
X16370000Y-9117500D01*
%TO.N,Net-(C1-Pad1)*%
X16270000Y-8945000D02*
X16345000Y-8870000D01*
X16270000Y-8982500D02*
X16270000Y-8945000D01*
X16345000Y-8870000D02*
X16386802Y-8870000D01*
X16386802Y-8870000D02*
X16424892Y-8831910D01*
X16424892Y-8831910D02*
X16424892Y-8790030D01*
X16090000Y-8973800D02*
X16261300Y-8973800D01*
X16261300Y-8973800D02*
X16270000Y-8982500D01*
%TO.N,Net-(P2-Pad6)*%
X16620000Y-8180000D02*
X16620000Y-7930000D01*
X16459890Y-8220000D02*
X16580000Y-8220000D01*
X16425146Y-8309716D02*
X16425146Y-8254744D01*
X16425146Y-8254744D02*
X16459890Y-8220000D01*
X16580000Y-8220000D02*
X16620000Y-8180000D01*
X16620000Y-7930000D02*
X17010000Y-7540000D01*
X17010000Y-7540000D02*
X17010000Y-7340000D01*
D20*
%TO.N,3V3*%
X16543800Y-8106796D02*
X16543800Y-8116200D01*
D21*
X16543800Y-8106796D02*
X16510596Y-8140000D01*
X16510596Y-8140000D02*
X16480000Y-8140000D01*
D19*
%TO.N,GND*%
X16696200Y-8106796D02*
X16806800Y-8106796D01*
X16806800Y-8106796D02*
X16843803Y-8143800D01*
X16960000Y-8147600D02*
X16960000Y-8010000D01*
X16960000Y-8010000D02*
X17086200Y-7883800D01*
X17086200Y-7883800D02*
X17170000Y-7883800D01*
D22*
%TO.N,Net-(C12-Pad1)*%
X18400000Y-8630000D02*
X18400000Y-8625000D01*
D19*
%TO.N,Net-(C11-Pad2)*%
X17030000Y-8660000D02*
X17050000Y-8680000D01*
X16946200Y-8660000D02*
X17030000Y-8660000D01*
%TO.N,GND*%
X16639776Y-8374740D02*
X16954740Y-8374740D01*
X16954740Y-8374740D02*
X16960000Y-8369480D01*
X16960000Y-8369480D02*
X16960000Y-8147600D01*
X16960000Y-8147600D02*
X16956200Y-8143800D01*
X16956200Y-8143800D02*
X16843803Y-8143800D01*
%TO.N,Net-(C7-Pad1)*%
X16575006Y-8309716D02*
X16830287Y-8309716D01*
X16830287Y-8309716D02*
X16843803Y-8296200D01*
%TO.N,3V3*%
X16375108Y-8244892D02*
X16375108Y-8184892D01*
X16375108Y-8184892D02*
X16420000Y-8140000D01*
X16480000Y-8140000D02*
X16420000Y-8140000D01*
D20*
X15853800Y-8146200D02*
X15853800Y-8017359D01*
D19*
%TO.N,Net-(P2-Pad5)*%
X16325324Y-8309716D02*
X16325324Y-7974676D01*
X16325324Y-7974676D02*
X16810000Y-7490000D01*
X16810000Y-7490000D02*
X16810000Y-7340000D01*
%TO.N,Net-(P2-Pad4)*%
X16275286Y-8309716D02*
X16275286Y-7864714D01*
X16275286Y-7864714D02*
X16610000Y-7530000D01*
X16610000Y-7530000D02*
X16610000Y-7340000D01*
%TO.N,Net-(P2-Pad3)*%
X16225248Y-8309716D02*
X16225248Y-7754752D01*
X16225248Y-7754752D02*
X16410000Y-7570000D01*
X16410000Y-7570000D02*
X16410000Y-7340000D01*
%TO.N,Net-(P2-Pad1)*%
X16159970Y-8425286D02*
X16125286Y-8425286D01*
X16010000Y-8310000D02*
X16010000Y-7340000D01*
X16125286Y-8425286D02*
X16010000Y-8310000D01*
%TO.N,Net-(P2-Pad2)*%
X16160224Y-8375248D02*
X16160224Y-7659776D01*
X16160224Y-7659776D02*
X16210000Y-7610000D01*
X16210000Y-7610000D02*
X16210000Y-7340000D01*
%TO.N,Net-(R3-Pad1)*%
X16006200Y-8640000D02*
X16071054Y-8575146D01*
X16071054Y-8575146D02*
X16159970Y-8575146D01*
%TO.N,Net-(R2-Pad1)*%
X16006200Y-8460000D02*
X16021270Y-8475070D01*
X16021270Y-8475070D02*
X16159970Y-8475070D01*
%TO.N,GND*%
X16490000Y-8640000D02*
X16400000Y-8550000D01*
X16310000Y-8640000D02*
X16490000Y-8640000D01*
X16524968Y-8790030D02*
X16524968Y-8674968D01*
X16524968Y-8674968D02*
X16490000Y-8640000D01*
X16159970Y-8525108D02*
X16244892Y-8525108D01*
X16244892Y-8525108D02*
X16310000Y-8460000D01*
X16159970Y-8625184D02*
X16295184Y-8625184D01*
X16295184Y-8625184D02*
X16310000Y-8640000D01*
X16310000Y-8460000D02*
X16310000Y-8640000D01*
X16490000Y-8460000D02*
X16310000Y-8460000D01*
X16639776Y-8374740D02*
X16575260Y-8374740D01*
X16575260Y-8374740D02*
X16490000Y-8460000D01*
D20*
%TO.N,3V3*%
X15853800Y-8460000D02*
X15853800Y-8146200D01*
X15853800Y-8017359D02*
X15853800Y-7186200D01*
X16810000Y-6893800D02*
X17010000Y-6893800D01*
X16420000Y-7070000D02*
X16596200Y-6893800D01*
X16596200Y-6893800D02*
X16810000Y-6893800D01*
X15970000Y-7070000D02*
X16420000Y-7070000D01*
X15853800Y-7186200D02*
X15970000Y-7070000D01*
X15853800Y-8640000D02*
X15853800Y-8460000D01*
X16633800Y-10093800D02*
X15853800Y-9313800D01*
X15853800Y-9313800D02*
X15853800Y-8640000D01*
X17530000Y-10093800D02*
X16633800Y-10093800D01*
D21*
X16375108Y-8244892D02*
X16375108Y-8309716D01*
D19*
%TO.N,3V3_RF*%
X16620000Y-8852550D02*
X16620000Y-8943800D01*
X16575006Y-8790030D02*
X16575006Y-8807556D01*
X16575006Y-8807556D02*
X16620000Y-8852550D01*
D20*
X16900000Y-9000000D02*
X16843800Y-8943800D01*
X16843800Y-8943800D02*
X16620000Y-8943800D01*
X16900000Y-9275000D02*
X16900000Y-9000000D01*
X17000000Y-9375000D02*
X16900000Y-9275000D01*
X17341650Y-9375000D02*
X17000000Y-9375000D01*
X17740000Y-9666200D02*
X17632850Y-9666200D01*
X17632850Y-9666200D02*
X17341650Y-9375000D01*
%TO.N,Net-(C10-Pad2)*%
X17153800Y-8830000D02*
X17163800Y-8840000D01*
X16946200Y-8830000D02*
X17153800Y-8830000D01*
X17170000Y-8846200D02*
X17163800Y-8840000D01*
X17170000Y-9013800D02*
X17170000Y-8846200D01*
%TO.N,Net-(C11-Pad2)*%
X17170000Y-8203800D02*
X17163800Y-8210000D01*
X17170000Y-8036200D02*
X17170000Y-8203800D01*
X17050000Y-8210000D02*
X17163800Y-8210000D01*
D22*
%TO.N,Net-(C12-Pad1)*%
X18150000Y-8450000D02*
X18150000Y-6550000D01*
D20*
X17930000Y-8606200D02*
X17983200Y-8606200D01*
X17983200Y-8606200D02*
X17989000Y-8612000D01*
X17989000Y-8612000D02*
X18042000Y-8612000D01*
X17730000Y-8453800D02*
X17930000Y-8453800D01*
X17530000Y-8453800D02*
X17730000Y-8453800D01*
X17410000Y-8440000D02*
X17423800Y-8453800D01*
X17423800Y-8453800D02*
X17530000Y-8453800D01*
X17316200Y-8440000D02*
X17410000Y-8440000D01*
X17316200Y-8440000D02*
X17316200Y-8210000D01*
X17530000Y-8606200D02*
X17730000Y-8606200D01*
X17730000Y-8606200D02*
X17930000Y-8606200D01*
X17526200Y-8610000D02*
X17530000Y-8606200D01*
X17316200Y-8610000D02*
X17526200Y-8610000D01*
X17316200Y-8610000D02*
X17316200Y-8840000D01*
D22*
X18150000Y-8620000D02*
X18080000Y-8620000D01*
X18275000Y-6675000D02*
X21925000Y-6675000D01*
X22050000Y-10450000D02*
X18275000Y-10450000D01*
X22050000Y-6550000D02*
X22050000Y-10450000D01*
X18150000Y-6550000D02*
X22050000Y-6550000D01*
X18275000Y-6675000D02*
X18275000Y-10450000D01*
X18400000Y-10325000D02*
X18400000Y-8630000D01*
X21925000Y-10325000D02*
X18400000Y-10325000D01*
X21925000Y-6675000D02*
X21925000Y-10325000D01*
D20*
X17930000Y-8453800D02*
X18059799Y-8453800D01*
D22*
X18146200Y-8453800D02*
X18150000Y-8450000D01*
X18059799Y-8453800D02*
X18146200Y-8453800D01*
D23*
%TO.N,Net-(P2-Pad5)*%
X16810000Y-7046200D02*
X16810000Y-7340000D01*
%TO.N,Net-(P2-Pad6)*%
X17010000Y-7046200D02*
X17010000Y-7340000D01*
D24*
%TO.N,Net-(R5-Pad2)*%
X16700000Y-8670000D02*
X16710000Y-8670000D01*
D19*
X16695286Y-8674714D02*
X16700000Y-8670000D01*
X16695286Y-8674714D02*
X16639776Y-8674714D01*
D24*
X16710000Y-8670000D02*
X16720000Y-8660000D01*
D20*
X16793800Y-8660000D02*
X16720000Y-8660000D01*
%TO.N,Net-(R6-Pad2)*%
X17153800Y-8450000D02*
X17163800Y-8440000D01*
D24*
X16760000Y-8450000D02*
X16730000Y-8450000D01*
D19*
X16705184Y-8474816D02*
X16730000Y-8450000D01*
X16705184Y-8474816D02*
X16639776Y-8474816D01*
D20*
X17153800Y-8450000D02*
X16760000Y-8450000D01*
%TO.N,Net-(R7-Pad2)*%
X17030000Y-8540000D02*
X17100000Y-8610000D01*
X17100000Y-8610000D02*
X17163800Y-8610000D01*
D24*
X16760000Y-8540000D02*
X16730000Y-8540000D01*
D19*
X16714854Y-8524854D02*
X16730000Y-8540000D01*
X16639776Y-8524854D02*
X16714854Y-8524854D01*
D20*
X16760000Y-8540000D02*
X17030000Y-8540000D01*
%TO.N,Net-(R8-Pad2)*%
X16690000Y-8810000D02*
X16710000Y-8830000D01*
X16710000Y-8830000D02*
X16793800Y-8830000D01*
D24*
X16690000Y-8780000D02*
X16690000Y-8740000D01*
D19*
X16674752Y-8724752D02*
X16690000Y-8740000D01*
X16639776Y-8724752D02*
X16674752Y-8724752D01*
D20*
X16690000Y-8780000D02*
X16690000Y-8810000D01*
%TD*%
%TO.N,3V3*%
D25*
X17087287Y-9833501D02*
X17085965Y-9841075D01*
X17126935Y-9882045D01*
X17133065Y-9882045D01*
X17162623Y-9852487D01*
X17719356Y-9852487D01*
X17719356Y-9888065D01*
X17723691Y-9892400D01*
X17751865Y-9892400D01*
X17756200Y-9888065D01*
X17756200Y-9834491D01*
X17751865Y-9830156D01*
X17741687Y-9830156D01*
X17740963Y-9830227D01*
X17734039Y-9831605D01*
X17732692Y-9832163D01*
X17726518Y-9836288D01*
X17725488Y-9837318D01*
X17721363Y-9843492D01*
X17720805Y-9844839D01*
X17719427Y-9851763D01*
X17719356Y-9852487D01*
X17162623Y-9852487D01*
X17173995Y-9841115D01*
X17172736Y-9833597D01*
X17160030Y-9827400D01*
X17812600Y-9827400D01*
X17812600Y-9831414D01*
X17806637Y-9830227D01*
X17805914Y-9830156D01*
X17795735Y-9830156D01*
X17791400Y-9834491D01*
X17791400Y-9985509D01*
X17795735Y-9989844D01*
X17805914Y-9989844D01*
X17806637Y-9989773D01*
X17812600Y-9988587D01*
X17812600Y-10023065D01*
X17816935Y-10027400D01*
X18012600Y-10027400D01*
X18012600Y-10132600D01*
X17998587Y-10132600D01*
X17999773Y-10126637D01*
X17999844Y-10125914D01*
X17999844Y-10115735D01*
X17995509Y-10111400D01*
X17941935Y-10111400D01*
X17941935Y-10111400D01*
X17844491Y-10111400D01*
X17840156Y-10115735D01*
X17840156Y-10125914D01*
X17840227Y-10126637D01*
X17841414Y-10132600D01*
X17608587Y-10132600D01*
X17609773Y-10126637D01*
X17609844Y-10125914D01*
X17609844Y-10115735D01*
X17605509Y-10111400D01*
X17551935Y-10111400D01*
X17551935Y-10111400D01*
X17454491Y-10111400D01*
X17450156Y-10115735D01*
X17450156Y-10125914D01*
X17450227Y-10126637D01*
X17451414Y-10132600D01*
X17037400Y-10132600D01*
X17037400Y-10061687D01*
X17450156Y-10061687D01*
X17450156Y-10071865D01*
X17454491Y-10076200D01*
X17508065Y-10076200D01*
X17512400Y-10071865D01*
X17512400Y-10043691D01*
X17547600Y-10043691D01*
X17547600Y-10071865D01*
X17551935Y-10076200D01*
X17605509Y-10076200D01*
X17609844Y-10071865D01*
X17609844Y-10061687D01*
X17840156Y-10061687D01*
X17840156Y-10071865D01*
X17844491Y-10076200D01*
X17898065Y-10076200D01*
X17902400Y-10071865D01*
X17902400Y-10043691D01*
X17937600Y-10043691D01*
X17937600Y-10071865D01*
X17941935Y-10076200D01*
X17995509Y-10076200D01*
X17999844Y-10071865D01*
X17999844Y-10061687D01*
X17999773Y-10060963D01*
X17998395Y-10054039D01*
X17997838Y-10052692D01*
X17993712Y-10046518D01*
X17992682Y-10045488D01*
X17986508Y-10041363D01*
X17985161Y-10040805D01*
X17978237Y-10039427D01*
X17977514Y-10039356D01*
X17941935Y-10039356D01*
X17937600Y-10043691D01*
X17902400Y-10043691D01*
X17898065Y-10039356D01*
X17862487Y-10039356D01*
X17861763Y-10039427D01*
X17854839Y-10040805D01*
X17853492Y-10041363D01*
X17847318Y-10045488D01*
X17846288Y-10046518D01*
X17842163Y-10052692D01*
X17841605Y-10054039D01*
X17840227Y-10060963D01*
X17840156Y-10061687D01*
X17609844Y-10061687D01*
X17609773Y-10060963D01*
X17608395Y-10054039D01*
X17607838Y-10052692D01*
X17603712Y-10046518D01*
X17602682Y-10045488D01*
X17596508Y-10041363D01*
X17595161Y-10040805D01*
X17588237Y-10039427D01*
X17587514Y-10039356D01*
X17551935Y-10039356D01*
X17547600Y-10043691D01*
X17512400Y-10043691D01*
X17508065Y-10039356D01*
X17472487Y-10039356D01*
X17471763Y-10039427D01*
X17464839Y-10040805D01*
X17463492Y-10041363D01*
X17457318Y-10045488D01*
X17456288Y-10046518D01*
X17452163Y-10052692D01*
X17451605Y-10054039D01*
X17450227Y-10060963D01*
X17450156Y-10061687D01*
X17037400Y-10061687D01*
X17037400Y-9978856D01*
X17086034Y-9978856D01*
X17087230Y-9986318D01*
X17098971Y-9992249D01*
X17099746Y-9992537D01*
X17117964Y-9997079D01*
X17118784Y-9997189D01*
X17137555Y-9997582D01*
X17138379Y-9997507D01*
X17156771Y-9993732D01*
X17157558Y-9993476D01*
X17172701Y-9986607D01*
X17174088Y-9978978D01*
X17133065Y-9937955D01*
X17126935Y-9937955D01*
X17086034Y-9978856D01*
X17037400Y-9978856D01*
X17037400Y-9918166D01*
X17042473Y-9918166D01*
X17042554Y-9918990D01*
X17046457Y-9937355D01*
X17046719Y-9938140D01*
X17053449Y-9952706D01*
X17061050Y-9954060D01*
X17102045Y-9913065D01*
X17102045Y-9906935D01*
X17157955Y-9906935D01*
X17157955Y-9913065D01*
X17198846Y-9953956D01*
X17206280Y-9952792D01*
X17212030Y-9941603D01*
X17212324Y-9940829D01*
X17214608Y-9931935D01*
X17719356Y-9931935D01*
X17719356Y-9967514D01*
X17719427Y-9968237D01*
X17720805Y-9975161D01*
X17721363Y-9976508D01*
X17725488Y-9982682D01*
X17726518Y-9983712D01*
X17732692Y-9987838D01*
X17734039Y-9988395D01*
X17740963Y-9989773D01*
X17741687Y-9989844D01*
X17751865Y-9989844D01*
X17756200Y-9985509D01*
X17756200Y-9931935D01*
X17751865Y-9927600D01*
X17723691Y-9927600D01*
X17719356Y-9931935D01*
X17214608Y-9931935D01*
X17217000Y-9922619D01*
X17217116Y-9921747D01*
X17217410Y-9900690D01*
X17217318Y-9899815D01*
X17213153Y-9881481D01*
X17212881Y-9880700D01*
X17206449Y-9867277D01*
X17198903Y-9865987D01*
X17157955Y-9906935D01*
X17102045Y-9906935D01*
X17061131Y-9866022D01*
X17053641Y-9867248D01*
X17047537Y-9879546D01*
X17047254Y-9880323D01*
X17042839Y-9898572D01*
X17042735Y-9899393D01*
X17042473Y-9918166D01*
X17037400Y-9918166D01*
X17037400Y-9827400D01*
X17100253Y-9827400D01*
X17087287Y-9833501D01*
%TA.AperFunction,Conductor*%
G36*
X17087287Y-9833501D02*
G01*
X17085965Y-9841075D01*
X17126935Y-9882045D01*
X17133065Y-9882045D01*
X17162623Y-9852487D01*
X17719356Y-9852487D01*
X17719356Y-9888065D01*
X17723691Y-9892400D01*
X17751865Y-9892400D01*
X17756200Y-9888065D01*
X17756200Y-9834491D01*
X17751865Y-9830156D01*
X17741687Y-9830156D01*
X17740963Y-9830227D01*
X17734039Y-9831605D01*
X17732692Y-9832163D01*
X17726518Y-9836288D01*
X17725488Y-9837318D01*
X17721363Y-9843492D01*
X17720805Y-9844839D01*
X17719427Y-9851763D01*
X17719356Y-9852487D01*
X17162623Y-9852487D01*
X17173995Y-9841115D01*
X17172736Y-9833597D01*
X17160030Y-9827400D01*
X17812600Y-9827400D01*
X17812600Y-9831414D01*
X17806637Y-9830227D01*
X17805914Y-9830156D01*
X17795735Y-9830156D01*
X17791400Y-9834491D01*
X17791400Y-9985509D01*
X17795735Y-9989844D01*
X17805914Y-9989844D01*
X17806637Y-9989773D01*
X17812600Y-9988587D01*
X17812600Y-10023065D01*
X17816935Y-10027400D01*
X18012600Y-10027400D01*
X18012600Y-10132600D01*
X17998587Y-10132600D01*
X17999773Y-10126637D01*
X17999844Y-10125914D01*
X17999844Y-10115735D01*
X17995509Y-10111400D01*
X17941935Y-10111400D01*
X17941935Y-10111400D01*
X17844491Y-10111400D01*
X17840156Y-10115735D01*
X17840156Y-10125914D01*
X17840227Y-10126637D01*
X17841414Y-10132600D01*
X17608587Y-10132600D01*
X17609773Y-10126637D01*
X17609844Y-10125914D01*
X17609844Y-10115735D01*
X17605509Y-10111400D01*
X17551935Y-10111400D01*
X17551935Y-10111400D01*
X17454491Y-10111400D01*
X17450156Y-10115735D01*
X17450156Y-10125914D01*
X17450227Y-10126637D01*
X17451414Y-10132600D01*
X17037400Y-10132600D01*
X17037400Y-10061687D01*
X17450156Y-10061687D01*
X17450156Y-10071865D01*
X17454491Y-10076200D01*
X17508065Y-10076200D01*
X17512400Y-10071865D01*
X17512400Y-10043691D01*
X17547600Y-10043691D01*
X17547600Y-10071865D01*
X17551935Y-10076200D01*
X17605509Y-10076200D01*
X17609844Y-10071865D01*
X17609844Y-10061687D01*
X17840156Y-10061687D01*
X17840156Y-10071865D01*
X17844491Y-10076200D01*
X17898065Y-10076200D01*
X17902400Y-10071865D01*
X17902400Y-10043691D01*
X17937600Y-10043691D01*
X17937600Y-10071865D01*
X17941935Y-10076200D01*
X17995509Y-10076200D01*
X17999844Y-10071865D01*
X17999844Y-10061687D01*
X17999773Y-10060963D01*
X17998395Y-10054039D01*
X17997838Y-10052692D01*
X17993712Y-10046518D01*
X17992682Y-10045488D01*
X17986508Y-10041363D01*
X17985161Y-10040805D01*
X17978237Y-10039427D01*
X17977514Y-10039356D01*
X17941935Y-10039356D01*
X17937600Y-10043691D01*
X17902400Y-10043691D01*
X17898065Y-10039356D01*
X17862487Y-10039356D01*
X17861763Y-10039427D01*
X17854839Y-10040805D01*
X17853492Y-10041363D01*
X17847318Y-10045488D01*
X17846288Y-10046518D01*
X17842163Y-10052692D01*
X17841605Y-10054039D01*
X17840227Y-10060963D01*
X17840156Y-10061687D01*
X17609844Y-10061687D01*
X17609773Y-10060963D01*
X17608395Y-10054039D01*
X17607838Y-10052692D01*
X17603712Y-10046518D01*
X17602682Y-10045488D01*
X17596508Y-10041363D01*
X17595161Y-10040805D01*
X17588237Y-10039427D01*
X17587514Y-10039356D01*
X17551935Y-10039356D01*
X17547600Y-10043691D01*
X17512400Y-10043691D01*
X17508065Y-10039356D01*
X17472487Y-10039356D01*
X17471763Y-10039427D01*
X17464839Y-10040805D01*
X17463492Y-10041363D01*
X17457318Y-10045488D01*
X17456288Y-10046518D01*
X17452163Y-10052692D01*
X17451605Y-10054039D01*
X17450227Y-10060963D01*
X17450156Y-10061687D01*
X17037400Y-10061687D01*
X17037400Y-9978856D01*
X17086034Y-9978856D01*
X17087230Y-9986318D01*
X17098971Y-9992249D01*
X17099746Y-9992537D01*
X17117964Y-9997079D01*
X17118784Y-9997189D01*
X17137555Y-9997582D01*
X17138379Y-9997507D01*
X17156771Y-9993732D01*
X17157558Y-9993476D01*
X17172701Y-9986607D01*
X17174088Y-9978978D01*
X17133065Y-9937955D01*
X17126935Y-9937955D01*
X17086034Y-9978856D01*
X17037400Y-9978856D01*
X17037400Y-9918166D01*
X17042473Y-9918166D01*
X17042554Y-9918990D01*
X17046457Y-9937355D01*
X17046719Y-9938140D01*
X17053449Y-9952706D01*
X17061050Y-9954060D01*
X17102045Y-9913065D01*
X17102045Y-9906935D01*
X17157955Y-9906935D01*
X17157955Y-9913065D01*
X17198846Y-9953956D01*
X17206280Y-9952792D01*
X17212030Y-9941603D01*
X17212324Y-9940829D01*
X17214608Y-9931935D01*
X17719356Y-9931935D01*
X17719356Y-9967514D01*
X17719427Y-9968237D01*
X17720805Y-9975161D01*
X17721363Y-9976508D01*
X17725488Y-9982682D01*
X17726518Y-9983712D01*
X17732692Y-9987838D01*
X17734039Y-9988395D01*
X17740963Y-9989773D01*
X17741687Y-9989844D01*
X17751865Y-9989844D01*
X17756200Y-9985509D01*
X17756200Y-9931935D01*
X17751865Y-9927600D01*
X17723691Y-9927600D01*
X17719356Y-9931935D01*
X17214608Y-9931935D01*
X17217000Y-9922619D01*
X17217116Y-9921747D01*
X17217410Y-9900690D01*
X17217318Y-9899815D01*
X17213153Y-9881481D01*
X17212881Y-9880700D01*
X17206449Y-9867277D01*
X17198903Y-9865987D01*
X17157955Y-9906935D01*
X17102045Y-9906935D01*
X17061131Y-9866022D01*
X17053641Y-9867248D01*
X17047537Y-9879546D01*
X17047254Y-9880323D01*
X17042839Y-9898572D01*
X17042735Y-9899393D01*
X17042473Y-9918166D01*
X17037400Y-9918166D01*
X17037400Y-9827400D01*
X17100253Y-9827400D01*
X17087287Y-9833501D01*
G37*
%TD.AperFunction*%
%TD*%
%TO.N,3V3_RF*%
X17837527Y-9639713D02*
X17837456Y-9640437D01*
X17837456Y-9663315D01*
X17841791Y-9667650D01*
X17908065Y-9667650D01*
X17908065Y-9667650D01*
X17947600Y-9667650D01*
X17947600Y-9703803D01*
X17947600Y-9710250D01*
X17947600Y-9748059D01*
X17951935Y-9752394D01*
X18000214Y-9752394D01*
X18000937Y-9752323D01*
X18007861Y-9750945D01*
X18009208Y-9750388D01*
X18012600Y-9748121D01*
X18012600Y-9972600D01*
X17979705Y-9972600D01*
X17980573Y-9968237D01*
X17980644Y-9967514D01*
X17980644Y-9931935D01*
X17976309Y-9927600D01*
X17908600Y-9927600D01*
X17908600Y-9834491D01*
X17943800Y-9834491D01*
X17943800Y-9888065D01*
X17948135Y-9892400D01*
X17976309Y-9892400D01*
X17980644Y-9888065D01*
X17980644Y-9852487D01*
X17980573Y-9851763D01*
X17979195Y-9844839D01*
X17978638Y-9843492D01*
X17974512Y-9837318D01*
X17973482Y-9836288D01*
X17967308Y-9832163D01*
X17965961Y-9831605D01*
X17959037Y-9830227D01*
X17958314Y-9830156D01*
X17948135Y-9830156D01*
X17943800Y-9834491D01*
X17908600Y-9834491D01*
X17904265Y-9830156D01*
X17897400Y-9830156D01*
X17897400Y-9776935D01*
X17893065Y-9772600D01*
X17677400Y-9772600D01*
X17677400Y-9719705D01*
X17681763Y-9720573D01*
X17682487Y-9720644D01*
X17718065Y-9720644D01*
X17722400Y-9716309D01*
X17722400Y-9688135D01*
X17757600Y-9688135D01*
X17757600Y-9716309D01*
X17761935Y-9720644D01*
X17797514Y-9720644D01*
X17798237Y-9720573D01*
X17805161Y-9719195D01*
X17806508Y-9718638D01*
X17812682Y-9714512D01*
X17813712Y-9713482D01*
X17817838Y-9707308D01*
X17817889Y-9707185D01*
X17837456Y-9707185D01*
X17837456Y-9730064D01*
X17837527Y-9730787D01*
X17838905Y-9737711D01*
X17839463Y-9739058D01*
X17843588Y-9745232D01*
X17844618Y-9746262D01*
X17850792Y-9750388D01*
X17852139Y-9750945D01*
X17859063Y-9752323D01*
X17859787Y-9752394D01*
X17908065Y-9752394D01*
X17912400Y-9748059D01*
X17912400Y-9707185D01*
X17908065Y-9702850D01*
X17841791Y-9702850D01*
X17837456Y-9707185D01*
X17817889Y-9707185D01*
X17818395Y-9705961D01*
X17819773Y-9699037D01*
X17819844Y-9698314D01*
X17819844Y-9688135D01*
X17815509Y-9683800D01*
X17761935Y-9683800D01*
X17757600Y-9688135D01*
X17722400Y-9688135D01*
X17722400Y-9648600D01*
X17815509Y-9648600D01*
X17819844Y-9644265D01*
X17819844Y-9637400D01*
X17837988Y-9637400D01*
X17837527Y-9639713D01*
%TA.AperFunction,Conductor*%
G36*
X17837527Y-9639713D02*
G01*
X17837456Y-9640437D01*
X17837456Y-9663315D01*
X17841791Y-9667650D01*
X17908065Y-9667650D01*
X17908065Y-9667650D01*
X17947600Y-9667650D01*
X17947600Y-9703803D01*
X17947600Y-9710250D01*
X17947600Y-9748059D01*
X17951935Y-9752394D01*
X18000214Y-9752394D01*
X18000937Y-9752323D01*
X18007861Y-9750945D01*
X18009208Y-9750388D01*
X18012600Y-9748121D01*
X18012600Y-9972600D01*
X17979705Y-9972600D01*
X17980573Y-9968237D01*
X17980644Y-9967514D01*
X17980644Y-9931935D01*
X17976309Y-9927600D01*
X17908600Y-9927600D01*
X17908600Y-9834491D01*
X17943800Y-9834491D01*
X17943800Y-9888065D01*
X17948135Y-9892400D01*
X17976309Y-9892400D01*
X17980644Y-9888065D01*
X17980644Y-9852487D01*
X17980573Y-9851763D01*
X17979195Y-9844839D01*
X17978638Y-9843492D01*
X17974512Y-9837318D01*
X17973482Y-9836288D01*
X17967308Y-9832163D01*
X17965961Y-9831605D01*
X17959037Y-9830227D01*
X17958314Y-9830156D01*
X17948135Y-9830156D01*
X17943800Y-9834491D01*
X17908600Y-9834491D01*
X17904265Y-9830156D01*
X17897400Y-9830156D01*
X17897400Y-9776935D01*
X17893065Y-9772600D01*
X17677400Y-9772600D01*
X17677400Y-9719705D01*
X17681763Y-9720573D01*
X17682487Y-9720644D01*
X17718065Y-9720644D01*
X17722400Y-9716309D01*
X17722400Y-9688135D01*
X17757600Y-9688135D01*
X17757600Y-9716309D01*
X17761935Y-9720644D01*
X17797514Y-9720644D01*
X17798237Y-9720573D01*
X17805161Y-9719195D01*
X17806508Y-9718638D01*
X17812682Y-9714512D01*
X17813712Y-9713482D01*
X17817838Y-9707308D01*
X17817889Y-9707185D01*
X17837456Y-9707185D01*
X17837456Y-9730064D01*
X17837527Y-9730787D01*
X17838905Y-9737711D01*
X17839463Y-9739058D01*
X17843588Y-9745232D01*
X17844618Y-9746262D01*
X17850792Y-9750388D01*
X17852139Y-9750945D01*
X17859063Y-9752323D01*
X17859787Y-9752394D01*
X17908065Y-9752394D01*
X17912400Y-9748059D01*
X17912400Y-9707185D01*
X17908065Y-9702850D01*
X17841791Y-9702850D01*
X17837456Y-9707185D01*
X17817889Y-9707185D01*
X17818395Y-9705961D01*
X17819773Y-9699037D01*
X17819844Y-9698314D01*
X17819844Y-9688135D01*
X17815509Y-9683800D01*
X17761935Y-9683800D01*
X17757600Y-9688135D01*
X17722400Y-9688135D01*
X17722400Y-9648600D01*
X17815509Y-9648600D01*
X17819844Y-9644265D01*
X17819844Y-9637400D01*
X17837988Y-9637400D01*
X17837527Y-9639713D01*
G37*
%TD.AperFunction*%
%TD*%
M02*
