%TF.GenerationSoftware,KiCad,Pcbnew,5.99.0-unknown-r19092-42a2f134*%
%TF.CreationDate,2020-07-22T08:57:51-04:00*%
%TF.ProjectId,rfid,72666964-2e6b-4696-9361-645f70636258,rev?*%
%TF.SameCoordinates,Original*%
%TF.FileFunction,Paste,Top*%
%TF.FilePolarity,Positive*%
%FSLAX45Y45*%
G04 Gerber Fmt 4.5, Leading zero omitted, Abs format (unit mm)*
G04 Created by KiCad (PCBNEW 5.99.0-unknown-r19092-42a2f134) date 2020-07-22 08:57:51*
%MOMM*%
%LPD*%
G01*
G04 APERTURE LIST*
%ADD10R,1.143000X0.635000*%
%ADD11R,0.635000X1.143000*%
%ADD12R,1.397000X0.889000*%
%ADD13R,0.599440X0.248920*%
%ADD14R,0.248920X0.599440*%
%ADD15R,3.299460X3.299460*%
%ADD16R,0.700000X0.750000*%
G04 APERTURE END LIST*
D10*
%TO.C,C1*%
X16090000Y-8973800D03*
X16090000Y-9126200D03*
%TD*%
D11*
%TO.C,C2*%
X16366200Y-9290000D03*
X16213800Y-9290000D03*
%TD*%
D10*
%TO.C,C3*%
X17920000Y-10093800D03*
X17920000Y-10246200D03*
%TD*%
%TO.C,C4*%
X17740000Y-9666200D03*
X17740000Y-9513800D03*
%TD*%
D11*
%TO.C,C5*%
X16543800Y-8106796D03*
X16696200Y-8106796D03*
%TD*%
D10*
%TO.C,C6*%
X16620000Y-8943800D03*
X16620000Y-9096200D03*
%TD*%
%TO.C,C7*%
X16843803Y-8296200D03*
X16843803Y-8143800D03*
%TD*%
%TO.C,C8*%
X17530000Y-10093800D03*
X17530000Y-10246200D03*
%TD*%
D12*
%TO.C,C9*%
X17930000Y-9685250D03*
X17930000Y-9494750D03*
%TD*%
D10*
%TO.C,C10*%
X17170000Y-9166200D03*
X17170000Y-9013800D03*
%TD*%
%TO.C,C11*%
X17170000Y-7883800D03*
X17170000Y-8036200D03*
%TD*%
D11*
%TO.C,C12*%
X17316200Y-8840000D03*
X17163800Y-8840000D03*
%TD*%
%TO.C,C13*%
X17316200Y-8210000D03*
X17163800Y-8210000D03*
%TD*%
D10*
%TO.C,C14*%
X17530000Y-8606200D03*
X17530000Y-8453800D03*
%TD*%
%TO.C,C15*%
X17730000Y-8606200D03*
X17730000Y-8453800D03*
%TD*%
D11*
%TO.C,L1*%
X17773800Y-9910000D03*
X17926200Y-9910000D03*
%TD*%
D10*
%TO.C,R1*%
X16810000Y-6893800D03*
X16810000Y-7046200D03*
%TD*%
D11*
%TO.C,R2*%
X16006200Y-8460000D03*
X15853800Y-8460000D03*
%TD*%
%TO.C,R3*%
X16006200Y-8640000D03*
X15853800Y-8640000D03*
%TD*%
D10*
%TO.C,R4*%
X17010000Y-6893800D03*
X17010000Y-7046200D03*
%TD*%
D11*
%TO.C,R5*%
X16946200Y-8660000D03*
X16793800Y-8660000D03*
%TD*%
%TO.C,R6*%
X17316200Y-8440000D03*
X17163800Y-8440000D03*
%TD*%
%TO.C,R7*%
X17316200Y-8610000D03*
X17163800Y-8610000D03*
%TD*%
%TO.C,R8*%
X16946200Y-8830000D03*
X16793800Y-8830000D03*
%TD*%
D10*
%TO.C,R9*%
X17930000Y-8606200D03*
X17930000Y-8453800D03*
%TD*%
D13*
%TO.C,U1*%
X16639776Y-8724752D03*
X16639776Y-8674714D03*
X16639776Y-8624676D03*
X16639776Y-8574638D03*
X16639776Y-8524854D03*
X16639776Y-8474816D03*
X16639776Y-8424778D03*
X16639776Y-8374740D03*
D14*
X16375108Y-8309716D03*
X16325324Y-8309716D03*
X16275286Y-8309716D03*
X16225248Y-8309716D03*
D15*
X16400000Y-8550000D03*
D14*
X16575006Y-8309716D03*
X16524968Y-8309716D03*
X16474930Y-8309716D03*
X16425146Y-8309716D03*
D13*
X16160224Y-8375248D03*
X16159970Y-8425286D03*
X16159970Y-8475070D03*
X16159970Y-8525108D03*
X16159970Y-8575146D03*
X16159970Y-8625184D03*
X16159970Y-8675222D03*
X16159970Y-8725260D03*
D14*
X16224994Y-8790030D03*
X16275032Y-8790030D03*
X16325070Y-8790030D03*
X16374854Y-8790030D03*
X16424892Y-8790030D03*
X16474930Y-8790030D03*
X16524968Y-8790030D03*
X16575006Y-8790030D03*
%TD*%
D16*
%TO.C,G1*%
X16270000Y-8982500D03*
X16270000Y-9117500D03*
X16370000Y-9117500D03*
X16370000Y-8982500D03*
%TD*%
M02*
